<?xml version="1.0" standalone="no"?>
<!DOCTYPE svg PUBLIC "-//W3C//DTD SVG 1.1//EN" "http://www.w3.org/Graphics/SVG/1.1/DTD/svg11.dtd" >
<svg xmlns="http://www.w3.org/2000/svg" xmlns:xlink="http://www.w3.org/1999/xlink" version="1.1">
<metadata>
Created by FontForge 20170731 at Fri Nov 27 16:23:01 2020
 By Aleksey,,,
Copyright (c) 2019 by BumBumType. All rights reserved.
</metadata>
<defs>
<font id="Albra-Semi" horiz-adv-x="1142" >
  <font-face 
    font-family="Albra Semi"
    font-weight="600"
    font-stretch="normal"
    units-per-em="2048"
    panose-1="2 0 7 0 0 0 0 0 0 0"
    ascent="1599"
    descent="-449"
    x-height="989"
    cap-height="1464"
    bbox="-297 -524 2769 2216"
    underline-thickness="102"
    underline-position="-409"
    unicode-range="U+0020-2212"
  />
<missing-glyph horiz-adv-x="1781" 
 />
    <glyph glyph-name="f_f" unicode="ff" horiz-adv-x="1392" 
d="M1055 1479q-56 0 -56 -86q0 -117 115 -404h256l-16 -63h-240v-686q2 -45 4 -69t9 -48.5t12.5 -34.5t24 -25t34 -23t51.5 -26v-14h-569v14q77 41 98 78q23 41 23 148v686h-350v-686q0 -112 20 -148q21 -37 98 -78v-14h-553v14q79 42 99 78q22 39 22 148v686h-114v63h114
v21q0 248 117.5 379t325.5 131q97 0 260 -25l-117 -213h-10q-126 182 -217 182q-82 0 -82 -168q0 -122 37 -307h350v64q0 487 319 487q140 0 338 -82l-186 -217l-12 4q-114 234 -205 234z" />
    <glyph glyph-name="f_i" unicode="fi" horiz-adv-x="1230" 
d="M1098 240q0 -112 20 -148q20 -35 101 -78v-14h-553v14q74 39 96 78t22 148v686h-331v-686q0 -110 24 -148q24 -37 113 -78v-14h-572v14q79 42 99 78q22 39 22 148v686h-116v63h116v29q0 150 46.5 261.5t123.5 164.5q133 96 287 96q185 0 426 -104l-191 -267h-8
q-114 316 -237 316q-59 0 -96 -73t-37 -218v-205h331q171 0 314 31v-780z" />
    <glyph glyph-name="f_l" unicode="fl" horiz-adv-x="1247" 
d="M1114 240q0 -110 21 -148q20 -36 100 -78v-14h-553v14q74 39 96 78q23 41 23 148v1132q-103 115 -199 115q-149 0 -149 -281v-217h252l-7 -63h-245v-686q0 -110 24 -148q27 -37 119 -78v-14h-578v14q79 42 99 78q22 39 22 148v686h-119v63h119v55q0 136 40.5 238.5
t111.5 157.5q133 100 305 100q147 0 332 -51l186 41v-1290z" />
    <glyph glyph-name=".notdef" horiz-adv-x="1781" 
 />
    <glyph glyph-name=".null" horiz-adv-x="0" 
 />
    <glyph glyph-name="nonmarkingreturn" horiz-adv-x="682" 
 />
    <glyph glyph-name="space" unicode=" " horiz-adv-x="462" 
 />
    <glyph glyph-name="exclam" unicode="!" horiz-adv-x="530" 
d="M236 430q-83 719 -140 1014v20h342v-20q-50 -255 -141 -1014h-61zM268 -16q-69 0 -118.5 47.5t-49.5 113.5t49.5 114t118.5 48q68 0 117 -48t49 -114t-49 -113.5t-117 -47.5z" />
    <glyph glyph-name="quotedbl" unicode="&#x22;" horiz-adv-x="708" 
d="M197 934h-31q-54 270 -121 530h274q-65 -262 -122 -530zM543 932h-29q-34 165 -121 530h275q-62 -243 -125 -530z" />
    <glyph glyph-name="numbersign" unicode="#" horiz-adv-x="1263" 
d="M1225 848h-305l-127 -356h297l-11 -64h-309l-152 -428h-57l152 428h-340l-156 -428h-57l155 428h-282l10 64h295l129 356h-289l10 63h301l150 410h57l-149 -410h338l145 410h57l-145 -410h293zM735 492l127 356h-338l-129 -356h340z" />
    <glyph glyph-name="dollar" unicode="$" horiz-adv-x="1169" 
d="M1085 408q0 -213 -139 -322q-137 -107 -325 -113v-161h-74v163q-199 15 -424 117l-27 426h15q84 -178 196 -311q117 -136 240 -162v526l-43 25l-115 63l-98 70q-74 61 -94 90q-82 116 -82 246q0 176 121 285q119 105 311 114v146h74v-148q174 -9 350 -71l41 -414h-15
q-70 143 -170 264q-92 116 -206 152v-463q16 -7 51 -29l84 -51q84 -46 90 -51l72 -51q44 -32 71 -66q108 -135 96 -274zM365 1204q0 -71 39 -120t143 -111v430q-79 -5 -130.5 -57.5t-51.5 -141.5zM621 39q90 6 146 64.5t56 154.5q0 84 -45 141t-157 127v-487z" />
    <glyph glyph-name="percent" unicode="%" horiz-adv-x="1908" 
d="M477 -31l-47 29l997 1503l46 -33zM457 532q-181 0 -293 130q-111 129 -111 327q0 202 113 336q114 135 299 135q177 0 289 -127q112 -124 112 -329q0 -202 -110 -336q-112 -136 -299 -136zM492 575q70 0 112.5 81t42.5 231q0 275 -94 436q-52 94 -123 94
q-70 0 -114 -80.5t-44 -228.5q0 -184 58 -358q58 -175 162 -175zM1456 918q178 0 291 -125t113 -328q0 -201 -113 -338q-114 -135 -299 -135q-178 0 -293 127q-111 126 -111 330q0 199 113 333q115 136 299 136zM1421 877q-70 0 -113.5 -81t-43.5 -229q0 -269 92 -438
q52 -94 125 -94q70 0 114.5 81t44.5 228q0 273 -94 436q-54 97 -125 97z" />
    <glyph glyph-name="ampersand" unicode="&#x26;" horiz-adv-x="1652" 
d="M539 -25q-219 0 -353 101q-135 102 -135 266q0 77 30 141t88 113t133 86t175 68q-205 242 -205 411q0 139 115 234q116 96 301 96q172 0 279 -84q106 -81 106 -205q0 -99 -69.5 -175t-219.5 -159l379 -424q62 92 86 220q4 36 4 38q0 54 -31.5 92t-103.5 78v15h434v-15
q-95 -63 -133 -106q-38 -41 -106 -148q-46 -111 -111 -219l148 -161q56 -62 112 -62q91 0 162 146l14 -7q-10 -45 -28.5 -90.5t-48.5 -91.5t-68 -81t-90.5 -57t-110.5 -22q-82 0 -151 42.5t-152 134.5q-187 -175 -450 -175zM750 911q102 138 102 289q0 111 -46 173.5
t-110 62.5q-56 0 -95.5 -50.5t-39.5 -130.5q0 -78 43 -151q53 -83 146 -193zM700 115q127 0 246 84l-432 506q-158 -93 -158 -252q0 -139 101 -240q101 -98 243 -98z" />
    <glyph glyph-name="quotesingle" unicode="'" horiz-adv-x="360" 
d="M197 934h-31q-54 270 -121 530h274q-65 -262 -122 -530z" />
    <glyph glyph-name="parenleft" unicode="(" horiz-adv-x="751" 
d="M721 1585q-178 -178 -277 -403q-96 -229 -96 -578q0 -348 96 -577q98 -223 277 -402l-10 -16q-613 305 -613 995t613 998z" />
    <glyph glyph-name="parenright" unicode=")" horiz-adv-x="751" 
d="M45 1602q612 -310 612 -998q0 -685 -612 -995l-12 16q183 180 276 402q99 225 99 577q0 353 -99 578q-94 224 -276 403z" />
    <glyph glyph-name="asterisk" unicode="*" horiz-adv-x="966" 
d="M918 1069l-19 -6h-379l307 -209l11 -16l-222 -158l-10 14l-121 353l-120 -353l-13 -12l-221 156l12 14l308 211h-379l-19 4l86 256l17 -6l309 -215l-117 342v20h275v-20l-117 -344l309 217l19 6z" />
    <glyph glyph-name="plus" unicode="+" horiz-adv-x="911" 
d="M883 719v-64h-396v-383h-59v383h-395v64h395v383h59v-383h396z" />
    <glyph glyph-name="comma" unicode="," horiz-adv-x="524" 
d="M262 311q70 0 117 -52.5t47 -143.5q0 -113 -76 -238q-75 -128 -215 -192l-8 16q122 143 156 295h-19q-68 0 -115 45t-47 111t47 112.5t113 46.5z" />
    <glyph glyph-name="hyphen" unicode="-" horiz-adv-x="757" 
d="M688 590v-88h-614v88h614z" />
    <glyph glyph-name="period" unicode="." horiz-adv-x="530" 
d="M268 -16q-67 0 -116.5 48.5t-49.5 114.5q0 67 49 116.5t117 49.5q66 0 115 -49.5t49 -116.5q0 -66 -49 -114.5t-115 -48.5z" />
    <glyph glyph-name="slash" unicode="/" horiz-adv-x="681" 
d="M2 -240l592 1821h61l-594 -1821h-59z" />
    <glyph glyph-name="zero" unicode="0" horiz-adv-x="1220" 
d="M612 -27q-223 0 -389 199t-166 543q0 345 166 547t387 202q222 0 387 -204q166 -202 166 -549q0 -345 -166 -541q-164 -197 -385 -197zM612 31q111 0 172.5 178t61.5 506q0 338 -65 515t-173 177q-107 0 -170 -175.5t-63 -512.5q0 -341 63.5 -514.5t173.5 -173.5z" />
    <glyph glyph-name="one" unicode="1" horiz-adv-x="759" 
d="M104 0v14q107 47 129 82q27 40 27 160v834q0 76 -39 112q-38 38 -151 84v12l497 177v-1219q0 -118 25 -160q25 -35 131 -82v-14h-619z" />
    <glyph glyph-name="two" unicode="2" horiz-adv-x="1030" 
d="M696 258q108 0 162 31q57 36 127 123l12 -6l-125 -406h-862v49q334 340 469 551q146 228 146 397q0 127 -65.5 201t-166.5 74q-170 0 -325 -180l-33 16q220 356 497 356q152 0 261 -100q110 -101 110 -270q0 -151 -115 -330q-44 -68 -141 -168q-59 -62 -162 -160
l-202 -178h413z" />
    <glyph glyph-name="three" unicode="3" horiz-adv-x="1077" 
d="M76 1149q100 149 232 231t282 82q148 0 242 -77.5t94 -200.5q0 -237 -365 -363v-2q31 8 82 8q155 0 264 -100q113 -101 113 -287q0 -216 -156 -342q-153 -123 -372 -123q-198 0 -431 88l125 304l15 -5q131 -327 307 -327q105 0 168 100q65 103 65 248q0 151 -74 243.5
t-200 92.5q-85 0 -176 -39l-12 41q383 184 383 397q0 89 -57.5 137t-153.5 48q-201 0 -351 -175z" />
    <glyph glyph-name="four" unicode="4" horiz-adv-x="1202" 
d="M1141 422h-195v-166q0 -118 25 -160q25 -35 131 -82v-14h-592v14q105 48 127 82q27 40 27 160v166h-621v31l854 1005h49v-917h215zM193 541h471v571z" />
    <glyph glyph-name="five" unicode="5" horiz-adv-x="1107" 
d="M510 893q222 0 362 -119q142 -121 142 -328q0 -96 -32.5 -176.5t-86 -134t-123.5 -91t-143.5 -54.5t-147.5 -17q-183 0 -424 93l103 352h14q135 -391 309 -391q96 0 168 100q74 103 74 266q0 173 -85 261.5t-230 88.5q-156 0 -291 -81l192 776h467q103 0 152 22
q47 24 108 94l13 -4l-133 -368h-605l-80 -336q115 47 277 47z" />
    <glyph glyph-name="six" unicode="6" horiz-adv-x="1169" 
d="M678 813q174 0 303 -102q131 -101 131 -287q0 -199 -151 -326q-149 -125 -379 -125q-233 0 -379 140t-146 407q0 243 127 447q123 201 328 327q204 124 444 164l5 -26q-245 -105 -402.5 -300.5t-200.5 -443.5q134 125 320 125zM592 25q100 0 165.5 92t65.5 239
q0 155 -68.5 254t-193.5 99q-122 0 -213 -97q-6 -53 -6 -106q0 -221 67.5 -351t182.5 -130z" />
    <glyph glyph-name="seven" unicode="7" horiz-adv-x="1058" 
d="M225 0q114 592 578 1155h-481q-112 0 -166 -31q-51 -29 -117 -123l-14 5l120 432h895v-45q-288 -335 -395 -682q-59 -186 -86 -336q-36 -200 -57 -375h-277z" />
    <glyph glyph-name="eight" unicode="8" horiz-adv-x="1120" 
d="M555 -27q-210 0 -354 105t-144 278q0 132 86.5 230t229.5 137q-262 142 -262 371q0 172 131 270q129 100 325 100q184 0 312 -90q127 -89 127 -221q0 -111 -93 -195q-90 -81 -200 -116l86 -47q33 -18 88 -62q64 -51 90 -86q36 -46 61 -114t25 -138q0 -194 -148 -309
q-143 -113 -360 -113zM674 864q129 120 129 289q0 114 -65 184t-165 70q-92 0 -148 -58.5t-56 -156.5q0 -68 33 -122t96 -100t176 -106zM555 33q110 0 178 67t68 176q0 114 -89.5 208t-301.5 212q-140 -119 -140 -323q0 -158 78 -249t207 -91z" />
    <glyph glyph-name="nine" unicode="9" horiz-adv-x="1169" 
d="M588 1464q234 0 379 -139t145 -407q0 -242 -127 -449q-126 -202 -330 -326q-199 -122 -442 -163l-6 26q246 104 404 299t202 447q-133 -127 -321 -127q-177 0 -306 100q-129 102 -129 289q0 199 150 325q149 125 381 125zM821 825q6 52 6 107q0 222 -67.5 351.5
t-184.5 129.5q-99 0 -164 -92t-65 -240t66 -252q66 -100 194 -100q125 0 215 96z" />
    <glyph glyph-name="colon" unicode=":" horiz-adv-x="493" 
d="M250 647q-69 0 -118.5 49t-49.5 117q0 69 49.5 118.5t118.5 49.5q68 0 117 -49.5t49 -118.5q0 -67 -49 -116.5t-117 -49.5zM250 -20q-69 0 -118.5 49.5t-49.5 117.5t49.5 118t118.5 50q67 0 116.5 -50t49.5 -118t-49.5 -117.5t-116.5 -49.5z" />
    <glyph glyph-name="semicolon" unicode=";" horiz-adv-x="501" 
d="M250 647q-69 0 -118.5 49t-49.5 117q0 69 49.5 118.5t118.5 49.5q68 0 117 -49.5t49 -118.5q0 -67 -49 -116.5t-117 -49.5zM258 311q70 0 117 -52.5t47 -143.5q0 -113 -76 -238q-75 -128 -215 -192l-10 16q123 138 158 295h-19q-69 0 -115.5 45t-46.5 111t47 112.5
t113 46.5z" />
    <glyph glyph-name="less" unicode="&#x3c;" horiz-adv-x="888" 
d="M860 250l-827 434v47l827 438v-69l-747 -395l747 -386v-69z" />
    <glyph glyph-name="equal" unicode="=" horiz-adv-x="825" 
d="M49 788v62h727v-62h-727zM49 520v64h727v-64h-727z" />
    <glyph glyph-name="greater" unicode="&#x3e;" horiz-adv-x="888" 
d="M33 250v69l747 386l-747 395v69l827 -438v-47z" />
    <glyph glyph-name="question" unicode="?" horiz-adv-x="944" 
d="M334 430q3 75 19 143t47 129t54 98t62 92q8 11 12 17q101 145 101 277q0 105 -46.5 177.5t-113.5 72.5q-97 -8 -172 -158q-14 -30 -23.5 -53.5t-19.5 -52.5t-18 -48q-15 -46 -15 -47l-10 -2l-158 279q78 59 230 106q105 31 200 31q180 0 299 -88q121 -89 121 -252
q0 -53 -16 -103t-38.5 -87.5t-61 -78.5t-69 -68.5t-76.5 -66.5q-6 -4 -8.5 -6.5t-7 -6.5t-8.5 -7q-168 -142 -202 -297h-82zM500 31q-50 -47 -117.5 -47t-118.5 47q-50 49 -50 114.5t50 112.5q51 50 118.5 50t117.5 -50q51 -47 51 -112.5t-51 -114.5z" />
    <glyph glyph-name="at" unicode="@" horiz-adv-x="1546" 
d="M1362 -66l127 -133q-84 -47 -254 -94q-151 -45 -317 -45q-232 0 -426 97.5t-314 281.5q-121 189 -121 430q0 342 228 573q229 232 549 232q262 0 428 -158q162 -155 159 -387l-14 -702h-21q-114 102 -182 102q-21 2 -48 -12t-57 -35t-64 -42t-78 -35t-89 -13
q-171 0 -272 137q-100 135 -100 340q0 213 110 356q113 146 295 146q168 0 275 -101v27q0 32 -14 72t-46 85t-76.5 82t-113.5 61t-150 24q-97 3 -199.5 -41.5t-179.5 -145.5q-54 -73 -87.5 -198.5t-33.5 -280.5q0 -381 177 -614q176 -232 458 -232q147 0 263.5 62t187.5 161
zM1155 205l16 477q-26 81 -94 162q-64 76 -141 76q-162 0 -162 -377q0 -229 56 -340t147 -111q99 0 178 113z" />
    <glyph glyph-name="A" unicode="A" horiz-adv-x="1486" 
d="M1305 207q22 -58 34 -80t41 -51q46 -36 90 -62v-14h-667v14q79 38 110 68.5t31 69.5q0 41 -33 131l-73 206h-463l-17 -47q-63 -180 -63 -245q0 -59 35.5 -99.5t124.5 -83.5v-14h-435v14q104 82 156 166q51 86 111 250l286 795l-73 143q186 69 307 154zM410 588h393
l-197 555z" />
    <glyph glyph-name="B" unicode="B" horiz-adv-x="1427" 
d="M897 825q62 -8 122 -25.5t120.5 -50.5t106 -76.5t74 -108t28.5 -140.5q0 -192 -166 -309q-168 -115 -443 -115h-706v14q107 47 129 82q26 39 26 160v952q0 122 -26 158q-22 36 -129 84v14h743q247 0 367 -102q123 -102 123 -236q0 -127 -113 -200q-116 -77 -256 -97v-4z
M666 1401h-129v-580h125q116 0 187 80.5t71 210.5q0 129 -69 209t-185 80zM723 66q256 15 256 337q0 182 -75 273.5t-216 83.5l-151 -8v-590q0 -42 50.5 -68.5t135.5 -27.5z" />
    <glyph glyph-name="C" unicode="C" horiz-adv-x="1413" 
d="M791 1430q-140 0 -248 -173q-109 -171 -109 -512q0 -347 111 -528q110 -180 250 -180q116 0 245 123q133 130 240 299h14l-41 -418q-239 -68 -473 -68q-299 0 -504 172q-104 89 -161.5 236t-57.5 334q0 369 205 571q205 205 522 205q194 0 469 -68l41 -411h-14
q-279 418 -489 418z" />
    <glyph glyph-name="D" unicode="D" horiz-adv-x="1525" 
d="M623 1464q413 0 629 -182.5t216 -513.5q0 -332 -202 -549q-201 -219 -553 -219h-680v14q107 47 129 82q26 39 26 160v952q0 122 -26 158q-22 36 -129 84v14h590zM717 66q173 12 275 192.5t102 489.5q0 253 -74 415q-28 61 -75 110t-93 77q-35 21 -91 35t-87 14
q-18 2 -68 2h-69v-1239q0 -39 48 -65.5t132 -30.5z" />
    <glyph glyph-name="E" unicode="E" horiz-adv-x="1318" 
d="M1212 420h15l-49 -420h-1145v14q107 47 129 82q26 39 26 160v952q0 122 -26 158q-22 36 -129 84v14h1073l37 -417h-15q-45 140 -155 247q-107 107 -271 107h-165v-588h168q170 0 270 160h10v-400h-10q-43 81 -115 130.5t-155 48.5l-168 -4v-586q0 -43 57.5 -69.5
t153.5 -26.5h63q125 0 229 104q106 103 172 250z" />
    <glyph glyph-name="F" unicode="F" horiz-adv-x="1224" 
d="M1120 1464l37 -417h-14q-45 139 -156 247q-107 107 -270 107h-180v-590h157q88 0 159 45.5t112 116.5h10v-402h-10q-102 182 -271 179l-157 -2v-492q0 -120 32 -158q31 -37 162 -84v-14h-698v14q107 47 129 82q26 39 26 160v952q0 122 -26 158q-22 36 -129 84v14h1087z
" />
    <glyph glyph-name="G" unicode="G" horiz-adv-x="1560" 
d="M733 -27q-260 0 -457 170q-101 89 -160 239t-59 337q0 369 209 569q212 203 551 203q130 0 268 -27q133 -26 215 -55l39 -420h-14q-107 187 -244 314q-136 127 -272 127q-155 0 -266 -175q-109 -177 -109 -522q0 -356 113 -524q114 -170 274 -170q82 0 152 43
q71 44 71 145v265q0 126 -54 185t-187 60v27h672v-16q-67 -48 -80 -84q-15 -38 -15 -156v-481h-14q-88 61 -174 61q-51 0 -188 -57q-137 -58 -271 -58z" />
    <glyph glyph-name="H" unicode="H" horiz-adv-x="1632" 
d="M1604 1450q-106 -47 -131 -84q-25 -39 -25 -158v-952q0 -118 25 -160q25 -35 131 -82v-14h-660v14q107 47 129 82q27 40 27 160v494h-563v-494q0 -120 24 -160q25 -35 131 -82v-14h-659v14q107 47 129 82q26 39 26 160v952q0 122 -26 158q-22 36 -129 84v14h659v-14
q-106 -47 -131 -84q-24 -38 -24 -158v-360h563v360q0 120 -27 158q-22 36 -129 84v14h660v-14z" />
    <glyph glyph-name="I" unicode="I" horiz-adv-x="720" 
d="M33 0v14q107 47 129 82q26 39 26 160v952q0 122 -26 158q-22 36 -129 84v14h659v-14q-106 -47 -131 -84q-24 -38 -24 -158v-952q0 -120 24 -160q25 -35 131 -82v-14h-659z" />
    <glyph glyph-name="J" unicode="J" horiz-adv-x="712" 
d="M35 -268l-6 20q159 94 159 283v1173q0 122 -26 158q-22 36 -129 84v14h659v-14q-106 -47 -131 -84q-24 -38 -24 -158v-956q0 -287 -232 -420q-65 -39 -124.5 -60t-145.5 -40z" />
    <glyph glyph-name="K" unicode="K" horiz-adv-x="1554" 
d="M537 256q0 -120 24 -160q25 -35 131 -82v-14h-659v14q107 47 129 82q26 39 26 160v952q0 122 -26 158q-22 36 -129 84v14h659v-14q-106 -47 -131 -84q-24 -38 -24 -158v-952zM571 700l424 416q101 98 101 182q0 97 -125 152v14h540v-14q-37 -19 -163 -102
q-37 -25 -97 -78l-47 -41l-41 -35l-43 -39l-37 -35l-247 -229l473 -674q113 -163 233 -203v-14h-502z" />
    <glyph glyph-name="L" unicode="L" horiz-adv-x="1280" 
d="M1174 420h14l-49 -420h-1106v14q107 47 129 82q26 39 26 160v952q0 122 -26 158q-22 36 -129 84v14h659v-14q-106 -47 -131 -84q-24 -38 -24 -158v-1046q0 -43 57.5 -69.5t153.5 -26.5h24q125 0 229 104q108 105 173 250z" />
    <glyph glyph-name="M" unicode="M" horiz-adv-x="1886" 
d="M1858 1450q-108 -48 -132 -84q-24 -38 -24 -158v-952q0 -120 24 -160q25 -35 132 -82v-14h-660v14q107 47 129 82q27 40 27 160v918h-4q-376 -724 -482 -967h-45q-179 361 -522 954v-727q2 -69 3.5 -108t7 -82t8.5 -62.5t17.5 -45.5t22.5 -35.5t35 -28.5t44.5 -28
t60.5 -30v-14h-467v14l60 30t44.5 28t35 28.5t22.5 35.5t17 45.5t8.5 62.5t7 81.5t3.5 108.5v821q-54 111 -196 195v14h502q259 -450 448 -837l432 837h441v-14z" />
    <glyph glyph-name="N" unicode="N" horiz-adv-x="1517" 
d="M1497 1464v-14q-43 -21 -60.5 -30t-44.5 -28t-35 -28.5t-22.5 -35.5t-17.5 -45.5t-8.5 -62.5t-7 -82t-3.5 -108v-1030h-266q-338 561 -727 1153v-719q2 -69 3.5 -108t7 -82t8.5 -62.5t17.5 -45.5t22.5 -35.5t35 -28.5t44.5 -28t60.5 -30v-14h-471v14q42 21 61.5 30
t45.5 28t34.5 28t22.5 36t16.5 45t8.5 63t7 81.5t4 108.5v805q-39 106 -198 211v14h467l725 -1149v715q-2 69 -3.5 108t-7 82t-8.5 62.5t-17.5 45.5t-22.5 35.5t-35 28.5t-44.5 28t-60.5 30v14h469z" />
    <glyph glyph-name="O" unicode="O" horiz-adv-x="1599" 
d="M1339 178q-202 -205 -540 -205q-339 0 -541 205q-201 207 -201 555q0 349 201 553q202 205 541 205q338 0 540 -205q203 -203 203 -553q0 -349 -203 -555zM850 39q145 0 234.5 143.5t89.5 390.5q0 96 -13 203.5t-45.5 225t-79 210t-121 153t-165.5 60.5q-149 0 -238 -145
q-88 -143 -88 -385q0 -269 94 -541q49 -141 137 -228t195 -87z" />
    <glyph glyph-name="P" unicode="P" horiz-adv-x="1333" 
d="M559 659h-22v-403q0 -118 28 -160q24 -33 144 -82v-14h-676v14q107 47 129 82q26 39 26 160v952q0 122 -26 158q-22 36 -129 84v14h665q278 0 426 -99t148 -292q0 -414 -713 -414zM616 1403h-79v-684h20q383 0 383 350q0 334 -324 334z" />
    <glyph glyph-name="Q" unicode="Q" horiz-adv-x="1599" 
d="M852 -25q91 -137 561 -137h72v-10l-228 -252q-110 28 -199 75.5t-171 129.5q-89 89 -115 192q-327 9 -522 213q-193 202 -193 547q0 349 201 553q202 205 541 205q338 0 540 -205q203 -203 203 -553q0 -335 -188 -538q-190 -205 -502 -220zM424 895q0 -269 94 -541
q49 -141 137 -228t195 -87q145 0 234.5 143.5t89.5 390.5q0 96 -13 203.5t-45.5 225t-79 210t-121 153t-165.5 60.5q-149 0 -238 -145q-88 -143 -88 -385z" />
    <glyph glyph-name="R" unicode="R" horiz-adv-x="1497" 
d="M1300 211q69 -104 181 -197v-14h-447q-223 361 -403 700l-94 -4v-440q0 -120 24 -160q25 -35 131 -82v-14h-659v14q107 47 129 82q26 39 26 160v952q0 122 -26 158q-22 36 -129 84v14h684q265 0 418 -96.5t153 -261.5q0 -128 -89 -226t-236 -137q139 -240 337 -532z
M537 1401v-639h125q129 0 204.5 88.5t75.5 245.5q0 305 -299 305h-106z" />
    <glyph glyph-name="S" unicode="S" horiz-adv-x="1161" 
d="M600 -27q-212 0 -481 121l-27 430h14q61 -134 130 -232t165 -173q103 -80 205 -80q93 0 153 59.5t60 161.5q0 111 -69 174q-72 69 -252 176t-250 170q-137 125 -137 305q0 190 131 297q133 109 329 109q172 0 396 -76l41 -418h-15q-88 183 -202 306q-118 127 -238 127
q-82 0 -137.5 -54t-55.5 -147q0 -94 64 -152q70 -63 244 -164q62 -35 100 -59q77 -48 84 -53q59 -41 80 -62l59 -61q48 -51 64.5 -106.5t25.5 -157.5q0 -92 -28.5 -168t-76 -125.5t-110.5 -83.5t-129.5 -49t-136.5 -15z" />
    <glyph glyph-name="T" unicode="T" horiz-adv-x="1374" 
d="M1292 1464l37 -417h-14q-46 142 -156 249q-108 105 -268 105h-23v-1145q0 -118 25 -160q25 -35 131 -82v-14h-662v14q108 48 130 82q26 39 26 160v1145h-31q-160 0 -268 -105q-106 -103 -156 -249h-14l37 417h1206z" />
    <glyph glyph-name="U" unicode="U" horiz-adv-x="1507" 
d="M1493 1464v-14q-43 -21 -61.5 -30t-45 -28t-35.5 -28t-22.5 -36t-16.5 -45t-9 -63t-7 -81.5t-4 -108.5v-557q0 -240 -134 -370t-386 -130q-87 0 -166.5 15t-157 53t-134 95.5t-91.5 150.5t-35 211v710q0 122 -26 158q-22 36 -129 84v14h659v-14q-106 -47 -131 -84
q-24 -38 -24 -158v-716q0 -208 89.5 -319.5t245.5 -111.5q52 0 100 12t94.5 42.5t80.5 76t55 118t21 163.5v557q-2 69 -3.5 108t-7 82t-8.5 62.5t-17.5 45.5t-22.5 35.5t-35 28.5t-44.5 28t-60.5 30v14h469z" />
    <glyph glyph-name="V" unicode="V" horiz-adv-x="1462" 
d="M1020 1464h438v-14q-98 -68 -145 -131q-42 -56 -86 -172l-432 -1149h-123l-504 1280q-25 62 -52.5 94t-107.5 80v12h666v-14q-92 -55 -110 -71q-33 -30 -27 -80q5 -34 34 -121l299 -803l287 778q29 82 29 119q0 51 -36.5 89.5t-129.5 88.5v14z" />
    <glyph glyph-name="W" unicode="W" horiz-adv-x="2211" 
d="M1755 1464h453v-14q-135 -92 -185 -190q-33 -83 -45 -119l-407 -1143h-129l-342 920l-334 -920h-127l-473 1278q-22 61 -48.5 92t-109.5 82v14h662v-14q-80 -37 -113 -68.5t-33 -64.5q0 -12 13 -53l303 -873l219 633l-94 252q-19 51 -54 96q-26 33 -108 78v14h663v-14
q-75 -37 -106 -68.5t-31 -72.5q0 -37 33 -127l280 -791l250 748q33 95 33 139q0 50 -37 87.5t-133 84.5v14z" />
    <glyph glyph-name="X" unicode="X" horiz-adv-x="1503" 
d="M1286 211q46 -75 87 -116t114 -81v-14h-701v14q123 71 123 131q0 31 -26 76l-240 387l-231 -315q-62 -83 -62 -137q0 -71 121 -142v-14h-451v14q104 61 156 109q64 58 154 174l278 369l-372 587l-52 76q-15 22 -57 57q-50 43 -94 64v14h704v-14q-129 -68 -129 -125
q0 -28 31 -82l217 -350l213 291q51 66 51 123q0 67 -116 143v14h444v-14q-155 -82 -297 -270l-260 -342z" />
    <glyph glyph-name="Y" unicode="Y" horiz-adv-x="1439" 
d="M1022 1464h414v-14q-77 -48 -127.5 -106t-112.5 -160l-299 -504v-424q0 -118 25 -160q25 -35 131 -82v-14h-660v14q107 47 129 82q27 40 27 160v412l-379 612q-41 65 -66 91q-9 10 -20 20q-48 41 -76 59v14h664v-14q-133 -77 -133 -129q0 -33 55 -121l274 -444l248 428
q37 64 37 108q0 76 -131 158v14z" />
    <glyph glyph-name="Z" unicode="Z" horiz-adv-x="1255" 
d="M1188 420h14l-49 -420h-1096v41l748 1360h-248q-163 0 -270 -107q-111 -108 -156 -247h-14l37 417h1036v-41l-746 -1357h342q126 0 230 104q106 103 172 250z" />
    <glyph glyph-name="bracketleft" unicode="[" horiz-adv-x="657" 
d="M588 1544h-203v-1866h203v-51h-416v1970h416v-53z" />
    <glyph glyph-name="backslash" unicode="\" horiz-adv-x="671" 
d="M686 -240h-61l-592 1821h61z" />
    <glyph glyph-name="bracketright" unicode="]" horiz-adv-x="641" 
d="M57 1544v53h416v-1970h-416v51h203v1866h-203z" />
    <glyph glyph-name="asciicircum" unicode="^" horiz-adv-x="1150" 
d="M172 840l387 624h37l387 -624h-63l-345 542l-339 -542h-64z" />
    <glyph glyph-name="underscore" unicode="_" horiz-adv-x="1081" 
d="M1028 -180v-64h-971v64h971z" />
    <glyph glyph-name="grave" unicode="`" horiz-adv-x="491" 
d="M401 1137q-137 128 -327 327h317q4 -78 29 -327h-19z" />
    <glyph glyph-name="a" unicode="a" horiz-adv-x="1144" 
d="M883 -20q-102 0 -149 61.5t-42 155.5h-2q-47 -92 -143 -153.5t-215 -61.5q-124 0 -199.5 66t-75.5 171q0 148 158 251.5t479 186.5l4 162q2 64 -27.5 106t-88.5 42q-93 0 -148 -101q-55 -103 -72 -233l-10 -2l-217 131q60 112 184.5 183t298.5 71q114 0 194.5 -31.5
t117.5 -89.5q68 -99 65 -233l-10 -486q0 -67 49 -67q56 0 90 81l17 -8q-28 -89 -95 -145.5t-163 -56.5zM506 156q98 0 180 102l8 356q-311 -95 -311 -303q0 -73 33.5 -114t89.5 -41z" />
    <glyph glyph-name="b" unicode="b" horiz-adv-x="1175" 
d="M731 1016q165 0 279 -135q116 -134 116 -375q0 -251 -129 -389q-128 -137 -307 -137q-68 0 -130.5 21.5t-102.5 53.5q-92 76 -140 76q-70 0 -182 -158h-26v1301q0 55 -24 88.5t-97 85.5v14q219 15 434 78v-696h2q126 172 307 172zM643 49q158 0 158 389q0 215 -51.5 337
t-149.5 122q-90 0 -178 -125v-428q29 -116 86 -207q58 -88 135 -88z" />
    <glyph glyph-name="c" unicode="c" horiz-adv-x="997" 
d="M543 -20q-205 0 -350 139q-144 138 -144 383q0 239 141 377q140 137 342 137q132 0 234.5 -61t163.5 -160l-207 -160l-12 6q-9 112 -60 217q-50 103 -131 103q-80 0 -133 -94t-53 -246q0 -197 91 -315t243 -118q189 0 284 191l17 -8q-28 -163 -133 -277t-293 -114z" />
    <glyph glyph-name="d" unicode="d" horiz-adv-x="1200" 
d="M442 -20q-160 0 -276 131q-117 132 -117 374q0 253 127 392q130 139 299 139q163 0 279 -98v350q0 116 -119 180v14q220 14 432 78v-1329q0 -64 22.5 -90t98.5 -58v-14l-426 -69l-2 182h-2q-46 -79 -131.5 -130.5t-184.5 -51.5zM754 215v444q-38 124 -88 199
q-56 86 -131 86q-160 0 -160 -387q0 -213 51.5 -336t144.5 -123q95 0 183 117z" />
    <glyph glyph-name="e" unicode="e" horiz-adv-x="1044" 
d="M979 362l14 -8q-24 -118 -106 -233q-45 -65 -131.5 -103t-196.5 -38q-219 0 -364 139q-146 143 -146 377q0 230 141 374q143 146 367 146q113 0 204.5 -41.5t137.5 -106.5q90 -120 90 -237v-25h-655v-28q0 -198 106 -291q107 -94 254 -94q200 0 285 169zM522 961
q-79 0 -127 -81t-59 -225l366 4q-3 100 -38 187q-19 53 -56.5 84t-85.5 31z" />
    <glyph glyph-name="f" unicode="f" horiz-adv-x="729" 
d="M391 1479q-55 0 -55 -84q0 -119 115 -406h256l-17 -63h-239v-686q2 -45 4 -69t9 -48.5t12.5 -34.5t24 -25t34 -23t51.5 -26v-14h-570v14q79 42 99 78q22 39 22 148v686h-117v63h117v64q0 487 320 487q140 0 338 -82l-187 -217l-10 4q-114 234 -207 234z" />
    <glyph glyph-name="g" unicode="g" horiz-adv-x="1073" 
d="M784 160q273 -70 273 -269q0 -113 -94 -186q-92 -74 -215 -102q-129 -29 -248 -29q-183 0 -332 55q-148 53 -148 152q0 46 33.5 84.5t89.5 64.5q89 38 146 50q-207 50 -207 180q0 73 67.5 130.5t178.5 82.5q-273 64 -273 307q0 160 117 248q119 88 299 88h41
q132 0 203.5 45t79.5 113l227 -76v-8q-94 -119 -297 -119q-61 0 -119 10v-8q342 -65 342 -309q0 -142 -119 -226t-327 -84q-72 0 -113 8q-84 -18 -84 -65q0 -36 45 -45q1 0 10 -2t31 -7t45 -10q33 -6 102.5 -20t90.5 -18q79 -15 155 -35zM475 969q-57 0 -92 -51.5
t-35 -147.5q0 -186 82 -303q47 -68 111 -68q57 0 91 49.5t34 143.5q0 127 -52 252t-139 125zM532 -373q121 0 201 38.5t80 105.5q0 47 -37 82t-100 49l-332 65q-106 -66 -106 -164q0 -84 80.5 -130t213.5 -46z" />
    <glyph glyph-name="h" unicode="h" horiz-adv-x="1241" 
d="M1108 240q0 -112 20 -148q20 -35 101 -78v-14h-555v14q80 42 100 78q23 41 23 148v211q2 141 2 213q0 94 -42.5 144t-111.5 50q-109 0 -194 -129v-489q0 -112 20 -148q21 -37 98 -78v-14h-553v14q79 42 99 78q22 39 22 148v925q0 174 -47 217q-18 18 -74 56v14
q223 14 435 78v-729q144 215 354 215q40 0 78.5 -8t80 -29.5t73 -54.5t51.5 -88.5t20 -126.5v-469z" />
    <glyph glyph-name="i" unicode="i" horiz-adv-x="583" 
d="M104 1294q0 62 49.5 108t116.5 46t115.5 -46t48.5 -108q0 -66 -48 -111.5t-116 -45.5q-67 0 -116.5 47t-49.5 110zM16 0v14q79 42 99 78q22 39 22 148v415q0 170 -47 217q-21 21 -74 54v14q219 15 435 80v-780q0 -112 20 -148t100 -78v-14h-555z" />
    <glyph glyph-name="j" unicode="j" horiz-adv-x="571" 
d="M109 1294q0 62 49 108t116 46t115.5 -46t48.5 -108q0 -66 -48 -111.5t-116 -45.5q-67 0 -116 47t-49 110zM-45 -428l-6 16q103 56 144.5 138t41.5 235v694q0 170 -47 217q-20 19 -72 54v14q217 15 433 80v-877q0 -477 -494 -571z" />
    <glyph glyph-name="k" unicode="k" horiz-adv-x="1206" 
d="M16 0v14q79 42 99 78q22 39 22 148v925q0 174 -47 217q-18 18 -74 56v14q223 14 435 78v-1047l297 269q57 51 57 96q0 63 -119 127v14h473v-14l-45 -29l-45 -26q-5 -2 -37 -23q-43 -25 -74 -47q-78 -58 -131 -111l-129 -116l308 -435q84 -124 190 -174v-14h-420l-293 453
h-32v-213q0 -112 20 -148t100 -78v-14h-555z" />
    <glyph glyph-name="l" unicode="l" horiz-adv-x="583" 
d="M16 0v14q79 42 99 78q22 39 22 148v925q0 174 -47 217q-18 18 -74 56v14q223 14 435 78v-1290q0 -112 20 -148t100 -78v-14h-555z" />
    <glyph glyph-name="m" unicode="m" horiz-adv-x="1845" 
d="M1712 240q0 -110 21 -148q20 -36 100 -78v-14h-555v14q82 43 100 80q22 43 25 146q2 55 2 424q0 90 -42.5 140t-107.5 50q-98 0 -174 -125v-489q0 -110 21 -148q20 -36 100 -78v-14h-555v14q81 43 101 78q21 38 24 148q2 39 2 301q0 183 -31 250q-26 63 -106 63
q-109 0 -186 -127v-487q0 -112 20 -148q21 -37 98 -78v-14h-553v14q79 42 99 78q22 39 22 148v417q0 133 -22 179q-20 44 -99 92v14q205 12 428 78v-223q136 219 342 219q65 0 122 -21.5t103 -72.5t62 -125q139 219 344 219q48 0 95 -14t94 -45.5t76.5 -94.5t29.5 -149v-473
z" />
    <glyph glyph-name="n" unicode="n" horiz-adv-x="1239" 
d="M1106 240q0 -112 20 -148q20 -35 101 -78v-14h-555v14q82 42 102 78q23 44 23 148v141v283q0 95 -40.5 144.5t-109.5 49.5q-101 0 -196 -129v-489q0 -112 20 -148q21 -37 98 -78v-14h-553v14q79 42 99 78q22 39 22 148v417q0 133 -22 179q-20 44 -99 92v14q205 12 428 78
v-225q144 221 359 221q40 0 78.5 -8t80 -29.5t73 -54.5t51.5 -88.5t20 -126.5v-469z" />
    <glyph glyph-name="o" unicode="o" horiz-adv-x="1150" 
d="M575 -20q-242 0 -384 135.5t-142 369.5q0 241 144 385q146 146 389 146q239 0 379 -137q141 -138 141 -373q0 -239 -144 -383q-143 -143 -383 -143zM782 322q-4 151 -34 309t-99 256q-57 69 -119 75.5t-111.5 -74t-49.5 -216.5q0 -135 33 -302.5t100 -265.5
q31 -42 70 -60.5t76 -8t68.5 42.5t49.5 96t16 148z" />
    <glyph glyph-name="p" unicode="p" horiz-adv-x="1191" 
d="M741 1016q166 0 283 -129q119 -128 119 -369q0 -256 -129 -397t-299 -141q-152 0 -275 102h-4v-252q0 -108 31 -147q30 -38 137 -78v-15h-602v15q77 41 98 78q23 41 23 147v961q0 55 -23.5 82.5t-97.5 56.5v12q215 14 428 78l-2 -180l4 -2q129 178 309 178zM659 49
q158 0 158 379q0 216 -51.5 341.5t-151.5 125.5q-90 0 -178 -119v-426q31 -132 89.5 -216.5t133.5 -84.5z" />
    <glyph glyph-name="q" unicode="q" horiz-adv-x="1185" 
d="M586 -410v15q111 42 137 78q31 39 31 147v322h-2q-51 -74 -132.5 -123t-175.5 -49q-161 0 -278 135t-117 370q0 238 121 383q124 148 313 148q69 0 134.5 -23.5t105.5 -56.5q98 -78 145 -78q69 0 179 143h20v-1171q0 -111 20 -147q20 -35 101 -78v-15h-602zM571 98
q106 0 183 123v471q-35 110 -92 181t-125 71q-162 0 -162 -393q0 -215 49.5 -334t146.5 -119z" />
    <glyph glyph-name="r" unicode="r" horiz-adv-x="874" 
d="M16 0v14q79 42 99 78q22 39 22 148v434q0 115 -22 164q-20 45 -99 90v14q208 12 428 78l-4 -205h4q29 82 104 141.5t177 59.5q45 0 96 -23l-41 -329h-14q-127 167 -217 167q-64 0 -98 -75v-516q0 -112 26 -148t131 -78v-14h-592z" />
    <glyph glyph-name="s" unicode="s" horiz-adv-x="878" 
d="M465 -27q-150 0 -369 74l-35 307l15 2q228 -331 391 -331q54 0 88.5 33t34.5 87q0 65 -55.5 117t-180.5 117q-13 7 -106 59q-31 19 -88 66q-103 82 -103 221t101 215t252 76q122 0 327 -60l29 -284l-16 -4q-83 121 -177 206q-95 89 -176 89q-48 0 -78 -31t-30 -84
q0 -74 69 -127q59 -41 158 -90l16 -8q154 -78 225.5 -156.5t71.5 -194.5q0 -137 -97.5 -218t-266.5 -81z" />
    <glyph glyph-name="t" unicode="t" horiz-adv-x="714" 
d="M393 -20q-121 0 -196.5 74.5t-75.5 209.5v662h-96v32q296 174 383 314h22v-283h252l-10 -63h-238l-6 -613q-1 -97 37.5 -142.5t103.5 -45.5q73 0 138 68l10 -11q-120 -202 -324 -202z" />
    <glyph glyph-name="u" unicode="u" horiz-adv-x="1234" 
d="M1104 252q0 -98 20 -131q21 -31 99 -58v-14l-424 -78v209q-53 -78 -146 -143q-91 -64 -213 -64q-117 0 -211 70q-92 71 -92 238v374q0 127 -22 176q-20 47 -99 95v14q215 15 435 80q0 -190 -2 -348q-3 -237 -3 -346q0 -95 42 -146t110 -51q102 0 193 107v419
q0 129 -21 176q-22 49 -98 95v14q222 16 432 78v-766z" />
    <glyph glyph-name="v" unicode="v" horiz-adv-x="1095" 
d="M764 989h336v-14q-99 -73 -142 -146q-2 -4 -7.5 -16t-12 -27t-12.5 -30l-328 -758h-98l-367 829q-42 89 -133 148v14h563v-14q-100 -57 -100 -119q0 -28 24 -92l195 -449q96 232 180 447q15 37 15 69q0 38 -25 69t-88 75v14z" />
    <glyph glyph-name="w" unicode="w" horiz-adv-x="1714" 
d="M1374 989h344v-14q-73 -60 -109 -105.5t-67 -117.5l-323 -754h-99l-264 606l-262 -606h-96l-365 833q-37 82 -133 144v14h559v-14q-106 -52 -106 -113q0 -21 16 -67l207 -476l149 357l-67 158q-35 84 -135 141v14h561v-14q-109 -50 -109 -115q0 -19 17 -65l206 -478
l177 437q14 35 14 67q0 37 -25 70t-90 84v14z" />
    <glyph glyph-name="x" unicode="x" horiz-adv-x="1130" 
d="M993 139q45 -59 129 -125v-14h-587v14q112 40 112 84q0 20 -20 49l-164 252l-148 -194q-30 -41 -30 -80q0 -71 102 -111v-14h-375v14q132 71 230 195l188 237l-276 404q-60 90 -134 125v14h588v-14q-108 -37 -108 -84q0 -30 43 -94l127 -193l131 178q35 50 35 78
q0 51 -101 115v14h361v-14q-76 -40 -126.5 -85.5t-109.5 -123.5l-158 -209z" />
    <glyph glyph-name="y" unicode="y" horiz-adv-x="1112" 
d="M774 989h342v-14q-74 -55 -106 -98q-35 -48 -72 -134q-304 -704 -342 -778q-75 -152 -154 -241q-81 -90 -176 -156l-149 196l6 13l16 -2h23q274 0 356 168l29 57l-410 829q-41 87 -137 146v14h592v-14q-105 -59 -105 -119q0 -22 23 -76l201 -426q120 266 172 410
q12 30 12 57q0 77 -121 154v14z" />
    <glyph glyph-name="z" unicode="z" horiz-adv-x="976" 
d="M926 989v-37l-533 -901h230q62 0 120 55q53 53 158 252h14l-32 -358h-832v33l539 903h-207q-56 0 -109 -53q-58 -58 -168 -242h-14l33 348h801z" />
    <glyph glyph-name="braceleft" unicode="{" horiz-adv-x="780" 
d="M479 133q-16 -106 -16 -176q0 -145 59 -223.5t189 -114.5l-9 -18q-69 4 -132.5 20t-125.5 49.5t-107 81.5t-73 122t-28 165q0 53 8 100l14 88q8 55 8 90q0 126 -59 197q-59 74 -117 80v29q69 14 121.5 86t52.5 190q0 53 -8 92l-14 86q-11 75 -11 113q0 87 28 158.5
t74.5 119t108.5 80.5t126.5 49t133.5 19l9 -19q-130 -36 -189 -113.5t-59 -223.5q0 -76 16 -177l15 -84q6 -44 6 -79q0 -225 -187 -295q-53 -17 -67 -17q88 3 170 -82q84 -87 84 -231q0 -32 -6 -76z" />
    <glyph glyph-name="bar" unicode="|" horiz-adv-x="370" 
d="M219 -240h-63v1821h63v-1821z" />
    <glyph glyph-name="braceright" unicode="}" horiz-adv-x="739" 
d="M487 989q-8 -39 -8 -92q0 -127 58 -197q56 -68 116 -77v-29q-69 -13 -121.5 -86t-52.5 -191q0 -53 8 -92l15 -86q10 -68 10 -112q0 -87 -28.5 -158.5t-75 -119t-109 -80.5t-127 -49t-133.5 -19l-6 18q130 33 189 111.5t59 224.5q0 71 -17 178l-14 84q-6 43 -6 80
q0 225 186 295q50 16 68 16q-90 -3 -172 82t-82 230q0 34 6 77l14 86q17 112 17 174q0 152 -60.5 229t-187.5 111l6 19q69 -4 133 -20.5t127 -50t108.5 -81t74 -120.5t28.5 -162q0 -61 -8 -105z" />
    <glyph glyph-name="asciitilde" unicode="~" horiz-adv-x="968" 
d="M682 559q-69 0 -203 70q-129 69 -215 69q-99 0 -205 -75l-26 16q56 114 138 178t165 64q69 0 209 -76t223 -76q74 0 150 43l22 -20q-102 -193 -258 -193z" />
    <glyph glyph-name="exclamdown" unicode="&#xa1;" horiz-adv-x="530" 
d="M268 1020q68 0 117 -48t49 -114t-49 -114t-117 -48q-69 0 -118.5 48t-49.5 114t49.5 114t118.5 48zM236 573h61q91 -756 141 -1013v-21h-342v21q58 297 140 1013z" />
    <glyph glyph-name="cent" unicode="&#xa2;" horiz-adv-x="997" 
d="M969 371q-27 -160 -131 -273q-100 -112 -275 -118v-168h-59v170q-193 12 -324 149t-131 369q0 231 129 366q133 136 326 148v135h59v-133q120 -6 214.5 -67t152.5 -154l-207 -160l-12 6q-11 115 -49.5 199.5t-98.5 109.5v-743q55 -19 115 -19q91 0 162.5 54.5
t111.5 136.5zM334 614q0 -270 170 -378v725q-70 -6 -120 -101.5t-50 -245.5z" />
    <glyph glyph-name="sterling" unicode="&#xa3;" horiz-adv-x="1140" 
d="M1030 455h14l-55 -455h-932v88q238 154 238 451q0 82 -23 149l-22 55q-9 24 -12 27h-189v57h162q-41 103 -41 199q0 192 127 322q129 129 365 129q155 0 329 -52l43 -354h-16q-83 142 -191 244q-107 104 -202 104q-78 0 -135.5 -59t-57.5 -154q0 -77 57 -188
q59 -115 74 -191h285v-57h-277q2 -10 2 -53q0 -141 -59 -256q-59 -116 -252 -244h514q65 0 132.5 67.5t121.5 170.5z" />
    <glyph glyph-name="currency" unicode="&#xa4;" horiz-adv-x="1071" 
d="M1026 672q0 -176 -115 -312l131 -133l-57 -57l-131 131q-136 -115 -313 -115q-180 0 -318 117l-133 -135l-57 59l135 135q-113 131 -113 312q0 177 115 313l-133 135l57 58l133 -133q133 112 314 112q174 0 313 -115l133 134l55 -60l-131 -131q115 -142 115 -315z
M141 672q0 -166 117 -283q120 -117 283 -117q161 0 278 117q119 116 119 283q0 166 -119 282q-116 119 -280 119q-165 0 -281 -119q-117 -120 -117 -282z" />
    <glyph glyph-name="yen" unicode="&#xa5;" horiz-adv-x="1386" 
d="M985 1438h397v-13q-54 -34 -103 -85.5t-73 -88.5l-53 -90l-250 -432h252v-55h-285v-172h287v-53h-287v-193q0 -118 25 -160q25 -35 131 -82v-14h-659v14q107 47 129 82q26 39 26 160v193h-282v53h282v155l-10 17h-274v55h241l-317 526q-61 102 -154 170v13h645v-13
q-125 -76 -125 -129q0 -30 54 -118l260 -433l233 416q37 64 37 109q0 75 -127 155v13z" />
    <glyph glyph-name="section" unicode="&#xa7;" horiz-adv-x="1118" 
d="M1014 575q0 -108 -59.5 -178.5t-176.5 -130.5q144 -126 144 -268q0 -133 -100.5 -220t-264.5 -87q-153 0 -342 71l-20 330h14q51 -134 139 -239q89 -105 193 -105q62 0 106.5 35.5t44.5 99.5q0 50 -33 100.5t-81 90.5l-138 104l-125 94q-41 34 -96 93q-102 105 -102 247
q0 109 60 191.5t161 128.5q-139 127 -139 262q0 119 94 207t266 88q147 0 318 -62l24 -313l-14 2q-55 121 -144 223q-85 97 -174 97q-56 0 -96.5 -39.5t-40.5 -98.5q0 -84 84 -157q47 -41 68 -56l80 -53l116 -84q50 -37 109 -96q125 -122 125 -277zM735 301
q57 56 70.5 114.5t-15.5 120.5t-96 126t-174 135l-30 21q-54 39 -109 79q-72 -69 -72 -152q0 -147 264 -329z" />
    <glyph glyph-name="dieresis" unicode="&#xa8;" horiz-adv-x="800" 
d="M317 1194q-43 -43 -100 -43t-100 43t-43 100.5t43 100.5t100 43t100 -43t43 -100.5t-43 -100.5zM586 1151q-57 0 -99.5 43t-42.5 100t42.5 100.5t99.5 43.5t101 -43.5t44 -100.5q0 -58 -42.5 -100.5t-102.5 -42.5z" />
    <glyph glyph-name="copyright" unicode="&#xa9;" horiz-adv-x="1662" 
d="M1362 205q-219 -219 -531 -219q-311 0 -530 219q-219 222 -219 530q0 310 219 529q222 219 530 219q310 0 529 -219q221 -218 221 -529q0 -308 -219 -530zM831 49q283 0 482 205q198 204 198 481q0 273 -200 479q-201 207 -477 207q-278 0 -480 -202t-202 -484
q0 -283 202 -485q207 -201 477 -201zM844 1223q-96 0 -172 -117q-76 -116 -76 -344q0 -229 78 -354q76 -123 174 -123q77 0 166 80q93 83 160 192h8l-27 -266q-165 -47 -313 -47q-205 0 -344 127q-138 126 -138 370q0 243 138 381t346 138q131 0 311 -46l29 -264h-10
q-77 121 -164.5 197t-165.5 76z" />
    <glyph glyph-name="ordfeminine" unicode="&#xaa;" horiz-adv-x="704" 
d="M537 889q-65 0 -95.5 38.5t-25.5 94.5h-4q-26 -57 -82.5 -95t-128.5 -38q-77 0 -122.5 40t-45.5 107q0 166 381 260l4 105q2 33 -16.5 56.5t-49.5 23.5q-95 0 -125 -197h-6l-141 70q33 70 110.5 114.5t190.5 44.5q158 0 201 -81q36 -57 36 -146l-6 -274q0 -41 33 -41
q28 0 49 47l11 -4q-43 -125 -168 -125zM319 1008q50 0 91 53l4 211q-162 -52 -162 -172q0 -92 67 -92z" />
    <glyph glyph-name="guillemotleft" unicode="&#xab;" horiz-adv-x="1150" 
d="M647 958q-117 -230 -266 -440q149 -210 266 -440h-57q-232 218 -508 430v20q276 212 508 430h57zM1073 958q-106 -216 -264 -440q158 -224 264 -440h-55q-232 218 -508 430v20q276 212 508 430h55z" />
    <glyph glyph-name="registered" unicode="&#xae;" horiz-adv-x="1148" 
d="M575 584q-207 0 -350 143t-143 348q0 203 143 346q146 146 350 146q201 0 347 -146q145 -145 145 -346q0 -203 -145 -348q-143 -143 -347 -143zM575 637q183 0 308 131q129 132 129 307t-129 307q-125 131 -308 131q-177 0 -309 -129q-131 -125 -131 -309
q0 -181 131 -309q132 -129 309 -129zM786 874q9 -16 66 -73v-6h-156q-88 145 -161 284l-37 -2v-180q0 -47 10 -62.5t49 -33.5v-6h-240v6q39 18 49.5 34t10.5 62v381q0 46 -10.5 62.5t-49.5 35.5v4h248q99 0 157 -38.5t58 -100.5q0 -67 -53 -111.5t-131 -44.5h-29v-2
q31 -22 88 -22q15 0 21 2q40 -83 110 -189zM498 1358v-256h57q48 0 77.5 35t29.5 96q0 125 -119 125h-45z" />
    <glyph glyph-name="overscore" unicode="&#xaf;" horiz-adv-x="692" 
d="M623 1346v-158h-549v158h549z" />
    <glyph glyph-name="degree" unicode="&#xb0;" horiz-adv-x="862" 
d="M664 934q-94 -94 -230 -94q-137 0 -231 94q-97 97 -97 231q0 133 97 230q96 96 231 96q134 0 230 -96t96 -230q0 -135 -96 -231zM690 1165q0 113 -73 189t-183 76q-108 0 -184 -76q-74 -77 -74 -189q0 -107 74 -184q78 -78 184 -78q109 0 182 76q74 77 74 186z" />
    <glyph glyph-name="uni00B2" unicode="&#xb2;" horiz-adv-x="624" 
d="M428 784q62 0 94 17t76 69l8 -4l-78 -254h-524v31q193 197 277 327t84 232q0 76 -39 120t-101 44q-94 0 -188 -104l-19 10q136 219 308 219q94 0 159.5 -62t65.5 -163q0 -129 -111 -248q-42 -46 -100 -100q-20 -19 -133 -113q-13 -13 -25 -21h246z" />
    <glyph glyph-name="uni00B3" unicode="&#xb3;" horiz-adv-x="655" 
d="M43 1294q57 93 140.5 145t176.5 52q90 0 147.5 -47t57.5 -119q0 -75 -62.5 -131.5t-164.5 -87.5v-2q27 6 55 6q97 0 163.5 -63t66.5 -170q0 -128 -95 -205q-95 -74 -229 -74q-119 0 -264 53l80 203l10 -2q32 -95 79 -155t103 -60q55 0 92 58t37 145q0 92 -43 147t-117 55
q-46 0 -104 -24l-8 26q225 108 225 230q0 53 -33.5 81.5t-89.5 28.5q-120 0 -209 -102z" />
    <glyph glyph-name="acute" unicode="&#xb4;" horiz-adv-x="491" 
d="M94 1137h-18q23 230 28 327h320z" />
    <glyph glyph-name="paragraph" unicode="&#xb6;" horiz-adv-x="1021" 
d="M567 1464v-1464h-288v14q107 47 129 82q26 39 26 160v309h-49q-146 0 -250 131q-102 132 -102 318q0 185 102 317q106 133 250 133h182zM993 1464v-14q-106 -47 -131 -84q-24 -38 -24 -158v-952q0 -120 24 -160q25 -35 131 -82v-14h-291v1464h291z" />
    <glyph glyph-name="middot" unicode="&#xb7;" horiz-adv-x="514" 
d="M436 590q0 -72 -52 -125t-124 -53t-125 53t-53 125t53 124t125 52q71 0 123.5 -53t52.5 -123z" />
    <glyph glyph-name="cedilla" unicode="&#xb8;" horiz-adv-x="589" 
d="M90 -403q111 8 176.5 42.5t65.5 90.5q0 45 -51 78t-131 34l110 154h43l-33 -57q250 -18 250 -164q0 -105 -116 -161.5t-330 -55.5z" />
    <glyph glyph-name="uni00B9" unicode="&#xb9;" horiz-adv-x="468" 
d="M63 612v11q55 25 72 49q17 27 17 92v489q0 44 -21.5 67t-89.5 56v6l319 115v-733q0 -66 15 -90t74 -51v-11h-386z" />
    <glyph glyph-name="ordmasculine" unicode="&#xba;" horiz-adv-x="708" 
d="M360 1513q148 0 234 -81t86 -226q0 -147 -88 -232t-238 -85q-147 0 -237 78q-88 79 -88 227q0 146 90 233q89 86 241 86zM385 924q78 0 78 155q0 99 -27 234q-14 72 -43.5 118t-66.5 46t-59.5 -40.5t-22.5 -115.5q0 -93 28 -236q18 -72 47.5 -116.5t65.5 -44.5z" />
    <glyph glyph-name="guillemotright" unicode="&#xbb;" horiz-adv-x="1150" 
d="M82 958h57q239 -225 508 -430v-20q-269 -205 -508 -430h-57q113 228 266 440q-153 212 -266 440zM510 958h57q219 -207 506 -430v-20q-287 -223 -506 -430h-57q113 228 266 440q-153 212 -266 440z" />
    <glyph glyph-name="onequarter" unicode="&#xbc;" horiz-adv-x="1644" 
d="M63 612v11q55 25 72 49q17 27 17 92v489q0 44 -21.5 67t-89.5 56v6l319 115v-733q0 -66 15 -90t74 -51v-11h-386zM225 0l1008 1464h61l-1007 -1464h-62zM1569 252h-113v-100q0 -71 14 -91q18 -25 74 -51v-10h-364v10q54 25 71 49q15 24 15 93v100h-371v16l532 606h29
v-548h125zM993 326h273v317z" />
    <glyph glyph-name="onehalf" unicode="&#xbd;" horiz-adv-x="1597" 
d="M63 612v11q55 25 72 49q17 27 17 92v489q0 44 -21.5 67t-89.5 56v6l319 115v-733q0 -66 15 -90t74 -51v-11h-386zM225 0l1008 1464h61l-1007 -1464h-62zM1360 172q62 0 94 17t76 69l8 -4l-78 -254h-524v31q193 197 276.5 327t83.5 232q0 76 -39 120t-100 44
q-93 0 -188 -105l-19 10q137 220 307 220q94 0 160 -62.5t66 -163.5q0 -128 -111 -247q-48 -52 -100 -101q-9 -8 -133 -112q-13 -13 -25 -21h246z" />
    <glyph glyph-name="threequarters" unicode="&#xbe;" horiz-adv-x="1757" 
d="M43 1294q57 93 140.5 145t176.5 52q90 0 147.5 -47t57.5 -119q0 -75 -62.5 -131.5t-164.5 -87.5v-2q27 6 55 6q97 0 163.5 -63t66.5 -170q0 -128 -95 -205q-95 -74 -229 -74q-119 0 -264 53l80 203l10 -2q32 -95 79 -155t103 -60q55 0 92 58t37 145q0 92 -43 147t-117 55
q-46 0 -104 -24l-8 26q225 108 225 230q0 53 -33.5 81.5t-89.5 28.5q-120 0 -209 -102zM338 0l1008 1464h61l-1008 -1464h-61zM1681 252h-112v-100q0 -71 14 -91q18 -25 74 -51v-10h-365v10q55 25 72 49q14 22 14 93v100h-370v16l532 606h29v-548h125zM1106 326h272v317z
" />
    <glyph glyph-name="questiondown" unicode="&#xbf;" horiz-adv-x="935" 
d="M446 971q51 49 118.5 49t117.5 -49q51 -47 51 -113t-51 -115q-50 -47 -117.5 -47t-118.5 47q-50 49 -50 115t50 113zM614 573q-2 -60 -15.5 -119t-27 -98.5t-44 -93t-44.5 -75t-50 -73.5q-10 -15 -15 -22q-99 -144 -99 -274q0 -105 46.5 -177.5t113.5 -72.5q51 0 94.5 44
t75.5 114q39 79 62 153q4 13 8.5 25t6 16.5t1.5 5.5l10 2l158 -278q-83 -63 -231 -107q-102 -30 -199 -30q-180 0 -299 88q-121 89 -121 252q0 65 20.5 122t64.5 110t78 85t97 85q17 14 25 21q168 142 202 297h82z" />
    <glyph glyph-name="Agrave" unicode="&#xc0;" horiz-adv-x="1486" 
d="M852 1575h-18q-179 154 -328 303h317q4 -73 29 -303zM1305 207q22 -58 34 -80t41 -51q46 -36 90 -62v-14h-667v14q79 38 110 68.5t31 69.5q0 41 -33 131l-73 206h-463l-17 -47q-63 -180 -63 -245q0 -59 35.5 -99.5t124.5 -83.5v-14h-435v14q104 82 156 166q51 86 111 250
l286 795l-73 143q186 69 307 154zM410 588h393l-197 555z" />
    <glyph glyph-name="Aacute" unicode="&#xc1;" horiz-adv-x="1486" 
d="M999 1878q-199 -208 -327 -328h-21q23 197 31 328h317zM1305 207q22 -58 34 -80t41 -51q46 -36 90 -62v-14h-667v14q79 38 110 68.5t31 69.5q0 41 -33 131l-73 206h-463l-17 -47q-63 -180 -63 -245q0 -59 35.5 -99.5t124.5 -83.5v-14h-435v14q104 82 156 166
q51 86 111 250l286 795l-73 143q186 69 307 154zM410 588h393l-197 555z" />
    <glyph glyph-name="Acircumflex" unicode="&#xc2;" horiz-adv-x="1486" 
d="M754 1683l-275 -161l-12 12l278 389h17q143 -211 278 -389l-12 -12zM1305 207q22 -58 34 -80t41 -51q46 -36 90 -62v-14h-667v14q79 38 110 68.5t31 69.5q0 41 -33 131l-73 206h-463l-17 -47q-63 -180 -63 -245q0 -59 35.5 -99.5t124.5 -83.5v-14h-435v14q104 82 156 166
q51 86 111 250l286 795l-73 143q186 69 307 154zM410 588h393l-197 555z" />
    <glyph glyph-name="Atilde" unicode="&#xc3;" horiz-adv-x="1486" 
d="M561 1645q-47 0 -75.5 -12.5t-65.5 -47.5l-19 4q23 122 84 178t168 56q39 0 144 -31q118 -37 141 -37q61 0 84 10q24 9 68 47l22 -4q-26 -131 -85.5 -181t-180.5 -50q-17 0 -129 31q-127 37 -156 37zM1305 207q22 -58 34 -80t41 -51q46 -36 90 -62v-14h-667v14
q79 38 110 68.5t31 69.5q0 41 -33 131l-73 206h-463l-17 -47q-63 -180 -63 -245q0 -59 35.5 -99.5t124.5 -83.5v-14h-435v14q104 82 156 166q51 86 111 250l286 795l-73 143q186 69 307 154zM410 588h393l-197 555z" />
    <glyph glyph-name="Adieresis" unicode="&#xc4;" horiz-adv-x="1486" 
d="M819 1694q0 57 43.5 99t100.5 42t99 -42t42 -99t-42 -100.5t-99 -43.5q-58 0 -101 42.5t-43 101.5zM637 1591q-43 -43 -100.5 -43t-100.5 43t-43 100.5t43 98.5q43 43 100.5 43t100.5 -43q43 -41 43 -98.5t-43 -100.5zM1305 207q22 -58 34 -80t41 -51q46 -36 90 -62v-14
h-667v14q79 38 110 68.5t31 69.5q0 41 -33 131l-73 206h-463l-17 -47q-63 -180 -63 -245q0 -59 35.5 -99.5t124.5 -83.5v-14h-435v14q104 82 156 166q51 86 111 250l286 795l-73 143q186 69 307 154zM410 588h393l-197 555z" />
    <glyph glyph-name="Aring" unicode="&#xc5;" horiz-adv-x="1486" 
d="M883 1593q-55 -55 -133.5 -55t-135.5 55q-56 57 -56 139t56 138q57 56 135.5 56t133.5 -56t55 -138t-55 -139zM748 1870q-49 0 -83 -39t-34 -94q0 -56 37 -99t86 -43q50 0 82 39.5t32 96.5t-34.5 98t-85.5 41zM1305 207q22 -58 34 -80t41 -51q46 -36 90 -62v-14h-667v14
q79 38 110 68.5t31 69.5q0 41 -33 131l-73 206h-463l-17 -47q-63 -180 -63 -245q0 -59 35.5 -99.5t124.5 -83.5v-14h-435v14q104 82 156 166q51 86 111 250l286 795l-73 143q186 69 307 154zM410 588h393l-197 555z" />
    <glyph glyph-name="AE" unicode="&#xc6;" horiz-adv-x="2017" 
d="M1911 420h14l-49 -420h-1135v14q107 47 129 82q27 40 27 160v231h-473l-80 -137q-68 -118 -68 -170q0 -43 37.5 -82.5t122.5 -83.5v-14h-432v14q85 76 141 142q55 65 129 192l547 930q10 17 10 35q0 28 -30 56.5t-109 80.5v14h1116l37 -417h-14q-45 139 -156 247
q-107 107 -270 107h-158v-584h158q168 0 268 160h10v-399h-10q-41 78 -112.5 128.5t-155.5 49.5l-158 -4v-590q0 -43 57 -69.5t154 -26.5h51q126 0 230 104q106 103 172 250zM479 580h418v706h-4z" />
    <glyph glyph-name="Ccedilla" unicode="&#xc7;" horiz-adv-x="1413" 
d="M795 37q116 0 245 123q133 130 240 299h14l-41 -418q-239 -65 -462 -68l-13 -28q281 -24 281 -185q0 -189 -408 -186l11 39q219 15 219 113q0 50 -60 86t-147 36l69 125q-270 3 -471 177q-101 88 -158 235t-57 332q0 367 205 569q205 205 522 205q194 0 469 -68l41 -411
h-14q-279 418 -489 418q-140 0 -248 -173q-109 -171 -109 -512q0 -347 111 -528q110 -180 250 -180z" />
    <glyph glyph-name="Egrave" unicode="&#xc8;" horiz-adv-x="1318" 
d="M745 1550l-327 328h319q5 -107 29 -328h-21zM1212 420h15l-49 -420h-1145v14q107 47 129 82q26 39 26 160v952q0 122 -26 158q-22 36 -129 84v14h1073l37 -417h-15q-45 140 -155 247q-107 107 -271 107h-165v-588h168q170 0 270 160h10v-400h-10q-43 81 -115 130.5
t-155 48.5l-168 -4v-586q0 -43 57.5 -69.5t153.5 -26.5h63q125 0 229 104q106 103 172 250z" />
    <glyph glyph-name="Eacute" unicode="&#xc9;" horiz-adv-x="1318" 
d="M911 1878q-199 -208 -327 -328h-21q23 197 31 328h317zM1212 420h15l-49 -420h-1145v14q107 47 129 82q26 39 26 160v952q0 122 -26 158q-22 36 -129 84v14h1073l37 -417h-15q-45 140 -155 247q-107 107 -271 107h-165v-588h168q170 0 270 160h10v-400h-10
q-43 81 -115 130.5t-155 48.5l-168 -4v-586q0 -43 57.5 -69.5t153.5 -26.5h63q125 0 229 104q106 103 172 250z" />
    <glyph glyph-name="Ecircumflex" unicode="&#xca;" horiz-adv-x="1318" 
d="M668 1683l-275 -161l-12 12l278 389h17q143 -211 278 -389l-12 -12zM1212 420h15l-49 -420h-1145v14q107 47 129 82q26 39 26 160v952q0 122 -26 158q-22 36 -129 84v14h1073l37 -417h-15q-45 140 -155 247q-107 107 -271 107h-165v-588h168q170 0 270 160h10v-400h-10
q-43 81 -115 130.5t-155 48.5l-168 -4v-586q0 -43 57.5 -69.5t153.5 -26.5h63q125 0 229 104q106 103 172 250z" />
    <glyph glyph-name="Edieresis" unicode="&#xcb;" horiz-adv-x="1318" 
d="M733 1694q0 57 43.5 99t100.5 42t99 -42t42 -99t-42 -100.5t-99 -43.5q-58 0 -101 42.5t-43 101.5zM551 1591q-43 -43 -100.5 -43t-100.5 43t-43 100.5t43 98.5q43 43 100.5 43t100.5 -43q43 -41 43 -98.5t-43 -100.5zM1212 420h15l-49 -420h-1145v14q107 47 129 82
q26 39 26 160v952q0 122 -26 158q-22 36 -129 84v14h1073l37 -417h-15q-45 140 -155 247q-107 107 -271 107h-165v-588h168q170 0 270 160h10v-400h-10q-43 81 -115 130.5t-155 48.5l-168 -4v-586q0 -43 57.5 -69.5t153.5 -26.5h63q125 0 229 104q106 103 172 250z" />
    <glyph glyph-name="Igrave" unicode="&#xcc;" horiz-adv-x="720" 
d="M449 1550l-328 328h319q5 -107 29 -328h-20zM33 0v14q107 47 129 82q26 39 26 160v952q0 122 -26 158q-22 36 -129 84v14h659v-14q-106 -47 -131 -84q-24 -38 -24 -158v-952q0 -120 24 -160q25 -35 131 -82v-14h-659z" />
    <glyph glyph-name="Iacute" unicode="&#xcd;" horiz-adv-x="720" 
d="M287 1550h-21q23 197 31 328h317q-199 -208 -327 -328zM33 0v14q107 47 129 82q26 39 26 160v952q0 122 -26 158q-22 36 -129 84v14h659v-14q-106 -47 -131 -84q-24 -38 -24 -158v-952q0 -120 24 -160q25 -35 131 -82v-14h-659z" />
    <glyph glyph-name="Icircumflex" unicode="&#xce;" horiz-adv-x="720" 
d="M94 1522l-12 12l278 389h17q143 -211 278 -389l-12 -12l-274 161zM33 0v14q107 47 129 82q26 39 26 160v952q0 122 -26 158q-22 36 -129 84v14h659v-14q-106 -47 -131 -84q-24 -38 -24 -158v-952q0 -120 24 -160q25 -35 131 -82v-14h-659z" />
    <glyph glyph-name="Idieresis" unicode="&#xcf;" horiz-adv-x="720" 
d="M434 1694q0 57 43.5 99t100.5 42t99 -42t42 -99t-42 -100.5t-99 -43.5q-58 0 -101 42.5t-43 101.5zM252 1591q-43 -43 -100.5 -43t-100.5 43t-43 100.5t43 98.5q43 43 100.5 43t100.5 -43q43 -41 43 -98.5t-43 -100.5zM33 0v14q107 47 129 82q26 39 26 160v952
q0 122 -26 158q-22 36 -129 84v14h659v-14q-106 -47 -131 -84q-24 -38 -24 -158v-952q0 -120 24 -160q25 -35 131 -82v-14h-659z" />
    <glyph glyph-name="Eth" unicode="&#xd0;" horiz-adv-x="1525" 
d="M623 1464q413 0 629 -182.5t216 -513.5q0 -332 -202 -549q-201 -219 -553 -219h-680v14q107 47 129 82q26 39 26 160v479h-92v60h92v413q0 122 -26 158q-22 36 -129 84v14h590zM717 66q173 12 275 192.5t102 489.5q0 253 -74 415q-28 61 -75 110t-93 77q-35 21 -91 35
t-87 14q-18 2 -68 2h-69v-606h211v-60h-211v-573q0 -39 48 -65.5t132 -30.5z" />
    <glyph glyph-name="Ntilde" unicode="&#xd1;" horiz-adv-x="1517" 
d="M592 1645q-47 0 -75.5 -12.5t-65.5 -47.5l-19 4q23 122 84 178t168 56q38 0 143 -31q118 -37 142 -37q61 0 84 10q22 8 67 47l23 -4q-26 -131 -85.5 -181t-180.5 -50q-17 0 -129 31q-127 37 -156 37zM1497 1464v-14q-43 -21 -60.5 -30t-44.5 -28t-35 -28.5t-22.5 -35.5
t-17.5 -45.5t-8.5 -62.5t-7 -82t-3.5 -108v-1030h-266q-338 561 -727 1153v-719q2 -69 3.5 -108t7 -82t8.5 -62.5t17.5 -45.5t22.5 -35.5t35 -28.5t44.5 -28t60.5 -30v-14h-471v14q42 21 61.5 30t45.5 28t34.5 28t22.5 36t16.5 45t8.5 63t7 81.5t4 108.5v805
q-39 106 -198 211v14h467l725 -1149v715q-2 69 -3.5 108t-7 82t-8.5 62.5t-17.5 45.5t-22.5 35.5t-35 28.5t-44.5 28t-60.5 30v14h469z" />
    <glyph glyph-name="Ograve" unicode="&#xd2;" horiz-adv-x="1599" 
d="M883 1550l-328 328h319q5 -107 29 -328h-20zM1339 178q-202 -205 -540 -205q-339 0 -541 205q-201 207 -201 555q0 349 201 553q202 205 541 205q338 0 540 -205q203 -203 203 -553q0 -349 -203 -555zM850 39q145 0 234.5 143.5t89.5 390.5q0 96 -13 203.5t-45.5 225
t-79 210t-121 153t-165.5 60.5q-149 0 -238 -145q-88 -143 -88 -385q0 -269 94 -541q49 -141 137 -228t195 -87z" />
    <glyph glyph-name="Oacute" unicode="&#xd3;" horiz-adv-x="1599" 
d="M721 1550h-21q23 197 31 328h318q-190 -199 -328 -328zM1339 178q-202 -205 -540 -205q-339 0 -541 205q-201 207 -201 555q0 349 201 553q202 205 541 205q338 0 540 -205q203 -203 203 -553q0 -349 -203 -555zM850 39q145 0 234.5 143.5t89.5 390.5q0 96 -13 203.5
t-45.5 225t-79 210t-121 153t-165.5 60.5q-149 0 -238 -145q-88 -143 -88 -385q0 -269 94 -541q49 -141 137 -228t195 -87z" />
    <glyph glyph-name="Ocircumflex" unicode="&#xd4;" horiz-adv-x="1599" 
d="M528 1522l-12 12l279 389h16q135 -199 279 -389l-13 -12l-274 161zM1339 178q-202 -205 -540 -205q-339 0 -541 205q-201 207 -201 555q0 349 201 553q202 205 541 205q338 0 540 -205q203 -203 203 -553q0 -349 -203 -555zM850 39q145 0 234.5 143.5t89.5 390.5
q0 96 -13 203.5t-45.5 225t-79 210t-121 153t-165.5 60.5q-149 0 -238 -145q-88 -143 -88 -385q0 -269 94 -541q49 -141 137 -228t195 -87z" />
    <glyph glyph-name="Otilde" unicode="&#xd5;" horiz-adv-x="1599" 
d="M1141 1812l22 -4q-26 -131 -85.5 -181t-180.5 -50q-17 0 -129 31q-127 37 -156 37q-47 0 -75.5 -12.5t-65.5 -47.5l-18 4q23 122 84 178t168 56q38 0 143 -31q118 -37 141 -37q61 0 84 10q24 9 68 47zM1339 178q-202 -205 -540 -205q-339 0 -541 205q-201 207 -201 555
q0 349 201 553q202 205 541 205q338 0 540 -205q203 -203 203 -553q0 -349 -203 -555zM850 39q145 0 234.5 143.5t89.5 390.5q0 96 -13 203.5t-45.5 225t-79 210t-121 153t-165.5 60.5q-149 0 -238 -145q-88 -143 -88 -385q0 -269 94 -541q49 -141 137 -228t195 -87z" />
    <glyph glyph-name="Odieresis" unicode="&#xd6;" horiz-adv-x="1599" 
d="M868 1694q0 57 43.5 99t100.5 42t99 -42t42 -99t-42 -100.5t-99 -43.5q-58 0 -101 42.5t-43 101.5zM686 1591q-43 -43 -100.5 -43t-100.5 43t-43 100.5t43 98.5q43 43 100.5 43t100.5 -43q43 -41 43 -98.5t-43 -100.5zM1339 178q-202 -205 -540 -205q-339 0 -541 205
q-201 207 -201 555q0 349 201 553q202 205 541 205q338 0 540 -205q203 -203 203 -553q0 -349 -203 -555zM850 39q145 0 234.5 143.5t89.5 390.5q0 96 -13 203.5t-45.5 225t-79 210t-121 153t-165.5 60.5q-149 0 -238 -145q-88 -143 -88 -385q0 -269 94 -541
q49 -141 137 -228t195 -87z" />
    <glyph glyph-name="multiply" unicode="&#xd7;" horiz-adv-x="804" 
d="M727 414l-45 -43l-279 278l-270 -272l-43 43l272 270l-280 281l45 45l281 -281l270 271l41 -41l-270 -271z" />
    <glyph glyph-name="Oslash" unicode="&#xd8;" horiz-adv-x="1599" 
d="M1272 1346q270 -206 270 -613q0 -349 -203 -555q-202 -205 -540 -205q-251 0 -428 115l-107 -149h-67l129 180q-269 207 -269 614q0 349 201 553q202 205 541 205q251 0 428 -113l98 138h68zM424 895q0 -271 86 -518l555 774q-120 274 -315 274q-149 0 -238 -145
q-88 -143 -88 -385zM848 39q148 0 237 143t89 391q0 276 -87 517l-552 -775q120 -276 313 -276z" />
    <glyph glyph-name="Ugrave" unicode="&#xd9;" horiz-adv-x="1507" 
d="M868 1550l-327 328h319q5 -107 29 -328h-21zM1493 1464v-14q-43 -21 -61.5 -30t-45 -28t-35.5 -28t-22.5 -36t-16.5 -45t-9 -63t-7 -81.5t-4 -108.5v-557q0 -240 -134 -370t-386 -130q-87 0 -166.5 15t-157 53t-134 95.5t-91.5 150.5t-35 211v710q0 122 -26 158
q-22 36 -129 84v14h659v-14q-106 -47 -131 -84q-24 -38 -24 -158v-716q0 -208 89.5 -319.5t245.5 -111.5q52 0 100 12t94.5 42.5t80.5 76t55 118t21 163.5v557q-2 69 -3.5 108t-7 82t-8.5 62.5t-17.5 45.5t-22.5 35.5t-35 28.5t-44.5 28t-60.5 30v14h469z" />
    <glyph glyph-name="Uacute" unicode="&#xda;" horiz-adv-x="1507" 
d="M707 1550h-21q23 197 31 328h317q-199 -208 -327 -328zM1493 1464v-14q-43 -21 -61.5 -30t-45 -28t-35.5 -28t-22.5 -36t-16.5 -45t-9 -63t-7 -81.5t-4 -108.5v-557q0 -240 -134 -370t-386 -130q-87 0 -166.5 15t-157 53t-134 95.5t-91.5 150.5t-35 211v710
q0 122 -26 158q-22 36 -129 84v14h659v-14q-106 -47 -131 -84q-24 -38 -24 -158v-716q0 -208 89.5 -319.5t245.5 -111.5q52 0 100 12t94.5 42.5t80.5 76t55 118t21 163.5v557q-2 69 -3.5 108t-7 82t-8.5 62.5t-17.5 45.5t-22.5 35.5t-35 28.5t-44.5 28t-60.5 30v14h469z" />
    <glyph glyph-name="Ucircumflex" unicode="&#xdb;" horiz-adv-x="1507" 
d="M516 1522l-12 12l278 389h17q143 -211 278 -389l-12 -12l-274 161zM1493 1464v-14q-43 -21 -61.5 -30t-45 -28t-35.5 -28t-22.5 -36t-16.5 -45t-9 -63t-7 -81.5t-4 -108.5v-557q0 -240 -134 -370t-386 -130q-87 0 -166.5 15t-157 53t-134 95.5t-91.5 150.5t-35 211v710
q0 122 -26 158q-22 36 -129 84v14h659v-14q-106 -47 -131 -84q-24 -38 -24 -158v-716q0 -208 89.5 -319.5t245.5 -111.5q52 0 100 12t94.5 42.5t80.5 76t55 118t21 163.5v557q-2 69 -3.5 108t-7 82t-8.5 62.5t-17.5 45.5t-22.5 35.5t-35 28.5t-44.5 28t-60.5 30v14h469z" />
    <glyph glyph-name="Udieresis" unicode="&#xdc;" horiz-adv-x="1507" 
d="M856 1694q0 57 43 99t100 42t99.5 -42t42.5 -99t-42.5 -100.5t-99.5 -43.5q-58 0 -100.5 42.5t-42.5 101.5zM674 1591q-43 -43 -100.5 -43t-100.5 43t-43 100.5t43 98.5q43 43 100.5 43t100.5 -43q43 -41 43 -98.5t-43 -100.5zM1493 1464v-14q-43 -21 -61.5 -30t-45 -28
t-35.5 -28t-22.5 -36t-16.5 -45t-9 -63t-7 -81.5t-4 -108.5v-557q0 -240 -134 -370t-386 -130q-87 0 -166.5 15t-157 53t-134 95.5t-91.5 150.5t-35 211v710q0 122 -26 158q-22 36 -129 84v14h659v-14q-106 -47 -131 -84q-24 -38 -24 -158v-716q0 -208 89.5 -319.5
t245.5 -111.5q52 0 100 12t94.5 42.5t80.5 76t55 118t21 163.5v557q-2 69 -3.5 108t-7 82t-8.5 62.5t-17.5 45.5t-22.5 35.5t-35 28.5t-44.5 28t-60.5 30v14h469z" />
    <glyph glyph-name="Yacute" unicode="&#xdd;" horiz-adv-x="1439" 
d="M1018 1878q-190 -199 -328 -328h-20q21 179 30 328h318zM1022 1464h414v-14q-77 -48 -127.5 -106t-112.5 -160l-299 -504v-424q0 -118 25 -160q25 -35 131 -82v-14h-660v14q107 47 129 82q27 40 27 160v412l-379 612q-41 65 -66 91q-9 10 -20 20q-48 41 -76 59v14h664
v-14q-133 -77 -133 -129q0 -33 55 -121l274 -444l248 428q37 64 37 108q0 76 -131 158v14z" />
    <glyph glyph-name="germandbls" unicode="&#xdf;" horiz-adv-x="1308" 
d="M743 967q0 -36 46 -78.5t144.5 -110t143.5 -104.5q80 -66 131.5 -160t51.5 -197q0 -165 -111 -254q-107 -88 -258 -88q-163 0 -334 103l53 344l13 -2q47 -158 114 -277q70 -116 150 -116q52 0 88.5 47.5t36.5 126.5q0 77 -42.5 144.5t-111.5 119.5q-14 10 -46.5 33.5
t-49.5 36t-46 35.5t-45 39t-36.5 40.5t-31 45.5t-18 48t-7.5 54q0 52 25 95t60.5 75.5t71.5 66.5t61 84t25 113q0 91 -48 149t-118 58q-90 0 -147 -90t-57 -265v-843q0 -112 20 -148q21 -37 98 -78v-14h-553v14q79 42 99 78q22 39 22 148v692h-106v63h106v37
q0 215 133.5 336t368.5 121q173 0 281 -62.5t108 -177.5q0 -57 -29.5 -97t-71.5 -60.5t-83.5 -36.5t-71 -37.5t-29.5 -50.5z" />
    <glyph glyph-name="agrave" unicode="&#xe0;" horiz-adv-x="1144" 
d="M676 1128l-328 328h318q9 -143 30 -328h-20zM883 -20q-102 0 -149 61.5t-42 155.5h-2q-47 -92 -143 -153.5t-215 -61.5q-124 0 -199.5 66t-75.5 171q0 148 158 251.5t479 186.5l4 162q2 64 -27.5 106t-88.5 42q-93 0 -148 -101q-55 -103 -72 -233l-10 -2l-217 131
q60 112 184.5 183t298.5 71q114 0 194.5 -31.5t117.5 -89.5q68 -99 65 -233l-10 -486q0 -67 49 -67q56 0 90 81l17 -8q-28 -89 -95 -145.5t-163 -56.5zM506 156q98 0 180 102l8 356q-311 -95 -311 -303q0 -73 33.5 -114t89.5 -41z" />
    <glyph glyph-name="aacute" unicode="&#xe1;" horiz-adv-x="1144" 
d="M514 1128h-20q23 209 28 328h320zM883 -20q-102 0 -149 61.5t-42 155.5h-2q-47 -92 -143 -153.5t-215 -61.5q-124 0 -199.5 66t-75.5 171q0 148 158 251.5t479 186.5l4 162q2 64 -27.5 106t-88.5 42q-93 0 -148 -101q-55 -103 -72 -233l-10 -2l-217 131q60 112 184.5 183
t298.5 71q114 0 194.5 -31.5t117.5 -89.5q68 -99 65 -233l-10 -486q0 -67 49 -67q56 0 90 81l17 -8q-28 -89 -95 -145.5t-163 -56.5zM506 156q98 0 180 102l8 356q-311 -95 -311 -303q0 -73 33.5 -114t89.5 -41z" />
    <glyph glyph-name="acircumflex" unicode="&#xe2;" horiz-adv-x="1144" 
d="M334 1114l-12 10l114 160q84 118 146 199h16q164 -243 258 -359l-10 -10l-256 150zM883 -20q-102 0 -149 61.5t-42 155.5h-2q-47 -92 -143 -153.5t-215 -61.5q-124 0 -199.5 66t-75.5 171q0 148 158 251.5t479 186.5l4 162q2 64 -27.5 106t-88.5 42q-93 0 -148 -101
q-55 -103 -72 -233l-10 -2l-217 131q60 112 184.5 183t298.5 71q114 0 194.5 -31.5t117.5 -89.5q68 -99 65 -233l-10 -486q0 -67 49 -67q56 0 90 81l17 -8q-28 -89 -95 -145.5t-163 -56.5zM506 156q98 0 180 102l8 356q-311 -95 -311 -303q0 -73 33.5 -114t89.5 -41z" />
    <glyph glyph-name="atilde" unicode="&#xe3;" horiz-adv-x="1144" 
d="M901 1391l21 -5q-38 -219 -213 -219q-55 0 -146 31q-112 37 -151 37q-60 0 -119 -59l-17 4q25 123 80 172t166 49q20 0 115 -33q110 -35 129 -35q52 0 74.5 10t60.5 48zM883 -20q-102 0 -149 61.5t-42 155.5h-2q-47 -92 -143 -153.5t-215 -61.5q-124 0 -199.5 66
t-75.5 171q0 148 158 251.5t479 186.5l4 162q2 64 -27.5 106t-88.5 42q-93 0 -148 -101q-55 -103 -72 -233l-10 -2l-217 131q60 112 184.5 183t298.5 71q114 0 194.5 -31.5t117.5 -89.5q68 -99 65 -233l-10 -486q0 -67 49 -67q56 0 90 81l17 -8q-28 -89 -95 -145.5
t-163 -56.5zM506 156q98 0 180 102l8 356q-311 -95 -311 -303q0 -73 33.5 -114t89.5 -41z" />
    <glyph glyph-name="adieresis" unicode="&#xe4;" horiz-adv-x="1144" 
d="M403 1143q-57 0 -100 43t-43 100t43 100.5t100 43.5t101.5 -43.5t44.5 -100.5t-43 -100t-103 -43zM874 1186q-43 -43 -100 -43t-100 43t-43 100t43 100t100 43t100 -43t43 -100t-43 -100zM883 -20q-102 0 -149 61.5t-42 155.5h-2q-47 -92 -143 -153.5t-215 -61.5
q-124 0 -199.5 66t-75.5 171q0 148 158 251.5t479 186.5l4 162q2 64 -27.5 106t-88.5 42q-93 0 -148 -101q-55 -103 -72 -233l-10 -2l-217 131q60 112 184.5 183t298.5 71q114 0 194.5 -31.5t117.5 -89.5q68 -99 65 -233l-10 -486q0 -67 49 -67q56 0 90 81l17 -8
q-28 -89 -95 -145.5t-163 -56.5zM506 156q98 0 180 102l8 356q-311 -95 -311 -303q0 -73 33.5 -114t89.5 -41z" />
    <glyph glyph-name="aring" unicode="&#xe5;" horiz-adv-x="1144" 
d="M399 1274q0 79 56.5 135.5t134.5 56.5t133 -56t55 -136q0 -82 -55 -138.5t-133 -56.5t-134.5 57t-56.5 138zM596 1137q48 0 80.5 41t32.5 96q0 57 -36 97t-87 40q-49 0 -82 -38.5t-33 -94.5t37 -98.5t88 -42.5zM883 -20q-102 0 -149 61.5t-42 155.5h-2
q-47 -92 -143 -153.5t-215 -61.5q-124 0 -199.5 66t-75.5 171q0 148 158 251.5t479 186.5l4 162q2 64 -27.5 106t-88.5 42q-93 0 -148 -101q-55 -103 -72 -233l-10 -2l-217 131q60 112 184.5 183t298.5 71q114 0 194.5 -31.5t117.5 -89.5q68 -99 65 -233l-10 -486
q0 -67 49 -67q56 0 90 81l17 -8q-28 -89 -95 -145.5t-163 -56.5zM506 156q98 0 180 102l8 356q-311 -95 -311 -303q0 -73 33.5 -114t89.5 -41z" />
    <glyph glyph-name="ae" unicode="&#xe6;" horiz-adv-x="1675" 
d="M360 -20q-124 0 -213 57q-90 59 -90 180q0 151 159 253.5t480 186.5l2 172q1 62 -33 99t-90 37q-97 0 -149 -101q-52 -98 -64 -231l-12 -2l-213 133q49 99 166 174q122 78 287 78q188 0 291 -121q148 121 323 121q186 0 301 -115q117 -114 117 -272v-25h-653
q-4 -108 26.5 -194t87.5 -131q112 -89 240 -89q201 0 289 166l14 -6q-32 -168 -144.5 -269t-289.5 -101q-128 0 -236.5 52.5t-169.5 145.5q-53 -83 -172 -141q-117 -57 -254 -57zM971 655l364 2q-5 131 -55.5 216t-128.5 85q-74 0 -124 -84t-56 -219zM549 117q135 0 207 106
q-66 123 -66 273q0 62 6 120q-162 -58 -236.5 -133t-74.5 -186q0 -92 45.5 -136t118.5 -44z" />
    <glyph glyph-name="ccedilla" unicode="&#xe7;" horiz-adv-x="997" 
d="M528 -20q-12 0 -30 2l-23 -41q250 -18 250 -164q0 -105 -116 -161.5t-330 -55.5l16 39q113 8 178.5 42.5t65.5 90.5q0 45 -52.5 78t-130.5 34l101 142q-174 27 -293 164q-115 139 -115 352q0 239 141 377q140 137 342 137q132 0 234.5 -61t163.5 -160l-207 -160l-12 6
q-9 112 -60 217q-50 103 -131 103q-80 0 -133 -94t-53 -246q0 -197 91 -315t243 -118q189 0 284 191l17 -8q-35 -172 -138 -281q-101 -110 -303 -110z" />
    <glyph glyph-name="egrave" unicode="&#xe8;" horiz-adv-x="1044" 
d="M629 1128l-328 328h317q8 -123 31 -328h-20zM979 362l14 -8q-24 -118 -106 -233q-45 -65 -131.5 -103t-196.5 -38q-219 0 -364 139q-146 143 -146 377q0 230 141 374q143 146 367 146q113 0 204.5 -41.5t137.5 -106.5q90 -120 90 -237v-25h-655v-28q0 -198 106 -291
q107 -94 254 -94q200 0 285 169zM522 961q-79 0 -127 -81t-59 -225l366 4q-3 100 -38 187q-19 53 -56.5 84t-85.5 31z" />
    <glyph glyph-name="eacute" unicode="&#xe9;" horiz-adv-x="1044" 
d="M795 1456l-328 -328h-21q24 225 29 328h320zM979 362l14 -8q-24 -118 -106 -233q-45 -65 -131.5 -103t-196.5 -38q-219 0 -364 139q-146 143 -146 377q0 230 141 374q143 146 367 146q113 0 204.5 -41.5t137.5 -106.5q90 -120 90 -237v-25h-655v-28q0 -198 106 -291
q107 -94 254 -94q200 0 285 169zM522 961q-79 0 -127 -81t-59 -225l366 4q-3 100 -38 187q-19 53 -56.5 84t-85.5 31z" />
    <glyph glyph-name="ecircumflex" unicode="&#xea;" horiz-adv-x="1044" 
d="M545 1264l-256 -150l-13 10l115 160q84 118 146 199h16q164 -243 258 -359l-10 -10zM979 362l14 -8q-24 -118 -106 -233q-45 -65 -131.5 -103t-196.5 -38q-219 0 -364 139q-146 143 -146 377q0 230 141 374q143 146 367 146q113 0 204.5 -41.5t137.5 -106.5
q90 -120 90 -237v-25h-655v-28q0 -198 106 -291q107 -94 254 -94q200 0 285 169zM522 961q-79 0 -127 -81t-59 -225l366 4q-3 100 -38 187q-19 53 -56.5 84t-85.5 31z" />
    <glyph glyph-name="edieresis" unicode="&#xeb;" horiz-adv-x="1044" 
d="M358 1143q-57 0 -100 43t-43 100t43 100.5t100 43.5t101.5 -43.5t44.5 -100.5t-43 -100t-103 -43zM829 1186q-43 -43 -100 -43t-100 43t-43 100t43 100t100 43t100 -43t43 -100t-43 -100zM979 362l14 -8q-24 -118 -106 -233q-45 -65 -131.5 -103t-196.5 -38
q-219 0 -364 139q-146 143 -146 377q0 230 141 374q143 146 367 146q113 0 204.5 -41.5t137.5 -106.5q90 -120 90 -237v-25h-655v-28q0 -198 106 -291q107 -94 254 -94q200 0 285 169zM522 961q-79 0 -127 -81t-59 -225l366 4q-3 100 -38 187q-19 53 -56.5 84t-85.5 31z" />
    <glyph glyph-name="igrave" unicode="&#xec;" horiz-adv-x="583" 
d="M356 1137l-327 327h317q8 -121 31 -327h-21zM16 0v14q79 42 99 78q22 39 22 148v415q0 170 -47 217q-21 21 -74 54v14q219 15 435 80v-780q0 -112 20 -148t100 -78v-14h-555z" />
    <glyph glyph-name="iacute" unicode="&#xed;" horiz-adv-x="583" 
d="M195 1137h-21q24 226 29 327h319zM16 0v14q79 42 99 78q22 39 22 148v415q0 170 -47 217q-21 21 -74 54v14q219 15 435 80v-780q0 -112 20 -148t100 -78v-14h-555z" />
    <glyph glyph-name="icircumflex" unicode="&#xee;" horiz-adv-x="583" 
d="M14 1122l-12 11l115 159q95 134 145 199h17q160 -237 258 -358l-11 -11l-256 150zM16 0v14q79 42 99 78q22 39 22 148v415q0 170 -47 217q-21 21 -74 54v14q219 15 435 80v-780q0 -112 20 -148t100 -78v-14h-555z" />
    <glyph glyph-name="idieresis" unicode="&#xef;" horiz-adv-x="583" 
d="M84 1151q-57 0 -100 43t-43 100t43 100.5t100 43.5t101 -43.5t44 -100.5q0 -58 -42.5 -100.5t-102.5 -42.5zM555 1194q-43 -43 -100.5 -43t-100.5 43t-43 100.5t43 100.5t100.5 43t100.5 -43t43 -100.5t-43 -100.5zM16 0v14q79 42 99 78q22 39 22 148v415q0 170 -47 217
q-21 21 -74 54v14q219 15 435 80v-780q0 -112 20 -148t100 -78v-14h-555z" />
    <glyph glyph-name="ntilde" unicode="&#xf1;" horiz-adv-x="1239" 
d="M459 1235q-60 0 -119 -59l-16 4q25 124 79.5 172.5t165.5 48.5q20 0 115 -33q110 -35 129 -35q52 0 74.5 10t60.5 48l21 -5q-38 -219 -213 -219q-55 0 -146 31q-112 37 -151 37zM1106 240q0 -112 20 -148q20 -35 101 -78v-14h-555v14q82 42 102 78q23 44 23 148v141v283
q0 95 -40.5 144.5t-109.5 49.5q-101 0 -196 -129v-489q0 -112 20 -148q21 -37 98 -78v-14h-553v14q79 42 99 78q22 39 22 148v417q0 133 -22 179q-20 44 -99 92v14q205 12 428 78v-225q144 221 359 221q40 0 78.5 -8t80 -29.5t73 -54.5t51.5 -88.5t20 -126.5v-469z" />
    <glyph glyph-name="ograve" unicode="&#xf2;" horiz-adv-x="1150" 
d="M662 1128l-328 328h317q8 -123 31 -328h-20zM575 -20q-242 0 -384 135.5t-142 369.5q0 241 144 385q146 146 389 146q239 0 379 -137q141 -138 141 -373q0 -239 -144 -383q-143 -143 -383 -143zM782 322q-4 151 -34 309t-99 256q-57 69 -119 75.5t-111.5 -74
t-49.5 -216.5q0 -135 33 -302.5t100 -265.5q31 -42 70 -60.5t76 -8t68.5 42.5t49.5 96t16 148z" />
    <glyph glyph-name="oacute" unicode="&#xf3;" horiz-adv-x="1150" 
d="M500 1128h-21q24 225 29 328h319zM575 -20q-242 0 -384 135.5t-142 369.5q0 241 144 385q146 146 389 146q239 0 379 -137q141 -138 141 -373q0 -239 -144 -383q-143 -143 -383 -143zM782 322q-4 151 -34 309t-99 256q-57 69 -119 75.5t-111.5 -74t-49.5 -216.5
q0 -135 33 -302.5t100 -265.5q31 -42 70 -60.5t76 -8t68.5 42.5t49.5 96t16 148z" />
    <glyph glyph-name="ocircumflex" unicode="&#xf4;" horiz-adv-x="1150" 
d="M319 1114l-12 10l115 160q95 134 145 199h17q164 -243 258 -359l-11 -10l-256 150zM575 -20q-242 0 -384 135.5t-142 369.5q0 241 144 385q146 146 389 146q239 0 379 -137q141 -138 141 -373q0 -239 -144 -383q-143 -143 -383 -143zM782 322q-4 151 -34 309t-99 256
q-57 69 -119 75.5t-111.5 -74t-49.5 -216.5q0 -135 33 -302.5t100 -265.5q31 -42 70 -60.5t76 -8t68.5 42.5t49.5 96t16 148z" />
    <glyph glyph-name="otilde" unicode="&#xf5;" horiz-adv-x="1150" 
d="M887 1391l20 -5q-38 -219 -213 -219q-54 0 -145 31q-112 37 -152 37q-59 0 -118 -59l-17 4q25 123 80 172t166 49q20 0 115 -33q110 -35 129 -35q52 0 74.5 10t60.5 48zM575 -20q-242 0 -384 135.5t-142 369.5q0 241 144 385q146 146 389 146q239 0 379 -137
q141 -138 141 -373q0 -239 -144 -383q-143 -143 -383 -143zM782 322q-4 151 -34 309t-99 256q-57 69 -119 75.5t-111.5 -74t-49.5 -216.5q0 -135 33 -302.5t100 -265.5q31 -42 70 -60.5t76 -8t68.5 42.5t49.5 96t16 148z" />
    <glyph glyph-name="odieresis" unicode="&#xf6;" horiz-adv-x="1150" 
d="M389 1143q-57 0 -100 43t-43 100t43 100.5t100 43.5t101.5 -43.5t44.5 -100.5t-43 -100t-103 -43zM860 1186q-41 -43 -100.5 -43t-102.5 43q-41 43 -41 100t43 100t100.5 43t100.5 -43t43 -100t-43 -100zM575 -20q-242 0 -384 135.5t-142 369.5q0 241 144 385
q146 146 389 146q239 0 379 -137q141 -138 141 -373q0 -239 -144 -383q-143 -143 -383 -143zM782 322q-4 151 -34 309t-99 256q-57 69 -119 75.5t-111.5 -74t-49.5 -216.5q0 -135 33 -302.5t100 -265.5q31 -42 70 -60.5t76 -8t68.5 42.5t49.5 96t16 148z" />
    <glyph glyph-name="divide" unicode="&#xf7;" horiz-adv-x="886" 
d="M524 874q-35 -35 -82 -35t-84 35q-35 37 -35 84t35 82q37 35 84 35t82 -35t35 -82t-35 -84zM809 723v-64h-727v64h727zM518 328q-35 -35 -82 -35t-84 35q-35 35 -35 82t35 82q37 35 84 35t82 -35t35 -82t-35 -82z" />
    <glyph glyph-name="oslash" unicode="&#xf8;" horiz-adv-x="1150" 
d="M918 915q184 -135 184 -409q0 -239 -144 -383q-143 -143 -383 -143q-179 0 -301 73l-100 -135h-57l119 160q-187 135 -187 407q0 241 144 385q146 146 382 146q172 0 302 -74l86 115h59zM369 674q0 -172 47 -355l305 412q-70 230 -191 230q-71 0 -116 -75t-45 -212z
M621 33q72 0 116.5 74t44.5 212q0 174 -45 355l-307 -412q73 -229 191 -229z" />
    <glyph glyph-name="ugrave" unicode="&#xf9;" horiz-adv-x="1234" 
d="M705 1128l-328 328h317q8 -123 31 -328h-20zM1104 252q0 -98 20 -131q21 -31 99 -58v-14l-424 -78v209q-53 -78 -146 -143q-91 -64 -213 -64q-117 0 -211 70q-92 71 -92 238v374q0 127 -22 176q-20 47 -99 95v14q215 15 435 80q0 -190 -2 -348q-3 -237 -3 -346
q0 -95 42 -146t110 -51q102 0 193 107v419q0 129 -21 176q-22 49 -98 95v14q222 16 432 78v-766z" />
    <glyph glyph-name="uacute" unicode="&#xfa;" horiz-adv-x="1234" 
d="M870 1456l-327 -328h-21q24 225 29 328h319zM1104 252q0 -98 20 -131q21 -31 99 -58v-14l-424 -78v209q-53 -78 -146 -143q-91 -64 -213 -64q-117 0 -211 70q-92 71 -92 238v374q0 127 -22 176q-20 47 -99 95v14q215 15 435 80q0 -190 -2 -348q-3 -237 -3 -346
q0 -95 42 -146t110 -51q102 0 193 107v419q0 129 -21 176q-22 49 -98 95v14q222 16 432 78v-766z" />
    <glyph glyph-name="ucircumflex" unicode="&#xfb;" horiz-adv-x="1234" 
d="M618 1264l-256 -150l-12 10l115 160q95 134 145 199h17q164 -243 258 -359l-11 -10zM1104 252q0 -98 20 -131q21 -31 99 -58v-14l-424 -78v209q-53 -78 -146 -143q-91 -64 -213 -64q-117 0 -211 70q-92 71 -92 238v374q0 127 -22 176q-20 47 -99 95v14q215 15 435 80
q0 -190 -2 -348q-3 -237 -3 -346q0 -95 42 -146t110 -51q102 0 193 107v419q0 129 -21 176q-22 49 -98 95v14q222 16 432 78v-766z" />
    <glyph glyph-name="udieresis" unicode="&#xfc;" horiz-adv-x="1234" 
d="M432 1143q-57 0 -100 43t-43 100t43 100.5t100 43.5t101.5 -43.5t44.5 -100.5t-43 -100t-103 -43zM903 1186q-43 -43 -100.5 -43t-100.5 43t-43 100t43 100t100.5 43t100.5 -43t43 -100t-43 -100zM1104 252q0 -98 20 -131q21 -31 99 -58v-14l-424 -78v209
q-53 -78 -146 -143q-91 -64 -213 -64q-117 0 -211 70q-92 71 -92 238v374q0 127 -22 176q-20 47 -99 95v14q215 15 435 80q0 -190 -2 -348q-3 -237 -3 -346q0 -95 42 -146t110 -51q102 0 193 107v419q0 129 -21 176q-22 49 -98 95v14q222 16 432 78v-766z" />
    <glyph glyph-name="yacute" unicode="&#xfd;" horiz-adv-x="1112" 
d="M838 1456l-328 -328h-21q24 225 29 328h320zM774 989h342v-14q-74 -55 -106 -98q-35 -48 -72 -134q-304 -704 -342 -778q-75 -152 -154 -241q-81 -90 -176 -156l-149 196l6 13l16 -2h23q274 0 356 168l29 57l-410 829q-41 87 -137 146v14h592v-14q-105 -59 -105 -119
q0 -22 23 -76l201 -426q120 266 172 410q12 30 12 57q0 77 -121 154v14z" />
    <glyph glyph-name="ydieresis" unicode="&#xff;" horiz-adv-x="1112" 
d="M401 1143q-57 0 -100 43t-43 100t43 100.5t100 43.5t101.5 -43.5t44.5 -100.5t-43 -100t-103 -43zM872 1186q-41 -43 -100 -43t-102 43q-41 43 -41 100t43 100t100 43t100 -43t43 -100t-43 -100zM774 989h342v-14q-74 -55 -106 -98q-35 -48 -72 -134q-304 -704 -342 -778
q-75 -152 -154 -241q-81 -90 -176 -156l-149 196l6 13l16 -2h23q274 0 356 168l29 57l-410 829q-41 87 -137 146v14h592v-14q-105 -59 -105 -119q0 -22 23 -76l201 -426q120 266 172 410q12 30 12 57q0 77 -121 154v14z" />
    <glyph glyph-name="Amacron" unicode="&#x100;" horiz-adv-x="1486" 
d="M1034 1739v-154h-567v154h567zM1305 207q22 -58 34 -80t41 -51q46 -36 90 -62v-14h-667v14q79 38 110 68.5t31 69.5q0 41 -33 131l-73 206h-463l-17 -47q-63 -180 -63 -245q0 -59 35.5 -99.5t124.5 -83.5v-14h-435v14q104 82 156 166q51 86 111 250l286 795l-73 143
q186 69 307 154zM410 588h393l-197 555z" />
    <glyph glyph-name="amacron" unicode="&#x101;" horiz-adv-x="1144" 
d="M870 1337v-157h-548v157h548zM883 -20q-102 0 -149 61.5t-42 155.5h-2q-47 -92 -143 -153.5t-215 -61.5q-124 0 -199.5 66t-75.5 171q0 148 158 251.5t479 186.5l4 162q2 64 -27.5 106t-88.5 42q-93 0 -148 -101q-55 -103 -72 -233l-10 -2l-217 131q60 112 184.5 183
t298.5 71q114 0 194.5 -31.5t117.5 -89.5q68 -99 65 -233l-10 -486q0 -67 49 -67q56 0 90 81l17 -8q-28 -89 -95 -145.5t-163 -56.5zM506 156q98 0 180 102l8 356q-311 -95 -311 -303q0 -73 33.5 -114t89.5 -41z" />
    <glyph glyph-name="Abreve" unicode="&#x102;" horiz-adv-x="1486" 
d="M750 1559q-237 0 -267 325h19q25 -77 96 -123.5t152 -46.5q78 0 149 46.5t96 123.5h19q-34 -325 -264 -325zM1305 207q22 -58 34 -80t41 -51q46 -36 90 -62v-14h-667v14q79 38 110 68.5t31 69.5q0 41 -33 131l-73 206h-463l-17 -47q-63 -180 -63 -245q0 -59 35.5 -99.5
t124.5 -83.5v-14h-435v14q104 82 156 166q51 86 111 250l286 795l-73 143q186 69 307 154zM410 588h393l-197 555z" />
    <glyph glyph-name="abreve" unicode="&#x103;" horiz-adv-x="1144" 
d="M838 1460h16q-30 -346 -264 -346t-264 346h18q25 -82 96 -131t150 -49t151 49.5t97 130.5zM883 -20q-102 0 -149 61.5t-42 155.5h-2q-47 -92 -143 -153.5t-215 -61.5q-124 0 -199.5 66t-75.5 171q0 148 158 251.5t479 186.5l4 162q2 64 -27.5 106t-88.5 42
q-93 0 -148 -101q-55 -103 -72 -233l-10 -2l-217 131q60 112 184.5 183t298.5 71q114 0 194.5 -31.5t117.5 -89.5q68 -99 65 -233l-10 -486q0 -67 49 -67q56 0 90 81l17 -8q-28 -89 -95 -145.5t-163 -56.5zM506 156q98 0 180 102l8 356q-311 -95 -311 -303q0 -73 33.5 -114
t89.5 -41z" />
    <glyph glyph-name="Aogonek" unicode="&#x104;" horiz-adv-x="1486" 
d="M1290 0q-125 -101 -125 -201q0 -40 24 -62t62 -22q75 0 135 60l15 -11q-35 -69 -110.5 -113t-157.5 -44q-75 0 -122.5 37.5t-47.5 97.5q0 138 262 258h-422v14q79 38 110 68.5t31 69.5q0 41 -33 131l-73 206h-463l-17 -47q-63 -180 -63 -245q0 -59 35.5 -99.5
t124.5 -83.5v-14h-435v14q104 82 156 166q51 86 111 250l286 795l-73 143q186 69 307 154l498 -1315q22 -58 34 -80t41 -51q46 -36 90 -62v-14h-180zM410 588h393l-197 555z" />
    <glyph glyph-name="aogonek" unicode="&#x105;" horiz-adv-x="1144" 
d="M958 -279q76 0 136 60l14 -10q-35 -69 -110.5 -113.5t-157.5 -44.5q-75 0 -122.5 38t-47.5 99q0 121 207 230q-105 3 -148 67q-40 64 -37 150h-2q-47 -92 -143 -153.5t-215 -61.5q-124 0 -199.5 66t-75.5 171q0 148 158 251.5t479 186.5l4 162q2 64 -27.5 106t-88.5 42
q-93 0 -148 -101q-55 -103 -72 -233l-10 -2l-217 131q60 112 184.5 183t298.5 71q114 0 194.5 -31.5t117.5 -89.5q68 -99 65 -233l-10 -486q0 -67 49 -67q56 0 90 81l17 -8q-43 -129 -148 -178q-121 -103 -121 -199q0 -40 24 -62t62 -22zM686 258l8 356q-311 -95 -311 -303
q0 -73 33.5 -114t89.5 -41q98 0 180 102z" />
    <glyph glyph-name="Cacute" unicode="&#x106;" horiz-adv-x="1413" 
d="M731 1550h-20q21 179 30 328h318q-190 -199 -328 -328zM791 1430q-140 0 -248 -173q-109 -171 -109 -512q0 -347 111 -528q110 -180 250 -180q116 0 245 123q133 130 240 299h14l-41 -418q-239 -68 -473 -68q-299 0 -504 172q-104 89 -161.5 236t-57.5 334q0 369 205 571
q205 205 522 205q194 0 469 -68l41 -411h-14q-279 418 -489 418z" />
    <glyph glyph-name="cacute" unicode="&#x107;" horiz-adv-x="997" 
d="M446 1128h-20q24 225 29 328h319zM543 -20q-205 0 -350 139q-144 138 -144 383q0 239 141 377q140 137 342 137q132 0 234.5 -61t163.5 -160l-207 -160l-12 6q-9 112 -60 217q-50 103 -131 103q-80 0 -133 -94t-53 -246q0 -197 91 -315t243 -118q189 0 284 191l17 -8
q-28 -163 -133 -277t-293 -114z" />
    <glyph glyph-name="Ccircumflex" unicode="&#x108;" horiz-adv-x="1413" 
d="M541 1522l-13 12l279 389h16q135 -199 279 -389l-12 -12l-275 161zM791 1430q-140 0 -248 -173q-109 -171 -109 -512q0 -347 111 -528q110 -180 250 -180q116 0 245 123q133 130 240 299h14l-41 -418q-239 -68 -473 -68q-299 0 -504 172q-104 89 -161.5 236t-57.5 334
q0 369 205 571q205 205 522 205q194 0 469 -68l41 -411h-14q-279 418 -489 418z" />
    <glyph glyph-name="ccircumflex" unicode="&#x109;" horiz-adv-x="997" 
d="M268 1114l-12 10l115 160q95 134 145 199h16q159 -236 259 -359l-11 -10l-256 150zM543 -20q-205 0 -350 139q-144 138 -144 383q0 239 141 377q140 137 342 137q132 0 234.5 -61t163.5 -160l-207 -160l-12 6q-9 112 -60 217q-50 103 -131 103q-80 0 -133 -94t-53 -246
q0 -197 91 -315t243 -118q189 0 284 191l17 -8q-28 -163 -133 -277t-293 -114z" />
    <glyph glyph-name="Cdotaccent" unicode="&#x10a;" horiz-adv-x="1413" 
d="M666 1698q0 57 43 99t100 42t100 -42t43 -99q0 -60 -41.5 -102t-101.5 -42t-101.5 42t-41.5 102zM791 1430q-140 0 -248 -173q-109 -171 -109 -512q0 -347 111 -528q110 -180 250 -180q116 0 245 123q133 130 240 299h14l-41 -418q-239 -68 -473 -68q-299 0 -504 172
q-104 89 -161.5 236t-57.5 334q0 369 205 571q205 205 522 205q194 0 469 -68l41 -411h-14q-279 418 -489 418z" />
    <glyph glyph-name="cdotaccent" unicode="&#x10b;" horiz-adv-x="997" 
d="M358 1286q0 62 49.5 108t116.5 46t115.5 -46t48.5 -108q0 -66 -48 -112t-116 -46q-67 0 -116.5 47.5t-49.5 110.5zM543 -20q-205 0 -350 139q-144 138 -144 383q0 239 141 377q140 137 342 137q132 0 234.5 -61t163.5 -160l-207 -160l-12 6q-9 112 -60 217
q-50 103 -131 103q-80 0 -133 -94t-53 -246q0 -197 91 -315t243 -118q189 0 284 191l17 -8q-28 -163 -133 -277t-293 -114z" />
    <glyph glyph-name="Ccaron" unicode="&#x10c;" horiz-adv-x="1413" 
d="M539 1927l274 -160l274 160l13 -12q-143 -189 -279 -389h-16l-279 389zM791 1430q-140 0 -248 -173q-109 -171 -109 -512q0 -347 111 -528q110 -180 250 -180q116 0 245 123q133 130 240 299h14l-41 -418q-239 -68 -473 -68q-299 0 -504 172q-104 89 -161.5 236
t-57.5 334q0 369 205 571q205 205 522 205q194 0 469 -68l41 -411h-14q-279 418 -489 418z" />
    <glyph glyph-name="ccaron" unicode="&#x10d;" horiz-adv-x="997" 
d="M258 1487l256 -150l256 150l10 -10q-94 -116 -258 -359h-16q-45 59 -146 197q-58 86 -114 162zM543 -20q-205 0 -350 139q-144 138 -144 383q0 239 141 377q140 137 342 137q132 0 234.5 -61t163.5 -160l-207 -160l-12 6q-9 112 -60 217q-50 103 -131 103q-80 0 -133 -94
t-53 -246q0 -197 91 -315t243 -118q189 0 284 191l17 -8q-28 -163 -133 -277t-293 -114z" />
    <glyph glyph-name="Dcaron" unicode="&#x10e;" horiz-adv-x="1525" 
d="M758 1526h-17l-278 389l12 12l275 -160l274 160l12 -12q-133 -176 -278 -389zM623 1464q413 0 629 -182.5t216 -513.5q0 -332 -202 -549q-201 -219 -553 -219h-680v14q107 47 129 82q26 39 26 160v952q0 122 -26 158q-22 36 -129 84v14h590zM717 66q173 12 275 192.5
t102 489.5q0 253 -74 415q-28 61 -75 110t-93 77q-35 21 -91 35t-87 14q-18 2 -68 2h-69v-1239q0 -39 48 -65.5t132 -30.5z" />
    <glyph glyph-name="dcaron" unicode="&#x10f;" horiz-adv-x="1200" 
d="M442 -20q-160 0 -276 131q-117 132 -117 374q0 253 127 392q130 139 299 139q163 0 279 -98v350q0 116 -119 180v14q220 14 432 78v-1329q0 -64 22.5 -90t98.5 -58v-14l-426 -69l-2 182h-2q-46 -79 -131.5 -130.5t-184.5 -51.5zM1176 1024h-15l33 463h266zM754 215v444
q-38 124 -88 199q-56 86 -131 86q-160 0 -160 -387q0 -213 51.5 -336t144.5 -123q95 0 183 117z" />
    <glyph glyph-name="Dcroat" unicode="&#x110;" horiz-adv-x="1525" 
d="M623 1464q413 0 629 -182.5t216 -513.5q0 -332 -202 -549q-201 -219 -553 -219h-680v14q107 47 129 82q26 39 26 160v479h-92v60h92v413q0 122 -26 158q-22 36 -129 84v14h590zM717 66q173 12 275 192.5t102 489.5q0 253 -74 415q-28 61 -75 110t-93 77q-35 21 -91 35
t-87 14q-18 2 -68 2h-69v-606h211v-60h-211v-573q0 -39 48 -65.5t132 -30.5z" />
    <glyph glyph-name="dslash" unicode="&#x111;" horiz-adv-x="1200" 
d="M1067 211q0 -64 22.5 -90t98.5 -58v-14l-426 -69l-2 182h-2q-46 -79 -131.5 -130.5t-184.5 -51.5q-160 0 -276 131q-117 132 -117 374q0 253 127 392q130 139 299 139q163 0 279 -98v272h-254v59h254v19q0 116 -119 180v14q220 14 432 78v-291h115v-59h-115v-979z
M754 215v444q-38 124 -88 199q-56 86 -131 86q-160 0 -160 -387q0 -213 51.5 -336t144.5 -123q95 0 183 117z" />
    <glyph glyph-name="Emacron" unicode="&#x112;" horiz-adv-x="1318" 
d="M979 1739v-154h-631v154h631zM1212 420h15l-49 -420h-1145v14q107 47 129 82q26 39 26 160v952q0 122 -26 158q-22 36 -129 84v14h1073l37 -417h-15q-45 140 -155 247q-107 107 -271 107h-165v-588h168q170 0 270 160h10v-400h-10q-43 81 -115 130.5t-155 48.5l-168 -4
v-586q0 -43 57.5 -69.5t153.5 -26.5h63q125 0 229 104q106 103 172 250z" />
    <glyph glyph-name="emacron" unicode="&#x113;" horiz-adv-x="1044" 
d="M825 1337v-157h-549v157h549zM979 362l14 -8q-24 -118 -106 -233q-45 -65 -131.5 -103t-196.5 -38q-219 0 -364 139q-146 143 -146 377q0 230 141 374q143 146 367 146q113 0 204.5 -41.5t137.5 -106.5q90 -120 90 -237v-25h-655v-28q0 -198 106 -291q107 -94 254 -94
q200 0 285 169zM522 961q-79 0 -127 -81t-59 -225l366 4q-3 100 -38 187q-19 53 -56.5 84t-85.5 31z" />
    <glyph glyph-name="Ebreve" unicode="&#x114;" horiz-adv-x="1318" 
d="M397 1884h19q25 -82 96 -131t150 -49t150.5 49t96.5 131h17q-30 -346 -264 -346q-235 0 -265 346zM1212 420h15l-49 -420h-1145v14q107 47 129 82q26 39 26 160v952q0 122 -26 158q-22 36 -129 84v14h1073l37 -417h-15q-45 140 -155 247q-107 107 -271 107h-165v-588h168
q170 0 270 160h10v-400h-10q-43 81 -115 130.5t-155 48.5l-168 -4v-586q0 -43 57.5 -69.5t153.5 -26.5h63q125 0 229 104q106 103 172 250z" />
    <glyph glyph-name="ebreve" unicode="&#x115;" horiz-adv-x="1044" 
d="M279 1460h18q25 -82 96 -131t150 -49t151 49.5t97 130.5h16q-30 -346 -264 -346t-264 346zM979 362l14 -8q-24 -118 -106 -233q-45 -65 -131.5 -103t-196.5 -38q-219 0 -364 139q-146 143 -146 377q0 230 141 374q143 146 367 146q113 0 204.5 -41.5t137.5 -106.5
q90 -120 90 -237v-25h-655v-28q0 -198 106 -291q107 -94 254 -94q200 0 285 169zM522 961q-79 0 -127 -81t-59 -225l366 4q-3 100 -38 187q-19 53 -56.5 84t-85.5 31z" />
    <glyph glyph-name="Edotaccent" unicode="&#x116;" horiz-adv-x="1318" 
d="M518 1698q0 57 43.5 99t100.5 42t100 -42t43 -99q0 -60 -41.5 -102t-101.5 -42t-102 42t-42 102zM1212 420h15l-49 -420h-1145v14q107 47 129 82q26 39 26 160v952q0 122 -26 158q-22 36 -129 84v14h1073l37 -417h-15q-45 140 -155 247q-107 107 -271 107h-165v-588h168
q170 0 270 160h10v-400h-10q-43 81 -115 130.5t-155 48.5l-168 -4v-586q0 -43 57.5 -69.5t153.5 -26.5h63q125 0 229 104q106 103 172 250z" />
    <glyph glyph-name="edotaccent" unicode="&#x117;" horiz-adv-x="1044" 
d="M379 1286q0 62 49.5 108t116.5 46t115.5 -46t48.5 -108q0 -66 -48 -112t-116 -46q-67 0 -116.5 47.5t-49.5 110.5zM979 362l14 -8q-24 -118 -106 -233q-45 -65 -131.5 -103t-196.5 -38q-219 0 -364 139q-146 143 -146 377q0 230 141 374q143 146 367 146
q113 0 204.5 -41.5t137.5 -106.5q90 -120 90 -237v-25h-655v-28q0 -198 106 -291q107 -94 254 -94q200 0 285 169zM522 961q-79 0 -127 -81t-59 -225l366 4q-3 100 -38 187q-19 53 -56.5 84t-85.5 31z" />
    <glyph glyph-name="Eogonek" unicode="&#x118;" horiz-adv-x="1318" 
d="M1001 0q-52 -38 -88 -92.5t-36 -100.5q0 -36 24.5 -57.5t63.5 -21.5q72 0 133 55l14 -10q-35 -66 -110 -109t-156 -43q-76 0 -124 36.5t-48 96.5q0 132 264 246h-905v14q107 47 129 82q26 39 26 160v952q0 122 -26 158q-22 36 -129 84v14h1073l37 -417h-15
q-45 140 -155 247q-107 107 -271 107h-165v-588h168q170 0 270 160h10v-400h-10q-43 81 -115 130.5t-155 48.5l-168 -4v-586q0 -43 57.5 -69.5t153.5 -26.5h63q125 0 229 104q106 103 172 250h15l-49 -420h-177z" />
    <glyph glyph-name="eogonek" unicode="&#x119;" horiz-adv-x="1044" 
d="M754 16q-58 -38 -99 -97.5t-41 -113.5q0 -40 24 -62t62 -22q76 0 136 60l14 -10q-35 -69 -110.5 -113.5t-157.5 -44.5q-75 0 -122.5 37.5t-47.5 97.5q0 121 213 236q-50 -4 -66 -4q-219 0 -364 139q-146 143 -146 377q0 230 141 374q143 146 367 146q113 0 204.5 -41.5
t137.5 -106.5q90 -120 90 -237v-25h-655v-28q0 -198 106 -291q107 -94 254 -94q200 0 285 169l14 -8q-50 -250 -239 -338zM522 961q-79 0 -127 -81t-59 -225l366 4q-3 100 -38 187q-19 53 -56.5 84t-85.5 31z" />
    <glyph glyph-name="Ecaron" unicode="&#x11a;" horiz-adv-x="1318" 
d="M674 1526h-17l-278 389l12 12l275 -160l274 160l12 -12q-133 -176 -278 -389zM1212 420h15l-49 -420h-1145v14q107 47 129 82q26 39 26 160v952q0 122 -26 158q-22 36 -129 84v14h1073l37 -417h-15q-45 140 -155 247q-107 107 -271 107h-165v-588h168q170 0 270 160h10
v-400h-10q-43 81 -115 130.5t-155 48.5l-168 -4v-586q0 -43 57.5 -69.5t153.5 -26.5h63q125 0 229 104q106 103 172 250z" />
    <glyph glyph-name="ecaron" unicode="&#x11b;" horiz-adv-x="1044" 
d="M543 1118h-17q-27 35 -145 197q-45 65 -115 162l13 10l256 -150l256 150l10 -10q-94 -116 -258 -359zM979 362l14 -8q-24 -118 -106 -233q-45 -65 -131.5 -103t-196.5 -38q-219 0 -364 139q-146 143 -146 377q0 230 141 374q143 146 367 146q113 0 204.5 -41.5
t137.5 -106.5q90 -120 90 -237v-25h-655v-28q0 -198 106 -291q107 -94 254 -94q200 0 285 169zM522 961q-79 0 -127 -81t-59 -225l366 4q-3 100 -38 187q-19 53 -56.5 84t-85.5 31z" />
    <glyph glyph-name="Gcircumflex" unicode="&#x11c;" horiz-adv-x="1560" 
d="M553 1522l-12 12l278 389h17q143 -211 278 -389l-12 -12l-275 161zM733 -27q-260 0 -457 170q-101 89 -160 239t-59 337q0 369 209 569q212 203 551 203q130 0 268 -27q133 -26 215 -55l39 -420h-14q-107 187 -244 314q-136 127 -272 127q-155 0 -266 -175
q-109 -177 -109 -522q0 -356 113 -524q114 -170 274 -170q82 0 152 43q71 44 71 145v265q0 126 -54 185t-187 60v27h672v-16q-67 -48 -80 -84q-15 -38 -15 -156v-481h-14q-88 61 -174 61q-51 0 -188 -57q-137 -58 -271 -58z" />
    <glyph glyph-name="gcircumflex" unicode="&#x11d;" horiz-adv-x="1073" 
d="M500 1264l-256 -150l-13 10l115 160q84 118 146 199h16q164 -243 258 -359l-10 -10zM784 160q273 -70 273 -269q0 -113 -94 -186q-92 -74 -215 -102q-129 -29 -248 -29q-183 0 -332 55q-148 53 -148 152q0 46 33.5 84.5t89.5 64.5q89 38 146 50q-207 50 -207 180
q0 73 67.5 130.5t178.5 82.5q-273 64 -273 307q0 160 117 248q119 88 299 88h41q132 0 203.5 45t79.5 113l227 -76v-8q-94 -119 -297 -119q-61 0 -119 10v-8q342 -65 342 -309q0 -142 -119 -226t-327 -84q-72 0 -113 8q-84 -18 -84 -65q0 -36 45 -45q1 0 10 -2t31 -7t45 -10
q33 -6 102.5 -20t90.5 -18q79 -15 155 -35zM475 969q-57 0 -92 -51.5t-35 -147.5q0 -186 82 -303q47 -68 111 -68q57 0 91 49.5t34 143.5q0 127 -52 252t-139 125zM532 -373q121 0 201 38.5t80 105.5q0 47 -37 82t-100 49l-332 65q-106 -66 -106 -164q0 -84 80.5 -130
t213.5 -46z" />
    <glyph glyph-name="Gbreve" unicode="&#x11e;" horiz-adv-x="1560" 
d="M1069 1884h16q-30 -346 -264 -346t-264 346h18q25 -82 96 -131t150 -49t151 49.5t97 130.5zM733 -27q-260 0 -457 170q-101 89 -160 239t-59 337q0 369 209 569q212 203 551 203q130 0 268 -27q133 -26 215 -55l39 -420h-14q-107 187 -244 314q-136 127 -272 127
q-155 0 -266 -175q-109 -177 -109 -522q0 -356 113 -524q114 -170 274 -170q82 0 152 43q71 44 71 145v265q0 126 -54 185t-187 60v27h672v-16q-67 -48 -80 -84q-15 -38 -15 -156v-481h-14q-88 61 -174 61q-51 0 -188 -57q-137 -58 -271 -58z" />
    <glyph glyph-name="gbreve" unicode="&#x11f;" horiz-adv-x="1073" 
d="M236 1460h18q25 -82 96 -131t150 -49t151 49.5t97 130.5h16q-30 -346 -264 -346t-264 346zM784 160q273 -70 273 -269q0 -113 -94 -186q-92 -74 -215 -102q-129 -29 -248 -29q-183 0 -332 55q-148 53 -148 152q0 46 33.5 84.5t89.5 64.5q89 38 146 50q-207 50 -207 180
q0 73 67.5 130.5t178.5 82.5q-273 64 -273 307q0 160 117 248q119 88 299 88h41q132 0 203.5 45t79.5 113l227 -76v-8q-94 -119 -297 -119q-61 0 -119 10v-8q342 -65 342 -309q0 -142 -119 -226t-327 -84q-72 0 -113 8q-84 -18 -84 -65q0 -36 45 -45q1 0 10 -2t31 -7t45 -10
q33 -6 102.5 -20t90.5 -18q79 -15 155 -35zM475 969q-57 0 -92 -51.5t-35 -147.5q0 -186 82 -303q47 -68 111 -68q57 0 91 49.5t34 143.5q0 127 -52 252t-139 125zM532 -373q121 0 201 38.5t80 105.5q0 47 -37 82t-100 49l-332 65q-106 -66 -106 -164q0 -84 80.5 -130
t213.5 -46z" />
    <glyph glyph-name="Gdotaccent" unicode="&#x120;" horiz-adv-x="1560" 
d="M680 1698q0 57 43 99t100 42t100.5 -42t43.5 -99q0 -59 -43 -101.5t-101 -42.5t-100.5 42.5t-42.5 101.5zM733 -27q-260 0 -457 170q-101 89 -160 239t-59 337q0 369 209 569q212 203 551 203q130 0 268 -27q133 -26 215 -55l39 -420h-14q-107 187 -244 314
q-136 127 -272 127q-155 0 -266 -175q-109 -177 -109 -522q0 -356 113 -524q114 -170 274 -170q82 0 152 43q71 44 71 145v265q0 126 -54 185t-187 60v27h672v-16q-67 -48 -80 -84q-15 -38 -15 -156v-481h-14q-88 61 -174 61q-51 0 -188 -57q-137 -58 -271 -58z" />
    <glyph glyph-name="gdotaccent" unicode="&#x121;" horiz-adv-x="1073" 
d="M600 1194q-43 -43 -100.5 -43t-100.5 43t-43 100.5t43 98.5q43 43 100.5 43t100.5 -43q43 -41 43 -98.5t-43 -100.5zM784 160q273 -70 273 -269q0 -113 -94 -186q-92 -74 -215 -102q-129 -29 -248 -29q-183 0 -332 55q-148 53 -148 152q0 46 33.5 84.5t89.5 64.5
q89 38 146 50q-207 50 -207 180q0 73 67.5 130.5t178.5 82.5q-273 64 -273 307q0 160 117 248q119 88 299 88h41q132 0 203.5 45t79.5 113l227 -76v-8q-94 -119 -297 -119q-61 0 -119 10v-8q342 -65 342 -309q0 -142 -119 -226t-327 -84q-72 0 -113 8q-84 -18 -84 -65
q0 -36 45 -45q1 0 10 -2t31 -7t45 -10q33 -6 102.5 -20t90.5 -18q79 -15 155 -35zM475 969q-57 0 -92 -51.5t-35 -147.5q0 -186 82 -303q47 -68 111 -68q57 0 91 49.5t34 143.5q0 127 -52 252t-139 125zM532 -373q121 0 201 38.5t80 105.5q0 47 -37 82t-100 49l-332 65
q-106 -66 -106 -164q0 -84 80.5 -130t213.5 -46z" />
    <glyph glyph-name="uni0122" unicode="&#x122;" horiz-adv-x="1560" 
d="M1475 764v-16q-67 -48 -80 -84q-15 -38 -15 -156v-481h-14q-88 61 -174 61q-51 0 -188 -57q-137 -58 -271 -58q-259 0 -457 168q-101 89 -160 239t-59 337q0 371 209 571q212 203 551 203q130 0 268 -27q133 -26 215 -55l39 -420h-14q-107 187 -244 314
q-136 127 -272 127q-155 0 -266 -175q-109 -177 -109 -522q0 -356 113 -524q114 -170 274 -170q82 0 152 43q71 44 71 145v265q0 126 -54 185t-187 60v27h672zM971 -209q0 -83 -70 -174q-67 -94 -201 -141l-8 16q111 94 146 205h-19q-48 0 -85.5 21t-53.5 51t-9 66.5
t40 64.5q33 26 78.5 31.5t85.5 -7.5t68 -48t28 -85z" />
    <glyph glyph-name="uni0123" unicode="&#x123;" horiz-adv-x="1073" 
d="M326 1274q0 90 71.5 180t196.5 135l8 -16q-106 -91 -143 -205h16q63 0 107.5 -34t44.5 -83q0 -51 -44 -86t-106 -35q-64 0 -107.5 39.5t-43.5 104.5zM784 160q273 -70 273 -269q0 -113 -94 -186q-92 -74 -215 -102q-129 -29 -248 -29q-183 0 -332 55q-148 53 -148 152
q0 46 33.5 84.5t89.5 64.5q89 38 146 50q-207 50 -207 180q0 73 67.5 130.5t178.5 82.5q-273 64 -273 307q0 160 117 248q119 88 299 88h41q132 0 203.5 45t79.5 113l227 -76v-8q-94 -119 -297 -119q-61 0 -119 10v-8q342 -65 342 -309q0 -142 -119 -226t-327 -84
q-72 0 -113 8q-84 -18 -84 -65q0 -36 45 -45q1 0 10 -2t31 -7t45 -10q33 -6 102.5 -20t90.5 -18q79 -15 155 -35zM475 969q-57 0 -92 -51.5t-35 -147.5q0 -186 82 -303q47 -68 111 -68q57 0 91 49.5t34 143.5q0 127 -52 252t-139 125zM532 -373q121 0 201 38.5t80 105.5
q0 47 -37 82t-100 49l-332 65q-106 -66 -106 -164q0 -84 80.5 -130t213.5 -46z" />
    <glyph glyph-name="Hcircumflex" unicode="&#x124;" horiz-adv-x="1632" 
d="M817 1683l-274 -161l-13 12l279 389h16q135 -199 279 -389l-12 -12zM1604 1450q-106 -47 -131 -84q-25 -39 -25 -158v-952q0 -118 25 -160q25 -35 131 -82v-14h-660v14q107 47 129 82q27 40 27 160v494h-563v-494q0 -120 24 -160q25 -35 131 -82v-14h-659v14
q107 47 129 82q26 39 26 160v952q0 122 -26 158q-22 36 -129 84v14h659v-14q-106 -47 -131 -84q-24 -38 -24 -158v-360h563v360q0 120 -27 158q-22 36 -129 84v14h660v-14z" />
    <glyph glyph-name="hcircumflex" unicode="&#x125;" horiz-adv-x="1241" 
d="M618 1704l-245 -143l-11 10l250 350h15q170 -246 250 -350l-11 -10zM1108 240q0 -112 20 -148q20 -35 101 -78v-14h-555v14q80 42 100 78q23 41 23 148v211q2 141 2 213q0 94 -42.5 144t-111.5 50q-109 0 -194 -129v-489q0 -112 20 -148q21 -37 98 -78v-14h-553v14
q79 42 99 78q22 39 22 148v925q0 174 -47 217q-18 18 -74 56v14q223 14 435 78v-729q144 215 354 215q40 0 78.5 -8t80 -29.5t73 -54.5t51.5 -88.5t20 -126.5v-469z" />
    <glyph glyph-name="Hbar" unicode="&#x126;" horiz-adv-x="1632" 
d="M1604 1450q-106 -47 -131 -84q-25 -39 -25 -158v-108h131v-56h-131v-788q0 -118 25 -160q25 -35 131 -82v-14h-660v14q107 47 129 82q27 40 27 160v494h-563v-494q0 -120 24 -160q25 -35 131 -82v-14h-659v14q107 47 129 82q26 39 26 160v788h-131v56h131v108
q0 122 -26 158q-22 36 -129 84v14h659v-14q-106 -47 -131 -84q-24 -38 -24 -158v-108h563v108q0 120 -27 158q-22 36 -129 84v14h660v-14zM1100 848v196h-563v-196h563z" />
    <glyph glyph-name="hbar" unicode="&#x127;" horiz-adv-x="1241" 
d="M1108 240q0 -112 20 -148q20 -35 101 -78v-14h-555v14q80 42 100 78q23 41 23 148v211q2 141 2 213q0 94 -42.5 144t-111.5 50q-109 0 -194 -129v-489q0 -112 20 -148q21 -37 98 -78v-14h-553v14q79 42 99 78q22 39 22 148v948h-112v59h110q-8 112 -55 146q-10 10 -64 45
v14q223 14 435 78v-283h229v-59h-229v-387q144 215 354 215q40 0 78.5 -8t80 -29.5t73 -54.5t51.5 -88.5t20 -126.5v-469z" />
    <glyph glyph-name="Itilde" unicode="&#x128;" horiz-adv-x="720" 
d="M707 1812l22 -4q-26 -131 -85.5 -181t-180.5 -50q-17 0 -129 31q-127 37 -156 37q-47 0 -75.5 -12.5t-65.5 -47.5l-19 4q23 122 84 178t168 56q39 0 144 -31q118 -37 141 -37q61 0 84 10q24 9 68 47zM33 0v14q107 47 129 82q26 39 26 160v952q0 122 -26 158
q-22 36 -129 84v14h659v-14q-106 -47 -131 -84q-24 -38 -24 -158v-952q0 -120 24 -160q25 -35 131 -82v-14h-659z" />
    <glyph glyph-name="itilde" unicode="&#x129;" horiz-adv-x="583" 
d="M582 1399l20 -4q-38 -219 -213 -219q-57 0 -145 30q-112 37 -152 37q-60 0 -119 -59l-16 4q25 123 80 172t166 49q19 0 114 -33q110 -35 129 -35q53 0 75.5 10t60.5 48zM16 0v14q79 42 99 78q22 39 22 148v415q0 170 -47 217q-21 21 -74 54v14q219 15 435 80v-780
q0 -112 20 -148t100 -78v-14h-555z" />
    <glyph glyph-name="Imacron" unicode="&#x12a;" horiz-adv-x="720" 
d="M682 1739v-154h-631v154h631zM33 0v14q107 47 129 82q26 39 26 160v952q0 122 -26 158q-22 36 -129 84v14h659v-14q-106 -47 -131 -84q-24 -38 -24 -158v-952q0 -120 24 -160q25 -35 131 -82v-14h-659z" />
    <glyph glyph-name="imacron" unicode="&#x12b;" horiz-adv-x="583" 
d="M551 1346v-158h-549v158h549zM16 0v14q79 42 99 78q22 39 22 148v415q0 170 -47 217q-21 21 -74 54v14q219 15 435 80v-780q0 -112 20 -148t100 -78v-14h-555z" />
    <glyph glyph-name="Ibreve" unicode="&#x12c;" horiz-adv-x="720" 
d="M610 1884h17q-30 -346 -265 -346q-234 0 -264 346h19q25 -82 96 -131t149 -49q79 0 151 49.5t97 130.5zM33 0v14q107 47 129 82q26 39 26 160v952q0 122 -26 158q-22 36 -129 84v14h659v-14q-106 -47 -131 -84q-24 -38 -24 -158v-952q0 -120 24 -160q25 -35 131 -82v-14
h-659z" />
    <glyph glyph-name="ibreve" unicode="&#x12d;" horiz-adv-x="583" 
d="M518 1468h17q-30 -346 -265 -346q-234 0 -264 346h19q25 -82 96 -131t149 -49q79 0 151 49.5t97 130.5zM16 0v14q79 42 99 78q22 39 22 148v415q0 170 -47 217q-21 21 -74 54v14q219 15 435 80v-780q0 -112 20 -148t100 -78v-14h-555z" />
    <glyph glyph-name="Iogonek" unicode="&#x12e;" horiz-adv-x="720" 
d="M692 1450q-106 -47 -131 -84q-24 -38 -24 -158v-952q0 -120 24 -160q25 -35 131 -82v-14h-205q-52 -38 -88.5 -92.5t-36.5 -100.5q0 -36 24 -57.5t63 -21.5q74 0 135 55l14 -10q-35 -66 -110 -109t-156 -43q-76 0 -124 36.5t-48 96.5q0 132 264 246h-391v14
q107 47 129 82q26 39 26 160v952q0 122 -26 158q-22 36 -129 84v14h659v-14z" />
    <glyph glyph-name="iogonek" unicode="&#x12f;" horiz-adv-x="583" 
d="M104 1294q0 62 49.5 108t116.5 46t115.5 -46t48.5 -108q0 -66 -48 -111.5t-116 -45.5q-67 0 -116.5 47t-49.5 110zM430 0q-125 -101 -125 -201q0 -40 24 -62t62 -22q75 0 135 60l15 -11q-35 -69 -111 -113t-158 -44q-75 0 -122.5 37.5t-47.5 97.5q0 137 263 258h-349v14
q79 42 99 78q22 39 22 148v415q0 170 -47 217q-21 21 -74 54v14q219 15 435 80v-780q0 -112 20 -148t100 -78v-14h-141z" />
    <glyph glyph-name="Idot" unicode="&#x130;" horiz-adv-x="720" 
d="M221 1698q0 57 43.5 99t100.5 42t100 -42t43 -99q0 -59 -42.5 -101.5t-100.5 -42.5t-101 42.5t-43 101.5zM33 0v14q107 47 129 82q26 39 26 160v952q0 122 -26 158q-22 36 -129 84v14h659v-14q-106 -47 -131 -84q-24 -38 -24 -158v-952q0 -120 24 -160q25 -35 131 -82
v-14h-659z" />
    <glyph glyph-name="dotlessi" unicode="&#x131;" horiz-adv-x="583" 
d="M16 0v14q79 42 99 78q22 39 22 148v415q0 170 -47 217q-21 21 -74 54v14q219 15 435 80v-780q0 -112 20 -148t100 -78v-14h-555z" />
    <glyph glyph-name="Jcircumflex" unicode="&#x134;" horiz-adv-x="712" 
d="M84 1522l-12 12l278 389h17q143 -211 278 -389l-12 -12l-275 161zM35 -268l-6 20q159 94 159 283v1173q0 122 -26 158q-22 36 -129 84v14h659v-14q-106 -47 -131 -84q-24 -38 -24 -158v-956q0 -287 -232 -420q-65 -39 -124.5 -60t-145.5 -40z" />
    <glyph glyph-name="jcircumflex" unicode="&#x135;" horiz-adv-x="571" 
d="M18 1122l-12 11l115 159q95 134 145 199h17q160 -237 258 -358l-11 -11l-256 150zM-45 -428l-6 16q103 56 144.5 138t41.5 235v694q0 170 -47 217q-20 19 -72 54v14q217 15 433 80v-877q0 -477 -494 -571z" />
    <glyph glyph-name="uni0136" unicode="&#x136;" horiz-adv-x="1554" 
d="M537 256q0 -120 24 -160q25 -35 131 -82v-14h-659v14q107 47 129 82q26 39 26 160v952q0 122 -26 158q-22 36 -129 84v14h659v-14q-106 -47 -131 -84q-24 -38 -24 -158v-952zM571 700l424 416q101 98 101 182q0 97 -125 152v14h540v-14q-37 -19 -163 -102
q-37 -25 -97 -78l-47 -41l-41 -35l-43 -39l-37 -35l-247 -229l473 -674q113 -163 233 -203v-14h-502zM965 -209q0 -83 -70 -174q-67 -94 -201 -141l-8 16q109 93 145 205h-18q-48 0 -85.5 21t-53.5 51t-9 66.5t40 64.5q33 26 78.5 31.5t85.5 -7.5t68 -48t28 -85z" />
    <glyph glyph-name="uni0137" unicode="&#x137;" horiz-adv-x="1206" 
d="M16 0v14q79 42 99 78q22 39 22 148v925q0 174 -47 217q-18 18 -74 56v14q223 14 435 78v-1047l297 269q57 51 57 96q0 63 -119 127v14h473v-14l-45 -29l-45 -26q-5 -2 -37 -23q-43 -25 -74 -47q-78 -58 -131 -111l-129 -116l308 -435q84 -124 190 -174v-14h-420l-293 453
h-32v-213q0 -112 20 -148t100 -78v-14h-555zM780 -209q0 -84 -69 -174q-67 -94 -201 -141l-8 16q109 93 145 205h-18q-48 0 -85.5 21t-54 51t-9.5 66.5t40 64.5q33 26 78.5 31.5t85.5 -7.5t68 -48t28 -85z" />
    <glyph glyph-name="Lacute" unicode="&#x139;" horiz-adv-x="1280" 
d="M627 1878q-190 -199 -328 -328h-20q21 179 30 328h318zM1174 420h14l-49 -420h-1106v14q107 47 129 82q26 39 26 160v952q0 122 -26 158q-22 36 -129 84v14h659v-14q-106 -47 -131 -84q-24 -38 -24 -158v-1046q0 -43 57.5 -69.5t153.5 -26.5h24q125 0 229 104
q108 105 173 250z" />
    <glyph glyph-name="lacute" unicode="&#x13a;" horiz-adv-x="583" 
d="M117 1583l-21 4q55 147 105 311l309 -71q-172 -114 -393 -244zM16 0v14q79 42 99 78q22 39 22 148v925q0 174 -47 217q-18 18 -74 56v14q223 14 435 78v-1290q0 -112 20 -148t100 -78v-14h-555z" />
    <glyph glyph-name="uni013B" unicode="&#x13b;" horiz-adv-x="1280" 
d="M1174 420h14l-49 -420h-1106v14q107 47 129 82q26 39 26 160v952q0 122 -26 158q-22 36 -129 84v14h659v-14q-106 -47 -131 -84q-24 -38 -24 -158v-1046q0 -43 57.5 -69.5t153.5 -26.5h24q125 0 229 104q108 105 173 250zM852 -209q0 -83 -70 -174q-67 -94 -200 -141
l-9 16q111 94 146 205h-19q-48 0 -85.5 21t-53.5 51t-9 66.5t40 64.5q33 26 78.5 31.5t85.5 -7.5t68 -48t28 -85z" />
    <glyph glyph-name="uni013C" unicode="&#x13c;" horiz-adv-x="583" 
d="M16 0v14q79 42 99 78q22 39 22 148v925q0 174 -47 217q-18 18 -74 56v14q223 14 435 78v-1290q0 -112 20 -148t100 -78v-14h-555zM453 -209q0 -83 -70 -174q-67 -94 -201 -141l-8 16q109 93 145 205h-18q-48 0 -85.5 21t-53.5 51t-9 66.5t40 64.5q33 26 78.5 31.5
t85.5 -7.5t68 -48t28 -85z" />
    <glyph glyph-name="Lcaron" unicode="&#x13d;" horiz-adv-x="1280" 
d="M1174 420h14l-49 -420h-1106v14q107 47 129 82q26 39 26 160v952q0 122 -26 158q-22 36 -129 84v14h659v-14q-106 -47 -131 -84q-24 -38 -24 -158v-1046q0 -43 57.5 -69.5t153.5 -26.5h24q125 0 229 104q108 105 173 250zM1085 1462q-176 -184 -329 -327h-19
q25 249 29 327h319z" />
    <glyph glyph-name="lcaron" unicode="&#x13e;" horiz-adv-x="561" 
d="M16 0v14q79 42 99 78q22 39 22 148v925q0 174 -47 217q-18 18 -74 56v14q223 14 435 78v-1290q0 -112 20 -148t100 -78v-14h-555zM557 1024h-16l34 465h265z" />
    <glyph glyph-name="Ldot" unicode="&#x13f;" horiz-adv-x="1280" 
d="M1174 420h14l-49 -420h-1106v14q107 47 129 82q26 39 26 160v952q0 122 -26 158q-22 36 -129 84v14h659v-14q-106 -47 -131 -84q-24 -38 -24 -158v-1046q0 -43 57.5 -69.5t153.5 -26.5h24q125 0 229 104q108 105 173 250zM1008 567q-51 -54 -122.5 -54t-125.5 54t-54 125
t54 125t125.5 54t122.5 -54q54 -54 54 -125t-54 -125z" />
    <glyph glyph-name="ldot" unicode="&#x140;" horiz-adv-x="1024" 
d="M16 0v14q79 42 99 78q22 39 22 148v925q0 174 -47 217q-18 18 -74 56v14q223 14 435 78v-1290q0 -112 20 -148t100 -78v-14h-555zM926 463q-51 -51 -122.5 -51t-125.5 51q-54 54 -54 125t54 125t125.5 54t122.5 -54q54 -54 54 -125t-54 -125z" />
    <glyph glyph-name="Lslash" unicode="&#x141;" horiz-adv-x="1280" 
d="M1174 420h14l-49 -420h-1106v14q107 47 129 82q26 39 26 160v264l-155 -92v66l155 92v622q0 122 -26 158q-22 36 -129 84v14h659v-14q-106 -47 -131 -84q-24 -38 -24 -158v-415l274 161v-67l-274 -162v-563q0 -43 57.5 -69.5t153.5 -26.5h24q125 0 229 104
q108 105 173 250z" />
    <glyph glyph-name="lslash" unicode="&#x142;" horiz-adv-x="583" 
d="M451 240q0 -112 20 -148t100 -78v-14h-555v14q79 42 99 78q22 39 22 148v383l-108 -80v71l108 80v471q0 174 -47 217q-18 18 -74 56v14q223 14 435 78v-604l102 75v-75l-102 -76v-610z" />
    <glyph glyph-name="Nacute" unicode="&#x143;" horiz-adv-x="1517" 
d="M1028 1878q-190 -199 -328 -328h-20q23 197 31 328h317zM1497 1464v-14q-43 -21 -60.5 -30t-44.5 -28t-35 -28.5t-22.5 -35.5t-17.5 -45.5t-8.5 -62.5t-7 -82t-3.5 -108v-1030h-266q-338 561 -727 1153v-719q2 -69 3.5 -108t7 -82t8.5 -62.5t17.5 -45.5t22.5 -35.5
t35 -28.5t44.5 -28t60.5 -30v-14h-471v14q42 21 61.5 30t45.5 28t34.5 28t22.5 36t16.5 45t8.5 63t7 81.5t4 108.5v805q-39 106 -198 211v14h467l725 -1149v715q-2 69 -3.5 108t-7 82t-8.5 62.5t-17.5 45.5t-22.5 35.5t-35 28.5t-44.5 28t-60.5 30v14h469z" />
    <glyph glyph-name="nacute" unicode="&#x144;" horiz-adv-x="1239" 
d="M887 1456l-328 -328h-20q23 209 28 328h320zM1106 240q0 -112 20 -148q20 -35 101 -78v-14h-555v14q82 42 102 78q23 44 23 148v141v283q0 95 -40.5 144.5t-109.5 49.5q-101 0 -196 -129v-489q0 -112 20 -148q21 -37 98 -78v-14h-553v14q79 42 99 78q22 39 22 148v417
q0 133 -22 179q-20 44 -99 92v14q205 12 428 78v-225q144 221 359 221q40 0 78.5 -8t80 -29.5t73 -54.5t51.5 -88.5t20 -126.5v-469z" />
    <glyph glyph-name="uni0145" unicode="&#x145;" horiz-adv-x="1517" 
d="M1497 1464v-14q-43 -21 -60.5 -30t-44.5 -28t-35 -28.5t-22.5 -35.5t-17.5 -45.5t-8.5 -62.5t-7 -82t-3.5 -108v-1030h-266q-338 561 -727 1153v-719q2 -69 3.5 -108t7 -82t8.5 -62.5t17.5 -45.5t22.5 -35.5t35 -28.5t44.5 -28t60.5 -30v-14h-471v14q42 21 61.5 30
t45.5 28t34.5 28t22.5 36t16.5 45t8.5 63t7 81.5t4 108.5v805q-39 106 -198 211v14h467l725 -1149v715q-2 69 -3.5 108t-7 82t-8.5 62.5t-17.5 45.5t-22.5 35.5t-35 28.5t-44.5 28t-60.5 30v14h469zM924 -209q0 -83 -70 -174q-67 -94 -201 -141l-8 16q111 94 146 205h-19
q-48 0 -85.5 21t-53.5 51t-9 66.5t40 64.5q33 26 78.5 31.5t85.5 -7.5t68 -48t28 -85z" />
    <glyph glyph-name="uni0146" unicode="&#x146;" horiz-adv-x="1239" 
d="M1106 240q0 -112 20 -148q20 -35 101 -78v-14h-555v14q82 42 102 78q23 44 23 148v141v283q0 95 -40.5 144.5t-109.5 49.5q-101 0 -196 -129v-489q0 -112 20 -148q21 -37 98 -78v-14h-553v14q79 42 99 78q22 39 22 148v417q0 133 -22 179q-20 44 -99 92v14q205 12 428 78
v-225q144 221 359 221q40 0 78.5 -8t80 -29.5t73 -54.5t51.5 -88.5t20 -126.5v-469zM784 -209q0 -84 -69 -174q-67 -94 -201 -141l-8 16q109 93 145 205h-18q-48 0 -85.5 21t-54 51t-9.5 66.5t40 64.5q33 26 78.5 31.5t85.5 -7.5t68 -48t28 -85z" />
    <glyph glyph-name="Ncaron" unicode="&#x147;" horiz-adv-x="1517" 
d="M791 1526h-17l-278 389l12 12l274 -160l275 160l12 -12q-133 -176 -278 -389zM1497 1464v-14q-43 -21 -60.5 -30t-44.5 -28t-35 -28.5t-22.5 -35.5t-17.5 -45.5t-8.5 -62.5t-7 -82t-3.5 -108v-1030h-266q-338 561 -727 1153v-719q2 -69 3.5 -108t7 -82t8.5 -62.5
t17.5 -45.5t22.5 -35.5t35 -28.5t44.5 -28t60.5 -30v-14h-471v14q42 21 61.5 30t45.5 28t34.5 28t22.5 36t16.5 45t8.5 63t7 81.5t4 108.5v805q-39 106 -198 211v14h467l725 -1149v715q-2 69 -3.5 108t-7 82t-8.5 62.5t-17.5 45.5t-22.5 35.5t-35 28.5t-44.5 28t-60.5 30v14
h469z" />
    <glyph glyph-name="ncaron" unicode="&#x148;" horiz-adv-x="1239" 
d="M635 1118h-17q-27 35 -145 197q-45 65 -115 162l13 10l256 -150l256 150l10 -10q-94 -116 -258 -359zM1106 240q0 -112 20 -148q20 -35 101 -78v-14h-555v14q82 42 102 78q23 44 23 148v141v283q0 95 -40.5 144.5t-109.5 49.5q-101 0 -196 -129v-489q0 -112 20 -148
q21 -37 98 -78v-14h-553v14q79 42 99 78q22 39 22 148v417q0 133 -22 179q-20 44 -99 92v14q205 12 428 78v-225q144 221 359 221q40 0 78.5 -8t80 -29.5t73 -54.5t51.5 -88.5t20 -126.5v-469z" />
    <glyph glyph-name="Eng" unicode="&#x14a;" horiz-adv-x="1517" 
d="M1497 1464v-14q-43 -21 -60.5 -30t-44.5 -28t-35 -28.5t-22.5 -35.5t-17.5 -45.5t-8.5 -62.5t-7 -82t-3.5 -108v-1177q0 -130 -68 -202.5t-192 -72.5q-144 0 -245 72l127 280h14q26 -98 76.5 -162.5t113.5 -64.5q50 0 81.5 39t31.5 106v152h-205q-338 561 -727 1153v-719
q2 -69 3.5 -108t7 -82t8.5 -62.5t17.5 -45.5t22.5 -35.5t35 -28.5t44.5 -28t60.5 -30v-14h-471v14q42 21 61.5 30t45.5 28t34.5 28t22.5 36t16.5 45t8.5 63t7 81.5t4 108.5v805q-39 106 -198 211v14h467l725 -1149v715q-2 69 -3.5 108t-7 82t-8.5 62.5t-17.5 45.5
t-22.5 35.5t-35 28.5t-44.5 28t-60.5 30v14h469z" />
    <glyph glyph-name="eng" unicode="&#x14b;" horiz-adv-x="1226" 
d="M809 1016q38 0 75.5 -8t79 -29.5t72.5 -54.5t51.5 -89t20.5 -126v-562q0 -477 -498 -569l-6 16q103 56 145.5 138t43.5 235l4 697q0 94 -41 144t-109 50q-102 0 -196 -119v-499q0 -112 20 -148t100 -78v-14h-555v14q79 42 99 78q22 39 22 148v417q0 133 -22 179
q-20 44 -99 92v14q205 12 428 78v-219q156 215 365 215z" />
    <glyph glyph-name="Omacron" unicode="&#x14c;" horiz-adv-x="1599" 
d="M1116 1739v-154h-631v154h631zM1339 178q-202 -205 -540 -205q-339 0 -541 205q-201 207 -201 555q0 349 201 553q202 205 541 205q338 0 540 -205q203 -203 203 -553q0 -349 -203 -555zM850 39q145 0 234.5 143.5t89.5 390.5q0 96 -13 203.5t-45.5 225t-79 210t-121 153
t-165.5 60.5q-149 0 -238 -145q-88 -143 -88 -385q0 -269 94 -541q49 -141 137 -228t195 -87z" />
    <glyph glyph-name="omacron" unicode="&#x14d;" horiz-adv-x="1150" 
d="M856 1337v-157h-549v157h549zM575 -20q-242 0 -384 135.5t-142 369.5q0 241 144 385q146 146 389 146q239 0 379 -137q141 -138 141 -373q0 -239 -144 -383q-143 -143 -383 -143zM782 322q-4 151 -34 309t-99 256q-57 69 -119 75.5t-111.5 -74t-49.5 -216.5
q0 -135 33 -302.5t100 -265.5q31 -42 70 -60.5t76 -8t68.5 42.5t49.5 96t16 148z" />
    <glyph glyph-name="Obreve" unicode="&#x14e;" horiz-adv-x="1599" 
d="M1044 1884h17q-30 -346 -264 -346q-235 0 -265 346h19q25 -82 96 -131t150 -49t150.5 49t96.5 131zM1339 178q-202 -205 -540 -205q-339 0 -541 205q-201 207 -201 555q0 349 201 553q202 205 541 205q338 0 540 -205q203 -203 203 -553q0 -349 -203 -555zM850 39
q145 0 234.5 143.5t89.5 390.5q0 96 -13 203.5t-45.5 225t-79 210t-121 153t-165.5 60.5q-149 0 -238 -145q-88 -143 -88 -385q0 -269 94 -541q49 -141 137 -228t195 -87z" />
    <glyph glyph-name="obreve" unicode="&#x14f;" horiz-adv-x="1150" 
d="M823 1460h17q-30 -346 -265 -346q-234 0 -264 346h19q25 -82 96 -131t149 -49q79 0 151 49.5t97 130.5zM575 -20q-242 0 -384 135.5t-142 369.5q0 241 144 385q146 146 389 146q239 0 379 -137q141 -138 141 -373q0 -239 -144 -383q-143 -143 -383 -143zM782 322
q-4 151 -34 309t-99 256q-57 69 -119 75.5t-111.5 -74t-49.5 -216.5q0 -135 33 -302.5t100 -265.5q31 -42 70 -60.5t76 -8t68.5 42.5t49.5 96t16 148z" />
    <glyph glyph-name="Ohungarumlaut" unicode="&#x150;" horiz-adv-x="1599" 
d="M897 1550h-18q23 225 28 328h291q-138 -159 -301 -328zM522 1548h-18q24 239 26 328h293q-184 -211 -301 -328zM1339 178q-202 -205 -540 -205q-339 0 -541 205q-201 207 -201 555q0 349 201 553q202 205 541 205q338 0 540 -205q203 -203 203 -553q0 -349 -203 -555z
M850 39q145 0 234.5 143.5t89.5 390.5q0 96 -13 203.5t-45.5 225t-79 210t-121 153t-165.5 60.5q-149 0 -238 -145q-88 -143 -88 -385q0 -269 94 -541q49 -141 137 -228t195 -87z" />
    <glyph glyph-name="ohungarumlaut" unicode="&#x151;" horiz-adv-x="1150" 
d="M674 1133h-19q25 244 29 327h291q-129 -149 -301 -327zM299 1130h-18q24 239 26 328h293q-141 -163 -301 -328zM575 -20q-242 0 -384 135.5t-142 369.5q0 241 144 385q146 146 389 146q239 0 379 -137q141 -138 141 -373q0 -239 -144 -383q-143 -143 -383 -143zM782 322
q-4 151 -34 309t-99 256q-57 69 -119 75.5t-111.5 -74t-49.5 -216.5q0 -135 33 -302.5t100 -265.5q31 -42 70 -60.5t76 -8t68.5 42.5t49.5 96t16 148z" />
    <glyph glyph-name="OE" unicode="&#x152;" horiz-adv-x="2189" 
d="M2083 420h14l-49 -420h-961v61q-144 -84 -317 -84q-302 0 -508 203q-205 202 -205 553t203 551q206 203 508 203q175 0 319 -84v61h900l36 -417h-14q-46 142 -156 249q-108 105 -268 105h-166v-586h156q170 0 270 160h10v-400h-10q-46 80 -115 130t-155 49l-156 -4v-588
q0 -43 57 -69.5t154 -26.5h51q126 0 230 104q106 103 172 250zM840 39q161 0 247 170v872q-54 169 -138.5 255.5t-194.5 86.5q-151 0 -240.5 -139.5t-89.5 -384.5q0 -257 90 -541q46 -144 132.5 -231.5t193.5 -87.5z" />
    <glyph glyph-name="oe" unicode="&#x153;" horiz-adv-x="1779" 
d="M1716 362l15 -8q-25 -119 -105 -231q-45 -65 -132.5 -104t-197.5 -39q-226 0 -368 145q-121 -145 -353 -145q-242 0 -384 135.5t-142 369.5q0 241 144 385q146 146 389 146q230 0 348 -139q145 139 364 139q113 0 204.5 -41.5t137.5 -106.5q88 -125 88 -237v-25h-653v-28
q0 -197 107 -291t254 -94q199 0 284 169zM784 322q-4 149 -35 309.5t-100 255.5q-57 69 -119 75.5t-111.5 -74t-49.5 -216.5q4 -148 35 -309t100 -259q32 -43 70.5 -61.5t75 -7.5t67 44.5t49 97t18.5 145.5zM1255 961q-158 0 -182 -306l367 4q-2 45 -11 91.5t-28.5 96.5
t-57.5 82t-88 32z" />
    <glyph glyph-name="Racute" unicode="&#x154;" horiz-adv-x="1497" 
d="M905 1878q-199 -208 -327 -328h-21q23 197 31 328h317zM1300 211q69 -104 181 -197v-14h-447q-223 361 -403 700l-94 -4v-440q0 -120 24 -160q25 -35 131 -82v-14h-659v14q107 47 129 82q26 39 26 160v952q0 122 -26 158q-22 36 -129 84v14h684q265 0 418 -96.5
t153 -261.5q0 -128 -89 -226t-236 -137q139 -240 337 -532zM537 1401v-639h125q129 0 204.5 88.5t75.5 245.5q0 305 -299 305h-106z" />
    <glyph glyph-name="racute" unicode="&#x155;" horiz-adv-x="874" 
d="M348 1128h-20q23 209 28 328h320zM16 0v14q79 42 99 78q22 39 22 148v434q0 115 -22 164q-20 45 -99 90v14q208 12 428 78l-4 -205h4q29 82 104 141.5t177 59.5q45 0 96 -23l-41 -329h-14q-127 167 -217 167q-64 0 -98 -75v-516q0 -112 26 -148t131 -78v-14h-592z" />
    <glyph glyph-name="uni0156" unicode="&#x156;" horiz-adv-x="1497" 
d="M1300 211q69 -104 181 -197v-14h-447q-223 361 -403 700l-94 -4v-440q0 -120 24 -160q25 -35 131 -82v-14h-659v14q107 47 129 82q26 39 26 160v952q0 122 -26 158q-22 36 -129 84v14h684q265 0 418 -96.5t153 -261.5q0 -128 -89 -226t-236 -137q139 -240 337 -532z
M537 1401v-639h125q129 0 204.5 88.5t75.5 245.5q0 305 -299 305h-106zM897 -209q0 -83 -70 -174q-67 -94 -200 -141l-9 16q111 94 146 205h-19q-48 0 -85.5 21t-53.5 51t-9 66.5t40 64.5q33 26 78.5 31.5t85.5 -7.5t68 -48t28 -85z" />
    <glyph glyph-name="uni0157" unicode="&#x157;" horiz-adv-x="874" 
d="M16 0v14q79 42 99 78q22 39 22 148v434q0 115 -22 164q-20 45 -99 90v14q208 12 428 78l-4 -205h4q29 82 104 141.5t177 59.5q45 0 96 -23l-41 -329h-14q-127 167 -217 167q-64 0 -98 -75v-516q0 -112 26 -148t131 -78v-14h-592zM461 -209q0 -83 -70 -174
q-67 -94 -201 -141l-8 16q111 94 146 205h-19q-48 0 -85.5 21t-53.5 51t-9 66.5t40 64.5q33 26 78.5 31.5t85.5 -7.5t68 -48t28 -85z" />
    <glyph glyph-name="Rcaron" unicode="&#x158;" horiz-adv-x="1497" 
d="M668 1526h-17l-278 389l12 12l274 -160l275 160l12 -12q-133 -176 -278 -389zM1300 211q69 -104 181 -197v-14h-447q-223 361 -403 700l-94 -4v-440q0 -120 24 -160q25 -35 131 -82v-14h-659v14q107 47 129 82q26 39 26 160v952q0 122 -26 158q-22 36 -129 84v14h684
q265 0 418 -96.5t153 -261.5q0 -128 -89 -226t-236 -137q139 -240 337 -532zM537 1401v-639h125q129 0 204.5 88.5t75.5 245.5q0 305 -299 305h-106z" />
    <glyph glyph-name="rcaron" unicode="&#x159;" horiz-adv-x="874" 
d="M158 1487l256 -150l256 150l10 -10q-94 -116 -258 -359h-16q-45 59 -146 197q-45 65 -115 162zM16 0v14q79 42 99 78q22 39 22 148v434q0 115 -22 164q-20 45 -99 90v14q208 12 428 78l-4 -205h4q29 82 104 141.5t177 59.5q45 0 96 -23l-41 -329h-14q-127 167 -217 167
q-64 0 -98 -75v-516q0 -112 26 -148t131 -78v-14h-592z" />
    <glyph glyph-name="Sacute" unicode="&#x15a;" horiz-adv-x="1161" 
d="M514 1550h-20q21 179 30 328h318q-190 -199 -328 -328zM600 -27q-212 0 -481 121l-27 430h14q61 -134 130 -232t165 -173q103 -80 205 -80q93 0 153 59.5t60 161.5q0 111 -69 174q-72 69 -252 176t-250 170q-137 125 -137 305q0 190 131 297q133 109 329 109
q172 0 396 -76l41 -418h-15q-88 183 -202 306q-118 127 -238 127q-82 0 -137.5 -54t-55.5 -147q0 -94 64 -152q70 -63 244 -164q62 -35 100 -59q77 -48 84 -53q59 -41 80 -62l59 -61q48 -51 64.5 -106.5t25.5 -157.5q0 -92 -28.5 -168t-76 -125.5t-110.5 -83.5t-129.5 -49
t-136.5 -15z" />
    <glyph glyph-name="sacute" unicode="&#x15b;" horiz-adv-x="878" 
d="M358 1128h-20q24 225 29 328h319zM465 -27q-150 0 -369 74l-35 307l15 2q228 -331 391 -331q54 0 88.5 33t34.5 87q0 65 -55.5 117t-180.5 117q-13 7 -106 59q-31 19 -88 66q-103 82 -103 221t101 215t252 76q122 0 327 -60l29 -284l-16 -4q-83 121 -177 206
q-95 89 -176 89q-48 0 -78 -31t-30 -84q0 -74 69 -127q59 -41 158 -90l16 -8q154 -78 225.5 -156.5t71.5 -194.5q0 -137 -97.5 -218t-266.5 -81z" />
    <glyph glyph-name="Scircumflex" unicode="&#x15c;" horiz-adv-x="1161" 
d="M324 1522l-13 12l279 389h16q135 -199 279 -389l-13 -12l-274 161zM600 -27q-212 0 -481 121l-27 430h14q61 -134 130 -232t165 -173q103 -80 205 -80q93 0 153 59.5t60 161.5q0 111 -69 174q-72 69 -252 176t-250 170q-137 125 -137 305q0 190 131 297q133 109 329 109
q172 0 396 -76l41 -418h-15q-88 183 -202 306q-118 127 -238 127q-82 0 -137.5 -54t-55.5 -147q0 -94 64 -152q70 -63 244 -164q62 -35 100 -59q77 -48 84 -53q59 -41 80 -62l59 -61q48 -51 64.5 -106.5t25.5 -157.5q0 -92 -28.5 -168t-76 -125.5t-110.5 -83.5t-129.5 -49
t-136.5 -15z" />
    <glyph glyph-name="scircumflex" unicode="&#x15d;" horiz-adv-x="878" 
d="M178 1114l-12 10l115 160q95 134 145 199h16q164 -243 258 -359l-10 -10l-256 150zM465 -27q-150 0 -369 74l-35 307l15 2q228 -331 391 -331q54 0 88.5 33t34.5 87q0 65 -55.5 117t-180.5 117q-13 7 -106 59q-31 19 -88 66q-103 82 -103 221t101 215t252 76
q122 0 327 -60l29 -284l-16 -4q-83 121 -177 206q-95 89 -176 89q-48 0 -78 -31t-30 -84q0 -74 69 -127q59 -41 158 -90l16 -8q154 -78 225.5 -156.5t71.5 -194.5q0 -137 -97.5 -218t-266.5 -81z" />
    <glyph glyph-name="Scedilla" unicode="&#x15e;" horiz-adv-x="1161" 
d="M600 -27h-2l-12 -28q280 -24 280 -185q0 -189 -407 -186l10 39q219 15 219 113q0 50 -60 86t-147 36l70 127q-214 15 -432 119l-27 430h14q61 -134 130 -232t165 -173q103 -80 205 -80q93 0 153 59.5t60 161.5q0 111 -69 174q-72 69 -252 176t-250 170q-137 125 -137 305
q0 190 131 297q133 109 329 109q172 0 396 -76l41 -418h-15q-88 183 -202 306q-118 127 -238 127q-82 0 -137.5 -54t-55.5 -147q0 -94 64 -152q70 -63 244 -164q62 -35 100 -59q77 -48 84 -53q59 -41 80 -62l59 -61q48 -51 64.5 -106.5t25.5 -157.5q0 -92 -28.5 -168
t-76 -125.5t-110.5 -83.5t-129.5 -49t-136.5 -15z" />
    <glyph glyph-name="scedilla" unicode="&#x15f;" horiz-adv-x="878" 
d="M829 272q0 -137 -98 -217.5t-274 -81.5l-21 -34q250 -18 250 -164q0 -105 -116 -161.5t-330 -55.5l16 39q113 8 178.5 42.5t65.5 90.5q0 45 -52.5 78t-130.5 34l95 133q-123 9 -316 72l-35 307l15 2q228 -331 391 -331q54 0 88.5 33t34.5 87q0 65 -55.5 117t-180.5 117
q-13 7 -106 59q-31 19 -88 66q-103 82 -103 221t101 215t252 76q122 0 327 -60l29 -284l-16 -4q-83 121 -177 206q-95 89 -176 89q-48 0 -78 -31t-30 -84q0 -74 69 -127q59 -41 158 -90l16 -8q151 -74 224 -154t73 -197z" />
    <glyph glyph-name="Scaron" unicode="&#x160;" horiz-adv-x="1161" 
d="M322 1927l274 -160l274 160l13 -12q-143 -189 -279 -389h-16l-279 389zM600 -27q-212 0 -481 121l-27 430h14q61 -134 130 -232t165 -173q103 -80 205 -80q93 0 153 59.5t60 161.5q0 111 -69 174q-72 69 -252 176t-250 170q-137 125 -137 305q0 190 131 297
q133 109 329 109q172 0 396 -76l41 -418h-15q-88 183 -202 306q-118 127 -238 127q-82 0 -137.5 -54t-55.5 -147q0 -94 64 -152q70 -63 244 -164q62 -35 100 -59q77 -48 84 -53q59 -41 80 -62l59 -61q48 -51 64.5 -106.5t25.5 -157.5q0 -92 -28.5 -168t-76 -125.5
t-110.5 -83.5t-129.5 -49t-136.5 -15z" />
    <glyph glyph-name="scaron" unicode="&#x161;" horiz-adv-x="878" 
d="M168 1487l256 -150l256 150l10 -10q-94 -116 -258 -359h-16q-45 59 -146 197q-58 86 -114 162zM465 -27q-150 0 -369 74l-35 307l15 2q228 -331 391 -331q54 0 88.5 33t34.5 87q0 65 -55.5 117t-180.5 117q-13 7 -106 59q-31 19 -88 66q-103 82 -103 221t101 215t252 76
q122 0 327 -60l29 -284l-16 -4q-83 121 -177 206q-95 89 -176 89q-48 0 -78 -31t-30 -84q0 -74 69 -127q59 -41 158 -90l16 -8q154 -78 225.5 -156.5t71.5 -194.5q0 -137 -97.5 -218t-266.5 -81z" />
    <glyph glyph-name="uni0162" unicode="&#x162;" horiz-adv-x="1374" 
d="M1292 1464l37 -417h-14q-46 142 -156 249q-108 105 -268 105h-23v-1145q0 -118 25 -160q25 -35 131 -82v-14h-305l-21 -51q281 -24 281 -185q0 -189 -408 -186l11 39q219 15 219 113q0 50 -60 86.5t-147 36.5l82 147h-314v14q108 48 130 82q26 39 26 160v1145h-31
q-160 0 -268 -105q-106 -103 -156 -249h-14l37 417h1206z" />
    <glyph glyph-name="uni0163" unicode="&#x163;" horiz-adv-x="714" 
d="M393 -20h-20l-25 -41q250 -18 250 -164q0 -105 -116 -161.5t-330 -55.5l16 39q113 8 178.5 42.5t65.5 90.5q0 45 -52.5 78t-130.5 34l101 144q-97 19 -153 89.5t-56 188.5v662h-96v32q296 174 383 314h22v-283h252l-10 -63h-238l-6 -613q-1 -97 37.5 -142.5t103.5 -45.5
q73 0 138 68l10 -11q-120 -202 -324 -202z" />
    <glyph glyph-name="Tcaron" unicode="&#x164;" horiz-adv-x="1374" 
d="M707 1526h-17l-278 389l12 12l274 -160l275 160l12 -12q-133 -176 -278 -389zM1292 1464l37 -417h-14q-46 142 -156 249q-108 105 -268 105h-23v-1145q0 -118 25 -160q25 -35 131 -82v-14h-662v14q108 48 130 82q26 39 26 160v1145h-31q-160 0 -268 -105
q-106 -103 -156 -249h-14l37 417h1206z" />
    <glyph glyph-name="tcaron" unicode="&#x165;" horiz-adv-x="714" 
d="M530 1049h-14l33 436h266zM393 -20q-121 0 -196.5 74.5t-75.5 209.5v662h-96v32q296 174 383 314h22v-283h252l-10 -63h-238l-6 -613q-1 -97 37.5 -142.5t103.5 -45.5q73 0 138 68l10 -11q-120 -202 -324 -202z" />
    <glyph glyph-name="Tbar" unicode="&#x166;" horiz-adv-x="1374" 
d="M1292 1464l37 -417h-14q-46 142 -156 249q-108 105 -268 105h-23v-516h236v-60h-236v-569q0 -118 25 -160q25 -35 131 -82v-14h-662v14q108 48 130 82q26 39 26 160v569h-229v60h229v516h-31q-160 0 -268 -105q-106 -103 -156 -249h-14l37 417h1206z" />
    <glyph glyph-name="tbar" unicode="&#x167;" horiz-adv-x="714" 
d="M707 193l10 -11q-120 -202 -324 -202q-121 0 -196.5 74.5t-75.5 209.5v420h-90v59h90v183h-96v32q296 174 383 314h22v-283h252l-10 -63h-238l-2 -183h209v-59h-209l-4 -371q-3 -188 145 -188q69 0 134 68z" />
    <glyph glyph-name="Utilde" unicode="&#x168;" horiz-adv-x="1507" 
d="M1126 1812l23 -4q-26 -131 -85.5 -181t-180.5 -50q-17 0 -129 31q-127 37 -156 37q-47 0 -75.5 -12.5t-65.5 -47.5l-19 4q23 122 84 178t168 56q39 0 144 -31q118 -37 141 -37q61 0 84 10q22 8 67 47zM1493 1464v-14q-43 -21 -61.5 -30t-45 -28t-35.5 -28t-22.5 -36
t-16.5 -45t-9 -63t-7 -81.5t-4 -108.5v-557q0 -240 -134 -370t-386 -130q-87 0 -166.5 15t-157 53t-134 95.5t-91.5 150.5t-35 211v710q0 122 -26 158q-22 36 -129 84v14h659v-14q-106 -47 -131 -84q-24 -38 -24 -158v-716q0 -208 89.5 -319.5t245.5 -111.5q52 0 100 12
t94.5 42.5t80.5 76t55 118t21 163.5v557q-2 69 -3.5 108t-7 82t-8.5 62.5t-17.5 45.5t-22.5 35.5t-35 28.5t-44.5 28t-60.5 30v14h469z" />
    <glyph glyph-name="utilde" unicode="&#x169;" horiz-adv-x="1234" 
d="M440 1235q-59 0 -118 -59l-17 4q25 123 80 172t166 49q20 0 115 -33q110 -35 129 -35q52 0 74.5 10t60.5 48l20 -5q-38 -219 -213 -219q-54 0 -145 31q-112 37 -152 37zM1104 252q0 -98 20 -131q21 -31 99 -58v-14l-424 -78v209q-53 -78 -146 -143q-91 -64 -213 -64
q-117 0 -211 70q-92 71 -92 238v374q0 127 -22 176q-20 47 -99 95v14q215 15 435 80q0 -190 -2 -348q-3 -237 -3 -346q0 -95 42 -146t110 -51q102 0 193 107v419q0 129 -21 176q-22 49 -98 95v14q222 16 432 78v-766z" />
    <glyph glyph-name="Umacron" unicode="&#x16a;" horiz-adv-x="1507" 
d="M1102 1739v-154h-631v154h631zM1493 1464v-14q-43 -21 -61.5 -30t-45 -28t-35.5 -28t-22.5 -36t-16.5 -45t-9 -63t-7 -81.5t-4 -108.5v-557q0 -240 -134 -370t-386 -130q-87 0 -166.5 15t-157 53t-134 95.5t-91.5 150.5t-35 211v710q0 122 -26 158q-22 36 -129 84v14h659
v-14q-106 -47 -131 -84q-24 -38 -24 -158v-716q0 -208 89.5 -319.5t245.5 -111.5q52 0 100 12t94.5 42.5t80.5 76t55 118t21 163.5v557q-2 69 -3.5 108t-7 82t-8.5 62.5t-17.5 45.5t-22.5 35.5t-35 28.5t-44.5 28t-60.5 30v14h469z" />
    <glyph glyph-name="umacron" unicode="&#x16b;" horiz-adv-x="1234" 
d="M899 1337v-157h-549v157h549zM1104 252q0 -98 20 -131q21 -31 99 -58v-14l-424 -78v209q-53 -78 -146 -143q-91 -64 -213 -64q-117 0 -211 70q-92 71 -92 238v374q0 127 -22 176q-20 47 -99 95v14q215 15 435 80q0 -190 -2 -348q-3 -237 -3 -346q0 -95 42 -146t110 -51
q102 0 193 107v419q0 129 -21 176q-22 49 -98 95v14q222 16 432 78v-766z" />
    <glyph glyph-name="Ubreve" unicode="&#x16c;" horiz-adv-x="1507" 
d="M1032 1884h17q-30 -346 -265 -346q-234 0 -264 346h19q25 -82 96 -131t149 -49q79 0 151 49.5t97 130.5zM1493 1464v-14q-43 -21 -61.5 -30t-45 -28t-35.5 -28t-22.5 -36t-16.5 -45t-9 -63t-7 -81.5t-4 -108.5v-557q0 -240 -134 -370t-386 -130q-87 0 -166.5 15t-157 53
t-134 95.5t-91.5 150.5t-35 211v710q0 122 -26 158q-22 36 -129 84v14h659v-14q-106 -47 -131 -84q-24 -38 -24 -158v-716q0 -208 89.5 -319.5t245.5 -111.5q52 0 100 12t94.5 42.5t80.5 76t55 118t21 163.5v557q-2 69 -3.5 108t-7 82t-8.5 62.5t-17.5 45.5t-22.5 35.5
t-35 28.5t-44.5 28t-60.5 30v14h469z" />
    <glyph glyph-name="ubreve" unicode="&#x16d;" horiz-adv-x="1234" 
d="M354 1460h19q25 -82 96 -131t149 -49q79 0 151 49.5t97 130.5h17q-30 -346 -265 -346q-234 0 -264 346zM1104 252q0 -98 20 -131q21 -31 99 -58v-14l-424 -78v209q-53 -78 -146 -143q-91 -64 -213 -64q-117 0 -211 70q-92 71 -92 238v374q0 127 -22 176q-20 47 -99 95v14
q215 15 435 80q0 -190 -2 -348q-3 -237 -3 -346q0 -95 42 -146t110 -51q102 0 193 107v419q0 129 -21 176q-22 49 -98 95v14q222 16 432 78v-766z" />
    <glyph glyph-name="Uring" unicode="&#x16e;" horiz-adv-x="1507" 
d="M784 1925q79 0 134 -55.5t55 -136.5t-55.5 -138t-133.5 -57t-134 57t-56 138t55 136.5t135 55.5zM788 1595q50 0 82.5 39.5t32.5 94.5q0 60 -35 100.5t-86 40.5q-49 0 -82.5 -39t-33.5 -94q0 -56 36.5 -99t85.5 -43zM1493 1464v-14q-43 -21 -61.5 -30t-45 -28t-35.5 -28
t-22.5 -36t-16.5 -45t-9 -63t-7 -81.5t-4 -108.5v-557q0 -240 -134 -370t-386 -130q-87 0 -166.5 15t-157 53t-134 95.5t-91.5 150.5t-35 211v710q0 122 -26 158q-22 36 -129 84v14h659v-14q-106 -47 -131 -84q-24 -38 -24 -158v-716q0 -208 89.5 -319.5t245.5 -111.5
q52 0 100 12t94.5 42.5t80.5 76t55 118t21 163.5v557q-2 69 -3.5 108t-7 82t-8.5 62.5t-17.5 45.5t-22.5 35.5t-35 28.5t-44.5 28t-60.5 30v14h469z" />
    <glyph glyph-name="uring" unicode="&#x16f;" horiz-adv-x="1234" 
d="M428 1274q0 79 56 135.5t134 56.5t133.5 -56.5t55.5 -135.5q0 -81 -55.5 -138t-133.5 -57t-134 57t-56 138zM614 1411q-49 0 -81.5 -38.5t-32.5 -94.5t37 -98.5t88 -42.5q48 0 80 40.5t32 96.5q0 57 -36 97t-87 40zM1104 252q0 -98 20 -131q21 -31 99 -58v-14l-424 -78
v209q-53 -78 -146 -143q-91 -64 -213 -64q-117 0 -211 70q-92 71 -92 238v374q0 127 -22 176q-20 47 -99 95v14q215 15 435 80q0 -190 -2 -348q-3 -237 -3 -346q0 -95 42 -146t110 -51q102 0 193 107v419q0 129 -21 176q-22 49 -98 95v14q222 16 432 78v-766z" />
    <glyph glyph-name="Uhungarumlaut" unicode="&#x170;" horiz-adv-x="1507" 
d="M883 1550h-19q25 243 29 328h291q-138 -159 -301 -328zM508 1548h-19q25 252 27 328h293q-184 -211 -301 -328zM1493 1464v-14q-43 -21 -61.5 -30t-45 -28t-35.5 -28t-22.5 -36t-16.5 -45t-9 -63t-7 -81.5t-4 -108.5v-557q0 -240 -134 -370t-386 -130q-87 0 -166.5 15
t-157 53t-134 95.5t-91.5 150.5t-35 211v710q0 122 -26 158q-22 36 -129 84v14h659v-14q-106 -47 -131 -84q-24 -38 -24 -158v-716q0 -208 89.5 -319.5t245.5 -111.5q52 0 100 12t94.5 42.5t80.5 76t55 118t21 163.5v557q-2 69 -3.5 108t-7 82t-8.5 62.5t-17.5 45.5
t-22.5 35.5t-35 28.5t-44.5 28t-60.5 30v14h469z" />
    <glyph glyph-name="uhungarumlaut" unicode="&#x171;" horiz-adv-x="1234" 
d="M1018 1460q-129 -149 -301 -327h-19q25 244 29 327h291zM643 1458q-141 -163 -301 -328h-18q24 239 26 328h293zM1104 252q0 -98 20 -131q21 -31 99 -58v-14l-424 -78v209q-53 -78 -146 -143q-91 -64 -213 -64q-117 0 -211 70q-92 71 -92 238v374q0 127 -22 176
q-20 47 -99 95v14q215 15 435 80q0 -190 -2 -348q-3 -237 -3 -346q0 -95 42 -146t110 -51q102 0 193 107v419q0 129 -21 176q-22 49 -98 95v14q222 16 432 78v-766z" />
    <glyph glyph-name="Uogonek" unicode="&#x172;" horiz-adv-x="1507" 
d="M1493 1464v-14q-43 -21 -61.5 -30t-45 -28t-35.5 -28t-22.5 -36t-16.5 -45t-9 -63t-7 -81.5t-4 -108.5v-557q0 -334 -250 -448q-58 -38 -101.5 -97t-43.5 -110q0 -36 24.5 -58t63.5 -22q72 0 133 55l15 -10q-35 -66 -110 -109t-157 -43q-76 0 -124 36.5t-48 96.5
q0 118 205 220q-79 -11 -127 -11q-87 0 -166.5 15t-157 53t-134 95.5t-91.5 150.5t-35 211v710q0 122 -26 158q-22 36 -129 84v14h659v-14q-106 -47 -131 -84q-24 -38 -24 -158v-716q0 -208 89.5 -319.5t245.5 -111.5q52 0 100 12t94.5 42.5t80.5 76t55 118t21 163.5v557
q-2 69 -3.5 108t-7 82t-8.5 62.5t-17.5 45.5t-22.5 35.5t-35 28.5t-44.5 28t-60.5 30v14h469z" />
    <glyph glyph-name="uogonek" unicode="&#x173;" horiz-adv-x="1234" 
d="M848 -20q-103 -89 -103 -181q0 -40 24 -62t62 -22q76 0 136 60l14 -11q-35 -69 -110.5 -113t-157.5 -44q-75 0 -122.5 38t-47.5 99q0 137 256 254v182q-53 -78 -146 -143q-91 -64 -213 -64q-117 0 -211 70q-92 71 -92 238v374q0 127 -22 176q-20 47 -99 95v14
q215 15 435 80q0 -190 -2 -348q-3 -237 -3 -346q0 -95 42 -146t110 -51q102 0 193 107v419q0 129 -21 176q-22 49 -98 95v14q222 16 432 78v-766q0 -98 20 -131q21 -31 99 -58v-14z" />
    <glyph glyph-name="Wcircumflex" unicode="&#x174;" horiz-adv-x="2211" 
d="M1155 1683l-274 -161l-13 12l279 389h16q135 -199 279 -389l-12 -12zM1755 1464h453v-14q-135 -92 -185 -190q-33 -83 -45 -119l-407 -1143h-129l-342 920l-334 -920h-127l-473 1278q-22 61 -48.5 92t-109.5 82v14h662v-14q-80 -37 -113 -68.5t-33 -64.5q0 -12 13 -53
l303 -873l219 633l-94 252q-19 51 -54 96q-26 33 -108 78v14h663v-14q-75 -37 -106 -68.5t-31 -72.5q0 -37 33 -127l280 -791l250 748q33 95 33 139q0 50 -37 87.5t-133 84.5v14z" />
    <glyph glyph-name="wcircumflex" unicode="&#x175;" horiz-adv-x="1714" 
d="M897 1264l-256 -150l-12 10l114 160q84 118 146 199h16q164 -243 258 -359l-10 -10zM1374 989h344v-14q-73 -60 -109 -105.5t-67 -117.5l-323 -754h-99l-264 606l-262 -606h-96l-365 833q-37 82 -133 144v14h559v-14q-106 -52 -106 -113q0 -21 16 -67l207 -476l149 357
l-67 158q-35 84 -135 141v14h561v-14q-109 -50 -109 -115q0 -19 17 -65l206 -478l177 437q14 35 14 67q0 37 -25 70t-90 84v14z" />
    <glyph glyph-name="Ycircumflex" unicode="&#x176;" horiz-adv-x="1439" 
d="M772 1683l-274 -161l-13 12l279 389h16q135 -199 279 -389l-12 -12zM1022 1464h414v-14q-77 -48 -127.5 -106t-112.5 -160l-299 -504v-424q0 -118 25 -160q25 -35 131 -82v-14h-660v14q107 47 129 82q27 40 27 160v412l-379 612q-41 65 -66 91q-9 10 -20 20
q-48 41 -76 59v14h664v-14q-133 -77 -133 -129q0 -33 55 -121l274 -444l248 428q37 64 37 108q0 76 -131 158v14z" />
    <glyph glyph-name="ycircumflex" unicode="&#x177;" horiz-adv-x="1112" 
d="M588 1264l-256 -150l-13 10l115 160q84 118 146 199h16q164 -243 258 -359l-10 -10zM774 989h342v-14q-74 -55 -106 -98q-35 -48 -72 -134q-304 -704 -342 -778q-75 -152 -154 -241q-81 -90 -176 -156l-149 196l6 13l16 -2h23q274 0 356 168l29 57l-410 829
q-41 87 -137 146v14h592v-14q-105 -59 -105 -119q0 -22 23 -76l201 -426q120 266 172 410q12 30 12 57q0 77 -121 154v14z" />
    <glyph glyph-name="Ydieresis" unicode="&#x178;" horiz-adv-x="1439" 
d="M981 1550q-60 0 -101.5 42t-41.5 102q-2 43 24.5 78.5t64.5 51t81 9t71 -40.5q34 -28 40.5 -71.5t-9 -81.5t-51 -64.5t-78.5 -24.5zM555 1548q-57 0 -100 43.5t-43 100.5t43 99t100 42t100 -42t43 -99q0 -58 -42 -101t-101 -43zM1022 1464h414v-14q-77 -48 -127.5 -106
t-112.5 -160l-299 -504v-424q0 -118 25 -160q25 -35 131 -82v-14h-660v14q107 47 129 82q27 40 27 160v412l-379 612q-41 65 -66 91q-9 10 -20 20q-48 41 -76 59v14h664v-14q-133 -77 -133 -129q0 -33 55 -121l274 -444l248 428q37 64 37 108q0 76 -131 158v14z" />
    <glyph glyph-name="Zacute" unicode="&#x179;" horiz-adv-x="1255" 
d="M913 1878q-199 -208 -327 -328h-21q23 197 31 328h317zM1188 420h14l-49 -420h-1096v41l748 1360h-248q-163 0 -270 -107q-111 -108 -156 -247h-14l37 417h1036v-41l-746 -1357h342q126 0 230 104q106 103 172 250z" />
    <glyph glyph-name="zacute" unicode="&#x17a;" horiz-adv-x="976" 
d="M745 1456l-327 -328h-21q24 225 29 328h319zM926 989v-37l-533 -901h230q62 0 120 55q53 53 158 252h14l-32 -358h-832v33l539 903h-207q-56 0 -109 -53q-58 -58 -168 -242h-14l33 348h801z" />
    <glyph glyph-name="Zdotaccent" unicode="&#x17b;" horiz-adv-x="1255" 
d="M520 1698q0 57 43.5 99t100.5 42t100 -42t43 -99q0 -59 -42.5 -101.5t-100.5 -42.5t-101 42.5t-43 101.5zM1188 420h14l-49 -420h-1096v41l748 1360h-248q-163 0 -270 -107q-111 -108 -156 -247h-14l37 417h1036v-41l-746 -1357h342q126 0 230 104q106 103 172 250z" />
    <glyph glyph-name="zdotaccent" unicode="&#x17c;" horiz-adv-x="976" 
d="M330 1286q0 62 49.5 108t116.5 46t115 -46t48 -108q0 -66 -47.5 -112t-115.5 -46q-67 0 -116.5 47.5t-49.5 110.5zM926 989v-37l-533 -901h230q62 0 120 55q53 53 158 252h14l-32 -358h-832v33l539 903h-207q-56 0 -109 -53q-58 -58 -168 -242h-14l33 348h801z" />
    <glyph glyph-name="Zcaron" unicode="&#x17d;" horiz-adv-x="1255" 
d="M676 1526h-17l-278 389l12 12l275 -160l274 160l12 -12q-133 -176 -278 -389zM1188 420h14l-49 -420h-1096v41l748 1360h-248q-163 0 -270 -107q-111 -108 -156 -247h-14l37 417h1036v-41l-746 -1357h342q126 0 230 104q106 103 172 250z" />
    <glyph glyph-name="zcaron" unicode="&#x17e;" horiz-adv-x="976" 
d="M494 1118h-17q-27 35 -145 197q-45 65 -115 162l12 10l256 -150l256 150l11 -10q-94 -116 -258 -359zM926 989v-37l-533 -901h230q62 0 120 55q53 53 158 252h14l-32 -358h-832v33l539 903h-207q-56 0 -109 -53q-58 -58 -168 -242h-14l33 348h801z" />
    <glyph glyph-name="Aringacute" unicode="&#x1fa;" horiz-adv-x="1486" 
d="M997 2216l-327 -283h-21q23 183 31 283h317zM883 1593q-55 -55 -133.5 -55t-135.5 55q-56 57 -56 139t56 138q57 56 135.5 56t133.5 -56t55 -138t-55 -139zM748 1870q-49 0 -83 -39t-34 -94q0 -56 37 -99t86 -43q50 0 82 39.5t32 96.5t-34.5 98t-85.5 41zM1305 207
q22 -58 34 -80t41 -51q46 -36 90 -62v-14h-667v14q79 38 110 68.5t31 69.5q0 41 -33 131l-73 206h-463l-17 -47q-63 -180 -63 -245q0 -59 35.5 -99.5t124.5 -83.5v-14h-435v14q104 82 156 166q51 86 111 250l286 795l-73 143q186 69 307 154zM410 588h393l-197 555z" />
    <glyph glyph-name="aringacute" unicode="&#x1fb;" horiz-adv-x="1144" 
d="M512 1503h-20q23 209 28 328h320zM399 1274q0 79 56.5 135.5t134.5 56.5t133 -56t55 -136q0 -82 -55 -138.5t-133 -56.5t-134.5 57t-56.5 138zM596 1137q48 0 80.5 41t32.5 96q0 57 -36 97t-87 40q-49 0 -82 -38.5t-33 -94.5t37 -98.5t88 -42.5zM883 -20
q-102 0 -149 61.5t-42 155.5h-2q-47 -92 -143 -153.5t-215 -61.5q-124 0 -199.5 66t-75.5 171q0 148 158 251.5t479 186.5l4 162q2 64 -27.5 106t-88.5 42q-93 0 -148 -101q-55 -103 -72 -233l-10 -2l-217 131q60 112 184.5 183t298.5 71q114 0 194.5 -31.5t117.5 -89.5
q68 -99 65 -233l-10 -486q0 -67 49 -67q56 0 90 81l17 -8q-28 -89 -95 -145.5t-163 -56.5zM506 156q98 0 180 102l8 356q-311 -95 -311 -303q0 -73 33.5 -114t89.5 -41z" />
    <glyph glyph-name="AEacute" unicode="&#x1fc;" horiz-adv-x="2017" 
d="M1618 1878q-190 -199 -328 -328h-20q21 179 30 328h318zM1911 420h14l-49 -420h-1135v14q107 47 129 82q27 40 27 160v231h-473l-80 -137q-68 -118 -68 -170q0 -43 37.5 -82.5t122.5 -83.5v-14h-432v14q85 76 141 142q55 65 129 192l547 930q10 17 10 35q0 28 -30 56.5
t-109 80.5v14h1116l37 -417h-14q-45 139 -156 247q-107 107 -270 107h-158v-584h158q168 0 268 160h10v-399h-10q-41 78 -112.5 128.5t-155.5 49.5l-158 -4v-590q0 -43 57 -69.5t154 -26.5h51q126 0 230 104q106 103 172 250zM479 580h418v706h-4z" />
    <glyph glyph-name="aeacute" unicode="&#x1fd;" horiz-adv-x="1675" 
d="M805 1128h-21q24 225 29 328h320zM360 -20q-124 0 -213 57q-90 59 -90 180q0 151 159 253.5t480 186.5l2 172q1 62 -33 99t-90 37q-97 0 -149 -101q-52 -98 -64 -231l-12 -2l-213 133q49 99 166 174q122 78 287 78q188 0 291 -121q148 121 323 121q186 0 301 -115
q117 -114 117 -272v-25h-653q-4 -108 26.5 -194t87.5 -131q112 -89 240 -89q201 0 289 166l14 -6q-32 -168 -144.5 -269t-289.5 -101q-128 0 -236.5 52.5t-169.5 145.5q-53 -83 -172 -141q-117 -57 -254 -57zM971 655l364 2q-5 131 -55.5 216t-128.5 85q-74 0 -124 -84
t-56 -219zM549 117q135 0 207 106q-66 123 -66 273q0 62 6 120q-162 -58 -236.5 -133t-74.5 -186q0 -92 45.5 -136t118.5 -44z" />
    <glyph glyph-name="Oslashacute" unicode="&#x1fe;" horiz-adv-x="1599" 
d="M1049 1878q-190 -199 -328 -328h-21q23 197 31 328h318zM1272 1346q270 -206 270 -613q0 -349 -203 -555q-202 -205 -540 -205q-251 0 -428 115l-107 -149h-67l129 180q-269 207 -269 614q0 349 201 553q202 205 541 205q251 0 428 -113l98 138h68zM424 895
q0 -271 86 -518l555 774q-120 274 -315 274q-149 0 -238 -145q-88 -143 -88 -385zM848 39q148 0 237 143t89 391q0 276 -87 517l-552 -775q120 -276 313 -276z" />
    <glyph glyph-name="oslashacute" unicode="&#x1ff;" horiz-adv-x="1150" 
d="M827 1456l-327 -328h-21q24 225 29 328h319zM918 915q184 -135 184 -409q0 -239 -144 -383q-143 -143 -383 -143q-179 0 -301 73l-100 -135h-57l119 160q-187 135 -187 407q0 241 144 385q146 146 382 146q172 0 302 -74l86 115h59zM369 674q0 -172 47 -355l305 412
q-70 230 -191 230q-71 0 -116 -75t-45 -212zM621 33q72 0 116.5 74t44.5 212q0 174 -45 355l-307 -412q73 -229 191 -229z" />
    <glyph glyph-name="uni0218" unicode="&#x218;" horiz-adv-x="1161" 
d="M600 -27q-212 0 -481 121l-27 430h14q61 -134 130 -232t165 -173q103 -80 205 -80q93 0 153 59.5t60 161.5q0 111 -69 174q-72 69 -252 176t-250 170q-137 125 -137 305q0 190 131 297q133 109 329 109q172 0 396 -76l41 -418h-15q-88 183 -202 306q-118 127 -238 127
q-82 0 -137.5 -54t-55.5 -147q0 -94 64 -152q70 -63 244 -164q62 -35 100 -59q77 -48 84 -53q59 -41 80 -62l59 -61q48 -51 64.5 -106.5t25.5 -157.5q0 -92 -28.5 -168t-76 -125.5t-110.5 -83.5t-129.5 -49t-136.5 -15zM739 -209q0 -84 -69 -174q-67 -94 -201 -141l-8 16
q109 93 145 205h-18q-48 0 -85.5 21t-54 51t-9.5 66.5t40 64.5q33 26 78.5 31.5t85.5 -7.5t68 -48t28 -85z" />
    <glyph glyph-name="uni0219" unicode="&#x219;" horiz-adv-x="878" 
d="M465 -27q-150 0 -369 74l-35 307l15 2q228 -331 391 -331q54 0 88.5 33t34.5 87q0 65 -55.5 117t-180.5 117q-13 7 -106 59q-31 19 -88 66q-103 82 -103 221t101 215t252 76q122 0 327 -60l29 -284l-16 -4q-83 121 -177 206q-95 89 -176 89q-48 0 -78 -31t-30 -84
q0 -74 69 -127q59 -41 158 -90l16 -8q154 -78 225.5 -156.5t71.5 -194.5q0 -137 -97.5 -218t-266.5 -81zM602 -209q0 -83 -70 -174q-67 -94 -200 -141l-8 16q109 93 145 205h-18q-48 0 -85.5 21t-54 51t-9.5 66.5t40 64.5q33 26 78.5 31.5t85.5 -7.5t68 -48t28 -85z" />
    <glyph glyph-name="uni021A" unicode="&#x21a;" horiz-adv-x="1374" 
d="M1292 1464l37 -417h-14q-46 142 -156 249q-108 105 -268 105h-23v-1145q0 -118 25 -160q25 -35 131 -82v-14h-662v14q108 48 130 82q26 39 26 160v1145h-31q-160 0 -268 -105q-106 -103 -156 -249h-14l37 417h1206zM850 -203q0 -83 -70 -174q-67 -94 -200 -141l-9 16
q111 94 146 205h-19q-48 0 -85.5 21t-53.5 51t-9 66.5t40 64.5q33 26 78.5 31.5t85.5 -7.5t68 -48t28 -85z" />
    <glyph glyph-name="uni021B" unicode="&#x21b;" horiz-adv-x="714" 
d="M393 -20q-121 0 -196.5 74.5t-75.5 209.5v662h-96v32q296 174 383 314h22v-283h252l-10 -63h-238l-6 -613q-1 -97 37.5 -142.5t103.5 -45.5q73 0 138 68l10 -11q-120 -202 -324 -202zM514 -209q0 -83 -70 -174q-67 -94 -200 -141l-8 16q109 93 145 205h-19
q-48 0 -85.5 21t-53.5 51t-9 66.5t40 64.5q33 26 78.5 31.5t85.5 -7.5t68 -48t28 -85z" />
    <glyph glyph-name="uni0237" unicode="&#x237;" horiz-adv-x="571" 
d="M-45 -428l-6 16q103 56 144.5 138t41.5 235v694q0 170 -47 217q-20 19 -72 54v14q217 15 433 80v-877q0 -477 -494 -571z" />
    <glyph glyph-name="circumflex" unicode="&#x2c6;" horiz-adv-x="677" 
d="M84 1122l-10 11l114 159q84 118 146 199h16q160 -237 258 -358l-10 -11l-256 150z" />
    <glyph glyph-name="caron" unicode="&#x2c7;" horiz-adv-x="677" 
d="M84 1495l258 -149l256 149l10 -10q-94 -116 -258 -359h-16q-45 59 -146 197q-58 86 -114 162z" />
    <glyph glyph-name="breve" unicode="&#x2d8;" horiz-adv-x="673" 
d="M586 1468h18q-34 -346 -264 -346q-236 0 -266 346h18q25 -82 96 -131t152 -49q79 0 150 49t96 131z" />
    <glyph glyph-name="dotaccent" unicode="&#x2d9;" horiz-adv-x="473" 
d="M240 1139q-67 0 -116.5 46.5t-49.5 108.5q0 63 49.5 109.5t116.5 46.5q66 0 114.5 -46t48.5 -108q0 -63 -48.5 -110t-114.5 -47z" />
    <glyph glyph-name="ring" unicode="&#x2da;" horiz-adv-x="522" 
d="M266 1087q-80 0 -136 56.5t-56 138.5q0 80 56.5 136.5t135.5 56.5q78 0 133.5 -56.5t55.5 -136.5q0 -81 -55.5 -138t-133.5 -57zM272 1145q48 0 79.5 40t31.5 97t-35.5 97t-85.5 40t-83.5 -38t-33.5 -93q0 -59 37.5 -101t89.5 -42z" />
    <glyph glyph-name="ogonek" unicode="&#x2db;" horiz-adv-x="579" 
d="M244 -393q-74 0 -122 37t-48 98q0 84 97 160.5t263 136.5v-16q-50 -29 -108 -101q-50 -65 -50 -123q0 -40 24 -62t62 -22q72 0 138 60l12 -11q-35 -69 -110.5 -113t-157.5 -44z" />
    <glyph glyph-name="tilde" unicode="&#x2dc;" horiz-adv-x="788" 
d="M698 1403l21 -4q-38 -219 -215 -219q-52 0 -144 30q-112 37 -151 37q-54 0 -119 -59l-16 4q25 124 79.5 172.5t165.5 48.5q20 0 115 -33q106 -34 129 -34q53 0 75 9.5t60 47.5z" />
    <glyph glyph-name="hungarumlaut" unicode="&#x2dd;" horiz-adv-x="831" 
d="M465 1141h-19q25 249 27 327h293zM90 1139h-18q16 151 26 327h293q-161 -184 -301 -327z" />
    <glyph glyph-name="Wgrave" unicode="&#x1e80;" horiz-adv-x="2211" 
d="M1233 1550l-328 328h320q5 -122 28 -328h-20zM1755 1464h453v-14q-135 -92 -185 -190q-33 -83 -45 -119l-407 -1143h-129l-342 920l-334 -920h-127l-473 1278q-22 61 -48.5 92t-109.5 82v14h662v-14q-80 -37 -113 -68.5t-33 -64.5q0 -12 13 -53l303 -873l219 633l-94 252
q-19 51 -54 96q-26 33 -108 78v14h663v-14q-75 -37 -106 -68.5t-31 -72.5q0 -37 33 -127l280 -791l250 748q33 95 33 139q0 50 -37 87.5t-133 84.5v14z" />
    <glyph glyph-name="wgrave" unicode="&#x1e81;" horiz-adv-x="1714" 
d="M981 1128l-328 328h318q9 -143 30 -328h-20zM1374 989h344v-14q-73 -60 -109 -105.5t-67 -117.5l-323 -754h-99l-264 606l-262 -606h-96l-365 833q-37 82 -133 144v14h559v-14q-106 -52 -106 -113q0 -21 16 -67l207 -476l149 357l-67 158q-35 84 -135 141v14h561v-14
q-109 -50 -109 -115q0 -19 17 -65l206 -478l177 437q14 35 14 67q0 37 -25 70t-90 84v14z" />
    <glyph glyph-name="Wacute" unicode="&#x1e82;" horiz-adv-x="2211" 
d="M1399 1878q-190 -199 -328 -328h-20q21 179 30 328h318zM1755 1464h453v-14q-135 -92 -185 -190q-33 -83 -45 -119l-407 -1143h-129l-342 920l-334 -920h-127l-473 1278q-22 61 -48.5 92t-109.5 82v14h662v-14q-80 -37 -113 -68.5t-33 -64.5q0 -12 13 -53l303 -873
l219 633l-94 252q-19 51 -54 96q-26 33 -108 78v14h663v-14q-75 -37 -106 -68.5t-31 -72.5q0 -37 33 -127l280 -791l250 748q33 95 33 139q0 50 -37 87.5t-133 84.5v14z" />
    <glyph glyph-name="wacute" unicode="&#x1e83;" horiz-adv-x="1714" 
d="M1147 1456l-328 -328h-20q23 209 28 328h320zM1374 989h344v-14q-73 -60 -109 -105.5t-67 -117.5l-323 -754h-99l-264 606l-262 -606h-96l-365 833q-37 82 -133 144v14h559v-14q-106 -52 -106 -113q0 -21 16 -67l207 -476l149 357l-67 158q-35 84 -135 141v14h561v-14
q-109 -50 -109 -115q0 -19 17 -65l206 -478l177 437q14 35 14 67q0 37 -25 70t-90 84v14z" />
    <glyph glyph-name="Wdieresis" unicode="&#x1e84;" horiz-adv-x="2211" 
d="M1221 1694q0 57 43 99t100 42t99 -42t42 -99t-42 -100.5t-99 -43.5q-58 0 -100.5 42.5t-42.5 101.5zM1038 1591q-43 -43 -100 -43t-100 43t-43 100.5t43 98.5q43 43 100 43t100 -43q43 -41 43 -98.5t-43 -100.5zM1755 1464h453v-14q-135 -92 -185 -190q-33 -83 -45 -119
l-407 -1143h-129l-342 920l-334 -920h-127l-473 1278q-22 61 -48.5 92t-109.5 82v14h662v-14q-80 -37 -113 -68.5t-33 -64.5q0 -12 13 -53l303 -873l219 633l-94 252q-19 51 -54 96q-26 33 -108 78v14h663v-14q-75 -37 -106 -68.5t-31 -72.5q0 -37 33 -127l280 -791l250 748
q33 95 33 139q0 50 -37 87.5t-133 84.5v14z" />
    <glyph glyph-name="wdieresis" unicode="&#x1e85;" horiz-adv-x="1714" 
d="M711 1143q-57 0 -100.5 43t-43.5 100t43.5 100.5t100.5 43.5t101 -43.5t44 -100.5q0 -58 -43 -100.5t-102 -42.5zM1182 1186q-43 -43 -100.5 -43t-100.5 43t-43 100t43 100t100.5 43t100.5 -43t43 -100t-43 -100zM1374 989h344v-14q-73 -60 -109 -105.5t-67 -117.5
l-323 -754h-99l-264 606l-262 -606h-96l-365 833q-37 82 -133 144v14h559v-14q-106 -52 -106 -113q0 -21 16 -67l207 -476l149 357l-67 158q-35 84 -135 141v14h561v-14q-109 -50 -109 -115q0 -19 17 -65l206 -478l177 437q14 35 14 67q0 37 -25 70t-90 84v14z" />
    <glyph glyph-name="uni1E8A" unicode="&#x1e8a;" horiz-adv-x="1503" 
d="M672 1698q0 57 43 99t100 42t100 -42t43 -99q0 -59 -42.5 -101.5t-100.5 -42.5t-100.5 42.5t-42.5 101.5zM1286 211q46 -75 87 -116t114 -81v-14h-701v14q123 71 123 131q0 31 -26 76l-240 387l-231 -315q-62 -83 -62 -137q0 -71 121 -142v-14h-451v14q104 61 156 109
q64 58 154 174l278 369l-372 587l-52 76q-15 22 -57 57q-50 43 -94 64v14h704v-14q-129 -68 -129 -125q0 -28 31 -82l217 -350l213 291q51 66 51 123q0 67 -116 143v14h444v-14q-155 -82 -297 -270l-260 -342z" />
    <glyph glyph-name="uni1E8B" unicode="&#x1e8b;" horiz-adv-x="1130" 
d="M408 1286q0 62 49 108t116 46t115.5 -46t48.5 -108q0 -66 -48 -112t-116 -46q-67 0 -116 47.5t-49 110.5zM993 139q45 -59 129 -125v-14h-587v14q112 40 112 84q0 20 -20 49l-164 252l-148 -194q-30 -41 -30 -80q0 -71 102 -111v-14h-375v14q132 71 230 195l188 237
l-276 404q-60 90 -134 125v14h588v-14q-108 -37 -108 -84q0 -30 43 -94l127 -193l131 178q35 50 35 78q0 51 -101 115v14h361v-14q-76 -40 -126.5 -85.5t-109.5 -123.5l-158 -209z" />
    <glyph glyph-name="Ygrave" unicode="&#x1ef2;" horiz-adv-x="1439" 
d="M852 1550l-328 328h320q5 -122 28 -328h-20zM1022 1464h414v-14q-77 -48 -127.5 -106t-112.5 -160l-299 -504v-424q0 -118 25 -160q25 -35 131 -82v-14h-660v14q107 47 129 82q27 40 27 160v412l-379 612q-41 65 -66 91q-9 10 -20 20q-48 41 -76 59v14h664v-14
q-133 -77 -133 -129q0 -33 55 -121l274 -444l248 428q37 64 37 108q0 76 -131 158v14z" />
    <glyph glyph-name="ygrave" unicode="&#x1ef3;" horiz-adv-x="1112" 
d="M672 1128l-328 328h318q9 -143 30 -328h-20zM774 989h342v-14q-74 -55 -106 -98q-35 -48 -72 -134q-304 -704 -342 -778q-75 -152 -154 -241q-81 -90 -176 -156l-149 196l6 13l16 -2h23q274 0 356 168l29 57l-410 829q-41 87 -137 146v14h592v-14q-105 -59 -105 -119
q0 -22 23 -76l201 -426q120 266 172 410q12 30 12 57q0 77 -121 154v14z" />
    <glyph glyph-name="endash" unicode="&#x2013;" horiz-adv-x="983" 
d="M913 571v-69h-839v69h839z" />
    <glyph glyph-name="emdash" unicode="&#x2014;" horiz-adv-x="1822" 
d="M1753 571v-69h-1679v69h1679z" />
    <glyph glyph-name="quoteleft" unicode="&#x2018;" horiz-adv-x="407" 
d="M207 1208q63 0 107 -42t44 -105q0 -61 -43.5 -104.5t-105.5 -43.5q-65 0 -110.5 49.5t-45.5 131.5q0 101 70 217q71 117 203 176l8 -17q-106 -114 -141 -262h14z" />
    <glyph glyph-name="quoteright" unicode="&#x2019;" horiz-adv-x="407" 
d="M203 1489q65 0 110 -49t45 -131q0 -101 -71 -219q-72 -120 -201 -177l-8 17q106 124 141 264h-14q-63 0 -107.5 42t-44.5 103q0 63 44 106.5t106 43.5z" />
    <glyph glyph-name="quotesinglbase" unicode="&#x201a;" horiz-adv-x="524" 
d="M262 311q70 0 117 -52.5t47 -143.5q0 -113 -76 -238q-75 -128 -215 -192l-8 16q122 143 156 295h-19q-68 0 -115 45t-47 111t47 112.5t113 46.5z" />
    <glyph glyph-name="quotedblleft" unicode="&#x201c;" horiz-adv-x="786" 
d="M207 1208q63 0 107 -42t44 -105q0 -61 -43.5 -104.5t-105.5 -43.5q-65 0 -110.5 49.5t-45.5 131.5q0 101 70 217q71 117 203 176l8 -17q-106 -114 -141 -262h14zM586 1208q66 0 108.5 -42t42.5 -105q0 -61 -43.5 -104.5t-105.5 -43.5q-68 0 -111 50t-43 129q0 103 70 219
q71 119 201 176l8 -17q-107 -122 -142 -262h15z" />
    <glyph glyph-name="quotedblright" unicode="&#x201d;" horiz-adv-x="786" 
d="M203 1489q65 0 110 -49t45 -131q0 -101 -71 -219q-72 -120 -201 -177l-8 17q106 124 141 264h-14q-63 0 -107.5 42t-44.5 103q0 63 44 106.5t106 43.5zM582 1489q65 0 110 -49t45 -131q0 -104 -69 -219q-72 -120 -201 -177l-10 17q106 118 141 264h-14q-63 0 -106.5 42
t-43.5 103q0 62 43.5 106t104.5 44z" />
    <glyph glyph-name="quotedblbase" unicode="&#x201e;" horiz-adv-x="923" 
d="M262 311q70 0 117 -52.5t47 -143.5q0 -113 -76 -238q-75 -128 -215 -192l-8 16q122 143 156 295h-19q-68 0 -115 45t-47 111t47 112.5t113 46.5zM659 311q70 0 118 -52.5t48 -143.5q0 -114 -75 -238q-75 -128 -215 -192l-11 16q123 138 158 295h-18q-69 0 -115.5 45
t-46.5 111t45.5 112.5t111.5 46.5z" />
    <glyph glyph-name="dagger" unicode="&#x2020;" horiz-adv-x="790" 
d="M664 1204v-43h-246v-575h-41v575h-246v43h246v260h41v-260h246z" />
    <glyph glyph-name="daggerdbl" unicode="&#x2021;" horiz-adv-x="790" 
d="M664 1161h-246v-237h246v-43h-246v-295h-41v295h-246v43h246v237h-246v43h246v260h41v-260h246v-43z" />
    <glyph glyph-name="bullet" unicode="&#x2022;" horiz-adv-x="819" 
d="M412 260q-131 0 -232 96q-98 98 -98 232q0 133 98 231q99 99 232 99q136 0 231 -99q98 -98 98 -231q0 -134 -98 -232q-96 -96 -231 -96z" />
    <glyph glyph-name="ellipsis" unicode="&#x2026;" horiz-adv-x="1474" 
d="M268 -16q-67 0 -116.5 48.5t-49.5 114.5q0 67 49 116.5t117 49.5q66 0 115 -49.5t49 -116.5q0 -66 -49 -114.5t-115 -48.5zM741 -16q-69 0 -117.5 48.5t-48.5 114.5q0 69 48 117.5t116 48.5q67 0 116.5 -49.5t49.5 -116.5q0 -66 -49 -114.5t-115 -48.5zM1047 147
q0 68 48 117t115 49q68 0 117 -49.5t49 -116.5q0 -66 -49.5 -114.5t-116.5 -48.5t-115 48.5t-48 114.5z" />
    <glyph glyph-name="perthousand" unicode="&#x2030;" horiz-adv-x="2818" 
d="M477 -31l-47 29l997 1503l46 -33zM457 532q-181 0 -293 130q-111 129 -111 327q0 202 113 336q114 135 299 135q177 0 289 -127q112 -124 112 -329q0 -202 -110 -336q-112 -136 -299 -136zM492 575q70 0 112.5 81t42.5 231q0 275 -94 436q-52 94 -123 94
q-70 0 -114 -80.5t-44 -228.5q0 -184 58 -358q58 -175 162 -175zM1456 918q178 0 291 -125t113 -328q0 -201 -113 -338q-114 -135 -299 -135q-178 0 -293 127q-111 126 -111 330q0 199 113 333q115 136 299 136zM2365 918q178 0 291 -125t113 -328q0 -201 -113 -338
q-114 -135 -299 -135q-176 0 -291 127q-110 125 -110 330q0 202 110 333q115 136 299 136zM1421 877q-70 0 -113.5 -81t-43.5 -229q0 -269 92 -438q52 -94 125 -94q70 0 114.5 81t44.5 228q0 273 -94 436q-54 97 -125 97zM2331 877q-70 0 -113 -81.5t-43 -230.5
q0 -187 55 -358q58 -172 162 -172q70 0 114 80.5t44 228.5q0 182 -58 356q-59 177 -161 177z" />
    <glyph glyph-name="guilsinglleft" unicode="&#x2039;" horiz-adv-x="724" 
d="M647 958q-117 -230 -266 -440q149 -210 266 -440h-57q-232 218 -508 430v20q276 212 508 430h57z" />
    <glyph glyph-name="guilsinglright" unicode="&#x203a;" horiz-adv-x="724" 
d="M82 958h57q239 -225 508 -430v-20q-269 -205 -508 -430h-57q113 228 266 440q-153 212 -266 440z" />
    <glyph glyph-name="fraction" unicode="&#x2044;" horiz-adv-x="389" 
d="M-297 0l1008 1464h61l-1008 -1464h-61z" />
    <glyph glyph-name="Euro" unicode="&#x20ac;" horiz-adv-x="1495" 
d="M922 37q96 0 217 127q118 123 219 291h14l-37 -416q-233 -66 -434 -66q-265 0 -450 164q-184 166 -205 512h-189v58h187v6q0 83 12 159h-199v58h209q52 253 230 393q176 141 413 141q166 0 426 -65l37 -408h-14q-108 171 -223 289q-119 125 -220 125t-181 -125t-105 -350
h549l-11 -58h-542q-7 -82 -7 -151v-14h494l-10 -58h-481q9 -293 100 -454q90 -158 201 -158z" />
    <glyph glyph-name="trademark" unicode="&#x2122;" horiz-adv-x="1687" 
d="M678 1464l18 -221h-8q-29 79 -84.5 133t-124.5 54h-10v-570q0 -57 11.5 -76.5t60.5 -44.5v-6h-336v6q49 24 61.5 45t12.5 76v570h-13q-69 0 -124 -53t-87 -134h-6l19 221h610zM1642 1456q-50 -24 -60.5 -42.5t-10.5 -74.5v-479q0 -56 11 -75.5t60 -43.5v-8h-333v8
q48 24 59.5 44t11.5 75v447h-2q-194 -386 -235 -480h-25q-111 223 -258 476v-345q0 -109 14 -147q15 -37 84 -72v-6h-233v6q72 38 86 74q14 38 14 145v400q-34 58 -98 98v8h266q166 -302 213 -403l211 403h225v-8z" />
    <glyph glyph-name="oneeighth" unicode="&#x215b;" horiz-adv-x="1656" 
d="M63 612v11q55 25 72 49q17 27 17 92v489q0 44 -21.5 67t-89.5 56v6l319 115v-733q0 -66 15 -90t74 -51v-11h-386zM225 0l1008 1464h61l-1007 -1464h-62zM1268 -16q-132 0 -218.5 63.5t-86.5 167.5q0 79 51.5 134t136.5 79q-156 82 -156 223q0 104 79.5 166t203.5 62
q116 0 193 -55t77 -134q0 -63 -53.5 -111t-122.5 -67q41 -21 66 -39q34 -24 63 -49q82 -68 82 -184q0 -118 -89 -187t-226 -69zM1348 526q69 69 69 168q0 66 -38 107t-95 41q-54 0 -85.5 -33t-31.5 -90t41.5 -98.5t139.5 -94.5zM1268 23q63 0 101 37t38 98q0 67 -54 124.5
t-179 127.5q-72 -72 -72 -189q0 -90 45.5 -144t120.5 -54z" />
    <glyph glyph-name="threeeighths" unicode="&#x215c;" horiz-adv-x="1767" 
d="M43 1294q57 93 140.5 145t176.5 52q90 0 147.5 -47t57.5 -119q0 -75 -62.5 -131.5t-164.5 -87.5v-2q27 6 55 6q97 0 163.5 -63t66.5 -170q0 -128 -95 -205q-95 -74 -229 -74q-119 0 -264 53l80 203l10 -2q32 -95 79 -155t103 -60q55 0 92 58t37 145q0 92 -43 147t-117 55
q-46 0 -104 -24l-8 26q225 108 225 230q0 53 -33.5 81.5t-89.5 28.5q-120 0 -209 -102zM338 0l1008 1464h61l-1008 -1464h-61zM1380 -16q-132 0 -218.5 63.5t-86.5 167.5q0 79 51.5 134t137.5 79q-156 82 -156 223q0 104 79.5 166t203.5 62q116 0 193 -55t77 -134
q0 -63 -53.5 -111t-122.5 -67q37 -19 65 -39q40 -29 64 -49q82 -68 82 -184q0 -118 -89 -187t-227 -69zM1460 526q70 70 70 168q0 66 -38 107t-95 41q-54 0 -85.5 -33t-31.5 -90t41 -98.5t139 -94.5zM1380 23q63 0 101.5 37t38.5 98q0 67 -54 124.5t-180 127.5
q-72 -72 -72 -189q0 -90 45.5 -144t120.5 -54z" />
    <glyph glyph-name="fiveeighths" unicode="&#x215d;" horiz-adv-x="1787" 
d="M313 1149q138 0 223 -72.5t85 -197.5q0 -140 -103 -211q-101 -70 -223 -70q-116 0 -262 51l63 242h10q33 -112 82.5 -186t102.5 -74q55 0 95 59.5t40 149.5q0 105 -50.5 158t-133.5 53q-92 0 -172 -47l120 473h289q62 0 90 12t66 51l8 -2l-84 -231h-371l-45 -185
q65 27 170 27zM358 0l1008 1464h61l-1007 -1464h-62zM1401 -16q-132 0 -218.5 63.5t-86.5 167.5q0 79 51.5 134t136.5 79q-156 82 -156 223q0 104 79.5 166t203.5 62q116 0 193 -55t77 -134q0 -63 -53.5 -111t-122.5 -67q41 -21 66 -39q34 -24 63 -49q82 -68 82 -184
q0 -118 -89 -187t-226 -69zM1481 526q69 69 69 168q0 66 -38 107t-95 41q-54 0 -85.5 -33t-31.5 -90t41.5 -98.5t139.5 -94.5zM1401 23q63 0 101 37t38 98q0 67 -54 124.5t-179 127.5q-72 -72 -72 -189q0 -90 45.5 -144t120.5 -54z" />
    <glyph glyph-name="seveneighths" unicode="&#x215e;" horiz-adv-x="1636" 
d="M133 612q65 344 344 676h-289q-65 0 -95.5 -16.5t-69.5 -71.5l-11 2l76 275h547v-31q-127 -140 -209 -324q-34 -88 -53 -170q-30 -127 -35 -164l-25 -176h-180zM205 0l1007 1464h62l-1008 -1464h-61zM1247 -16q-132 0 -218.5 63.5t-86.5 167.5q0 79 51.5 134t136.5 79
q-155 82 -155 223q0 104 79 166t203 62q116 0 193.5 -55t77.5 -134q0 -63 -53.5 -111t-122.5 -67q37 -19 65 -39q40 -29 64 -49q82 -68 82 -184q0 -118 -89 -187t-227 -69zM1327 526q70 70 70 168q0 66 -38 107t-95 41q-54 0 -85.5 -33t-31.5 -90t41 -98.5t139 -94.5z
M1247 23q63 0 101 37t38 98q0 67 -54 124.5t-179 127.5q-72 -72 -72 -189q0 -90 45.5 -144t120.5 -54z" />
    <glyph glyph-name="arrowleft" unicode="&#x2190;" horiz-adv-x="1171" 
d="M1114 573v-71h-874q120 -53 252 -152q128 -96 186 -184l-227 -94q-114 280 -390 467q275 187 390 465l227 -95q-63 -93 -189 -188q-128 -96 -253 -148h878zM133 539q4 0 6 -2v4q-2 -2 -6 -2z" />
    <glyph glyph-name="arrowup" unicode="&#x2191;" horiz-adv-x="1048" 
d="M526 1063q195 -281 467 -389l-94 -228q-95 60 -188 185t-150 256v-879h-69v879q-54 -125 -152 -256q-95 -127 -186 -185l-93 228q269 106 465 389zM524 983h4q-2 2 -2 6q0 -4 -2 -6z" />
    <glyph glyph-name="arrowright" unicode="&#x2192;" horiz-adv-x="1171" 
d="M727 1004q109 -275 387 -465q-276 -190 -387 -467l-227 94q60 91 184 184q132 99 252 152h-875v71h879q-122 51 -254 150q-125 94 -186 186zM1036 537h2q2 2 4 2q-4 0 -6 2v-4z" />
    <glyph glyph-name="arrowdown" unicode="&#x2193;" horiz-adv-x="1048" 
d="M899 625l94 -228q-272 -108 -467 -389q-196 283 -465 389l93 228q88 -56 186 -187q97 -130 152 -254v879h69v-879q58 131 150 254q96 128 188 187z" />
    <glyph glyph-name="uni2196" unicode="&#x2196;" horiz-adv-x="942" 
d="M885 199l-49 -52l-619 619q82 -207 82 -422q0 -70 -12 -125l-226 96q76 174 76 375q0 93 -22 228q141 -23 227 -23q192 0 377 78l96 -228q-65 -10 -119 -10q-227 0 -434 86z" />
    <glyph glyph-name="uni2197" unicode="&#x2197;" horiz-adv-x="944" 
d="M831 922q-22 -135 -22 -230q0 -201 76 -375l-226 -96q-10 52 -10 121q0 232 82 430l-620 -620l-50 49l621 620q-198 -82 -430 -82q-64 0 -121 11l96 225q174 -76 375 -76q88 0 229 23z" />
    <glyph glyph-name="uni2198" unicode="&#x2198;" horiz-adv-x="942" 
d="M885 762q-76 -174 -76 -377q0 -92 22 -227q-135 22 -227 22q-192 0 -377 -78l-96 228q65 10 119 10q219 0 434 -84l-623 623l50 49l620 -621q-82 201 -82 430q0 67 10 119z" />
    <glyph glyph-name="uni2199" unicode="&#x2199;" horiz-adv-x="942" 
d="M262 264q212 84 434 84q54 0 119 -10l-96 -227q-183 77 -377 77q-92 0 -227 -22q22 135 22 227q0 203 -76 377l226 94q12 -56 12 -123q0 -214 -84 -426l621 621l49 -51z" />
    <glyph glyph-name="minus" unicode="&#x2212;" horiz-adv-x="788" 
d="M760 723v-64h-727v64h727z" />
    <glyph glyph-name="uni00A40301" horiz-adv-x="712" 
d="M276 1550h-20q23 197 31 328h317q-190 -199 -328 -328zM35 -268l-6 20q159 94 159 283v1173q0 122 -26 158q-22 36 -129 84v14h659v-14q-106 -47 -131 -84q-24 -38 -24 -158v-956q0 -287 -232 -420q-65 -39 -124.5 -60t-145.5 -40z" />
    <glyph glyph-name="R.ss01" horiz-adv-x="1497" 
d="M1300 211q64 -98 181 -197v-14h-447q-223 361 -403 700l-94 -4v-440q0 -120 24 -160q25 -35 131 -82v-14h-659v14q107 47 129 82q26 39 26 160v952q0 122 -26 158q-22 36 -129 84v14h684q267 0 418 -98q153 -99 153 -262q0 -166 -143 -273q-144 -108 -350 -108h-78v-6
q95 -62 237 -62q36 0 80 7q128 -235 266 -451zM537 1401v-639h137q120 0 194 91t74 243q0 305 -299 305h-106z" />
    <glyph glyph-name="i.loclTRK" horiz-adv-x="583" 
d="M104 1294q0 62 49.5 108t116.5 46t115.5 -46t48.5 -108q0 -66 -48 -111.5t-116 -45.5q-67 0 -116.5 47t-49.5 110zM16 0v14q79 42 99 78q22 39 22 148v415q0 170 -47 217q-21 21 -74 54v14q219 15 435 80v-780q0 -112 20 -148t100 -78v-14h-555z" />
    <glyph glyph-name="uni006A0301" horiz-adv-x="571" 
d="M197 1137h-21q25 226 29 327h319zM-45 -428l-6 16q103 56 144.5 138t41.5 235v694q0 170 -47 217q-20 19 -72 54v14q217 15 433 80v-877q0 -477 -494 -571z" />
    <glyph glyph-name="germandbls.calt" horiz-adv-x="1529" 
d="M995 -27q-170 0 -374 72l79 375h15q64 -170 133 -273q76 -114 153 -114q73 0 130 78.5t57 197.5q0 81 -27 148.5t-70 112.5t-101.5 79.5t-116 53t-119.5 28.5l-62 96l357 496q-108 102 -258 102q-116 0 -185 -71t-69 -195v-1159h-504v14q107 47 129 82q26 39 26 160v668
q0 275 142 421t426 146q164 0 299.5 -47.5t214.5 -120.5v-20l-301 -379q71 -14 137.5 -40t132 -69.5t113.5 -99.5t78 -135.5t30 -171.5q0 -200 -127 -318q-126 -117 -338 -117z" />
    <glyph glyph-name="a.ss01" horiz-adv-x="1200" 
d="M444 -20q-158 0 -278 129q-117 132 -117 372q0 239 121 387t313 148q68 0 132 -22t104 -54q104 -74 139 -74q67 0 178 150h31v-805q0 -64 22.5 -90t98.5 -58v-14l-426 -72l-2 183h-2q-46 -78 -130.5 -129t-183.5 -51zM754 217v438q-34 129 -91 209t-128 80
q-160 0 -160 -391q0 -212 51.5 -334.5t144.5 -122.5q94 0 183 121z" />
    <glyph glyph-name="aacute.ss01" horiz-adv-x="1200" 
d="M545 1128h-21q24 225 29 328h319zM444 -20q-158 0 -278 129q-117 132 -117 372q0 239 121 387t313 148q68 0 132 -22t104 -54q104 -74 139 -74q67 0 178 150h31v-805q0 -64 22.5 -90t98.5 -58v-14l-426 -72l-2 183h-2q-46 -78 -130.5 -129t-183.5 -51zM754 217v438
q-34 129 -91 209t-128 80q-160 0 -160 -391q0 -212 51.5 -334.5t144.5 -122.5q94 0 183 121z" />
    <glyph glyph-name="abreve.ss01" horiz-adv-x="1200" 
d="M868 1460h17q-30 -346 -264 -346q-235 0 -265 346h19q25 -82 96 -131t150 -49t150.5 49t96.5 131zM444 -20q-158 0 -278 129q-117 132 -117 372q0 239 121 387t313 148q68 0 132 -22t104 -54q104 -74 139 -74q67 0 178 150h31v-805q0 -64 22.5 -90t98.5 -58v-14l-426 -72
l-2 183h-2q-46 -78 -130.5 -129t-183.5 -51zM754 217v438q-34 129 -91 209t-128 80q-160 0 -160 -391q0 -212 51.5 -334.5t144.5 -122.5q94 0 183 121z" />
    <glyph glyph-name="acircumflex.ss01" horiz-adv-x="1200" 
d="M367 1114l-13 10l115 160q95 134 145 199h17q164 -243 258 -359l-10 -10l-256 150zM444 -20q-158 0 -278 129q-117 132 -117 372q0 239 121 387t313 148q68 0 132 -22t104 -54q104 -74 139 -74q67 0 178 150h31v-805q0 -64 22.5 -90t98.5 -58v-14l-426 -72l-2 183h-2
q-46 -78 -130.5 -129t-183.5 -51zM754 217v438q-34 129 -91 209t-128 80q-160 0 -160 -391q0 -212 51.5 -334.5t144.5 -122.5q94 0 183 121z" />
    <glyph glyph-name="adieresis.ss01" horiz-adv-x="1200" 
d="M436 1143q-57 0 -100 43t-43 100t43 100.5t100 43.5t101.5 -43.5t44.5 -100.5t-43 -100t-103 -43zM907 1186q-43 -43 -100 -43t-100 43t-43 100t43 100t100 43t100 -43t43 -100t-43 -100zM444 -20q-158 0 -278 129q-117 132 -117 372q0 239 121 387t313 148q68 0 132 -22
t104 -54q104 -74 139 -74q67 0 178 150h31v-805q0 -64 22.5 -90t98.5 -58v-14l-426 -72l-2 183h-2q-46 -78 -130.5 -129t-183.5 -51zM754 217v438q-34 129 -91 209t-128 80q-160 0 -160 -391q0 -212 51.5 -334.5t144.5 -122.5q94 0 183 121z" />
    <glyph glyph-name="agrave.ss01" horiz-adv-x="1200" 
d="M709 1128l-328 328h317q8 -123 31 -328h-20zM444 -20q-158 0 -278 129q-117 132 -117 372q0 239 121 387t313 148q68 0 132 -22t104 -54q104 -74 139 -74q67 0 178 150h31v-805q0 -64 22.5 -90t98.5 -58v-14l-426 -72l-2 183h-2q-46 -78 -130.5 -129t-183.5 -51zM754 217
v438q-34 129 -91 209t-128 80q-160 0 -160 -391q0 -212 51.5 -334.5t144.5 -122.5q94 0 183 121z" />
    <glyph glyph-name="amacron.ss01" horiz-adv-x="1200" 
d="M903 1337v-157h-549v157h549zM444 -20q-158 0 -278 129q-117 132 -117 372q0 239 121 387t313 148q68 0 132 -22t104 -54q104 -74 139 -74q67 0 178 150h31v-805q0 -64 22.5 -90t98.5 -58v-14l-426 -72l-2 183h-2q-46 -78 -130.5 -129t-183.5 -51zM754 217v438
q-34 129 -91 209t-128 80q-160 0 -160 -391q0 -212 51.5 -334.5t144.5 -122.5q94 0 183 121z" />
    <glyph glyph-name="aogonek.ss01" horiz-adv-x="1200" 
d="M1016 20q-58 -40 -101 -101.5t-43 -113.5q0 -40 24 -62t62 -22q76 0 136 60l14 -10q-35 -69 -110.5 -113.5t-157.5 -44.5q-75 0 -122.5 37.5t-47.5 97.5q0 138 262 258l-170 -29l-2 183h-2q-46 -78 -130.5 -129t-183.5 -51q-158 0 -278 129q-117 132 -117 372
q0 239 121 387t313 148q68 0 132 -22t104 -54q104 -74 139 -74q67 0 178 150h31v-805q0 -64 22.5 -90t98.5 -58v-14zM754 217v438q-34 129 -91 209t-128 80q-160 0 -160 -391q0 -212 51.5 -334.5t144.5 -122.5q94 0 183 121z" />
    <glyph glyph-name="aring.ss01" horiz-adv-x="1200" 
d="M432 1274q0 79 56.5 135.5t134.5 56.5t133 -56t55 -136q0 -82 -55 -138.5t-133 -56.5t-134.5 57t-56.5 138zM629 1137q48 0 80 40.5t32 96.5q0 57 -36 97t-87 40q-49 0 -81.5 -38.5t-32.5 -94.5t37 -98.5t88 -42.5zM444 -20q-158 0 -278 129q-117 132 -117 372
q0 239 121 387t313 148q68 0 132 -22t104 -54q104 -74 139 -74q67 0 178 150h31v-805q0 -64 22.5 -90t98.5 -58v-14l-426 -72l-2 183h-2q-46 -78 -130.5 -129t-183.5 -51zM754 217v438q-34 129 -91 209t-128 80q-160 0 -160 -391q0 -212 51.5 -334.5t144.5 -122.5
q94 0 183 121z" />
    <glyph glyph-name="aringacute.ss01" horiz-adv-x="1200" 
d="M545 1503h-21q24 225 29 328h319zM432 1274q0 79 56.5 135.5t134.5 56.5t133 -56t55 -136q0 -82 -55 -138.5t-133 -56.5t-134.5 57t-56.5 138zM629 1137q48 0 80 40.5t32 96.5q0 57 -36 97t-87 40q-49 0 -81.5 -38.5t-32.5 -94.5t37 -98.5t88 -42.5zM444 -20
q-158 0 -278 129q-117 132 -117 372q0 239 121 387t313 148q68 0 132 -22t104 -54q104 -74 139 -74q67 0 178 150h31v-805q0 -64 22.5 -90t98.5 -58v-14l-426 -72l-2 183h-2q-46 -78 -130.5 -129t-183.5 -51zM754 217v438q-34 129 -91 209t-128 80q-160 0 -160 -391
q0 -212 51.5 -334.5t144.5 -122.5q94 0 183 121z" />
    <glyph glyph-name="atilde.ss01" horiz-adv-x="1200" 
d="M934 1391l20 -5q-38 -219 -213 -219q-54 0 -145 31q-112 37 -152 37q-59 0 -118 -59l-17 4q25 123 80 172t166 49q20 0 115 -33q110 -35 129 -35q52 0 74.5 10t60.5 48zM444 -20q-158 0 -278 129q-117 132 -117 372q0 239 121 387t313 148q68 0 132 -22t104 -54
q104 -74 139 -74q67 0 178 150h31v-805q0 -64 22.5 -90t98.5 -58v-14l-426 -72l-2 183h-2q-46 -78 -130.5 -129t-183.5 -51zM754 217v438q-34 129 -91 209t-128 80q-160 0 -160 -391q0 -212 51.5 -334.5t144.5 -122.5q94 0 183 121z" />
    <glyph glyph-name="zero.zero" horiz-adv-x="1220" 
d="M1163 711q0 -345 -166 -541q-164 -197 -385 -197q-223 0 -389 199t-166 543q0 345 166 547t387 202q222 0 387 -204q166 -202 166 -549zM608 1407q-107 0 -170 -175.5t-63 -512.5q0 -107 6 -195q43 55 215 238q161 167 231 268q-26 185 -84 281t-135 96zM612 31
q107 0 170.5 172.5t63.5 507.5q0 113 -8 233q-65 -78 -220 -239q-160 -163 -229 -267q23 -202 81 -304.5t142 -102.5z" />
    <glyph glyph-name="zero.numrsuperior" horiz-adv-x="802" 
d="M641 1001q-101 -116 -240 -116q-137 0 -241 116q-103 121 -103 328q0 210 105 330q106 121 239 121q134 0 240 -121q104 -119 104 -330q0 -209 -104 -328zM530 1331q0 204 -35 308t-94 104q-129 0 -129 -410q0 -411 129 -411t129 409z" />
    <glyph glyph-name="one.numrsuperior" horiz-adv-x="468" 
d="M63 901v10q54 25 72 50q17 27 17 92v489q0 44 -21.5 67t-89.5 56v6l319 115v-733q0 -66 15 -90q16 -25 74 -52v-10h-386z" />
    <glyph glyph-name="two.numrsuperior" horiz-adv-x="624" 
d="M428 1073q62 0 94 17t76 69l8 -4l-78 -254h-524v31q193 197 277 327t84 232q0 76 -38.5 120t-99.5 44q-95 0 -190 -105l-19 11q136 219 308 219q94 0 159.5 -62.5t65.5 -163.5q0 -128 -111 -247q-48 -52 -100 -101q-9 -8 -133 -112q-13 -13 -25 -21h246z" />
    <glyph glyph-name="three.numrsuperior" horiz-adv-x="679" 
d="M43 1583q127 195 317 195q91 0 148 -46t57 -118q0 -75 -62.5 -131.5t-164.5 -89.5v-2q27 6 57 6q97 0 162.5 -63t65.5 -169q0 -127 -95 -204q-95 -74 -229 -74q-124 0 -264 51l80 205l10 -2q32 -95 79 -155t103 -60q55 0 92 58t37 144q0 92 -43 147.5t-117 55.5
q-46 0 -104 -24l-8 26q225 108 225 232q0 50 -35 79t-92 29q-116 0 -205 -102z" />
    <glyph glyph-name="four.numrsuperior" horiz-adv-x="733" 
d="M698 1153h-112v-100q0 -70 14 -90q19 -27 74 -52v-10h-365v10q54 25 72 50q14 22 14 92v100h-370v16l532 607h29v-549h125zM123 1227h272v317z" />
    <glyph glyph-name="five.numrsuperior" horiz-adv-x="700" 
d="M309 1438q139 0 225.5 -73t86.5 -200q0 -140 -103 -211q-100 -69 -223 -69q-117 0 -262 53l63 242h10q33 -112 82.5 -186t102.5 -74q55 0 95 59t40 149q0 105 -50.5 158t-133.5 53q-92 0 -172 -47l120 471h289q59 0 88.5 13t67.5 53l8 -2l-84 -232h-371l-45 -184
q70 27 166 27z" />
    <glyph glyph-name="six.numrsuperior" horiz-adv-x="765" 
d="M444 1389q111 0 188 -62t77 -172q0 -121 -92.5 -195.5t-235.5 -74.5q-149 0 -236.5 86.5t-87.5 240.5q0 226 164 379q168 157 393 187l4 -17q-147 -63 -240.5 -178.5t-119.5 -265.5q78 72 186 72zM387 918q56 0 90.5 54t34.5 140q0 91 -38.5 150t-108.5 59
q-68 0 -113 -51q-4 -54 -4 -72q0 -128 38 -204t101 -76z" />
    <glyph glyph-name="seven.numrsuperior" horiz-adv-x="645" 
d="M133 901q65 344 344 676h-289q-65 0 -95.5 -16.5t-69.5 -71.5l-11 2l76 272h547v-28q-173 -193 -240 -414q-33 -109 -49 -197q-15 -84 -33 -223h-180z" />
    <glyph glyph-name="eight.numrsuperior" horiz-adv-x="735" 
d="M362 885q-132 0 -218.5 63.5t-86.5 167.5q0 79 51.5 134t137.5 79q-156 83 -156 225q0 103 79.5 164.5t203.5 61.5q116 0 193 -55t77 -134q0 -63 -53.5 -111t-122.5 -67q37 -19 65 -39q40 -29 64 -49q82 -68 82 -184q0 -118 -89 -187t-227 -69zM442 1427q70 73 70 168
q0 66 -38 107t-95 41q-54 0 -85.5 -33t-31.5 -90t41 -98.5t139 -94.5zM362 924q62 0 101 37t39 98q0 67 -54 124.5t-180 127.5q-71 -71 -71 -189q0 -91 45.5 -144.5t119.5 -53.5z" />
    <glyph glyph-name="nine.numrsuperior" horiz-adv-x="716" 
d="M360 1780q150 0 237 -87t87 -241q0 -223 -164 -379t-393 -186l-4 18q146 61 238.5 176.5t119.5 264.5q-79 -70 -186 -70q-102 0 -182 59t-80 174q0 123 92 197t235 74zM377 1343q63 0 110 50q1 11 2 27.5t2 27.5t1 20q0 127 -37.5 203t-100.5 76q-56 0 -92.5 -55
t-36.5 -142q0 -89 41 -148t111 -59z" />
    <glyph glyph-name="zero.numrsuperior.zero" horiz-adv-x="753" 
d="M137 1659q106 121 240 121q133 0 239 -121q105 -120 105 -330q0 -208 -105 -328q-101 -116 -239 -116t-242 116q-102 120 -102 328q0 211 104 330zM375 1743q-59 0 -93 -104t-34 -306q0 -74 2 -92q48 55 112 121q90 94 134 158q-27 223 -121 223zM377 922q59 0 94 101.5
t35 301.5q0 27 -4 121l-117 -127q-91 -97 -129 -152q21 -245 121 -245z" />
    <glyph glyph-name="zero.osf" horiz-adv-x="1114" 
d="M559 -25q-222 0 -366 150t-144 364q0 215 144 371t366 156t363 -156q143 -155 143 -371q0 -214 -141 -364t-365 -150zM1001 492q0 215 -133 342t-309 127q-180 0 -313 -130q-133 -127 -133 -342q0 -213 133 -337q136 -121 313 -121q176 0 309 121q133 124 133 340z" />
    <glyph glyph-name="one.osf" horiz-adv-x="634" 
d="M502 240q0 -112 20 -148q20 -35 101 -78v-14h-541v14q77 41 98 78q23 41 23 148v444q0 86 -31 117q-28 32 -139 57v14l469 148v-780z" />
    <glyph glyph-name="two.osf" horiz-adv-x="993" 
d="M688 236q133 0 191 49q31 27 71 69l15 -4l-50 -155l-63 -195h-811v55q303 234 418 361q121 133 121 248q0 85 -56 135.5t-143 50.5q-122 0 -266 -129l-39 12q194 283 444 283q138 0 232 -76q96 -75 96 -199q0 -128 -116.5 -239.5t-389.5 -265.5h346z" />
    <glyph glyph-name="three.osf" horiz-adv-x="976" 
d="M43 723q94 138 220.5 215.5t266.5 77.5q141 0 230.5 -72.5t89.5 -185.5t-93.5 -199.5t-252.5 -138.5v-2q44 8 82 8q138 0 248 -96q106 -93 106 -267q0 -202 -149 -315q-148 -115 -355 -115q-188 0 -407 82l118 285l15 -2q125 -309 293 -309q93 0 157 94q64 91 64 227
q0 139 -70 226.5t-190 87.5q-78 0 -168 -37l-12 37q364 175 364 364q0 84 -55.5 130t-145.5 46q-190 0 -333 -162z" />
    <glyph glyph-name="four.osf" horiz-adv-x="1138" 
d="M1083 49h-184v-155q0 -103 23 -144q20 -35 125 -80v-14h-564v14q103 44 123 80q25 36 25 144v155h-590v27l811 936h47v-854h203zM182 158h449v524z" />
    <glyph glyph-name="five.osf" horiz-adv-x="1009" 
d="M461 481q211 0 342 -110q133 -112 133 -305q0 -108 -45.5 -196.5t-122.5 -139.5q-151 -103 -338 -103q-172 0 -401 84l96 336h14q126 -371 295 -371q87 0 158 95q72 93 72 245q0 159 -81.5 241.5t-217.5 82.5q-152 0 -277 -76l182 725h445q93 0 139 21q44 20 107 86
l12 -4l-127 -347h-574l-75 -307q104 43 264 43z" />
    <glyph glyph-name="six.osf" horiz-adv-x="1153" 
d="M670 813q174 0 303 -102q131 -101 131 -287q0 -198 -152 -326q-149 -125 -379 -125q-232 0 -378 140t-146 407q0 243 127 447q123 201 328 327q204 124 444 164l4 -26q-245 -105 -402 -300t-200 -444q134 125 320 125zM584 25q100 0 165.5 92t65.5 239q0 155 -68.5 254
t-193.5 99q-122 0 -213 -97q-6 -53 -6 -106q0 -221 67.5 -351t182.5 -130z" />
    <glyph glyph-name="seven.osf" horiz-adv-x="980" 
d="M207 -348q109 547 549 1069h-457q-103 0 -152 -27q-46 -22 -116 -114l-15 4l115 405h850v-43q-271 -308 -377 -637q-59 -190 -82 -311q-24 -125 -53 -346h-262z" />
    <glyph glyph-name="eight.osf" horiz-adv-x="1081" 
d="M535 -27q-203 0 -345 103q-141 102 -141 274q0 129 83.5 224.5t225.5 134.5q-258 138 -258 364q0 169 129 264q132 99 320 99q183 0 305 -88q123 -88 123 -215q0 -112 -92 -195q-89 -80 -195 -115l84 -45q30 -16 88 -61q57 -41 86 -84q36 -47 60 -113t24 -135
q0 -188 -143 -301q-144 -111 -354 -111zM653 846q127 118 127 287q0 109 -64 178t-163 69q-88 0 -143.5 -58.5t-55.5 -154.5q0 -100 70 -170q73 -70 229 -151zM537 31q106 0 173.5 66.5t67.5 172.5q0 115 -88.5 208t-294.5 204q-137 -107 -137 -317q0 -153 77 -243.5
t202 -90.5z" />
    <glyph glyph-name="nine.osf" horiz-adv-x="1099" 
d="M551 1018q223 0 360 -131q140 -134 140 -379q0 -340 -250 -578q-248 -239 -604 -295l-4 25q232 98 382 279.5t191 414.5q-125 -116 -307 -116q-163 0 -287 92q-123 94 -123 268q0 186 141 303q144 117 361 117zM571 334q117 0 205 88q4 86 4 104q0 202 -64.5 323.5
t-174.5 121.5q-93 0 -155 -87t-62 -225q0 -142 65 -233.5t182 -91.5z" />
    <glyph glyph-name="zero.tf" 
d="M41 719q0 339 160 543q162 204 370 204q211 0 369 -204q162 -204 162 -549q0 -342 -160 -543q-156 -197 -369 -197q-209 0 -372 199q-160 201 -160 547zM573 31q99 0 155 178.5t56 507.5q0 340 -57.5 516t-157.5 176q-97 0 -154 -177t-57 -513q0 -341 57.5 -514.5
t157.5 -173.5z" />
    <glyph glyph-name="one.tf" 
d="M295 0v14q111 48 131 86q25 42 25 156v836q0 76 -39 112q-37 37 -152 84v12l498 177v-1221q0 -114 22 -156q23 -39 133 -86v-14h-618z" />
    <glyph glyph-name="two.tf" 
d="M752 258q107 0 161 31q57 36 127 123l15 -6l-127 -406h-862v49q320 323 466 551q148 227 148 399q0 126 -66 200.5t-168 74.5q-168 0 -323 -180l-31 16q92 152 219 254q126 102 279 102q149 0 258 -100q110 -101 110 -272q0 -111 -59 -240q-18 -43 -78 -119l-92 -110
q-30 -35 -119 -121l-127 -117l-145 -129h414z" />
    <glyph glyph-name="three.tf" 
d="M109 1151q100 148 233.5 230.5t280.5 82.5q146 0 241 -80q94 -76 94 -198q0 -237 -366 -363v-2q31 8 80 8q152 0 266 -102q115 -103 115 -287q0 -216 -156 -342q-156 -123 -375 -123q-195 0 -428 88l123 304l16 -5q128 -327 306 -327q105 0 168 100q67 101 67 248
q0 150 -73.5 244t-198.5 94q-75 0 -178 -41l-13 41q383 187 383 393q0 91 -58 141t-153 50q-200 0 -350 -175z" />
    <glyph glyph-name="four.tf" 
d="M1110 422h-192v-166q0 -114 22 -156q23 -39 133 -86v-14h-594v14q111 48 131 86q25 42 25 156v166h-623v31l854 1007h52v-919h212zM162 541h473v573z" />
    <glyph glyph-name="five.tf" 
d="M528 895q219 0 361 -121q141 -120 141 -328q0 -155 -86 -270q-86 -111 -203 -158q-113 -45 -245 -45q-181 0 -422 93l102 352h14q135 -391 310 -391q96 0 168 100q73 101 73 266q0 173 -85 262.5t-230 89.5q-153 0 -289 -83l191 778h467q100 0 149 22q49 24 113 94l12 -4
l-135 -368h-604l-80 -336q115 47 278 47z" />
    <glyph glyph-name="six.tf" 
d="M664 815q174 0 303 -102q131 -101 131 -289q0 -198 -152 -326q-149 -125 -377 -125q-232 0 -381 140q-145 139 -145 407q0 181 72.5 345.5t199.5 285.5q125 119 287 198.5t340 110.5l6 -26q-245 -104 -403 -300.5t-201 -447.5q129 129 320 129zM580 25q100 0 164.5 92.5
t64.5 242.5q0 155 -68.5 253t-193.5 98q-122 0 -213 -97q-6 -56 -6 -108q0 -220 68.5 -350.5t183.5 -130.5z" />
    <glyph glyph-name="seven.tf" 
d="M266 0q114 590 578 1157h-482q-109 0 -163 -31q-50 -26 -119 -122l-14 4l120 432h895v-45q-287 -333 -395 -684q-59 -182 -86 -334q-35 -196 -57 -377h-277z" />
    <glyph glyph-name="eight.tf" 
d="M565 -27q-208 0 -352 105q-145 106 -145 280q0 132 86 230t229 137q-262 142 -262 371q0 170 133 270q129 100 324 100q183 0 311 -90q127 -89 127 -221q0 -117 -94 -199t-199 -112q54 -28 86 -49q27 -13 88 -62q65 -52 90 -88q36 -46 61 -113t25 -137q0 -193 -147 -307
q-145 -115 -361 -115zM684 866q129 120 129 289q0 114 -64.5 184t-164.5 70q-91 0 -148 -59.5t-57 -155.5q0 -68 33 -122t96 -100t176 -106zM565 33q110 0 178 67t68 176q0 118 -92 213q-90 93 -299 209q-139 -115 -139 -325q0 -156 79 -248t205 -92z" />
    <glyph glyph-name="nine.tf" 
d="M573 1466q234 0 379 -139q146 -140 146 -407q0 -242 -127 -449q-125 -203 -330 -328q-199 -122 -442 -163l-4 26q246 106 402.5 300.5t199.5 445.5q-133 -127 -320 -127q-173 0 -305 102q-129 102 -129 289q0 197 152 325q149 125 378 125zM594 729q123 0 213 96
q6 55 6 109q0 220 -67.5 350.5t-182.5 130.5q-99 0 -165 -93t-66 -239q0 -157 69 -255.5t193 -98.5z" />
    <glyph glyph-name="zero.tf.zero" 
d="M571 1466q211 0 369 -204q162 -204 162 -549q0 -342 -160 -543q-156 -197 -369 -197q-209 0 -372 199q-160 201 -160 543q0 343 160 547q158 204 370 204zM569 1409q-99 0 -155 -180t-56 -504q0 -36 4 -184q60 70 197 213q146 149 213 241q-23 206 -75.5 310t-127.5 104z
M573 31q97 0 154 174t57 514q0 105 -6 194q-68 -80 -198 -215q-138 -141 -211 -241q40 -426 204 -426z" />
    <glyph glyph-name="zero.tosf" 
d="M63 489q0 215 144 371q146 158 366 158t363 -158q143 -155 143 -371q0 -215 -143 -364q-141 -150 -363 -150t-366 150t-144 364zM571 31q180 0 312 123q133 124 133 335q0 218 -133 345q-132 129 -310 129t-313 -129q-133 -127 -133 -345q0 -211 133 -335
q135 -123 311 -123z" />
    <glyph glyph-name="one.tosf" 
d="M756 240q0 -112 20 -148q20 -35 101 -78v-14h-541v14q77 41 98 78q23 41 23 148v446q0 86 -31 117q-28 32 -139 57v14l469 148v-782z" />
    <glyph glyph-name="two.tosf" 
d="M762 236q65 0 115 15.5t75 33.5q18 15 72 69l14 -4l-49 -155l-63 -195h-811v55q291 222 417 361q121 133 121 250q0 85 -56 135.5t-142 50.5q-120 0 -267 -129l-38 12q194 283 444 283q135 0 229 -76q99 -74 99 -199q0 -129 -118.5 -244t-387.5 -263h346z" />
    <glyph glyph-name="three.tosf" 
d="M133 725q92 137 220 215t268 78q138 0 227 -74q90 -75 90 -186q0 -113 -93.5 -198.5t-252.5 -139.5v-2q47 8 84 8q139 0 246 -96q106 -93 106 -267q0 -201 -147 -315q-148 -115 -355 -115q-190 0 -409 82l119 285l14 -2q125 -309 293 -309q93 0 157 94q64 91 64 227
q0 139 -70 226.5t-190 87.5q-78 0 -168 -37l-10 37q362 175 362 366q0 84 -55.5 130t-145.5 46q-189 0 -331 -161z" />
    <glyph glyph-name="four.tosf" 
d="M1083 49h-184v-155q0 -106 21 -144q20 -36 129 -80v-14h-566v14q105 47 125 82q23 38 23 142v155h-590v27l811 938h47v-856h203zM182 158h449v526z" />
    <glyph glyph-name="five.tosf" 
d="M528 481q213 0 344 -110q136 -112 136 -305q0 -108 -46.5 -196.5t-123.5 -139.5q-151 -103 -338 -103q-173 0 -402 84l99 336h12q126 -371 295 -371q87 0 158 95q71 92 71 245q0 159 -81.5 241.5t-217.5 82.5q-151 0 -276 -76l182 727h444q89 0 138 19q46 21 110 88
l10 -4l-127 -346h-573l-76 -310q101 43 262 43z" />
    <glyph glyph-name="six.tosf" 
d="M664 815q174 0 303 -102q131 -101 131 -289q0 -198 -152 -326q-149 -125 -377 -125q-232 0 -381 140q-145 139 -145 407q0 181 72.5 345.5t199.5 285.5q125 119 287 198.5t340 110.5l6 -26q-245 -104 -403 -300.5t-201 -447.5q129 129 320 129zM580 25q100 0 164.5 92.5
t64.5 242.5q0 155 -68.5 253t-193.5 98q-122 0 -213 -97q-6 -56 -6 -108q0 -220 68.5 -350.5t183.5 -130.5z" />
    <glyph glyph-name="seven.tosf" 
d="M283 -348q110 551 548 1071h-458q-98 0 -150 -27q-48 -23 -117 -114l-14 4l113 405h852v-43q-270 -307 -377 -639q-59 -195 -82 -311q-23 -117 -53 -346h-262z" />
    <glyph glyph-name="eight.tosf" 
d="M565 -27q-201 0 -346 103q-141 105 -141 278q0 130 85 222t226 135q-258 138 -258 364q0 170 131 264q132 99 318 99q178 0 303 -90q123 -88 123 -220q0 -104 -93 -188q-84 -79 -192 -115q67 -36 108 -63q39 -23 105 -80q129 -114 129 -295q0 -188 -143 -301t-355 -113z
M682 848q127 118 127 285q0 110 -64 179.5t-161 69.5q-88 0 -144.5 -59.5t-56.5 -153.5q0 -100 70 -170q73 -70 229 -151zM567 31q106 0 174 67.5t68 171.5q0 114 -88.5 207.5t-294.5 206.5q-139 -112 -139 -319q0 -152 78 -243t202 -91z" />
    <glyph glyph-name="nine.tosf" 
d="M571 1020q224 0 361 -131q139 -133 139 -381q0 -226 -123 -420q-118 -188 -311 -303q-194 -116 -418 -150l-6 25q233 98 382.5 279t190.5 413q-129 -114 -305 -114q-163 0 -288 94q-123 94 -123 268q0 185 143 301q143 119 358 119zM592 334q117 0 205 88q4 86 4 104
q0 202 -65 324.5t-173 122.5q-94 0 -156.5 -87.5t-62.5 -223.5q0 -140 64 -234t184 -94z" />
    <glyph glyph-name="zero.subs" horiz-adv-x="753" 
d="M616 -184q-101 -119 -239 -119t-242 119q-102 117 -102 325q0 211 104 330q106 121 240 121q133 0 239 -121q105 -120 105 -330q0 -208 -105 -325zM506 143q0 204 -35 308t-94 104q-129 0 -129 -410q0 -411 129 -411t129 409z" />
    <glyph glyph-name="one.subs" horiz-adv-x="468" 
d="M63 -287v11q56 26 72 51q17 24 17 90v489q0 45 -19.5 65.5t-91.5 57.5v6l319 115v-733q0 -67 13 -90q15 -24 76 -51v-11h-386z" />
    <glyph glyph-name="two.subs" horiz-adv-x="624" 
d="M428 -115q61 0 94 17t76 69l8 -4l-78 -254h-524v31q193 197 277 327t84 232q0 76 -39 120t-101 44q-93 0 -188 -105l-19 11q136 219 308 219q94 0 159.5 -62t65.5 -163q0 -129 -111 -248q-48 -52 -100 -101q-9 -8 -133 -112q-13 -13 -25 -21h246z" />
    <glyph glyph-name="three.subs" horiz-adv-x="655" 
d="M43 395q57 90 140.5 142.5t178.5 52.5q90 0 146.5 -46.5t56.5 -119.5q0 -72 -62.5 -129.5t-164.5 -89.5v-2q27 6 57 6q97 0 162.5 -63t65.5 -169q0 -128 -95 -202q-94 -76 -229 -76q-124 0 -264 51l80 205l10 -2q32 -95 79 -155t103 -60q55 0 92 58t37 145q0 92 -43 147
t-117 55q-46 0 -104 -24l-8 26q225 108 225 230q0 53 -33.5 81.5t-89.5 28.5q-120 0 -209 -102z" />
    <glyph glyph-name="four.subs" horiz-adv-x="733" 
d="M698 -35h-112v-100q0 -70 14 -90q18 -25 74 -51v-11h-365v11q56 26 72 51q14 20 14 90v100h-370v17l532 606h29v-549h125zM123 39h272v317z" />
    <glyph glyph-name="five.subs" horiz-adv-x="675" 
d="M309 250q139 0 225.5 -73t86.5 -200q0 -137 -103 -208q-104 -72 -223 -72q-117 0 -262 53l63 242h10q33 -112 82.5 -186t102.5 -74q55 0 95 59.5t40 149.5q0 105 -50.5 158t-133.5 53q-90 0 -172 -48l120 471h289q59 0 88.5 13t67.5 53l8 -2l-84 -231h-371l-45 -185
q70 27 166 27z" />
    <glyph glyph-name="six.subs" horiz-adv-x="765" 
d="M444 201q111 0 188 -62t77 -172q0 -121 -92.5 -195.5t-235.5 -74.5q-149 0 -236.5 87t-87.5 241q0 225 164 378q165 157 393 187l4 -17q-147 -63 -240.5 -178.5t-119.5 -265.5q78 72 186 72zM387 -270q56 0 90.5 54t34.5 140q0 91 -38.5 150t-108.5 59q-68 0 -113 -51
q-4 -54 -4 -72q0 -128 38 -204t101 -76z" />
    <glyph glyph-name="seven.subs" horiz-adv-x="645" 
d="M133 -287q65 344 344 676h-289q-65 0 -95.5 -16.5t-69.5 -71.5l-11 2l76 272h547v-28q-173 -193 -240 -414q-33 -111 -49 -196q-15 -81 -33 -224h-180z" />
    <glyph glyph-name="eight.subs" horiz-adv-x="686" 
d="M338 -303q-132 0 -218.5 63.5t-86.5 167.5q0 79 51.5 134t136.5 79q-155 82 -155 226q0 103 79 164t203 61q116 0 193 -55t77 -134q0 -63 -53.5 -111t-122.5 -67q41 -21 66 -39q34 -24 63 -49q82 -68 82 -184q0 -118 -89 -187t-226 -69zM418 240q69 69 69 168
q0 66 -38 106.5t-95 40.5q-54 0 -85 -33t-31 -90t41 -98t139 -94zM338 -264q63 0 101 37t38 98q0 67 -54 124.5t-179 127.5q-72 -72 -72 -189q0 -90 45.5 -144t120.5 -54z" />
    <glyph glyph-name="nine.subs" horiz-adv-x="716" 
d="M360 592q150 0 237 -87t87 -241q0 -223 -164 -379t-393 -186l-4 18q146 61 238.5 176.5t119.5 264.5q-79 -70 -186 -70q-102 0 -182 59t-80 175q0 123 92 196.5t235 73.5zM377 156q64 0 110 49q1 11 2 27.5t2 28t1 20.5q0 127 -37.5 202.5t-100.5 75.5q-56 0 -92.5 -55
t-36.5 -142q0 -89 41 -147.5t111 -58.5z" />
    <glyph glyph-name="zero.dnom" horiz-adv-x="835" 
d="M657 100q-101 -116 -239 -116t-242 116q-102 120 -102 328q0 211 104 330q106 121 240 121q133 0 239 -121q105 -120 105 -330q0 -208 -105 -328zM547 430q0 204 -35 308t-94 104q-129 0 -129 -410q0 -412 129 -412t129 410z" />
    <glyph glyph-name="one.dnom" horiz-adv-x="550" 
d="M104 0v10q55 25 72 49q17 27 17 93v489q0 44 -21.5 67t-89.5 56v6l319 115v-733q0 -67 15 -91t73 -51v-10h-385z" />
    <glyph glyph-name="two.dnom" horiz-adv-x="706" 
d="M469 172q62 0 94 17t76 69l8 -4l-78 -254h-524v31q193 197 277 327t84 232q0 76 -39 120t-101 44q-94 0 -188 -105l-19 10q137 220 308 220q94 0 159.5 -62.5t65.5 -163.5q0 -128 -111 -247q-48 -52 -100 -101q-9 -8 -133 -112q-13 -13 -25 -21h246z" />
    <glyph glyph-name="three.dnom" horiz-adv-x="737" 
d="M84 682q127 195 317 195q91 0 148 -46t57 -118q0 -75 -62.5 -131.5t-164.5 -89.5v-3q32 7 57 7q97 0 162.5 -63t65.5 -169q0 -128 -95 -205q-94 -73 -229 -73q-124 0 -264 51l80 205l10 -2q32 -95 79 -155t103 -60q55 0 92 58t37 144q0 92 -43 147.5t-117 55.5
q-45 0 -104 -24l-8 26q225 108 225 230q0 53 -33.5 81.5t-89.5 28.5q-121 0 -209 -102z" />
    <glyph glyph-name="four.dnom" horiz-adv-x="815" 
d="M739 252h-112v-100q0 -71 14 -91q18 -25 74 -51v-10h-365v10q55 25 72 49q14 22 14 93v100h-370v16l532 606h29v-548h125zM164 326h272v317z" />
    <glyph glyph-name="five.dnom" horiz-adv-x="757" 
d="M350 537q139 0 225.5 -73t86.5 -200q0 -140 -103 -211q-100 -69 -223 -69q-117 0 -262 53l63 242h10q33 -112 82.5 -186.5t102.5 -74.5q55 0 95 59.5t40 149.5q0 105 -50.5 158t-133.5 53q-92 0 -172 -47l120 471h289q59 0 88.5 13t67.5 53l8 -2l-84 -232h-371l-45 -184
q71 27 166 27z" />
    <glyph glyph-name="six.dnom" horiz-adv-x="798" 
d="M461 487q111 0 186.5 -61.5t75.5 -171.5q0 -122 -91.5 -196t-234.5 -74q-151 0 -237 85t-86 242q0 224 164 377q162 154 393 189l2 -19q-147 -61 -240 -176.5t-119 -265.5q77 71 187 71zM403 16q56 0 91.5 55t35.5 142q0 90 -39.5 149.5t-109.5 59.5q-64 0 -113 -49
q-4 -62 -4 -76q0 -129 38 -205t101 -76z" />
    <glyph glyph-name="seven.dnom" horiz-adv-x="727" 
d="M174 0q65 344 344 676h-289q-65 0 -96 -16.5t-70 -71.5l-10 2l76 272h547v-28q-173 -193 -240 -414q-33 -109 -49 -197q-15 -84 -33 -223h-180z" />
    <glyph glyph-name="eight.dnom" horiz-adv-x="768" 
d="M379 -16q-132 0 -218.5 63.5t-86.5 167.5q0 79 51.5 134t136.5 79q-156 82 -156 223q0 104 79.5 166t203.5 62q116 0 193 -55t77 -134q0 -63 -53.5 -111t-122.5 -67q41 -21 66 -39q34 -24 63 -49q82 -68 82 -184q0 -118 -89 -187t-226 -69zM459 526q69 69 69 168
q0 66 -38 107t-95 41q-54 0 -85 -33t-31 -90t41 -98.5t139 -94.5zM379 23q63 0 101 37t38 98q0 67 -54 124.5t-179 127.5q-72 -72 -72 -189q0 -90 45.5 -144t120.5 -54z" />
    <glyph glyph-name="nine.dnom" horiz-adv-x="798" 
d="M401 879q150 0 237 -87t87 -241q0 -223 -164 -379t-393 -186l-4 18q146 61 238.5 176t119.5 264q-78 -69 -186 -69q-102 0 -182 59t-80 174q0 123 92 197t235 74zM418 442q63 0 110 50q4 62 4 75q0 128 -37 203.5t-100 75.5q-56 0 -92.5 -55t-36.5 -142q0 -89 41 -148
t111 -59z" />
    <glyph glyph-name="zero.numr" horiz-adv-x="753" 
d="M616 715q-102 -117 -239 -117t-242 117q-102 117 -102 325q0 211 104 330q106 121 240 121q133 0 239 -121q105 -120 105 -330q0 -208 -105 -325zM506 1042q0 204 -35 308t-94 104q-129 0 -129 -410q0 -411 129 -411t129 409z" />
    <glyph glyph-name="one.numr" horiz-adv-x="468" 
d="M63 612v11q55 25 72 49q17 27 17 92v489q0 44 -21.5 67t-89.5 56v6l319 115v-733q0 -66 15 -90t74 -51v-11h-386z" />
    <glyph glyph-name="two.numr" horiz-adv-x="624" 
d="M428 784q62 0 94 17t76 69l8 -4l-78 -254h-524v31q193 197 277 327t84 232q0 76 -39 120t-101 44q-94 0 -188 -104l-19 10q136 219 308 219q94 0 159.5 -62t65.5 -163q0 -129 -111 -248q-42 -46 -100 -100q-20 -19 -133 -113q-13 -13 -25 -21h246z" />
    <glyph glyph-name="three.numr" horiz-adv-x="655" 
d="M43 1294q57 93 140.5 145t176.5 52q90 0 147.5 -47t57.5 -119q0 -75 -62.5 -131.5t-164.5 -87.5v-2q27 6 55 6q97 0 163.5 -63t66.5 -170q0 -128 -95 -205q-95 -74 -229 -74q-119 0 -264 53l80 203l10 -2q32 -95 79 -155t103 -60q55 0 92 58t37 145q0 92 -43 147t-117 55
q-46 0 -104 -24l-8 26q225 108 225 230q0 53 -33.5 81.5t-89.5 28.5q-120 0 -209 -102z" />
    <glyph glyph-name="four.numr" horiz-adv-x="733" 
d="M698 864h-112v-100q0 -70 14 -90q18 -25 74 -51v-11h-365v11q55 25 72 49q14 22 14 92v100h-370v17l532 608h29v-551h125zM123 938h272v317z" />
    <glyph glyph-name="five.numr" horiz-adv-x="675" 
d="M313 1149q138 0 223 -72.5t85 -197.5q0 -140 -103 -211q-101 -70 -223 -70q-116 0 -262 51l63 242h10q33 -112 82.5 -186t102.5 -74q55 0 95 59.5t40 149.5q0 105 -50.5 158t-133.5 53q-92 0 -172 -47l120 473h289q62 0 90 12t66 51l8 -2l-84 -231h-371l-45 -185
q65 27 170 27z" />
    <glyph glyph-name="six.numr" horiz-adv-x="765" 
d="M446 1102q110 0 186.5 -62.5t76.5 -173.5q0 -121 -92.5 -194.5t-235.5 -73.5q-150 0 -237 86t-87 240q0 226 164 379q164 156 393 186l4 -16q-147 -63 -240.5 -179t-119.5 -266q77 74 188 74zM387 629q56 0 90.5 54t34.5 140q0 91 -38.5 150t-108.5 59q-68 0 -113 -51
q-4 -54 -4 -72q0 -127 38 -203.5t101 -76.5z" />
    <glyph glyph-name="seven.numr" horiz-adv-x="645" 
d="M133 612q65 344 344 676h-289q-65 0 -95.5 -16.5t-69.5 -71.5l-11 2l76 275h547v-31q-127 -140 -209 -324q-34 -88 -53 -170q-30 -127 -35 -164l-25 -176h-180z" />
    <glyph glyph-name="eight.numr" horiz-adv-x="686" 
d="M338 598q-132 0 -218.5 62.5t-86.5 166.5q0 79 51.5 134t136.5 79q-155 82 -155 226q0 103 79 164t203 61q116 0 193 -54.5t77 -133.5q0 -63 -53.5 -111.5t-122.5 -67.5q41 -21 66 -39q34 -24 63 -49q82 -68 82 -184q0 -118 -88.5 -186t-226.5 -68zM418 1139
q69 72 69 168q0 66 -38 106.5t-95 40.5q-54 0 -85 -33t-31 -90t41 -98t139 -94zM340 635q62 0 99.5 37t37.5 98q0 67 -54 124.5t-179 127.5q-72 -72 -72 -186q0 -91 47 -146t121 -55z" />
    <glyph glyph-name="nine.numr" horiz-adv-x="716" 
d="M360 1491q150 0 237 -87t87 -241q0 -223 -164 -379t-393 -186l-4 18q146 61 238.5 176.5t119.5 264.5q-79 -70 -186 -70q-100 0 -182 60q-80 59 -80 174q0 123 92 196.5t235 73.5zM377 1055q64 0 110 49q1 11 2 27.5t2 28t1 20.5q0 127 -37.5 202.5t-100.5 75.5
q-56 0 -92.5 -54.5t-36.5 -141.5q0 -89 41 -148t111 -59z" />
    <glyph glyph-name="zero.subs.zero" horiz-adv-x="753" 
d="M137 471q106 121 240 121q133 0 239 -121q105 -120 105 -330q0 -208 -105 -325q-101 -119 -239 -119t-242 119q-102 117 -102 325q0 211 104 330zM375 555q-127 0 -127 -426q0 -56 2 -74q48 55 112 121q90 94 134 158q-27 221 -121 221zM377 -266q59 0 94 101.5t35 301.5
q0 29 -4 123q-9 -12 -119 -129q-92 -98 -129 -149q27 -248 123 -248z" />
    <glyph glyph-name="zero.dnom.zero" horiz-adv-x="802" 
d="M162 758q106 121 239 121q134 0 240 -121q104 -119 104 -330q0 -209 -104 -328q-101 -116 -240 -116q-137 0 -241 116q-103 121 -103 328q0 210 105 330zM399 842q-59 0 -93 -104t-34 -306v-65l80 84q57 57 101 108q34 42 63 92q-35 191 -117 191zM401 20q129 0 129 412
q0 76 -6 141q-40 -55 -129 -147q-91 -94 -119 -129q21 -277 125 -277z" />
    <glyph glyph-name="zero.numr.zero" horiz-adv-x="802" 
d="M162 1370q106 121 239 121q134 0 240 -121q104 -119 104 -330q0 -209 -104 -325q-102 -117 -240 -117q-136 0 -241 117q-103 118 -103 325q0 210 105 330zM399 1454q-59 0 -93 -104t-34 -306v-65l80 84q57 57 101 108q32 40 63 93q-34 190 -117 190zM401 633
q129 0 129 411q0 78 -6 142q-48 -63 -127 -144q-87 -90 -121 -133q21 -276 125 -276z" />
    <glyph glyph-name="colon.case" horiz-adv-x="493" 
d="M250 811q-69 0 -118.5 49t-49.5 117q0 69 49.5 118.5t118.5 49.5q68 0 117 -49.5t49 -118.5q0 -67 -49 -116.5t-117 -49.5zM250 143q-69 0 -118.5 50t-49.5 118t49.5 118t118.5 50q67 0 116.5 -50t49.5 -118t-49.5 -118t-116.5 -50z" />
    <glyph glyph-name="exclamdown.case" horiz-adv-x="432" 
d="M219 1481q68 0 117 -48t49 -114t-49 -114t-117 -48q-69 0 -118.5 48t-49.5 114t49.5 114t118.5 48zM186 1034h62q92 -759 141 -1014v-20h-342v20q55 283 139 1014z" />
    <glyph glyph-name="questiondown.case" horiz-adv-x="985" 
d="M471 1438q51 50 119 50t117 -50q51 -47 51 -112.5t-51 -115.5q-49 -50 -117 -50t-119 50q-49 50 -49 115.5t49 112.5zM639 1040q-3 -97 -36.5 -191t-60 -138t-84.5 -128q-11 -16 -16 -24q-98 -143 -98 -274q0 -105 46.5 -177.5t113.5 -72.5q89 0 170 155q36 72 61 154
q4 13 8.5 25t6.5 16.5t2 5.5l10 2l158 -276q-80 -63 -232 -109q-105 -31 -199 -31q-178 0 -299 89q-120 89 -120 251q0 40 9.5 79t22.5 69.5t39 65.5t44.5 57.5t55 55.5t55 48.5t58.5 48.5q170 143 203 299h82z" />
    <glyph glyph-name="slash.case" horiz-adv-x="681" 
d="M2 -199l592 1821h61l-594 -1821h-59z" />
    <glyph glyph-name="backslash.case" horiz-adv-x="671" 
d="M686 -199h-61l-592 1821h61z" />
    <glyph glyph-name="parenleft.case" horiz-adv-x="751" 
d="M721 1686q-178 -181 -277 -406q-96 -229 -96 -575q0 -349 96 -578q91 -217 277 -403l-10 -17q-613 311 -613 998q0 686 613 997z" />
    <glyph glyph-name="parenright.case" horiz-adv-x="714" 
d="M45 1702q612 -314 612 -997q0 -685 -612 -998l-12 17q184 184 276 403q99 225 99 578q0 350 -99 575q-94 224 -276 406z" />
    <glyph glyph-name="braceleft.case" horiz-adv-x="780" 
d="M479 225q-16 -101 -16 -176q0 -147 59 -224.5t189 -113.5l-9 -18q-68 3 -132 18.5t-126.5 48.5t-108.5 80.5t-74 119t-28 159.5q0 37 11 112l14 86q8 39 8 91q0 127 -59 198t-117 80v27q58 9 117 80q57 69 57 196q0 53 -8 92l-14 86q-11 75 -11 113q0 87 28 158.5
t74 118.5t108.5 80.5t127 50t133.5 20.5l9 -18q-129 -36 -188.5 -115t-59.5 -225q0 -75 16 -176l15 -84q6 -44 6 -78q0 -138 -74 -221q-73 -82 -162 -91q90 -9 162 -90q76 -82 76 -217q0 -32 -8 -84z" />
    <glyph glyph-name="braceright.case" horiz-adv-x="739" 
d="M487 1081q-8 -39 -8 -92q0 -128 58 -198q57 -69 116 -78v-29q-59 -9 -116 -78q-58 -67 -58 -194q0 -51 8 -95l15 -88q8 -47 8 -100q0 -91 -28.5 -165t-74 -122t-108.5 -82t-127 -49.5t-133 -19.5l-6 18q128 33 188 111t60 229q0 62 -17 174l-14 86q-6 44 -6 80
q0 223 184 293q50 16 70 16q-87 -3 -172 82q-82 82 -82 230q0 36 6 80l14 84q17 107 17 176q0 147 -59 224.5t-189 113.5l6 18q69 -3 133.5 -19t127 -49t109 -80.5t75 -119t28.5 -158.5q0 -45 -10 -113z" />
    <glyph glyph-name="bracketleft.case" horiz-adv-x="657" 
d="M588 1636h-203v-1867h203v-52h-416v1971h416v-52z" />
    <glyph glyph-name="bracketright.case" horiz-adv-x="641" 
d="M57 1636v52h416v-1971h-416v52h203v1867h-203z" />
    <glyph glyph-name="hyphen.case" horiz-adv-x="757" 
d="M688 694v-88h-614v88h614z" />
    <glyph glyph-name="endash.case" horiz-adv-x="983" 
d="M913 676v-70h-839v70h839z" />
    <glyph glyph-name="emdash.case" horiz-adv-x="1822" 
d="M1753 676v-70h-1679v70h1679z" />
    <glyph glyph-name="guillemotleft.case" horiz-adv-x="1150" 
d="M647 1151q-117 -230 -266 -440q147 -208 266 -441h-57q-232 218 -508 430v21q276 212 508 430h57zM1073 1151q-106 -216 -264 -440q157 -222 264 -441h-55q-232 218 -508 430v21q276 212 508 430h55z" />
    <glyph glyph-name="guillemotright.case" horiz-adv-x="1150" 
d="M82 1151h57q239 -225 508 -430v-21q-269 -205 -508 -430h-57q115 232 266 441q-153 212 -266 440zM510 1151h57q219 -207 506 -430v-21q-287 -223 -506 -430h-57q115 232 266 441q-153 212 -266 440z" />
    <glyph glyph-name="guilsinglleft.case" horiz-adv-x="724" 
d="M647 1151q-117 -230 -266 -440q147 -208 266 -441h-57q-232 218 -508 430v21q276 212 508 430h57z" />
    <glyph glyph-name="guilsinglright.case" horiz-adv-x="724" 
d="M82 1151h57q239 -225 508 -430v-21q-269 -205 -508 -430h-57q115 232 266 441q-153 212 -266 440z" />
    <glyph glyph-name="cent.osf" horiz-adv-x="997" 
d="M969 371q-27 -160 -131 -273q-100 -112 -275 -118v-168h-59v170q-193 12 -324 149t-131 369q0 231 129 366q133 136 326 148v135h59v-133q120 -6 214.5 -67t152.5 -154l-207 -160l-12 6q-11 115 -49.5 199.5t-98.5 109.5v-743q55 -19 115 -19q91 0 162.5 54.5
t111.5 136.5zM334 614q0 -270 170 -378v725q-70 -6 -120 -101.5t-50 -245.5z" />
    <glyph glyph-name="dollar.osf" horiz-adv-x="1169" 
d="M1085 403q0 -89 -27 -161.5t-72 -121t-106 -81.5t-125.5 -48.5t-133.5 -17.5v-157h-74v159q-196 15 -424 115l-27 422h15q83 -176 196 -307q118 -133 240 -160v512l-45 27q-189 109 -254 168q-133 127 -133 292q0 173 121 279t311 115v143h74v-145q167 -9 350 -70
l41 -410h-15q-70 143 -170 261q-95 116 -206 151v-453l51 -28l43 -25l121 -69q31 -18 96 -70q57 -45 84 -86q69 -101 69 -234zM365 1184q0 -68 38.5 -115t143.5 -111v420q-78 -5 -130 -57t-52 -137zM621 39q90 5 146 61.5t56 151.5q0 82 -44.5 138t-157.5 124v-475z" />
    <glyph glyph-name="Euro.osf" horiz-adv-x="1353" 
d="M836 37q82 0 190 123q118 138 205 291h14l-33 -414q-75 -23 -180 -41q-131 -23 -217 -23q-116 0 -217 38t-183.5 115.5t-134.5 208t-63 302.5h-168v57h166v6q0 64 10 156h-176v55h187q47 247 206 385q165 142 381 142q151 0 389 -64l33 -403h-14q-98 162 -207 286
q-108 123 -186 123q-86 0 -153 -120.5t-89 -348.5h481l-10 -55h-475q-4 -118 -4 -147v-15h430l-10 -57h-418q9 -295 82 -447q74 -153 164 -153z" />
    <glyph glyph-name="sterling.osf" horiz-adv-x="1140" 
d="M1030 451h14l-55 -451h-932v88q238 151 238 440q0 104 -59 228h-187v57h162q-41 96 -41 193q0 188 127 315q129 129 365 129q152 0 329 -49l43 -352h-16q-83 139 -191 241q-109 103 -202 103q-78 0 -135.5 -57t-57.5 -150q0 -68 60 -185q58 -109 73 -188h283v-57h-277
q2 -10 2 -41q0 -72 -9.5 -122t-37.5 -114q-58 -132 -264 -262h514q68 0 137 72q67 67 117 162z" />
    <glyph glyph-name="yen.osf" horiz-adv-x="1386" 
d="M985 1413h397v-12q-72 -51 -127 -113q-32 -37 -102 -149l-248 -422h250v-53h-283l-2 -5v-163h287v-56h-287v-184q0 -118 25 -160q25 -35 131 -82v-14h-659v14q107 47 129 82q26 39 26 160v184h-282v56h282v149l-12 19h-272v53h241l-317 516q-65 104 -154 168v12h645v-12
q-70 -42 -97.5 -69t-27.5 -56q0 -36 54 -121l262 -422l231 406q35 62 35 106q0 74 -125 156v12z" />
    <glyph glyph-name="cent.tf" 
d="M1040 371q-27 -160 -131 -273q-100 -112 -274 -118v-168h-60v170q-192 12 -323 149t-131 369q0 231 129 366q132 138 325 150v135h60v-133q118 -6 212 -67t154 -154l-206 -162l-13 6q-27 258 -147 311v-745q55 -19 115 -19q93 0 163.5 53.5t110.5 137.5zM406 614
q0 -270 169 -378v727q-70 -6 -119.5 -102.5t-49.5 -246.5z" />
    <glyph glyph-name="dollar.tf" 
d="M1073 410q0 -141 -70.5 -244.5t-177.5 -147.5q-106 -42 -219 -45v-161h-74v163q-198 15 -423 117l-25 426h14q80 -170 193 -307q115 -140 241 -166v526l-45 27q-178 108 -235 156q-152 134 -152 313q0 175 123 283q122 107 309 116v146h74v-148q157 -9 352 -71l41 -414
h-14q-180 357 -379 416v-465q16 -7 51 -29q89 -49 146 -86q95 -56 135 -96q74 -69 96 -127q39 -80 39 -182zM352 1206q0 -71 38 -119t142 -112v430q-77 -5 -128.5 -58t-51.5 -141zM606 39q90 6 146.5 64.5t56.5 154.5q0 85 -45 141.5t-158 126.5v-487z" />
    <glyph glyph-name="Euro.tf" 
d="M721 37q79 0 180 125q108 134 197 293h12l-31 -416q-70 -23 -180 -43q-125 -23 -201 -23q-244 0 -397 179q-155 184 -170 497h-158v58h156v6q0 66 10 161h-166v58h177q46 247 196 391q152 143 363 143q139 0 372 -65l33 -408h-14q-96 164 -201 291q-102 123 -174 123
q-76 0 -137 -123t-80 -352h448l-8 -58h-444q-4 -126 -4 -153v-14h399l-8 -58h-391q7 -283 72 -447.5t149 -164.5z" />
    <glyph glyph-name="sterling.tf" 
d="M1032 455h15l-56 -455h-932v88q238 154 238 453q0 104 -59 231h-187v57h160q-41 103 -41 199q0 191 129 320q128 131 363 131q151 0 331 -52l43 -354h-16q-88 144 -193 244q-107 104 -202 104q-77 0 -135 -59.5t-58 -153.5q0 -71 60 -188q58 -112 73 -191h283v-57h-275
q2 -10 2 -55q0 -138 -59 -256q-60 -116 -254 -244h516q65 0 132.5 67.5t121.5 170.5z" />
    <glyph glyph-name="yen.tf" 
d="M831 1440h357v-13q-70 -54 -113.5 -111.5t-89.5 -152.5l-217 -434h225v-55h-248v-172h250v-53h-250v-193q0 -118 25 -160q25 -35 131 -82v-14h-657v14q107 47 129 82q26 39 26 160v193h-247v53h247v155l-8 17h-241v55h212l-274 528q-40 81 -129 170v13h592v-13
q-100 -72 -100 -124q0 -40 45 -123l219 -422l194 405q33 70 33 111q0 76 -111 153v13z" />
    <glyph glyph-name="cent.tosf" 
d="M1040 371q-27 -160 -131 -273q-100 -112 -274 -118v-168h-60v170q-192 12 -323 149t-131 369q0 231 129 366q132 138 325 150v135h60v-133q118 -6 212 -67t154 -154l-206 -162l-13 6q-27 258 -147 311v-745q55 -19 115 -19q93 0 163.5 53.5t110.5 137.5zM406 614
q0 -270 169 -378v727q-70 -6 -119.5 -102.5t-49.5 -246.5z" />
    <glyph glyph-name="dollar.tosf" 
d="M1073 410q0 -90 -28 -164t-74 -123t-107.5 -83t-125.5 -49.5t-132 -17.5v-161h-74v163q-198 15 -423 117l-25 426h14q80 -170 193 -307q115 -140 241 -166v526l-47 29q-177 103 -241 160q-144 129 -144 307q0 175 123 283q124 109 309 118v146h74v-148q157 -9 352 -71
l41 -414h-14q-180 357 -379 416v-465q9 -3 51 -29l72 -43l72 -41l61 -41q36 -21 60 -45l49 -47q15 -14 26.5 -29.5t16.5 -25t15 -31.5t15 -31q29 -59 29 -159zM352 1208q0 -71 38 -119t142 -112v430q-77 -5 -128.5 -58t-51.5 -141zM606 39q90 6 146.5 64.5t56.5 154.5
q0 85 -45 142.5t-158 127.5v-489z" />
    <glyph glyph-name="Euro.tosf" 
d="M717 37q67 0 166 123q100 123 192 291h15l-31 -414q-192 -64 -365 -64q-81 0 -155 22.5t-142.5 73.5t-120 126.5t-86.5 188.5t-43 253h-147v57h145v6q0 57 11 158h-156v55h164q47 252 194 387q152 140 347 140q130 0 356 -64l29 -403h-13q-95 170 -196 289
q-99 120 -162 120q-67 0 -122 -122.5t-73 -346.5h420l-10 -55h-414q-4 -126 -4 -149v-15h373l-8 -57h-365q4 -151 24.5 -270t49.5 -188.5t61.5 -105.5t65.5 -36z" />
    <glyph glyph-name="sterling.tosf" 
d="M1032 451h15l-56 -451h-932v88q238 151 238 440q0 90 -29 162l-30 68h-187v57h160q-41 96 -41 193q0 189 129 315q129 129 363 129q151 0 331 -49l43 -352h-16q-88 142 -193 241q-109 103 -204 103q-76 0 -133.5 -57t-57.5 -150q0 -68 60 -182q58 -109 73 -191h283v-57
h-275q2 -10 2 -51q0 -69 -9.5 -116.5t-37.5 -111.5q-58 -130 -266 -262h516q68 0 137 72q67 67 117 162z" />
    <glyph glyph-name="yen.tosf" 
d="M831 1415h357v-12q-78 -62 -115 -113q-45 -62 -88 -149l-215 -424h223v-53h-248v-168h250v-56h-250v-184q0 -118 25 -160q25 -35 131 -82v-14h-657v14q107 47 129 82q26 39 26 160v184h-247v56h247v149l-10 19h-239v53h212l-276 518q-56 103 -127 168v12h592v-12
q-58 -42 -80 -68t-22 -55q0 -34 47 -123l221 -414l192 398q33 62 33 108q0 77 -111 154v12z" />
    <glyph glyph-name="at.case" horiz-adv-x="1544" 
d="M1362 186l127 -135q-84 -47 -254 -94q-151 -45 -317 -45q-359 0 -609 223q-252 225 -252 586q0 342 228 573q229 232 549 232q262 0 426 -156q164 -154 161 -387l-14 -702h-21q-117 102 -182 102q-55 0 -137 -70q-32 -28 -86.5 -48.5t-112.5 -20.5q-171 0 -272 137
q-100 135 -100 342q0 211 110 354q113 146 295 146q168 0 275 -101v29q0 98 -107 211q-104 113 -291 113q-101 3 -202.5 -41t-178.5 -148q-54 -73 -87.5 -198.5t-33.5 -280.5q0 -384 175 -614t460 -230q147 0 263.5 62t187.5 161zM1155 455l16 479q-34 99 -98.5 167
t-136.5 68q-162 0 -162 -374q0 -229 56 -340t147 -111q95 0 178 111z" />
    <glyph glyph-name="bar.case" horiz-adv-x="370" 
d="M219 -199h-63v1821h63v-1821z" />
    <glyph glyph-name="NULL" horiz-adv-x="0" 
 />
    <glyph glyph-name="CR" horiz-adv-x="462" 
 />
    </font>
</defs>
</svg>
