<?xml version="1.0" encoding="UTF-8"?><svg xmlns="http://www.w3.org/2000/svg" xmlns:xlink="http://www.w3.org/1999/xlink" contentScriptType="text/ecmascript" width="187.5" zoomAndPan="magnify" contentStyleType="text/css" viewBox="0 0 187.5 187.499995" height="187.499995" preserveAspectRatio="xMidYMid meet" version="1.0"><defs><clipPath id="clip-0"><path d="M 0 0 L 187 0 L 187 187 L 0 187 Z M 0 0 " clip-rule="nonzero"/></clipPath></defs><g clip-path="url(#clip-0)"><path fill="rgb(3.529358%, 29.019165%, 43.139648%)" d="M 93.75 0 C 41.980469 0 0 41.980469 0 93.75 C 0 145.519531 41.980469 187.5 93.75 187.5 C 145.519531 187.5 187.5 145.519531 187.5 93.75 C 187.5 41.980469 145.519531 0 93.75 0 Z M 93.75 0 " fill-opacity="1" fill-rule="nonzero"/></g><path fill="rgb(94.898987%, 96.859741%, 98.039246%)" d="M 105.351562 54.941406 C 104.179688 53.429688 102.59375 52.675781 100.628906 52.675781 C 98.890625 52.675781 97.71875 53.015625 97.074219 53.65625 C 96.433594 54.339844 95.109375 56.078125 93.03125 58.984375 C 90.953125 61.859375 88.609375 64.464844 85.929688 66.808594 C 83.246094 69.152344 79.691406 71.34375 75.234375 73.457031 C 72.25 74.855469 70.171875 75.988281 68.960938 76.898438 C 67.789062 77.765625 67.1875 79.164062 67.1875 81.054688 C 67.1875 82.679688 67.789062 84.113281 69 85.359375 C 70.207031 86.609375 71.570312 87.210938 73.117188 87.210938 C 76.367188 87.210938 82.679688 83.621094 92.050781 76.40625 L 92.050781 126.777344 C 92.050781 129.722656 92.730469 131.953125 94.089844 133.464844 C 95.449219 134.976562 97.265625 135.730469 99.53125 135.730469 C 104.59375 135.730469 107.125 132.027344 107.125 124.621094 L 107.125 61.214844 C 107.125 58.570312 106.523438 56.453125 105.351562 54.941406 " fill-opacity="1" fill-rule="nonzero"/></svg>