<?xml version="1.0" encoding="UTF-8"?><svg xmlns="http://www.w3.org/2000/svg" xmlns:xlink="http://www.w3.org/1999/xlink" contentScriptType="text/ecmascript" width="187.5" zoomAndPan="magnify" contentStyleType="text/css" viewBox="0 0 187.5 187.499995" height="187.499995" preserveAspectRatio="xMidYMid meet" version="1.0"><defs><clipPath id="clip-0"><path d="M 142 64 L 168 64 L 168 176.765625 L 142 176.765625 Z M 142 64 " clip-rule="nonzero"/></clipPath><clipPath id="clip-1"><path d="M 75 112 L 100 112 L 100 176.765625 L 75 176.765625 Z M 75 112 " clip-rule="nonzero"/></clipPath><clipPath id="clip-2"><path d="M 40 123 L 66 123 L 66 176.765625 L 40 176.765625 Z M 40 123 " clip-rule="nonzero"/></clipPath><clipPath id="clip-3"><path d="M 6.773438 130 L 32 130 L 32 176.765625 L 6.773438 176.765625 Z M 6.773438 130 " clip-rule="nonzero"/></clipPath><clipPath id="clip-4"><path d="M 6.773438 11.015625 L 180.773438 11.015625 L 180.773438 126 L 6.773438 126 Z M 6.773438 11.015625 " clip-rule="nonzero"/></clipPath></defs><g clip-path="url(#clip-0)"><path fill="rgb(0%, 50.19989%, 21.569824%)" d="M 142.78125 176.222656 L 167.699219 176.222656 L 167.699219 64.65625 L 142.78125 87.585938 L 142.78125 176.222656 " fill-opacity="1" fill-rule="nonzero"/></g><path fill="rgb(0%, 50.19989%, 21.569824%)" d="M 108.84375 175.738281 L 133.765625 175.738281 L 133.765625 93.824219 L 108.84375 108.433594 L 108.84375 175.738281 " fill-opacity="1" fill-rule="nonzero"/><g clip-path="url(#clip-1)"><path fill="rgb(0%, 50.19989%, 21.569824%)" d="M 75 176.796875 L 99.921875 176.796875 L 99.921875 112.554688 L 75 120.839844 L 75 176.796875 " fill-opacity="1" fill-rule="nonzero"/></g><g clip-path="url(#clip-2)"><path fill="rgb(0%, 50.19989%, 21.569824%)" d="M 40.199219 176.386719 L 65.117188 176.386719 L 65.117188 123.066406 L 40.199219 128.550781 L 40.199219 176.386719 " fill-opacity="1" fill-rule="nonzero"/></g><g clip-path="url(#clip-3)"><path fill="rgb(0%, 50.19989%, 21.569824%)" d="M 6.816406 176.410156 L 31.738281 176.410156 L 31.738281 130.417969 L 6.90625 135.429688 L 6.816406 176.410156 " fill-opacity="1" fill-rule="nonzero"/></g><g clip-path="url(#clip-4)"><path fill="rgb(100%, 8.628845%, 8.628845%)" d="M 6.90625 125.914062 C 84.332031 121.421875 146.667969 59.769531 155.417969 28.011719 C 153.886719 28.011719 146.175781 27.957031 146.175781 27.957031 L 164.875 11.039062 L 180.789062 29.601562 C 180.789062 29.601562 174.445312 29.542969 172.914062 29.542969 C 161.101562 85.832031 80.394531 128.101562 6.90625 125.914062 " fill-opacity="1" fill-rule="nonzero"/></g></svg>