<?xml version="1.0" encoding="UTF-8"?><svg xmlns="http://www.w3.org/2000/svg" xmlns:xlink="http://www.w3.org/1999/xlink" contentScriptType="text/ecmascript" width="187.5" zoomAndPan="magnify" contentStyleType="text/css" viewBox="0 0 187.5 187.499995" height="187.499995" preserveAspectRatio="xMidYMid meet" version="1.0"><defs><clipPath id="clip-0"><path d="M 19 53 L 178 53 L 178 168.117188 L 19 168.117188 Z M 19 53 " clip-rule="nonzero"/></clipPath><clipPath id="clip-1"><path d="M 55 165 L 145 165 L 145 168.117188 L 55 168.117188 Z M 55 165 " clip-rule="nonzero"/></clipPath><clipPath id="clip-2"><path d="M 80 19.617188 L 103 19.617188 L 103 41 L 80 41 Z M 80 19.617188 " clip-rule="nonzero"/></clipPath><clipPath id="clip-3"><path d="M 52 162 L 147 162 L 147 168.117188 L 52 168.117188 Z M 52 162 " clip-rule="nonzero"/></clipPath><clipPath id="clip-4"><path d="M 153 45 L 184.910156 45 L 184.910156 75 L 153 75 Z M 153 45 " clip-rule="nonzero"/></clipPath></defs><g clip-path="url(#clip-0)"><path fill="rgb(100%, 100%, 100%)" d="M 177.636719 286.699219 L 128.679688 186.617188 L 134.839844 186.617188 C 141.382812 186.617188 146.707031 181.289062 146.707031 174.746094 C 146.707031 172.144531 145.859375 169.742188 144.4375 167.785156 L 149.4375 167.785156 C 158.914062 167.785156 166.625 160.070312 166.625 150.589844 L 166.625 89.28125 C 166.625 79.796875 158.914062 72.085938 149.4375 72.085938 L 126.304688 72.085938 C 124.960938 64.582031 119.75 53.371094 107.082031 53.371094 L 92.902344 53.371094 C 80.234375 53.371094 75.023438 64.578125 73.675781 72.085938 L 69.070312 72.085938 C 68.261719 67.167969 65.558594 63.796875 62.171875 63.796875 L 45.511719 63.796875 C 41.984375 63.796875 39.203125 67.453125 38.527344 72.703125 C 31.222656 74.683594 25.832031 81.355469 25.832031 89.28125 L 25.832031 150.589844 C 25.832031 160.070312 33.539062 167.785156 43.015625 167.785156 L 55.203125 167.785156 C 53.78125 169.742188 52.929688 172.144531 52.929688 174.746094 C 52.929688 181.289062 58.253906 186.617188 64.796875 186.617188 L 68.539062 186.617188 L 19.585938 286.699219 C 19.421875 287.035156 19.335938 287.402344 19.335938 287.777344 C 19.335938 292.425781 19.335938 296.441406 24.941406 298.9375 C 26.738281 299.738281 28.226562 300.109375 29.632812 300.109375 C 33.179688 300.109375 35.671875 297.730469 38.804688 294.375 C 38.972656 294.195312 39.113281 293.984375 39.222656 293.761719 L 90.53125 186.617188 L 106.695312 186.617188 L 157.996094 293.761719 C 158.105469 293.984375 158.246094 294.195312 158.417969 294.375 C 161.550781 297.730469 164.042969 300.109375 167.589844 300.109375 C 168.996094 300.109375 170.484375 299.738281 172.28125 298.9375 C 177.886719 296.441406 177.886719 292.425781 177.886719 287.777344 C 177.886719 287.402344 177.800781 287.035156 177.636719 286.699219 " fill-opacity="1" fill-rule="nonzero"/></g><path fill="rgb(81.17981%, 82.348633%, 81.568909%)" d="M 153.546875 74.960938 L 153.546875 154.121094 L 37.773438 154.121094 L 37.773438 75.289062 C 32.273438 77.160156 28.285156 82.378906 28.285156 88.488281 L 28.285156 151.382812 C 28.285156 159.054688 34.558594 165.328125 42.222656 165.328125 L 150.230469 165.328125 C 157.898438 165.328125 164.171875 159.054688 164.171875 151.382812 L 164.171875 88.488281 C 164.171875 81.964844 159.621094 76.460938 153.546875 74.960938 " fill-opacity="1" fill-rule="nonzero"/><g clip-path="url(#clip-1)"><path fill="rgb(81.17981%, 82.348633%, 81.568909%)" d="M 144.230469 174.261719 C 143.976562 169.304688 139.855469 165.328125 134.84375 165.328125 L 64.796875 165.328125 C 59.785156 165.328125 55.664062 169.304688 55.410156 174.261719 L 144.230469 174.261719 " fill-opacity="1" fill-rule="nonzero"/></g><path fill="rgb(94.119263%, 52.938843%, 7.449341%)" d="M 53.105469 86.523438 L 41.371094 86.523438 C 39.050781 86.523438 37.152344 88.421875 37.152344 90.742188 C 37.152344 93.0625 39.050781 94.960938 41.371094 94.960938 L 53.105469 94.960938 C 55.425781 94.960938 57.324219 93.0625 57.324219 90.742188 C 57.324219 88.421875 55.425781 86.523438 53.105469 86.523438 " fill-opacity="1" fill-rule="nonzero"/><path fill="rgb(100%, 100%, 100%)" d="M 57.3125 90.484375 C 57.175781 88.28125 55.339844 86.523438 53.105469 86.523438 L 41.371094 86.523438 C 39.136719 86.523438 37.304688 88.28125 37.167969 90.484375 L 57.3125 90.484375 " fill-opacity="1" fill-rule="nonzero"/><path fill="rgb(67.059326%, 66.268921%, 66.268921%)" d="M 98.199219 146.179688 C 83.273438 146.179688 71.171875 134.074219 71.171875 119.144531 C 71.171875 104.210938 83.273438 92.105469 98.199219 92.105469 C 113.125 92.105469 125.222656 104.210938 125.222656 119.144531 C 125.222656 134.074219 113.125 146.179688 98.199219 146.179688 Z M 98.199219 83.394531 C 78.460938 83.394531 62.464844 99.398438 62.464844 119.144531 C 62.464844 138.886719 78.460938 154.894531 98.199219 154.894531 C 117.933594 154.894531 133.933594 138.886719 133.933594 119.144531 C 133.933594 99.398438 117.933594 83.394531 98.199219 83.394531 " fill-opacity="1" fill-rule="nonzero"/><path fill="rgb(81.17981%, 82.348633%, 81.568909%)" d="M 98.199219 89.492188 C 81.828125 89.492188 68.558594 102.769531 68.558594 119.144531 C 68.558594 135.519531 81.828125 148.792969 98.199219 148.792969 C 114.566406 148.792969 127.835938 135.519531 127.835938 119.144531 C 127.835938 102.769531 114.566406 89.492188 98.199219 89.492188 " fill-opacity="1" fill-rule="nonzero"/><path fill="rgb(94.898987%, 31.759644%, 44.709778%)" d="M 34.503906 41.195312 C 34.371094 39.285156 33.78125 37.601562 32.765625 36.203125 C 32.699219 36.101562 32.625 36.007812 32.554688 35.921875 C 31.371094 34.496094 29.417969 32.683594 26.824219 32.167969 C 26.28125 32.0625 25.726562 32.007812 25.179688 32.007812 C 23.71875 32.007812 22.253906 32.390625 20.832031 33.140625 C 20.125 33.515625 19.425781 33.992188 18.757812 34.554688 C 17.65625 33.640625 16.453125 32.941406 15.179688 32.460938 C 14.335938 32.148438 13.441406 31.988281 12.515625 31.988281 C 11.046875 31.988281 9.5625 32.386719 8.21875 33.136719 C 6.648438 34.011719 5.199219 35.394531 4.339844 36.832031 C 3.6875 37.921875 3.292969 39.175781 3.089844 40.773438 C 2.863281 42.601562 3.222656 44.566406 4.1875 46.785156 C 5.3125 49.355469 17.90625 61.652344 18.777344 61.652344 C 19.394531 61.652344 28.195312 53.726562 32.574219 47.519531 C 34.355469 44.996094 34.574219 42.171875 34.503906 41.195312 " fill-opacity="1" fill-rule="nonzero"/><g clip-path="url(#clip-2)"><path fill="rgb(94.898987%, 31.759644%, 44.709778%)" d="M 102.613281 26.152344 C 102.515625 24.796875 102.097656 23.601562 101.375 22.605469 L 101.226562 22.40625 C 100.386719 21.394531 99 20.109375 97.15625 19.742188 C 96.769531 19.664062 96.378906 19.628906 95.988281 19.628906 C 94.949219 19.628906 93.910156 19.898438 92.902344 20.433594 C 92.398438 20.699219 91.902344 21.035156 91.429688 21.4375 C 90.644531 20.789062 89.792969 20.289062 88.886719 19.953125 C 88.289062 19.730469 87.652344 19.617188 86.992188 19.617188 C 85.953125 19.617188 84.898438 19.898438 83.945312 20.429688 C 82.828125 21.050781 81.796875 22.03125 81.1875 23.054688 C 80.726562 23.828125 80.445312 24.71875 80.300781 25.851562 C 80.140625 27.152344 80.394531 28.546875 81.082031 30.121094 C 81.878906 31.949219 90.824219 40.683594 91.441406 40.683594 C 91.878906 40.683594 98.132812 35.050781 101.238281 30.644531 C 102.503906 28.851562 102.660156 26.847656 102.613281 26.152344 " fill-opacity="1" fill-rule="nonzero"/></g><path fill="rgb(26.269531%, 25.099182%, 23.529053%)" d="M 43.015625 77 C 36.246094 77 30.738281 82.507812 30.738281 89.28125 L 30.738281 150.589844 C 30.738281 157.363281 36.246094 162.875 43.015625 162.875 L 149.4375 162.875 C 156.207031 162.875 161.714844 157.363281 161.714844 150.589844 L 161.714844 89.28125 C 161.714844 82.507812 156.207031 77 149.4375 77 Z M 149.4375 167.785156 L 43.015625 167.785156 C 33.539062 167.785156 25.832031 160.070312 25.832031 150.589844 L 25.832031 89.28125 C 25.832031 79.796875 33.539062 72.085938 43.015625 72.085938 L 149.4375 72.085938 C 158.914062 72.085938 166.625 79.796875 166.625 89.28125 L 166.625 150.589844 C 166.625 160.070312 158.914062 167.785156 149.4375 167.785156 " fill-opacity="1" fill-rule="nonzero"/><path fill="rgb(26.269531%, 25.099182%, 23.529053%)" d="M 41.371094 88.980469 C 40.414062 88.980469 39.609375 89.789062 39.609375 90.742188 C 39.609375 91.714844 40.398438 92.507812 41.371094 92.507812 L 53.105469 92.507812 C 54.078125 92.507812 54.867188 91.714844 54.867188 90.742188 C 54.867188 89.789062 54.0625 88.980469 53.105469 88.980469 Z M 53.105469 97.417969 L 41.371094 97.417969 C 37.691406 97.417969 34.695312 94.421875 34.695312 90.742188 C 34.695312 87.0625 37.691406 84.070312 41.371094 84.070312 L 53.105469 84.070312 C 56.785156 84.070312 59.777344 87.0625 59.777344 90.742188 C 59.777344 94.421875 56.785156 97.417969 53.105469 97.417969 " fill-opacity="1" fill-rule="nonzero"/><path fill="rgb(26.269531%, 25.099182%, 23.529053%)" d="M 98.199219 85.847656 C 79.847656 85.847656 64.917969 100.785156 64.917969 119.144531 C 64.917969 137.5 79.847656 152.4375 98.199219 152.4375 C 116.550781 152.4375 131.480469 137.5 131.480469 119.144531 C 131.480469 100.785156 116.550781 85.847656 98.199219 85.847656 Z M 98.199219 157.347656 C 77.140625 157.347656 60.007812 140.210938 60.007812 119.144531 C 60.007812 98.074219 77.140625 80.9375 98.199219 80.9375 C 119.257812 80.9375 136.390625 98.074219 136.390625 119.144531 C 136.390625 140.210938 119.257812 157.347656 98.199219 157.347656 " fill-opacity="1" fill-rule="nonzero"/><path fill="rgb(100%, 100%, 100%)" d="M 121.382812 119.144531 C 121.382812 106.332031 111.003906 95.949219 98.199219 95.949219 C 85.394531 95.949219 75.015625 106.332031 75.015625 119.144531 C 75.015625 131.949219 85.394531 142.335938 98.199219 142.335938 C 111.003906 142.335938 121.382812 131.949219 121.382812 119.144531 " fill-opacity="1" fill-rule="nonzero"/><path fill="rgb(26.269531%, 25.099182%, 23.529053%)" d="M 98.199219 98.40625 C 86.769531 98.40625 77.46875 107.707031 77.46875 119.144531 C 77.46875 130.578125 86.769531 139.878906 98.199219 139.878906 C 109.628906 139.878906 118.925781 130.578125 118.925781 119.144531 C 118.925781 107.707031 109.628906 98.40625 98.199219 98.40625 Z M 98.199219 144.792969 C 84.058594 144.792969 72.558594 133.285156 72.558594 119.144531 C 72.558594 105 84.058594 93.492188 98.199219 93.492188 C 112.335938 93.492188 123.835938 105 123.835938 119.144531 C 123.835938 133.285156 112.335938 144.792969 98.199219 144.792969 " fill-opacity="1" fill-rule="nonzero"/><path fill="rgb(26.269531%, 25.099182%, 23.529053%)" d="M 114.9375 119.144531 C 114.9375 109.894531 107.445312 102.394531 98.199219 102.394531 C 88.953125 102.394531 81.460938 109.894531 81.460938 119.144531 C 81.460938 128.394531 88.953125 135.890625 98.199219 135.890625 C 107.445312 135.890625 114.9375 128.394531 114.9375 119.144531 " fill-opacity="1" fill-rule="nonzero"/><path fill="rgb(26.269531%, 25.099182%, 23.529053%)" d="M 98.199219 104.851562 C 90.320312 104.851562 83.914062 111.261719 83.914062 119.144531 C 83.914062 127.023438 90.320312 133.433594 98.199219 133.433594 C 106.074219 133.433594 112.484375 127.023438 112.484375 119.144531 C 112.484375 111.261719 106.074219 104.851562 98.199219 104.851562 Z M 98.199219 138.34375 C 87.613281 138.34375 79.003906 129.730469 79.003906 119.144531 C 79.003906 108.554688 87.613281 99.9375 98.199219 99.9375 C 108.78125 99.9375 117.390625 108.554688 117.390625 119.144531 C 117.390625 129.730469 108.78125 138.34375 98.199219 138.34375 " fill-opacity="1" fill-rule="nonzero"/><path fill="rgb(100%, 100%, 100%)" d="M 95.058594 110.515625 C 95.058594 108.515625 93.4375 106.890625 91.4375 106.890625 C 89.4375 106.890625 87.816406 108.515625 87.816406 110.515625 C 87.816406 112.515625 89.4375 114.136719 91.4375 114.136719 C 93.4375 114.136719 95.058594 112.515625 95.058594 110.515625 " fill-opacity="1" fill-rule="nonzero"/><path fill="rgb(100%, 100%, 100%)" d="M 88.777344 118.359375 C 88.777344 117.269531 87.894531 116.386719 86.808594 116.386719 C 85.71875 116.386719 84.835938 117.269531 84.835938 118.359375 C 84.835938 119.449219 85.71875 120.328125 86.808594 120.328125 C 87.894531 120.328125 88.777344 119.449219 88.777344 118.359375 " fill-opacity="1" fill-rule="nonzero"/><path fill="rgb(26.269531%, 25.099182%, 23.529053%)" d="M 78.699219 72.085938 L 121.273438 72.085938 C 120.242188 67.410156 116.957031 58.285156 107.082031 58.285156 L 92.902344 58.285156 C 82.976562 58.285156 79.714844 67.410156 78.699219 72.085938 Z M 124.164062 77 L 75.820312 77 C 75.132812 77 74.476562 76.710938 74.011719 76.203125 C 73.546875 75.695312 73.3125 75.015625 73.375 74.332031 C 74.003906 67.082031 78.890625 53.371094 92.902344 53.371094 L 107.082031 53.371094 C 121.09375 53.371094 125.980469 67.082031 126.609375 74.332031 C 126.667969 75.015625 126.4375 75.695312 125.972656 76.203125 C 125.507812 76.710938 124.851562 77 124.164062 77 " fill-opacity="1" fill-rule="nonzero"/><path fill="rgb(26.269531%, 25.099182%, 23.529053%)" d="M 78.699219 72.085938 L 121.273438 72.085938 C 120.242188 67.410156 116.957031 58.285156 107.082031 58.285156 L 92.902344 58.285156 C 82.976562 58.285156 79.714844 67.410156 78.699219 72.085938 Z M 124.164062 77 L 75.820312 77 C 75.132812 77 74.476562 76.710938 74.011719 76.203125 C 73.546875 75.695312 73.3125 75.015625 73.375 74.332031 C 74.003906 67.082031 78.890625 53.371094 92.902344 53.371094 L 107.082031 53.371094 C 121.09375 53.371094 125.980469 67.082031 126.609375 74.332031 C 126.667969 75.015625 126.4375 75.695312 125.972656 76.203125 C 125.507812 76.710938 124.851562 77 124.164062 77 " fill-opacity="1" fill-rule="nonzero"/><path fill="rgb(26.269531%, 25.099182%, 23.529053%)" d="M 83.980469 68.304688 C 84.074219 68.109375 84.171875 67.917969 84.269531 67.726562 C 86.910156 62.65625 90.460938 62.066406 92.902344 62.066406 L 107.082031 62.066406 C 109.523438 62.066406 113.074219 62.65625 115.710938 67.726562 C 115.8125 67.917969 115.910156 68.109375 116 68.304688 L 83.980469 68.304688 " fill-opacity="1" fill-rule="nonzero"/><path fill="rgb(26.269531%, 25.099182%, 23.529053%)" d="M 88.769531 65.847656 L 111.210938 65.847656 C 109.832031 64.730469 108.390625 64.523438 107.082031 64.523438 L 92.902344 64.523438 C 91.589844 64.523438 90.152344 64.730469 88.769531 65.847656 Z M 116.015625 70.757812 L 83.980469 70.757812 C 83.140625 70.757812 82.355469 70.328125 81.90625 69.617188 C 81.457031 68.902344 81.402344 68.011719 81.765625 67.25 C 81.867188 67.03125 81.980469 66.808594 82.09375 66.589844 C 84.535156 61.894531 88.074219 59.609375 92.902344 59.609375 L 107.082031 59.609375 C 111.910156 59.609375 115.445312 61.894531 117.890625 66.589844 C 117.960938 66.726562 118.03125 66.859375 118.097656 66.996094 C 118.335938 67.375 118.472656 67.824219 118.472656 68.304688 C 118.472656 69.660156 117.375 70.757812 116.015625 70.757812 " fill-opacity="1" fill-rule="nonzero"/><g clip-path="url(#clip-3)"><path fill="rgb(26.269531%, 25.099182%, 23.529053%)" d="M 64.796875 167.785156 C 60.964844 167.785156 57.84375 170.90625 57.84375 174.746094 C 57.84375 178.582031 60.964844 181.703125 64.796875 181.703125 L 134.839844 181.703125 C 138.675781 181.703125 141.796875 178.582031 141.796875 174.746094 C 141.796875 170.90625 138.675781 167.785156 134.839844 167.785156 Z M 134.839844 186.617188 L 64.796875 186.617188 C 58.253906 186.617188 52.929688 181.289062 52.929688 174.746094 C 52.929688 168.199219 58.253906 162.875 64.796875 162.875 L 134.839844 162.875 C 141.382812 162.875 146.707031 168.199219 146.707031 174.746094 C 146.707031 181.289062 141.382812 186.617188 134.839844 186.617188 " fill-opacity="1" fill-rule="nonzero"/></g><path fill="rgb(26.269531%, 25.099182%, 23.529053%)" d="M 43.621094 72.085938 L 64.0625 72.085938 C 63.53125 69.890625 62.546875 68.710938 62.171875 68.710938 L 45.511719 68.710938 C 45.136719 68.710938 44.148438 69.890625 43.621094 72.085938 Z M 66.855469 77 L 40.828125 77 C 40.160156 77 39.523438 76.726562 39.058594 76.246094 C 38.597656 75.765625 38.347656 75.121094 38.375 74.453125 C 38.601562 68.28125 41.601562 63.796875 45.511719 63.796875 L 62.171875 63.796875 C 66.078125 63.796875 69.078125 68.28125 69.308594 74.453125 C 69.332031 75.121094 69.085938 75.765625 68.621094 76.246094 C 68.160156 76.726562 67.519531 77 66.855469 77 " fill-opacity="1" fill-rule="nonzero"/><g clip-path="url(#clip-4)"><path fill="rgb(94.898987%, 31.759644%, 44.709778%)" d="M 184.699219 54.191406 C 184.5625 52.289062 183.980469 50.617188 182.96875 49.222656 C 182.902344 49.125 182.828125 49.03125 182.757812 48.945312 C 181.582031 47.527344 179.640625 45.726562 177.054688 45.214844 C 176.515625 45.105469 175.964844 45.050781 175.417969 45.050781 C 173.964844 45.050781 172.511719 45.429688 171.097656 46.175781 C 170.390625 46.550781 169.699219 47.027344 169.03125 47.585938 C 167.933594 46.675781 166.742188 45.976562 165.46875 45.503906 C 164.632812 45.191406 163.742188 45.035156 162.820312 45.035156 C 161.363281 45.035156 159.886719 45.425781 158.550781 46.171875 C 156.984375 47.042969 155.542969 48.417969 154.6875 49.847656 C 154.039062 50.9375 153.644531 52.183594 153.445312 53.773438 C 153.21875 55.589844 153.578125 57.546875 154.539062 59.75 C 155.65625 62.3125 168.183594 74.542969 169.050781 74.542969 C 169.667969 74.542969 178.421875 66.65625 182.777344 60.484375 C 184.546875 57.972656 184.765625 55.164062 184.699219 54.191406 " fill-opacity="1" fill-rule="nonzero"/></g></svg>