<?xml version="1.0" encoding="UTF-8"?><svg xmlns="http://www.w3.org/2000/svg" xmlns:xlink="http://www.w3.org/1999/xlink" contentScriptType="text/ecmascript" width="187.5" zoomAndPan="magnify" contentStyleType="text/css" viewBox="0 0 187.5 187.499995" height="187.499995" preserveAspectRatio="xMidYMid meet" version="1.0"><defs><clipPath id="clip-0"><path d="M 25.777344 99 L 107 99 L 107 178.125 L 25.777344 178.125 Z M 25.777344 99 " clip-rule="nonzero"/></clipPath><clipPath id="clip-1"><path d="M 97 9.375 L 100 9.375 L 100 28 L 97 28 Z M 97 9.375 " clip-rule="nonzero"/></clipPath><clipPath id="clip-2"><path d="M 142 67 L 161.523438 67 L 161.523438 71 L 142 71 Z M 142 67 " clip-rule="nonzero"/></clipPath></defs><path fill="rgb(100%, 87.059021%, 34.899902%)" d="M 93.058594 39.550781 C 91.003906 40.613281 89.027344 41.960938 87.015625 42.824219 C 86.867188 42.890625 86.722656 42.90625 86.582031 42.894531 L 86.5625 42.90625 C 86.4375 42.976562 86.292969 42.996094 86.160156 42.976562 L 89.144531 46.246094 L 93.058594 39.550781 " fill-opacity="1" fill-rule="nonzero"/><path fill="rgb(100%, 87.059021%, 34.899902%)" d="M 95.738281 64.179688 C 94.519531 64.714844 93.03125 65.0625 91.246094 65.0625 C 89.625 65.0625 87.765625 64.777344 85.632812 64.097656 C 86.566406 65.058594 87.476562 66.179688 88.261719 67.476562 C 89.292969 69.1875 90.101562 71.207031 90.460938 73.53125 L 95.84375 64.132812 C 95.804688 64.148438 95.773438 64.164062 95.738281 64.179688 " fill-opacity="1" fill-rule="nonzero"/><path fill="rgb(100%, 87.059021%, 34.899902%)" d="M 127.046875 66.535156 L 124.328125 70.34375 L 111.332031 89.34375 C 110.828125 90.082031 110.601562 90.886719 110.601562 91.6875 C 110.597656 92.636719 110.925781 93.566406 111.507812 94.300781 C 112.09375 95.035156 112.917969 95.574219 113.957031 95.761719 C 114.476562 95.859375 115.054688 95.9375 115.695312 96 C 116.105469 96.039062 116.410156 96.40625 116.371094 96.816406 C 116.328125 97.230469 115.964844 97.535156 115.550781 97.492188 C 114.875 97.429688 114.253906 97.34375 113.6875 97.242188 C 112.285156 96.988281 111.125 96.238281 110.335938 95.234375 C 109.539062 94.234375 109.101562 92.980469 109.101562 91.6875 C 109.101562 91.683594 109.101562 91.679688 109.101562 91.671875 L 107.832031 93.453125 C 107.273438 94.234375 106.539062 94.832031 105.710938 95.226562 C 104.886719 95.625 103.96875 95.820312 103.035156 95.820312 C 101.628906 95.820312 100.175781 95.375 98.910156 94.464844 L 98.828125 94.410156 C 96.929688 93.046875 95.871094 90.964844 95.871094 88.894531 C 95.871094 87.753906 96.199219 86.613281 96.894531 85.640625 L 96.890625 85.640625 L 97.488281 84.769531 C 96.578125 85.183594 95.628906 85.410156 94.675781 85.410156 C 93.632812 85.410156 92.597656 85.132812 91.648438 84.5625 C 90.648438 83.957031 89.875 83.105469 89.359375 82.117188 C 88.84375 81.132812 88.582031 80.015625 88.582031 78.871094 C 88.582031 77.597656 88.910156 76.285156 89.582031 75.070312 C 89.3125 74.980469 89.105469 74.742188 89.074219 74.441406 C 88.816406 72.070312 88.046875 70.050781 87.027344 68.335938 C 86.007812 66.621094 84.734375 65.214844 83.476562 64.101562 C 82.523438 63.253906 81.578125 62.578125 80.769531 62.058594 C 79.984375 61.660156 79.171875 61.21875 78.324219 60.722656 C 77.984375 60.527344 77.855469 60.09375 78.03125 59.742188 C 78.207031 59.390625 78.628906 59.230469 78.992188 59.382812 C 79.023438 59.394531 80.0625 59.832031 81.511719 60.753906 C 85.621094 62.832031 88.8125 63.5625 91.246094 63.558594 C 92.8125 63.558594 94.070312 63.261719 95.09375 62.824219 C 96.113281 62.386719 96.894531 61.808594 97.496094 61.21875 C 98.28125 60.449219 98.742188 59.671875 98.96875 59.21875 L 84.738281 43.648438 C 84.460938 43.34375 84.480469 42.867188 84.785156 42.585938 C 84.9375 42.445312 85.132812 42.382812 85.328125 42.390625 L 83.335938 40.664062 C 80.257812 37.992188 75.824219 37.578125 72.308594 39.640625 L 66.195312 43.21875 C 62.996094 45.09375 61.257812 48.730469 61.808594 52.402344 L 68.097656 94.335938 L 68.121094 94.410156 L 65.050781 100.5 L 102.460938 119.394531 L 104.519531 108.960938 C 123.152344 97.945312 129.003906 82.84375 130.71875 74.898438 C 131.246094 72.453125 130.644531 69.902344 129.070312 67.960938 C 128.535156 67.304688 127.832031 66.8125 127.046875 66.535156 " fill-opacity="1" fill-rule="nonzero"/><path fill="rgb(100%, 87.059021%, 34.899902%)" d="M 108.0625 46.933594 L 100.53125 59.410156 C 100.4375 59.640625 100.140625 60.335938 99.511719 61.179688 C 99.296875 61.472656 99.035156 61.78125 98.738281 62.089844 L 91.015625 75.578125 L 91.007812 75.589844 C 90.378906 76.640625 90.078125 77.78125 90.078125 78.871094 C 90.078125 79.785156 90.292969 80.664062 90.6875 81.421875 C 91.085938 82.179688 91.664062 82.816406 92.421875 83.273438 C 93.140625 83.707031 93.894531 83.90625 94.675781 83.90625 C 95.59375 83.90625 96.5625 83.628906 97.515625 83.070312 C 98.46875 82.515625 99.402344 81.683594 100.238281 80.617188 C 100.300781 80.535156 100.378906 80.46875 100.464844 80.421875 L 118.230469 54.476562 C 118.417969 54.199219 118.757812 54.09375 119.0625 54.183594 C 119.488281 52.125 119.429688 46.933594 112.011719 45.152344 C 110.613281 44.816406 109.238281 45.417969 108.050781 46.140625 C 108.199219 46.375 108.214844 46.679688 108.0625 46.933594 " fill-opacity="1" fill-rule="nonzero"/><path fill="rgb(100%, 87.059021%, 34.899902%)" d="M 98.128906 86.488281 L 98.121094 86.5 C 97.613281 87.210938 97.371094 88.035156 97.367188 88.894531 C 97.367188 90.445312 98.179688 92.097656 99.703125 93.1875 L 99.78125 93.246094 C 100.796875 93.972656 101.945312 94.320312 103.035156 94.320312 C 103.757812 94.320312 104.453125 94.164062 105.0625 93.871094 C 105.675781 93.578125 106.203125 93.148438 106.609375 92.578125 L 123.09375 69.492188 L 125.554688 65.894531 C 125.628906 65.785156 125.726562 65.707031 125.835938 65.652344 L 126.171875 65.179688 C 126.183594 65.164062 126.199219 65.152344 126.210938 65.136719 C 126.21875 65.109375 126.21875 65.082031 126.230469 65.050781 C 128.757812 58.414062 123.394531 55.960938 119.582031 55.058594 C 119.5625 55.152344 119.523438 55.242188 119.464844 55.324219 L 98.128906 86.488281 " fill-opacity="1" fill-rule="nonzero"/><path fill="rgb(100%, 87.059021%, 34.899902%)" d="M 94.914062 39.351562 L 90.203125 47.40625 L 99.730469 57.828125 L 106.777344 46.15625 C 106.921875 45.921875 107.167969 45.792969 107.425781 45.796875 C 107.257812 41.3125 103.582031 37.722656 99.0625 37.722656 C 97.878906 37.722656 96.753906 37.972656 95.730469 38.414062 C 95.472656 38.496094 95.214844 38.589844 94.957031 38.6875 C 95.042969 38.898438 95.035156 39.140625 94.914062 39.351562 " fill-opacity="1" fill-rule="nonzero"/><path fill="rgb(67.449951%, 47.059631%, 35.688782%)" d="M 90.460938 73.53125 C 90.101562 71.207031 89.292969 69.1875 88.261719 67.476562 C 87.476562 66.179688 86.566406 65.058594 85.632812 64.097656 C 87.765625 64.777344 89.625 65.0625 91.246094 65.0625 C 93.03125 65.0625 94.519531 64.714844 95.738281 64.179688 C 95.773438 64.164062 95.804688 64.148438 95.84375 64.132812 Z M 84.785156 42.585938 C 84.480469 42.867188 84.460938 43.34375 84.738281 43.648438 L 98.96875 59.21875 C 98.742188 59.671875 98.28125 60.449219 97.496094 61.21875 C 96.894531 61.808594 96.113281 62.386719 95.09375 62.824219 C 94.070312 63.261719 92.8125 63.558594 91.246094 63.558594 C 88.8125 63.5625 85.621094 62.832031 81.511719 60.753906 C 80.0625 59.832031 79.023438 59.394531 78.992188 59.382812 C 78.628906 59.230469 78.207031 59.390625 78.03125 59.742188 C 77.855469 60.09375 77.984375 60.527344 78.324219 60.722656 C 79.171875 61.21875 79.984375 61.660156 80.769531 62.058594 C 81.578125 62.578125 82.523438 63.253906 83.476562 64.101562 C 84.734375 65.214844 86.007812 66.621094 87.027344 68.335938 C 88.046875 70.050781 88.816406 72.070312 89.074219 74.441406 C 89.105469 74.742188 89.3125 74.980469 89.582031 75.070312 C 88.910156 76.285156 88.582031 77.597656 88.582031 78.871094 C 88.582031 80.015625 88.84375 81.132812 89.359375 82.117188 C 89.875 83.105469 90.648438 83.957031 91.648438 84.5625 C 92.597656 85.132812 93.632812 85.410156 94.675781 85.410156 C 95.628906 85.410156 96.578125 85.183594 97.488281 84.769531 L 96.890625 85.640625 L 96.894531 85.640625 C 96.199219 86.613281 95.871094 87.753906 95.871094 88.894531 C 95.871094 90.964844 96.929688 93.046875 98.828125 94.410156 L 98.910156 94.464844 C 100.175781 95.375 101.628906 95.820312 103.035156 95.820312 C 103.96875 95.820312 104.886719 95.625 105.710938 95.226562 C 106.539062 94.832031 107.273438 94.234375 107.832031 93.453125 L 109.101562 91.671875 C 109.101562 91.679688 109.101562 91.683594 109.101562 91.6875 C 109.101562 92.980469 109.539062 94.234375 110.335938 95.234375 C 111.125 96.238281 112.285156 96.988281 113.6875 97.242188 C 114.253906 97.34375 114.875 97.429688 115.550781 97.492188 C 115.964844 97.535156 116.328125 97.230469 116.371094 96.816406 C 116.410156 96.40625 116.105469 96.039062 115.695312 96 C 115.054688 95.9375 114.476562 95.859375 113.957031 95.761719 C 112.917969 95.574219 112.09375 95.035156 111.507812 94.300781 C 110.925781 93.566406 110.597656 92.636719 110.601562 91.6875 C 110.601562 90.886719 110.828125 90.082031 111.332031 89.34375 L 124.328125 70.34375 L 127.046875 66.535156 L 127.390625 66.054688 C 127.632812 65.714844 127.554688 65.246094 127.21875 65.007812 C 126.894531 64.777344 126.457031 64.839844 126.210938 65.136719 C 126.199219 65.152344 126.183594 65.164062 126.171875 65.179688 L 125.835938 65.652344 C 125.726562 65.707031 125.628906 65.785156 125.554688 65.894531 L 123.09375 69.492188 L 106.609375 92.578125 C 106.203125 93.148438 105.675781 93.578125 105.0625 93.871094 C 104.453125 94.164062 103.757812 94.320312 103.035156 94.320312 C 101.945312 94.320312 100.796875 93.972656 99.78125 93.246094 L 99.703125 93.1875 C 98.179688 92.097656 97.367188 90.445312 97.367188 88.894531 C 97.371094 88.035156 97.613281 87.210938 98.121094 86.5 L 98.128906 86.488281 L 119.464844 55.324219 C 119.523438 55.242188 119.5625 55.152344 119.582031 55.058594 C 119.644531 54.769531 119.53125 54.460938 119.273438 54.28125 C 119.207031 54.234375 119.132812 54.207031 119.0625 54.183594 C 118.757812 54.09375 118.417969 54.199219 118.230469 54.476562 L 100.464844 80.421875 C 100.378906 80.46875 100.300781 80.535156 100.238281 80.617188 C 99.402344 81.683594 98.46875 82.515625 97.515625 83.070312 C 96.5625 83.628906 95.59375 83.90625 94.675781 83.90625 C 93.894531 83.90625 93.140625 83.707031 92.421875 83.273438 C 91.664062 82.816406 91.085938 82.179688 90.6875 81.421875 C 90.292969 80.664062 90.078125 79.785156 90.078125 78.871094 C 90.078125 77.78125 90.378906 76.640625 91.007812 75.589844 L 91.015625 75.578125 L 98.738281 62.089844 C 99.035156 61.78125 99.296875 61.472656 99.511719 61.179688 C 100.140625 60.335938 100.4375 59.640625 100.53125 59.410156 L 108.0625 46.933594 C 108.214844 46.679688 108.199219 46.375 108.050781 46.140625 C 107.988281 46.046875 107.910156 45.964844 107.808594 45.902344 C 107.6875 45.828125 107.554688 45.796875 107.425781 45.796875 C 107.167969 45.792969 106.921875 45.921875 106.777344 46.15625 L 99.730469 57.828125 L 90.203125 47.40625 L 94.914062 39.351562 C 95.035156 39.140625 95.042969 38.898438 94.957031 38.6875 C 94.898438 38.542969 94.792969 38.410156 94.644531 38.324219 C 94.289062 38.113281 93.828125 38.234375 93.621094 38.589844 L 93.058594 39.550781 L 89.144531 46.246094 L 86.160156 42.976562 L 85.84375 42.632812 C 85.707031 42.480469 85.519531 42.398438 85.328125 42.390625 C 85.132812 42.382812 84.9375 42.445312 84.785156 42.585938 " fill-opacity="1" fill-rule="nonzero"/><g clip-path="url(#clip-0)"><path fill="rgb(79.60968%, 42.349243%, 90.19928%)" d="M 63.003906 99.464844 L 25.785156 178.117188 L 99.695312 178.117188 L 106.359375 121.363281 L 102.460938 119.394531 L 65.050781 100.5 L 63.003906 99.464844 " fill-opacity="1" fill-rule="nonzero"/></g><path fill="rgb(67.449951%, 47.059631%, 35.688782%)" d="M 120.714844 36.582031 C 124.03125 30.847656 127.347656 25.113281 130.664062 19.378906 C 131.269531 18.332031 129.648438 17.382812 129.042969 18.429688 C 125.730469 24.164062 122.414062 29.898438 119.097656 35.632812 C 118.492188 36.679688 120.109375 37.625 120.714844 36.582031 " fill-opacity="1" fill-rule="nonzero"/><g clip-path="url(#clip-1)"><path fill="rgb(67.449951%, 47.059631%, 35.688782%)" d="M 99.222656 26.972656 C 98.738281 21.5 98.789062 16.035156 99.371094 10.574219 C 99.5 9.371094 97.625 9.382812 97.5 10.574219 C 96.914062 16.035156 96.867188 21.5 97.347656 26.972656 C 97.453125 28.164062 99.328125 28.175781 99.222656 26.972656 " fill-opacity="1" fill-rule="nonzero"/></g><path fill="rgb(67.449951%, 47.059631%, 35.688782%)" d="M 77.738281 26.753906 C 78.105469 27.898438 79.917969 27.410156 79.542969 26.253906 C 77.871094 21.082031 76.199219 15.914062 74.527344 10.742188 C 74.160156 9.597656 72.347656 10.085938 72.71875 11.238281 C 74.394531 16.410156 76.0625 21.582031 77.738281 26.753906 " fill-opacity="1" fill-rule="nonzero"/><path fill="rgb(67.449951%, 47.059631%, 35.688782%)" d="M 58.433594 37.855469 C 59.238281 38.757812 60.558594 37.425781 59.757812 36.527344 C 56.382812 32.746094 53.277344 28.757812 50.4375 24.558594 C 49.765625 23.566406 48.140625 24.503906 48.820312 25.507812 C 51.75 29.835938 54.953125 33.953125 58.433594 37.855469 " fill-opacity="1" fill-rule="nonzero"/><path fill="rgb(67.449951%, 47.059631%, 35.688782%)" d="M 137.597656 49.316406 C 142.75 46.777344 147.699219 43.890625 152.445312 40.660156 C 153.4375 39.984375 152.503906 38.355469 151.5 39.039062 C 146.753906 42.269531 141.800781 45.15625 136.648438 47.695312 C 135.566406 48.230469 136.515625 49.847656 137.597656 49.316406 " fill-opacity="1" fill-rule="nonzero"/><g clip-path="url(#clip-2)"><path fill="rgb(67.449951%, 47.059631%, 35.688782%)" d="M 160.308594 67.828125 C 154.722656 68.308594 149.128906 68.574219 143.523438 68.625 C 142.320312 68.636719 142.316406 70.511719 143.523438 70.5 C 149.128906 70.449219 154.722656 70.183594 160.308594 69.707031 C 161.5 69.605469 161.511719 67.726562 160.308594 67.828125 " fill-opacity="1" fill-rule="nonzero"/></g><path fill="rgb(67.449951%, 47.059631%, 35.688782%)" d="M 151.207031 95.25 C 146.964844 92.691406 142.671875 90.230469 138.320312 87.867188 C 137.257812 87.292969 136.308594 88.910156 137.371094 89.488281 C 141.722656 91.851562 146.019531 94.316406 150.257812 96.871094 C 151.296875 97.496094 152.238281 95.875 151.207031 95.25 " fill-opacity="1" fill-rule="nonzero"/></svg>