<?xml version="1.0" encoding="UTF-8"?><svg xmlns="http://www.w3.org/2000/svg" xmlns:xlink="http://www.w3.org/1999/xlink" contentScriptType="text/ecmascript" width="187.5" zoomAndPan="magnify" contentStyleType="text/css" viewBox="0 0 187.5 187.499995" height="187.499995" preserveAspectRatio="xMidYMid meet" version="1.0"><defs><clipPath id="clip-0"><path d="M 0 0 L 187 0 L 187 187 L 0 187 Z M 0 0 " clip-rule="nonzero"/></clipPath></defs><g clip-path="url(#clip-0)"><path fill="rgb(3.529358%, 29.019165%, 43.139648%)" d="M 93.75 0 C 41.980469 0 0 41.980469 0 93.75 C 0 145.519531 41.980469 187.5 93.75 187.5 C 145.519531 187.5 187.5 145.519531 187.5 93.75 C 187.5 41.980469 145.519531 0 93.75 0 Z M 93.75 0 " fill-opacity="1" fill-rule="nonzero"/></g><path fill="rgb(94.898987%, 96.859741%, 98.039246%)" d="M 120.84375 123.035156 C 119.332031 121.863281 117.140625 121.257812 114.269531 121.257812 L 85.359375 121.257812 C 86.269531 119.859375 87.175781 118.652344 88.082031 117.667969 C 90.160156 115.175781 93.976562 111.625 99.492188 107.089844 C 105.046875 102.554688 109.015625 99.230469 111.359375 97.113281 C 113.703125 94.996094 116.042969 92.050781 118.3125 88.308594 C 120.578125 84.566406 121.710938 80.410156 121.710938 75.839844 C 121.710938 72.929688 121.183594 70.09375 120.085938 67.414062 C 118.992188 64.691406 117.480469 62.3125 115.515625 60.234375 C 113.550781 58.15625 111.285156 56.53125 108.714844 55.359375 C 104.746094 53.582031 99.910156 52.714844 94.277344 52.714844 C 89.59375 52.714844 85.511719 53.394531 82.035156 54.792969 C 78.558594 56.191406 75.6875 58.003906 73.382812 60.234375 C 71.117188 62.5 69.414062 64.992188 68.28125 67.753906 C 67.148438 70.511719 66.582031 73.195312 66.582031 75.726562 C 66.582031 77.839844 67.1875 79.503906 68.394531 80.714844 C 69.605469 81.921875 71.152344 82.527344 73.003906 82.527344 C 75.121094 82.527344 76.707031 81.847656 77.804688 80.523438 C 78.898438 79.203125 79.882812 77.3125 80.75 74.820312 C 81.621094 72.363281 82.226562 70.851562 82.601562 70.285156 C 85.359375 66.050781 89.175781 63.9375 94.015625 63.9375 C 96.320312 63.9375 98.398438 64.464844 100.363281 65.484375 C 102.289062 66.503906 103.839844 67.980469 104.972656 69.832031 C 106.105469 71.683594 106.671875 73.796875 106.671875 76.179688 C 106.671875 78.371094 106.144531 80.5625 105.085938 82.867188 C 104.027344 85.171875 102.515625 87.363281 100.476562 89.519531 C 98.472656 91.671875 95.941406 93.824219 92.917969 95.980469 C 91.21875 97.113281 88.382812 99.53125 84.453125 103.160156 C 80.488281 106.785156 76.066406 111.167969 71.152344 116.234375 C 69.980469 117.480469 68.886719 119.21875 67.902344 121.410156 C 66.921875 123.601562 66.390625 125.378906 66.390625 126.699219 C 66.390625 128.777344 67.1875 130.554688 68.734375 132.105469 C 70.285156 133.652344 72.4375 134.410156 75.195312 134.410156 L 115.929688 134.410156 C 118.347656 134.410156 120.199219 133.765625 121.371094 132.519531 C 122.582031 131.273438 123.1875 129.722656 123.1875 127.910156 C 123.109375 125.832031 122.355469 124.207031 120.84375 123.035156 " fill-opacity="1" fill-rule="nonzero"/></svg>