<?xml version="1.0" encoding="UTF-8"?><svg xmlns="http://www.w3.org/2000/svg" xmlns:xlink="http://www.w3.org/1999/xlink" contentScriptType="text/ecmascript" width="187.5" zoomAndPan="magnify" contentStyleType="text/css" viewBox="0 0 187.5 187.499995" height="187.499995" preserveAspectRatio="xMidYMid meet" version="1.0"><defs><clipPath id="clip-0"><path d="M 47 1.828125 L 140 1.828125 L 140 64 L 47 64 Z M 47 1.828125 " clip-rule="nonzero"/></clipPath><clipPath id="clip-1"><path d="M 1.828125 38 L 185.578125 38 L 185.578125 185.578125 L 1.828125 185.578125 Z M 1.828125 38 " clip-rule="nonzero"/></clipPath></defs><path fill="rgb(85.879517%, 86.268616%, 87.059021%)" d="M 118.203125 158.015625 L 118.203125 182.515625 L 69.203125 182.515625 L 69.203125 158.015625 L 118.203125 158.015625 " fill-opacity="1" fill-rule="nonzero"/><path fill="rgb(83.139038%, 83.139038%, 82.348633%)" d="M 182.515625 139.640625 L 182.515625 145.765625 C 182.515625 152.539062 177.039062 158.015625 170.265625 158.015625 L 17.140625 158.015625 C 10.371094 158.015625 4.890625 152.539062 4.890625 145.765625 L 4.890625 139.640625 L 182.515625 139.640625 " fill-opacity="1" fill-rule="nonzero"/><path fill="rgb(37.249756%, 53.329468%, 81.959534%)" d="M 182.515625 53.890625 L 182.515625 139.640625 L 4.890625 139.640625 L 4.890625 53.890625 C 4.890625 47.121094 10.371094 41.640625 17.140625 41.640625 L 170.265625 41.640625 C 177.039062 41.640625 182.515625 47.121094 182.515625 53.890625 " fill-opacity="1" fill-rule="nonzero"/><path fill="rgb(19.219971%, 32.939148%, 67.83905%)" d="M 170.265625 41.640625 L 157.777344 41.640625 L 135 139.640625 L 182.515625 139.640625 L 182.515625 53.890625 C 182.515625 47.121094 177.039062 41.640625 170.265625 41.640625 " fill-opacity="1" fill-rule="nonzero"/><path fill="rgb(19.219971%, 32.939148%, 67.83905%)" d="M 26.328125 115.140625 C 26.328125 118.527344 23.589844 121.265625 20.203125 121.265625 C 16.820312 121.265625 14.078125 118.527344 14.078125 115.140625 C 14.078125 111.757812 16.820312 109.015625 20.203125 109.015625 C 23.589844 109.015625 26.328125 111.757812 26.328125 115.140625 " fill-opacity="1" fill-rule="nonzero"/><path fill="rgb(19.219971%, 32.939148%, 67.83905%)" d="M 20.203125 102.890625 C 16.820312 102.890625 14.078125 100.152344 14.078125 96.765625 L 14.078125 90.640625 C 14.078125 87.257812 16.820312 84.515625 20.203125 84.515625 C 23.589844 84.515625 26.328125 87.257812 26.328125 90.640625 L 26.328125 96.765625 C 26.328125 100.152344 23.589844 102.890625 20.203125 102.890625 " fill-opacity="1" fill-rule="nonzero"/><path fill="rgb(83.139038%, 83.139038%, 82.348633%)" d="M 182.515625 53.890625 L 182.515625 60.015625 L 4.890625 60.015625 L 4.890625 53.890625 C 4.890625 47.121094 10.371094 41.640625 17.140625 41.640625 L 170.265625 41.640625 C 177.039062 41.640625 182.515625 47.121094 182.515625 53.890625 " fill-opacity="1" fill-rule="nonzero"/><path fill="rgb(85.879517%, 86.268616%, 87.059021%)" d="M 136.578125 60.015625 L 50.828125 60.015625 L 50.828125 4.890625 L 136.578125 4.890625 L 136.578125 60.015625 " fill-opacity="1" fill-rule="nonzero"/><path fill="rgb(6.269836%, 5.879211%, 5.099487%)" d="M 72.265625 72.265625 L 44.703125 72.265625 L 44.703125 78.390625 L 72.265625 78.390625 L 72.265625 72.265625 " fill-opacity="1" fill-rule="nonzero"/><path fill="rgb(6.269836%, 5.879211%, 5.099487%)" d="M 44.703125 90.640625 L 63.078125 90.640625 L 63.078125 84.515625 L 44.703125 84.515625 L 44.703125 90.640625 " fill-opacity="1" fill-rule="nonzero"/><path fill="rgb(6.269836%, 5.879211%, 5.099487%)" d="M 90.640625 84.515625 L 69.203125 84.515625 L 69.203125 90.640625 L 90.640625 90.640625 L 90.640625 84.515625 " fill-opacity="1" fill-rule="nonzero"/><path fill="rgb(6.269836%, 5.879211%, 5.099487%)" d="M 44.703125 102.890625 L 50.828125 102.890625 L 50.828125 96.765625 L 44.703125 96.765625 L 44.703125 102.890625 " fill-opacity="1" fill-rule="nonzero"/><path fill="rgb(6.269836%, 5.879211%, 5.099487%)" d="M 90.640625 96.765625 L 56.953125 96.765625 L 56.953125 102.890625 L 90.640625 102.890625 L 90.640625 96.765625 " fill-opacity="1" fill-rule="nonzero"/><path fill="rgb(6.269836%, 5.879211%, 5.099487%)" d="M 63.078125 109.015625 L 44.703125 109.015625 L 44.703125 115.140625 L 63.078125 115.140625 L 63.078125 109.015625 " fill-opacity="1" fill-rule="nonzero"/><path fill="rgb(6.269836%, 5.879211%, 5.099487%)" d="M 90.640625 109.015625 L 69.203125 109.015625 L 69.203125 115.140625 L 90.640625 115.140625 L 90.640625 109.015625 " fill-opacity="1" fill-rule="nonzero"/><path fill="rgb(6.269836%, 5.879211%, 5.099487%)" d="M 44.703125 127.390625 L 56.953125 127.390625 L 56.953125 121.265625 L 44.703125 121.265625 L 44.703125 127.390625 " fill-opacity="1" fill-rule="nonzero"/><path fill="rgb(6.269836%, 5.879211%, 5.099487%)" d="M 90.640625 121.265625 L 63.078125 121.265625 L 63.078125 127.390625 L 90.640625 127.390625 L 90.640625 121.265625 " fill-opacity="1" fill-rule="nonzero"/><path fill="rgb(6.269836%, 5.879211%, 5.099487%)" d="M 115.140625 96.765625 L 96.765625 96.765625 L 96.765625 102.890625 L 115.140625 102.890625 L 115.140625 96.765625 " fill-opacity="1" fill-rule="nonzero"/><path fill="rgb(6.269836%, 5.879211%, 5.099487%)" d="M 96.765625 127.390625 L 115.140625 127.390625 L 115.140625 121.265625 L 96.765625 121.265625 L 96.765625 127.390625 " fill-opacity="1" fill-rule="nonzero"/><path fill="rgb(6.269836%, 5.879211%, 5.099487%)" d="M 38.578125 84.515625 L 32.453125 84.515625 L 32.453125 90.640625 L 38.578125 90.640625 L 38.578125 84.515625 " fill-opacity="1" fill-rule="nonzero"/><path fill="rgb(6.269836%, 5.879211%, 5.099487%)" d="M 38.578125 96.765625 L 32.453125 96.765625 L 32.453125 102.890625 L 38.578125 102.890625 L 38.578125 96.765625 " fill-opacity="1" fill-rule="nonzero"/><path fill="rgb(6.269836%, 5.879211%, 5.099487%)" d="M 38.578125 109.015625 L 32.453125 109.015625 L 32.453125 115.140625 L 38.578125 115.140625 L 38.578125 109.015625 " fill-opacity="1" fill-rule="nonzero"/><path fill="rgb(6.269836%, 5.879211%, 5.099487%)" d="M 32.453125 127.390625 L 38.578125 127.390625 L 38.578125 121.265625 L 32.453125 121.265625 L 32.453125 127.390625 " fill-opacity="1" fill-rule="nonzero"/><path fill="rgb(6.269836%, 5.879211%, 5.099487%)" d="M 38.578125 72.265625 L 32.453125 72.265625 L 32.453125 78.390625 L 38.578125 78.390625 L 38.578125 72.265625 " fill-opacity="1" fill-rule="nonzero"/><path fill="rgb(6.269836%, 5.879211%, 5.099487%)" d="M 148.828125 90.640625 L 154.953125 90.640625 L 154.953125 84.515625 L 148.828125 84.515625 L 148.828125 90.640625 " fill-opacity="1" fill-rule="nonzero"/><path fill="rgb(6.269836%, 5.879211%, 5.099487%)" d="M 148.828125 102.890625 L 154.953125 102.890625 L 154.953125 96.765625 L 148.828125 96.765625 L 148.828125 102.890625 " fill-opacity="1" fill-rule="nonzero"/><path fill="rgb(6.269836%, 5.879211%, 5.099487%)" d="M 148.828125 115.140625 L 154.953125 115.140625 L 154.953125 109.015625 L 148.828125 109.015625 L 148.828125 115.140625 " fill-opacity="1" fill-rule="nonzero"/><path fill="rgb(6.269836%, 5.879211%, 5.099487%)" d="M 148.828125 127.390625 L 154.953125 127.390625 L 154.953125 121.265625 L 148.828125 121.265625 L 148.828125 127.390625 " fill-opacity="1" fill-rule="nonzero"/><path fill="rgb(6.269836%, 5.879211%, 5.099487%)" d="M 154.953125 72.265625 L 148.828125 72.265625 L 148.828125 78.390625 L 154.953125 78.390625 L 154.953125 72.265625 " fill-opacity="1" fill-rule="nonzero"/><g clip-path="url(#clip-0)"><path fill="rgb(6.269836%, 5.879211%, 5.099487%)" d="M 133.515625 56.953125 L 53.890625 56.953125 L 53.890625 7.953125 L 133.515625 7.953125 Z M 139.640625 60.015625 L 139.640625 4.890625 C 139.640625 3.203125 138.265625 1.828125 136.578125 1.828125 L 50.828125 1.828125 C 49.140625 1.828125 47.765625 3.203125 47.765625 4.890625 L 47.765625 60.015625 C 47.765625 61.703125 49.140625 63.078125 50.828125 63.078125 L 136.578125 63.078125 C 138.265625 63.078125 139.640625 61.703125 139.640625 60.015625 " fill-opacity="1" fill-rule="nonzero"/></g><path fill="rgb(6.269836%, 5.879211%, 5.099487%)" d="M 73.164062 46.871094 L 77.496094 42.539062 L 67.410156 32.453125 L 77.496094 22.371094 L 73.164062 18.039062 L 60.914062 30.289062 C 59.71875 31.484375 59.71875 33.421875 60.914062 34.621094 L 73.164062 46.871094 " fill-opacity="1" fill-rule="nonzero"/><path fill="rgb(6.269836%, 5.879211%, 5.099487%)" d="M 114.246094 46.871094 L 126.496094 34.621094 C 127.691406 33.421875 127.691406 31.484375 126.496094 30.289062 L 114.246094 18.039062 L 109.914062 22.371094 L 120 32.453125 L 109.914062 42.539062 L 114.246094 46.871094 " fill-opacity="1" fill-rule="nonzero"/><path fill="rgb(6.269836%, 5.879211%, 5.099487%)" d="M 108.503906 15.777344 L 103.40625 12.378906 L 78.90625 49.128906 L 84.003906 52.527344 L 108.503906 15.777344 " fill-opacity="1" fill-rule="nonzero"/><g clip-path="url(#clip-1)"><path fill="rgb(6.269836%, 5.879211%, 5.099487%)" d="M 179.453125 145.765625 C 179.453125 150.839844 175.339844 154.953125 170.265625 154.953125 L 17.140625 154.953125 C 12.070312 154.953125 7.953125 150.839844 7.953125 145.765625 L 7.953125 142.703125 L 179.453125 142.703125 Z M 115.140625 179.453125 L 72.265625 179.453125 L 72.265625 161.078125 L 115.140625 161.078125 Z M 170.265625 38.578125 L 145.765625 38.578125 L 145.765625 44.703125 L 170.265625 44.703125 C 175.339844 44.703125 179.453125 48.820312 179.453125 53.890625 L 179.453125 56.953125 L 145.765625 56.953125 L 145.765625 63.078125 L 179.453125 63.078125 L 179.453125 136.578125 L 7.953125 136.578125 L 7.953125 63.078125 L 41.640625 63.078125 L 41.640625 56.953125 L 7.953125 56.953125 L 7.953125 53.890625 C 7.953125 48.820312 12.070312 44.703125 17.140625 44.703125 L 41.640625 44.703125 L 41.640625 38.578125 L 17.140625 38.578125 C 8.695312 38.578125 1.828125 45.445312 1.828125 53.890625 L 1.828125 145.765625 C 1.828125 154.210938 8.695312 161.078125 17.140625 161.078125 L 66.140625 161.078125 L 66.140625 179.453125 L 47.765625 179.453125 L 47.765625 185.578125 L 139.640625 185.578125 L 139.640625 179.453125 L 121.265625 179.453125 L 121.265625 161.078125 L 170.265625 161.078125 C 178.710938 161.078125 185.578125 154.210938 185.578125 145.765625 L 185.578125 53.890625 C 185.578125 45.445312 178.710938 38.578125 170.265625 38.578125 " fill-opacity="1" fill-rule="nonzero"/></g><path fill="rgb(6.269836%, 5.879211%, 5.099487%)" d="M 96.765625 149.09375 C 96.765625 147.539062 95.511719 146.28125 93.96875 146.28125 C 92.414062 146.28125 91.15625 147.539062 91.15625 149.09375 C 91.15625 150.636719 92.414062 151.890625 93.96875 151.890625 C 95.511719 151.890625 96.765625 150.636719 96.765625 149.09375 " fill-opacity="1" fill-rule="nonzero"/></svg>