<?xml version="1.0" encoding="UTF-8"?><svg xmlns="http://www.w3.org/2000/svg" xmlns:xlink="http://www.w3.org/1999/xlink" contentScriptType="text/ecmascript" width="187.5" zoomAndPan="magnify" contentStyleType="text/css" viewBox="0 0 187.5 187.499995" height="187.499995" preserveAspectRatio="xMidYMid meet" version="1.0"><defs><clipPath id="clip-0"><path d="M 35 103 L 78 103 L 78 186.535156 L 35 186.535156 Z M 35 103 " clip-rule="nonzero"/></clipPath><clipPath id="clip-1"><path d="M 70 82 L 113 82 L 113 186.535156 L 70 186.535156 Z M 70 82 " clip-rule="nonzero"/></clipPath><clipPath id="clip-2"><path d="M 104 44 L 147 44 L 147 186.535156 L 104 186.535156 Z M 104 44 " clip-rule="nonzero"/></clipPath><clipPath id="clip-3"><path d="M 30 14 L 151 14 L 151 186.535156 L 30 186.535156 Z M 30 14 " clip-rule="nonzero"/></clipPath><clipPath id="clip-4"><path d="M 43 1.285156 L 130 1.285156 L 130 75 L 43 75 Z M 43 1.285156 " clip-rule="nonzero"/></clipPath><clipPath id="clip-5"><path d="M 2.09375 58 L 56 58 L 56 103 L 2.09375 103 Z M 2.09375 58 " clip-rule="nonzero"/></clipPath><clipPath id="clip-6"><path d="M 109 1.285156 L 130 1.285156 L 130 22 L 109 22 Z M 109 1.285156 " clip-rule="nonzero"/></clipPath><clipPath id="clip-7"><path d="M 153 182 L 168 182 L 168 186.535156 L 153 186.535156 Z M 153 182 " clip-rule="nonzero"/></clipPath><clipPath id="clip-8"><path d="M 132 182 L 148 182 L 148 186.535156 L 132 186.535156 Z M 132 182 " clip-rule="nonzero"/></clipPath></defs><path fill="rgb(48.239136%, 69.799805%, 89.408875%)" d="M 38.097656 134.976562 L 56.539062 106.371094 L 74.984375 134.976562 L 62.667969 134.976562 L 62.667969 185.003906 L 50.410156 185.003906 L 50.410156 134.976562 L 38.097656 134.976562 " fill-opacity="1" fill-rule="nonzero"/><g clip-path="url(#clip-0)"><path fill="rgb(18.03894%, 19.219971%, 57.249451%)" d="M 38.097656 134.976562 L 39.335938 135.78125 L 56.539062 109.101562 L 72.269531 133.492188 L 61.191406 133.492188 L 61.191406 183.519531 L 51.886719 183.519531 L 51.886719 133.492188 L 38.097656 133.492188 L 38.097656 134.976562 L 39.335938 135.78125 L 38.097656 134.976562 L 38.097656 136.460938 L 48.933594 136.460938 L 48.933594 186.484375 L 64.148438 186.484375 L 64.148438 136.460938 L 77.699219 136.460938 L 56.539062 103.644531 L 35.378906 136.460938 L 38.097656 136.460938 L 38.097656 134.976562 " fill-opacity="1" fill-rule="nonzero"/></g><path fill="rgb(25.878906%, 55.288696%, 82.348633%)" d="M 61.191406 183.519531 L 56.378906 183.519531 L 56.535156 109.109375 L 56.539062 109.101562 L 72.269531 133.492188 L 61.191406 133.492188 L 61.191406 183.519531 " fill-opacity="1" fill-rule="nonzero"/><path fill="rgb(18.03894%, 19.219971%, 57.249451%)" d="M 62.667969 183.519531 L 56.378906 183.519531 L 61.191406 183.519531 L 61.191406 133.492188 L 72.269531 133.492188 L 56.539062 109.101562 L 56.535156 109.109375 L 56.539062 106.371094 L 74.984375 134.976562 L 62.667969 134.976562 L 62.667969 183.519531 " fill-opacity="1" fill-rule="nonzero"/><path fill="rgb(98.429871%, 77.648926%, 12.939453%)" d="M 72.929688 113.75 L 91.371094 85.144531 L 109.8125 113.75 L 97.5 113.75 L 97.5 185.003906 L 85.242188 185.003906 L 85.242188 113.75 L 72.929688 113.75 " fill-opacity="1" fill-rule="nonzero"/><g clip-path="url(#clip-1)"><path fill="rgb(18.03894%, 19.219971%, 57.249451%)" d="M 72.929688 113.75 L 74.167969 114.558594 L 91.371094 87.875 L 107.097656 112.269531 L 96.023438 112.269531 L 96.023438 183.519531 L 86.71875 183.519531 L 86.71875 112.269531 L 72.929688 112.269531 L 72.929688 113.75 L 74.167969 114.558594 L 72.929688 113.75 L 72.929688 115.234375 L 83.765625 115.234375 L 83.765625 186.484375 L 98.976562 186.484375 L 98.976562 115.234375 L 112.53125 115.234375 L 91.371094 82.417969 L 70.214844 115.234375 L 72.929688 115.234375 L 72.929688 113.75 " fill-opacity="1" fill-rule="nonzero"/></g><path fill="rgb(97.24884%, 63.139343%, 6.669617%)" d="M 96.023438 183.519531 L 91.210938 183.519531 L 91.367188 87.882812 L 91.371094 87.875 L 107.097656 112.269531 L 96.023438 112.269531 L 96.023438 183.519531 " fill-opacity="1" fill-rule="nonzero"/><path fill="rgb(20.779419%, 20.779419%, 26.269531%)" d="M 97.5 183.519531 L 91.210938 183.519531 L 96.023438 183.519531 L 96.023438 112.269531 L 107.097656 112.269531 L 91.371094 87.875 L 91.367188 87.882812 L 91.371094 85.144531 L 109.8125 113.75 L 97.5 113.75 L 97.5 183.519531 " fill-opacity="1" fill-rule="nonzero"/><path fill="rgb(100%, 100%, 100%)" d="M 106.757812 75.996094 L 125.199219 47.390625 L 143.644531 75.996094 L 131.328125 75.996094 L 131.328125 185.003906 L 119.070312 185.003906 L 119.070312 75.996094 L 106.757812 75.996094 " fill-opacity="1" fill-rule="nonzero"/><g clip-path="url(#clip-2)"><path fill="rgb(18.03894%, 19.219971%, 57.249451%)" d="M 106.757812 75.996094 L 107.996094 76.800781 L 125.199219 50.117188 L 140.929688 74.511719 L 129.851562 74.511719 L 129.851562 183.519531 L 120.550781 183.519531 L 120.550781 74.511719 L 106.757812 74.511719 L 106.757812 75.996094 L 107.996094 76.800781 L 106.757812 75.996094 L 106.757812 77.476562 L 117.59375 77.476562 L 117.59375 186.484375 L 132.804688 186.484375 L 132.804688 77.476562 L 146.363281 77.476562 L 125.199219 44.660156 L 104.042969 77.476562 L 106.757812 77.476562 L 106.757812 75.996094 " fill-opacity="1" fill-rule="nonzero"/></g><path fill="rgb(82.749939%, 82.348633%, 82.348633%)" d="M 129.851562 183.519531 L 125.039062 183.519531 L 125.195312 50.121094 L 125.199219 50.117188 L 140.929688 74.511719 L 129.851562 74.511719 L 129.851562 183.519531 " fill-opacity="1" fill-rule="nonzero"/><path fill="rgb(14.509583%, 15.289307%, 45.878601%)" d="M 131.328125 183.519531 L 125.039062 183.519531 L 129.851562 183.519531 L 129.851562 74.511719 L 140.929688 74.511719 L 125.199219 50.117188 L 125.195312 50.121094 L 125.199219 47.390625 L 143.644531 75.996094 L 131.328125 75.996094 L 131.328125 183.519531 " fill-opacity="1" fill-rule="nonzero"/><g clip-path="url(#clip-3)"><path fill="rgb(18.03894%, 19.219971%, 57.249451%)" d="M 149.417969 183.519531 L 33.429688 183.519531 L 33.429688 15.675781 C 33.429688 14.855469 32.769531 14.191406 31.953125 14.191406 C 31.136719 14.191406 30.476562 14.855469 30.476562 15.675781 L 30.476562 185.003906 C 30.476562 185.394531 30.636719 185.773438 30.910156 186.050781 C 31.183594 186.324219 31.5625 186.484375 31.953125 186.484375 L 149.417969 186.484375 C 150.234375 186.484375 150.894531 185.820312 150.894531 185.003906 C 150.894531 184.183594 150.234375 183.519531 149.417969 183.519531 " fill-opacity="1" fill-rule="nonzero"/></g><path fill="rgb(18.03894%, 19.219971%, 57.249451%)" d="M 31.949219 11.839844 L 35.023438 18.246094 L 38.097656 24.65625 L 31.949219 20.351562 L 25.808594 24.65625 L 28.878906 18.246094 L 31.949219 11.839844 " fill-opacity="1" fill-rule="nonzero"/><path fill="rgb(48.239136%, 69.799805%, 89.408875%)" d="M 93.207031 61.058594 C 86.441406 64.75 78.765625 67.613281 72.3125 69.652344 C 73.285156 70.753906 74.824219 73.101562 73.519531 75.957031 C 71.714844 79.910156 67.632812 87.960938 64.996094 93.113281 L 66.339844 94.785156 L 84.039062 80.492188 C 94.378906 72.148438 93.75 63.753906 93.207031 61.058594 " fill-opacity="1" fill-rule="nonzero"/><path fill="rgb(18.03894%, 19.219971%, 57.249451%)" d="M 93.207031 61.058594 L 92.675781 60.082031 C 86.011719 63.722656 78.390625 66.566406 71.980469 68.597656 L 70.355469 69.113281 L 71.488281 70.394531 C 71.792969 70.734375 72.160156 71.222656 72.441406 71.796875 C 72.722656 72.371094 72.917969 73.023438 72.917969 73.734375 C 72.917969 74.269531 72.808594 74.847656 72.515625 75.496094 C 71.625 77.445312 70.15625 80.441406 68.582031 83.585938 C 67.007812 86.734375 65.332031 90.03125 64.011719 92.605469 L 63.683594 93.246094 L 66.167969 96.34375 L 84.734375 81.355469 C 88.832031 78.046875 91.304688 74.6875 92.738281 71.625 C 94.171875 68.5625 94.566406 65.8125 94.566406 63.742188 C 94.566406 62.507812 94.425781 61.519531 94.289062 60.835938 L 93.992188 59.363281 L 92.675781 60.082031 L 93.207031 61.058594 L 92.121094 61.277344 C 92.234375 61.832031 92.355469 62.675781 92.355469 63.742188 C 92.351562 65.535156 92.019531 67.941406 90.734375 70.683594 C 89.453125 73.421875 87.214844 76.503906 83.347656 79.625 L 66.503906 93.226562 L 65.855469 92.417969 L 64.996094 93.113281 L 65.980469 93.617188 C 67.296875 91.039062 68.980469 87.734375 70.558594 84.582031 C 72.136719 81.425781 73.609375 78.421875 74.527344 76.417969 C 74.949219 75.496094 75.128906 74.578125 75.125 73.734375 C 75.125 72.613281 74.820312 71.625 74.425781 70.816406 C 74.027344 70.007812 73.539062 69.371094 73.140625 68.917969 L 72.3125 69.652344 L 72.648438 70.714844 C 79.144531 68.65625 86.875 65.773438 93.734375 62.03125 L 93.207031 61.058594 L 92.121094 61.277344 L 93.207031 61.058594 " fill-opacity="1" fill-rule="nonzero"/><path fill="rgb(48.239136%, 69.799805%, 89.408875%)" d="M 64.675781 25.46875 C 59.632812 31.308594 55.203125 38.214844 51.832031 44.109375 C 50.96875 42.917969 49.011719 40.90625 45.953125 41.574219 C 41.722656 42.496094 33.007812 44.773438 27.429688 46.253906 L 26.089844 44.582031 L 43.792969 30.289062 C 54.128906 21.945312 62.164062 24.359375 64.675781 25.46875 " fill-opacity="1" fill-rule="nonzero"/><path fill="rgb(18.03894%, 19.219971%, 57.249451%)" d="M 64.675781 25.46875 L 63.839844 24.742188 C 58.726562 30.667969 54.265625 37.625 50.871094 43.554688 L 51.832031 44.109375 L 52.722656 43.453125 C 52.300781 42.871094 51.648438 42.113281 50.726562 41.472656 C 49.8125 40.839844 48.59375 40.328125 47.144531 40.332031 C 46.691406 40.332031 46.210938 40.382812 45.71875 40.488281 C 41.441406 41.425781 32.734375 43.699219 27.148438 45.183594 L 27.429688 46.253906 L 28.289062 45.558594 L 27.640625 44.75 L 44.484375 31.152344 C 50.210938 26.539062 55.074219 25.386719 58.628906 25.382812 C 61.308594 25.382812 63.257812 26.054688 64.230469 26.484375 L 64.675781 25.46875 L 63.839844 24.742188 L 64.675781 25.46875 L 65.121094 24.453125 C 63.929688 23.925781 61.679688 23.164062 58.628906 23.164062 C 54.582031 23.160156 49.15625 24.53125 43.097656 29.425781 L 24.53125 44.410156 L 27.015625 47.511719 L 27.710938 47.324219 C 33.285156 45.847656 42.003906 43.570312 46.1875 42.65625 L 46.191406 42.65625 C 46.53125 42.582031 46.847656 42.550781 47.144531 42.550781 C 48.078125 42.550781 48.832031 42.863281 49.476562 43.304688 C 50.117188 43.742188 50.617188 44.316406 50.9375 44.761719 L 51.9375 46.144531 L 52.789062 44.660156 C 56.136719 38.808594 60.535156 31.949219 65.511719 26.195312 L 66.492188 25.058594 L 65.121094 24.453125 L 64.675781 25.46875 " fill-opacity="1" fill-rule="nonzero"/><path fill="rgb(25.878906%, 55.288696%, 82.348633%)" d="M 27.839844 44.996094 L 27.640625 44.75 L 44.484375 31.152344 C 50.210938 26.539062 55.074219 25.386719 58.628906 25.382812 C 60.082031 25.382812 61.324219 25.582031 62.3125 25.832031 C 58.191406 30.832031 54.546875 36.417969 51.582031 41.445312 C 51.488281 41.601562 51.398438 41.761719 51.304688 41.917969 C 51.128906 41.765625 50.933594 41.617188 50.726562 41.472656 C 49.8125 40.839844 48.597656 40.332031 47.152344 40.332031 C 47.152344 40.332031 47.148438 40.332031 47.144531 40.332031 C 46.691406 40.332031 46.210938 40.382812 45.71875 40.488281 C 41.613281 41.386719 33.433594 43.515625 27.839844 44.996094 " fill-opacity="1" fill-rule="nonzero"/><path fill="rgb(18.03894%, 19.219971%, 57.249451%)" d="M 27.429688 46.253906 L 26.089844 44.582031 L 43.792969 30.289062 C 49.683594 25.535156 54.828125 24.273438 58.628906 24.273438 C 60.445312 24.273438 61.957031 24.5625 63.09375 24.898438 C 62.832031 25.203125 62.570312 25.519531 62.3125 25.832031 C 61.324219 25.582031 60.082031 25.382812 58.628906 25.382812 C 55.074219 25.386719 50.210938 26.539062 44.484375 31.152344 L 27.640625 44.75 L 27.839844 44.996094 C 33.433594 43.515625 41.613281 41.386719 45.71875 40.488281 C 46.210938 40.382812 46.691406 40.332031 47.144531 40.332031 C 47.148438 40.332031 47.152344 40.332031 47.152344 40.332031 C 48.597656 40.332031 49.8125 40.839844 50.726562 41.472656 C 50.933594 41.617188 51.128906 41.765625 51.304688 41.917969 C 51.117188 42.246094 50.925781 42.570312 50.738281 42.894531 C 49.886719 42.128906 48.691406 41.441406 47.144531 41.441406 C 46.769531 41.441406 46.371094 41.484375 45.953125 41.574219 C 41.722656 42.496094 33.007812 44.773438 27.429688 46.253906 " fill-opacity="1" fill-rule="nonzero"/><path fill="rgb(100%, 100%, 100%)" d="M 122.480469 2.367188 C 111.496094 2.375 88.652344 4.230469 71.535156 18.046875 C 56.613281 30.09375 44.726562 56.941406 44.726562 56.941406 L 51.363281 65.222656 L 58 73.5 C 58 73.5 86.683594 67.597656 101.601562 55.554688 C 118.6875 41.761719 125.394531 19.832031 127.761719 9.039062 C 128.632812 5.074219 126.488281 2.367188 122.480469 2.367188 " fill-opacity="1" fill-rule="nonzero"/><g clip-path="url(#clip-4)"><path fill="rgb(18.03894%, 19.219971%, 57.249451%)" d="M 122.480469 2.367188 L 122.480469 1.257812 C 116.925781 1.261719 108.390625 1.730469 99.054688 3.949219 C 89.71875 6.167969 79.570312 10.136719 70.84375 17.183594 C 63.191406 23.367188 56.460938 33.171875 51.582031 41.445312 C 46.710938 49.71875 43.726562 56.464844 43.714844 56.492188 L 43.441406 57.105469 L 50.5 65.914062 L 57.5625 74.722656 L 58.222656 74.589844 C 58.25 74.582031 65.457031 73.097656 74.550781 70.097656 C 83.652344 67.089844 94.636719 62.589844 102.296875 56.414062 C 111.003906 49.382812 117.035156 40.3125 121.195312 31.652344 C 125.351562 22.992188 127.644531 14.734375 128.84375 9.277344 C 128.984375 8.617188 129.058594 7.976562 129.058594 7.355469 C 129.058594 6.472656 128.90625 5.636719 128.601562 4.882812 C 128.148438 3.746094 127.332031 2.808594 126.269531 2.191406 C 125.207031 1.566406 123.921875 1.257812 122.484375 1.257812 C 122.484375 1.257812 122.480469 1.257812 122.472656 1.257812 C 122.441406 1.257812 122.347656 1.257812 122.207031 1.296875 C 122.027344 1.335938 121.800781 1.46875 121.667969 1.621094 L 122.480469 2.367188 L 122.480469 1.257812 L 122.480469 2.367188 L 123.296875 3.117188 L 122.484375 2.371094 L 122.761719 3.441406 C 122.9375 3.402344 123.167969 3.269531 123.296875 3.117188 L 122.484375 2.371094 L 122.761719 3.441406 L 122.484375 2.375 L 122.484375 3.476562 C 122.484375 3.476562 122.488281 3.476562 122.496094 3.476562 C 122.527344 3.476562 122.621094 3.476562 122.761719 3.441406 L 122.484375 2.375 L 122.484375 3.476562 C 123.984375 3.480469 125.054688 3.902344 125.75 4.542969 C 126.097656 4.867188 126.367188 5.253906 126.554688 5.714844 C 126.742188 6.179688 126.847656 6.726562 126.847656 7.355469 C 126.847656 7.800781 126.796875 8.28125 126.679688 8.800781 C 125.511719 14.136719 123.261719 22.238281 119.203125 30.691406 C 115.144531 39.140625 109.285156 47.929688 100.910156 54.6875 C 93.648438 60.558594 82.832031 65.035156 73.863281 67.988281 C 69.375 69.46875 65.347656 70.578125 62.445312 71.3125 C 60.992188 71.683594 59.824219 71.957031 59.019531 72.140625 C 58.617188 72.234375 58.304688 72.300781 58.09375 72.347656 C 57.988281 72.371094 57.910156 72.386719 57.859375 72.398438 L 57.78125 72.414062 L 58 73.5 L 58.863281 72.804688 L 52.226562 64.523438 L 45.585938 56.246094 L 44.726562 56.941406 L 45.734375 57.390625 L 45.765625 57.316406 C 46.109375 56.550781 49.175781 49.796875 53.941406 41.804688 C 58.699219 33.816406 65.183594 24.585938 72.226562 18.910156 C 80.617188 12.136719 90.449219 8.273438 99.5625 6.109375 C 108.671875 3.941406 117.050781 3.480469 122.484375 3.476562 L 122.96875 3.476562 L 123.296875 3.117188 L 122.480469 2.367188 " fill-opacity="1" fill-rule="nonzero"/></g><path fill="rgb(48.239136%, 69.799805%, 89.408875%)" d="M 54.453125 77 L 40.867188 60.054688 L 44.726562 56.941406 L 58.308594 73.886719 L 54.453125 77 " fill-opacity="1" fill-rule="nonzero"/><path fill="rgb(18.03894%, 19.219971%, 57.249451%)" d="M 54.453125 77 L 55.3125 76.304688 L 42.417969 60.222656 L 44.554688 58.5 L 56.753906 73.714844 L 53.757812 76.132812 L 54.453125 77 L 55.3125 76.304688 L 54.453125 77 L 55.144531 77.863281 L 59.863281 74.054688 L 44.894531 55.382812 L 39.3125 59.886719 L 54.28125 78.558594 L 55.144531 77.863281 L 54.453125 77 " fill-opacity="1" fill-rule="nonzero"/><path fill="rgb(98.429871%, 77.648926%, 12.939453%)" d="M 54.453125 77 C 54.453125 77 52.652344 92.515625 38.140625 99.074219 C 38.140625 99.074219 42.621094 92.082031 43.039062 87.179688 C 43.039062 87.179688 39.355469 95.167969 26.304688 96.152344 C 13.257812 97.136719 4.832031 96.003906 3.402344 102.113281 C 3.402344 102.113281 12.039062 74.90625 29.328125 71.070312 C 29.328125 71.070312 17.785156 72.449219 13.03125 76.882812 C 13.03125 76.882812 25.226562 61.265625 40.867188 60.054688 L 54.453125 77 " fill-opacity="1" fill-rule="nonzero"/><g clip-path="url(#clip-5)"><path fill="rgb(18.03894%, 19.219971%, 57.249451%)" d="M 54.453125 77 L 53.351562 76.871094 L 53.351562 76.875 C 53.335938 77.027344 52.847656 80.820312 50.640625 85.308594 C 49.535156 87.550781 48.007812 89.96875 45.902344 92.207031 C 43.796875 94.445312 41.117188 96.511719 37.683594 98.0625 L 38.140625 99.074219 L 39.070312 99.671875 C 39.082031 99.652344 40.21875 97.875 41.421875 95.460938 C 42.023438 94.25 42.636719 92.882812 43.136719 91.480469 C 43.636719 90.078125 44.019531 88.644531 44.140625 87.277344 L 44.679688 80.988281 L 42.035156 86.714844 L 42.488281 86.925781 L 42.039062 86.710938 L 42.035156 86.714844 L 42.488281 86.925781 L 42.039062 86.710938 C 42.03125 86.722656 41.148438 88.582031 38.746094 90.535156 C 36.34375 92.492188 32.433594 94.574219 26.222656 95.046875 C 19.742188 95.535156 14.394531 95.492188 10.328125 96.113281 C 8.292969 96.429688 6.558594 96.910156 5.152344 97.808594 C 4.453125 98.257812 3.839844 98.820312 3.359375 99.5 C 2.878906 100.183594 2.535156 100.976562 2.328125 101.863281 L 4.457031 102.449219 L 4.480469 102.382812 C 4.722656 101.632812 6.992188 94.882812 11.238281 87.925781 C 13.355469 84.445312 15.96875 80.921875 19.042969 78.0625 C 22.113281 75.203125 25.625 73.023438 29.566406 72.152344 L 29.195312 69.96875 C 29.167969 69.96875 26.242188 70.320312 22.6875 71.238281 C 20.90625 71.699219 18.972656 72.300781 17.148438 73.082031 C 15.324219 73.871094 13.609375 74.832031 12.28125 76.070312 L 13.03125 76.882812 L 13.902344 77.566406 L 13.90625 77.558594 C 14.058594 77.363281 17.121094 73.515625 22.007812 69.597656 C 24.449219 67.640625 27.347656 65.667969 30.554688 64.117188 C 33.761719 62.570312 37.273438 61.445312 40.949219 61.160156 L 40.867188 60.054688 L 40.003906 60.75 L 53.589844 77.695312 L 54.453125 77 L 53.351562 76.871094 L 54.453125 77 L 55.3125 76.304688 L 41.359375 58.90625 L 40.78125 58.949219 C 36.699219 59.265625 32.871094 60.515625 29.433594 62.195312 C 24.277344 64.71875 19.980469 68.210938 16.957031 71.070312 C 13.933594 73.929688 12.1875 76.164062 12.160156 76.199219 L 13.785156 77.691406 C 14.828125 76.714844 16.339844 75.84375 18.019531 75.121094 C 20.535156 74.039062 23.414062 73.292969 25.648438 72.824219 C 26.769531 72.589844 27.726562 72.425781 28.402344 72.320312 C 28.738281 72.265625 29.007812 72.230469 29.1875 72.203125 C 29.277344 72.191406 29.347656 72.183594 29.394531 72.175781 L 29.460938 72.167969 L 29.328125 71.070312 L 29.089844 69.984375 C 24.511719 71.003906 20.5625 73.546875 17.222656 76.734375 C 12.210938 81.519531 8.523438 87.761719 6.054688 92.816406 C 3.59375 97.871094 2.363281 101.742188 2.351562 101.777344 L 3.402344 102.113281 L 4.480469 102.367188 C 4.632812 101.722656 4.863281 101.214844 5.164062 100.785156 C 5.429688 100.40625 5.757812 100.085938 6.167969 99.796875 C 6.878906 99.292969 7.855469 98.898438 9.101562 98.605469 C 10.96875 98.164062 13.414062 97.957031 16.320312 97.804688 C 19.234375 97.652344 22.613281 97.542969 26.390625 97.257812 C 33.132812 96.753906 37.558594 94.410156 40.273438 92.152344 C 42.988281 89.894531 43.992188 87.753906 44.042969 87.644531 L 43.039062 87.179688 L 41.9375 87.085938 C 41.847656 88.167969 41.515625 89.445312 41.054688 90.734375 C 40.367188 92.667969 39.402344 94.617188 38.609375 96.070312 C 38.210938 96.796875 37.859375 97.402344 37.605469 97.824219 C 37.484375 98.035156 37.382812 98.199219 37.3125 98.308594 C 37.277344 98.367188 37.253906 98.40625 37.234375 98.433594 L 37.210938 98.472656 L 35.191406 101.621094 L 38.59375 100.085938 C 42.363281 98.382812 45.320312 96.085938 47.621094 93.613281 C 51.066406 89.902344 53.042969 85.800781 54.15625 82.625 C 55.277344 79.445312 55.539062 77.1875 55.550781 77.128906 L 55.601562 76.667969 L 55.3125 76.304688 L 54.453125 77 " fill-opacity="1" fill-rule="nonzero"/></g><path fill="rgb(97.24884%, 63.139343%, 6.669617%)" d="M 6.519531 97.101562 C 7.640625 94.503906 9.214844 91.238281 11.238281 87.925781 C 13.355469 84.445312 15.96875 80.921875 19.042969 78.0625 C 22.113281 75.203125 25.625 73.023438 29.566406 72.152344 L 29.195312 69.96875 C 29.167969 69.96875 26.242188 70.320312 22.6875 71.238281 C 21.40625 71.570312 20.046875 71.976562 18.703125 72.46875 C 19.679688 71.550781 20.785156 70.578125 22.007812 69.597656 C 24.449219 67.640625 27.347656 65.667969 30.554688 64.117188 C 33.59375 62.648438 36.90625 61.5625 40.375 61.210938 L 40.773438 61.710938 C 39.820312 61.792969 38.660156 62.003906 37.40625 62.492188 C 35.691406 63.15625 33.800781 64.335938 32.066406 66.324219 L 29.027344 69.8125 L 33.308594 68.089844 L 33.324219 68.082031 C 33.433594 68.042969 33.949219 67.882812 34.730469 67.882812 C 34.730469 67.882812 34.734375 67.882812 34.734375 67.882812 C 35.042969 67.882812 35.390625 67.910156 35.777344 67.976562 C 34.675781 68.769531 33.203125 69.902344 31.652344 71.304688 C 30.074219 72.734375 28.414062 74.4375 26.976562 76.355469 C 25.542969 78.277344 24.332031 80.417969 23.683594 82.726562 L 22.796875 85.902344 L 25.414062 83.914062 L 25.429688 83.902344 C 25.578125 83.789062 27.074219 82.675781 29.003906 81.613281 C 29.96875 81.082031 31.039062 80.5625 32.089844 80.1875 C 32.449219 80.054688 32.800781 79.945312 33.144531 79.855469 L 13.433594 95.765625 C 12.328125 95.855469 11.289062 95.96875 10.328125 96.113281 C 8.910156 96.335938 7.640625 96.632812 6.519531 97.101562 " fill-opacity="1" fill-rule="nonzero"/><path fill="rgb(20.779419%, 20.779419%, 26.269531%)" d="M 3.816406 100.910156 C 5.726562 95.605469 14.226562 74.417969 29.328125 71.070312 C 29.328125 71.070312 17.785156 72.449219 13.03125 76.882812 C 13.03125 76.882812 25.226562 61.265625 40.867188 60.054688 L 42.164062 61.675781 C 42.035156 61.671875 41.894531 61.667969 41.746094 61.667969 C 41.453125 61.667969 41.128906 61.679688 40.773438 61.710938 L 40.375 61.210938 C 36.90625 61.5625 33.59375 62.648438 30.554688 64.117188 C 27.347656 65.667969 24.449219 67.640625 22.007812 69.597656 C 20.785156 70.578125 19.679688 71.550781 18.703125 72.46875 C 20.046875 71.976562 21.40625 71.570312 22.6875 71.238281 C 26.242188 70.320312 29.167969 69.96875 29.195312 69.96875 L 29.566406 72.152344 C 25.625 73.023438 22.113281 75.203125 19.042969 78.0625 C 15.96875 80.921875 13.355469 84.445312 11.238281 87.925781 C 9.214844 91.238281 7.640625 94.503906 6.519531 97.101562 C 7.640625 96.632812 8.910156 96.335938 10.328125 96.113281 C 11.289062 95.96875 12.328125 95.855469 13.433594 95.765625 L 11.867188 97.03125 C 7.761719 97.492188 4.988281 98.429688 3.816406 100.910156 " fill-opacity="1" fill-rule="nonzero"/><path fill="rgb(95.289612%, 37.249756%, 16.468811%)" d="M 43.140625 62.890625 C 43.140625 62.890625 37.570312 61.699219 32.902344 67.058594 C 32.902344 67.058594 35.191406 66.132812 38.246094 67.636719 C 38.246094 67.636719 27.128906 74.492188 24.75 83.03125 C 24.75 83.03125 33.261719 76.550781 37.230469 79.039062 C 41.203125 81.519531 48.742188 81.382812 52.730469 74.855469 L 43.140625 62.890625 " fill-opacity="1" fill-rule="nonzero"/><path fill="rgb(18.03894%, 19.219971%, 57.249451%)" d="M 43.140625 62.890625 L 43.371094 61.804688 C 43.308594 61.792969 42.707031 61.667969 41.746094 61.667969 C 40.664062 61.667969 39.121094 61.828125 37.40625 62.492188 C 35.691406 63.15625 33.800781 64.335938 32.066406 66.324219 L 29.027344 69.8125 L 33.3125 68.085938 L 33.082031 67.503906 L 33.304688 68.089844 L 33.3125 68.085938 L 33.082031 67.503906 L 33.304688 68.089844 L 33.324219 68.082031 C 33.433594 68.042969 33.953125 67.882812 34.734375 67.882812 C 35.511719 67.886719 36.550781 68.035156 37.757812 68.632812 L 38.246094 67.636719 L 37.664062 66.691406 C 37.628906 66.714844 34.804688 68.457031 31.652344 71.304688 C 30.074219 72.734375 28.414062 74.4375 26.976562 76.355469 C 25.542969 78.277344 24.332031 80.417969 23.683594 82.726562 L 22.796875 85.902344 L 25.414062 83.914062 L 25.429688 83.902344 C 25.578125 83.789062 27.074219 82.675781 29.003906 81.613281 C 29.96875 81.082031 31.039062 80.5625 32.089844 80.1875 C 33.144531 79.804688 34.171875 79.574219 35.015625 79.578125 C 35.691406 79.578125 36.226562 79.710938 36.648438 79.976562 C 38.335938 81.027344 40.5 81.632812 42.804688 81.636719 C 44.738281 81.632812 46.769531 81.203125 48.667969 80.207031 C 50.570312 79.214844 52.324219 77.644531 53.675781 75.4375 L 54.082031 74.769531 L 43.753906 61.886719 L 43.371094 61.804688 L 43.140625 62.890625 L 42.277344 63.585938 L 51.871094 75.550781 L 52.730469 74.855469 L 51.789062 74.273438 C 50.640625 76.15625 49.199219 77.425781 47.644531 78.242188 C 46.089844 79.058594 44.410156 79.417969 42.804688 79.417969 C 40.890625 79.417969 39.09375 78.898438 37.816406 78.09375 C 36.960938 77.554688 35.984375 77.359375 35.015625 77.359375 C 33.753906 77.359375 32.46875 77.6875 31.226562 78.136719 C 29.371094 78.824219 27.605469 79.820312 26.285156 80.644531 C 24.96875 81.472656 24.097656 82.128906 24.082031 82.144531 L 24.75 83.03125 L 25.8125 83.328125 C 26.355469 81.371094 27.425781 79.453125 28.746094 77.6875 C 30.726562 75.039062 33.257812 72.738281 35.289062 71.125 C 36.304688 70.316406 37.195312 69.675781 37.828125 69.238281 C 38.144531 69.019531 38.398438 68.855469 38.570312 68.742188 C 38.652344 68.6875 38.71875 68.648438 38.765625 68.617188 L 38.8125 68.589844 L 38.824219 68.582031 L 40.53125 67.527344 L 38.734375 66.640625 C 37.203125 65.886719 35.804688 65.664062 34.734375 65.667969 C 33.414062 65.667969 32.585938 65.988281 32.488281 66.027344 L 32.902344 67.058594 L 33.734375 67.789062 C 35.234375 66.070312 36.792969 65.109375 38.203125 64.558594 C 39.613281 64.015625 40.878906 63.886719 41.746094 63.886719 C 42.128906 63.886719 42.4375 63.914062 42.640625 63.9375 C 42.738281 63.949219 42.816406 63.960938 42.863281 63.964844 L 42.910156 63.976562 L 43.140625 62.890625 L 42.277344 63.585938 L 43.140625 62.890625 " fill-opacity="1" fill-rule="nonzero"/><path fill="rgb(93.728638%, 19.219971%, 13.328552%)" d="M 27.164062 80.109375 C 27.628906 79.28125 28.164062 78.46875 28.746094 77.6875 C 30.726562 75.039062 33.257812 72.738281 35.289062 71.125 C 36.304688 70.316406 37.195312 69.675781 37.828125 69.238281 C 38.144531 69.019531 38.398438 68.855469 38.570312 68.742188 C 38.652344 68.6875 38.71875 68.648438 38.765625 68.617188 L 38.8125 68.589844 L 38.824219 68.582031 L 40.53125 67.527344 L 38.734375 66.640625 C 37.734375 66.148438 36.796875 65.882812 35.96875 65.757812 C 36.730469 65.222656 37.488281 64.839844 38.203125 64.558594 C 39.609375 64.015625 40.875 63.886719 41.742188 63.886719 C 41.742188 63.886719 41.746094 63.886719 41.746094 63.886719 C 42.078125 63.886719 42.351562 63.90625 42.550781 63.925781 L 44.925781 66.886719 C 43.75 68.054688 42.597656 69.261719 41.480469 70.507812 L 41.476562 70.507812 C 40.992188 71.050781 40.507812 71.601562 40.027344 72.164062 L 39.433594 72.863281 L 40.339844 73.992188 L 36.066406 77.445312 C 35.722656 77.382812 35.371094 77.359375 35.023438 77.359375 C 35.019531 77.359375 35.019531 77.359375 35.015625 77.359375 C 33.753906 77.359375 32.46875 77.6875 31.226562 78.136719 C 29.757812 78.683594 28.34375 79.417969 27.164062 80.109375 " fill-opacity="1" fill-rule="nonzero"/><path fill="rgb(20.779419%, 20.779419%, 26.269531%)" d="M 24.75 83.03125 C 27.128906 74.492188 38.246094 67.636719 38.246094 67.636719 C 36.875 66.960938 35.660156 66.773438 34.734375 66.773438 C 33.597656 66.773438 32.902344 67.058594 32.902344 67.058594 C 36.132812 63.347656 39.796875 62.777344 41.746094 62.777344 C 42.613281 62.777344 43.140625 62.890625 43.140625 62.890625 L 42.277344 63.585938 L 43.140625 62.890625 L 45.714844 66.105469 C 45.707031 66.113281 45.695312 66.121094 45.683594 66.132812 C 45.429688 66.382812 45.175781 66.632812 44.925781 66.886719 L 42.550781 63.925781 C 42.351562 63.90625 42.078125 63.886719 41.746094 63.886719 C 41.746094 63.886719 41.742188 63.886719 41.742188 63.886719 C 40.875 63.886719 39.609375 64.015625 38.203125 64.558594 C 37.488281 64.839844 36.730469 65.222656 35.96875 65.757812 C 36.796875 65.882812 37.734375 66.148438 38.734375 66.640625 L 40.53125 67.527344 L 38.824219 68.582031 L 38.8125 68.589844 L 38.765625 68.617188 C 38.71875 68.648438 38.652344 68.6875 38.570312 68.742188 C 38.398438 68.855469 38.144531 69.019531 37.828125 69.238281 C 37.195312 69.675781 36.304688 70.316406 35.289062 71.125 C 33.257812 72.738281 30.726562 75.039062 28.746094 77.6875 C 28.164062 78.46875 27.628906 79.28125 27.164062 80.109375 C 28.34375 79.417969 29.757812 78.683594 31.226562 78.136719 C 32.46875 77.6875 33.753906 77.359375 35.015625 77.359375 C 35.019531 77.359375 35.019531 77.359375 35.023438 77.359375 C 35.371094 77.359375 35.722656 77.382812 36.066406 77.445312 L 34.792969 78.476562 C 30.535156 78.628906 24.75 83.03125 24.75 83.03125 " fill-opacity="1" fill-rule="nonzero"/><path fill="rgb(74.119568%, 73.728943%, 74.119568%)" d="M 50.175781 61.96875 L 46.011719 56.777344 C 46.886719 54.882812 49.757812 48.820312 53.941406 41.804688 C 58.699219 33.816406 65.183594 24.585938 72.226562 18.910156 C 80.617188 12.136719 90.449219 8.273438 99.5625 6.109375 C 103.140625 5.257812 106.609375 4.667969 109.828125 4.269531 C 110.632812 7.65625 112.257812 11.046875 114.699219 14.089844 L 101.953125 24.378906 C 98.710938 20.332031 93.949219 18.226562 89.148438 18.226562 C 89.144531 18.226562 89.144531 18.226562 89.144531 18.226562 C 89.140625 18.226562 89.140625 18.226562 89.140625 18.226562 C 85.527344 18.226562 81.886719 19.417969 78.855469 21.867188 C 74.820312 25.121094 72.722656 29.90625 72.722656 34.722656 C 72.722656 38.347656 73.910156 42.003906 76.351562 45.046875 L 73.453125 47.386719 L 72.53125 46.238281 L 71.726562 46.664062 C 70.972656 47.0625 70.238281 47.472656 69.515625 47.882812 L 69.511719 47.886719 C 67.75 48.894531 66.03125 49.960938 64.355469 51.070312 C 61 53.285156 57.789062 55.671875 54.679688 58.171875 L 54.675781 58.171875 C 53.152344 59.40625 51.648438 60.667969 50.175781 61.96875 " fill-opacity="1" fill-rule="nonzero"/><path fill="rgb(12.548828%, 13.328552%, 40.388489%)" d="M 46.011719 56.777344 L 45.332031 55.929688 C 47.75 50.695312 58.4375 28.621094 71.535156 18.046875 C 83.402344 8.46875 98.066406 4.691406 109.621094 3.296875 C 109.683594 3.621094 109.753906 3.945312 109.828125 4.269531 C 106.609375 4.667969 103.140625 5.257812 99.5625 6.109375 C 90.449219 8.273438 80.617188 12.136719 72.226562 18.910156 C 65.183594 24.585938 58.699219 33.816406 53.941406 41.804688 C 49.757812 48.820312 46.886719 54.882812 46.011719 56.777344 " fill-opacity="1" fill-rule="nonzero"/><path fill="rgb(12.548828%, 13.328552%, 40.388489%)" d="M 49.347656 62.703125 L 44.820312 57.0625 C 44.820312 57.0625 44.996094 56.660156 45.332031 55.929688 L 46.011719 56.777344 L 50.175781 61.96875 C 49.898438 62.214844 49.621094 62.457031 49.347656 62.703125 " fill-opacity="1" fill-rule="nonzero"/><path fill="rgb(98.429871%, 77.648926%, 12.939453%)" d="M 115.5625 13.394531 C 118.136719 16.605469 121.292969 18.964844 124.59375 20.375 C 126.082031 16.003906 127.09375 12.078125 127.761719 9.039062 C 128.632812 5.074219 126.488281 2.367188 122.484375 2.367188 C 119.371094 2.371094 115.3125 2.519531 110.699219 3.046875 C 111.363281 6.582031 112.988281 10.1875 115.5625 13.394531 " fill-opacity="1" fill-rule="nonzero"/><g clip-path="url(#clip-6)"><path fill="rgb(18.03894%, 19.219971%, 57.249451%)" d="M 115.5625 13.394531 L 114.699219 14.089844 C 117.382812 17.4375 120.683594 19.910156 124.160156 21.394531 L 125.253906 21.863281 L 125.640625 20.734375 C 127.144531 16.3125 128.167969 12.347656 128.84375 9.277344 C 128.984375 8.617188 129.058594 7.976562 129.058594 7.355469 C 129.058594 6.472656 128.90625 5.636719 128.601562 4.882812 C 128.148438 3.746094 127.332031 2.808594 126.269531 2.191406 C 125.207031 1.566406 123.921875 1.257812 122.488281 1.257812 C 122.488281 1.257812 122.480469 1.257812 122.476562 1.257812 C 122.445312 1.257812 122.347656 1.257812 122.207031 1.296875 C 122.027344 1.335938 121.800781 1.46875 121.667969 1.621094 L 122.484375 2.367188 L 122.480469 1.257812 C 119.335938 1.261719 115.234375 1.414062 110.574219 1.945312 L 109.390625 2.082031 L 109.613281 3.253906 C 110.316406 6.976562 112.015625 10.742188 114.699219 14.089844 L 116.421875 12.699219 C 113.960938 9.628906 112.414062 6.1875 111.785156 2.839844 L 110.699219 3.046875 L 110.824219 4.152344 C 115.386719 3.628906 119.410156 3.480469 122.484375 3.476562 L 122.96875 3.476562 L 123.296875 3.117188 L 122.484375 2.371094 L 122.761719 3.441406 C 122.9375 3.402344 123.167969 3.269531 123.296875 3.117188 L 122.484375 2.371094 L 122.761719 3.441406 L 122.488281 2.375 L 122.488281 3.476562 C 122.488281 3.476562 122.488281 3.476562 122.5 3.476562 C 122.527344 3.476562 122.621094 3.476562 122.761719 3.441406 L 122.488281 2.375 L 122.488281 3.476562 C 123.984375 3.480469 125.054688 3.902344 125.75 4.542969 C 126.097656 4.867188 126.367188 5.253906 126.554688 5.714844 C 126.742188 6.179688 126.847656 6.726562 126.847656 7.355469 C 126.847656 7.800781 126.796875 8.28125 126.679688 8.800781 C 126.023438 11.804688 125.019531 15.691406 123.546875 20.019531 L 124.59375 20.375 L 125.023438 19.355469 C 121.902344 18.019531 118.882812 15.773438 116.421875 12.699219 L 115.5625 13.394531 " fill-opacity="1" fill-rule="nonzero"/></g><path fill="rgb(97.24884%, 63.139343%, 6.669617%)" d="M 116.253906 12.484375 C 114.171875 9.832031 112.769531 6.910156 112.042969 4.015625 C 116.101562 3.601562 119.683594 3.480469 122.484375 3.476562 L 122.585938 3.476562 C 124.03125 3.5 125.070312 3.914062 125.75 4.542969 C 125.804688 4.59375 125.855469 4.640625 125.90625 4.695312 L 116.253906 12.484375 " fill-opacity="1" fill-rule="nonzero"/><path fill="rgb(20.779419%, 20.779419%, 26.269531%)" d="M 115.390625 13.179688 C 112.917969 10.023438 111.351562 6.503906 110.699219 3.046875 L 110.71875 3.046875 C 111.28125 2.980469 111.832031 2.925781 112.378906 2.871094 L 112.511719 2.855469 C 112.730469 2.835938 112.949219 2.8125 113.167969 2.792969 C 113.238281 2.789062 113.3125 2.78125 113.382812 2.777344 C 113.570312 2.757812 113.761719 2.742188 113.949219 2.730469 C 114.03125 2.722656 114.109375 2.714844 114.1875 2.707031 C 114.363281 2.691406 114.542969 2.679688 114.714844 2.667969 C 114.800781 2.660156 114.882812 2.652344 114.964844 2.648438 C 115.140625 2.632812 115.308594 2.625 115.480469 2.609375 C 115.558594 2.605469 115.640625 2.601562 115.71875 2.597656 C 115.894531 2.582031 116.070312 2.574219 116.242188 2.5625 C 116.3125 2.558594 116.382812 2.554688 116.449219 2.550781 C 116.65625 2.539062 116.855469 2.527344 117.058594 2.515625 L 117.164062 2.507812 C 117.402344 2.496094 117.636719 2.484375 117.867188 2.476562 C 117.925781 2.472656 117.980469 2.472656 118.039062 2.46875 C 118.210938 2.460938 118.375 2.453125 118.539062 2.449219 C 118.632812 2.445312 118.71875 2.441406 118.808594 2.4375 C 118.941406 2.433594 119.070312 2.425781 119.199219 2.425781 C 119.296875 2.421875 119.394531 2.417969 119.492188 2.414062 C 119.609375 2.410156 119.722656 2.410156 119.835938 2.402344 C 119.9375 2.402344 120.042969 2.402344 120.144531 2.398438 C 120.246094 2.394531 120.347656 2.394531 120.453125 2.390625 C 120.558594 2.386719 120.664062 2.386719 120.765625 2.386719 C 120.859375 2.382812 120.953125 2.378906 121.046875 2.378906 C 121.152344 2.378906 121.265625 2.378906 121.371094 2.375 C 121.449219 2.375 121.527344 2.375 121.605469 2.375 C 121.722656 2.375 121.839844 2.375 121.953125 2.371094 L 122.058594 2.371094 C 122.203125 2.371094 122.34375 2.367188 122.484375 2.367188 L 122.597656 2.371094 C 122.679688 2.375 122.757812 2.375 122.839844 2.375 L 122.996094 2.386719 C 123.058594 2.390625 123.121094 2.394531 123.1875 2.398438 C 123.238281 2.402344 123.292969 2.410156 123.347656 2.414062 C 123.40625 2.421875 123.464844 2.425781 123.523438 2.433594 L 123.683594 2.457031 C 123.738281 2.46875 123.796875 2.476562 123.847656 2.484375 L 124.003906 2.515625 L 124.167969 2.550781 L 124.320312 2.585938 L 124.617188 2.671875 L 124.765625 2.71875 L 124.90625 2.769531 L 125.046875 2.824219 L 125.183594 2.878906 L 125.316406 2.941406 L 125.445312 3.003906 L 125.570312 3.074219 L 125.699219 3.140625 L 125.820312 3.214844 L 125.9375 3.289062 L 126.164062 3.453125 L 126.273438 3.539062 L 126.378906 3.625 L 126.488281 3.722656 L 126.582031 3.808594 C 126.640625 3.859375 126.695312 3.917969 126.75 3.980469 L 126.769531 4 L 125.90625 4.695312 C 125.855469 4.640625 125.804688 4.59375 125.75 4.542969 C 125.070312 3.914062 124.03125 3.5 122.585938 3.476562 L 122.484375 3.476562 C 119.683594 3.480469 116.101562 3.601562 112.042969 4.015625 C 112.769531 6.910156 114.171875 9.832031 116.253906 12.484375 L 115.390625 13.179688 " fill-opacity="1" fill-rule="nonzero"/><path fill="rgb(98.429871%, 77.648926%, 12.939453%)" d="M 98.757812 46.695312 C 92.164062 52.019531 82.519531 50.96875 77.210938 44.351562 C 71.90625 37.734375 72.953125 28.054688 79.546875 22.734375 C 86.140625 17.410156 95.789062 18.457031 101.09375 25.074219 C 106.398438 31.691406 105.355469 41.371094 98.757812 46.695312 " fill-opacity="1" fill-rule="nonzero"/><path fill="rgb(18.03894%, 19.219971%, 57.249451%)" d="M 98.757812 46.695312 L 98.066406 45.832031 C 95.4375 47.953125 92.292969 48.980469 89.164062 48.980469 C 85 48.980469 80.886719 47.160156 78.074219 43.65625 C 75.960938 41.015625 74.933594 37.863281 74.933594 34.722656 C 74.933594 30.546875 76.746094 26.414062 80.242188 23.597656 C 82.871094 21.472656 86.015625 20.441406 89.144531 20.441406 C 93.304688 20.445312 97.421875 22.261719 100.234375 25.769531 C 102.347656 28.410156 103.371094 31.5625 103.375 34.703125 C 103.371094 38.878906 101.5625 43.007812 98.066406 45.832031 L 99.453125 47.558594 C 103.484375 44.304688 105.585938 39.519531 105.582031 34.703125 C 105.582031 31.078125 104.394531 27.421875 101.953125 24.378906 C 98.710938 20.332031 93.941406 18.222656 89.144531 18.226562 C 85.53125 18.222656 81.886719 19.417969 78.855469 21.867188 C 74.820312 25.121094 72.722656 29.90625 72.722656 34.722656 C 72.722656 38.347656 73.910156 42.003906 76.351562 45.046875 C 79.59375 49.089844 84.363281 51.199219 89.164062 51.199219 C 92.773438 51.199219 96.421875 50.007812 99.453125 47.558594 L 98.757812 46.695312 " fill-opacity="1" fill-rule="nonzero"/><path fill="rgb(97.24884%, 63.139343%, 6.669617%)" d="M 78.101562 43.6875 C 78.089844 43.679688 78.082031 43.667969 78.074219 43.65625 C 75.960938 41.015625 74.933594 37.863281 74.933594 34.722656 C 74.933594 30.546875 76.746094 26.414062 80.242188 23.597656 C 82.871094 21.472656 86.015625 20.441406 89.144531 20.441406 C 93.304688 20.445312 97.421875 22.261719 100.234375 25.769531 C 100.242188 25.78125 100.25 25.792969 100.257812 25.804688 L 98.890625 26.90625 C 98.882812 26.894531 98.871094 26.886719 98.863281 26.875 C 96.402344 23.804688 92.789062 22.207031 89.152344 22.207031 C 89.148438 22.207031 89.148438 22.207031 89.144531 22.207031 C 89.144531 22.207031 89.144531 22.207031 89.140625 22.207031 C 86.402344 22.207031 83.636719 23.113281 81.339844 24.96875 C 78.28125 27.4375 76.6875 31.066406 76.6875 34.71875 C 76.6875 37.46875 77.59375 40.246094 79.441406 42.550781 C 79.449219 42.5625 79.460938 42.574219 79.46875 42.585938 L 78.101562 43.6875 " fill-opacity="1" fill-rule="nonzero"/><path fill="rgb(20.779419%, 20.779419%, 26.269531%)" d="M 77.238281 44.386719 L 77.210938 44.351562 C 71.90625 37.734375 72.953125 28.054688 79.546875 22.734375 C 82.378906 20.445312 85.773438 19.335938 89.144531 19.335938 C 93.625 19.335938 98.066406 21.300781 101.09375 25.074219 L 101.121094 25.105469 L 100.257812 25.804688 C 100.25 25.792969 100.242188 25.78125 100.234375 25.769531 C 97.421875 22.261719 93.304688 20.445312 89.144531 20.441406 C 86.015625 20.441406 82.871094 21.472656 80.242188 23.597656 C 76.746094 26.414062 74.933594 30.546875 74.933594 34.722656 C 74.933594 37.863281 75.960938 41.015625 78.074219 43.65625 C 78.082031 43.667969 78.089844 43.679688 78.101562 43.6875 L 77.238281 44.386719 " fill-opacity="1" fill-rule="nonzero"/><path fill="rgb(48.239136%, 69.799805%, 89.408875%)" d="M 96.273438 43.59375 C 91.386719 47.539062 84.234375 46.761719 80.304688 41.859375 C 76.371094 36.953125 77.144531 29.777344 82.03125 25.832031 C 86.921875 21.886719 94.070312 22.664062 98.003906 27.570312 C 101.9375 32.472656 101.160156 39.648438 96.273438 43.59375 " fill-opacity="1" fill-rule="nonzero"/><path fill="rgb(18.03894%, 19.219971%, 57.249451%)" d="M 96.273438 43.59375 L 95.582031 42.726562 C 93.683594 44.261719 91.417969 45 89.160156 45.003906 C 86.160156 45 83.191406 43.6875 81.164062 41.164062 C 79.636719 39.257812 78.902344 36.984375 78.898438 34.71875 C 78.902344 31.707031 80.207031 28.730469 82.726562 26.699219 C 84.621094 25.164062 86.886719 24.421875 89.144531 24.421875 C 92.148438 24.421875 95.113281 25.734375 97.144531 28.265625 C 98.667969 30.167969 99.40625 32.4375 99.40625 34.707031 C 99.40625 37.71875 98.101562 40.695312 95.582031 42.726562 L 96.273438 43.59375 L 96.96875 44.457031 C 100.023438 41.988281 101.621094 38.359375 101.617188 34.707031 C 101.621094 31.957031 100.714844 29.179688 98.863281 26.875 C 96.402344 23.804688 92.785156 22.203125 89.144531 22.207031 C 86.40625 22.203125 83.640625 23.113281 81.339844 24.96875 C 78.28125 27.4375 76.6875 31.066406 76.6875 34.71875 C 76.6875 37.46875 77.59375 40.246094 79.441406 42.550781 C 81.902344 45.621094 85.519531 47.222656 89.160156 47.21875 C 91.898438 47.21875 94.664062 46.316406 96.96875 44.457031 L 96.273438 43.59375 " fill-opacity="1" fill-rule="nonzero"/><path fill="rgb(25.878906%, 55.288696%, 82.348633%)" d="M 81.191406 41.195312 C 81.179688 41.183594 81.175781 41.171875 81.164062 41.164062 C 79.636719 39.257812 78.902344 36.984375 78.898438 34.71875 C 78.902344 31.707031 80.207031 28.730469 82.726562 26.699219 C 84.621094 25.164062 86.886719 24.421875 89.144531 24.421875 C 92.148438 24.421875 95.113281 25.734375 97.144531 28.265625 C 97.148438 28.273438 97.160156 28.285156 97.167969 28.296875 L 81.191406 41.195312 " fill-opacity="1" fill-rule="nonzero"/><path fill="rgb(18.03894%, 19.219971%, 57.249451%)" d="M 80.328125 41.890625 L 80.304688 41.859375 C 76.371094 36.953125 77.144531 29.777344 82.03125 25.832031 C 84.132812 24.136719 86.648438 23.316406 89.144531 23.316406 C 92.46875 23.316406 95.757812 24.769531 98.003906 27.570312 L 98.027344 27.601562 L 97.167969 28.296875 C 97.160156 28.285156 97.148438 28.273438 97.144531 28.265625 C 95.113281 25.734375 92.148438 24.421875 89.144531 24.421875 C 86.886719 24.421875 84.621094 25.164062 82.726562 26.699219 C 80.207031 28.730469 78.902344 31.707031 78.898438 34.71875 C 78.902344 36.984375 79.636719 39.257812 81.164062 41.164062 C 81.175781 41.171875 81.179688 41.183594 81.191406 41.195312 L 80.328125 41.890625 " fill-opacity="1" fill-rule="nonzero"/><path fill="rgb(48.239136%, 69.799805%, 89.408875%)" d="M 42.300781 71.25 C 41.816406 71.785156 41.34375 72.332031 40.871094 72.886719 L 41.964844 74.246094 C 42.601562 73.90625 43.234375 73.550781 43.863281 73.195312 C 45.601562 72.199219 47.296875 71.148438 48.957031 70.046875 C 52.277344 67.855469 55.460938 65.492188 58.546875 63 C 61.628906 60.507812 64.609375 57.894531 67.453125 55.109375 C 68.878906 53.714844 70.269531 52.277344 71.613281 50.785156 C 72.164062 50.167969 72.710938 49.542969 73.25 48.90625 L 72.242188 47.644531 C 71.503906 48.035156 70.777344 48.4375 70.058594 48.847656 C 68.316406 49.847656 66.621094 50.898438 64.964844 51.996094 C 61.640625 54.191406 58.457031 56.554688 55.371094 59.039062 C 52.285156 61.527344 49.300781 64.144531 46.457031 66.929688 C 45.03125 68.320312 43.644531 69.753906 42.300781 71.25 " fill-opacity="1" fill-rule="nonzero"/><path fill="rgb(18.03894%, 19.219971%, 57.249451%)" d="M 42.300781 71.25 L 41.476562 70.507812 C 40.992188 71.050781 40.507812 71.601562 40.027344 72.164062 L 39.433594 72.863281 L 41.675781 75.65625 L 42.480469 75.226562 C 43.132812 74.878906 43.773438 74.519531 44.40625 74.160156 L 44.410156 74.160156 C 46.171875 73.148438 47.890625 72.082031 49.566406 70.976562 C 52.917969 68.757812 56.132812 66.375 59.238281 63.867188 C 62.34375 61.355469 65.351562 58.714844 68.226562 55.902344 C 69.664062 54.492188 71.070312 53.042969 72.429688 51.53125 L 72.433594 51.527344 C 72.992188 50.902344 73.546875 50.269531 74.09375 49.617188 L 74.683594 48.921875 L 72.53125 46.238281 L 71.726562 46.664062 C 70.972656 47.0625 70.238281 47.472656 69.515625 47.882812 L 69.511719 47.886719 C 67.75 48.894531 66.03125 49.960938 64.355469 51.070312 C 61 53.285156 57.789062 55.671875 54.679688 58.171875 L 54.675781 58.171875 C 51.570312 60.683594 48.558594 63.320312 45.683594 66.132812 C 44.242188 67.539062 42.839844 68.996094 41.480469 70.507812 L 41.476562 70.507812 L 42.300781 71.25 L 43.121094 71.992188 C 44.449219 70.519531 45.816406 69.097656 47.226562 67.722656 C 50.046875 64.964844 53 62.371094 56.0625 59.902344 L 56.058594 59.902344 C 59.125 57.4375 62.28125 55.09375 65.570312 52.925781 C 67.214844 51.839844 68.886719 50.796875 70.605469 49.8125 L 70.601562 49.8125 C 71.320312 49.410156 72.035156 49.007812 72.757812 48.628906 L 72.242188 47.644531 L 71.378906 48.339844 L 72.386719 49.601562 L 73.25 48.90625 L 72.40625 48.191406 C 71.878906 48.816406 71.335938 49.433594 70.789062 50.042969 C 69.464844 51.515625 68.09375 52.9375 66.683594 54.3125 C 63.867188 57.070312 60.910156 59.664062 57.851562 62.136719 C 54.792969 64.609375 51.636719 66.949219 48.347656 69.121094 C 46.707031 70.207031 45.03125 71.246094 43.316406 72.234375 L 43.320312 72.230469 C 42.695312 72.585938 42.070312 72.933594 41.441406 73.265625 L 41.964844 74.246094 L 42.820312 73.550781 L 41.730469 72.1875 L 40.871094 72.886719 L 41.710938 73.605469 C 42.171875 73.058594 42.644531 72.523438 43.125 71.988281 L 43.121094 71.992188 L 42.300781 71.25 " fill-opacity="1" fill-rule="nonzero"/><path fill="rgb(25.878906%, 55.288696%, 82.348633%)" d="M 43.96875 71.0625 C 45.03125 69.921875 46.117188 68.808594 47.226562 67.722656 C 50.046875 64.964844 53 62.371094 56.0625 59.902344 L 56.058594 59.902344 C 59.125 57.4375 62.28125 55.09375 65.570312 52.925781 C 66.855469 52.074219 68.160156 51.253906 69.488281 50.464844 L 43.96875 71.0625 " fill-opacity="1" fill-rule="nonzero"/><path fill="rgb(18.03894%, 19.219971%, 57.249451%)" d="M 41.203125 73.296875 L 40.871094 72.886719 C 41.34375 72.332031 41.816406 71.785156 42.300781 71.25 C 43.644531 69.753906 45.03125 68.320312 46.457031 66.929688 C 49.300781 64.144531 52.285156 61.527344 55.371094 59.039062 C 58.457031 56.554688 61.640625 54.191406 64.964844 51.996094 C 66.621094 50.898438 68.316406 49.847656 70.058594 48.847656 C 70.777344 48.4375 71.503906 48.035156 72.242188 47.644531 L 72.53125 48.007812 L 69.488281 50.464844 C 68.160156 51.253906 66.855469 52.074219 65.570312 52.925781 C 62.28125 55.09375 59.125 57.4375 56.058594 59.902344 L 56.0625 59.902344 C 53 62.371094 50.046875 64.964844 47.226562 67.722656 C 46.117188 68.808594 45.03125 69.921875 43.96875 71.0625 L 41.203125 73.296875 " fill-opacity="1" fill-rule="nonzero"/><path fill="rgb(23.529053%, 23.529053%, 61.569214%)" d="M 150.683594 108.527344 L 137.929688 108.527344 L 140.21875 179.777344 L 146.300781 179.777344 L 150.5 116.070312 L 154.101562 179.777344 L 160.890625 179.777344 L 163.601562 108.527344 L 150.683594 108.527344 " fill-opacity="1" fill-rule="nonzero"/><path fill="rgb(18.03894%, 19.219971%, 57.249451%)" d="M 150.683594 108.527344 L 150.683594 107.621094 L 136.996094 107.621094 L 139.34375 180.679688 L 147.144531 180.679688 L 150.433594 130.808594 L 153.25 180.679688 L 161.757812 180.679688 L 164.535156 107.621094 L 150.683594 107.621094 L 150.683594 109.429688 L 162.664062 109.429688 L 160.023438 178.871094 L 154.953125 178.871094 L 151.402344 116.015625 L 149.601562 116.011719 L 145.457031 178.871094 L 141.089844 178.871094 L 138.855469 109.429688 L 150.683594 109.429688 L 150.683594 108.527344 " fill-opacity="1" fill-rule="nonzero"/><path fill="rgb(98.039246%, 73.329163%, 3.529358%)" d="M 135.808594 129.957031 L 164.945312 129.957031 C 164.878906 100.605469 161.03125 95.296875 160.148438 83.457031 C 159.90625 80.175781 163.421875 57.289062 163.421875 56.164062 C 163.421875 53.628906 161.707031 48.652344 157.417969 48.652344 C 156.078125 48.652344 154.191406 48.652344 154.191406 48.652344 L 149.253906 48.652344 C 149.253906 48.652344 147.535156 48.652344 146.199219 48.652344 C 141.902344 48.652344 137.941406 51.402344 137.941406 57.445312 C 137.941406 58.304688 141.542969 75.007812 141.542969 83.574219 C 141.542969 85.558594 136.019531 107.25 135.808594 129.957031 " fill-opacity="1" fill-rule="nonzero"/><path fill="rgb(18.03894%, 19.219971%, 57.249451%)" d="M 135.808594 129.957031 L 135.808594 130.859375 L 165.847656 130.859375 L 165.84375 129.953125 C 165.8125 115.242188 164.832031 106.511719 163.742188 99.992188 C 163.199219 96.734375 162.628906 94.03125 162.148438 91.425781 C 161.664062 88.816406 161.265625 86.304688 161.046875 83.390625 C 161.042969 83.308594 161.039062 83.195312 161.039062 83.058594 C 161.039062 82.5625 161.085938 81.761719 161.175781 80.765625 C 161.484375 77.273438 162.273438 71.382812 162.980469 66.257812 C 163.332031 63.695312 163.667969 61.320312 163.914062 59.523438 C 164.035156 58.628906 164.136719 57.875 164.207031 57.3125 C 164.242188 57.03125 164.273438 56.796875 164.292969 56.613281 C 164.300781 56.519531 164.308594 56.4375 164.316406 56.367188 C 164.320312 56.292969 164.324219 56.238281 164.324219 56.164062 C 164.324219 55.429688 164.203125 54.574219 163.957031 53.675781 C 163.582031 52.335938 162.925781 50.898438 161.863281 49.746094 C 161.332031 49.167969 160.699219 48.667969 159.953125 48.308594 C 159.207031 47.953125 158.351562 47.746094 157.417969 47.746094 C 156.078125 47.746094 154.191406 47.746094 154.191406 47.746094 L 149.253906 47.746094 C 149.253906 47.746094 147.535156 47.746094 146.199219 47.746094 C 143.863281 47.746094 141.5625 48.496094 139.839844 50.121094 C 138.113281 51.746094 137.03125 54.226562 137.039062 57.445312 C 137.039062 57.542969 137.046875 57.601562 137.054688 57.675781 C 137.089844 57.949219 137.164062 58.386719 137.277344 59.015625 C 137.675781 61.199219 138.515625 65.554688 139.261719 70.265625 C 140.003906 74.96875 140.644531 80.042969 140.640625 83.574219 C 140.644531 83.601562 140.628906 83.789062 140.589844 84.039062 C 140.449219 85.007812 140.027344 87.070312 139.484375 89.890625 C 137.84375 98.375 135.058594 113.882812 134.910156 129.945312 L 134.898438 130.859375 L 135.808594 130.859375 L 135.808594 129.957031 L 136.710938 129.960938 C 136.8125 118.679688 138.238281 107.621094 139.644531 99.140625 C 140.347656 94.902344 141.039062 91.304688 141.5625 88.640625 C 141.820312 87.304688 142.039062 86.207031 142.191406 85.367188 C 142.269531 84.949219 142.328125 84.59375 142.375 84.304688 C 142.414062 84.011719 142.445312 83.796875 142.445312 83.574219 C 142.441406 79.171875 141.535156 72.847656 140.628906 67.46875 C 140.175781 64.785156 139.726562 62.339844 139.386719 60.519531 C 139.21875 59.609375 139.078125 58.855469 138.980469 58.304688 C 138.933594 58.03125 138.894531 57.804688 138.867188 57.644531 C 138.855469 57.570312 138.851562 57.503906 138.84375 57.460938 L 138.839844 57.421875 L 138.390625 57.445312 L 138.839844 57.445312 L 138.839844 57.421875 L 138.390625 57.445312 L 138.839844 57.445312 C 138.84375 54.617188 139.746094 52.703125 141.074219 51.4375 C 142.410156 50.179688 144.238281 49.554688 146.199219 49.554688 C 147.535156 49.554688 149.253906 49.554688 149.253906 49.554688 L 154.191406 49.554688 C 154.191406 49.554688 154.660156 49.554688 155.300781 49.554688 C 155.941406 49.554688 156.746094 49.554688 157.417969 49.554688 C 158.3125 49.558594 159.035156 49.804688 159.671875 50.222656 C 160.617188 50.84375 161.347656 51.894531 161.824219 53.023438 C 162.308594 54.152344 162.523438 55.359375 162.523438 56.164062 L 162.769531 56.164062 L 162.523438 56.15625 L 162.523438 56.164062 L 162.769531 56.164062 L 162.523438 56.15625 C 162.523438 56.160156 162.511719 56.320312 162.488281 56.53125 C 162.394531 57.347656 162.144531 59.171875 161.824219 61.484375 C 161.339844 64.957031 160.695312 69.550781 160.167969 73.667969 C 159.90625 75.726562 159.675781 77.667969 159.507812 79.292969 C 159.339844 80.921875 159.234375 82.21875 159.234375 83.058594 C 159.234375 83.230469 159.242188 83.382812 159.25 83.523438 C 159.476562 86.527344 159.886719 89.121094 160.375 91.757812 C 161.109375 95.710938 162.007812 99.765625 162.738281 105.582031 C 163.464844 111.394531 164.019531 118.980469 164.042969 129.957031 L 164.945312 129.957031 L 164.945312 129.050781 L 135.808594 129.050781 L 135.808594 129.957031 L 136.710938 129.960938 L 135.808594 129.957031 " fill-opacity="1" fill-rule="nonzero"/><path fill="rgb(96.078491%, 47.059631%, 59.999084%)" d="M 145.617188 49.015625 C 145.617188 49.015625 146.726562 51.5625 150.289062 51.5625 C 153.390625 51.5625 154.988281 49.015625 154.988281 49.015625 L 154.988281 43.179688 L 145.617188 43.179688 L 145.617188 49.015625 " fill-opacity="1" fill-rule="nonzero"/><path fill="rgb(18.03894%, 19.219971%, 57.249451%)" d="M 145.617188 49.015625 L 144.789062 49.375 C 144.828125 49.457031 145.160156 50.207031 146.019531 50.96875 C 146.878906 51.726562 148.292969 52.46875 150.289062 52.464844 C 152.09375 52.464844 153.472656 51.714844 154.367188 50.992188 C 155.265625 50.265625 155.714844 49.554688 155.753906 49.496094 L 155.890625 49.273438 L 155.890625 42.273438 L 144.714844 42.273438 L 144.714844 49.203125 L 144.789062 49.375 L 145.617188 49.015625 L 146.515625 49.015625 L 146.515625 44.082031 L 154.089844 44.082031 L 154.089844 49.015625 L 154.988281 49.015625 L 154.226562 48.53125 L 154.46875 48.683594 L 154.230469 48.527344 L 154.226562 48.53125 L 154.46875 48.683594 L 154.230469 48.527344 C 154.21875 48.546875 153.847656 49.109375 153.175781 49.636719 C 152.492188 50.164062 151.546875 50.65625 150.289062 50.65625 C 148.722656 50.648438 147.800781 50.117188 147.210938 49.605469 C 146.917969 49.351562 146.714844 49.09375 146.59375 48.90625 C 146.53125 48.816406 146.488281 48.742188 146.464844 48.695312 L 146.4375 48.644531 L 145.992188 48.851562 L 146.441406 48.652344 L 146.4375 48.644531 L 145.992188 48.851562 L 146.441406 48.652344 L 145.617188 49.015625 L 146.515625 49.015625 L 145.617188 49.015625 " fill-opacity="1" fill-rule="nonzero"/><path fill="rgb(96.859741%, 57.249451%, 65.879822%)" d="M 156.882812 43.742188 L 156.949219 43.695312 L 156.882812 43.742188 " fill-opacity="1" fill-rule="nonzero"/><path fill="rgb(18.03894%, 19.219971%, 57.249451%)" d="M 156.882812 43.742188 L 157.390625 44.488281 L 157.457031 44.441406 L 156.441406 42.949219 L 156.375 42.996094 L 157.390625 44.488281 L 156.882812 43.742188 L 157.390625 44.488281 L 157.457031 44.441406 L 156.441406 42.949219 L 156.375 42.996094 L 157.390625 44.488281 L 156.882812 43.742188 " fill-opacity="1" fill-rule="nonzero"/><path fill="rgb(96.859741%, 57.249451%, 65.879822%)" d="M 155.199219 44.652344 L 155.21875 44.644531 L 155.199219 44.652344 " fill-opacity="1" fill-rule="nonzero"/><path fill="rgb(18.03894%, 19.219971%, 57.249451%)" d="M 155.199219 44.652344 L 155.554688 45.484375 L 155.574219 45.476562 L 154.859375 43.816406 L 154.84375 43.824219 L 155.554688 45.484375 L 155.199219 44.652344 L 155.554688 45.484375 L 155.574219 45.476562 L 154.859375 43.816406 L 154.84375 43.824219 L 155.554688 45.484375 L 155.199219 44.652344 " fill-opacity="1" fill-rule="nonzero"/><path fill="rgb(96.859741%, 57.249451%, 65.879822%)" d="M 155.953125 44.289062 C 156.042969 44.242188 156.136719 44.191406 156.226562 44.140625 C 156.128906 44.191406 156.039062 44.246094 155.953125 44.289062 " fill-opacity="1" fill-rule="nonzero"/><path fill="rgb(18.03894%, 19.219971%, 57.249451%)" d="M 155.953125 44.289062 L 156.375 45.089844 C 156.46875 45.039062 156.570312 44.984375 156.671875 44.925781 L 155.789062 43.351562 C 155.6875 43.40625 155.605469 43.453125 155.535156 43.488281 L 156.375 45.089844 L 155.953125 44.289062 L 156.371094 45.09375 C 156.476562 45.035156 156.570312 44.980469 156.664062 44.933594 L 156.226562 44.140625 L 155.777344 43.355469 C 155.699219 43.402344 155.617188 43.445312 155.53125 43.492188 L 156.371094 45.09375 L 155.953125 44.289062 " fill-opacity="1" fill-rule="nonzero"/><path fill="rgb(96.859741%, 57.249451%, 65.879822%)" d="M 140.324219 35.339844 C 140.324219 41.054688 144.945312 45.691406 150.640625 45.691406 C 156.335938 45.691406 160.957031 41.054688 160.957031 35.339844 L 160.957031 29.582031 C 160.957031 23.863281 156.335938 19.226562 150.640625 19.226562 C 144.945312 19.226562 140.324219 23.863281 140.324219 29.582031 L 140.324219 35.339844 " fill-opacity="1" fill-rule="nonzero"/><path fill="rgb(18.03894%, 19.219971%, 57.249451%)" d="M 140.324219 35.339844 L 139.425781 35.339844 C 139.425781 41.554688 144.445312 46.59375 150.640625 46.59375 C 156.832031 46.59375 161.855469 41.554688 161.855469 35.339844 L 161.855469 29.582031 C 161.855469 23.363281 156.832031 18.324219 150.640625 18.324219 C 144.445312 18.324219 139.425781 23.363281 139.425781 29.582031 L 139.425781 35.339844 L 141.226562 35.339844 L 141.226562 29.582031 C 141.226562 26.96875 142.28125 24.613281 143.984375 22.902344 C 145.691406 21.1875 148.039062 20.132812 150.640625 20.132812 C 153.242188 20.132812 155.589844 21.1875 157.296875 22.898438 C 159 24.613281 160.054688 26.96875 160.054688 29.582031 L 160.054688 35.339844 C 160.054688 37.949219 159 40.304688 157.296875 42.019531 C 155.589844 43.730469 153.242188 44.785156 150.640625 44.785156 C 148.039062 44.785156 145.691406 43.730469 143.984375 42.019531 C 142.28125 40.304688 141.226562 37.949219 141.226562 35.339844 L 140.324219 35.339844 " fill-opacity="1" fill-rule="nonzero"/><path fill="rgb(96.859741%, 57.249451%, 65.879822%)" d="M 182.09375 62.949219 L 181.863281 62.8125 L 160.910156 50.445312 C 158.914062 49.269531 156.347656 49.9375 155.175781 51.941406 C 154 53.9375 154.667969 56.515625 156.664062 57.695312 L 174.40625 68.167969 L 164.558594 90.589844 C 164.558594 90.589844 163.839844 90.230469 163.371094 90.589844 L 163.371094 99.332031 C 163.371094 99.332031 168.238281 96.179688 168.28125 93.378906 L 183.453125 68.382812 L 183.484375 68.332031 C 184.578125 66.460938 183.957031 64.050781 182.09375 62.949219 " fill-opacity="1" fill-rule="nonzero"/><path fill="rgb(18.03894%, 19.219971%, 57.249451%)" d="M 182.09375 62.949219 L 182.554688 62.171875 L 182.324219 62.035156 L 182.320312 62.035156 L 161.367188 49.664062 C 160.558594 49.191406 159.664062 48.960938 158.789062 48.960938 C 157.046875 48.960938 155.347656 49.859375 154.398438 51.480469 C 153.921875 52.289062 153.695312 53.183594 153.695312 54.066406 C 153.691406 55.816406 154.59375 57.519531 156.207031 58.472656 L 173.261719 68.539062 L 163.730469 90.226562 L 164.558594 90.589844 L 164.960938 89.785156 C 164.933594 89.769531 164.816406 89.710938 164.632812 89.652344 C 164.449219 89.59375 164.199219 89.527344 163.886719 89.527344 C 163.582031 89.523438 163.175781 89.601562 162.820312 89.878906 L 162.472656 90.152344 L 162.472656 100.992188 L 163.863281 100.09375 C 163.886719 100.074219 165.136719 99.269531 166.425781 98.070312 C 167.066406 97.46875 167.722656 96.769531 168.242188 95.996094 C 168.757812 95.222656 169.160156 94.359375 169.183594 93.398438 L 168.28125 93.378906 L 169.050781 93.851562 L 184.222656 68.855469 L 184.257812 68.789062 L 184.261719 68.789062 C 184.710938 68.019531 184.925781 67.171875 184.925781 66.34375 C 184.925781 64.683594 184.074219 63.070312 182.550781 62.171875 L 182.554688 62.171875 L 182.09375 62.949219 L 181.636719 63.730469 C 182.59375 64.292969 183.121094 65.300781 183.125 66.34375 C 183.121094 66.863281 182.992188 67.386719 182.707031 67.871094 L 182.675781 67.925781 L 183.453125 68.382812 L 182.683594 67.910156 L 167.382812 93.121094 L 167.382812 93.367188 C 167.378906 93.800781 167.160156 94.382812 166.746094 94.984375 C 166.144531 95.894531 165.164062 96.820312 164.34375 97.488281 C 163.933594 97.824219 163.566406 98.097656 163.300781 98.289062 C 163.167969 98.382812 163.058594 98.457031 162.988281 98.503906 L 162.90625 98.558594 L 162.890625 98.570312 L 162.882812 98.574219 L 163.371094 99.332031 L 164.273438 99.332031 L 164.273438 90.589844 L 163.371094 90.589844 L 163.925781 91.304688 L 163.828125 91.175781 L 163.871094 91.335938 L 163.925781 91.304688 L 163.828125 91.175781 L 163.871094 91.335938 L 163.855469 91.28125 L 163.867188 91.335938 L 163.871094 91.335938 L 163.855469 91.28125 L 163.867188 91.335938 L 163.886719 91.335938 C 163.925781 91.332031 164.011719 91.347656 164.074219 91.371094 L 164.144531 91.398438 L 164.160156 91.402344 L 164.3125 91.074219 L 164.148438 91.398438 L 164.160156 91.402344 L 164.3125 91.074219 L 164.148438 91.398438 L 164.996094 91.828125 L 175.554688 67.796875 L 157.121094 56.917969 C 156.074219 56.300781 155.496094 55.199219 155.496094 54.066406 C 155.496094 53.5 155.640625 52.925781 155.953125 52.398438 C 156.5625 51.347656 157.660156 50.769531 158.789062 50.765625 C 159.355469 50.765625 159.925781 50.914062 160.453125 51.222656 L 181.40625 63.59375 L 181.40625 63.589844 L 181.632812 63.726562 L 181.636719 63.730469 L 182.09375 62.949219 " fill-opacity="1" fill-rule="nonzero"/><path fill="rgb(98.039246%, 73.329163%, 3.529358%)" d="M 170.195312 54.566406 L 161.46875 49.890625 C 159.160156 48.652344 156.292969 49.53125 155.058594 51.847656 C 153.828125 54.160156 154.699219 57.042969 157.007812 58.28125 L 165.734375 62.957031 L 170.195312 54.566406 " fill-opacity="1" fill-rule="nonzero"/><path fill="rgb(18.03894%, 19.219971%, 57.249451%)" d="M 170.195312 54.566406 L 170.621094 53.769531 L 161.894531 49.089844 C 161.050781 48.640625 160.140625 48.425781 159.242188 48.425781 C 157.230469 48.421875 155.277344 49.511719 154.261719 51.417969 C 153.8125 52.265625 153.597656 53.179688 153.597656 54.078125 C 153.597656 56.097656 154.683594 58.054688 156.582031 59.078125 L 166.105469 64.179688 L 171.417969 54.195312 L 170.621094 53.769531 L 170.195312 54.566406 L 169.402344 54.140625 L 165.363281 61.734375 L 157.433594 57.480469 C 156.136719 56.785156 155.402344 55.457031 155.402344 54.078125 C 155.402344 53.46875 155.542969 52.851562 155.851562 52.273438 C 156.546875 50.96875 157.871094 50.234375 159.242188 50.234375 C 159.851562 50.234375 160.46875 50.375 161.042969 50.6875 L 169.773438 55.363281 L 170.195312 54.566406 L 169.402344 54.140625 L 170.195312 54.566406 " fill-opacity="1" fill-rule="nonzero"/><path fill="rgb(96.859741%, 57.249451%, 65.879822%)" d="M 144.25 51.070312 C 142.550781 49.496094 139.898438 49.605469 138.328125 51.3125 L 115.921875 71.289062 C 115.234375 72.039062 114.8125 73.042969 114.8125 74.140625 C 114.8125 76.460938 116.871094 77.308594 118.128906 77.722656 C 122.863281 79.285156 129.785156 81.613281 129.871094 81.671875 C 129.953125 81.722656 132.640625 82.140625 131.785156 86.707031 C 131.785156 86.707031 130.695312 88.046875 130.695312 91.324219 C 130.695312 94.65625 132.542969 96.292969 134.105469 96.292969 C 135.523438 96.292969 137.394531 94.832031 137.394531 90.726562 C 137.394531 89.664062 137.558594 81.699219 134.058594 78.527344 C 131.914062 76.582031 130.628906 75.53125 127.683594 74.304688 C 126.132812 73.660156 127.316406 72.230469 127.8125 71.882812 C 130.574219 69.949219 144.488281 57.011719 144.488281 57.011719 C 146.058594 55.304688 145.949219 52.644531 144.25 51.070312 " fill-opacity="1" fill-rule="nonzero"/><path fill="rgb(18.03894%, 19.219971%, 57.249451%)" d="M 144.25 51.070312 L 144.863281 50.40625 C 143.886719 49.503906 142.644531 49.050781 141.410156 49.050781 C 140.042969 49.050781 138.667969 49.605469 137.667969 50.699219 L 138.328125 51.3125 L 137.730469 50.636719 L 115.285156 70.644531 L 115.257812 70.679688 C 114.421875 71.585938 113.910156 72.808594 113.910156 74.140625 C 113.90625 74.855469 114.070312 75.5 114.351562 76.039062 C 114.773438 76.851562 115.421875 77.40625 116.0625 77.792969 C 116.703125 78.179688 117.347656 78.414062 117.847656 78.582031 C 120.210938 79.363281 123.125 80.335938 125.457031 81.117188 C 126.621094 81.507812 127.644531 81.855469 128.375 82.105469 C 128.742188 82.230469 129.035156 82.332031 129.242188 82.402344 C 129.339844 82.4375 129.417969 82.464844 129.46875 82.484375 L 129.515625 82.5 L 129.632812 82.195312 L 129.503906 82.496094 L 129.515625 82.5 L 129.632812 82.195312 L 129.503906 82.496094 L 129.808594 81.789062 L 129.472656 82.480469 L 129.503906 82.496094 L 129.808594 81.789062 L 129.472656 82.480469 L 129.855469 81.691406 L 129.363281 82.417969 C 129.433594 82.464844 129.453125 82.472656 129.472656 82.480469 L 129.855469 81.691406 L 129.363281 82.417969 L 129.371094 82.421875 L 129.382812 82.429688 C 129.457031 82.480469 129.496094 82.492188 129.527344 82.503906 C 129.582031 82.527344 129.605469 82.535156 129.621094 82.539062 C 129.6875 82.5625 129.710938 82.566406 129.761719 82.582031 C 129.929688 82.640625 130.226562 82.765625 130.5 83.089844 C 130.761719 83.414062 131.046875 83.960938 131.050781 85.054688 C 131.050781 85.472656 131.007812 85.960938 130.898438 86.542969 L 131.785156 86.707031 L 131.085938 86.136719 C 130.96875 86.269531 129.789062 87.84375 129.792969 91.324219 C 129.792969 93.15625 130.304688 94.613281 131.109375 95.621094 C 131.914062 96.632812 133.007812 97.195312 134.105469 97.195312 C 135.125 97.199219 136.21875 96.664062 137.003906 95.582031 C 137.796875 94.503906 138.292969 92.910156 138.292969 90.726562 C 138.292969 90.644531 138.292969 90.496094 138.292969 90.308594 C 138.292969 89.292969 138.261719 87.023438 137.808594 84.597656 C 137.585938 83.382812 137.253906 82.128906 136.757812 80.957031 C 136.257812 79.789062 135.589844 78.699219 134.664062 77.855469 C 133.585938 76.878906 132.695312 76.097656 131.679688 75.398438 C 130.667969 74.703125 129.539062 74.101562 128.027344 73.46875 C 127.847656 73.394531 127.800781 73.335938 127.800781 73.332031 L 127.753906 73.371094 L 127.808594 73.351562 L 127.800781 73.332031 L 127.753906 73.371094 L 127.808594 73.351562 L 127.742188 73.375 L 127.8125 73.363281 L 127.808594 73.351562 L 127.742188 73.375 L 127.8125 73.363281 L 127.808594 73.363281 L 127.8125 73.363281 L 127.808594 73.363281 L 127.8125 73.363281 C 127.8125 73.355469 127.816406 73.308594 127.84375 73.238281 C 127.882812 73.132812 127.976562 72.984375 128.078125 72.863281 C 128.179688 72.742188 128.300781 72.640625 128.324219 72.625 L 128.324219 72.621094 C 128.71875 72.347656 129.242188 71.929688 129.898438 71.382812 C 132.179688 69.476562 135.972656 66.058594 139.203125 63.105469 C 142.4375 60.15625 145.101562 57.675781 145.101562 57.675781 L 145.128906 57.652344 L 145.152344 57.625 C 146.050781 56.644531 146.503906 55.398438 146.5 54.160156 C 146.503906 52.789062 145.949219 51.410156 144.863281 50.40625 L 144.25 51.070312 L 143.640625 51.734375 C 144.34375 52.386719 144.699219 53.269531 144.699219 54.160156 C 144.699219 54.964844 144.410156 55.761719 143.828125 56.402344 L 144.488281 57.011719 L 143.878906 56.347656 C 143.878906 56.347656 143.660156 56.550781 143.273438 56.910156 C 141.925781 58.15625 138.515625 61.3125 135.136719 64.359375 C 133.453125 65.882812 131.773438 67.382812 130.375 68.601562 C 129.671875 69.210938 129.042969 69.75 128.511719 70.1875 C 127.984375 70.621094 127.558594 70.957031 127.296875 71.140625 L 127.296875 71.136719 C 127.15625 71.234375 127.027344 71.347656 126.894531 71.484375 C 126.699219 71.6875 126.496094 71.9375 126.328125 72.242188 C 126.160156 72.550781 126.015625 72.914062 126.011719 73.363281 C 126.007812 73.710938 126.121094 74.109375 126.363281 74.425781 C 126.609375 74.746094 126.945312 74.976562 127.339844 75.140625 C 128.769531 75.738281 129.761719 76.273438 130.664062 76.894531 C 131.5625 77.511719 132.386719 78.230469 133.453125 79.195312 C 134.121094 79.800781 134.675781 80.664062 135.097656 81.667969 C 135.742188 83.171875 136.101562 84.980469 136.285156 86.582031 C 136.472656 88.183594 136.492188 89.585938 136.492188 90.308594 C 136.492188 90.488281 136.492188 90.628906 136.492188 90.726562 C 136.492188 92.644531 136.054688 93.835938 135.554688 94.511719 C 135.054688 95.1875 134.503906 95.386719 134.105469 95.386719 C 133.640625 95.390625 133.03125 95.136719 132.519531 94.492188 C 132.007812 93.855469 131.597656 92.824219 131.597656 91.324219 C 131.597656 89.785156 131.847656 88.742188 132.082031 88.101562 C 132.203125 87.777344 132.316406 87.554688 132.394531 87.421875 C 132.429688 87.355469 132.460938 87.3125 132.476562 87.289062 L 132.492188 87.269531 L 132.1875 87.039062 L 132.484375 87.277344 L 132.492188 87.269531 L 132.1875 87.039062 L 132.484375 87.277344 L 132.628906 87.101562 L 132.671875 86.875 C 132.796875 86.199219 132.851562 85.597656 132.851562 85.054688 C 132.851562 84.199219 132.710938 83.488281 132.46875 82.910156 C 132.105469 82.035156 131.523438 81.488281 131.027344 81.191406 C 130.78125 81.039062 130.558594 80.945312 130.386719 80.886719 C 130.304688 80.859375 130.234375 80.839844 130.191406 80.824219 L 130.167969 80.816406 L 130.160156 80.816406 L 130.003906 81.332031 L 130.1875 80.824219 L 130.160156 80.816406 L 130.003906 81.332031 L 130.1875 80.824219 L 129.910156 81.585938 L 130.234375 80.84375 L 130.1875 80.824219 L 129.910156 81.585938 L 130.234375 80.84375 L 129.882812 81.648438 L 130.359375 80.910156 C 130.296875 80.871094 130.261719 80.855469 130.234375 80.84375 L 129.882812 81.648438 L 130.359375 80.910156 L 129.871094 81.671875 L 130.378906 80.921875 C 130.304688 80.875 130.28125 80.867188 130.261719 80.855469 L 130.191406 80.824219 C 130.136719 80.804688 130.085938 80.785156 130.011719 80.757812 C 129.453125 80.558594 127.648438 79.949219 125.425781 79.203125 C 123.207031 78.457031 120.578125 77.582031 118.410156 76.863281 C 117.816406 76.667969 117.089844 76.378906 116.570312 75.945312 C 116.308594 75.730469 116.097656 75.488281 115.953125 75.203125 C 115.804688 74.921875 115.710938 74.589844 115.710938 74.140625 C 115.710938 73.28125 116.042969 72.492188 116.582031 71.90625 L 115.921875 71.289062 L 116.519531 71.964844 L 138.960938 51.957031 L 138.992188 51.921875 C 139.644531 51.21875 140.519531 50.863281 141.410156 50.859375 C 142.210938 50.863281 143.003906 51.148438 143.640625 51.734375 L 144.25 51.070312 " fill-opacity="1" fill-rule="nonzero"/><path fill="rgb(98.039246%, 73.329163%, 3.529358%)" d="M 130.457031 57.546875 L 137.664062 50.648438 C 139.574219 48.828125 142.59375 48.902344 144.410156 50.816406 C 146.230469 52.726562 146.15625 55.757812 144.25 57.582031 L 137.039062 64.476562 L 130.457031 57.546875 " fill-opacity="1" fill-rule="nonzero"/><path fill="rgb(18.03894%, 19.219971%, 57.249451%)" d="M 130.457031 57.546875 L 131.078125 58.203125 L 138.285156 51.304688 C 139.039062 50.585938 139.996094 50.234375 140.957031 50.234375 C 141.980469 50.234375 142.996094 50.636719 143.757812 51.4375 L 143.761719 51.4375 C 144.476562 52.191406 144.828125 53.148438 144.828125 54.113281 C 144.828125 55.144531 144.425781 56.164062 143.628906 56.929688 L 137.070312 63.199219 L 131.109375 56.921875 L 130.457031 57.546875 L 131.078125 58.203125 L 130.457031 57.546875 L 129.804688 58.171875 L 137.007812 65.753906 L 144.871094 58.238281 C 146.039062 57.117188 146.632812 55.613281 146.628906 54.113281 C 146.632812 52.707031 146.109375 51.289062 145.0625 50.1875 L 145.0625 50.191406 C 143.949219 49.019531 142.449219 48.425781 140.957031 48.425781 C 139.554688 48.425781 138.140625 48.949219 137.042969 49.996094 L 129.183594 57.515625 L 129.804688 58.171875 L 130.457031 57.546875 " fill-opacity="1" fill-rule="nonzero"/><path fill="rgb(23.529053%, 23.529053%, 61.569214%)" d="M 162.238281 28.480469 C 162.238281 28.625 161.890625 18.894531 150.332031 18.894531 C 141.9375 18.894531 139.40625 26.804688 139.40625 29.40625 C 139.40625 29.671875 138.9375 36.054688 138.9375 41.164062 C 138.9375 48.78125 138.601562 48.535156 138.601562 53.84375 C 138.601562 56.25 138.539062 62.871094 139.726562 67.402344 C 140.839844 71.65625 142.925781 68.984375 143.238281 66.371094 C 143.464844 64.507812 142.203125 62.679688 144.300781 60.886719 C 149.839844 56.140625 146.515625 52.40625 145.644531 49.015625 L 145.644531 44.378906 C 145.644531 44.378906 140.390625 40.570312 140.390625 36.199219 L 140.382812 34.59375 C 140.628906 34.511719 142.304688 33.847656 142.847656 30.949219 C 144.429688 31.101562 146.300781 31.101562 147.886719 31.101562 C 154.050781 31.101562 157.429688 27.394531 157.429688 27.394531 C 157.429688 27.394531 157.328125 30.273438 157.328125 32.0625 C 157.328125 35.773438 160.214844 36.652344 160.851562 36.800781 C 159.992188 42.65625 155.015625 44.726562 155.015625 44.726562 L 155.015625 49.015625 C 154.527344 56.140625 155.046875 60.535156 156.628906 62.957031 C 157.335938 64.035156 157.023438 65.714844 156.949219 67.371094 C 156.859375 69.421875 157.28125 71.714844 159.625 69.210938 C 162.40625 66.230469 163.601562 60.203125 163.0625 57.519531 C 162.496094 54.707031 162.195312 53.648438 163.449219 48.652344 C 164.921875 42.78125 162.238281 28.480469 162.238281 28.480469 " fill-opacity="1" fill-rule="nonzero"/><path fill="rgb(18.03894%, 19.219971%, 57.249451%)" d="M 162.238281 28.480469 L 163.054688 28.097656 L 162.238281 28.480469 L 163.117188 28.28125 C 163.105469 28.246094 163.105469 28.214844 163.054688 28.097656 L 162.238281 28.480469 L 163.117188 28.28125 L 162.242188 28.476562 L 163.132812 28.363281 C 163.128906 28.34375 163.128906 28.332031 163.117188 28.28125 L 162.242188 28.476562 L 163.132812 28.363281 L 162.300781 28.46875 L 163.136719 28.402344 L 163.132812 28.363281 L 162.300781 28.46875 L 163.136719 28.402344 C 163.132812 28.351562 163.117188 28.136719 163.070312 27.824219 C 162.910156 26.726562 162.378906 24.300781 160.527344 22.09375 C 159.601562 20.992188 158.339844 19.953125 156.660156 19.203125 C 154.984375 18.453125 152.898438 17.992188 150.332031 17.992188 C 148.09375 17.988281 146.199219 18.523438 144.648438 19.378906 C 142.324219 20.664062 140.792969 22.640625 139.847656 24.53125 C 139.371094 25.476562 139.039062 26.40625 138.824219 27.242188 C 138.609375 28.078125 138.507812 28.8125 138.503906 29.40625 L 138.890625 29.40625 L 138.503906 29.394531 L 138.503906 29.40625 L 138.890625 29.40625 L 138.503906 29.394531 C 138.503906 29.417969 138.496094 29.578125 138.484375 29.796875 C 138.386719 31.359375 138.035156 36.722656 138.035156 41.164062 C 138.035156 44.960938 137.953125 46.773438 137.871094 48.320312 C 137.785156 49.867188 137.703125 51.171875 137.703125 53.84375 C 137.703125 54.078125 137.703125 54.359375 137.703125 54.675781 C 137.703125 56.117188 137.714844 58.296875 137.863281 60.644531 C 138.015625 62.988281 138.296875 65.496094 138.855469 67.632812 C 139.085938 68.507812 139.355469 69.160156 139.722656 69.660156 C 139.90625 69.910156 140.125 70.128906 140.386719 70.285156 C 140.648438 70.445312 140.957031 70.539062 141.265625 70.535156 C 141.515625 70.535156 141.753906 70.480469 141.960938 70.386719 C 142.320312 70.226562 142.601562 69.984375 142.839844 69.710938 C 143.195312 69.296875 143.472656 68.796875 143.691406 68.246094 C 143.90625 67.691406 144.058594 67.09375 144.136719 66.480469 C 144.160156 66.277344 144.167969 66.074219 144.167969 65.878906 C 144.160156 64.921875 143.960938 64.113281 143.964844 63.46875 C 143.964844 63.113281 144.011719 62.820312 144.136719 62.527344 C 144.261719 62.238281 144.472656 61.929688 144.882812 61.578125 C 146.144531 60.496094 147.007812 59.429688 147.558594 58.367188 C 148.109375 57.308594 148.332031 56.25 148.328125 55.257812 C 148.328125 53.945312 147.964844 52.761719 147.566406 51.691406 C 147.167969 50.621094 146.734375 49.644531 146.515625 48.789062 L 145.644531 49.015625 L 146.542969 49.015625 L 146.542969 43.914062 L 146.171875 43.648438 L 146.160156 43.640625 C 146.042969 43.550781 144.777344 42.597656 143.574219 41.195312 C 142.972656 40.496094 142.390625 39.683594 141.96875 38.828125 C 141.546875 37.972656 141.289062 37.078125 141.289062 36.199219 L 141.289062 36.195312 L 141.28125 34.589844 L 140.382812 34.59375 L 140.664062 35.453125 C 140.894531 35.375 141.511719 35.121094 142.152344 34.457031 C 142.796875 33.792969 143.4375 32.71875 143.738281 31.117188 L 142.847656 30.949219 L 142.765625 31.847656 C 144.40625 32.003906 146.296875 32.003906 147.886719 32.003906 C 151.152344 32.003906 153.699219 31.023438 155.417969 30.03125 C 157.140625 29.042969 158.050781 28.054688 158.09375 28.003906 L 157.429688 27.394531 L 156.527344 27.359375 C 156.527344 27.367188 156.429688 30.242188 156.429688 32.0625 C 156.425781 33.109375 156.632812 33.996094 156.972656 34.726562 C 157.480469 35.828125 158.273438 36.542969 158.984375 36.980469 C 159.699219 37.425781 160.34375 37.609375 160.648438 37.679688 L 160.851562 36.800781 L 159.960938 36.667969 C 159.566406 39.355469 158.242188 41.140625 157 42.296875 C 156.382812 42.867188 155.78125 43.273438 155.347656 43.535156 C 155.128906 43.664062 154.953125 43.757812 154.832031 43.816406 C 154.773438 43.84375 154.730469 43.867188 154.703125 43.878906 L 154.671875 43.890625 L 154.667969 43.894531 L 154.8125 44.234375 L 154.671875 43.890625 L 154.667969 43.894531 L 154.8125 44.234375 L 154.671875 43.890625 L 154.113281 44.121094 L 154.113281 49.015625 L 155.015625 49.015625 L 154.117188 48.953125 C 153.996094 50.6875 153.9375 52.265625 153.9375 53.699219 C 153.9375 55.964844 154.085938 57.871094 154.398438 59.480469 C 154.710938 61.085938 155.1875 62.402344 155.875 63.449219 C 155.976562 63.605469 156.050781 63.800781 156.105469 64.050781 C 156.15625 64.304688 156.179688 64.609375 156.179688 64.953125 C 156.183594 65.636719 156.085938 66.460938 156.046875 67.332031 C 156.039062 67.503906 156.035156 67.679688 156.035156 67.855469 C 156.039062 68.539062 156.089844 69.222656 156.300781 69.84375 C 156.40625 70.152344 156.554688 70.464844 156.824219 70.738281 C 156.957031 70.875 157.128906 70.996094 157.320312 71.082031 C 157.515625 71.167969 157.734375 71.210938 157.949219 71.210938 C 158.386719 71.207031 158.773438 71.046875 159.140625 70.816406 C 159.511719 70.578125 159.875 70.257812 160.28125 69.828125 C 161.585938 68.421875 162.511719 66.519531 163.140625 64.570312 C 163.769531 62.621094 164.085938 60.628906 164.089844 59.003906 C 164.089844 58.398438 164.046875 57.839844 163.945312 57.34375 C 163.804688 56.648438 163.6875 56.082031 163.605469 55.550781 C 163.523438 55.023438 163.472656 54.539062 163.472656 53.992188 C 163.472656 52.851562 163.6875 51.402344 164.320312 48.871094 C 164.667969 47.480469 164.789062 45.773438 164.792969 43.910156 C 164.792969 40.523438 164.375 36.640625 163.957031 33.585938 C 163.542969 30.535156 163.125 28.320312 163.125 28.3125 L 163.101562 28.195312 L 163.054688 28.097656 L 162.238281 28.480469 L 161.355469 28.648438 C 161.355469 28.648438 161.378906 28.777344 161.421875 29.03125 C 161.738281 30.78125 162.992188 38.230469 162.988281 43.910156 C 162.992188 45.6875 162.863281 47.289062 162.578125 48.429688 C 161.925781 51.015625 161.671875 52.617188 161.671875 53.992188 C 161.671875 54.648438 161.730469 55.242188 161.824219 55.832031 C 161.917969 56.425781 162.042969 57.019531 162.179688 57.699219 C 162.25 58.042969 162.289062 58.488281 162.289062 59.003906 C 162.289062 60.386719 162 62.246094 161.425781 64.015625 C 160.863281 65.792969 160.003906 67.484375 158.964844 68.59375 C 158.636719 68.945312 158.363281 69.167969 158.179688 69.285156 C 158.085938 69.34375 158.015625 69.375 157.976562 69.390625 L 157.941406 69.402344 L 157.9375 69.402344 L 157.949219 69.492188 L 157.949219 69.402344 L 157.9375 69.402344 L 157.949219 69.492188 L 157.949219 69.402344 L 157.949219 69.632812 L 158.039062 69.421875 L 157.949219 69.402344 L 157.949219 69.632812 L 158.039062 69.421875 L 157.957031 69.609375 L 158.097656 69.457031 L 158.039062 69.421875 L 157.957031 69.609375 L 158.097656 69.457031 L 158.050781 69.503906 L 158.097656 69.460938 L 158.097656 69.457031 L 158.050781 69.503906 L 158.097656 69.460938 L 158.082031 69.433594 C 158.035156 69.371094 157.957031 69.15625 157.910156 68.871094 C 157.863281 68.582031 157.839844 68.226562 157.839844 67.855469 C 157.839844 67.710938 157.84375 67.558594 157.851562 67.410156 C 157.878906 66.625 157.980469 65.789062 157.980469 64.953125 C 157.980469 64.53125 157.957031 64.109375 157.871094 63.6875 C 157.785156 63.269531 157.636719 62.847656 157.378906 62.460938 C 156.867188 61.675781 156.449219 60.582031 156.167969 59.132812 C 155.882812 57.683594 155.738281 55.882812 155.738281 53.699219 C 155.738281 52.316406 155.796875 50.777344 155.914062 49.078125 L 155.917969 49.046875 L 155.917969 44.726562 L 155.015625 44.726562 L 155.359375 45.5625 C 155.425781 45.535156 156.757812 44.976562 158.222656 43.621094 C 159.683594 42.277344 161.28125 40.097656 161.742188 36.929688 L 161.863281 36.105469 L 161.058594 35.917969 C 160.824219 35.867188 160.074219 35.644531 159.445312 35.085938 C 159.125 34.804688 158.832031 34.445312 158.605469 33.964844 C 158.382812 33.484375 158.230469 32.871094 158.230469 32.0625 C 158.230469 31.183594 158.253906 30.019531 158.277344 29.082031 C 158.304688 28.144531 158.332031 27.425781 158.332031 27.425781 L 158.417969 24.972656 L 156.765625 26.785156 L 157.046875 27.042969 L 156.765625 26.78125 L 156.765625 26.785156 L 157.046875 27.042969 L 156.765625 26.78125 C 156.761719 26.789062 155.957031 27.652344 154.453125 28.503906 C 152.941406 29.355469 150.742188 30.199219 147.886719 30.199219 C 146.304688 30.199219 144.453125 30.195312 142.9375 30.050781 L 142.117188 29.96875 L 141.964844 30.78125 C 141.71875 32.078125 141.25 32.789062 140.855469 33.203125 C 140.460938 33.609375 140.117188 33.730469 140.097656 33.734375 L 139.476562 33.941406 L 139.488281 36.199219 C 139.488281 37.472656 139.867188 38.667969 140.40625 39.730469 C 141.21875 41.324219 142.386719 42.644531 143.355469 43.59375 C 144.320312 44.535156 145.089844 45.09375 145.117188 45.109375 L 145.644531 44.378906 L 144.742188 44.378906 L 144.742188 49.128906 L 144.769531 49.242188 C 145.050781 50.3125 145.511719 51.324219 145.878906 52.320312 C 146.25 53.320312 146.527344 54.292969 146.527344 55.257812 C 146.527344 55.988281 146.378906 56.722656 145.960938 57.535156 C 145.542969 58.34375 144.839844 59.234375 143.714844 60.203125 C 143.132812 60.699219 142.722656 61.246094 142.480469 61.816406 C 142.238281 62.382812 142.164062 62.953125 142.164062 63.46875 C 142.175781 64.417969 142.375 65.21875 142.367188 65.878906 C 142.367188 66.015625 142.359375 66.140625 142.34375 66.265625 C 142.265625 66.949219 142.023438 67.671875 141.738281 68.15625 C 141.601562 68.394531 141.453125 68.574219 141.347656 68.660156 L 141.246094 68.730469 L 141.238281 68.734375 L 141.265625 68.820312 L 141.265625 68.730469 L 141.238281 68.734375 L 141.265625 68.820312 L 141.265625 68.730469 L 141.265625 68.878906 L 141.308594 68.734375 L 141.265625 68.730469 L 141.265625 68.878906 L 141.308594 68.734375 L 141.28125 68.824219 L 141.316406 68.738281 L 141.308594 68.734375 L 141.28125 68.824219 L 141.316406 68.738281 L 141.3125 68.746094 L 141.316406 68.738281 L 141.3125 68.746094 L 141.316406 68.738281 C 141.3125 68.738281 141.191406 68.652344 141.050781 68.398438 C 140.910156 68.148438 140.746094 67.738281 140.597656 67.171875 C 140.085938 65.226562 139.808594 62.804688 139.664062 60.527344 C 139.519531 58.246094 139.503906 56.105469 139.503906 54.675781 C 139.503906 54.363281 139.503906 54.085938 139.503906 53.84375 C 139.507812 51.207031 139.585938 49.980469 139.671875 48.414062 C 139.753906 46.855469 139.835938 44.980469 139.835938 41.164062 C 139.835938 38.636719 139.953125 35.773438 140.070312 33.515625 C 140.128906 32.386719 140.1875 31.40625 140.230469 30.691406 C 140.253906 30.335938 140.269531 30.046875 140.285156 29.832031 C 140.292969 29.730469 140.296875 29.640625 140.300781 29.578125 C 140.304688 29.503906 140.304688 29.476562 140.304688 29.40625 C 140.304688 28.894531 140.445312 27.976562 140.789062 26.953125 C 141.300781 25.40625 142.265625 23.59375 143.792969 22.203125 C 145.328125 20.816406 147.398438 19.804688 150.332031 19.800781 C 153.074219 19.800781 155.09375 20.371094 156.601562 21.1875 C 158.859375 22.414062 160.027344 24.238281 160.65625 25.785156 C 160.972656 26.5625 161.144531 27.261719 161.234375 27.757812 C 161.28125 28.007812 161.308594 28.207031 161.320312 28.339844 C 161.328125 28.410156 161.332031 28.457031 161.335938 28.492188 L 161.339844 28.527344 L 161.339844 28.546875 L 161.351562 28.617188 C 161.351562 28.632812 161.351562 28.648438 161.367188 28.707031 C 161.375 28.734375 161.382812 28.769531 161.425781 28.863281 L 162.238281 28.480469 L 161.355469 28.648438 L 162.238281 28.480469 " fill-opacity="1" fill-rule="nonzero"/><path fill="rgb(23.529053%, 23.529053%, 61.569214%)" d="M 166.554688 185.332031 L 153.992188 185.332031 L 153.992188 183.332031 L 166.554688 183.332031 L 166.554688 185.332031 " fill-opacity="1" fill-rule="nonzero"/><g clip-path="url(#clip-7)"><path fill="rgb(18.03894%, 19.219971%, 57.249451%)" d="M 166.554688 185.332031 L 166.554688 184.429688 L 154.894531 184.429688 L 154.894531 184.234375 L 165.652344 184.234375 L 165.652344 185.332031 L 166.554688 185.332031 L 166.554688 184.429688 L 166.554688 185.332031 L 167.453125 185.332031 L 167.453125 182.425781 L 153.09375 182.425781 L 153.09375 186.234375 L 167.453125 186.234375 L 167.453125 185.332031 L 166.554688 185.332031 " fill-opacity="1" fill-rule="nonzero"/></g><path fill="rgb(34.509277%, 47.059631%, 76.858521%)" d="M 164.644531 179.777344 L 153.992188 179.777344 L 153.992188 183.496094 L 166.554688 183.496094 L 166.554688 182.054688 C 166.554688 180.605469 165.71875 179.957031 164.644531 179.777344 " fill-opacity="1" fill-rule="nonzero"/><path fill="rgb(18.03894%, 19.219971%, 57.249451%)" d="M 164.644531 179.777344 L 164.644531 178.871094 L 153.09375 178.871094 L 153.09375 184.402344 L 167.453125 184.402344 L 167.453125 182.054688 C 167.453125 181.605469 167.386719 181.1875 167.253906 180.808594 C 167.054688 180.238281 166.6875 179.769531 166.242188 179.457031 C 165.800781 179.144531 165.300781 178.972656 164.796875 178.886719 L 164.722656 178.871094 L 164.644531 178.871094 L 164.644531 179.777344 L 164.496094 180.664062 C 164.902344 180.738281 165.179688 180.878906 165.34375 181.058594 C 165.433594 181.152344 165.503906 181.261719 165.558594 181.417969 C 165.613281 181.574219 165.652344 181.78125 165.652344 182.054688 L 165.652344 182.59375 L 154.894531 182.59375 L 154.894531 180.679688 L 164.644531 180.679688 L 164.644531 179.777344 L 164.496094 180.664062 L 164.644531 179.777344 " fill-opacity="1" fill-rule="nonzero"/><path fill="rgb(23.529053%, 23.529053%, 61.569214%)" d="M 133.789062 185.332031 L 146.347656 185.332031 L 146.347656 183.332031 L 133.789062 183.332031 L 133.789062 185.332031 " fill-opacity="1" fill-rule="nonzero"/><g clip-path="url(#clip-8)"><path fill="rgb(18.03894%, 19.219971%, 57.249451%)" d="M 133.789062 185.332031 L 133.789062 186.234375 L 147.25 186.234375 L 147.25 182.429688 L 132.886719 182.429688 L 132.886719 186.234375 L 133.789062 186.234375 L 133.789062 185.332031 L 134.6875 185.332031 L 134.6875 184.234375 L 145.445312 184.234375 L 145.445312 184.429688 L 133.789062 184.429688 L 133.789062 185.332031 L 134.6875 185.332031 L 133.789062 185.332031 " fill-opacity="1" fill-rule="nonzero"/></g><path fill="rgb(34.509277%, 47.059631%, 76.858521%)" d="M 135.695312 179.777344 L 146.347656 179.777344 L 146.347656 183.496094 L 133.789062 183.496094 L 133.789062 182.054688 C 133.789062 180.605469 134.621094 179.957031 135.695312 179.777344 " fill-opacity="1" fill-rule="nonzero"/><path fill="rgb(18.03894%, 19.219971%, 57.249451%)" d="M 135.695312 179.777344 L 135.695312 180.679688 L 145.445312 180.679688 L 145.445312 182.59375 L 134.6875 182.59375 L 134.6875 182.054688 C 134.6875 181.78125 134.726562 181.574219 134.78125 181.417969 C 134.867188 181.183594 134.976562 181.054688 135.140625 180.933594 C 135.304688 180.8125 135.542969 180.71875 135.84375 180.664062 L 135.695312 179.777344 L 135.695312 180.679688 L 135.695312 179.777344 L 135.542969 178.886719 C 134.878906 178.996094 134.199219 179.269531 133.679688 179.820312 C 133.425781 180.09375 133.21875 180.429688 133.085938 180.808594 C 132.953125 181.1875 132.886719 181.605469 132.886719 182.054688 L 132.886719 184.402344 L 147.25 184.402344 L 147.25 178.871094 L 135.621094 178.871094 L 135.542969 178.886719 L 135.695312 179.777344 " fill-opacity="1" fill-rule="nonzero"/></svg>