<?xml version="1.0" encoding="UTF-8"?><svg xmlns="http://www.w3.org/2000/svg" xmlns:xlink="http://www.w3.org/1999/xlink" contentScriptType="text/ecmascript" width="187.5" zoomAndPan="magnify" contentStyleType="text/css" viewBox="0 0 187.5 187.499995" height="187.499995" preserveAspectRatio="xMidYMid meet" version="1.0"><defs><clipPath id="clip-0"><path d="M 0 13.125 L 187 13.125 L 187 174.375 L 0 174.375 Z M 0 13.125 " clip-rule="nonzero"/></clipPath></defs><g clip-path="url(#clip-0)"><path fill="rgb(85.099792%, 61.959839%, 50.979614%)" d="M 93.75 13.503906 C 41.972656 13.503906 0 49.484375 0 93.859375 C 0 99.410156 0.65625 104.832031 1.910156 110.066406 C 11.175781 126.011719 17.589844 115.949219 46.875 101.300781 C 76.703125 86.386719 46.875 122.136719 36.457031 142.96875 C 33.253906 149.375 34.988281 154.796875 39.375 159.238281 C 54.71875 168.636719 73.457031 174.21875 93.75 174.21875 C 145.527344 174.21875 187.5 138.246094 187.5 93.859375 C 187.5 49.484375 145.527344 13.503906 93.75 13.503906 Z M 108.589844 140.832031 C 106.53125 147.84375 95.777344 150.855469 84.5625 147.558594 C 73.347656 144.265625 65.925781 135.921875 67.984375 128.90625 C 70.042969 121.894531 80.796875 118.886719 92.011719 122.1875 C 103.222656 125.472656 110.644531 133.816406 108.589844 140.832031 Z M 108.589844 140.832031 " fill-opacity="1" fill-rule="nonzero"/></g><path fill="rgb(36.079407%, 56.858826%, 23.139954%)" d="M 67.707031 54.425781 C 67.707031 55.453125 67.609375 56.46875 67.40625 57.476562 C 67.207031 58.480469 66.910156 59.457031 66.519531 60.40625 C 66.125 61.355469 65.644531 62.253906 65.074219 63.109375 C 64.503906 63.960938 63.855469 64.75 63.132812 65.476562 C 62.40625 66.199219 61.617188 66.847656 60.765625 67.417969 C 59.910156 67.988281 59.011719 68.46875 58.0625 68.863281 C 57.113281 69.253906 56.136719 69.550781 55.132812 69.75 C 54.125 69.953125 53.109375 70.050781 52.082031 70.050781 C 51.058594 70.050781 50.042969 69.953125 49.035156 69.75 C 48.027344 69.550781 47.050781 69.253906 46.105469 68.863281 C 45.15625 68.46875 44.253906 67.988281 43.402344 67.417969 C 42.550781 66.847656 41.761719 66.199219 41.035156 65.476562 C 40.308594 64.75 39.660156 63.960938 39.089844 63.109375 C 38.523438 62.253906 38.039062 61.355469 37.648438 60.40625 C 37.253906 59.457031 36.957031 58.480469 36.757812 57.476562 C 36.558594 56.46875 36.457031 55.453125 36.457031 54.425781 C 36.457031 53.402344 36.558594 52.386719 36.757812 51.378906 C 36.957031 50.371094 37.253906 49.394531 37.648438 48.449219 C 38.039062 47.5 38.523438 46.597656 39.089844 45.746094 C 39.660156 44.894531 40.308594 44.105469 41.035156 43.378906 C 41.761719 42.652344 42.550781 42.003906 43.402344 41.433594 C 44.253906 40.867188 45.15625 40.382812 46.105469 39.992188 C 47.050781 39.597656 48.027344 39.300781 49.035156 39.101562 C 50.042969 38.902344 51.058594 38.800781 52.082031 38.800781 C 53.109375 38.800781 54.125 38.902344 55.132812 39.101562 C 56.136719 39.300781 57.113281 39.597656 58.0625 39.992188 C 59.011719 40.382812 59.910156 40.867188 60.765625 41.433594 C 61.617188 42.003906 62.40625 42.652344 63.132812 43.378906 C 63.855469 44.105469 64.503906 44.894531 65.074219 45.746094 C 65.644531 46.597656 66.125 47.5 66.519531 48.449219 C 66.910156 49.394531 67.207031 50.371094 67.40625 51.378906 C 67.609375 52.386719 67.707031 53.402344 67.707031 54.425781 Z M 67.707031 54.425781 " fill-opacity="1" fill-rule="nonzero"/><path fill="rgb(13.328552%, 39.99939%, 59.999084%)" d="M 119.792969 44.011719 C 119.792969 45.035156 119.691406 46.050781 119.492188 47.058594 C 119.292969 48.066406 118.996094 49.042969 118.601562 49.988281 C 118.210938 50.9375 117.726562 51.839844 117.160156 52.691406 C 116.589844 53.542969 115.941406 54.332031 115.214844 55.058594 C 114.488281 55.785156 113.699219 56.433594 112.847656 57.003906 C 111.996094 57.570312 111.09375 58.054688 110.144531 58.445312 C 109.199219 58.839844 108.222656 59.136719 107.214844 59.335938 C 106.207031 59.535156 105.191406 59.636719 104.167969 59.636719 C 103.140625 59.636719 102.125 59.535156 101.117188 59.335938 C 100.113281 59.136719 99.136719 58.839844 98.1875 58.445312 C 97.238281 58.054688 96.339844 57.570312 95.484375 57.003906 C 94.632812 56.433594 93.84375 55.785156 93.117188 55.058594 C 92.394531 54.332031 91.746094 53.542969 91.175781 52.691406 C 90.605469 51.839844 90.125 50.9375 89.730469 49.988281 C 89.339844 49.042969 89.042969 48.066406 88.84375 47.058594 C 88.640625 46.050781 88.542969 45.035156 88.542969 44.011719 C 88.542969 42.984375 88.640625 41.96875 88.84375 40.960938 C 89.042969 39.957031 89.339844 38.980469 89.730469 38.03125 C 90.125 37.082031 90.605469 36.183594 91.175781 35.328125 C 91.746094 34.476562 92.394531 33.6875 93.117188 32.960938 C 93.84375 32.238281 94.632812 31.589844 95.484375 31.019531 C 96.339844 30.449219 97.238281 29.96875 98.1875 29.574219 C 99.136719 29.183594 100.113281 28.886719 101.117188 28.6875 C 102.125 28.484375 103.140625 28.386719 104.167969 28.386719 C 105.191406 28.386719 106.207031 28.484375 107.214844 28.6875 C 108.222656 28.886719 109.199219 29.183594 110.144531 29.574219 C 111.09375 29.96875 111.996094 30.449219 112.847656 31.019531 C 113.699219 31.589844 114.488281 32.238281 115.214844 32.960938 C 115.941406 33.6875 116.589844 34.476562 117.160156 35.328125 C 117.726562 36.183594 118.210938 37.082031 118.601562 38.03125 C 118.996094 38.980469 119.292969 39.957031 119.492188 40.960938 C 119.691406 41.96875 119.792969 42.984375 119.792969 44.011719 Z M 119.792969 44.011719 " fill-opacity="1" fill-rule="nonzero"/><path fill="rgb(86.669922%, 18.03894%, 26.669312%)" d="M 166.667969 75.261719 C 166.667969 76.285156 166.566406 77.300781 166.367188 78.308594 C 166.167969 79.316406 165.871094 80.292969 165.476562 81.238281 C 165.085938 82.1875 164.601562 83.089844 164.035156 83.941406 C 163.464844 84.792969 162.816406 85.582031 162.089844 86.308594 C 161.363281 87.035156 160.574219 87.683594 159.722656 88.253906 C 158.871094 88.820312 157.96875 89.304688 157.019531 89.695312 C 156.074219 90.089844 155.097656 90.386719 154.089844 90.585938 C 153.082031 90.785156 152.066406 90.886719 151.042969 90.886719 C 150.015625 90.886719 149 90.785156 147.992188 90.585938 C 146.988281 90.386719 146.011719 90.089844 145.0625 89.695312 C 144.113281 89.304688 143.214844 88.820312 142.359375 88.253906 C 141.507812 87.683594 140.71875 87.035156 139.992188 86.308594 C 139.269531 85.582031 138.621094 84.792969 138.050781 83.941406 C 137.480469 83.089844 137 82.1875 136.605469 81.238281 C 136.214844 80.292969 135.917969 79.316406 135.71875 78.308594 C 135.515625 77.300781 135.417969 76.285156 135.417969 75.261719 C 135.417969 74.234375 135.515625 73.21875 135.71875 72.210938 C 135.917969 71.207031 136.214844 70.230469 136.605469 69.28125 C 137 68.332031 137.480469 67.433594 138.050781 66.578125 C 138.621094 65.726562 139.269531 64.9375 139.992188 64.210938 C 140.71875 63.488281 141.507812 62.839844 142.359375 62.269531 C 143.214844 61.699219 144.113281 61.21875 145.0625 60.824219 C 146.011719 60.433594 146.988281 60.136719 147.992188 59.9375 C 149 59.734375 150.015625 59.636719 151.042969 59.636719 C 152.066406 59.636719 153.082031 59.734375 154.089844 59.9375 C 155.097656 60.136719 156.074219 60.433594 157.019531 60.824219 C 157.96875 61.21875 158.871094 61.699219 159.722656 62.269531 C 160.574219 62.839844 161.363281 63.488281 162.089844 64.210938 C 162.816406 64.9375 163.464844 65.726562 164.035156 66.578125 C 164.601562 67.433594 165.085938 68.332031 165.476562 69.28125 C 165.871094 70.230469 166.167969 71.207031 166.367188 72.210938 C 166.566406 73.21875 166.667969 74.234375 166.667969 75.261719 Z M 166.667969 75.261719 " fill-opacity="1" fill-rule="nonzero"/><path fill="rgb(100%, 79.998779%, 30.198669%)" d="M 161.457031 122.136719 C 161.457031 123.160156 161.359375 124.175781 161.15625 125.183594 C 160.957031 126.191406 160.660156 127.167969 160.269531 128.113281 C 159.875 129.0625 159.394531 129.964844 158.824219 130.816406 C 158.253906 131.667969 157.605469 132.457031 156.882812 133.183594 C 156.15625 133.910156 155.367188 134.558594 154.515625 135.128906 C 153.660156 135.695312 152.761719 136.179688 151.8125 136.570312 C 150.863281 136.964844 149.886719 137.261719 148.882812 137.460938 C 147.875 137.660156 146.859375 137.761719 145.832031 137.761719 C 144.808594 137.761719 143.792969 137.660156 142.785156 137.460938 C 141.777344 137.261719 140.800781 136.964844 139.855469 136.570312 C 138.90625 136.179688 138.003906 135.695312 137.152344 135.128906 C 136.300781 134.558594 135.511719 133.910156 134.785156 133.183594 C 134.058594 132.457031 133.410156 131.667969 132.839844 130.816406 C 132.273438 129.964844 131.789062 129.0625 131.398438 128.113281 C 131.003906 127.167969 130.707031 126.191406 130.507812 125.183594 C 130.308594 124.175781 130.207031 123.160156 130.207031 122.136719 C 130.207031 121.109375 130.308594 120.09375 130.507812 119.085938 C 130.707031 118.082031 131.003906 117.105469 131.398438 116.15625 C 131.789062 115.207031 132.273438 114.308594 132.839844 113.453125 C 133.410156 112.601562 134.058594 111.8125 134.785156 111.085938 C 135.511719 110.363281 136.300781 109.714844 137.152344 109.144531 C 138.003906 108.574219 138.90625 108.09375 139.855469 107.699219 C 140.800781 107.308594 141.777344 107.011719 142.785156 106.8125 C 143.792969 106.609375 144.808594 106.511719 145.832031 106.511719 C 146.859375 106.511719 147.875 106.609375 148.882812 106.8125 C 149.886719 107.011719 150.863281 107.308594 151.8125 107.699219 C 152.761719 108.09375 153.660156 108.574219 154.515625 109.144531 C 155.367188 109.714844 156.15625 110.363281 156.882812 111.085938 C 157.605469 111.8125 158.253906 112.601562 158.824219 113.453125 C 159.394531 114.308594 159.875 115.207031 160.269531 116.15625 C 160.660156 117.105469 160.957031 118.082031 161.15625 119.085938 C 161.359375 120.09375 161.457031 121.109375 161.457031 122.136719 Z M 161.457031 122.136719 " fill-opacity="1" fill-rule="nonzero"/></svg>