<svg xmlns="http://www.w3.org/2000/svg" width="187.5" viewBox="0 0 187.5 187.5" height="187.5" version="1.0"><defs><clipPath id="a"><path d="M 0 0 L 187 0 L 187 187 L 0 187 Z M 0 0"/></clipPath><clipPath id="b"><path d="M 65 70 L 148 70 L 148 181.957031 L 65 181.957031 Z M 65 70"/></clipPath><clipPath id="c"><path d="M 144 70 L 181.882812 70 L 181.882812 181.957031 L 144 181.957031 Z M 144 70"/></clipPath><clipPath id="d"><path d="M 144 30 L 181.882812 30 L 181.882812 74 L 144 74 Z M 144 30"/></clipPath><clipPath id="e"><path d="M 82 5.707031 L 165 5.707031 L 165 34 L 82 34 Z M 82 5.707031"/></clipPath><clipPath id="f"><path d="M 5.632812 5.707031 L 69 5.707031 L 69 181.957031 L 5.632812 181.957031 Z M 5.632812 5.707031"/></clipPath></defs><g clip-path="url(#a)" fill="#FFF"><path d="M 0 0 L 187.5 0 L 187.5 194.25 L 0 194.25 Z M 0 0"/><path d="M 0 0 L 187.5 0 L 187.5 187.5 L 0 187.5 Z M 0 0"/><path d="M 0 0 L 187.5 0 L 187.5 187.5 L 0 187.5 Z M 0 0"/></g><path fill="#82D9FF" d="M 145.738281 180.453125 L 67.0625 180.453125 L 67.0625 72.222656 L 145.738281 72.222656 L 145.738281 180.453125"/><path fill="#CAF4FF" d="M 72.851562 78.21875 L 145.738281 78.21875 L 145.738281 72.222656 L 67.0625 72.222656 L 67.0625 180.457031 L 72.851562 180.457031 L 72.851562 78.21875"/><g clip-path="url(#b)"><path fill="#63312D" d="M 68.5625 178.957031 L 144.242188 178.957031 L 144.242188 73.722656 L 68.5625 73.722656 Z M 145.738281 181.953125 L 67.0625 181.953125 C 66.234375 181.953125 65.566406 181.285156 65.566406 180.453125 L 65.566406 72.222656 C 65.566406 71.394531 66.234375 70.722656 67.0625 70.722656 L 145.738281 70.722656 C 146.566406 70.722656 147.234375 71.394531 147.234375 72.222656 L 147.234375 180.453125 C 147.234375 181.285156 146.566406 181.953125 145.738281 181.953125"/></g><path fill="#52B8D9" d="M 163.007812 72.222656 L 145.738281 72.222656 L 145.738281 180.457031 L 180.277344 180.457031 L 180.277344 72.222656 L 163.007812 72.222656"/><path fill="#52B8D9" d="M 145.738281 72.222656 L 163.007812 31.863281 L 180.273438 72.222656 L 145.738281 72.222656"/><g clip-path="url(#c)"><path fill="#63312D" d="M 147.234375 178.957031 L 178.777344 178.957031 L 178.777344 73.722656 L 147.234375 73.722656 Z M 180.277344 181.953125 L 145.738281 181.953125 C 144.910156 181.953125 144.238281 181.285156 144.238281 180.453125 L 144.238281 72.222656 C 144.238281 71.390625 144.910156 70.722656 145.738281 70.722656 L 180.277344 70.722656 C 181.101562 70.722656 181.773438 71.390625 181.773438 72.222656 L 181.773438 180.453125 C 181.773438 181.285156 181.101562 181.953125 180.277344 181.953125"/></g><path fill="#82D9FF" d="M 145.738281 72.222656 L 67.0625 72.222656 L 84.332031 31.863281 L 163.007812 31.863281 L 145.738281 72.222656"/><path fill="#CAF4FF" d="M 88.058594 37.59375 L 160.554688 37.59375 L 163.007812 31.863281 L 84.328125 31.863281 L 67.0625 72.222656 L 73.246094 72.222656 L 88.058594 37.59375"/><path fill="#63312D" d="M 69.332031 70.722656 L 144.75 70.722656 L 160.742188 33.363281 L 85.320312 33.363281 Z M 145.738281 73.722656 L 67.0625 73.722656 C 66.558594 73.722656 66.085938 73.46875 65.8125 73.046875 C 65.535156 72.625 65.488281 72.097656 65.683594 71.632812 L 82.953125 31.273438 C 83.191406 30.71875 83.734375 30.363281 84.332031 30.363281 L 163.007812 30.363281 C 163.511719 30.363281 163.984375 30.613281 164.261719 31.035156 C 164.535156 31.457031 164.582031 31.992188 164.386719 32.453125 L 147.113281 72.8125 C 146.882812 73.363281 146.335938 73.722656 145.738281 73.722656"/><g clip-path="url(#d)"><path fill="#63312D" d="M 148.007812 70.722656 L 178.007812 70.722656 L 163.007812 35.671875 Z M 180.277344 73.722656 L 145.738281 73.722656 C 145.234375 73.722656 144.761719 73.46875 144.488281 73.046875 C 144.210938 72.625 144.167969 72.097656 144.359375 71.632812 L 161.628906 31.273438 C 162.105469 30.167969 163.914062 30.167969 164.386719 31.273438 L 181.652344 71.632812 C 181.847656 72.097656 181.800781 72.625 181.527344 73.046875 C 181.25 73.46875 180.777344 73.722656 180.277344 73.722656"/></g><path fill="#82D9FF" d="M 163.007812 31.863281 L 84.335938 31.863281 L 84.335938 7.207031 L 163.007812 7.207031 L 163.007812 31.863281"/><path fill="#CAF4FF" d="M 89.53125 12.503906 L 163.007812 12.503906 L 163.007812 7.207031 L 84.339844 7.207031 L 84.339844 31.863281 L 89.53125 31.863281 L 89.53125 12.503906"/><g clip-path="url(#e)"><path fill="#63312D" d="M 85.835938 30.363281 L 161.507812 30.363281 L 161.507812 8.707031 L 85.835938 8.707031 Z M 163.007812 33.363281 L 84.335938 33.363281 C 83.511719 33.363281 82.839844 32.691406 82.839844 31.863281 L 82.839844 7.207031 C 82.839844 6.378906 83.511719 5.707031 84.335938 5.707031 L 163.007812 5.707031 C 163.835938 5.707031 164.503906 6.378906 164.503906 7.207031 L 164.503906 31.863281 C 164.503906 32.691406 163.835938 33.363281 163.007812 33.363281"/></g><path fill="#F8F3F3" d="M 131.96875 145.929688 L 80.835938 145.929688 L 80.835938 106.75 L 131.96875 106.75 L 131.96875 145.929688"/><path fill="#63312D" d="M 82.332031 144.433594 L 130.46875 144.433594 L 130.46875 108.246094 L 82.332031 108.246094 Z M 131.96875 147.429688 L 80.832031 147.429688 C 80.007812 147.429688 79.335938 146.757812 79.335938 145.929688 L 79.335938 106.75 C 79.335938 105.921875 80.007812 105.25 80.832031 105.25 L 131.96875 105.25 C 132.796875 105.25 133.46875 105.921875 133.46875 106.75 L 133.46875 145.929688 C 133.46875 146.757812 132.796875 147.429688 131.96875 147.429688"/><path fill="#F7A085" d="M 46.234375 64.472656 L 46.234375 7.207031 L 27.992188 7.207031 L 27.992188 64.472656 C 15.917969 68.339844 7.164062 79.648438 7.164062 93.019531 L 7.164062 180.457031 L 67.0625 180.457031 L 67.0625 93.019531 C 67.0625 79.648438 58.3125 68.339844 46.234375 64.472656"/><path fill="#FFC8BB" d="M 12.492188 96.753906 C 12.492188 83.382812 21.238281 72.070312 33.316406 68.203125 L 33.316406 10.941406 L 46.234375 10.941406 L 46.234375 7.210938 L 27.996094 7.210938 L 27.996094 64.472656 C 15.917969 68.335938 7.167969 79.652344 7.167969 93.015625 L 7.167969 180.457031 L 12.492188 180.457031 L 12.492188 96.753906"/><path fill="#82D9FF" d="M 46.226562 31.84375 L 27.980469 31.84375 L 27.980469 7.21875 L 46.226562 7.21875 L 46.226562 31.84375"/><path fill="#F8F3F3" d="M 55.492188 152.800781 L 18.734375 152.800781 L 18.734375 103.828125 L 55.492188 103.828125 L 55.492188 152.800781"/><path fill="#63312D" d="M 20.234375 151.300781 L 53.996094 151.300781 L 53.996094 105.324219 L 20.234375 105.324219 Z M 55.492188 154.296875 L 18.738281 154.296875 C 17.90625 154.296875 17.238281 153.632812 17.238281 152.800781 L 17.238281 103.824219 C 17.238281 102.996094 17.90625 102.328125 18.738281 102.328125 L 55.492188 102.328125 C 56.320312 102.328125 56.988281 102.996094 56.988281 103.824219 L 56.988281 152.800781 C 56.988281 153.632812 56.320312 154.296875 55.492188 154.296875"/><path fill="#CAF4FF" d="M 46.226562 7.21875 L 46.226562 10.929688 L 33.316406 10.929688 L 33.316406 31.84375 L 27.980469 31.84375 L 27.980469 7.21875 L 46.226562 7.21875"/><g clip-path="url(#f)"><path fill="#63312D" d="M 8.664062 178.957031 L 65.5625 178.957031 L 65.5625 93.015625 C 65.5625 80.585938 57.613281 69.6875 45.777344 65.898438 C 45.160156 65.703125 44.734375 65.125 44.734375 64.472656 L 44.734375 8.707031 L 29.488281 8.707031 L 29.488281 64.472656 C 29.488281 65.125 29.070312 65.703125 28.449219 65.898438 C 16.613281 69.6875 8.664062 80.585938 8.664062 93.015625 Z M 67.0625 181.957031 L 7.164062 181.957031 C 6.339844 181.957031 5.667969 181.285156 5.667969 180.457031 L 5.667969 93.015625 C 5.667969 79.640625 13.988281 67.878906 26.496094 63.398438 L 26.496094 7.210938 C 26.496094 6.378906 27.167969 5.710938 27.992188 5.710938 L 46.234375 5.710938 C 47.0625 5.710938 47.730469 6.378906 47.730469 7.210938 L 47.730469 63.398438 C 60.238281 67.878906 68.558594 79.640625 68.558594 93.015625 L 68.558594 180.457031 C 68.558594 181.285156 67.894531 181.957031 67.0625 181.957031"/></g><path fill="#63312D" d="M 46.234375 33.363281 L 27.992188 33.363281 L 27.992188 30.363281 L 46.234375 30.363281 L 46.234375 33.363281"/></svg>