<?xml version="1.0" encoding="UTF-8"?><svg xmlns="http://www.w3.org/2000/svg" xmlns:xlink="http://www.w3.org/1999/xlink" contentScriptType="text/ecmascript" width="187.5" zoomAndPan="magnify" contentStyleType="text/css" viewBox="0 0 187.5 187.499995" height="187.499995" preserveAspectRatio="xMidYMid meet" version="1.0"><defs><clipPath id="clip-0"><path d="M 64 86 L 187 86 L 187 157 L 64 157 Z M 64 86 " clip-rule="nonzero"/></clipPath><clipPath id="clip-1"><path d="M 64 119 L 187 119 L 187 157 L 64 157 Z M 64 119 " clip-rule="nonzero"/></clipPath><clipPath id="clip-2"><path d="M 71.515625 123.410156 L 187 123.410156 L 187 157.097656 L 71.515625 157.097656 Z M 71.515625 123.410156 " clip-rule="nonzero"/></clipPath><clipPath id="clip-3"><path d="M 16 30.351562 L 94 30.351562 L 94 76 L 16 76 Z M 16 30.351562 " clip-rule="nonzero"/></clipPath><clipPath id="clip-4"><path d="M 16 30.351562 L 88 30.351562 L 88 76 L 16 76 Z M 16 30.351562 " clip-rule="nonzero"/></clipPath><clipPath id="clip-5"><path d="M 87 30.351562 L 94 30.351562 L 94 37 L 87 37 Z M 87 30.351562 " clip-rule="nonzero"/></clipPath></defs><g clip-path="url(#clip-0)"><path fill="rgb(95.689392%, 79.219055%, 61.569214%)" d="M 187.371094 124.390625 C 182.890625 124.3125 175.472656 122.585938 172.191406 120.554688 C 165.972656 116.707031 157.960938 108.796875 148.722656 104.554688 C 143.570312 102.191406 137.6875 101.921875 132.472656 98.480469 C 127.484375 95.1875 123.84375 93.011719 120.636719 88.355469 C 117.425781 83.695312 111.609375 87.542969 113.414062 94.632812 C 115.21875 101.71875 119.03125 103.746094 121.039062 105.566406 C 123.042969 107.390625 127.65625 111.644531 126.855469 113.871094 C 126.050781 116.097656 113.613281 116.503906 106.660156 115.425781 C 103.042969 114.863281 89.074219 110.496094 83.65625 108.269531 C 78.238281 106.039062 68.609375 101.789062 65.867188 105.839844 C 64.238281 108.25 70.683594 113.0625 77.503906 116.097656 C 77.503906 116.097656 64.933594 112.050781 64.265625 118.328125 C 63.917969 121.574219 69.679688 122.511719 74.695312 125.550781 C 79.710938 128.589844 96.363281 139.59375 101.777344 141.617188 C 107.195312 143.644531 125.25 148.300781 142.503906 149.109375 C 154.671875 149.683594 177.136719 153.472656 187.371094 156.003906 C 187.371094 151.03125 187.371094 129.753906 187.371094 124.390625 " fill-opacity="1" fill-rule="nonzero"/></g><g clip-path="url(#clip-1)"><path fill="rgb(94.119263%, 76.469421%, 59.21936%)" d="M 143.539062 143.890625 C 135.507812 143.890625 128.484375 140.882812 122.128906 136.199219 C 115.105469 131.183594 109.082031 125.5 101.390625 121.820312 C 101.054688 122.492188 101.390625 123.496094 101.726562 123.828125 C 109.082031 130.851562 116.441406 136.867188 125.808594 141.214844 C 126.144531 141.214844 126.476562 142.554688 125.808594 142.554688 C 114.382812 142.554688 105.363281 134.726562 95.328125 129.929688 C 91.261719 128.464844 87.558594 126.28125 84.332031 122.824219 C 83.878906 122.371094 83.269531 122.074219 82.609375 121.929688 C 83.855469 123.957031 85.117188 125.964844 85.667969 128.175781 C 78.972656 124.710938 71.796875 121.886719 64.472656 119.589844 C 65.554688 121.882812 70.398438 122.945312 74.695312 125.550781 C 79.710938 128.589844 96.363281 139.59375 101.777344 141.617188 C 107.195312 143.644531 125.25 148.300781 142.503906 149.109375 C 154.671875 149.683594 177.136719 153.472656 187.371094 156.003906 C 187.371094 154.246094 187.371094 151.542969 187.371094 149.421875 C 175.058594 144.804688 156.449219 143.890625 143.539062 143.890625 " fill-opacity="1" fill-rule="nonzero"/></g><g clip-path="url(#clip-2)"><path fill="rgb(92.158508%, 73.728943%, 56.469727%)" d="M 156.113281 147.882812 C 142.488281 147.390625 127.101562 147.910156 114.101562 143.386719 C 103.0625 139.375 84.664062 123.828125 83.664062 123.496094 C 88.679688 127.171875 91.691406 132.855469 97.042969 136.535156 C 88.101562 133.640625 80.609375 127.035156 71.796875 124.015625 C 72.757812 124.46875 73.742188 124.972656 74.695312 125.550781 C 79.710938 128.589844 96.363281 139.59375 101.777344 141.617188 C 107.195312 143.644531 125.25 148.300781 142.503906 149.109375 C 154.671875 149.683594 177.136719 154.570312 187.371094 157.097656 C 187.371094 156.464844 187.371094 154.125 187.371094 153.371094 C 179.65625 150.890625 164.214844 148.898438 156.113281 147.882812 " fill-opacity="1" fill-rule="nonzero"/></g><path fill="rgb(95.289612%, 81.959534%, 67.059326%)" d="M 136.023438 104.804688 C 138.128906 106.929688 139.179688 110.472656 141.285156 112.597656 C 144.445312 116.492188 150.058594 117.554688 154.621094 115.429688 C 156.476562 114.492188 157.105469 112.589844 157.015625 110.453125 C 154.226562 108.507812 151.28125 106.679688 148.195312 105.265625 C 143.046875 102.902344 137.160156 102.632812 131.945312 99.1875 C 126.957031 95.898438 123.320312 93.722656 120.109375 89.0625 C 119.710938 88.484375 119.273438 88.039062 118.816406 87.714844 C 119.195312 96.878906 130.324219 99.390625 136.023438 104.804688 " fill-opacity="1" fill-rule="nonzero"/><path fill="rgb(95.289612%, 81.959534%, 67.059326%)" d="M 119.003906 121.097656 C 119.355469 119.320312 118.910156 117.539062 118.070312 115.9375 C 114.730469 116.082031 111.011719 115.964844 107.996094 115.605469 C 111.3125 117.589844 114.03125 120.820312 117.953125 121.808594 C 117.953125 122.164062 118.652344 121.453125 119.003906 121.097656 " fill-opacity="1" fill-rule="nonzero"/><path fill="rgb(95.289612%, 81.959534%, 67.059326%)" d="M 70.929688 108.699219 C 75.84375 111.886719 81.457031 111.886719 87.070312 113.660156 C 89.527344 114.367188 91.984375 115.429688 94.441406 116.847656 C 94.273438 114.320312 95.539062 113.316406 97.285156 112.917969 C 92.257812 111.386719 86.652344 109.5 83.65625 108.269531 C 79.894531 106.722656 74.101562 104.199219 69.992188 104.160156 C 68.382812 105.605469 69.65625 107.734375 70.929688 108.699219 " fill-opacity="1" fill-rule="nonzero"/><path fill="rgb(90.589905%, 72.158813%, 54.899597%)" d="M 127.308594 116.140625 C 128.011719 116.492188 127.660156 117.910156 127.660156 118.972656 C 130.816406 116.140625 130.117188 110.824219 127.308594 107.636719 C 121.695312 101.96875 112.160156 97.808594 114.617188 88.953125 C 114.75 88.550781 115.230469 87.179688 116.792969 86.355469 C 114.3125 86.746094 112.234375 89.996094 113.414062 94.632812 C 115.21875 101.71875 119.03125 103.746094 121.039062 105.566406 C 123.042969 107.390625 127.65625 111.644531 126.855469 113.871094 C 126.472656 114.929688 123.472656 115.574219 119.683594 115.847656 C 122.117188 117.472656 124.882812 114.390625 127.308594 116.140625 " fill-opacity="1" fill-rule="nonzero"/><path fill="rgb(90.589905%, 72.158813%, 54.899597%)" d="M 141.5625 125.265625 C 149.640625 123.160156 157.699219 123.964844 165.457031 126.574219 C 159.195312 121.515625 147.910156 120.414062 141.5625 125.265625 " fill-opacity="1" fill-rule="nonzero"/><path fill="rgb(90.589905%, 72.158813%, 54.899597%)" d="M 108.886719 119.949219 C 117.660156 129.867188 131.519531 134.5625 143.800781 131.019531 C 138.1875 129.957031 131.871094 132.789062 126.957031 129.601562 C 123.449219 127.121094 123.800781 121.632812 120.640625 118.085938 C 121.253906 119.683594 123.535156 128.804688 120.027344 126.679688 C 112.65625 122.78125 105.113281 112.683594 96.339844 115.875 C 95.640625 116.230469 96.722656 119.328125 97.425781 121.097656 C 93.210938 116.140625 84.789062 111.710938 77.949219 114.015625 C 76.785156 114.40625 72.144531 111.375 69.878906 109.882812 C 67.070312 107.636719 65.78125 106.21875 68.425781 104.289062 C 67.335938 104.5 66.449219 104.984375 65.867188 105.839844 C 64.238281 108.25 70.683594 113.0625 77.503906 116.097656 C 77.503906 116.097656 64.933594 112.050781 64.265625 118.328125 C 64.230469 118.621094 64.253906 118.898438 64.316406 119.15625 C 71.3125 114.40625 77.523438 117.25 84.058594 123.578125 C 81.582031 120.667969 76.164062 115.875 79.847656 114.988281 C 82.128906 114.546875 86.25 115.164062 88.710938 116.9375 C 102.042969 125.4375 113.742188 134.324219 126.722656 142.117188 C 120.289062 137.039062 114.792969 132.554688 108.125 128.300781 C 104.265625 125.824219 97.042969 119.152344 97.21875 117.113281 C 98.359375 114.367188 106.429688 117.113281 108.886719 119.949219 " fill-opacity="1" fill-rule="nonzero"/><path fill="rgb(90.589905%, 72.158813%, 54.899597%)" d="M 104.445312 142.804688 C 104.855469 143.007812 105.265625 143.214844 105.667969 143.417969 C 105.265625 143.203125 104.859375 143 104.445312 142.804688 " fill-opacity="1" fill-rule="nonzero"/><path fill="rgb(84.309387%, 65.879822%, 49.01886%)" d="M 103.285156 125.972656 C 103.269531 126 99.585938 123.539062 94.410156 118.882812 C 91.785156 116.816406 88.488281 113.792969 83.671875 113.753906 C 82.519531 113.699219 81.328125 113.765625 80.140625 114.03125 C 79.105469 114.375 77.410156 114.585938 77.253906 116.222656 C 78.730469 118.441406 80.667969 120.050781 82.476562 122.03125 C 86.195312 125.8125 89.777344 129.378906 93.222656 132.425781 C 96.699219 135.484375 100.4375 137.351562 103.417969 139.097656 C 109.488281 142.453125 113.347656 144.320312 113.347656 144.316406 C 113.359375 144.292969 109.542969 142.34375 103.519531 138.914062 C 100.566406 137.132812 96.847656 135.230469 93.433594 132.179688 C 90.019531 129.125 86.453125 125.546875 82.738281 121.769531 C 80.972656 119.871094 78.910156 118.011719 77.605469 116.15625 C 77.625 115.101562 79.199219 114.625 80.214844 114.363281 C 81.363281 114.101562 82.53125 114.03125 83.660156 114.074219 C 88.34375 114.070312 91.566406 117.304688 94.226562 119.355469 C 99.460938 123.945312 103.261719 126.027344 103.285156 125.972656 " fill-opacity="1" fill-rule="nonzero"/><path fill="rgb(84.309387%, 65.879822%, 49.01886%)" d="M 142.234375 131.222656 C 142.25 130.996094 137.132812 131.859375 128.828125 131.136719 C 124.816406 130 120.316406 127.699219 115.777344 124.550781 C 113.480469 122.972656 111.320312 121.0625 109.097656 118.96875 C 106.789062 116.996094 103.832031 115.484375 100.570312 115.238281 C 99.761719 115.183594 98.945312 115.21875 98.152344 115.386719 C 97.484375 115.472656 96.226562 115.90625 96.5 116.988281 C 96.914062 118.621094 97.9375 119.828125 98.84375 121.042969 C 100.75 123.421875 102.777344 125.546875 104.863281 127.40625 C 109.132812 131.003906 113.300781 133.796875 116.851562 136.046875 C 120.417969 138.277344 123.519531 139.71875 125.304688 141.269531 C 127.167969 142.722656 127.8125 143.910156 127.792969 143.914062 C 127.828125 143.90625 127.203125 142.691406 125.355469 141.203125 C 123.585938 139.613281 120.492188 138.128906 116.960938 135.867188 C 113.441406 133.59375 109.296875 130.761719 105.070312 127.164062 C 103.015625 125.3125 101 123.183594 99.121094 120.820312 C 98.230469 119.640625 97.214844 118.367188 96.863281 116.933594 C 96.621094 116.148438 97.480469 115.921875 98.230469 115.75 C 98.976562 115.59375 99.765625 115.554688 100.546875 115.609375 C 103.703125 115.847656 106.597656 117.3125 108.871094 119.246094 C 111.058594 121.300781 113.292969 123.253906 115.597656 124.816406 C 120.179688 127.957031 124.59375 130.472656 128.679688 131.582031 C 137.085938 132.230469 142.230469 131.023438 142.234375 131.222656 " fill-opacity="1" fill-rule="nonzero"/><path fill="rgb(84.309387%, 65.879822%, 49.01886%)" d="M 163.730469 126.015625 C 163.792969 126.085938 158.644531 123 151.515625 123.273438 C 144.457031 123.433594 139.207031 126.019531 139.257812 126.015625 C 139.242188 126.070312 144.566406 123.796875 151.527344 123.644531 C 158.535156 123.367188 163.742188 126.128906 163.730469 126.015625 " fill-opacity="1" fill-rule="nonzero"/><path fill="rgb(84.309387%, 65.879822%, 49.01886%)" d="M 126.988281 112.050781 C 126.941406 112.074219 127.597656 113.28125 128.09375 114.839844 C 128.675781 116.410156 128.265625 117.746094 128.191406 117.71875 C 128.300781 117.847656 129.066406 116.417969 128.449219 114.730469 C 127.917969 113.085938 126.988281 112.039062 126.988281 112.050781 " fill-opacity="1" fill-rule="nonzero"/><path fill="rgb(84.309387%, 65.879822%, 49.01886%)" d="M 124.980469 129.195312 C 124.863281 129.285156 123.191406 126.554688 122.425781 122.710938 C 121.746094 118.800781 119.730469 116.097656 119.5 116.367188 C 119.71875 116.191406 121.386719 118.921875 122.066406 122.796875 C 122.84375 126.699219 124.835938 129.359375 124.980469 129.195312 " fill-opacity="1" fill-rule="nonzero"/><g clip-path="url(#clip-3)"><path fill="rgb(31.759644%, 63.919067%, 21.179199%)" d="M 93.632812 36.234375 C 93.632812 36.234375 90.980469 31.644531 87.316406 30.414062 C 87.316406 30.414062 74.867188 31.113281 52.921875 44.328125 C 30.976562 57.542969 16.992188 75.554688 16.992188 75.554688 C 16.992188 75.554688 40.878906 54.746094 58.40625 46.972656 C 75.929688 39.203125 93.632812 36.234375 93.632812 36.234375 " fill-opacity="1" fill-rule="nonzero"/></g><g clip-path="url(#clip-4)"><path fill="rgb(22.349548%, 55.688477%, 21.958923%)" d="M 16.992188 75.554688 C 16.976562 75.65625 28.917969 60.328125 48.585938 47.269531 C 58.414062 40.832031 68.035156 36.144531 75.277344 33.542969 C 82.519531 30.875 87.324219 30.386719 87.316406 30.414062 C 87.324219 30.359375 82.5 30.765625 75.214844 33.367188 C 67.929688 35.902344 58.253906 40.539062 48.402344 46.988281 C 28.671875 60.09375 16.929688 75.632812 16.992188 75.554688 " fill-opacity="1" fill-rule="nonzero"/></g><g clip-path="url(#clip-5)"><path fill="rgb(22.349548%, 55.688477%, 21.958923%)" d="M 87.316406 30.414062 C 87.308594 30.429688 89.144531 31.191406 90.816406 32.925781 C 92.511719 34.613281 93.613281 36.25 93.632812 36.234375 C 93.664062 36.230469 92.792969 34.421875 91.054688 32.6875 C 89.320312 30.898438 87.296875 30.367188 87.316406 30.414062 " fill-opacity="1" fill-rule="nonzero"/></g><path fill="rgb(67.449951%, 79.60968%, 17.649841%)" d="M 91.21875 34.699219 C 88.039062 35.277344 84.894531 35.460938 81.984375 33.871094 C 74.03125 36.453125 55.199219 44.992188 43.183594 54.722656 C 57.1875 48.566406 81.660156 37.226562 91.21875 34.699219 " fill-opacity="1" fill-rule="nonzero"/><path fill="rgb(34.509277%, 66.268921%, 20.779419%)" d="M 109.105469 41.074219 C 109.105469 41.074219 105.894531 33.5625 101.96875 31.960938 C 101.96875 31.960938 88.402344 33.082031 62.523438 43.953125 C 36.644531 54.828125 19.507812 72.257812 19.507812 72.257812 C 19.507812 72.257812 48.421875 54.027344 68.769531 48.113281 C 89.117188 42.195312 109.105469 41.074219 109.105469 41.074219 " fill-opacity="1" fill-rule="nonzero"/><path fill="rgb(22.349548%, 55.688477%, 21.958923%)" d="M 19.507812 72.257812 C 19.453125 72.363281 34.449219 57.21875 57.828125 46.222656 C 69.523438 40.914062 80.550781 37.097656 88.65625 34.835938 C 96.769531 32.546875 101.972656 31.945312 101.96875 31.960938 C 101.972656 31.917969 96.75 32.4375 88.609375 34.65625 C 80.46875 36.84375 69.410156 40.597656 57.6875 45.921875 C 34.234375 56.953125 19.40625 72.332031 19.507812 72.257812 " fill-opacity="1" fill-rule="nonzero"/><path fill="rgb(22.349548%, 55.688477%, 21.958923%)" d="M 101.96875 31.960938 C 101.988281 31.917969 104.332031 33.257812 106.089844 36.035156 C 107.941406 38.691406 109.074219 41.09375 109.105469 41.074219 C 109.128906 41.078125 108.246094 38.542969 106.363281 35.84375 C 104.566406 33.007812 101.976562 31.84375 101.96875 31.960938 " fill-opacity="1" fill-rule="nonzero"/><path fill="rgb(67.449951%, 79.60968%, 17.649841%)" d="M 88.953125 36.933594 C 83.144531 38.523438 74.347656 41.476562 62.753906 46.910156 C 59.78125 48.304688 53.382812 52.566406 50.683594 54.132812 C 54.875 52.105469 62.972656 48.140625 66.839844 46.886719 C 80.441406 42.472656 97.335938 40.867188 103.578125 40.222656 C 103.523438 40.121094 94.191406 40.542969 88.953125 36.933594 " fill-opacity="1" fill-rule="nonzero"/><path fill="rgb(37.249756%, 69.018555%, 20.388794%)" d="M 17.078125 74.550781 C 17.078125 74.550781 32.964844 60.476562 54.738281 50.242188 C 76.515625 40.007812 105.964844 38.570312 110.246094 39.851562 C 110.246094 39.851562 117.921875 45.925781 116.851562 54.082031 C 116.851562 54.082031 53.492188 59.359375 17.078125 74.550781 " fill-opacity="1" fill-rule="nonzero"/><path fill="rgb(22.349548%, 55.688477%, 21.958923%)" d="M 116.851562 54.082031 C 116.847656 54.175781 117.808594 50.234375 115.574219 46.058594 C 113.425781 41.941406 110.234375 39.804688 110.246094 39.851562 C 110.191406 39.886719 113.019531 42.347656 115.074219 46.3125 C 117.226562 50.292969 116.765625 54.113281 116.851562 54.082031 " fill-opacity="1" fill-rule="nonzero"/><path fill="rgb(22.349548%, 55.688477%, 21.958923%)" d="M 110.246094 39.851562 C 110.496094 39.222656 86.886719 37.808594 60.191406 47.625 C 33.992188 58.59375 17.046875 74.726562 17.078125 74.550781 C 17.109375 74.792969 34.347656 59.042969 60.394531 48.144531 C 86.925781 38.382812 110.46875 39.308594 110.246094 39.851562 " fill-opacity="1" fill-rule="nonzero"/><path fill="rgb(67.449951%, 79.60968%, 17.649841%)" d="M 98.800781 42.277344 C 87.832031 43.058594 70.460938 45.746094 56.066406 52.511719 C 46.613281 56.953125 38.25 62.167969 31.875 66.589844 C 63.738281 56.96875 103.617188 52.746094 114.054688 51.761719 C 113.925781 50.136719 113.410156 48.632812 112.742188 47.308594 C 107.089844 47.734375 101.398438 46.734375 98.800781 42.277344 " fill-opacity="1" fill-rule="nonzero"/><path fill="rgb(95.689392%, 79.219055%, 61.569214%)" d="M 83.792969 72.148438 C 83.792969 72.148438 86.195312 77.105469 76.917969 91.179688 C 75.941406 92.660156 50.789062 87.128906 48.65625 79.878906 C 46.523438 72.628906 46.84375 69.433594 52.816406 68.152344 C 58.789062 66.875 83.792969 70.445312 83.792969 72.148438 " fill-opacity="1" fill-rule="nonzero"/><path fill="rgb(94.119263%, 76.469421%, 59.21936%)" d="M 69.878906 85.742188 C 69.25 87.371094 68.4375 88.78125 67.476562 90.007812 C 72.441406 91.261719 76.535156 91.757812 76.917969 91.179688 C 80.039062 86.441406 81.835938 82.738281 82.851562 79.910156 C 79.929688 83.980469 75.09375 86.613281 69.878906 85.742188 " fill-opacity="1" fill-rule="nonzero"/><path fill="rgb(90.589905%, 72.158813%, 54.899597%)" d="M 83.792969 72.148438 C 83.792969 70.445312 58.789062 66.875 52.816406 68.152344 C 46.84375 69.433594 46.523438 72.628906 48.65625 79.878906 C 49.902344 84.109375 58.992188 87.757812 66.539062 89.765625 C 64.417969 87.902344 61.757812 86.773438 59.320312 85.421875 C 59 85.101562 58.359375 84.144531 58.679688 83.824219 C 61.878906 81.585938 65.078125 83.503906 68.277344 84.464844 C 67.640625 84.144531 68.277344 83.503906 67.957031 83.183594 C 72.269531 82.914062 76.582031 84.910156 80.890625 84.40625 C 85.398438 75.476562 83.792969 72.148438 83.792969 72.148438 " fill-opacity="1" fill-rule="nonzero"/><path fill="rgb(79.60968%, 61.569214%, 44.709778%)" d="M 67 83.183594 C 67.027344 83.1875 66.46875 82.238281 65.308594 81.675781 C 64.183594 81.082031 63.164062 80.921875 63.160156 80.945312 C 63.152344 80.976562 64.070312 81.398438 65.148438 81.96875 C 66.257812 82.503906 66.964844 83.199219 67 83.183594 " fill-opacity="1" fill-rule="nonzero"/><path fill="rgb(31.759644%, 63.919067%, 21.179199%)" d="M 51.171875 75.667969 C 33.140625 79.664062 23.503906 86.699219 23.503906 86.699219 C 23.503906 86.699219 63.9375 78.015625 76.15625 83.023438 C 94.242188 90.433594 95.433594 108.449219 95.433594 108.449219 C 95.433594 108.449219 107.214844 91.816406 108.105469 82.542969 C 109 73.269531 69.195312 71.671875 51.171875 75.667969 " fill-opacity="1" fill-rule="nonzero"/><path fill="rgb(22.349548%, 55.688477%, 21.958923%)" d="M 108.105469 82.542969 C 108.273438 82.578125 106.785156 88.957031 102.796875 95.945312 C 99.003906 102.996094 95.386719 108.417969 95.433594 108.449219 C 95.460938 108.476562 99.472656 103.304688 103.289062 96.210938 C 107.3125 89.164062 108.378906 82.542969 108.105469 82.542969 " fill-opacity="1" fill-rule="nonzero"/><path fill="rgb(22.349548%, 55.688477%, 21.958923%)" d="M 91.652344 96.382812 C 89.765625 92.941406 86.777344 89.148438 82.46875 86.152344 C 80.316406 84.664062 77.894531 83.359375 75.1875 82.398438 C 72.4375 81.570312 69.480469 81.308594 66.480469 81.21875 C 54.445312 81.078125 43.695312 82.957031 35.964844 84.222656 C 28.230469 85.578125 23.5 86.6875 23.503906 86.699219 C 23.511719 86.734375 28.269531 85.761719 36.015625 84.535156 C 43.753906 83.394531 54.519531 81.636719 66.464844 81.777344 C 69.4375 81.863281 72.363281 82.125 75.027344 82.914062 C 77.644531 83.828125 80.074219 85.109375 82.191406 86.550781 C 86.457031 89.460938 89.453125 93.15625 91.382812 96.535156 C 95.203125 103.417969 95.355469 108.515625 95.433594 108.449219 C 95.394531 108.515625 95.398438 103.394531 91.652344 96.382812 " fill-opacity="1" fill-rule="nonzero"/><path fill="rgb(64.309692%, 79.998779%, 15.689087%)" d="M 105.265625 82.238281 C 105.265625 82.042969 105.175781 81.632812 104.378906 81.015625 C 97.417969 75.691406 67.132812 74.765625 51.855469 78.152344 C 48.363281 78.925781 45.210938 79.824219 42.375 80.757812 C 54.945312 78.96875 70.121094 77.738281 77.347656 80.695312 C 83.164062 83.082031 87.371094 86.441406 90.410156 90.003906 C 98.171875 87.234375 101.203125 91.414062 101.828125 92.289062 C 103.617188 88.628906 105 85.03125 105.261719 82.324219 C 105.265625 82.300781 105.265625 82.273438 105.265625 82.238281 " fill-opacity="1" fill-rule="nonzero"/><path fill="rgb(54.508972%, 72.158813%, 15.289307%)" d="M 104.828125 84.660156 C 105.042969 83.828125 105.191406 83.046875 105.261719 82.324219 C 105.265625 82.300781 105.265625 82.273438 105.265625 82.238281 C 105.265625 82.042969 105.175781 81.632812 104.378906 81.015625 C 97.417969 75.691406 67.132812 74.765625 51.855469 78.152344 C 48.363281 78.925781 45.210938 79.824219 42.375 80.757812 C 54.679688 79.007812 69.480469 77.792969 76.875 80.519531 C 86.414062 80.316406 95.769531 81.507812 104.828125 84.660156 " fill-opacity="1" fill-rule="nonzero"/><path fill="rgb(44.309998%, 74.508667%, 18.429565%)" d="M 119.351562 50.402344 C 119.351562 50.402344 102.574219 43.847656 70.445312 49.445312 C 38.320312 55.039062 15.652344 74.867188 15.652344 74.867188 C 15.652344 74.867188 17.792969 84.621094 19.042969 91.179688 C 19.042969 91.179688 47.777344 78.867188 73.300781 77.90625 C 98.824219 76.945312 112.570312 85.742188 112.570312 85.742188 C 112.570312 85.742188 123.992188 63.515625 119.351562 50.402344 " fill-opacity="1" fill-rule="nonzero"/><path fill="rgb(22.349548%, 55.688477%, 21.958923%)" d="M 99.476562 80.429688 C 91.050781 78.082031 78.808594 76.648438 65.496094 78.242188 C 38.855469 81.75 19.011719 91.367188 19.042969 91.179688 C 19.050781 91.449219 39.058594 82.28125 65.5625 78.800781 C 78.796875 77.214844 90.972656 78.519531 99.398438 80.734375 C 107.878906 82.898438 112.582031 85.765625 112.570312 85.742188 C 112.609375 85.730469 107.964844 82.730469 99.476562 80.429688 " fill-opacity="1" fill-rule="nonzero"/><path fill="rgb(22.349548%, 55.688477%, 21.958923%)" d="M 15.652344 74.867188 C 15.519531 75.140625 34.851562 58.015625 64.785156 50.882812 C 79.640625 47.597656 93.542969 46.929688 103.480469 47.652344 C 113.457031 48.320312 119.375 50.398438 119.351562 50.402344 C 119.394531 50.355469 113.503906 48.136719 103.503906 47.339844 C 93.542969 46.484375 79.585938 47.039062 64.65625 50.339844 C 49.730469 53.816406 37.230469 60.167969 28.757812 65.414062 C 20.25 70.683594 15.632812 74.867188 15.652344 74.867188 " fill-opacity="1" fill-rule="nonzero"/><path fill="rgb(22.349548%, 55.688477%, 21.958923%)" d="M 119.351562 50.402344 C 119.300781 50.414062 120.058594 52.367188 120.234375 55.683594 C 120.429688 58.988281 119.921875 63.570312 118.6875 68.472656 C 116.191406 78.292969 112.496094 85.726562 112.570312 85.742188 C 112.574219 85.773438 116.707031 78.519531 119.230469 68.609375 C 120.476562 63.664062 120.878906 58.996094 120.550781 55.660156 C 120.238281 52.308594 119.339844 50.394531 119.351562 50.402344 " fill-opacity="1" fill-rule="nonzero"/><path fill="rgb(67.449951%, 79.60968%, 17.649841%)" d="M 117.332031 53.65625 C 111.800781 52.84375 106.921875 53.765625 104.230469 49.507812 C 96.351562 48.816406 85.21875 48.839844 70.992188 51.316406 C 44.027344 56.011719 23.632812 71.242188 18.761719 75.140625 C 19.269531 77.488281 20.324219 82.390625 21.21875 86.851562 C 29.667969 83.554688 52.261719 75.496094 73.183594 74.710938 C 82.460938 74.363281 90.230469 75.253906 96.429688 76.566406 C 101.324219 72.683594 108.15625 72.59375 113.925781 74.683594 C 116.90625 68.472656 117.832031 59.296875 117.832031 53.449219 C 117.832031 53.355469 117.335938 53.75 117.332031 53.65625 " fill-opacity="1" fill-rule="nonzero"/><path fill="rgb(62.748718%, 75.689697%, 15.289307%)" d="M 58.640625 68.925781 C 61.320312 61.964844 70.359375 58.433594 71.878906 51.164062 C 71.582031 51.214844 71.289062 51.265625 70.992188 51.316406 C 66.941406 52.023438 63.039062 52.964844 59.316406 54.074219 C 53.585938 57.710938 48.464844 61.789062 46.941406 69.214844 C 46.492188 71.90625 45.742188 75.546875 45.566406 79.042969 C 49.65625 78.003906 53.992188 77.054688 58.421875 76.304688 C 57.496094 73.816406 57.714844 70.960938 58.640625 68.925781 " fill-opacity="1" fill-rule="nonzero"/><path fill="rgb(83.918762%, 90.19928%, 54.119873%)" d="M 85.121094 58.390625 C 87.007812 62.933594 81.832031 68.839844 73.558594 71.582031 C 65.289062 74.324219 57.050781 72.863281 55.164062 68.320312 C 53.277344 63.777344 58.449219 57.871094 66.722656 55.128906 C 74.996094 52.386719 83.230469 53.847656 85.121094 58.390625 " fill-opacity="1" fill-rule="nonzero"/><path fill="rgb(73.728943%, 81.959534%, 45.878601%)" d="M 70.765625 54.117188 C 69.558594 54.34375 67.824219 54.644531 66.597656 55.050781 C 58.324219 57.792969 53.148438 63.746094 55.035156 68.289062 C 55.578125 69.605469 56.789062 70.6875 58.242188 71.457031 C 59.660156 65.285156 65.902344 60.773438 69.761719 55.472656 C 69.976562 55.042969 70.566406 54.546875 70.765625 54.117188 " fill-opacity="1" fill-rule="nonzero"/><path fill="rgb(95.689392%, 79.219055%, 61.569214%)" d="M 50.46875 79.347656 C 49.617188 76.148438 54.308594 67.621094 59.855469 62.289062 C 65.398438 56.960938 69.023438 52.054688 68.597656 48.003906 C 68.171875 43.953125 63.800781 45.046875 57.480469 48.964844 C 52.050781 52.332031 48.976562 54.292969 43.644531 59.199219 C 38.3125 64.101562 31.808594 67.300781 23.382812 71.457031 C 18.164062 74.035156 13.359375 81.476562 4.402344 89.792969 C 3.308594 90.808594 1.128906 92.316406 0.128906 93.148438 C 0.128906 105.871094 0.128906 123.757812 0.128906 138.675781 C 4.304688 133.914062 27.058594 113.894531 36.820312 110.6875 C 41.183594 109.253906 60.28125 102.796875 66.253906 100.453125 C 72.222656 98.109375 76.890625 91.246094 76.890625 91.246094 C 70.492188 91.457031 51.324219 82.542969 50.46875 79.347656 " fill-opacity="1" fill-rule="nonzero"/><path fill="rgb(95.289612%, 81.959534%, 67.059326%)" d="M 30.207031 83.6875 C 26.367188 81.128906 23.316406 81.269531 25.875 77.113281 C 28.710938 72.625 35.496094 67.613281 38.945312 64.382812 C 34.574219 67.398438 29.484375 69.910156 23.382812 72.921875 C 18.164062 75.496094 13.359375 82.941406 4.402344 91.253906 C 3.308594 92.269531 1.128906 93.777344 0.128906 94.609375 C 0.25 97.371094 0.128906 103.773438 0.128906 106.550781 C 1.195312 105.941406 4.386719 101.09375 5.574219 100.636719 C 14.53125 97.117188 22.851562 93.917969 30.847656 88.484375 C 31.808594 87.84375 31.808594 84.964844 30.207031 83.6875 " fill-opacity="1" fill-rule="nonzero"/><path fill="rgb(95.289612%, 81.959534%, 67.059326%)" d="M 57.402344 59.199219 C 59 59.199219 60.601562 56 59.640625 53.761719 C 58.628906 51.90625 56.816406 51.03125 54.765625 50.664062 C 50.878906 53.128906 48.019531 55.171875 43.644531 59.199219 C 43.527344 59.304688 43.402344 59.410156 43.285156 59.515625 C 47.554688 57.695312 52.578125 59.453125 57.402344 59.199219 " fill-opacity="1" fill-rule="nonzero"/><path fill="rgb(94.119263%, 76.469421%, 59.21936%)" d="M 68.0625 89.210938 C 61.042969 99.464844 44.453125 98.042969 33.40625 102.691406 C 27.007812 105.570312 20.929688 107.808594 15.171875 111.964844 C 12.679688 113.773438 1.839844 122.542969 0.128906 124.78125 C 0.128906 129.316406 0.128906 137.261719 0.128906 141.109375 C 4.304688 136.351562 27.058594 113.894531 36.820312 110.6875 C 41.183594 109.253906 60.28125 102.796875 66.253906 100.453125 C 72.222656 98.109375 76.890625 91.246094 76.890625 91.246094 C 74.882812 91.3125 71.621094 90.480469 68.0625 89.210938 " fill-opacity="1" fill-rule="nonzero"/><path fill="rgb(90.589905%, 72.158813%, 54.899597%)" d="M 68.277344 98.214844 C 53.242188 104.929688 41.085938 103.652344 26.6875 112.925781 C 22.074219 116.222656 2.847656 132.773438 0.128906 137.503906 C 0.128906 138.035156 0.128906 142.550781 0.128906 143.011719 C 2.328125 140.503906 20.765625 120.007812 24.625 117.144531 C 28.101562 114.570312 32.195312 112.207031 36.820312 110.6875 C 41.183594 109.253906 60.28125 102.796875 66.253906 100.453125 C 69.960938 98.996094 73.164062 95.800781 75.058594 93.582031 C 73.972656 94.316406 69.367188 97.777344 68.277344 98.214844 " fill-opacity="1" fill-rule="nonzero"/><path fill="rgb(90.589905%, 72.158813%, 54.899597%)" d="M 65.398438 52.003906 C 63.160156 52.960938 61.238281 49.921875 59 50.242188 C 61.558594 50.5625 64.121094 53.121094 63.160156 55.679688 C 61.878906 58.878906 59.402344 62.714844 56.761719 61.835938 C 57.082031 62.796875 57.402344 64.074219 56.761719 64.714844 C 51.644531 70.789062 46.152344 80.625 54.148438 86.0625 C 53.507812 85.101562 52.601562 84.464844 52.601562 83.183594 C 54.960938 85.070312 57.84375 86.082031 60.859375 86.230469 C 55.472656 83.710938 51.0625 80.664062 50.65625 79.132812 C 49.800781 75.933594 54.308594 67.621094 59.855469 62.289062 C 65.398438 56.960938 69.023438 52.054688 68.597656 48.003906 C 68.488281 46.976562 68.125 46.277344 67.539062 45.878906 C 68.917969 48.644531 67.019531 50.925781 65.398438 52.003906 " fill-opacity="1" fill-rule="nonzero"/><path fill="rgb(95.689392%, 83.139038%, 67.059326%)" d="M 62.8125 49.566406 C 64.035156 48.273438 65.511719 47.351562 67.136719 46.863281 C 65.855469 45.363281 62.636719 46.421875 58.332031 49.046875 C 59.832031 48.890625 61.425781 49.027344 62.8125 49.566406 " fill-opacity="1" fill-rule="nonzero"/><path fill="rgb(84.309387%, 65.879822%, 49.01886%)" d="M 62.839844 52.003906 C 62.84375 52.015625 61.851562 51.015625 60.253906 50.402344 C 58.648438 49.761719 57.21875 49.964844 57.242188 50.003906 C 57.242188 50.023438 58.605469 50.101562 60.132812 50.71875 C 61.667969 51.300781 62.804688 52.054688 62.839844 52.003906 " fill-opacity="1" fill-rule="nonzero"/><path fill="rgb(84.309387%, 65.879822%, 49.01886%)" d="M 68.277344 48.40625 C 68.222656 48.390625 67.980469 49.566406 67.039062 50.609375 C 66.113281 51.652344 65.0625 52.214844 65.078125 52.242188 C 65.070312 52.269531 66.285156 51.953125 67.292969 50.828125 C 68.3125 49.683594 68.277344 48.371094 68.277344 48.40625 " fill-opacity="1" fill-rule="nonzero"/><path fill="rgb(84.309387%, 65.879822%, 49.01886%)" d="M 54.203125 86.0625 C 54.277344 86.003906 52.375 84.855469 51.21875 82.546875 C 50.023438 80.253906 50.226562 78.042969 50.203125 78.066406 C 50.175781 78.011719 49.671875 80.28125 50.917969 82.699219 C 52.148438 85.125 54.261719 86.054688 54.203125 86.0625 " fill-opacity="1" fill-rule="nonzero"/><path fill="rgb(84.309387%, 65.879822%, 49.01886%)" d="M 64.28125 86.859375 C 64.304688 86.792969 60.894531 86.003906 57.089844 84.097656 C 53.234375 82.246094 50.800781 79.691406 50.84375 79.664062 C 50.742188 79.710938 53.019531 82.511719 56.9375 84.398438 C 60.804688 86.332031 64.296875 86.847656 64.28125 86.859375 " fill-opacity="1" fill-rule="nonzero"/></svg>