<?xml version="1.0" encoding="UTF-8"?><svg xmlns="http://www.w3.org/2000/svg" xmlns:xlink="http://www.w3.org/1999/xlink" contentScriptType="text/ecmascript" width="187.5" zoomAndPan="magnify" contentStyleType="text/css" viewBox="0 0 187.5 187.499995" height="187.499995" preserveAspectRatio="xMidYMid meet" version="1.0"><defs><clipPath id="clip-0"><path d="M 2.285156 2.285156 L 185.285156 2.285156 L 185.285156 185.285156 L 2.285156 185.285156 Z M 2.285156 2.285156 " clip-rule="nonzero"/></clipPath></defs><g clip-path="url(#clip-0)"><path fill="rgb(48.239136%, 81.959534%, 87.449646%)" d="M 185.285156 93.785156 C 185.285156 144.320312 144.320312 185.285156 93.785156 185.285156 C 43.253906 185.285156 2.285156 144.320312 2.285156 93.785156 C 2.285156 43.253906 43.253906 2.285156 93.785156 2.285156 C 144.320312 2.285156 185.285156 43.253906 185.285156 93.785156 " fill-opacity="1" fill-rule="nonzero"/></g><path fill="rgb(1.959229%, 52.938843%, 53.729248%)" d="M 152.984375 165.109375 L 34.589844 165.109375 L 34.589844 88.015625 L 152.984375 88.015625 L 152.984375 165.109375 " fill-opacity="1" fill-rule="nonzero"/><path fill="rgb(14.118958%, 19.60907%, 22.349548%)" d="M 163.308594 173.367188 L 24.265625 173.367188 C 24.265625 168.808594 27.960938 165.109375 32.523438 165.109375 L 155.046875 165.109375 C 159.609375 165.109375 163.308594 168.808594 163.308594 173.367188 " fill-opacity="1" fill-rule="nonzero"/><path fill="rgb(100%, 100%, 100%)" d="M 59.714844 114.171875 L 46.636719 114.171875 L 46.636719 101.09375 L 59.714844 101.09375 L 59.714844 114.171875 " fill-opacity="1" fill-rule="nonzero"/><path fill="rgb(100%, 100%, 100%)" d="M 80.019531 114.171875 L 66.941406 114.171875 L 66.941406 101.09375 L 80.019531 101.09375 L 80.019531 114.171875 " fill-opacity="1" fill-rule="nonzero"/><path fill="rgb(100%, 100%, 100%)" d="M 100.324219 114.171875 L 87.246094 114.171875 L 87.246094 101.09375 L 100.324219 101.09375 L 100.324219 114.171875 " fill-opacity="1" fill-rule="nonzero"/><path fill="rgb(100%, 100%, 100%)" d="M 120.632812 114.171875 L 107.554688 114.171875 L 107.554688 101.09375 L 120.632812 101.09375 L 120.632812 114.171875 " fill-opacity="1" fill-rule="nonzero"/><path fill="rgb(100%, 100%, 100%)" d="M 140.9375 114.171875 L 127.859375 114.171875 L 127.859375 101.09375 L 140.9375 101.09375 L 140.9375 114.171875 " fill-opacity="1" fill-rule="nonzero"/><path fill="rgb(92.939758%, 95.289612%, 95.289612%)" d="M 115.125 126.5625 L 72.445312 126.5625 L 72.445312 165.109375 L 115.125 165.109375 L 115.125 126.5625 " fill-opacity="1" fill-rule="nonzero"/><path fill="rgb(89.019775%, 65.489197%, 18.429565%)" d="M 121.066406 124.324219 C 121.066406 125.5625 120.054688 126.554688 118.816406 126.554688 L 68.738281 126.554688 C 67.519531 126.554688 66.507812 125.5625 66.507812 124.324219 C 66.507812 123.085938 67.519531 122.09375 68.738281 122.09375 L 118.816406 122.09375 C 120.054688 122.09375 121.066406 123.085938 121.066406 124.324219 " fill-opacity="1" fill-rule="nonzero"/><path fill="rgb(80.389404%, 81.959534%, 81.959534%)" d="M 111.597656 132.328125 L 75.976562 132.328125 L 75.976562 130.261719 L 111.597656 130.261719 L 111.597656 132.328125 " fill-opacity="1" fill-rule="nonzero"/><path fill="rgb(80.389404%, 81.959534%, 81.959534%)" d="M 111.597656 139.652344 L 75.976562 139.652344 L 75.976562 137.585938 L 111.597656 137.585938 L 111.597656 139.652344 " fill-opacity="1" fill-rule="nonzero"/><path fill="rgb(80.389404%, 81.959534%, 81.959534%)" d="M 111.597656 146.976562 L 75.976562 146.976562 L 75.976562 144.910156 L 111.597656 144.910156 L 111.597656 146.976562 " fill-opacity="1" fill-rule="nonzero"/><path fill="rgb(80.389404%, 81.959534%, 81.959534%)" d="M 111.597656 154.300781 L 75.976562 154.300781 L 75.976562 152.234375 L 111.597656 152.234375 L 111.597656 154.300781 " fill-opacity="1" fill-rule="nonzero"/><path fill="rgb(80.389404%, 81.959534%, 81.959534%)" d="M 111.597656 161.625 L 75.976562 161.625 L 75.976562 159.558594 L 111.597656 159.558594 L 111.597656 161.625 " fill-opacity="1" fill-rule="nonzero"/><path fill="rgb(92.939758%, 95.289612%, 95.289612%)" d="M 59.714844 155.816406 L 46.636719 155.816406 L 46.636719 133.445312 L 59.714844 133.445312 L 59.714844 155.816406 " fill-opacity="1" fill-rule="nonzero"/><path fill="rgb(14.118958%, 19.60907%, 22.349548%)" d="M 47.410156 155.042969 L 58.941406 155.042969 L 58.941406 134.21875 L 47.410156 134.21875 Z M 60.488281 156.589844 L 45.863281 156.589844 L 45.863281 132.671875 L 60.488281 132.671875 L 60.488281 156.589844 " fill-opacity="1" fill-rule="nonzero"/><path fill="rgb(92.939758%, 95.289612%, 95.289612%)" d="M 140.9375 155.816406 L 127.859375 155.816406 L 127.859375 133.445312 L 140.9375 133.445312 L 140.9375 155.816406 " fill-opacity="1" fill-rule="nonzero"/><path fill="rgb(14.118958%, 19.60907%, 22.349548%)" d="M 128.632812 155.042969 L 140.164062 155.042969 L 140.164062 134.21875 L 128.632812 134.21875 Z M 141.710938 156.589844 L 127.085938 156.589844 L 127.085938 132.671875 L 141.710938 132.671875 L 141.710938 156.589844 " fill-opacity="1" fill-rule="nonzero"/><path fill="rgb(14.118958%, 19.60907%, 22.349548%)" d="M 72.457031 64.996094 L 72.457031 88.023438 L 46.644531 88.023438 L 46.644531 76.601562 L 70 63.570312 C 71.09375 62.953125 72.457031 63.757812 72.457031 64.996094 " fill-opacity="1" fill-rule="nonzero"/><path fill="rgb(89.019775%, 65.489197%, 18.429565%)" d="M 72.445312 83.714844 L 46.636719 83.714844 L 46.636719 88.015625 L 72.445312 88.015625 L 72.445312 83.714844 " fill-opacity="1" fill-rule="nonzero"/><path fill="rgb(14.118958%, 19.60907%, 22.349548%)" d="M 106.695312 64.996094 L 106.695312 88.023438 L 80.878906 88.023438 L 80.878906 76.601562 L 104.257812 63.570312 C 105.351562 62.953125 106.695312 63.757812 106.695312 64.996094 " fill-opacity="1" fill-rule="nonzero"/><path fill="rgb(89.019775%, 65.489197%, 18.429565%)" d="M 106.691406 83.714844 L 80.878906 83.714844 L 80.878906 88.015625 L 106.691406 88.015625 L 106.691406 83.714844 " fill-opacity="1" fill-rule="nonzero"/><path fill="rgb(14.118958%, 19.60907%, 22.349548%)" d="M 144.585938 88.082031 L 118.773438 88.082031 L 119.105469 83.601562 L 121.957031 45.046875 L 122.285156 40.589844 L 141.078125 40.589844 L 141.40625 45.046875 L 144.257812 83.601562 L 144.585938 88.082031 " fill-opacity="1" fill-rule="nonzero"/><path fill="rgb(89.019775%, 65.489197%, 18.429565%)" d="M 144.585938 88.082031 L 118.773438 88.082031 L 119.105469 83.601562 L 144.257812 83.601562 L 144.585938 88.082031 " fill-opacity="1" fill-rule="nonzero"/><path fill="rgb(89.019775%, 65.489197%, 18.429565%)" d="M 141.40625 45.046875 L 121.957031 45.046875 L 122.285156 40.589844 L 141.078125 40.589844 L 141.40625 45.046875 " fill-opacity="1" fill-rule="nonzero"/><path fill="rgb(100%, 100%, 100%)" d="M 137.925781 24.605469 C 137.941406 24.222656 137.9375 23.835938 137.898438 23.445312 C 137.453125 18.8125 133.335938 15.417969 128.699219 15.871094 C 128.445312 15.898438 128.195312 15.933594 127.9375 15.976562 C 127.9375 15.914062 127.9375 15.847656 127.929688 15.785156 C 127.675781 13.164062 125.34375 11.246094 122.71875 11.5 C 121.75 11.597656 120.863281 11.972656 120.164062 12.550781 C 119.257812 8.472656 115.617188 5.441406 111.28125 5.441406 C 106.242188 5.441406 102.167969 9.515625 102.167969 14.550781 C 102.167969 15.410156 102.289062 16.238281 102.519531 17.027344 C 101.023438 16.132812 99.238281 15.6875 97.367188 15.871094 C 92.734375 16.320312 89.339844 20.4375 89.785156 25.070312 C 90.214844 29.4375 93.886719 32.699219 98.179688 32.6875 L 127.433594 32.6875 C 127.433594 32.6875 131.921875 35.199219 132.253906 38.0625 C 132.253906 38.0625 137.886719 32.453125 137.964844 24.574219 L 137.925781 24.605469 " fill-opacity="1" fill-rule="nonzero"/></svg>