<?xml version="1.0" encoding="UTF-8"?><svg xmlns="http://www.w3.org/2000/svg" xmlns:xlink="http://www.w3.org/1999/xlink" contentScriptType="text/ecmascript" width="187.5" zoomAndPan="magnify" contentStyleType="text/css" viewBox="0 0 187.5 187.499995" height="187.499995" preserveAspectRatio="xMidYMid meet" version="1.0"><defs><clipPath id="clip-0"><path d="M 41 101 L 94 101 L 94 185.464844 L 41 185.464844 Z M 41 101 " clip-rule="nonzero"/></clipPath><clipPath id="clip-1"><path d="M 93 101 L 146 101 L 146 185.464844 L 93 185.464844 Z M 93 101 " clip-rule="nonzero"/></clipPath><clipPath id="clip-2"><path d="M 32.503906 101 L 94 101 L 94 137 L 32.503906 137 Z M 32.503906 101 " clip-rule="nonzero"/></clipPath><clipPath id="clip-3"><path d="M 93 101 L 154.753906 101 L 154.753906 137 L 93 137 Z M 93 101 " clip-rule="nonzero"/></clipPath><clipPath id="clip-4"><path d="M 92 1.714844 L 96 1.714844 L 96 19 L 92 19 Z M 92 1.714844 " clip-rule="nonzero"/></clipPath></defs><path fill="rgb(28.62854%, 39.608765%, 57.249451%)" d="M 93.628906 145.066406 L 145.523438 165.09375 L 145.523438 100.933594 L 93.628906 80.910156 L 93.628906 145.066406 " fill-opacity="1" fill-rule="nonzero"/><path fill="rgb(59.609985%, 71.759033%, 89.408875%)" d="M 93.628906 145.066406 L 41.746094 165.09375 L 41.746094 100.933594 L 93.628906 80.910156 L 93.628906 145.066406 " fill-opacity="1" fill-rule="nonzero"/><path fill="rgb(97.24884%, 83.918762%, 30.198669%)" d="M 127.085938 58.558594 C 127.085938 39.667969 111.554688 24.40625 92.558594 24.855469 C 74.195312 25.292969 59.429688 40.652344 59.675781 59.019531 C 59.804688 68.734375 64.050781 77.453125 70.734375 83.523438 C 76.113281 88.40625 79.300781 95.242188 79.300781 102.507812 L 79.300781 110.199219 L 107.460938 110.199219 L 107.460938 102.722656 C 107.460938 95.351562 110.675781 88.40625 116.113281 83.4375 C 122.855469 77.273438 127.085938 68.414062 127.085938 58.558594 " fill-opacity="1" fill-rule="nonzero"/><path fill="rgb(100%, 100%, 100%)" d="M 73.332031 47.390625 C 70.703125 51.125 66.988281 53.03125 65.027344 51.65625 C 63.066406 50.277344 63.609375 46.128906 66.234375 42.398438 C 68.859375 38.660156 72.578125 36.757812 74.535156 38.132812 C 76.496094 39.515625 75.960938 43.660156 73.332031 47.390625 " fill-opacity="1" fill-rule="nonzero"/><path stroke-linecap="round" transform="matrix(0.0724139, 0, 0, -0.0724281, -60.321588, 248.188586)" fill="none" stroke-linejoin="round" d="M 2051.320989 1905.785479 L 1942.193613 2458.704855 " stroke="rgb(28.62854%, 39.608765%, 57.249451%)" stroke-width="28.533001" stroke-opacity="1" stroke-miterlimit="10"/><path stroke-linecap="round" transform="matrix(0.0724139, 0, 0, -0.0724281, -60.321588, 248.188586)" fill="none" stroke-linejoin="round" d="M 2199.017852 1905.785479 L 2308.091285 2458.704855 " stroke="rgb(28.62854%, 39.608765%, 57.249451%)" stroke-width="28.533001" stroke-opacity="1" stroke-miterlimit="10"/><path fill="rgb(92.939758%, 32.939148%, 48.629761%)" d="M 107.300781 124.082031 L 79.371094 124.082031 L 79.257812 110.199219 L 107.417969 110.199219 L 107.300781 124.082031 " fill-opacity="1" fill-rule="nonzero"/><path fill="rgb(28.62854%, 39.608765%, 57.249451%)" d="M 79.472656 124.140625 C 80.203125 127.582031 83.246094 130.035156 86.765625 130.035156 L 99.910156 130.035156 C 103.429688 130.035156 106.46875 127.582031 107.199219 124.140625 L 79.472656 124.140625 " fill-opacity="1" fill-rule="nonzero"/><path stroke-linecap="round" transform="matrix(0.0724139, 0, 0, -0.0724281, -60.321588, 248.188586)" fill="none" stroke-linejoin="round" d="M 1961.990819 2358.281925 L 2050.619726 2458.704855 L 2124.791817 2350.299866 L 2216.117891 2458.704855 L 2288.294079 2358.281925 " stroke="rgb(28.62854%, 39.608765%, 57.249451%)" stroke-width="28.533001" stroke-opacity="1" stroke-miterlimit="10"/><g clip-path="url(#clip-0)"><path fill="rgb(59.609985%, 71.759033%, 89.408875%)" d="M 93.628906 121.308594 L 41.746094 101.28125 L 41.746094 165.441406 L 93.628906 185.464844 L 93.628906 121.308594 " fill-opacity="1" fill-rule="nonzero"/></g><g clip-path="url(#clip-1)"><path fill="rgb(28.62854%, 39.608765%, 57.249451%)" d="M 93.628906 121.308594 L 145.523438 101.28125 L 145.523438 165.441406 L 93.628906 185.464844 L 93.628906 121.308594 " fill-opacity="1" fill-rule="nonzero"/></g><g clip-path="url(#clip-2)"><path fill="rgb(28.62854%, 39.608765%, 57.249451%)" d="M 41.628906 101.28125 L 32.511719 115.761719 L 82.90625 136.136719 L 93.628906 121.121094 L 41.628906 101.28125 " fill-opacity="1" fill-rule="nonzero"/></g><g clip-path="url(#clip-3)"><path fill="rgb(59.609985%, 71.759033%, 89.408875%)" d="M 145.632812 101.28125 L 154.746094 115.761719 L 104.355469 136.136719 L 93.628906 121.121094 L 145.632812 101.28125 " fill-opacity="1" fill-rule="nonzero"/></g><g clip-path="url(#clip-4)"><path stroke-linecap="round" transform="matrix(0.0724139, 0, 0, -0.0724281, -60.321588, 248.188586)" fill="none" stroke-linejoin="round" d="M 2131.318961 3194.995854 L 2131.318961 3386.025939 " stroke="rgb(28.62854%, 39.608765%, 57.249451%)" stroke-width="34.812" stroke-opacity="1" stroke-miterlimit="10"/></g><path stroke-linecap="round" transform="matrix(0.0724139, 0, 0, -0.0724281, -60.321588, 248.188586)" fill="none" stroke-linejoin="round" d="M 2370.126125 3161.773231 L 2486.697682 3313.108752 " stroke="rgb(28.62854%, 39.608765%, 57.249451%)" stroke-width="34.812" stroke-opacity="1" stroke-miterlimit="10"/><path stroke-linecap="round" transform="matrix(0.0724139, 0, 0, -0.0724281, -60.321588, 248.188586)" fill="none" stroke-linejoin="round" d="M 1913.819417 3161.773231 L 1797.08603 3313.108752 " stroke="rgb(28.62854%, 39.608765%, 57.249451%)" stroke-width="34.812" stroke-opacity="1" stroke-miterlimit="10"/><path stroke-linecap="round" transform="matrix(0.0724139, 0, 0, -0.0724281, -60.321588, 248.188586)" fill="none" stroke-linejoin="round" d="M 2545.118319 2993.394934 L 2704.305113 3078.285209 " stroke="rgb(28.62854%, 39.608765%, 57.249451%)" stroke-width="34.812" stroke-opacity="1" stroke-miterlimit="10"/><path stroke-linecap="round" transform="matrix(0.0724139, 0, 0, -0.0724281, -60.321588, 248.188586)" fill="none" stroke-linejoin="round" d="M 1738.719337 3025.215304 L 1579.586485 3110.105579 " stroke="rgb(28.62854%, 39.608765%, 57.249451%)" stroke-width="34.812" stroke-opacity="1" stroke-miterlimit="10"/><path stroke-linecap="round" transform="matrix(0.0724139, 0, 0, -0.0724281, -60.321588, 248.188586)" fill="none" stroke-linejoin="round" d="M 2619.398297 2781.22318 L 2799.784824 2802.418782 " stroke="rgb(28.62854%, 39.608765%, 57.249451%)" stroke-width="34.812" stroke-opacity="1" stroke-miterlimit="10"/><path stroke-linecap="round" transform="matrix(0.0724139, 0, 0, -0.0724281, -60.321588, 248.188586)" fill="none" stroke-linejoin="round" d="M 1611.413056 2802.418782 L 1431.026528 2823.614385 " stroke="rgb(28.62854%, 39.608765%, 57.249451%)" stroke-width="34.812" stroke-opacity="1" stroke-miterlimit="10"/><path stroke-linecap="round" transform="matrix(0.0724139, 0, 0, -0.0724281, -60.321588, 248.188586)" fill="none" stroke-linejoin="round" d="M 2630.025135 2568.997493 L 2831.611394 2568.997493 " stroke="rgb(28.62854%, 39.608765%, 57.249451%)" stroke-width="34.812" stroke-opacity="1" stroke-miterlimit="10"/><path stroke-linecap="round" transform="matrix(0.0724139, 0, 0, -0.0724281, -60.321588, 248.188586)" fill="none" stroke-linejoin="round" d="M 1388.57312 2568.997493 L 1590.213323 2568.997493 " stroke="rgb(28.62854%, 39.608765%, 57.249451%)" stroke-width="34.812" stroke-opacity="1" stroke-miterlimit="10"/></svg>