<?xml version="1.0" encoding="UTF-8"?><svg xmlns="http://www.w3.org/2000/svg" xmlns:xlink="http://www.w3.org/1999/xlink" contentScriptType="text/ecmascript" width="187.5" zoomAndPan="magnify" contentStyleType="text/css" viewBox="0 0 187.5 187.499995" height="187.499995" preserveAspectRatio="xMidYMid meet" version="1.0"><defs><clipPath id="clip-0"><path d="M 0 0 L 187 0 L 187 187 L 0 187 Z M 0 0 " clip-rule="nonzero"/></clipPath></defs><g clip-path="url(#clip-0)"><path fill="rgb(3.529358%, 29.019165%, 43.139648%)" d="M 93.75 0 C 41.980469 0 0 41.980469 0 93.75 C 0 145.519531 41.980469 187.5 93.75 187.5 C 145.519531 187.5 187.5 145.519531 187.5 93.75 C 187.5 41.980469 145.519531 0 93.75 0 Z M 93.75 0 " fill-opacity="1" fill-rule="nonzero"/></g><path fill="rgb(94.898987%, 96.859741%, 98.039246%)" d="M 120.804688 101.910156 C 119.824219 99.492188 118.3125 97.300781 116.347656 95.300781 C 114.382812 93.296875 111.964844 91.519531 109.054688 89.972656 C 112.039062 87.476562 114.34375 84.871094 115.929688 82.261719 C 117.519531 79.617188 118.347656 76.445312 118.347656 72.777344 C 118.347656 69.980469 117.78125 67.335938 116.6875 64.917969 C 115.589844 62.5 113.929688 60.347656 111.773438 58.496094 C 109.582031 56.644531 107.050781 55.246094 104.066406 54.261719 C 101.117188 53.28125 97.832031 52.789062 94.277344 52.789062 C 90.199219 52.789062 86.457031 53.355469 83.167969 54.527344 C 79.882812 55.699219 77.085938 57.246094 74.855469 59.136719 C 72.628906 61.0625 70.925781 63.066406 69.753906 65.183594 C 68.582031 67.300781 68.015625 69.339844 68.015625 71.230469 C 68.015625 73.230469 68.621094 74.820312 69.867188 76.027344 C 71.117188 77.238281 72.476562 77.839844 73.949219 77.839844 C 75.195312 77.839844 76.292969 77.613281 77.273438 77.160156 C 78.21875 76.707031 78.898438 76.101562 79.277344 75.347656 C 79.917969 73.910156 80.601562 72.363281 81.355469 70.738281 C 82.113281 69.113281 82.90625 67.789062 83.773438 66.769531 C 84.605469 65.75 85.777344 64.917969 87.25 64.277344 C 88.722656 63.632812 90.574219 63.332031 92.804688 63.332031 C 96.128906 63.332031 98.777344 64.351562 100.703125 66.390625 C 102.667969 68.433594 103.648438 70.890625 103.648438 73.722656 C 103.648438 77.464844 102.441406 80.296875 99.984375 82.300781 C 97.527344 84.304688 94.617188 85.285156 91.21875 85.285156 L 88.949219 85.285156 C 86.34375 85.285156 84.339844 85.816406 83.019531 86.910156 C 81.695312 88.007812 81.015625 89.441406 81.015625 91.21875 C 81.015625 93.03125 81.582031 94.429688 82.679688 95.449219 C 83.773438 96.472656 85.359375 96.960938 87.402344 96.960938 C 87.855469 96.960938 88.835938 96.886719 90.386719 96.734375 C 91.9375 96.585938 93.070312 96.507812 93.824219 96.507812 C 98.019531 96.507812 101.308594 97.71875 103.6875 100.175781 C 106.03125 102.628906 107.238281 106.03125 107.238281 110.339844 C 107.238281 113.25 106.558594 115.816406 105.160156 118.046875 C 103.761719 120.277344 102.023438 121.9375 99.910156 123.074219 C 97.792969 124.207031 95.5625 124.773438 93.296875 124.773438 C 89.328125 124.773438 86.230469 123.527344 84.039062 121.03125 C 81.847656 118.539062 79.769531 114.722656 77.878906 109.621094 C 77.578125 108.789062 76.972656 108.035156 75.988281 107.429688 C 75.046875 106.824219 74.023438 106.523438 73.003906 106.523438 C 70.925781 106.523438 69.226562 107.164062 67.828125 108.488281 C 66.429688 109.808594 65.75 111.511719 65.75 113.664062 C 65.75 115.328125 66.316406 117.441406 67.488281 119.972656 C 68.660156 122.507812 70.359375 125 72.628906 127.378906 C 74.894531 129.761719 77.765625 131.726562 81.28125 133.3125 C 84.792969 134.898438 88.761719 135.695312 93.183594 135.695312 C 97.527344 135.695312 101.496094 135.011719 105.125 133.617188 C 108.75 132.21875 111.8125 130.328125 114.457031 127.871094 C 117.066406 125.414062 119.066406 122.621094 120.390625 119.484375 C 121.75 116.347656 122.394531 113.097656 122.394531 109.734375 C 122.28125 106.9375 121.789062 104.332031 120.804688 101.910156 " fill-opacity="1" fill-rule="nonzero"/></svg>