<?xml version="1.0" encoding="UTF-8"?><svg xmlns="http://www.w3.org/2000/svg" xmlns:xlink="http://www.w3.org/1999/xlink" contentScriptType="text/ecmascript" width="187.5" zoomAndPan="magnify" contentStyleType="text/css" viewBox="0 0 187.5 187.499995" height="187.499995" preserveAspectRatio="xMidYMid meet" version="1.0"><defs><clipPath id="clip-0"><path d="M 0 0 L 187 0 L 187 187 L 0 187 Z M 0 0 " clip-rule="nonzero"/></clipPath></defs><g clip-path="url(#clip-0)"><path fill="rgb(3.529358%, 29.019165%, 43.139648%)" d="M 93.75 0 C 41.980469 0 0 41.980469 0 93.75 C 0 145.519531 41.980469 187.5 93.75 187.5 C 145.519531 187.5 187.5 145.519531 187.5 93.75 C 187.5 41.980469 145.519531 0 93.75 0 Z M 93.75 0 " fill-opacity="1" fill-rule="nonzero"/></g><path fill="rgb(94.898987%, 96.859741%, 98.039246%)" d="M 122.808594 105.765625 C 121.109375 104.972656 118.804688 104.59375 115.96875 104.59375 L 113.589844 104.59375 L 113.589844 61.78125 C 113.589844 55.359375 110.792969 52.144531 105.160156 52.144531 C 103.421875 52.144531 101.949219 52.714844 100.703125 53.882812 C 99.457031 55.054688 97.90625 56.90625 95.980469 59.515625 L 66.65625 98.777344 C 65.863281 99.832031 65.144531 100.742188 64.617188 101.496094 C 64.050781 102.253906 63.519531 103.007812 63.027344 103.800781 C 62.5 104.59375 62.121094 105.351562 61.859375 106.070312 C 61.59375 106.785156 61.480469 107.503906 61.480469 108.183594 C 61.480469 110.90625 62.347656 113.058594 64.125 114.644531 C 65.863281 116.234375 68.507812 117.027344 72.023438 117.027344 L 99.796875 117.027344 L 99.796875 127.304688 C 99.796875 130.0625 100.4375 132.179688 101.722656 133.578125 C 103.007812 134.976562 104.671875 135.695312 106.75 135.695312 C 108.863281 135.695312 110.527344 135.011719 111.773438 133.617188 C 113.019531 132.21875 113.664062 130.101562 113.664062 127.265625 L 113.664062 116.988281 L 117.027344 116.988281 C 119.824219 116.988281 121.9375 116.496094 123.335938 115.515625 C 124.734375 114.53125 125.453125 112.984375 125.453125 110.828125 C 125.378906 108.261719 124.507812 106.558594 122.808594 105.765625 M 99.757812 104.59375 L 75.953125 104.59375 L 99.757812 72.4375 Z M 99.757812 104.59375 " fill-opacity="1" fill-rule="nonzero"/></svg>