<?xml version="1.0" encoding="UTF-8"?><svg xmlns="http://www.w3.org/2000/svg" xmlns:xlink="http://www.w3.org/1999/xlink" contentScriptType="text/ecmascript" width="187.5" zoomAndPan="magnify" contentStyleType="text/css" viewBox="0 0 187.5 187.499995" height="187.499995" preserveAspectRatio="xMidYMid meet" version="1.0"><defs><clipPath id="clip-0"><path d="M 0 0 L 187 0 L 187 187 L 0 187 Z M 0 0 " clip-rule="nonzero"/></clipPath></defs><g clip-path="url(#clip-0)"><path fill="rgb(3.529358%, 29.019165%, 43.139648%)" d="M 93.75 0 C 41.980469 0 0 41.980469 0 93.75 C 0 145.519531 41.980469 187.5 93.75 187.5 C 145.519531 187.5 187.5 145.519531 187.5 93.75 C 187.5 41.980469 145.519531 0 93.75 0 Z M 93.75 0 " fill-opacity="1" fill-rule="nonzero"/></g><path fill="rgb(94.898987%, 96.859741%, 98.039246%)" d="M 121.109375 96.433594 C 119.785156 93.222656 117.972656 90.460938 115.628906 88.121094 C 113.285156 85.777344 110.601562 83.925781 107.503906 82.601562 C 104.40625 81.28125 101.117188 80.601562 97.566406 80.601562 C 93.144531 80.601562 88.308594 82 83.054688 84.792969 L 86.191406 66.84375 L 112.492188 66.84375 C 115.214844 66.84375 117.292969 66.242188 118.691406 65.070312 C 120.085938 63.898438 120.804688 62.347656 120.804688 60.421875 C 120.804688 56.039062 117.933594 53.847656 112.152344 53.847656 L 82.941406 53.847656 C 79.769531 53.847656 77.464844 54.566406 76.066406 56 C 74.667969 57.4375 73.683594 59.742188 73.195312 62.914062 L 68.546875 89.441406 C 68.128906 91.785156 67.941406 93.03125 67.941406 93.222656 C 67.941406 94.882812 68.660156 96.355469 70.058594 97.679688 C 71.457031 99.003906 73.082031 99.644531 74.855469 99.644531 C 76.519531 99.644531 78.636719 98.664062 81.203125 96.734375 C 83.773438 94.808594 85.738281 93.449219 87.097656 92.652344 C 88.460938 91.859375 90.726562 91.484375 93.902344 91.484375 C 96.46875 91.484375 98.8125 92.085938 100.929688 93.335938 C 103.046875 94.582031 104.707031 96.433594 105.957031 98.964844 C 107.203125 101.457031 107.84375 104.480469 107.84375 108.035156 C 107.84375 111.320312 107.277344 114.269531 106.105469 116.839844 C 104.933594 119.40625 103.308594 121.449219 101.15625 122.921875 C 99.003906 124.394531 96.507812 125.152344 93.675781 125.152344 C 90.574219 125.152344 87.78125 124.246094 85.246094 122.394531 C 82.753906 120.578125 80.75 118.007812 79.277344 114.722656 C 77.765625 111.132812 75.460938 109.355469 72.363281 109.355469 C 70.546875 109.355469 69.039062 110 67.867188 111.285156 C 66.65625 112.566406 66.050781 113.929688 66.050781 115.363281 C 66.050781 117.746094 66.921875 120.464844 68.621094 123.640625 C 70.320312 126.8125 73.269531 129.574219 77.351562 132.027344 C 81.46875 134.445312 86.835938 135.695312 93.449219 135.695312 C 99.34375 135.695312 104.558594 134.410156 109.089844 131.800781 C 113.625 129.230469 117.066406 125.71875 119.484375 121.335938 C 121.863281 116.953125 123.074219 112.078125 123.074219 106.710938 C 123.109375 103.082031 122.46875 99.644531 121.109375 96.433594 " fill-opacity="1" fill-rule="nonzero"/></svg>