<?xml version="1.0" encoding="UTF-8"?><svg xmlns="http://www.w3.org/2000/svg" xmlns:xlink="http://www.w3.org/1999/xlink" contentScriptType="text/ecmascript" width="187.5" zoomAndPan="magnify" contentStyleType="text/css" viewBox="0 0 187.5 187.499995" height="187.499995" preserveAspectRatio="xMidYMid meet" version="1.0"><defs><clipPath id="clip-0"><path d="M 5.851562 6.144531 L 181.351562 6.144531 L 181.351562 181.644531 L 5.851562 181.644531 Z M 5.851562 6.144531 " clip-rule="nonzero"/></clipPath><clipPath id="clip-1"><path d="M 100 47.480469 L 163 47.480469 L 163 139 L 100 139 Z M 100 47.480469 " clip-rule="nonzero"/></clipPath><clipPath id="clip-2"><path d="M 100 47.480469 L 164 47.480469 L 164 139.730469 L 100 139.730469 Z M 100 47.480469 " clip-rule="nonzero"/></clipPath></defs><path fill="rgb(85.099792%, 89.408875%, 80.778503%)" d="M 93.664062 12.664062 C 48.929688 12.664062 12.664062 48.929688 12.664062 93.664062 C 12.664062 138.398438 48.929688 174.664062 93.664062 174.664062 C 138.398438 174.664062 174.664062 138.398438 174.664062 93.664062 C 174.664062 48.929688 138.398438 12.664062 93.664062 12.664062 Z M 93.664062 12.664062 " fill-opacity="1" fill-rule="nonzero"/><g clip-path="url(#clip-0)"><path fill="rgb(3.529358%, 29.019165%, 43.139648%)" d="M 93.601562 93.894531 L 5.851562 93.894531 C 5.851562 142.359375 45.140625 181.644531 93.601562 181.644531 C 142.066406 181.644531 181.351562 142.359375 181.351562 93.894531 C 181.351562 45.433594 142.066406 6.144531 93.601562 6.144531 Z M 93.601562 93.894531 " fill-opacity="1" fill-rule="nonzero"/></g><g clip-path="url(#clip-1)"><path fill="rgb(85.099792%, 89.408875%, 80.778503%)" d="M 157.011719 91.613281 C 150.648438 82.785156 139.609375 81.785156 139.609375 81.785156 L 139.085938 70.28125 C 142.429688 73.15625 142.265625 78.789062 142.265625 78.789062 L 142.914062 79.585938 L 155.78125 76.960938 L 158.828125 72.71875 C 159.027344 66.6875 156.730469 61.132812 151.011719 56.660156 C 145.289062 52.183594 138.84375 52.105469 138.84375 52.105469 L 138.964844 47.992188 L 129.171875 48.230469 L 125.425781 50.585938 L 124.578125 54.503906 C 120.226562 54.460938 111.726562 58.257812 108.703125 62.292969 C 105.683594 66.328125 102.015625 73.238281 105.402344 83.742188 C 108.785156 94.246094 123.691406 98.28125 123.691406 98.28125 L 124.859375 113.222656 C 118.976562 110.542969 118.722656 103.285156 118.722656 103.285156 L 108.625 103.910156 L 100.445312 108.269531 C 99.679688 110.34375 101.613281 116.457031 107.457031 124.765625 C 113.296875 133.074219 125.464844 133.355469 125.464844 133.355469 L 125.546875 138.507812 L 134.652344 138.707031 L 139.847656 134.75 L 139.890625 133.355469 C 139.890625 133.355469 151.574219 128.558594 158.058594 119.773438 C 164.546875 110.984375 163.378906 100.4375 157.011719 91.613281 Z M 124.546875 78.996094 C 119.230469 75.953125 124.878906 68.226562 124.878906 68.226562 Z M 135.078125 114.316406 L 134.75 102.695312 C 134.75 102.695312 142.308594 104.824219 142.34375 108.0625 C 142.34375 108.0625 142.539062 113.003906 135.078125 114.316406 Z M 135.078125 114.316406 " fill-opacity="1" fill-rule="nonzero"/></g><path fill="rgb(3.529358%, 29.019165%, 43.139648%)" d="M 125.363281 67.769531 C 125.316406 67.351562 124.898438 67.230469 124.625 67.386719 C 120.910156 67.597656 116.453125 70.207031 115.929688 74.140625 C 115.296875 78.914062 119.40625 81.996094 123.425781 83.550781 C 124.113281 83.816406 124.40625 82.71875 123.730469 82.457031 C 122.230469 81.875 120.734375 81.078125 119.53125 80.027344 C 119.949219 79.84375 120.328125 79.539062 120.707031 79.304688 C 121.300781 78.941406 121.886719 78.582031 122.460938 78.1875 C 122.570312 78.320312 122.703125 78.457031 122.847656 78.589844 C 122.433594 78.839844 122.039062 79.113281 121.652344 79.398438 C 121.296875 79.664062 120.757812 79.945312 120.570312 80.355469 C 120.519531 80.480469 120.601562 80.628906 120.75 80.597656 C 121.199219 80.5 121.578125 80.070312 121.933594 79.800781 C 122.324219 79.503906 122.726562 79.226562 123.144531 78.972656 C 123.1875 78.945312 123.210938 78.914062 123.226562 78.882812 C 123.53125 79.078125 123.855469 79.203125 124.164062 79.167969 C 124.214844 80.761719 124.3125 82.339844 124.507812 83.859375 C 124.523438 84.015625 124.765625 84.082031 124.804688 83.902344 C 125.863281 78.859375 125.925781 72.878906 125.363281 67.769531 Z M 117.636719 72.453125 C 119.761719 71.421875 121.878906 70.101562 123.894531 68.878906 C 123.621094 69.1875 123.386719 69.542969 123.171875 69.921875 C 121.136719 71.035156 118.796875 72.210938 117.117188 73.816406 C 117.226562 73.320312 117.402344 72.863281 117.636719 72.453125 Z M 117.726562 77.820312 C 117.574219 77.527344 117.4375 77.222656 117.328125 76.902344 C 118.890625 76.386719 120.34375 75.304688 121.777344 74.4375 C 121.761719 74.550781 121.746094 74.667969 121.734375 74.777344 C 121.71875 74.914062 121.707031 75.054688 121.699219 75.199219 C 120.34375 75.933594 118.824219 76.699219 117.742188 77.789062 C 117.734375 77.796875 117.734375 77.808594 117.726562 77.820312 Z M 118.453125 78.914062 C 118.210938 78.613281 117.992188 78.292969 117.800781 77.953125 C 117.816406 77.957031 117.835938 77.960938 117.855469 77.953125 C 119.214844 77.410156 120.433594 76.425781 121.691406 75.652344 C 121.695312 75.949219 121.71875 76.246094 121.769531 76.539062 C 121.203125 76.925781 120.632812 77.296875 120.058594 77.664062 C 119.527344 78.007812 118.816406 78.332031 118.464844 78.867188 C 118.457031 78.882812 118.457031 78.898438 118.453125 78.914062 Z M 120.628906 78.785156 C 120.15625 79.058594 119.574219 79.308594 119.195312 79.71875 C 118.96875 79.5 118.75 79.273438 118.550781 79.035156 C 118.570312 79.039062 118.589844 79.042969 118.609375 79.039062 C 119.160156 78.902344 119.636719 78.460938 120.09375 78.148438 C 120.683594 77.746094 121.273438 77.347656 121.851562 76.933594 C 121.933594 77.25 122.050781 77.546875 122.207031 77.820312 C 121.691406 78.15625 121.160156 78.472656 120.628906 78.785156 Z M 121.859375 73.886719 C 120.316406 74.695312 118.589844 75.507812 117.242188 76.589844 C 117.160156 76.304688 117.09375 76.011719 117.054688 75.703125 C 117.066406 75.703125 117.070312 75.707031 117.082031 75.703125 C 118.054688 75.355469 118.929688 74.542969 119.773438 73.945312 C 120.582031 73.371094 121.402344 72.816406 122.222656 72.257812 C 122.066406 72.816406 121.949219 73.367188 121.859375 73.886719 Z M 122.339844 71.878906 C 121.382812 72.414062 120.449219 72.96875 119.53125 73.550781 C 118.691406 74.082031 117.644531 74.644531 117.019531 75.429688 C 117 75.179688 116.992188 74.925781 117.003906 74.660156 C 117.015625 74.421875 117.042969 74.195312 117.082031 73.972656 C 117.113281 74.03125 117.175781 74.074219 117.242188 74.046875 C 119.230469 73.132812 121.097656 71.671875 122.914062 70.40625 C 122.6875 70.875 122.496094 71.375 122.339844 71.878906 Z M 124.128906 77.921875 C 123.890625 77.8125 123.636719 77.703125 123.40625 77.457031 C 122.53125 76.554688 122.703125 74.820312 122.804688 73.671875 C 122.941406 72.121094 123.480469 70.652344 124.320312 69.363281 C 124.203125 72.152344 124.085938 75.058594 124.128906 77.921875 Z M 124.359375 68.410156 C 124.300781 68.460938 124.246094 68.515625 124.191406 68.566406 C 124.164062 68.511719 124.105469 68.472656 124.039062 68.496094 C 122.167969 69.15625 120.230469 70.195312 118.496094 71.34375 C 120.003906 69.847656 122.382812 69.054688 124.359375 68.371094 C 124.359375 68.386719 124.359375 68.398438 124.359375 68.410156 Z M 124.359375 68.410156 " fill-opacity="1" fill-rule="nonzero"/><path fill="rgb(3.529358%, 29.019165%, 43.139648%)" d="M 144.652344 110.972656 C 144.101562 106.859375 139.472656 101.816406 134.976562 102.335938 C 134.957031 102.230469 134.945312 102.121094 134.921875 102.015625 C 134.859375 101.710938 134.367188 101.710938 134.304688 102.015625 C 133.59375 105.347656 134.09375 109.097656 134.15625 112.488281 C 134.199219 114.65625 133.523438 118.300781 134.597656 120.257812 C 134.609375 120.28125 134.628906 120.289062 134.648438 120.304688 C 134.796875 120.546875 135.070312 120.714844 135.46875 120.648438 C 140.679688 119.792969 145.441406 116.84375 144.652344 110.972656 Z M 135.132812 112.488281 C 135.109375 109.367188 135.539062 105.996094 135.066406 102.875 C 136.789062 103.867188 138.671875 104.332031 140.28125 105.636719 C 141.070312 106.277344 141.722656 107.042969 142.238281 107.894531 C 142.1875 107.917969 142.136719 107.957031 142.125 108.015625 C 141.777344 109.5625 141.300781 110.832031 140.074219 111.914062 C 138.667969 113.148438 136.863281 113.414062 135.230469 114.160156 C 135.175781 113.558594 135.136719 112.988281 135.132812 112.488281 Z M 135.351562 119.132812 C 135.566406 117.765625 135.40625 116.089844 135.269531 114.574219 C 135.402344 114.589844 135.542969 114.59375 135.679688 114.59375 C 135.648438 114.644531 135.632812 114.707031 135.667969 114.777344 C 135.78125 115.007812 135.890625 115.234375 136.003906 115.464844 C 136.171875 115.792969 136.273438 116.160156 136.5 116.457031 C 136.585938 116.5625 136.746094 116.5 136.765625 116.378906 C 136.847656 115.75 136.414062 115.046875 136.019531 114.585938 C 136.222656 114.574219 136.429688 114.550781 136.640625 114.515625 C 136.707031 114.929688 136.84375 115.339844 136.980469 115.726562 C 137.164062 116.261719 137.386719 116.917969 137.871094 117.253906 C 137.992188 117.339844 138.183594 117.285156 138.171875 117.113281 C 138.136719 116.601562 137.839844 116.125 137.625 115.660156 C 137.445312 115.257812 137.308594 114.824219 137.128906 114.417969 C 137.367188 114.359375 137.605469 114.292969 137.847656 114.207031 C 137.960938 114.703125 138.214844 115.183594 138.410156 115.636719 C 138.648438 116.1875 138.929688 116.785156 139.46875 117.097656 C 139.539062 117.136719 139.65625 117.074219 139.65625 116.992188 C 139.671875 116.402344 139.355469 115.847656 139.089844 115.332031 C 138.863281 114.898438 138.683594 114.40625 138.40625 113.992188 C 138.589844 113.914062 138.769531 113.828125 138.949219 113.738281 C 138.996094 113.835938 139.082031 113.933594 139.140625 114.019531 C 139.332031 114.3125 139.523438 114.601562 139.730469 114.886719 C 140.152344 115.476562 140.519531 116.230469 141.117188 116.65625 C 141.242188 116.746094 141.378906 116.605469 141.363281 116.480469 C 141.273438 115.882812 140.8125 115.378906 140.472656 114.898438 C 140.132812 114.414062 139.78125 113.941406 139.398438 113.492188 C 139.636719 113.351562 139.867188 113.199219 140.089844 113.035156 C 140.308594 113.523438 140.628906 113.972656 140.949219 114.394531 C 141.328125 114.894531 141.777344 115.613281 142.394531 115.859375 C 140.839844 117.832031 138.050781 118.972656 135.351562 119.132812 Z M 142.660156 115.5 C 142.464844 115.066406 142.058594 114.707031 141.765625 114.347656 C 141.335938 113.824219 140.964844 113.21875 140.515625 112.699219 C 140.703125 112.542969 140.882812 112.378906 141.046875 112.210938 C 141.253906 112.492188 141.484375 112.765625 141.707031 113.03125 C 142.066406 113.464844 142.4375 114.132812 142.980469 114.351562 C 143.066406 114.382812 143.160156 114.335938 143.160156 114.238281 C 143.152344 113.746094 142.769531 113.394531 142.46875 113.039062 C 142.125 112.632812 141.757812 112.230469 141.371094 111.859375 C 141.566406 111.632812 141.742188 111.390625 141.894531 111.144531 C 142.070312 111.351562 142.238281 111.5625 142.410156 111.765625 C 142.617188 112.011719 142.832031 112.347656 143.171875 112.40625 C 143.253906 112.421875 143.339844 112.34375 143.328125 112.257812 C 143.277344 111.9375 142.980469 111.699219 142.769531 111.464844 C 142.558594 111.222656 142.335938 110.996094 142.105469 110.773438 C 142.492188 110.019531 142.664062 109.203125 142.507812 108.371094 C 142.878906 109.066406 143.171875 109.800781 143.378906 110.5625 C 143.914062 112.519531 143.554688 114.175781 142.660156 115.5 Z M 142.660156 115.5 " fill-opacity="1" fill-rule="nonzero"/><g clip-path="url(#clip-2)"><path fill="rgb(3.529358%, 29.019165%, 43.139648%)" d="M 162.976562 105.726562 C 162.882812 103.152344 162.347656 100.53125 161.332031 97.917969 C 158.9375 91.757812 153.65625 85.953125 147.296875 83.203125 C 147.320312 83.097656 147.230469 82.976562 147.109375 83.035156 C 147.082031 83.050781 147.054688 83.070312 147.027344 83.085938 C 144.835938 82.175781 142.523438 81.625 140.15625 81.546875 C 140.105469 81.546875 140.0625 81.558594 140.019531 81.578125 C 139.941406 81.527344 139.839844 81.507812 139.730469 81.546875 C 139.9375 80.273438 139.820312 78.917969 139.75 77.625 C 139.773438 77.605469 139.796875 77.585938 139.820312 77.566406 C 139.957031 77.449219 139.871094 77.242188 139.730469 77.195312 C 139.730469 77.1875 139.730469 77.179688 139.726562 77.171875 C 139.714844 76.839844 139.699219 76.507812 139.6875 76.175781 C 139.75 76.089844 139.734375 75.980469 139.675781 75.902344 C 139.660156 75.453125 139.640625 75.003906 139.621094 74.554688 C 139.640625 74.535156 139.660156 74.515625 139.679688 74.496094 C 139.777344 74.394531 139.710938 74.257812 139.605469 74.203125 C 139.570312 73.304688 139.527344 72.410156 139.472656 71.515625 C 141.09375 73.515625 141.90625 76.042969 141.816406 79.140625 C 141.804688 79.566406 142.179688 79.742188 142.511719 79.6875 C 142.554688 79.820312 142.660156 79.941406 142.839844 79.9375 C 146.933594 79.871094 151.957031 78.8125 155.703125 77.152344 C 155.777344 77.117188 155.800781 77.035156 155.78125 76.960938 C 156.085938 77.144531 156.554688 77.023438 156.546875 76.566406 C 156.546875 76.46875 156.535156 76.375 156.535156 76.277344 C 157.097656 75.59375 157.644531 74.886719 158.179688 74.1875 C 158.78125 73.398438 159.554688 72.625 159.925781 71.703125 C 160.015625 71.472656 159.691406 71.367188 159.542969 71.488281 C 159.457031 71.558594 159.371094 71.632812 159.292969 71.710938 C 160.179688 66.96875 157.144531 61.667969 154.042969 58.382812 C 150.527344 54.660156 144.433594 51.226562 139.078125 51.878906 C 139.148438 50.585938 139.28125 49.242188 139.109375 47.964844 C 139.105469 47.917969 139.085938 47.886719 139.0625 47.859375 C 139.078125 47.851562 139.097656 47.839844 139.117188 47.828125 C 139.273438 47.742188 139.179688 47.488281 139.007812 47.566406 C 138.800781 47.660156 138.59375 47.753906 138.386719 47.851562 C 138.367188 47.835938 138.351562 47.820312 138.328125 47.8125 C 137.042969 47.617188 135.632812 47.808594 134.332031 47.828125 C 132.691406 47.851562 131.027344 47.855469 129.40625 48.109375 C 129.382812 48.117188 129.363281 48.125 129.34375 48.132812 C 129.34375 48.125 129.34375 48.117188 129.34375 48.105469 C 129.160156 47.542969 127.636719 48.703125 127.367188 48.863281 C 126.941406 49.109375 126.511719 49.339844 126.085938 49.582031 C 125.921875 49.675781 125.761719 49.769531 125.597656 49.859375 C 125.53125 49.894531 125.46875 49.925781 125.40625 49.960938 C 125.371094 49.984375 125.34375 50.007812 125.328125 50.027344 L 125.296875 50.042969 C 125.132812 50.085938 125.101562 50.246094 125.164062 50.355469 C 125.152344 50.359375 125.144531 50.363281 125.132812 50.363281 C 125.132812 50.359375 125.132812 50.355469 125.128906 50.351562 C 125.113281 50.335938 125.082031 50.335938 125.066406 50.34375 C 125.035156 50.367188 125.015625 50.402344 124.984375 50.421875 C 124.773438 50.5 124.550781 50.5625 124.355469 50.671875 C 124.234375 50.746094 124.257812 50.945312 124.394531 50.976562 C 124.4375 50.988281 124.480469 50.988281 124.523438 50.996094 C 124.324219 51.402344 124.253906 51.878906 124.199219 52.359375 C 124.144531 52.832031 124.035156 53.550781 124.074219 54.195312 C 112.644531 55.429688 103.898438 63.578125 103.125 75.144531 C 102.273438 88.027344 112.328125 95.824219 123.558594 98.734375 C 123.339844 101.851562 124.09375 105.25 124.167969 108.375 C 124.203125 109.703125 124.191406 111.035156 124.183594 112.367188 C 123.035156 111.609375 122.066406 110.9375 121.183594 109.792969 C 121.144531 109.640625 121.054688 109.503906 120.914062 109.417969 C 119.839844 107.855469 119.402344 106.125 119.160156 104.3125 C 119.207031 104.265625 119.253906 104.21875 119.296875 104.171875 C 119.382812 104.074219 119.257812 103.894531 119.136719 103.960938 C 119.128906 103.960938 119.121094 103.964844 119.117188 103.96875 C 119.089844 103.757812 119.066406 103.546875 119.042969 103.332031 C 119.027344 103.167969 118.761719 103.085938 118.722656 103.285156 C 118.664062 103.609375 118.640625 103.933594 118.636719 104.261719 C 117.992188 104.679688 117.417969 105.183594 116.8125 105.660156 C 116.265625 106.089844 115.707031 106.503906 115.160156 106.933594 C 115.097656 106.65625 115.035156 106.378906 114.972656 106.097656 C 115.585938 105.585938 116.230469 105.121094 116.894531 104.679688 C 117.402344 104.339844 118.132812 104.03125 118.527344 103.5625 C 118.71875 103.332031 118.46875 102.785156 118.160156 103 C 118.109375 103.035156 118.054688 103.070312 118.003906 103.105469 C 116.894531 102.597656 114.34375 103.230469 113.339844 103.316406 C 111.953125 103.433594 109.882812 103.253906 108.625 103.910156 C 108.609375 103.917969 108.601562 103.941406 108.621094 103.957031 C 109.519531 104.691406 111.890625 104.128906 112.945312 104.058594 C 114.125 103.984375 115.300781 103.914062 116.480469 103.875 C 116.597656 103.871094 116.714844 103.878906 116.832031 103.882812 C 116.109375 104.363281 115.394531 104.859375 114.78125 105.460938 C 114.574219 105.234375 114.117188 105.394531 114.085938 105.746094 C 114.074219 105.839844 114.078125 105.929688 114.070312 106.023438 C 114.015625 105.949219 113.941406 105.886719 113.835938 105.875 C 111.847656 105.6875 109.675781 106.480469 107.710938 106.828125 C 105.988281 107.136719 104.253906 107.394531 102.523438 107.644531 C 103.378906 107.246094 104.230469 106.84375 105.082031 106.445312 C 106.203125 105.917969 107.558594 105.390625 108.417969 104.476562 C 108.679688 104.195312 108.347656 103.765625 108.003906 103.949219 C 106.882812 104.542969 105.828125 105.222656 104.675781 105.769531 C 103.265625 106.4375 101.792969 107.042969 100.511719 107.933594 C 100.507812 107.9375 100.503906 107.941406 100.5 107.945312 C 100.085938 108.042969 100.191406 108.75 100.632812 108.722656 C 102.804688 108.585938 104.933594 108.3125 107.082031 107.984375 C 109.277344 107.648438 112.050781 107.554688 113.992188 106.433594 C 114.023438 106.417969 114.03125 106.386719 114.054688 106.363281 C 113.734375 112.960938 118.382812 118.78125 124.484375 120.964844 C 125.007812 121.152344 125.324219 120.679688 125.265625 120.25 C 125.285156 120.207031 125.320312 120.179688 125.332031 120.121094 C 125.804688 116.25 125.707031 112.269531 125.605469 108.375 C 125.53125 105.5 125.738281 101.464844 124.300781 98.75 C 124.695312 98.511719 124.742188 97.8125 124.167969 97.65625 C 113.351562 94.753906 104.886719 88.488281 104.394531 76.496094 C 103.910156 64.714844 113.433594 56.902344 124.1875 54.84375 C 124.261719 55.078125 124.375 55.28125 124.554688 55.425781 C 124.796875 55.625 125.082031 55.585938 125.269531 55.335938 C 125.746094 54.699219 125.433594 53.445312 125.476562 52.667969 C 125.507812 52.144531 125.554688 51.613281 125.453125 51.121094 C 126.507812 51.164062 127.625 50.980469 128.648438 50.988281 C 130.195312 51 131.789062 51.324219 133.316406 51.21875 C 133.40625 51.210938 133.472656 51.171875 133.53125 51.128906 C 133.472656 51.394531 133.453125 51.664062 133.433594 51.925781 C 133.351562 52.007812 133.257812 52.085938 133.179688 52.167969 C 133.097656 52.253906 133.191406 52.390625 133.300781 52.339844 C 133.335938 52.320312 133.371094 52.300781 133.40625 52.28125 C 133.359375 52.933594 133.289062 53.621094 133.378906 54.265625 C 133.394531 54.378906 133.453125 54.460938 133.523438 54.53125 C 133.117188 54.496094 133.027344 55.171875 133.433594 55.25 C 145.472656 57.589844 154.339844 63.808594 155.539062 76.566406 C 155.546875 76.667969 155.582031 76.75 155.632812 76.820312 C 155.621094 76.816406 155.617188 76.808594 155.609375 76.8125 C 153.785156 77.007812 151.992188 77.496094 150.191406 77.828125 C 147.796875 78.269531 145.335938 78.5 142.992188 79.152344 C 142.992188 79.148438 142.996094 79.144531 142.996094 79.140625 C 143.023438 75.386719 141.714844 71.679688 138.964844 69.523438 C 138.957031 69.398438 138.828125 69.285156 138.691406 69.328125 C 138.613281 69.269531 138.535156 69.207031 138.449219 69.148438 C 138.507812 69.035156 138.414062 68.871094 138.25 68.90625 C 138.203125 68.914062 138.160156 68.925781 138.113281 68.9375 C 137.101562 68.324219 135.925781 67.902344 134.585938 67.730469 C 134.566406 67.640625 134.554688 67.546875 134.539062 67.457031 C 134.449219 67.011719 133.859375 67.179688 133.808594 67.554688 C 133.039062 73.578125 133.5625 80.382812 134.058594 86.4375 C 134.078125 86.6875 134.222656 86.84375 134.394531 86.917969 C 134.460938 86.976562 134.546875 87.023438 134.660156 87.046875 C 145.363281 89.453125 154.808594 96.253906 158.117188 106.949219 C 162.785156 122.027344 147.167969 131.085938 134.5625 132.890625 C 134.019531 132.96875 133.804688 133.46875 133.851562 133.949219 C 133.726562 134.546875 133.710938 135.117188 133.703125 135.765625 C 133.6875 136.59375 133.628906 137.457031 133.695312 138.289062 C 132.71875 137.640625 131.261719 137.789062 130.121094 137.714844 C 128.929688 137.636719 127.449219 137.496094 126.152344 137.714844 C 126.253906 137.417969 126.210938 137.027344 126.214844 136.746094 C 126.226562 136.195312 126.207031 135.648438 126.179688 135.101562 C 126.148438 134.441406 126.300781 133.425781 125.84375 132.894531 C 125.695312 132.714844 125.355469 132.714844 125.203125 132.894531 C 125.199219 132.894531 125.199219 132.898438 125.199219 132.898438 C 125.097656 132.714844 124.921875 132.566406 124.660156 132.542969 C 117.6875 131.976562 111.792969 129.347656 107.472656 123.796875 C 105.597656 121.386719 104.253906 118.546875 103.105469 115.742188 C 102.15625 113.40625 101.800781 110.742188 100.261719 108.71875 C 100.230469 108.675781 100.144531 108.667969 100.136719 108.734375 C 99.363281 114.164062 103.738281 121.453125 107 125.578125 C 111.308594 131.035156 117.894531 133.375 124.660156 133.878906 C 124.746094 133.886719 124.820312 133.871094 124.890625 133.851562 C 124.855469 134.28125 124.882812 134.742188 124.867188 135.101562 C 124.839844 135.648438 124.820312 136.195312 124.832031 136.746094 C 124.839844 137.097656 124.757812 137.621094 124.984375 137.914062 C 125.019531 137.960938 125.058594 137.980469 125.097656 138.015625 C 124.980469 138.0625 124.863281 138.101562 124.753906 138.160156 C 124.558594 138.265625 124.632812 138.519531 124.8125 138.585938 C 126.203125 139.121094 127.984375 138.871094 129.472656 138.988281 C 130.886719 139.097656 132.628906 139.75 133.933594 139.109375 C 133.949219 139.101562 133.945312 139.082031 133.957031 139.074219 C 134.324219 139.390625 134.972656 139.238281 135.078125 138.613281 C 136.578125 137.78125 137.824219 136.445312 139.296875 135.546875 C 139.792969 135.242188 139.328125 134.46875 138.828125 134.773438 C 137.582031 135.535156 136.238281 136.460938 135.136719 137.511719 C 135.132812 137.191406 135.121094 136.875 135.113281 136.554688 C 135.117188 136.574219 135.125 136.589844 135.136719 136.601562 C 135.171875 136.632812 135.164062 136.78125 135.230469 136.839844 C 135.242188 136.851562 135.261719 136.835938 135.253906 136.820312 C 135.050781 136.378906 137.652344 134.933594 139.347656 133.976562 C 139.378906 133.96875 139.410156 133.964844 139.4375 133.957031 C 139.4375 134.011719 139.4375 134.0625 139.4375 134.117188 C 139.429688 134.617188 140.222656 134.632812 140.21875 134.132812 C 140.214844 134.003906 140.214844 133.878906 140.207031 133.757812 C 147.113281 131.847656 153.3125 128.042969 156.882812 122.398438 C 160.933594 117.625 163.117188 111.984375 162.992188 106.089844 C 163.003906 106.082031 163.011719 106.070312 163.023438 106.058594 C 163.144531 105.949219 163.085938 105.777344 162.976562 105.726562 Z M 115.257812 107.355469 C 116.496094 106.816406 117.675781 105.84375 118.644531 104.859375 C 118.664062 105.128906 118.703125 105.394531 118.75 105.664062 C 118.167969 106.050781 117.601562 106.453125 117.0625 106.902344 C 116.558594 107.320312 115.875 107.792969 115.515625 108.371094 C 115.425781 108.035156 115.339844 107.699219 115.257812 107.355469 Z M 123.246094 118.265625 C 123.613281 117.953125 123.828125 117.523438 124.113281 117.140625 C 124.144531 117.09375 124.183594 117.054688 124.21875 117.007812 C 124.246094 117.847656 124.296875 118.6875 124.375 119.523438 C 119.226562 117.472656 116.960938 113.515625 115.617188 108.722656 C 116.214844 108.441406 116.699219 107.832031 117.179688 107.390625 C 117.714844 106.90625 118.253906 106.421875 118.800781 105.953125 C 118.867188 106.277344 118.957031 106.601562 119.054688 106.921875 C 119.007812 106.910156 118.953125 106.921875 118.910156 106.960938 C 118.539062 107.289062 118.152344 107.601562 117.765625 107.902344 C 117.4375 108.160156 117.023438 108.378906 116.792969 108.730469 C 116.746094 108.800781 116.808594 108.910156 116.894531 108.898438 C 117.367188 108.851562 117.789062 108.488281 118.152344 108.207031 C 118.523438 107.925781 118.847656 107.601562 119.164062 107.265625 C 119.351562 107.8125 119.570312 108.351562 119.808594 108.863281 C 119.898438 109.0625 120.011719 109.277344 120.128906 109.496094 C 119.859375 109.5 119.59375 109.507812 119.324219 109.558594 C 119.171875 109.589844 119.160156 109.800781 119.320312 109.828125 C 119.527344 109.867188 119.726562 109.882812 119.929688 109.890625 C 119.914062 109.96875 119.910156 110.050781 119.921875 110.132812 C 119.621094 110.339844 119.386719 110.636719 119.46875 110.96875 C 119.5 111.078125 119.65625 111.128906 119.75 111.058594 C 119.921875 110.929688 120.023438 110.71875 120.175781 110.554688 C 120.273438 110.621094 120.394531 110.664062 120.546875 110.664062 C 120.648438 110.664062 120.734375 110.644531 120.8125 110.613281 C 120.867188 110.691406 120.910156 110.769531 120.96875 110.847656 C 120.421875 111.25 119.878906 111.753906 119.492188 112.304688 C 119.363281 112.480469 119.578125 112.710938 119.761719 112.578125 C 120.300781 112.195312 120.796875 111.683594 121.203125 111.152344 C 121.277344 111.25 121.34375 111.347656 121.421875 111.441406 C 121.230469 111.675781 121.054688 111.921875 120.871094 112.160156 C 120.472656 112.679688 120.050781 113.171875 119.621094 113.671875 C 119.484375 113.832031 119.714844 114.078125 119.890625 113.976562 C 120.652344 113.539062 121.363281 112.691406 121.796875 111.863281 C 121.941406 112.015625 122.085938 112.160156 122.238281 112.296875 C 122.167969 112.40625 122.089844 112.507812 122.042969 112.574219 C 121.730469 112.988281 121.367188 113.371094 121.015625 113.753906 C 120.445312 114.386719 119.824219 114.96875 119.34375 115.675781 C 119.234375 115.835938 119.480469 116.007812 119.613281 115.875 C 120.539062 114.960938 121.476562 114.0625 122.253906 113.007812 C 122.347656 112.878906 122.453125 112.714844 122.539062 112.550781 C 122.824219 112.773438 123.128906 112.957031 123.4375 113.101562 C 122.332031 114.171875 121.546875 115.648438 120.722656 116.886719 C 120.613281 117.046875 120.859375 117.226562 120.984375 117.089844 C 122.070312 115.917969 122.875 114.523438 123.835938 113.253906 C 123.949219 113.285156 124.058594 113.320312 124.175781 113.34375 C 124.175781 113.617188 124.175781 113.894531 124.175781 114.171875 C 123.921875 114.519531 123.667969 114.867188 123.425781 115.222656 C 122.953125 115.90625 122.332031 116.59375 122.113281 117.402344 C 122.085938 117.515625 122.234375 117.601562 122.320312 117.53125 C 122.902344 117.082031 123.25 116.398438 123.648438 115.789062 C 123.828125 115.519531 124 115.242188 124.175781 114.96875 C 124.175781 115.417969 124.1875 115.863281 124.195312 116.308594 C 124.039062 116.476562 123.886719 116.648438 123.742188 116.828125 C 123.414062 117.234375 123.089844 117.652344 123.042969 118.183594 C 123.035156 118.296875 123.175781 118.320312 123.246094 118.265625 Z M 158.339844 71.398438 C 158.148438 71.550781 157.957031 71.703125 157.769531 71.859375 C 157.320312 72.238281 156.835938 72.59375 156.503906 73.082031 C 156.402344 73.226562 156.585938 73.359375 156.722656 73.308594 C 157.152344 73.140625 157.476562 72.863281 157.824219 72.574219 C 158.039062 72.398438 158.234375 72.21875 158.429688 72.03125 C 158.460938 72.222656 158.492188 72.414062 158.53125 72.601562 C 158.230469 73.007812 157.953125 73.433594 157.664062 73.816406 C 157.257812 74.355469 156.859375 74.917969 156.5 75.5 C 156.429688 74.382812 156.277344 73.304688 156.054688 72.269531 C 156.457031 72.066406 156.816406 71.71875 157.144531 71.445312 C 157.519531 71.132812 157.878906 70.800781 158.230469 70.464844 C 158.261719 70.777344 158.296875 71.085938 158.339844 71.398438 Z M 158.179688 70.007812 C 157.808594 70.351562 157.425781 70.683594 157.03125 71.003906 C 156.699219 71.269531 156.28125 71.511719 155.945312 71.8125 C 155.875 71.507812 155.796875 71.214844 155.714844 70.921875 C 156.566406 70.363281 157.335938 69.660156 158.066406 68.945312 C 158.105469 69.300781 158.144531 69.652344 158.179688 70.007812 Z M 138.691406 48.074219 C 138.667969 48.25 138.648438 48.433594 138.625 48.613281 C 137.277344 49.265625 135.839844 50.011719 134.59375 50.9375 C 134.578125 50.785156 134.546875 50.636719 134.503906 50.492188 C 135.933594 49.863281 137.300781 48.886719 138.691406 48.074219 Z M 134.597656 53.355469 C 134.597656 53.214844 134.597656 53.074219 134.597656 52.9375 C 136.035156 52.210938 137.46875 51.089844 138.503906 49.894531 C 138.484375 50.214844 138.464844 50.539062 138.457031 50.855469 C 137.152344 51.609375 135.796875 52.414062 134.597656 53.355469 Z M 138.449219 51.15625 C 138.445312 51.421875 138.441406 51.691406 138.445312 51.953125 C 138.089844 51.914062 137.835938 52.121094 137.542969 52.304688 C 137.132812 52.5625 136.71875 52.8125 136.300781 53.058594 C 135.914062 53.292969 135.523438 53.523438 135.132812 53.753906 C 134.957031 53.859375 134.679688 53.957031 134.5625 54.140625 C 134.570312 54.082031 134.566406 54.023438 134.574219 53.964844 C 135.953125 53.195312 137.3125 52.234375 138.449219 51.15625 Z M 136.371094 51.144531 C 135.785156 51.570312 135.175781 51.976562 134.597656 52.414062 C 134.597656 52.398438 134.59375 52.382812 134.597656 52.367188 C 134.597656 52.113281 134.613281 51.855469 134.617188 51.59375 C 135.996094 50.734375 137.296875 49.703125 138.605469 48.78125 C 138.574219 49.054688 138.546875 49.328125 138.523438 49.605469 C 137.777344 50.074219 137.085938 50.621094 136.371094 51.144531 Z M 133.988281 50.199219 C 133.847656 50.339844 133.746094 50.515625 133.667969 50.707031 C 133.632812 50.59375 133.566406 50.484375 133.421875 50.433594 C 131.976562 49.875 130.183594 49.96875 128.648438 50.003906 C 127.945312 50.023438 127.152344 50.023438 126.382812 50.113281 C 126.8125 49.898438 127.234375 49.628906 127.617188 49.414062 C 127.867188 49.273438 128.949219 48.820312 129.265625 48.394531 C 129.296875 48.453125 129.363281 48.5 129.453125 48.496094 C 131.070312 48.433594 132.679688 48.371094 134.296875 48.355469 C 135.273438 48.347656 136.339844 48.449219 137.347656 48.355469 C 136.957031 48.554688 136.570312 48.761719 136.1875 48.984375 C 135.535156 49.363281 134.808594 49.714844 134.445312 50.335938 C 134.433594 50.308594 134.425781 50.28125 134.414062 50.253906 C 134.34375 50.09375 134.105469 50.089844 133.988281 50.199219 Z M 134.257812 54.628906 C 134.367188 54.578125 134.464844 54.496094 134.515625 54.378906 C 134.535156 54.445312 134.582031 54.5 134.65625 54.527344 C 134.859375 54.597656 135.03125 54.46875 135.203125 54.375 C 135.628906 54.132812 136.054688 53.890625 136.472656 53.644531 C 136.910156 53.394531 137.339844 53.140625 137.765625 52.882812 C 138.046875 52.714844 138.355469 52.574219 138.515625 52.296875 C 138.625 52.417969 138.851562 52.421875 138.976562 52.3125 C 141.15625 52.730469 143.273438 53.007812 145.367188 53.835938 C 147.964844 54.859375 150.292969 56.402344 152.367188 58.242188 C 153.449219 59.199219 154.394531 60.292969 155.214844 61.472656 C 155.199219 61.480469 155.1875 61.484375 155.171875 61.492188 C 154.777344 61.785156 154.367188 62.0625 153.949219 62.332031 C 153.566406 62.582031 153.117188 62.847656 152.886719 63.257812 C 152.84375 63.332031 152.90625 63.4375 153 63.414062 C 153.453125 63.285156 153.828125 62.953125 154.203125 62.683594 C 154.601562 62.398438 154.988281 62.105469 155.367188 61.792969 C 155.378906 61.78125 155.386719 61.769531 155.398438 61.753906 C 155.617188 62.082031 155.832031 62.410156 156.03125 62.75 C 155.59375 63.007812 155.148438 63.246094 154.707031 63.5 C 154.226562 63.769531 153.703125 64.011719 153.355469 64.445312 C 153.292969 64.523438 153.34375 64.660156 153.460938 64.632812 C 153.992188 64.488281 154.445312 64.160156 154.914062 63.882812 C 155.355469 63.621094 155.78125 63.34375 156.199219 63.046875 C 156.304688 63.230469 156.410156 63.417969 156.507812 63.601562 C 156.023438 64.097656 155.511719 64.5625 154.949219 64.972656 C 154.488281 65.304688 153.949219 65.570312 153.535156 65.953125 C 149.640625 59.558594 142.378906 55.65625 134.257812 54.628906 Z M 153.640625 66.128906 C 154.804688 65.878906 155.851562 64.757812 156.625 63.835938 C 156.753906 64.085938 156.878906 64.335938 156.996094 64.589844 C 156.609375 64.941406 156.214844 65.28125 155.816406 65.617188 C 155.292969 66.058594 154.65625 66.46875 154.25 67.019531 C 154.179688 67.109375 154.269531 67.289062 154.394531 67.222656 C 155.023438 66.902344 155.546875 66.328125 156.058594 65.855469 C 156.414062 65.527344 156.757812 65.179688 157.101562 64.835938 C 157.25 65.183594 157.378906 65.53125 157.484375 65.878906 C 157.191406 66.128906 156.894531 66.382812 156.59375 66.628906 C 156.011719 67.105469 155.351562 67.515625 154.8125 68.042969 C 154.683594 68.171875 154.863281 68.421875 155.03125 68.339844 C 155.980469 67.863281 156.835938 67.042969 157.585938 66.242188 C 157.675781 66.578125 157.757812 66.917969 157.820312 67.261719 C 157.410156 67.644531 156.988281 68.015625 156.546875 68.363281 C 156.125 68.703125 155.617188 69.015625 155.203125 69.394531 C 154.777344 68.242188 154.25 67.15625 153.640625 66.128906 Z M 155.347656 69.777344 C 155.871094 69.488281 156.347656 69.046875 156.789062 68.675781 C 157.179688 68.351562 157.546875 68.007812 157.886719 67.636719 C 157.9375 67.9375 157.980469 68.238281 158.019531 68.539062 C 157.25 69.28125 156.386719 69.921875 155.640625 70.679688 C 155.550781 70.375 155.453125 70.074219 155.347656 69.777344 Z M 137.351562 134.5625 C 136.730469 134.945312 135.304688 135.621094 135.105469 136.417969 C 135.105469 136.3125 135.101562 136.210938 135.097656 136.109375 C 135.089844 135.664062 135.089844 135.238281 135.0625 134.820312 C 135.941406 134.699219 136.8125 134.542969 137.679688 134.359375 C 137.566406 134.425781 137.457031 134.496094 137.351562 134.5625 Z M 139.238281 80.371094 C 138.417969 80.859375 137.65625 81.472656 136.890625 82.039062 C 136.378906 82.414062 135.828125 82.785156 135.355469 83.226562 C 135.367188 83.003906 135.378906 82.785156 135.386719 82.558594 C 135.921875 82.183594 136.421875 81.699219 136.910156 81.335938 C 137.691406 80.757812 138.542969 80.191406 139.207031 79.476562 C 139.210938 79.777344 139.226562 80.074219 139.238281 80.371094 Z M 135.394531 75.042969 C 135.988281 74.699219 136.53125 74.167969 137.046875 73.757812 C 137.714844 73.230469 138.367188 72.683594 138.988281 72.101562 C 138.988281 72.417969 138.996094 72.738281 139.003906 73.054688 C 138.246094 73.652344 137.449219 74.199219 136.664062 74.765625 C 136.273438 75.046875 135.804688 75.332031 135.414062 75.671875 C 135.40625 75.460938 135.402344 75.25 135.394531 75.042969 Z M 139.195312 78.980469 C 139.121094 78.929688 139.023438 78.917969 138.921875 78.984375 C 138.011719 79.589844 137.144531 80.289062 136.265625 80.9375 C 136.007812 81.128906 135.707031 81.328125 135.417969 81.546875 C 135.421875 81.335938 135.429688 81.125 135.4375 80.914062 C 136.042969 80.53125 136.609375 80.058594 137.175781 79.644531 C 137.863281 79.144531 138.53125 78.621094 139.1875 78.082031 C 139.191406 78.382812 139.191406 78.679688 139.195312 78.980469 Z M 139.183594 77.46875 C 138.367188 77.980469 137.578125 78.519531 136.785156 79.066406 C 136.355469 79.363281 135.890625 79.667969 135.453125 80.003906 C 135.457031 79.851562 135.464844 79.699219 135.464844 79.542969 C 136.199219 79.109375 136.867188 78.511719 137.53125 78 C 138.089844 77.566406 138.632812 77.113281 139.164062 76.648438 C 139.175781 76.917969 139.179688 77.195312 139.183594 77.46875 Z M 139.136719 76.046875 C 138.460938 76.511719 137.816406 77.019531 137.164062 77.511719 C 136.617188 77.925781 136.011719 78.324219 135.460938 78.773438 C 135.460938 78.460938 135.464844 78.148438 135.460938 77.835938 C 136.082031 77.546875 136.648438 77.054688 137.1875 76.664062 C 137.859375 76.175781 138.492188 75.660156 139.089844 75.089844 C 139.105469 75.410156 139.121094 75.726562 139.136719 76.046875 Z M 139.0625 74.496094 C 138.4375 75.019531 137.792969 75.515625 137.128906 75.988281 C 136.609375 76.359375 135.976562 76.695312 135.449219 77.113281 C 135.445312 76.886719 135.445312 76.664062 135.4375 76.4375 C 135.996094 76.117188 136.496094 75.625 137 75.253906 C 137.699219 74.734375 138.375 74.207031 139.023438 73.628906 C 139.03125 73.917969 139.046875 74.207031 139.0625 74.496094 Z M 138.988281 70.960938 C 138.996094 70.964844 139 70.96875 139.003906 70.972656 C 138.992188 71.195312 138.996094 71.417969 138.992188 71.640625 C 138.988281 71.644531 138.980469 71.648438 138.972656 71.652344 C 138.21875 72.214844 137.472656 72.789062 136.71875 73.355469 C 136.292969 73.675781 135.777344 74.023438 135.355469 74.425781 C 135.34375 74.125 135.324219 73.828125 135.304688 73.53125 C 135.707031 73.246094 136.089844 72.921875 136.46875 72.640625 C 137.28125 72.039062 138.121094 71.472656 138.988281 70.960938 Z M 134.847656 69.351562 C 134.777344 68.882812 134.710938 68.417969 134.625 67.960938 C 135.078125 68.164062 135.507812 68.378906 135.917969 68.605469 C 135.546875 68.75 135.230469 69 134.941406 69.269531 C 134.914062 69.292969 134.878906 69.324219 134.847656 69.351562 Z M 134.960938 70.078125 C 135.097656 69.925781 135.222656 69.777344 135.335938 69.664062 C 135.53125 69.476562 135.722656 69.28125 135.929688 69.109375 C 135.984375 69.0625 136.042969 69.027344 136.105469 68.992188 C 136.203125 68.9375 136.179688 68.792969 136.292969 68.933594 C 136.304688 68.949219 136.332031 68.9375 136.332031 68.917969 C 136.332031 68.886719 136.328125 68.863281 136.320312 68.84375 C 136.566406 68.988281 136.796875 69.140625 137.027344 69.296875 C 136.914062 69.351562 136.804688 69.40625 136.691406 69.472656 C 136.105469 69.828125 135.320312 70.3125 135.09375 70.992188 C 135.054688 71.113281 135.183594 71.238281 135.304688 71.179688 C 135.765625 70.949219 136.121094 70.511719 136.523438 70.195312 C 136.808594 69.972656 137.128906 69.777344 137.457031 69.613281 C 137.601562 69.71875 137.734375 69.832031 137.871094 69.941406 C 137.429688 70.277344 136.984375 70.605469 136.535156 70.929688 C 136.09375 71.242188 135.597656 71.539062 135.175781 71.898438 C 135.113281 71.289062 135.046875 70.679688 134.960938 70.078125 Z M 135.230469 72.53125 C 135.824219 72.210938 136.347656 71.730469 136.882812 71.328125 C 137.347656 70.980469 137.800781 70.617188 138.242188 70.242188 C 138.378906 70.363281 138.515625 70.488281 138.648438 70.613281 C 137.550781 71.1875 136.261719 71.878906 135.246094 72.742188 C 135.238281 72.671875 135.234375 72.601562 135.230469 72.53125 Z M 135.324219 83.921875 C 136.03125 83.554688 136.667969 83 137.296875 82.527344 C 137.960938 82.027344 138.664062 81.535156 139.277344 80.964844 C 139.300781 81.230469 139.316406 81.496094 139.351562 81.757812 C 138.398438 82.328125 137.515625 83.074219 136.636719 83.734375 C 136.214844 84.058594 135.722656 84.394531 135.28125 84.769531 C 135.300781 84.492188 135.308594 84.203125 135.324219 83.921875 Z M 162.007812 108.121094 C 161.824219 108.332031 161.636719 108.542969 161.457031 108.753906 C 161.078125 109.179688 160.5625 109.539062 160.324219 110.066406 C 160.273438 110.183594 160.355469 110.347656 160.503906 110.308594 C 161.085938 110.152344 161.472656 109.675781 161.859375 109.246094 C 161.894531 109.203125 161.929688 109.160156 161.964844 109.117188 L 161.964844 109.121094 C 161.941406 109.5 161.898438 109.867188 161.851562 110.226562 C 161.621094 110.460938 161.390625 110.699219 161.171875 110.941406 C 160.824219 111.324219 160.433594 111.714844 160.265625 112.207031 C 160.210938 112.367188 160.398438 112.558594 160.558594 112.460938 C 160.972656 112.210938 161.242188 111.824219 161.539062 111.453125 C 161.582031 111.394531 161.628906 111.34375 161.675781 111.289062 C 161.484375 112.246094 161.21875 113.148438 160.890625 114.011719 C 160.730469 114.210938 160.566406 114.410156 160.476562 114.648438 C 160.441406 114.730469 160.492188 114.796875 160.5625 114.828125 C 160.144531 115.796875 159.652344 116.726562 159.109375 117.628906 C 159.828125 115.351562 160.171875 112.859375 160.066406 110.148438 C 159.570312 97.636719 146.769531 87.96875 135.292969 85.886719 C 135.984375 85.449219 136.621094 84.847656 137.25 84.375 C 138.183594 83.679688 139.234375 83.074219 140.085938 82.285156 C 140.148438 82.226562 140.183594 82.15625 140.203125 82.082031 C 140.53125 82.148438 140.851562 82.230469 141.175781 82.304688 C 139.804688 83.332031 138.550781 84.503906 137.097656 85.4375 C 136.898438 85.5625 137.105469 85.878906 137.3125 85.78125 C 138.964844 84.976562 140.523438 83.789062 141.789062 82.445312 C 142.132812 82.535156 142.464844 82.636719 142.800781 82.734375 C 142.171875 83.300781 141.585938 83.917969 140.953125 84.476562 C 140.199219 85.144531 139.375 85.722656 138.652344 86.421875 C 138.5625 86.507812 138.6875 86.683594 138.800781 86.625 C 140.425781 85.832031 142.207031 84.40625 143.132812 82.828125 C 143.578125 82.964844 144.015625 83.113281 144.449219 83.269531 C 143.804688 83.71875 143.21875 84.25 142.632812 84.773438 C 141.898438 85.429688 141.054688 86.0625 140.488281 86.875 C 140.402344 87 140.535156 87.136719 140.667969 87.066406 C 141.46875 86.628906 142.085938 85.925781 142.746094 85.308594 C 143.425781 84.671875 144.140625 84.0625 144.796875 83.398438 C 145.15625 83.53125 145.507812 83.675781 145.859375 83.824219 C 145.324219 84.210938 144.8125 84.628906 144.3125 85.050781 C 143.417969 85.808594 142.425781 86.558594 141.699219 87.480469 C 141.617188 87.585938 141.742188 87.761719 141.867188 87.695312 C 142.921875 87.144531 143.785156 86.230469 144.664062 85.453125 C 145.21875 84.96875 145.785156 84.503906 146.351562 84.039062 C 146.726562 84.203125 147.09375 84.375 147.460938 84.554688 C 146.917969 85 146.378906 85.441406 145.828125 85.875 C 144.964844 86.554688 143.910156 87.230469 143.21875 88.085938 C 143.117188 88.207031 143.28125 88.371094 143.410156 88.308594 C 144.230469 87.910156 144.917969 87.214844 145.613281 86.636719 C 146.351562 86.023438 147.0625 85.371094 147.761719 84.714844 C 148.261719 84.96875 148.75 85.242188 149.230469 85.527344 C 148.527344 86.0625 147.820312 86.59375 147.113281 87.125 C 146.414062 87.652344 145.632812 88.167969 145.070312 88.84375 C 144.988281 88.945312 145.105469 89.117188 145.226562 89.054688 C 145.945312 88.699219 146.546875 88.136719 147.171875 87.644531 C 147.972656 87.015625 148.753906 86.359375 149.542969 85.710938 C 149.871094 85.910156 150.191406 86.117188 150.507812 86.332031 C 149.949219 86.757812 149.390625 87.179688 148.832031 87.609375 C 148.101562 88.175781 147.15625 88.789062 146.734375 89.632812 C 146.683594 89.734375 146.804688 89.863281 146.910156 89.8125 C 147.675781 89.449219 148.304688 88.742188 148.960938 88.207031 C 149.617188 87.671875 150.285156 87.160156 150.953125 86.636719 C 151.277344 86.863281 151.589844 87.109375 151.90625 87.351562 C 151.234375 87.90625 150.542969 88.4375 149.871094 88.996094 C 149.222656 89.539062 148.402344 90.089844 148 90.84375 C 147.953125 90.929688 148.035156 91.035156 148.128906 90.988281 C 148.886719 90.597656 149.507812 89.871094 150.152344 89.316406 C 150.828125 88.734375 151.488281 88.132812 152.140625 87.527344 C 152.523438 87.832031 152.894531 88.144531 153.257812 88.464844 C 153.222656 88.46875 153.1875 88.480469 153.15625 88.503906 C 151.960938 89.507812 150.640625 90.527344 149.636719 91.722656 C 149.542969 91.835938 149.703125 92.023438 149.832031 91.945312 C 151.164062 91.105469 152.25 89.800781 153.40625 88.746094 C 153.445312 88.710938 153.457031 88.675781 153.460938 88.644531 C 156.199219 91.101562 158.433594 94.15625 160.015625 97.773438 C 160.992188 100.007812 161.609375 102.359375 161.875 104.753906 C 161.601562 105.003906 161.328125 105.253906 161.054688 105.503906 C 160.675781 105.859375 160.242188 106.175781 159.945312 106.613281 C 159.90625 106.675781 159.957031 106.769531 160.039062 106.738281 C 160.460938 106.570312 160.777344 106.261719 161.105469 105.960938 C 161.382812 105.703125 161.644531 105.429688 161.90625 105.152344 C 161.945312 105.574219 161.96875 105.992188 161.988281 106.414062 C 161.800781 106.574219 161.609375 106.742188 161.429688 106.914062 C 161.023438 107.304688 160.210938 107.890625 160.191406 108.488281 C 160.191406 108.570312 160.277344 108.613281 160.351562 108.597656 C 160.8125 108.503906 161.113281 107.960938 161.417969 107.640625 C 161.609375 107.433594 161.808594 107.234375 162.011719 107.035156 C 162.019531 107.394531 162.015625 107.757812 162.007812 108.121094 Z M 162.007812 108.121094 " fill-opacity="1" fill-rule="nonzero"/></g><path fill="rgb(3.529358%, 29.019165%, 43.139648%)" d="M 154.414062 89.839844 C 153.253906 90.5625 152.222656 91.402344 151.300781 92.40625 C 151.117188 92.609375 151.382812 92.914062 151.589844 92.726562 C 152.585938 91.835938 153.601562 90.957031 154.632812 90.109375 C 154.785156 89.980469 154.578125 89.738281 154.414062 89.839844 Z M 154.414062 89.839844 " fill-opacity="1" fill-rule="nonzero"/><path fill="rgb(3.529358%, 29.019165%, 43.139648%)" d="M 153.746094 61.105469 C 153.574219 61.34375 153.363281 61.535156 153.113281 61.695312 C 152.949219 61.796875 152.644531 61.847656 152.566406 62.042969 C 152.542969 62.101562 152.554688 62.164062 152.613281 62.199219 C 152.832031 62.324219 153.125 62.109375 153.308594 61.996094 C 153.601562 61.808594 153.84375 61.554688 154.039062 61.273438 C 154.160156 61.09375 153.871094 60.933594 153.746094 61.105469 Z M 153.746094 61.105469 " fill-opacity="1" fill-rule="nonzero"/><path fill="rgb(3.529358%, 29.019165%, 43.139648%)" d="M 153.328125 60.011719 C 153.066406 60.269531 152.785156 60.457031 152.472656 60.644531 C 152.375 60.703125 152.421875 60.847656 152.535156 60.832031 C 152.75 60.804688 152.90625 60.765625 153.085938 60.644531 C 153.253906 60.53125 153.398438 60.386719 153.542969 60.246094 C 153.683594 60.101562 153.472656 59.871094 153.328125 60.011719 Z M 153.328125 60.011719 " fill-opacity="1" fill-rule="nonzero"/></svg>