<svg xmlns="http://www.w3.org/2000/svg" width="187.5" viewBox="0 0 187.5 187.5" height="187.5" version="1.0"><defs><clipPath id="a"><path d="M 1.308594 1.308594 L 186.558594 1.308594 L 186.558594 186.558594 L 1.308594 186.558594 Z M 1.308594 1.308594"/></clipPath></defs><g clip-path="url(#a)"><path fill="#094A6E" d="M 186.558594 93.933594 C 186.558594 145.089844 145.089844 186.558594 93.933594 186.558594 C 42.78125 186.558594 1.308594 145.089844 1.308594 93.933594 C 1.308594 42.78125 42.78125 1.308594 93.933594 1.308594 C 145.089844 1.308594 186.558594 42.78125 186.558594 93.933594"/></g><path fill="#F2F7FA" d="M 148.621094 98.878906 C 148.695312 98.785156 148.761719 98.6875 148.832031 98.59375 C 148.914062 98.484375 148.996094 98.382812 149.070312 98.269531 C 149.144531 98.15625 149.210938 98.039062 149.28125 97.925781 C 149.339844 97.824219 149.40625 97.726562 149.460938 97.621094 C 149.523438 97.503906 149.578125 97.382812 149.632812 97.261719 C 149.683594 97.152344 149.738281 97.046875 149.785156 96.9375 C 149.832031 96.820312 149.871094 96.699219 149.914062 96.582031 C 149.957031 96.460938 150.003906 96.34375 150.039062 96.222656 C 150.078125 96.101562 150.101562 95.980469 150.132812 95.863281 C 150.164062 95.738281 150.199219 95.613281 150.226562 95.484375 C 150.25 95.347656 150.269531 95.210938 150.289062 95.070312 C 150.304688 94.960938 150.324219 94.851562 150.335938 94.738281 C 150.386719 94.230469 150.386719 93.71875 150.335938 93.207031 C 150.324219 93.089844 150.304688 92.980469 150.285156 92.863281 C 150.265625 92.726562 150.25 92.59375 150.226562 92.460938 C 150.199219 92.328125 150.160156 92.199219 150.128906 92.070312 C 150.101562 91.957031 150.074219 91.839844 150.042969 91.726562 C 150.003906 91.597656 149.953125 91.476562 149.910156 91.351562 C 149.871094 91.238281 149.832031 91.125 149.785156 91.011719 C 149.734375 90.894531 149.679688 90.78125 149.625 90.667969 C 149.570312 90.554688 149.519531 90.4375 149.460938 90.328125 C 149.402344 90.214844 149.332031 90.109375 149.269531 90 C 149.203125 89.894531 149.144531 89.785156 149.070312 89.675781 C 148.992188 89.554688 148.902344 89.441406 148.8125 89.324219 C 148.746094 89.238281 148.691406 89.152344 148.621094 89.070312 C 148.449219 88.855469 148.261719 88.65625 148.066406 88.464844 C 148.054688 88.453125 148.046875 88.4375 148.03125 88.425781 L 120.632812 61.027344 C 117.613281 58.003906 112.710938 58.003906 109.691406 61.027344 C 106.667969 64.050781 106.667969 68.949219 109.691406 71.972656 L 123.953125 86.234375 L 45.238281 86.234375 C 40.960938 86.234375 37.496094 89.699219 37.496094 93.972656 C 37.496094 98.246094 40.960938 101.710938 45.238281 101.710938 L 123.953125 101.710938 L 109.765625 115.898438 C 106.742188 118.921875 106.742188 123.820312 109.765625 126.84375 C 111.277344 128.355469 113.257812 129.109375 115.238281 129.109375 C 117.21875 129.109375 119.199219 128.355469 120.710938 126.84375 L 148.109375 99.445312 C 148.117188 99.4375 148.121094 99.433594 148.125 99.425781 C 148.300781 99.25 148.464844 99.070312 148.621094 98.878906"/></svg>