<?xml version="1.0" encoding="UTF-8"?><svg xmlns="http://www.w3.org/2000/svg" xmlns:xlink="http://www.w3.org/1999/xlink" contentScriptType="text/ecmascript" width="187.5" zoomAndPan="magnify" contentStyleType="text/css" viewBox="0 0 187.5 187.499995" height="187.499995" preserveAspectRatio="xMidYMid meet" version="1.0"><defs><clipPath id="clip-0"><path d="M 101 110 L 185.476562 110 L 185.476562 154 L 101 154 Z M 101 110 " clip-rule="nonzero"/></clipPath><clipPath id="clip-1"><path d="M 101 112 L 185.476562 112 L 185.476562 154 L 101 154 Z M 101 112 " clip-rule="nonzero"/></clipPath><clipPath id="clip-2"><path d="M 1.726562 110 L 87 110 L 87 154 L 1.726562 154 Z M 1.726562 110 " clip-rule="nonzero"/></clipPath><clipPath id="clip-3"><path d="M 1.726562 111 L 44 111 L 44 154 L 1.726562 154 Z M 1.726562 111 " clip-rule="nonzero"/></clipPath><clipPath id="clip-4"><path d="M 42 107 L 147 107 L 147 162.152344 L 42 162.152344 Z M 42 107 " clip-rule="nonzero"/></clipPath><clipPath id="clip-5"><path d="M 85 120 L 104 120 L 104 162.152344 L 85 162.152344 Z M 85 120 " clip-rule="nonzero"/></clipPath><clipPath id="clip-6"><path d="M 42 109 L 95 109 L 95 162.152344 L 42 162.152344 Z M 42 109 " clip-rule="nonzero"/></clipPath><clipPath id="clip-7"><path d="M 94 109 L 147 109 L 147 162.152344 L 94 162.152344 Z M 94 109 " clip-rule="nonzero"/></clipPath><clipPath id="clip-8"><path d="M 62 109 L 95 109 L 95 162.152344 L 62 162.152344 Z M 62 109 " clip-rule="nonzero"/></clipPath><clipPath id="clip-9"><path d="M 94 109 L 127 109 L 127 162.152344 L 94 162.152344 Z M 94 109 " clip-rule="nonzero"/></clipPath></defs><path fill="rgb(23.529053%, 24.308777%, 40.779114%)" d="M 162.40625 124.386719 L 123.628906 124.386719 L 123.628906 69.042969 L 162.40625 69.042969 L 162.40625 124.386719 " fill-opacity="1" fill-rule="nonzero"/><path fill="rgb(31.759644%, 33.329773%, 56.079102%)" d="M 157.523438 53.992188 C 157.523438 53.992188 166.636719 61.898438 166.636719 75.671875 L 166.636719 124.386719 L 157.523438 124.386719 L 157.523438 53.992188 " fill-opacity="1" fill-rule="nonzero"/><path fill="rgb(94.119263%, 67.449951%, 57.249451%)" d="M 152.339844 114.742188 L 134.253906 114.742188 L 134.253906 97.152344 L 152.339844 97.152344 L 152.339844 114.742188 " fill-opacity="1" fill-rule="nonzero"/><path fill="rgb(97.24884%, 74.899292%, 65.489197%)" d="M 161.882812 66.316406 C 157.597656 51.207031 144.121094 51.289062 143.308594 51.304688 L 143.210938 51.304688 C 142.390625 51.289062 128.917969 51.207031 124.628906 66.316406 C 124.628906 66.316406 121.4375 72.894531 126.167969 91.011719 C 126.167969 91.011719 131.453125 105.105469 143.210938 106.507812 L 143.308594 106.507812 C 155.058594 105.105469 160.347656 91.011719 160.347656 91.011719 C 165.074219 72.894531 161.882812 66.316406 161.882812 66.316406 " fill-opacity="1" fill-rule="nonzero"/><path fill="rgb(97.24884%, 74.899292%, 65.489197%)" d="M 162.867188 81.121094 C 161.09375 80.824219 159.335938 82.816406 158.941406 85.5625 C 158.539062 88.308594 159.648438 90.769531 161.421875 91.058594 C 163.195312 91.347656 164.945312 89.363281 165.347656 86.617188 C 165.75 83.871094 164.632812 81.40625 162.867188 81.121094 " fill-opacity="1" fill-rule="nonzero"/><path fill="rgb(97.24884%, 74.899292%, 65.489197%)" d="M 123.644531 81.121094 C 121.878906 81.40625 120.761719 83.871094 121.164062 86.617188 C 121.566406 89.363281 123.324219 91.347656 125.089844 91.058594 C 126.863281 90.769531 127.972656 88.308594 127.570312 85.5625 C 127.167969 82.816406 125.417969 80.824219 123.644531 81.121094 " fill-opacity="1" fill-rule="nonzero"/><g clip-path="url(#clip-0)"><path fill="rgb(94.119263%, 67.449951%, 57.249451%)" d="M 183.140625 128.648438 C 182.007812 121.269531 175.789062 118.996094 175.789062 118.996094 L 152.332031 110.140625 L 134.253906 110.140625 L 110.796875 118.996094 C 110.796875 118.996094 104.574219 121.269531 103.449219 128.648438 L 101.191406 153.894531 L 185.40625 153.894531 L 183.140625 128.648438 " fill-opacity="1" fill-rule="nonzero"/></g><g clip-path="url(#clip-1)"><path fill="rgb(92.549133%, 21.179199%, 33.329773%)" d="M 157.742188 112.1875 L 175.789062 118.996094 C 175.789062 118.996094 182.007812 121.269531 183.140625 128.648438 L 185.40625 153.894531 L 101.191406 153.894531 L 103.449219 128.648438 C 104.574219 121.269531 110.796875 118.996094 110.796875 118.996094 L 129.164062 112.0625 C 129.164062 112.0625 128.882812 125.242188 143.292969 126.371094 C 143.292969 126.371094 158.679688 127.707031 157.742188 112.1875 " fill-opacity="1" fill-rule="nonzero"/></g><path fill="rgb(31.759644%, 33.329773%, 56.079102%)" d="M 134.796875 62.0625 C 134.796875 62.0625 127.652344 65.21875 127.652344 81.085938 L 127.652344 114.46875 L 119.152344 117.550781 L 119.152344 82.734375 C 119.152344 82.734375 116.976562 63.527344 129.65625 53.285156 L 134.796875 62.0625 " fill-opacity="1" fill-rule="nonzero"/><path fill="rgb(31.759644%, 33.329773%, 56.079102%)" d="M 129.65625 53.285156 C 129.65625 53.285156 142.964844 43.679688 157.523438 53.992188 C 157.523438 53.992188 163.582031 58.253906 165.085938 66.09375 C 165.085938 66.09375 167.5625 76.125 162.867188 81.121094 C 162.867188 81.121094 144.277344 77.023438 134.796875 62.0625 L 129.65625 53.285156 " fill-opacity="1" fill-rule="nonzero"/><path fill="rgb(97.24884%, 74.899292%, 65.489197%)" d="M 63.660156 79.667969 C 61.835938 79.378906 60.03125 81.382812 59.609375 84.152344 C 59.199219 86.929688 60.351562 89.410156 62.164062 89.707031 C 63.988281 89.996094 65.792969 87.992188 66.210938 85.222656 C 66.625 82.445312 65.480469 79.964844 63.660156 79.667969 " fill-opacity="1" fill-rule="nonzero"/><path fill="rgb(97.24884%, 74.899292%, 65.489197%)" d="M 24.175781 79.667969 C 22.351562 79.964844 21.210938 82.445312 21.621094 85.222656 C 22.03125 87.992188 23.839844 89.996094 25.660156 89.707031 C 27.484375 89.410156 28.625 86.929688 28.214844 84.152344 C 27.804688 81.382812 25.988281 79.378906 24.175781 79.667969 " fill-opacity="1" fill-rule="nonzero"/><path fill="rgb(94.119263%, 67.449951%, 57.249451%)" d="M 52.960938 114.742188 L 34.871094 114.742188 L 34.871094 97.152344 L 52.960938 97.152344 L 52.960938 114.742188 " fill-opacity="1" fill-rule="nonzero"/><path fill="rgb(97.24884%, 74.899292%, 65.489197%)" d="M 62.460938 66.902344 C 58.460938 53.792969 46.703125 52.640625 43.914062 52.550781 C 41.121094 52.640625 29.363281 53.792969 25.363281 66.902344 C 25.363281 66.902344 25.109375 78.777344 27.402344 94.792969 C 27.632812 96.433594 28.847656 97.851562 30.0625 98.898438 C 33.839844 102.144531 39.042969 106.019531 43.914062 106.375 C 48.789062 106.019531 53.988281 102.144531 57.765625 98.898438 C 58.988281 97.851562 60.195312 96.433594 60.433594 94.792969 C 62.722656 78.777344 62.460938 66.902344 62.460938 66.902344 " fill-opacity="1" fill-rule="nonzero"/><path fill="rgb(31.759644%, 33.329773%, 56.079102%)" d="M 61.476562 85.175781 C 61.386719 85.199219 61.3125 85.214844 61.238281 85.222656 C 60.917969 87.226562 60.761719 86.972656 59.527344 88.546875 C 58.496094 89.890625 57.1875 90.625 55.523438 90.871094 C 53.386719 91.191406 52.195312 89.667969 50.25 89.289062 C 48.378906 88.933594 46.828125 89.652344 45.003906 89.59375 C 43.585938 89.550781 42.222656 89.304688 40.808594 89.171875 C 38.246094 88.925781 36.03125 90.402344 33.542969 90.113281 C 29.980469 89.691406 29.273438 87.382812 26.375 86.4375 C 26.644531 89.046875 26.972656 91.851562 27.402344 94.792969 C 27.632812 96.433594 28.847656 97.851562 30.0625 98.898438 C 33.839844 102.144531 39.042969 106.019531 43.914062 106.375 C 48.789062 106.019531 53.988281 102.144531 57.765625 98.898438 C 58.988281 97.851562 60.195312 96.433594 60.433594 94.792969 C 60.917969 91.363281 61.292969 88.117188 61.574219 85.140625 C 61.539062 85.15625 61.507812 85.167969 61.476562 85.175781 " fill-opacity="1" fill-rule="nonzero"/><g clip-path="url(#clip-2)"><path fill="rgb(94.119263%, 67.449951%, 57.249451%)" d="M 83.757812 128.648438 C 82.625 121.269531 76.410156 118.996094 76.410156 118.996094 L 52.953125 110.140625 L 34.871094 110.140625 L 11.414062 118.996094 C 11.414062 118.996094 5.199219 121.269531 4.066406 128.648438 L 1.800781 153.894531 L 86.023438 153.894531 L 83.757812 128.648438 " fill-opacity="1" fill-rule="nonzero"/><path fill="rgb(81.959534%, 94.119263%, 98.81897%)" d="M 83.757812 128.648438 C 82.625 121.269531 76.410156 118.996094 76.410156 118.996094 L 52.953125 110.140625 L 43.914062 112.894531 L 34.871094 110.140625 L 11.414062 118.996094 C 11.414062 118.996094 5.199219 121.269531 4.066406 128.648438 L 1.800781 153.894531 L 86.023438 153.894531 L 83.757812 128.648438 " fill-opacity="1" fill-rule="nonzero"/></g><path fill="rgb(98.429871%, 79.219055%, 28.239441%)" d="M 46.285156 120.503906 L 48.347656 113.042969 L 39.480469 113.042969 L 41.539062 120.503906 L 46.285156 120.503906 " fill-opacity="1" fill-rule="nonzero"/><path fill="rgb(97.24884%, 64.309692%, 27.449036%)" d="M 46.285156 120.503906 L 41.539062 120.503906 L 36.835938 153.894531 L 50.988281 153.894531 L 46.285156 120.503906 " fill-opacity="1" fill-rule="nonzero"/><g clip-path="url(#clip-3)"><path fill="rgb(18.429565%, 28.62854%, 48.239136%)" d="M 43.871094 145.71875 L 30.808594 111.675781 L 11.414062 118.996094 C 11.414062 118.996094 5.199219 121.269531 4.066406 128.648438 L 1.800781 153.894531 L 43.871094 153.894531 L 43.871094 145.71875 " fill-opacity="1" fill-rule="nonzero"/></g><path fill="rgb(18.429565%, 28.62854%, 48.239136%)" d="M 43.960938 145.71875 L 57.015625 111.675781 L 76.410156 118.996094 C 76.410156 118.996094 82.632812 121.269531 83.765625 128.648438 L 86.023438 153.894531 L 43.960938 153.894531 L 43.960938 145.71875 " fill-opacity="1" fill-rule="nonzero"/><path fill="rgb(21.179199%, 32.548523%, 54.899597%)" d="M 43.960938 145.71875 L 43.960938 153.894531 L 28.363281 131.398438 L 31.679688 126.386719 L 18.378906 116.363281 L 30.808594 111.675781 L 43.960938 145.71875 " fill-opacity="1" fill-rule="nonzero"/><path fill="rgb(21.179199%, 32.548523%, 54.899597%)" d="M 43.960938 145.71875 L 43.960938 153.894531 L 59.5625 131.398438 L 56.238281 126.386719 L 69.539062 116.363281 L 57.105469 111.675781 L 43.960938 145.71875 " fill-opacity="1" fill-rule="nonzero"/><path fill="rgb(60.778809%, 87.449646%, 97.24884%)" d="M 34.644531 106.019531 L 43.914062 112.894531 L 36.390625 120.859375 L 26.679688 113.242188 L 34.644531 106.019531 " fill-opacity="1" fill-rule="nonzero"/><path fill="rgb(60.778809%, 87.449646%, 97.24884%)" d="M 53.183594 106.019531 L 43.914062 112.894531 L 51.433594 120.859375 L 61.148438 113.242188 L 53.183594 106.019531 " fill-opacity="1" fill-rule="nonzero"/><path fill="rgb(31.759644%, 33.329773%, 56.079102%)" d="M 64.324219 63.824219 L 63.660156 80.996094 C 62.796875 80.65625 62 81.339844 62 81.339844 L 61.417969 88.050781 L 59.527344 89.074219 L 59.527344 77.597656 L 58.691406 64.277344 C 58.257812 60.324219 52.960938 60.628906 52.960938 60.628906 C 47.789062 62.738281 33.960938 60.890625 33.960938 60.890625 C 31.070312 61.773438 30.367188 68.046875 30.367188 68.046875 L 28.296875 78.496094 L 28.296875 88.074219 L 26.375 86.4375 L 26.308594 81.761719 C 25.054688 80.714844 24.175781 80.996094 24.175781 80.996094 L 23.171875 66.316406 C 23.542969 61.082031 28.296875 55.3125 28.296875 55.3125 C 28.296875 55.3125 36.0625 48.320312 52.535156 51.394531 C 52.535156 51.394531 58.050781 52.097656 58.839844 49.988281 C 58.839844 49.988281 60.589844 52.1875 59.972656 54.207031 C 59.972656 54.207031 62.425781 54.496094 63.832031 52.550781 C 63.832031 52.550781 67.097656 59.820312 64.324219 63.824219 " fill-opacity="1" fill-rule="nonzero"/><path fill="rgb(94.119263%, 67.449951%, 57.249451%)" d="M 105.820312 113.429688 L 83.324219 113.429688 L 83.324219 91.554688 L 105.820312 91.554688 L 105.820312 113.429688 " fill-opacity="1" fill-rule="nonzero"/><path fill="rgb(97.24884%, 74.899292%, 65.489197%)" d="M 117.644531 53.933594 C 112.667969 37.640625 98.042969 36.195312 94.570312 36.082031 C 91.097656 36.195312 76.476562 37.640625 71.5 53.933594 C 71.5 53.933594 71.179688 68.707031 74.027344 88.628906 C 74.324219 90.65625 75.828125 92.429688 77.335938 93.730469 C 82.042969 97.777344 88.511719 102.582031 94.570312 103.019531 C 100.632812 102.582031 107.101562 97.777344 111.804688 93.730469 C 113.316406 92.429688 114.820312 90.65625 115.113281 88.628906 C 117.964844 68.707031 117.644531 53.933594 117.644531 53.933594 " fill-opacity="1" fill-rule="nonzero"/><path fill="rgb(97.24884%, 74.899292%, 65.489197%)" d="M 119.128906 69.808594 C 116.863281 69.449219 114.613281 71.945312 114.105469 75.390625 C 113.585938 78.835938 115.007812 81.925781 117.273438 82.289062 C 119.539062 82.660156 121.789062 80.164062 122.300781 76.71875 C 122.816406 73.273438 121.394531 70.179688 119.128906 69.808594 " fill-opacity="1" fill-rule="nonzero"/><path fill="rgb(97.24884%, 74.899292%, 65.489197%)" d="M 70.015625 69.808594 C 67.746094 70.179688 66.328125 73.273438 66.835938 76.71875 C 67.355469 80.164062 69.605469 82.660156 71.871094 82.289062 C 74.136719 81.925781 75.554688 78.835938 75.046875 75.390625 C 74.53125 71.945312 72.28125 69.449219 70.015625 69.808594 " fill-opacity="1" fill-rule="nonzero"/><g clip-path="url(#clip-4)"><path fill="rgb(94.119263%, 67.449951%, 57.249451%)" d="M 144.128906 130.722656 C 142.726562 121.550781 135 118.722656 135 118.722656 L 105.820312 107.71875 L 83.324219 107.71875 L 54.144531 118.722656 C 54.144531 118.722656 46.410156 121.550781 45.003906 130.722656 L 42.195312 162.128906 L 146.945312 162.128906 L 144.128906 130.722656 " fill-opacity="1" fill-rule="nonzero"/><path fill="rgb(81.959534%, 94.119263%, 98.81897%)" d="M 144.128906 130.722656 C 142.726562 121.550781 135 118.722656 135 118.722656 L 105.820312 107.71875 L 94.570312 111.132812 L 83.324219 107.71875 L 54.144531 118.722656 C 54.144531 118.722656 46.410156 121.550781 45.003906 130.722656 L 42.195312 162.128906 L 146.945312 162.128906 L 144.128906 130.722656 " fill-opacity="1" fill-rule="nonzero"/></g><path fill="rgb(92.549133%, 21.179199%, 33.329773%)" d="M 97.527344 120.609375 L 100.082031 111.328125 L 89.0625 111.328125 L 91.625 120.609375 L 97.527344 120.609375 " fill-opacity="1" fill-rule="nonzero"/><g clip-path="url(#clip-5)"><path fill="rgb(79.998779%, 18.03894%, 28.239441%)" d="M 97.527344 120.609375 L 91.625 120.609375 L 85.761719 162.128906 L 103.375 162.128906 L 97.527344 120.609375 " fill-opacity="1" fill-rule="nonzero"/></g><g clip-path="url(#clip-6)"><path fill="rgb(18.429565%, 28.62854%, 48.239136%)" d="M 94.515625 151.964844 L 78.273438 109.621094 L 54.144531 118.722656 C 54.144531 118.722656 46.410156 121.550781 45.003906 130.722656 L 42.195312 162.128906 L 94.515625 162.128906 L 94.515625 151.964844 " fill-opacity="1" fill-rule="nonzero"/></g><g clip-path="url(#clip-7)"><path fill="rgb(18.429565%, 28.62854%, 48.239136%)" d="M 94.628906 151.964844 L 110.871094 109.621094 L 135 118.722656 C 135 118.722656 142.726562 121.550781 144.128906 130.722656 L 146.945312 162.128906 L 94.628906 162.128906 L 94.628906 151.964844 " fill-opacity="1" fill-rule="nonzero"/></g><g clip-path="url(#clip-8)"><path fill="rgb(21.179199%, 32.548523%, 54.899597%)" d="M 94.628906 151.964844 L 94.628906 162.128906 L 75.21875 134.152344 L 79.359375 127.921875 L 62.8125 115.457031 L 78.273438 109.621094 L 94.628906 151.964844 " fill-opacity="1" fill-rule="nonzero"/></g><g clip-path="url(#clip-9)"><path fill="rgb(21.179199%, 32.548523%, 54.899597%)" d="M 94.628906 151.964844 L 94.628906 162.128906 L 114.03125 134.152344 L 109.902344 127.921875 L 126.4375 115.457031 L 110.984375 109.621094 L 94.628906 151.964844 " fill-opacity="1" fill-rule="nonzero"/></g><path fill="rgb(60.778809%, 87.449646%, 97.24884%)" d="M 83.042969 102.589844 L 94.570312 111.132812 L 85.210938 121.039062 L 73.125 111.566406 L 83.042969 102.589844 " fill-opacity="1" fill-rule="nonzero"/><path fill="rgb(60.778809%, 87.449646%, 97.24884%)" d="M 106.097656 102.589844 L 94.570312 111.132812 L 103.933594 121.039062 L 116.007812 111.566406 L 106.097656 102.589844 " fill-opacity="1" fill-rule="nonzero"/><path fill="rgb(31.759644%, 33.329773%, 56.079102%)" d="M 73.140625 78.597656 L 74.234375 78.597656 L 75.144531 66.703125 L 79.570312 53.414062 C 79.570312 53.414062 81.097656 47.644531 80.628906 45.207031 C 80.628906 45.207031 82.347656 47.324219 87.035156 47.324219 C 87.035156 47.324219 100.292969 48.296875 109.03125 46.507812 C 109.03125 46.507812 112.625 47.644531 112.929688 50.414062 L 112.234375 59.210938 L 114.8125 78.597656 L 116.347656 78.597656 L 117.078125 70.246094 C 117.078125 70.246094 118.0625 69.398438 119.128906 69.808594 L 119.957031 48.460938 C 119.957031 48.460938 118.332031 39.015625 113.996094 36.082031 C 113.996094 36.082031 91.976562 25.660156 75.144531 37.871094 C 75.144531 37.871094 69.242188 45.039062 68.773438 51.5625 L 70.015625 69.808594 C 70.015625 69.808594 71.113281 69.472656 72.675781 70.773438 L 73.140625 78.597656 " fill-opacity="1" fill-rule="nonzero"/></svg>