<?xml version="1.0" encoding="utf-8"?>
<!-- Generator: Adobe Illustrator 26.0.2, SVG Export Plug-In . SVG Version: 6.00 Build 0)  -->
<svg version="1.1" id="Layer_1" xmlns="http://www.w3.org/2000/svg" xmlns:xlink="http://www.w3.org/1999/xlink" x="0px" y="0px"
	 viewBox="0 0 480 57" style="enable-background:new 0 0 480 57;" xml:space="preserve">
<style type="text/css">
	.st0{fill:#094A6E;}
</style>
<g>
	<path class="st0" d="M47.6,44.7c-5.2,0-9.7-1.9-13.4-5.8c-3.7-3.9-5.6-8.5-5.6-13.8c0-5.9,1.7-10.7,5.2-14.3
		c3.5-3.6,7.8-5.5,12.9-5.5c4.3,0,7.9,1.1,10.9,3.2s4.4,4.4,4.4,6.8c0,0.9-0.3,1.6-0.8,2.2c-0.5,0.6-1.3,0.8-2.2,0.8
		c-0.9,0-1.7-0.4-2.5-1.1c-0.8-0.7-1.5-1.6-2.1-2.6c-0.6-1-1.4-2-2.1-3c-0.8-1-1.8-1.8-3-2.5S46.6,8.1,45,8.1
		c-2.8,0-5.2,1.2-7.1,3.7c-1.9,2.5-2.9,5.6-2.9,9.3c0,5.4,1.4,10,4.2,13.7c2.8,3.7,6.1,5.6,9.9,5.6c2.7,0,4.9-0.5,6.6-1.6V30
		c0-0.5-0.2-0.9-0.5-1.3c-0.4-0.4-0.8-0.7-1.2-0.8c-0.4-0.2-0.8-0.4-1.2-0.6c-0.4-0.2-0.5-0.5-0.5-0.7v-0.2c0-0.6,0.4-0.9,1.2-0.9
		l10.2,0.1c0.8,0,1.1,0.3,1.1,0.8v0.2c0,0.3-0.2,0.6-0.7,0.9c-0.5,0.3-1,0.6-1.5,1.1c-0.5,0.4-0.8,1-0.8,1.6v7.7
		c0,1.1-0.6,2.1-1.7,3.1c-1.4,1.2-3.3,2.1-5.5,2.8C52.5,44.3,50.1,44.7,47.6,44.7z"/>
	<path class="st0" d="M82.5,17.7c1.5,0,2.8,0.4,3.6,1.3c0.9,0.9,1.3,1.9,1.3,3.2c0,2.3-0.9,3.4-2.8,3.4c-0.8,0-1.4-0.2-1.8-0.6
		c-0.4-0.4-0.7-0.9-0.8-1.5s-0.4-1-0.8-1.5c-0.4-0.4-0.9-0.6-1.6-0.6c-1.2,0-2.1,0.6-2.8,1.9c-0.6,1.3-1,2.9-1,4.8v11.6
		c0,0.8,0.4,1.5,1.2,2.1c0.8,0.6,1.2,1.1,1.2,1.4v0.2c0,0.5-0.4,0.8-1.1,0.8h-8.4c-0.8,0-1.1-0.3-1.1-0.8v-0.2c0-0.3,0.3-0.8,1-1.4
		c0.7-0.6,1-1.3,1-2.1V25.2c0-0.8-0.4-1.5-1.2-2.1c-0.8-0.6-1.2-1.1-1.2-1.4v-0.2c0-0.4,0.3-0.8,1-1.1l5.3-2.4
		c1-0.5,1.6-0.2,1.6,0.9v4.2C76.6,19.5,78.9,17.7,82.5,17.7z"/>
	<path class="st0" d="M112.4,39.3c0.1,0.8,0.3,1.4,0.6,1.9c0.3,0.5,0.7,0.7,1,0.8c0.3,0.1,0.6,0.3,0.9,0.4c0.3,0.2,0.4,0.4,0.4,0.7
		c0,0.9-1.5,1.3-4.4,1.3c-1.4,0-2.5-0.2-3.2-0.7c-0.7-0.5-1.1-1.3-1.2-2.6c-1.4,2.3-3.9,3.5-7.5,3.5c-3,0-5.5-0.7-7.3-2.1
		c-1.9-1.4-2.8-3.4-2.8-6c0-2.6,0.9-4.5,2.8-6c1.9-1.4,4.2-2.1,7.1-2.1c2.6,0,4.7,0.6,6.3,1.8l-0.1-1.1c-0.3-3.3-0.9-5.7-1.7-7.2
		c-0.8-1.5-2.1-2.3-3.9-2.3c-1.1,0-2,0.3-2.8,1c-0.7,0.7-1.2,1.4-1.5,2.2s-0.7,1.6-1.2,2.2c-0.5,0.7-1.1,1-1.9,1
		c-0.8,0-1.4-0.2-1.9-0.7c-0.5-0.4-0.7-1.1-0.7-1.8c0-1.7,0.9-3.2,2.8-4.3c1.9-1.2,4.3-1.7,7.2-1.7c3.4,0,6.1,1,8.2,3
		c2.1,2,3.3,4.7,3.7,8.2L112.4,39.3z M100.9,42.7c1.5,0,2.7-0.5,3.6-1.6s1.3-2.4,1.3-3.8l-0.2-1.7c-0.1-1.5-0.6-2.8-1.6-3.7
		c-0.9-0.9-2.1-1.4-3.6-1.4c-1.5,0-2.7,0.5-3.7,1.4c-0.9,1-1.4,2.2-1.4,3.9c0,1.9,0.5,3.5,1.5,4.9C98,42,99.3,42.7,100.9,42.7z"/>
	<path class="st0" d="M161.3,39.6c0,0.8,0.4,1.5,1,2.2c0.6,0.6,0.9,1.1,0.9,1.5v0.2c0,0.5-0.4,0.8-1.1,0.8h-7.9
		c-0.8,0-1.1-0.3-1.1-0.8v-0.2c0-0.3,0.3-0.8,1-1.4s1-1.3,0.9-2.1l-0.5-10.2c-0.1-3.2-0.7-5.6-1.6-7c-1-1.4-2.3-2.2-4.1-2.2
		c-1.5,0-2.7,0.6-3.8,1.8c-1,1.2-1.6,2.7-1.6,4.6c0.1,0.7,0.2,1.6,0.2,2.6v10.4c0,0.8,0.3,1.5,0.9,2.1c0.6,0.6,0.9,1.1,0.9,1.4v0.2
		c0,0.5-0.4,0.8-1.1,0.8h-7.8c-0.8,0-1.2-0.3-1.2-0.8v-0.2c0-0.3,0.3-0.8,0.9-1.4c0.6-0.6,0.9-1.3,0.9-2.1V28.9
		c0-2.7-0.5-4.8-1.6-6.3c-1.1-1.5-2.4-2.3-4.1-2.3c-1.6,0-3,0.6-4,1.8c-1,1.2-1.6,2.7-1.7,4.6l0.1,13c0,0.8,0.4,1.5,1.1,2.1
		c0.7,0.6,1.1,1.1,1.1,1.4v0.2c0,0.5-0.4,0.8-1.1,0.8h-8.4c-0.8,0-1.2-0.3-1.2-0.8v-0.2c0-0.3,0.4-0.8,1.1-1.4
		c0.7-0.6,1.1-1.3,1.1-2.1V25.2c0-0.6-0.2-1.2-0.6-1.6c-0.4-0.4-0.8-0.8-1.2-1.1c-0.4-0.3-0.6-0.6-0.6-0.9v-0.2c0-0.4,0.3-0.7,1-1
		l5.5-2.5c0.6-0.3,1-0.3,1.3-0.1c0.3,0.2,0.4,0.5,0.4,1.1v3.2c0.8-1.3,1.9-2.4,3.2-3.2c1.4-0.8,2.9-1.2,4.5-1.2c2,0,3.8,0.5,5.4,1.4
		c1.6,0.9,2.9,2.3,3.8,3.9c0.7-1.7,1.8-3,3.3-3.9c1.5-0.9,3.2-1.4,5.1-1.4c2.8,0,5.1,0.9,6.9,2.8c1.8,1.9,2.9,4.9,3.2,9.1
		L161.3,39.6z"/>
	<path class="st0" d="M188,36.2c0.3-0.4,0.7-0.5,1.1-0.4c0.4,0.1,0.7,0.4,0.6,1c-0.3,1.9-1.4,3.7-3.3,5.4c-1.9,1.7-4.5,2.5-7.6,2.5
		c-3.7,0-6.7-1.3-9.2-3.8c-2.4-2.5-3.6-5.8-3.6-9.9c0-3.8,1.3-7,3.8-9.5c2.5-2.5,5.6-3.8,9.2-3.8c3.2,0,5.7,0.8,7.5,2.4
		c1.7,1.6,2.6,3.4,2.6,5.5c0,1.9-0.9,3.1-2.8,3.8l-13.1,4.8c0.7,1.9,1.7,3.3,3.1,4.4c1.4,1,3,1.6,4.9,1.6c1.6,0,3-0.4,4.2-1.1
		C186.6,38.3,187.4,37.4,188,36.2z M177.8,19.8c-1.7,0-3,0.8-4,2.4c-1,1.6-1.5,3.7-1.5,6.4c0,1.2,0.1,2.4,0.3,3.5l9-3.9
		c0.9-0.4,1.4-1.2,1.4-2.3c0-1.3-0.5-2.6-1.5-4C180.5,20.5,179.3,19.8,177.8,19.8z"/>
	<path class="st0" d="M207.8,17.7c1.5,0,2.8,0.4,3.6,1.3c0.9,0.9,1.3,1.9,1.3,3.2c0,2.3-0.9,3.4-2.8,3.4c-0.8,0-1.4-0.2-1.8-0.6
		c-0.4-0.4-0.7-0.9-0.8-1.5s-0.4-1-0.8-1.5c-0.4-0.4-0.9-0.6-1.6-0.6c-1.2,0-2.1,0.6-2.8,1.9c-0.6,1.3-1,2.9-1,4.8v11.6
		c0,0.8,0.4,1.5,1.2,2.1c0.8,0.6,1.2,1.1,1.2,1.4v0.2c0,0.5-0.4,0.8-1.1,0.8h-8.4c-0.8,0-1.1-0.3-1.1-0.8v-0.2c0-0.3,0.3-0.8,1-1.4
		c0.7-0.6,1-1.3,1-2.1V25.2c0-0.8-0.4-1.5-1.2-2.1c-0.8-0.6-1.2-1.1-1.2-1.4v-0.2c0-0.4,0.3-0.8,1-1.1l5.3-2.4
		c1-0.5,1.6-0.2,1.6,0.9v4.2C201.8,19.5,204.2,17.7,207.8,17.7z"/>
	<path class="st0" d="M227.5,44.7c-3.9,0-7.2-1.3-9.9-4c-2.7-2.6-4-5.9-4-9.6c0-4,1.3-7.2,3.9-9.7c2.6-2.4,5.8-3.7,9.7-3.7
		c3,0,5.5,0.7,7.6,2.1c2.1,1.5,3.2,3.1,3.2,5c0,0.7-0.2,1.3-0.7,1.7c-0.5,0.5-1.1,0.7-2.1,0.6c-0.9,0-1.6-0.5-2.3-1.2
		c-0.7-0.8-1.2-1.6-1.7-2.5c-0.4-0.9-1.1-1.7-2-2.5c-0.9-0.8-1.9-1.1-3.2-1.1c-1.8,0-3.3,0.8-4.5,2.4c-1.2,1.6-1.7,3.6-1.7,5.9
		c0,3.7,0.9,6.6,2.6,8.8c1.8,2.2,4.1,3.3,7,3.3c3.1,0,5.5-1.5,7-4.4c0.3-0.4,0.7-0.6,1.1-0.5c0.5,0.1,0.7,0.4,0.6,1
		c-0.3,2.3-1.4,4.3-3.3,5.9C233.1,43.9,230.6,44.7,227.5,44.7z"/>
	<path class="st0" d="M267.4,18.3c0.6,0,0.9,0.3,0.9,0.8v0.2c0,0.4-0.3,0.9-1,1.6c-0.7,0.7-1.2,1.4-1.6,2.2l-10.2,22.4
		c-0.6,1.5-1.2,2.6-1.6,3.5c-0.5,0.9-1.1,1.9-1.9,3.1c-0.8,1.2-1.8,2.1-2.9,2.8s-2.3,0.9-3.5,0.9c-2.1,0-3.9-0.5-5.2-1.6
		c-1.4-1.1-2.1-2.3-2.1-3.6c0-0.8,0.2-1.4,0.7-1.9c0.5-0.5,1.1-0.8,1.9-0.8c0.8,0,1.4,0.3,1.9,0.9c0.5,0.6,0.9,1.3,1.1,2
		c0.2,0.7,0.5,1.4,0.9,2c0.4,0.6,1,0.9,1.7,0.9c1.9,0,3.9-2.7,6-8L242,23c-0.4-0.8-1-1.5-1.7-2.2c-0.7-0.7-1.1-1.2-1.1-1.6V19
		c0-0.5,0.3-0.8,1-0.8h8.5c0.6,0,0.9,0.3,0.9,0.8v0.2c0,0.3-0.2,0.6-0.5,1c-0.3,0.4-0.5,0.7-0.7,1c-0.1,0.3,0,0.9,0.3,1.8l7.1,16.4
		l6.7-15.8c0.3-1.1,0.3-1.8,0-2.2c-0.3-0.4-0.8-0.8-1.3-1.2c-0.6-0.4-0.9-0.7-0.9-1v-0.2c0-0.5,0.3-0.8,1-0.8H267.4z"/>
	<path class="st0" d="M302.9,23.5c3.4,0.5,6,1.6,7.9,3.3c1.9,1.7,2.8,3.9,2.8,6.6c0,3.2-1.4,5.8-4.3,7.8c-2.9,2-6.6,2.9-11.3,2.9
		h-15.3c-0.8,0-1.1-0.3-1.1-0.8v-0.2c0-0.3,0.3-0.7,1-1.4s1-1.3,1-2.1V10.3c0-0.8-0.3-1.5-1-2.1c-0.7-0.6-1-1.1-1-1.4V6.6
		c0-0.5,0.4-0.8,1.1-0.8h13.1c4.4,0,7.9,0.9,10.4,2.7c2.5,1.8,3.7,4.1,3.7,6.9c0,2.1-0.6,3.8-1.9,5.2C306.7,22.1,305,23,302.9,23.5z
		 M290,10.7v9.4c0,0.7,0.2,1.2,0.6,1.7c0.4,0.4,1,0.6,1.7,0.6h4.9c2,0,3.6-0.6,4.9-1.7s1.9-2.6,1.9-4.3c0-2.5-0.8-4.4-2.3-5.8
		c-1.5-1.4-3.6-2.1-6.2-2.1H292C290.7,8.6,290,9.3,290,10.7z M297.4,41.4c6.3,0,9.5-2.3,9.5-7c0-2.5-1-4.7-3.1-6.5
		c-2.1-1.8-4.9-2.7-8.5-2.7H290v13c0,0.9,0.3,1.7,0.8,2.3c0.5,0.6,1.2,0.9,2.1,0.9H297.4z"/>
	<path class="st0" d="M331.6,17.7c1.5,0,2.8,0.4,3.6,1.3c0.9,0.9,1.3,1.9,1.3,3.2c0,2.3-0.9,3.4-2.8,3.4c-0.8,0-1.4-0.2-1.8-0.6
		s-0.7-0.9-0.8-1.5c-0.1-0.5-0.4-1-0.8-1.5s-0.9-0.6-1.6-0.6c-1.2,0-2.1,0.6-2.8,1.9c-0.6,1.3-1,2.9-1,4.8v11.6
		c0,0.8,0.4,1.5,1.2,2.1c0.8,0.6,1.2,1.1,1.2,1.4v0.2c0,0.5-0.4,0.8-1.1,0.8H318c-0.8,0-1.1-0.3-1.1-0.8v-0.2c0-0.3,0.3-0.8,1-1.4
		c0.7-0.6,1-1.3,1-2.1V25.2c0-0.8-0.4-1.5-1.2-2.1c-0.8-0.6-1.2-1.1-1.2-1.4v-0.2c0-0.4,0.3-0.8,1-1.1l5.3-2.4
		c1-0.5,1.6-0.2,1.6,0.9v4.2C325.7,19.5,328,17.7,331.6,17.7z"/>
	<path class="st0" d="M361.5,39.3c0.1,0.8,0.3,1.4,0.6,1.9c0.3,0.5,0.7,0.7,1,0.8c0.3,0.1,0.6,0.3,0.9,0.4c0.3,0.2,0.4,0.4,0.4,0.7
		c0,0.9-1.5,1.3-4.4,1.3c-1.4,0-2.5-0.2-3.2-0.7c-0.7-0.5-1.1-1.3-1.2-2.6c-1.4,2.3-3.9,3.5-7.5,3.5c-3,0-5.5-0.7-7.3-2.1
		c-1.9-1.4-2.8-3.4-2.8-6c0-2.6,0.9-4.5,2.8-6c1.9-1.4,4.2-2.1,7.1-2.1c2.6,0,4.7,0.6,6.3,1.8l-0.1-1.1c-0.3-3.3-0.9-5.7-1.7-7.2
		c-0.8-1.5-2.1-2.3-3.9-2.3c-1.1,0-2,0.3-2.8,1c-0.7,0.7-1.2,1.4-1.5,2.2c-0.3,0.8-0.7,1.6-1.2,2.2c-0.5,0.7-1.1,1-1.9,1
		c-0.8,0-1.4-0.2-1.9-0.7c-0.5-0.4-0.7-1.1-0.7-1.8c0-1.7,0.9-3.2,2.8-4.3c1.9-1.2,4.3-1.7,7.2-1.7c3.4,0,6.1,1,8.2,3
		c2.1,2,3.3,4.7,3.7,8.2L361.5,39.3z M350,42.7c1.5,0,2.7-0.5,3.6-1.6s1.3-2.4,1.3-3.8l-0.2-1.7c-0.1-1.5-0.6-2.8-1.6-3.7
		c-0.9-0.9-2.1-1.4-3.6-1.4c-1.5,0-2.7,0.5-3.7,1.4c-0.9,1-1.4,2.2-1.4,3.9c0,1.9,0.5,3.5,1.5,4.9C347.1,42,348.4,42.7,350,42.7z"/>
	<path class="st0" d="M393.2,39.6c0,0.8,0.4,1.5,1,2.1c0.6,0.6,0.9,1.1,0.9,1.4v0.2c0,0.5-0.4,0.8-1.2,0.8h-7.9
		c-0.8,0-1.2-0.3-1.2-0.8v-0.2c0-0.3,0.3-0.8,1-1.4s1-1.3,0.9-2.1l-0.5-10.4c-0.3-5.9-2.1-8.9-5.7-8.9c-1.7,0-3.1,0.6-4.1,1.9
		c-1,1.2-1.6,2.9-1.6,4.8v12.7c0,0.8,0.4,1.5,1.1,2.1c0.7,0.6,1.1,1.1,1.1,1.4v0.2c0,0.5-0.4,0.8-1.2,0.8h-8.4
		c-0.8,0-1.1-0.3-1.1-0.8v-0.2c0-0.3,0.4-0.8,1.1-1.4c0.7-0.6,1.1-1.3,1.1-2.1V25.2c0-0.7-0.2-1.2-0.6-1.7c-0.4-0.4-0.8-0.8-1.2-1.1
		c-0.4-0.3-0.6-0.6-0.6-0.9v-0.2c0-0.4,0.3-0.7,1-1l5.2-2.5c0.6-0.3,1-0.3,1.3-0.1c0.3,0.2,0.4,0.5,0.4,1.1v3.5
		c0.8-1.5,1.9-2.6,3.3-3.5c1.4-0.8,3.1-1.2,4.9-1.2c2.8,0,5.1,1,7,2.9c1.9,1.9,3,4.9,3.2,8.9L393.2,39.6z"/>
	<path class="st0" d="M423.7,39.7c0,0.8,0.3,1.5,1,2.2c0.7,0.6,1,1.1,1,1.4v0.2c0,0.5-0.3,0.8-0.9,0.8h-5.6c-0.6,0-1-0.3-1.1-1
		l-0.2-1.9c-1.8,2.3-4.3,3.5-7.6,3.5c-3.5,0-6.4-1.2-8.9-3.7c-2.5-2.5-3.7-5.8-3.7-9.8c0-3.9,1.2-7.1,3.6-9.7c2.4-2.5,5.4-3.8,9-3.8
		c2.8,0,5.2,0.9,7.1,2.8V10.3c0-0.7-0.2-1.2-0.6-1.7c-0.4-0.4-0.8-0.8-1.2-1.1c-0.4-0.3-0.6-0.6-0.6-0.9V6.6c0-0.5,0.3-0.8,1-1.1
		l5.7-1.8c1.3-0.4,1.9-0.1,1.9,1V39.7z M411.9,42.7c1.5,0,2.8-0.6,4-1.8c1.2-1.2,1.8-2.9,1.8-5.1v-8.6c0-1.8-0.7-3.5-2.1-5
		c-1.4-1.5-3-2.3-4.8-2.3c-2,0-3.6,0.8-4.9,2.5c-1.2,1.6-1.9,3.9-1.9,6.7c-0.1,3.8,0.6,7,2.1,9.7S409.5,42.6,411.9,42.7z"/>
	<path class="st0" d="M440.1,44.7c-3.3,0-6.1-0.6-8.2-1.9c-2.1-1.3-3.1-2.7-3.1-4.3c0-0.8,0.2-1.4,0.7-1.8c0.5-0.4,1.1-0.6,2-0.6
		c0.7,0,1.3,0.2,1.8,0.7c0.5,0.5,0.9,1,1.2,1.7c0.3,0.7,0.6,1.4,1,2c0.4,0.7,1,1.2,1.7,1.7c0.8,0.5,1.7,0.7,2.9,0.7
		c1.5,0,2.7-0.4,3.6-1.1c0.9-0.7,1.4-1.7,1.4-3.1c0-1.3-0.5-2.4-1.6-3.1s-2.4-1.3-3.9-1.6c-1.5-0.4-3.1-0.8-4.6-1.2
		c-1.5-0.5-2.9-1.3-3.9-2.5c-1.1-1.2-1.6-2.8-1.6-4.8c0-2.2,1-4,3-5.5c2-1.5,4.5-2.2,7.6-2.2c3.2,0,5.8,0.7,7.8,2c2,1.3,3,2.8,3,4.5
		c0,0.7-0.2,1.2-0.7,1.7c-0.5,0.4-1.1,0.6-1.8,0.6c-0.7,0-1.3-0.2-1.7-0.7c-0.5-0.5-0.8-1-1.1-1.7c-0.3-0.7-0.6-1.3-1-2
		c-0.3-0.7-0.9-1.2-1.6-1.7c-0.7-0.5-1.6-0.7-2.6-0.7c-1.3,0-2.4,0.4-3.2,1.2c-0.9,0.8-1.3,1.8-1.3,3c0,1.3,0.5,2.4,1.6,3.1
		s2.4,1.3,3.9,1.7s3.1,0.8,4.6,1.3c1.5,0.5,2.9,1.3,3.9,2.5c1.1,1.2,1.6,2.8,1.6,4.8c0,2.2-1,4-3.1,5.4
		C446.3,43.9,443.5,44.7,440.1,44.7z"/>
</g>
</svg>
