<?xml version="1.0" encoding="utf-8"?>
<!-- Generator: Adobe Illustrator 26.1.0, SVG Export Plug-In . SVG Version: 6.00 Build 0)  -->
<svg version="1.1" xmlns="http://www.w3.org/2000/svg" xmlns:xlink="http://www.w3.org/1999/xlink" x="0px" y="0px"
	 viewBox="0 0 430.5 89.1" style="enable-background:new 0 0 430.5 89.1;" xml:space="preserve">
<style type="text/css">
	.st0{fill:#094A6E;}
	.st1{fill:#186E09;}
	.st2{display:none;}
	.st3{display:inline;fill:#186E09;}
	.st4{display:inline;fill:#094A6E;}
</style>
<g id="_x32_">
	<g>
		<g>
			<path class="st0" d="M34.9,68.4c-8.9,0-16.5-3.2-22.8-9.9S2.5,44,2.5,35c0-10,2.9-18.2,8.9-24.4s13.3-9.4,22-9.4
				c7.3,0,13.5,1.9,18.6,5.4s7.5,7.5,7.5,11.6c0,1.5-0.5,2.7-1.4,3.7c-0.9,1-2.2,1.4-3.7,1.4s-2.9-0.7-4.3-1.9
				c-1.4-1.2-2.6-2.7-3.6-4.4S44,13.7,42.9,12c-1.4-1.7-3.1-3.1-5.1-4.3s-4.6-1.7-7.3-1.7c-4.8,0-8.9,2-12.1,6.3
				c-3.2,4.3-4.9,9.5-4.9,15.8c0,9.2,2.4,17,7.2,23.3s10.4,9.5,16.9,9.5c4.6,0,8.3-0.9,11.2-2.7v-15c0-0.9-0.3-1.5-0.9-2.2
				c-0.7-0.7-1.4-1.2-2-1.4c-0.7-0.3-1.4-0.7-2-1s-0.9-0.9-0.9-1.2v-0.3c0-1,0.7-1.5,2-1.5l17.4,0.2c1.4,0,1.9,0.5,1.9,1.4v0.3
				c0,0.5-0.3,1-1.2,1.5s-1.7,1-2.6,1.9c-0.9,0.7-1.4,1.7-1.4,2.7v13.1c0,1.9-1,3.6-2.9,5.3c-2.4,2-5.6,3.6-9.4,4.8
				C43.2,67.7,39.1,68.4,34.9,68.4z"/>
			<path class="st0" d="M94.3,22.4c2.6,0,4.8,0.7,6.1,2.2c1.5,1.5,2.2,3.2,2.2,5.4c0,3.9-1.5,5.8-4.8,5.8c-1.4,0-2.4-0.3-3.1-1
				s-1.2-1.5-1.4-2.6c-0.2-1-0.7-1.7-1.4-2.6c-0.7-0.7-1.5-1-2.7-1c-2,0-3.6,1-4.8,3.2c-1,2.2-1.7,4.9-1.7,8.2v19.8
				c0,1.4,0.7,2.6,2,3.6c1.4,1,2,1.9,2,2.4v0.3c0,0.9-0.7,1.4-1.9,1.4H70.8c-1.4,0-1.9-0.5-1.9-1.4v-0.3c0-0.5,0.5-1.4,1.7-2.4
				c1.2-1,1.7-2.2,1.7-3.6V35.2c0-1.4-0.7-2.6-2-3.6c-1.4-1-2-1.9-2-2.4v-0.3c0-0.7,0.5-1.4,1.7-1.9l9-4.1c1.7-0.9,2.7-0.3,2.7,1.5
				v7.2C84.2,25.5,88.2,22.4,94.3,22.4z"/>
			<path class="st0" d="M145.2,59.2c0.2,1.4,0.5,2.4,1,3.2c0.5,0.9,1.2,1.2,1.7,1.4c0.5,0.2,1,0.5,1.5,0.7c0.5,0.3,0.7,0.7,0.7,1.2
				c0,1.5-2.6,2.2-7.5,2.2c-2.4,0-4.3-0.3-5.4-1.2c-1.2-0.9-1.9-2.2-2-4.4c-2.4,3.9-6.6,6-12.8,6c-5.1,0-9.4-1.2-12.4-3.6
				c-3.2-2.4-4.8-5.8-4.8-10.2s1.5-7.7,4.8-10.2c3.2-2.4,7.2-3.6,12.1-3.6c4.4,0,8,1,10.7,3.1l-0.2-1.9c-0.5-5.6-1.5-9.7-2.9-12.3
				c-1.4-2.6-3.6-3.9-6.6-3.9c-1.9,0-3.4,0.5-4.8,1.7c-1.2,1.2-2,2.4-2.6,3.7c-0.5,1.4-1.2,2.7-2,3.7c-0.9,1.2-1.9,1.7-3.2,1.7
				c-1.4,0-2.4-0.3-3.2-1.2c-0.9-0.7-1.2-1.9-1.2-3.1c0-2.9,1.5-5.4,4.8-7.3c3.2-2,7.3-2.9,12.3-2.9c5.8,0,10.4,1.7,14,5.1
				s5.6,8,6.3,14L145.2,59.2z M125.6,65c2.6,0,4.6-0.9,6.1-2.7s2.2-4.1,2.2-6.5l-0.3-2.9c-0.2-2.6-1-4.8-2.7-6.3
				c-1.5-1.5-3.6-2.4-6.1-2.4s-4.6,0.9-6.3,2.4c-1.5,1.7-2.4,3.7-2.4,6.6c0,3.2,0.9,6,2.6,8.3C120.7,63.8,122.9,65,125.6,65z"/>
			<path class="st0" d="M228.5,59.7c0,1.4,0.7,2.6,1.7,3.7c1,1,1.5,1.9,1.5,2.6v0.3c0,0.9-0.7,1.4-1.9,1.4h-13.5
				c-1.4,0-1.9-0.5-1.9-1.4V66c0-0.5,0.5-1.4,1.7-2.4c1.2-1,1.7-2.2,1.5-3.6l-0.9-17.4c-0.2-5.4-1.2-9.5-2.7-11.9
				c-1.7-2.4-3.9-3.7-7-3.7c-2.6,0-4.6,1-6.5,3.1c-1.7,2-2.7,4.6-2.7,7.8c0.2,1.2,0.3,2.7,0.3,4.4V60c0,1.4,0.5,2.6,1.5,3.6
				c1,1,1.5,1.9,1.5,2.4v0.3c0,0.9-0.7,1.4-1.9,1.4h-13.3c-1.4,0-2-0.5-2-1.4V66c0-0.5,0.5-1.4,1.5-2.4c1-1,1.5-2.2,1.5-3.6V41.5
				c0-4.6-0.9-8.2-2.7-10.7c-1.9-2.6-4.1-3.9-7-3.9c-2.7,0-5.1,1-6.8,3.1c-1.7,2-2.7,4.6-2.9,7.8l0.2,22.1c0,1.4,0.7,2.6,1.9,3.6
				c1.2,1,1.9,1.9,1.9,2.4v0.3c0,0.9-0.7,1.4-1.9,1.4h-14.3c-1.4,0-2-0.5-2-1.4v-0.3c0-0.5,0.7-1.4,1.9-2.4c1.2-1,1.9-2.2,1.9-3.6
				V35.2c0-1-0.3-2-1-2.7c-0.7-0.7-1.4-1.4-2-1.9c-0.7-0.5-1-1-1-1.5v-0.3c0-0.7,0.5-1.2,1.7-1.7l9.4-4.3c1-0.5,1.7-0.5,2.2-0.2
				c0.5,0.3,0.7,0.9,0.7,1.9v5.4c1.4-2.2,3.2-4.1,5.4-5.4c2.4-1.4,4.9-2,7.7-2c3.4,0,6.5,0.9,9.2,2.4c2.7,1.5,4.9,3.9,6.5,6.6
				c1.2-2.9,3.1-5.1,5.6-6.6c2.6-1.5,5.4-2.4,8.7-2.4c4.8,0,8.7,1.5,11.7,4.8c3.1,3.2,4.9,8.3,5.4,15.5L228.5,59.7z"/>
			<path class="st0" d="M273.9,53.9c0.5-0.7,1.2-0.9,1.9-0.7c0.7,0.2,1.2,0.7,1,1.7c-0.5,3.2-2.4,6.3-5.6,9.2
				c-3.2,2.9-7.7,4.3-12.9,4.3c-6.3,0-11.4-2.2-15.7-6.5c-4.1-4.3-6.1-9.9-6.1-16.9c0-6.5,2.2-11.9,6.5-16.2
				c4.3-4.3,9.5-6.5,15.7-6.5c5.4,0,9.7,1.4,12.8,4.1c2.9,2.7,4.4,5.8,4.4,9.4c0,3.2-1.5,5.3-4.8,6.5l-22.3,8.2
				c1.2,3.2,2.9,5.6,5.3,7.5c2.4,1.7,5.1,2.7,8.3,2.7c2.7,0,5.1-0.7,7.2-1.9C271.5,57.5,272.9,55.9,273.9,53.9z M256.6,26
				c-2.9,0-5.1,1.4-6.8,4.1c-1.7,2.7-2.6,6.3-2.6,10.9c0,2,0.2,4.1,0.5,6l15.3-6.6c1.5-0.7,2.4-2,2.4-3.9c0-2.2-0.9-4.4-2.6-6.8
				C261.2,27.2,259.1,26,256.6,26z"/>
			<path class="st0" d="M307.6,22.4c2.6,0,4.8,0.7,6.1,2.2c1.5,1.5,2.2,3.2,2.2,5.4c0,3.9-1.5,5.8-4.8,5.8c-1.4,0-2.4-0.3-3.1-1
				c-0.7-0.7-1.2-1.5-1.4-2.6s-0.7-1.7-1.4-2.6c-0.7-0.7-1.5-1-2.7-1c-2,0-3.6,1-4.8,3.2c-1,2.2-1.7,4.9-1.7,8.2v19.8
				c0,1.4,0.7,2.6,2,3.6c1.4,1,2,1.9,2,2.4v0.3c0,0.9-0.7,1.4-1.9,1.4h-14.3c-1.4,0-1.9-0.5-1.9-1.4v-0.3c0-0.5,0.5-1.4,1.7-2.4
				c1.2-1,1.7-2.2,1.7-3.6V35.2c0-1.4-0.7-2.6-2-3.6c-1.4-1-2-1.9-2-2.4v-0.3c0-0.7,0.5-1.4,1.7-1.9l9-4.1c1.7-0.9,2.7-0.3,2.7,1.5
				v7.2C297.4,25.5,301.5,22.4,307.6,22.4z"/>
			<path class="st0" d="M341.2,68.4c-6.6,0-12.3-2.2-16.9-6.8c-4.6-4.4-6.8-10-6.8-16.3c0-6.8,2.2-12.3,6.6-16.5
				c4.4-4.1,9.9-6.3,16.5-6.3c5.1,0,9.4,1.2,12.9,3.6c3.6,2.6,5.4,5.3,5.4,8.5c0,1.2-0.3,2.2-1.2,2.9c-0.9,0.9-1.9,1.2-3.6,1
				c-1.5,0-2.7-0.9-3.9-2c-1.2-1.4-2-2.7-2.9-4.3c-0.7-1.5-1.9-2.9-3.4-4.3c-1.5-1.4-3.2-1.9-5.4-1.9c-3.1,0-5.6,1.4-7.7,4.1
				s-2.9,6.1-2.9,10c0,6.3,1.5,11.2,4.4,15c3.1,3.7,7,5.6,11.9,5.6c5.3,0,9.4-2.6,11.9-7.5c0.5-0.7,1.2-1,1.9-0.9
				c0.9,0.2,1.2,0.7,1,1.7c-0.5,3.9-2.4,7.3-5.6,10C350.7,67,346.5,68.4,341.2,68.4z"/>
			<path class="st0" d="M409.1,23.4c1,0,1.5,0.5,1.5,1.4v0.3c0,0.7-0.5,1.5-1.7,2.7c-1.2,1.2-2,2.4-2.7,3.7l-17.4,38.1
				c-1,2.6-2,4.4-2.7,6c-0.9,1.5-1.9,3.2-3.2,5.3c-1.4,2-3.1,3.6-4.9,4.8c-1.9,1.2-3.9,1.5-6,1.5c-3.6,0-6.6-0.9-8.9-2.7
				c-2.4-1.9-3.6-3.9-3.6-6.1c0-1.4,0.3-2.4,1.2-3.2c0.9-0.9,1.9-1.4,3.2-1.4s2.4,0.5,3.2,1.5c0.9,1,1.5,2.2,1.9,3.4
				c0.3,1.2,0.9,2.4,1.5,3.4c0.7,1,1.7,1.5,2.9,1.5c3.2,0,6.6-4.6,10.2-13.6l-17.9-38.7c-0.7-1.4-1.7-2.6-2.9-3.7
				c-1.2-1.2-1.9-2-1.9-2.7v-0.3c0-0.9,0.5-1.4,1.7-1.4h14.5c1,0,1.5,0.5,1.5,1.4V25c0,0.5-0.3,1-0.9,1.7c-0.5,0.7-0.9,1.2-1.2,1.7
				c-0.2,0.5,0,1.5,0.5,3.1l12.1,27.9l11.4-26.9c0.5-1.9,0.5-3.1,0-3.7c-0.5-0.7-1.4-1.4-2.2-2c-1-0.7-1.5-1.2-1.5-1.7v-0.3
				c0-0.9,0.5-1.4,1.7-1.4h10.4V23.4z"/>
		</g>
		<circle class="st1" cx="411.2" cy="76.5" r="11.6"/>
	</g>
</g>
<g id="Layer_1" class="st2">
	<circle class="st3" cx="237.8" cy="61.7" r="11.2"/>
	<path class="st4" d="M50.1,14.5h-0.6c-1.3-4.1-3.7-7.9-6.8-10.9c-3.1-3-7.4-4.6-11.8-4.5H23v25.8h6.9c2.5,0,5-0.7,7.1-2.1
		c1.9-1.3,3.6-3,4.8-5h0.4v17.6h-0.4c-3-5.3-6.9-7.9-11.9-7.8L23,27.7v21.5c0,3.5,0.5,5.8,1.5,6.9s3.3,2.4,7.1,3.7v0.6H1v-0.6
		c3-1.3,4.9-2.5,5.7-3.6s1.1-3.4,1.1-7V7.5c0-3.5-0.4-5.9-1.1-7S4.1-1.7,1-3.1v-0.6h47.6L50.1,14.5z"/>
	<path class="st4" d="M73.1,61.3c-7,0-12.6-2-16.8-5.9s-6.2-9.3-6.2-16.2s2.1-12.6,6.3-16.9s9.9-6.4,17-6.4c7,0,12.5,2,16.6,6
		s6.2,9.5,6.2,16.3S94.1,50.8,89.9,55S80.1,61.3,73.1,61.3L73.1,61.3z M75.1,59.1c2,0,3.7-1.1,5-3.2c1.4-2.1,2-5.3,2-9.5
		c0-2.6-0.2-5.2-0.6-7.8c-0.4-3.1-1-6.1-1.8-9.1c-0.6-2.8-1.8-5.5-3.5-7.9c-1.5-2.1-3.3-3.2-5.3-3.2s-3.6,1-5,3.2s-2,5.3-2,9.4
		c0,2.6,0.2,5.3,0.6,7.9c0.4,3.1,1,6.1,1.8,9.1c0.7,2.8,1.9,5.5,3.6,7.8C71.4,57.9,73.2,59,75.1,59.1L75.1,59.1z"/>
	<path class="st4" d="M98.4,59.9c2.3-1.2,3.7-2.3,4.3-3.4s0.9-3.2,0.9-6.5V31c0-3.5-0.3-5.9-1-7.2s-2.1-2.7-4.3-3.9v-0.6
		c6.4-0.4,12.7-1.5,18.7-3.4l-0.2,9h0.2c0.9-2.4,2.4-4.5,4.3-6.1c2.2-1.9,5.1-2.9,8-2.8c1.5,0,2.9,0.3,4.2,1l-1.8,14.4h-0.6
		c-3.8-4.9-6.9-7.4-9.5-7.3c-1.8,0-3.3,1.1-4.3,3.3V50c0,3.2,0.4,5.4,1.2,6.5s2.7,2.2,5.7,3.4v0.6H98.4V59.9z"/>
	<path class="st4" d="M169,53.6c7.9,2.1,11.9,6,12,11.8c0,3.3-1.5,6.3-4.1,8.2c-2.7,2.2-5.9,3.7-9.4,4.5c-3.6,0.8-7.2,1.2-10.9,1.2
		c-4.9,0.1-9.8-0.7-14.4-2.4c-4.3-1.6-6.5-3.8-6.5-6.7c0-1.4,0.6-2.7,1.5-3.8c1.1-1.2,2.4-2.1,3.9-2.8c1.6-0.7,2.8-1.2,3.7-1.5
		s1.8-0.6,2.6-0.8c-6-1.4-9.1-4.1-9.1-7.9c0.1-2.3,1.2-4.4,3-5.7c2.3-1.8,5-3,7.8-3.6c-7.9-1.9-11.9-6.4-12-13.5
		c0-4.7,1.7-8.3,5.2-10.9s7.8-3.9,13-3.9h1.8c4.1,0,7.1-0.7,9.1-2.1c1.8-1.1,3-2.8,3.4-4.9l9.9,3.3v0.4c-2.8,3.5-7.1,5.2-13,5.2
		c-1.7,0-3.5-0.1-5.2-0.4v0.4c10,1.9,15,6.4,15,13.5c0.1,4-1.9,7.7-5.2,9.8c-3.5,2.5-8.2,3.7-14.3,3.7c-1.7,0-3.3-0.1-5-0.3
		c-2.4,0.5-3.7,1.5-3.7,2.8c0,1.1,0.6,1.8,2,2l3.8,0.8c2.5,0.5,5.3,1.1,8.4,1.8c3.1,0.7,5.4,1.1,6.8,1.5L169,53.6z M157.9,77
		c3,0.1,6-0.5,8.7-1.6c2.4-1.1,3.6-2.7,3.6-4.7c0-1.4-0.6-2.7-1.6-3.5c-1.2-1.1-2.8-1.9-4.4-2.2c-1.3-0.3-6.2-1.3-14.5-2.9
		c-3.1,2-4.6,4.4-4.6,7.2c0,2.5,1.4,4.7,3.6,5.7C151.5,76.4,154.7,77.1,157.9,77L157.9,77z M155.4,18.2c-1.6,0-3.1,0.8-4,2.2
		c-1.1,1.5-1.6,3.6-1.6,6.5c0,2.3,0.3,4.5,0.8,6.7c0.5,2.3,1.5,4.5,2.8,6.5c1.4,2,3,3,4.9,3c1.6,0,3.1-0.8,3.9-2.1
		c1-1.4,1.5-3.5,1.5-6.3c0-3.8-0.8-7.5-2.2-11C160.1,20.1,158.1,18.2,155.4,18.2L155.4,18.2z"/>
	<path class="st4" d="M222.7,44.9c-0.3,1.7-0.9,3.4-1.6,4.9c-0.9,1.8-1.9,3.6-3.1,5.2c-1.5,2-3.5,3.5-5.8,4.5
		c-2.7,1.2-5.7,1.8-8.7,1.7c-5.9,0.2-11.7-2-15.9-6.1s-6.4-9.5-6.4-16.4s2.1-12.2,6.2-16.4s9.5-6.3,16-6.3c3.1-0.1,6.2,0.6,9.1,1.8
		c2.4,1,4.4,2.6,6,4.6c1.3,1.6,2.3,3.5,3,5.4c0.6,1.6,0.9,3.3,0.9,5v1.1h-28.7v1.2c0,5.7,1.6,9.9,4.7,12.7c3,2.7,7,4.2,11.1,4.2
		c5.8,0,10-2.4,12.5-7.4L222.7,44.9z M202.1,18.2c-2.3,0-4.2,1.2-5.6,3.6s-2.2,5.7-2.5,9.9l16-0.2c0-1.3-0.2-2.6-0.4-3.9
		c-0.3-1.4-0.6-2.8-1.2-4.2c-0.5-1.4-1.4-2.7-2.5-3.6C204.8,18.8,203.4,18.3,202.1,18.2L202.1,18.2z"/>
</g>
</svg>
