<?xml version="1.0" encoding="utf-8"?>
<!-- Generator: Adobe Illustrator 26.0.2, SVG Export Plug-In . SVG Version: 6.00 Build 0)  -->
<svg version="1.1" id="Layer_1" xmlns="http://www.w3.org/2000/svg" xmlns:xlink="http://www.w3.org/1999/xlink" x="0px" y="0px"
	 viewBox="0 0 250 89.4" style="enable-background:new 0 0 250 89.4;" xml:space="preserve">
<style type="text/css">
	.st0{fill:#186E09;}
	.st1{fill:#094A6E;}
</style>
<circle class="st0" cx="237.8" cy="68.1" r="11.2"/>
<path class="st1" d="M50.1,20.9h-0.6c-1.3-4.1-3.7-7.9-6.8-10.9C39.6,7,35.3,5.4,30.9,5.5H23v25.8h6.9c2.5,0,5-0.7,7.1-2.1
	c1.9-1.3,3.6-3,4.8-5h0.4v17.6h-0.4c-3-5.3-6.9-7.9-11.9-7.8L23,34.1v21.5c0,3.5,0.5,5.8,1.5,6.9s3.3,2.4,7.1,3.7v0.6H1v-0.6
	c3-1.3,4.9-2.5,5.7-3.6s1.1-3.4,1.1-7V13.9c0-3.5-0.4-5.9-1.1-7S4.1,4.7,1,3.3V2.7h47.6L50.1,20.9z"/>
<path class="st1" d="M73.1,67.7c-7,0-12.6-2-16.8-5.9c-4.2-3.9-6.2-9.3-6.2-16.2s2.1-12.6,6.3-16.9s9.9-6.4,17-6.4
	c7,0,12.5,2,16.6,6c4.1,4,6.2,9.5,6.2,16.3s-2.1,12.6-6.3,16.8S80.1,67.7,73.1,67.7L73.1,67.7z M75.1,65.5c2,0,3.7-1.1,5-3.2
	c1.4-2.1,2-5.3,2-9.5c0-2.6-0.2-5.2-0.6-7.8c-0.4-3.1-1-6.1-1.8-9.1c-0.6-2.8-1.8-5.5-3.5-7.9c-1.5-2.1-3.3-3.2-5.3-3.2
	s-3.6,1-5,3.2s-2,5.3-2,9.4c0,2.6,0.2,5.3,0.6,7.9c0.4,3.1,1,6.1,1.8,9.1c0.7,2.8,1.9,5.5,3.6,7.8c1.5,2.1,3.3,3.2,5.2,3.2
	L75.1,65.5z"/>
<path class="st1" d="M98.4,66.3c2.3-1.2,3.7-2.3,4.3-3.4s0.9-3.2,0.9-6.5v-19c0-3.5-0.3-5.9-1-7.2s-2.1-2.7-4.3-3.9v-0.6
	c6.4-0.4,12.7-1.5,18.7-3.4l-0.2,9h0.2c0.9-2.4,2.4-4.5,4.3-6.1c2.2-1.9,5.1-2.9,8-2.8c1.5,0,2.9,0.3,4.2,1l-1.8,14.4h-0.6
	c-3.8-4.9-6.9-7.4-9.5-7.3c-1.8,0-3.3,1.1-4.3,3.3v22.6c0,3.2,0.4,5.4,1.2,6.5s2.7,2.2,5.7,3.4v0.6H98.4L98.4,66.3z"/>
<path class="st1" d="M169,60c7.9,2.1,11.9,6,12,11.8c0,3.3-1.5,6.3-4.1,8.2c-2.7,2.2-5.9,3.7-9.4,4.5c-3.6,0.8-7.2,1.2-10.9,1.2
	c-4.9,0.1-9.8-0.7-14.4-2.4c-4.3-1.6-6.5-3.8-6.5-6.7c0-1.4,0.6-2.7,1.5-3.8c1.1-1.2,2.4-2.1,3.9-2.8c1.6-0.7,2.8-1.2,3.7-1.5
	s1.8-0.6,2.6-0.8c-6-1.4-9.1-4.1-9.1-7.9c0.1-2.3,1.2-4.4,3-5.7c2.3-1.8,5-3,7.8-3.6c-7.9-1.9-11.9-6.4-12-13.5
	c0-4.7,1.7-8.3,5.2-10.9s7.8-3.9,13-3.9h1.8c4.1,0,7.1-0.7,9.1-2.1c1.8-1.1,3-2.8,3.4-4.9l9.9,3.3v0.4c-2.8,3.5-7.1,5.2-13,5.2
	c-1.7,0-3.5-0.1-5.2-0.4v0.4c10,1.9,15,6.4,15,13.5c0.1,4-1.9,7.7-5.2,9.8c-3.5,2.5-8.2,3.7-14.3,3.7c-1.7,0-3.3-0.1-5-0.3
	c-2.4,0.5-3.7,1.5-3.7,2.8c0,1.1,0.6,1.8,2,2l3.8,0.8c2.5,0.5,5.3,1.1,8.4,1.8c3.1,0.7,5.4,1.1,6.8,1.5L169,60z M157.9,83.4
	c3,0.1,6-0.5,8.7-1.6c2.4-1.1,3.6-2.7,3.6-4.7c0-1.4-0.6-2.7-1.6-3.5c-1.2-1.1-2.8-1.9-4.4-2.2c-1.3-0.3-6.2-1.3-14.5-2.9
	c-3.1,2-4.6,4.4-4.6,7.2c0,2.5,1.4,4.7,3.6,5.7C151.5,82.8,154.7,83.5,157.9,83.4L157.9,83.4z M155.4,24.6c-1.6,0-3.1,0.8-4,2.2
	c-1.1,1.5-1.6,3.6-1.6,6.5c0,2.3,0.3,4.5,0.8,6.7c0.5,2.3,1.5,4.5,2.8,6.5c1.4,2,3,3,4.9,3c1.6,0,3.1-0.8,3.9-2.1
	c1-1.4,1.5-3.5,1.5-6.3c0-3.8-0.8-7.5-2.2-11C160.1,26.5,158.1,24.6,155.4,24.6L155.4,24.6z"/>
<path class="st1" d="M222.7,51.3c-0.3,1.7-0.9,3.4-1.6,4.9c-0.9,1.8-1.9,3.6-3.1,5.2c-1.5,2-3.5,3.5-5.8,4.5
	c-2.7,1.2-5.7,1.8-8.7,1.7c-5.9,0.2-11.7-2-15.9-6.1c-4.2-4.1-6.4-9.5-6.4-16.4s2.1-12.2,6.2-16.4s9.5-6.3,16-6.3
	c3.1-0.1,6.2,0.6,9.1,1.8c2.4,1,4.4,2.6,6,4.6c1.3,1.6,2.3,3.5,3,5.4c0.6,1.6,0.9,3.3,0.9,5v1.1h-28.7v1.2c0,5.7,1.6,9.9,4.7,12.7
	c3,2.7,7,4.2,11.1,4.2c5.8,0,10-2.4,12.5-7.4L222.7,51.3z M202.1,24.6c-2.3,0-4.2,1.2-5.6,3.6s-2.2,5.7-2.5,9.9l16-0.2
	c0-1.3-0.2-2.6-0.4-3.9c-0.3-1.4-0.6-2.8-1.2-4.2c-0.5-1.4-1.4-2.7-2.5-3.6C204.8,25.2,203.4,24.7,202.1,24.6L202.1,24.6z"/>
</svg>
