<?xml version="1.0" encoding="utf-8"?>
<!-- Generator: Adobe Illustrator 26.1.0, SVG Export Plug-In . SVG Version: 6.00 Build 0)  -->
<svg version="1.1" xmlns="http://www.w3.org/2000/svg" xmlns:xlink="http://www.w3.org/1999/xlink" x="0px" y="0px"
	 viewBox="0 0 392 89.1" style="enable-background:new 0 0 392 89.1;" xml:space="preserve">
<style type="text/css">
	.st0{fill:#186E09;}
	.st1{fill:#094A6E;}
	.st2{display:none;}
	.st3{display:inline;fill:#186E09;}
	.st4{display:inline;fill:#094A6E;}
</style>
<g id="_x32_">
	<g>
		<circle class="st0" cx="381.6" cy="77.6" r="10"/>
		<g>
			<path class="st1" d="M28.6,71.9c-3.5,0-6.8-0.6-10-1.8c-3.2-1.2-6.2-3-9-5.4c-2.8-2.4-5-5.6-6.7-9.8s-2.5-8.9-2.5-14.3
				c0-10.3,2.9-18.2,8.8-23.8s13.5-8.4,23-8.4c3.6,0,7.4,0.4,11.3,1.1c3.8,0.8,6.8,1.5,8.9,2.3L54,29.5h-0.6
				c-3.1-5.2-6.4-9.6-10.2-13.1S35.6,11,31.8,11c-4.4,0-8,2.4-11.1,7.3s-4.6,12.1-4.6,21.8c0,9.9,1.6,17.2,4.8,21.9s7,7.1,11.4,7.1
				c2.3,0,4.4-0.6,6.4-1.8c2-1.2,3-3.2,3-6.1V50.2c0-3.4-0.7-5.9-2.2-7.7c-1.5-1.7-4.1-2.6-7.9-2.6v-1.1h28.1v0.7
				c-1.8,1.3-2.8,2.4-3.3,3.5c-0.5,1-0.7,3.2-0.7,6.5v20.1h-0.6c-2.5-1.7-4.9-2.6-7.3-2.6c-1.3,0-3.9,0.8-7.8,2.4s-7.7,2.4-11.3,2.4
				L28.6,71.9z"/>
			<path class="st1" d="M64.1,70.1c2.2-1.1,3.6-2.2,4.1-3.3c0.6-1,0.9-3.1,0.9-6.2V42.5c0-3.3-0.3-5.6-0.9-6.9
				c-0.6-1.3-2-2.6-4.1-3.8v-0.6C70,30.9,76,29.8,82,28l-0.2,8.6H82c0.8-2.1,2.1-4.1,4.1-5.8c2-1.8,4.6-2.6,7.6-2.6
				c1.4,0,2.8,0.3,4,1L96,42.8h-0.6c-3.6-4.7-6.6-7-9.1-7c-1.8,0-3.1,1-4.1,3.1v21.6c0,3.1,0.4,5.1,1.1,6.2c0.8,1,2.6,2.1,5.4,3.3
				v0.6H64L64.1,70.1z"/>
			<path class="st1" d="M133.8,71.7c-3.1,0-5.2-0.9-6.4-2.8c-1.2-1.8-1.8-4-1.6-6.4h-0.1c-1.3,2.4-3.2,4.5-5.8,6.3
				c-2.6,1.8-5.7,2.7-9.2,2.7s-6.3-0.9-8.4-2.8c-2.1-1.8-3.1-4.2-3.1-7.1c0-4.2,2.3-7.8,6.9-10.7c4.6-2.9,11.2-5.4,19.8-7.7l0.2-6.8
				c0-1.6-0.3-3.1-1.1-4.4c-0.8-1.3-2-1.9-3.8-1.9c-2.6,0-4.6,1.4-6.1,4.1s-2.5,6-3.1,9.8l-0.4,0.1l-9.1-5.5c1.5-2.9,4-5.4,7.4-7.5
				s7.7-3.1,12.8-3.1c3.2,0,5.9,0.5,8.2,1.3c2.2,0.9,3.8,2.1,4.9,3.6c1,1.5,1.8,3.1,2.1,4.7c0.4,1.6,0.5,3.3,0.5,5.1l-0.4,20.3
				c0,1.9,0.7,2.8,2,2.8c1.5,0,2.8-1.1,3.8-3.4l0.7,0.3c-0.8,2.3-2,4.4-3.9,6c-1.8,1.6-4.1,2.5-6.9,2.5L133.8,71.7z M118,64.4
				c2.7,0,5.2-1.4,7.5-4.3l0.3-14.9c-8.7,2.7-13,6.9-13,12.7c0,2,0.5,3.6,1.4,4.8S116.4,64.3,118,64.4L118,64.4z"/>
			<path class="st1" d="M216.1,60.6c0,3.1,0.3,5.1,0.9,6.2c0.6,1,2,2.1,4.1,3.3v0.6h-23.2v-0.6c2.3-1.2,3.7-2.3,4.3-3.4
				c0.5-1,0.9-3.1,1-6c0-2.3,0.1-8.2,0.1-17.7c0-2.6-0.6-4.6-1.8-5.9c-1.2-1.3-2.7-2-4.4-2c-2.7,0-5.1,1.8-7.3,5.2v20.5
				c0,3.1,0.3,5.1,0.9,6.2c0.6,1,2,2.1,4.1,3.3v0.6h-23.2v-0.6c2.2-1.1,3.6-2.2,4.2-3.3c0.6-1,1-3.1,1-6.2c0-1.6,0.1-5.8,0.1-12.6
				c0-5.2-0.4-8.7-1.3-10.4c-0.8-1.8-2.3-2.6-4.5-2.6c-3.1,0-5.7,1.8-7.8,5.3v20.4c0,3.1,0.3,5.1,0.9,6.2c0.6,1,1.9,2.1,4,3.3v0.6
				h-23.1v-0.6c2.2-1.1,3.6-2.2,4.1-3.3c0.6-1,0.9-3.1,0.9-6.2V43.3c0-3.8-0.3-6.3-0.9-7.5c-0.6-1.3-2-2.6-4.1-3.8v-0.6
				c5.8-0.3,11.8-1.4,17.9-3.3v9.3c3.8-6.1,8.5-9.2,14.3-9.2c2.6,0,5,0.7,7.4,2.1s3.9,3.8,4.6,7c3.8-6.1,8.6-9.2,14.4-9.2
				c1.3,0,2.6,0.2,4,0.6c1.3,0.4,2.7,1,4,1.9s2.4,2.1,3.2,3.9c0.8,1.8,1.3,3.8,1.3,6.2V60.6L216.1,60.6z"/>
			<path class="st1" d="M262.2,55.8c-0.3,1.6-0.8,3.2-1.5,4.7c-0.7,1.5-1.6,3.2-2.9,5c-1.3,1.8-3.1,3.2-5.5,4.3
				c-2.4,1.1-5.1,1.6-8.3,1.6c-6.1,0-11.2-2-15.2-5.9c-4.1-3.9-6.1-9.1-6.1-15.7c0-6.4,2-11.7,5.9-15.7s9-6,15.3-6
				c3.3,0,6.1,0.6,8.7,1.8c2.5,1.2,4.4,2.6,5.7,4.4c1.3,1.8,2.3,3.5,2.8,5.1c0.6,1.7,0.9,3.3,0.9,4.7v1h-27.4v1.2
				c0,5.4,1.5,9.5,4.5,12.1c3,2.6,6.5,4,10.6,4c5.6,0,9.5-2.3,11.9-7L262.2,55.8z M242.5,30.3c-2.2,0-4,1.1-5.4,3.4
				c-1.3,2.3-2.1,5.4-2.4,9.4l15.3-0.2c0-1.3-0.2-2.5-0.4-3.8c-0.2-1.3-0.6-2.6-1.1-4c-0.5-1.4-1.3-2.6-2.4-3.5
				C245.1,30.8,243.9,30.4,242.5,30.3L242.5,30.3z"/>
			<path class="st1" d="M264.5,70.1c2.2-1.1,3.6-2.2,4.1-3.3c0.6-1,0.9-3.1,0.9-6.2V42.5c0-3.3-0.3-5.6-0.9-6.9s-2-2.6-4.1-3.8v-0.6
				c5.9-0.3,11.9-1.4,17.9-3.3l-0.2,8.6h0.2c0.8-2.1,2.1-4.1,4.1-5.8c2-1.8,4.6-2.6,7.6-2.6c1.4,0,2.8,0.3,4,1l-1.7,13.8h-0.6
				c-3.6-4.7-6.6-7-9.1-7c-1.8,0-3.1,1-4.1,3.1v21.6c0,3.1,0.4,5.1,1.1,6.2c0.8,1,2.6,2.1,5.4,3.3v0.6h-24.8L264.5,70.1z"/>
			<path class="st1" d="M320.4,71.5c-5.7,0-10.6-1.9-14.6-5.8s-6-9.2-6-16.1c0-6.7,2-12,5.9-15.8c3.9-3.8,8.7-5.7,14.3-5.7
				c3.9,0,7.2,0.9,10,2.7s5,4,6.7,6.5L328,44l-0.5-0.3c-0.3-3.2-1.1-6.3-2.5-9.1s-3.2-4.3-5.5-4.3c-2.2,0-4,1.3-5.5,3.9
				s-2.3,6-2.3,10.3c0,5.5,1.3,9.9,3.8,13.2s5.9,4.9,10.2,4.9c5.2,0,9.2-2.7,11.9-8l0.7,0.3c-0.8,4.5-2.6,8.3-5.5,11.5
				C329.8,69.9,325.7,71.4,320.4,71.5L320.4,71.5z"/>
			<path class="st1" d="M384.6,29.3v0.6c-2,1.4-3.5,2.8-4.4,4.1c-1,1.3-2,3.2-3,5.6C368.8,59,364,69.9,362.9,72.1
				c-2.2,4.4-4.3,7.7-6.4,10.1c-2.1,2.4-4.6,4.6-7.4,6.5l-6.2-8.2l0.3-0.5l0.7,0.1h1c7.7,0,12.6-2.3,14.9-7l1.2-2.4l-17.2-34.7
				c-1.1-2.4-3.1-4.4-5.7-6.1v-0.6h24.8v0.6c-2.9,1.6-4.4,3.3-4.4,5c0,0.8,0.3,1.8,1,3.2l8.4,17.8c3.5-7.8,5.9-13.6,7.2-17.2
				c0.3-0.9,0.5-1.7,0.5-2.4c0-2.1-1.7-4.3-5.1-6.4v-0.6L384.6,29.3z"/>
		</g>
	</g>
</g>
<g id="Layer_1" class="st2">
	<circle class="st3" cx="237.8" cy="61.7" r="11.2"/>
	<path class="st4" d="M50.1,14.5h-0.6c-1.3-4.1-3.7-7.9-6.8-10.9c-3.1-3-7.4-4.6-11.8-4.5H23v25.8h6.9c2.5,0,5-0.7,7.1-2.1
		c1.9-1.3,3.6-3,4.8-5h0.4v17.6h-0.4c-3-5.3-6.9-7.9-11.9-7.8L23,27.7v21.5c0,3.5,0.5,5.8,1.5,6.9s3.3,2.4,7.1,3.7v0.6H1v-0.6
		c3-1.3,4.9-2.5,5.7-3.6s1.1-3.4,1.1-7V7.5c0-3.5-0.4-5.9-1.1-7S4.1-1.7,1-3.1v-0.6h47.6L50.1,14.5z"/>
	<path class="st4" d="M73.1,61.3c-7,0-12.6-2-16.8-5.9s-6.2-9.3-6.2-16.2s2.1-12.6,6.3-16.9s9.9-6.4,17-6.4c7,0,12.5,2,16.6,6
		s6.2,9.5,6.2,16.3S94.1,50.8,89.9,55S80.1,61.3,73.1,61.3L73.1,61.3z M75.1,59.1c2,0,3.7-1.1,5-3.2c1.4-2.1,2-5.3,2-9.5
		c0-2.6-0.2-5.2-0.6-7.8c-0.4-3.1-1-6.1-1.8-9.1c-0.6-2.8-1.8-5.5-3.5-7.9c-1.5-2.1-3.3-3.2-5.3-3.2s-3.6,1-5,3.2s-2,5.3-2,9.4
		c0,2.6,0.2,5.3,0.6,7.9c0.4,3.1,1,6.1,1.8,9.1c0.7,2.8,1.9,5.5,3.6,7.8C71.4,57.9,73.2,59,75.1,59.1L75.1,59.1z"/>
	<path class="st4" d="M98.4,59.9c2.3-1.2,3.7-2.3,4.3-3.4s0.9-3.2,0.9-6.5V31c0-3.5-0.3-5.9-1-7.2s-2.1-2.7-4.3-3.9v-0.6
		c6.4-0.4,12.7-1.5,18.7-3.4l-0.2,9h0.2c0.9-2.4,2.4-4.5,4.3-6.1c2.2-1.9,5.1-2.9,8-2.8c1.5,0,2.9,0.3,4.2,1l-1.8,14.4h-0.6
		c-3.8-4.9-6.9-7.4-9.5-7.3c-1.8,0-3.3,1.1-4.3,3.3V50c0,3.2,0.4,5.4,1.2,6.5s2.7,2.2,5.7,3.4v0.6H98.4V59.9z"/>
	<path class="st4" d="M169,53.6c7.9,2.1,11.9,6,12,11.8c0,3.3-1.5,6.3-4.1,8.2c-2.7,2.2-5.9,3.7-9.4,4.5c-3.6,0.8-7.2,1.2-10.9,1.2
		c-4.9,0.1-9.8-0.7-14.4-2.4c-4.3-1.6-6.5-3.8-6.5-6.7c0-1.4,0.6-2.7,1.5-3.8c1.1-1.2,2.4-2.1,3.9-2.8c1.6-0.7,2.8-1.2,3.7-1.5
		s1.8-0.6,2.6-0.8c-6-1.4-9.1-4.1-9.1-7.9c0.1-2.3,1.2-4.4,3-5.7c2.3-1.8,5-3,7.8-3.6c-7.9-1.9-11.9-6.4-12-13.5
		c0-4.7,1.7-8.3,5.2-10.9s7.8-3.9,13-3.9h1.8c4.1,0,7.1-0.7,9.1-2.1c1.8-1.1,3-2.8,3.4-4.9l9.9,3.3v0.4c-2.8,3.5-7.1,5.2-13,5.2
		c-1.7,0-3.5-0.1-5.2-0.4v0.4c10,1.9,15,6.4,15,13.5c0.1,4-1.9,7.7-5.2,9.8c-3.5,2.5-8.2,3.7-14.3,3.7c-1.7,0-3.3-0.1-5-0.3
		c-2.4,0.5-3.7,1.5-3.7,2.8c0,1.1,0.6,1.8,2,2l3.8,0.8c2.5,0.5,5.3,1.1,8.4,1.8c3.1,0.7,5.4,1.1,6.8,1.5L169,53.6z M157.9,77
		c3,0.1,6-0.5,8.7-1.6c2.4-1.1,3.6-2.7,3.6-4.7c0-1.4-0.6-2.7-1.6-3.5c-1.2-1.1-2.8-1.9-4.4-2.2c-1.3-0.3-6.2-1.3-14.5-2.9
		c-3.1,2-4.6,4.4-4.6,7.2c0,2.5,1.4,4.7,3.6,5.7C151.5,76.4,154.7,77.1,157.9,77L157.9,77z M155.4,18.2c-1.6,0-3.1,0.8-4,2.2
		c-1.1,1.5-1.6,3.6-1.6,6.5c0,2.3,0.3,4.5,0.8,6.7c0.5,2.3,1.5,4.5,2.8,6.5c1.4,2,3,3,4.9,3c1.6,0,3.1-0.8,3.9-2.1
		c1-1.4,1.5-3.5,1.5-6.3c0-3.8-0.8-7.5-2.2-11C160.1,20.1,158.1,18.2,155.4,18.2L155.4,18.2z"/>
	<path class="st4" d="M222.7,44.9c-0.3,1.7-0.9,3.4-1.6,4.9c-0.9,1.8-1.9,3.6-3.1,5.2c-1.5,2-3.5,3.5-5.8,4.5
		c-2.7,1.2-5.7,1.8-8.7,1.7c-5.9,0.2-11.7-2-15.9-6.1s-6.4-9.5-6.4-16.4s2.1-12.2,6.2-16.4s9.5-6.3,16-6.3c3.1-0.1,6.2,0.6,9.1,1.8
		c2.4,1,4.4,2.6,6,4.6c1.3,1.6,2.3,3.5,3,5.4c0.6,1.6,0.9,3.3,0.9,5v1.1h-28.7v1.2c0,5.7,1.6,9.9,4.7,12.7c3,2.7,7,4.2,11.1,4.2
		c5.8,0,10-2.4,12.5-7.4L222.7,44.9z M202.1,18.2c-2.3,0-4.2,1.2-5.6,3.6s-2.2,5.7-2.5,9.9l16-0.2c0-1.3-0.2-2.6-0.4-3.9
		c-0.3-1.4-0.6-2.8-1.2-4.2c-0.5-1.4-1.4-2.7-2.5-3.6C204.8,18.8,203.4,18.3,202.1,18.2L202.1,18.2z"/>
</g>
</svg>
