<?xml version="1.0" encoding="utf-8"?>
<!-- Generator: Adobe Illustrator 26.0.2, SVG Export Plug-In . SVG Version: 6.00 Build 0)  -->
<svg version="1.1" id="Layer_1" xmlns="http://www.w3.org/2000/svg" xmlns:xlink="http://www.w3.org/1999/xlink" x="0px" y="0px"
	 viewBox="0 0 480 57" style="enable-background:new 0 0 480 57;" xml:space="preserve">
<style type="text/css">
	.st0{fill:#018837;}
	.st1{fill:#094A6E;}
</style>
<g>
	<circle class="st0" cx="373" cy="40.6" r="4.1"/>
	<g>
		<path class="st1" d="M24.2,42.5c-4.5,0-8.4-1.7-11.7-5.1c-3.2-3.4-4.9-7.4-4.9-12c0-5.1,1.5-9.3,4.5-12.5c3-3.2,6.8-4.7,11.3-4.7
			c3.8,0,6.9,0.9,9.4,2.7c2.5,1.8,3.8,3.8,3.8,5.9c0,0.8-0.2,1.4-0.7,1.9c-0.5,0.5-1.1,0.7-1.9,0.7c-0.8,0-1.5-0.3-2.2-0.9
			c-0.7-0.6-1.3-1.4-1.9-2.2c-0.6-0.9-1.2-1.7-1.8-2.6c-0.7-0.9-1.5-1.6-2.6-2.2c-1.1-0.6-2.3-0.9-3.7-0.9c-2.5,0-4.5,1.1-6.2,3.2
			c-1.7,2.1-2.5,4.8-2.5,8.1c0,4.7,1.2,8.7,3.7,12s5.3,4.9,8.6,4.9c2.3,0,4.3-0.5,5.8-1.4v-7.7c0-0.4-0.2-0.8-0.5-1.2
			c-0.3-0.3-0.7-0.6-1-0.7c-0.4-0.2-0.7-0.3-1-0.5c-0.3-0.2-0.5-0.4-0.5-0.6v-0.2c0-0.5,0.4-0.8,1.1-0.8l8.8,0c0.7,0,1,0.2,1,0.7
			v0.2c0,0.3-0.2,0.5-0.6,0.8c-0.4,0.3-0.9,0.6-1.3,0.9c-0.4,0.4-0.7,0.8-0.7,1.4v6.7c0,1-0.5,1.9-1.5,2.7c-1.3,1-2.9,1.8-4.8,2.5
			C28.4,42.2,26.4,42.5,24.2,42.5z"/>
		<path class="st1" d="M54.6,19c1.3,0,2.4,0.4,3.2,1.1c0.8,0.8,1.2,1.7,1.2,2.8c0,2-0.8,3-2.4,3c-0.7,0-1.2-0.2-1.6-0.6
			c-0.4-0.4-0.6-0.8-0.7-1.3c-0.1-0.5-0.3-0.9-0.7-1.3c-0.3-0.4-0.8-0.6-1.4-0.6c-1,0-1.8,0.6-2.4,1.7c-0.6,1.1-0.8,2.5-0.8,4.1
			v10.1c0,0.7,0.4,1.3,1.1,1.8c0.7,0.5,1.1,0.9,1.1,1.2v0.2c0,0.4-0.3,0.7-1,0.7h-7.3c-0.7,0-1-0.2-1-0.7v-0.2
			c0-0.3,0.3-0.7,0.9-1.2c0.6-0.5,0.9-1.1,0.9-1.8V25.5c0-0.7-0.3-1.3-1-1.9c-0.7-0.5-1-0.9-1-1.2v-0.1c0-0.3,0.3-0.7,0.8-1l4.6-2.1
			c0.9-0.4,1.4-0.2,1.4,0.8v3.7C49.4,20.6,51.5,19,54.6,19z"/>
		<path class="st1" d="M80.5,37.8c0.1,0.7,0.2,1.2,0.5,1.6c0.3,0.4,0.6,0.6,0.9,0.7c0.3,0.1,0.6,0.2,0.8,0.4s0.4,0.4,0.4,0.6
			c0,0.8-1.3,1.2-3.8,1.2c-1.3,0-2.2-0.2-2.7-0.6c-0.6-0.4-0.9-1.1-1-2.2c-1.3,2-3.4,3-6.5,3c-2.6,0-4.8-0.6-6.4-1.9
			c-1.6-1.2-2.4-3-2.4-5.2c0-2.2,0.8-4,2.4-5.2c1.6-1.2,3.7-1.9,6.2-1.9c2.3,0,4.1,0.5,5.5,1.6L74.2,29c-0.3-2.9-0.8-5-1.5-6.3
			c-0.7-1.3-1.9-2-3.4-2c-1,0-1.8,0.3-2.4,0.9c-0.6,0.6-1.1,1.2-1.3,2c-0.2,0.7-0.6,1.4-1,2c-0.4,0.6-1,0.9-1.6,0.9
			c-0.7,0-1.2-0.2-1.7-0.6c-0.4-0.4-0.6-0.9-0.6-1.6c0-1.5,0.8-2.8,2.5-3.8c1.6-1,3.7-1.5,6.2-1.5c2.9,0,5.3,0.9,7.1,2.6
			c1.8,1.7,2.9,4.1,3.2,7.2L80.5,37.8z M70.6,40.7c1.3,0,2.3-0.5,3.1-1.4c0.8-0.9,1.2-2.1,1.1-3.3l-0.1-1.5
			c-0.1-1.3-0.5-2.4-1.4-3.2c-0.8-0.8-1.8-1.2-3.1-1.2c-1.3,0-2.4,0.4-3.2,1.2c-0.8,0.8-1.2,1.9-1.2,3.4c0,1.7,0.4,3.1,1.3,4.2
			C68,40.1,69.2,40.7,70.6,40.7z"/>
		<path class="st1" d="M123.2,38.1c0,0.7,0.3,1.3,0.9,1.9c0.5,0.6,0.8,1,0.8,1.3v0.2c0,0.4-0.3,0.7-1,0.7H117c-0.7,0-1-0.2-1-0.7
			v-0.2c0-0.3,0.3-0.7,0.8-1.2c0.6-0.5,0.8-1.2,0.8-1.9l-0.5-8.9c-0.1-2.8-0.6-4.9-1.4-6.1c-0.8-1.3-2-1.9-3.5-1.9
			c-1.3,0-2.4,0.5-3.3,1.6c-0.9,1-1.4,2.4-1.4,4c0.1,0.6,0.2,1.4,0.2,2.3v9.1c0,0.7,0.3,1.3,0.8,1.9c0.5,0.5,0.8,1,0.8,1.2v0.2
			c0,0.4-0.3,0.7-1,0.7h-6.8c-0.7,0-1-0.2-1-0.7v-0.2c0-0.3,0.3-0.7,0.8-1.2c0.5-0.5,0.8-1.2,0.8-1.9v-9.4c0-2.3-0.5-4.2-1.4-5.5
			c-0.9-1.3-2.1-2-3.5-2c-1.4,0-2.6,0.5-3.5,1.6c-0.9,1-1.4,2.4-1.5,4l0,11.3c0,0.7,0.3,1.3,0.9,1.9c0.6,0.5,0.9,1,0.9,1.2v0.2
			c0,0.4-0.3,0.7-1,0.7h-7.3c-0.7,0-1-0.2-1-0.7v-0.2c0-0.3,0.3-0.7,0.9-1.2c0.6-0.5,0.9-1.2,0.9-1.9V25.5c0-0.6-0.2-1-0.5-1.4
			c-0.3-0.4-0.7-0.7-1-0.9c-0.3-0.3-0.5-0.5-0.5-0.8v-0.1c0-0.3,0.3-0.6,0.8-0.8l4.8-2.2c0.5-0.2,0.9-0.2,1.1-0.1
			c0.3,0.2,0.4,0.5,0.4,0.9v2.8c0.7-1.2,1.6-2.1,2.8-2.8c1.2-0.7,2.5-1,3.9-1c1.7,0,3.3,0.4,4.7,1.2c1.4,0.8,2.5,2,3.3,3.4
			c0.6-1.5,1.6-2.6,2.9-3.4c1.3-0.8,2.8-1.2,4.5-1.2c2.4,0,4.5,0.8,6,2.5c1.6,1.6,2.5,4.3,2.7,7.9L123.2,38.1z"/>
		<path class="st1" d="M146.4,35.1c0.2-0.3,0.6-0.5,1-0.4c0.4,0.1,0.6,0.4,0.5,0.8c-0.3,1.7-1.2,3.2-2.9,4.7
			c-1.7,1.5-3.9,2.2-6.6,2.2c-3.2,0-5.8-1.1-8-3.3c-2.1-2.2-3.2-5.1-3.2-8.6c0-3.3,1.1-6.1,3.3-8.3c2.2-2.2,4.8-3.3,8-3.3
			c2.8,0,5,0.7,6.5,2.1c1.5,1.4,2.3,3,2.3,4.8c0,1.6-0.8,2.7-2.4,3.3l-11.4,4.2c0.6,1.6,1.5,2.9,2.7,3.8c1.2,0.9,2.6,1.4,4.2,1.4
			c1.4,0,2.6-0.3,3.7-1C145.1,37,145.9,36.1,146.4,35.1z M137.5,20.8c-1.5,0-2.6,0.7-3.5,2.1s-1.3,3.3-1.3,5.5c0,1.1,0.1,2.1,0.3,3
			l7.8-3.4c0.8-0.4,1.2-1,1.2-2c0-1.1-0.4-2.3-1.3-3.5C139.8,21.4,138.7,20.8,137.5,20.8z"/>
		<path class="st1" d="M163.6,19c1.3,0,2.4,0.4,3.2,1.1c0.8,0.8,1.2,1.7,1.2,2.8c0,2-0.8,3-2.4,3c-0.7,0-1.2-0.2-1.6-0.6
			s-0.6-0.8-0.7-1.3c-0.1-0.5-0.3-0.9-0.7-1.3s-0.8-0.6-1.4-0.6c-1,0-1.8,0.6-2.4,1.7c-0.6,1.1-0.8,2.5-0.8,4.1v10.1
			c0,0.7,0.4,1.3,1.1,1.8c0.7,0.5,1.1,0.9,1.1,1.2v0.2c0,0.4-0.3,0.7-1,0.7h-7.3c-0.7,0-1-0.2-1-0.7v-0.2c0-0.3,0.3-0.7,0.9-1.2
			c0.6-0.5,0.9-1.1,0.9-1.8V25.5c0-0.7-0.3-1.3-1-1.9c-0.7-0.5-1-0.9-1-1.2v-0.1c0-0.3,0.3-0.7,0.8-1l4.6-2.1
			c0.9-0.4,1.4-0.2,1.4,0.8v3.7C158.4,20.6,160.5,19,163.6,19z"/>
		<path class="st1" d="M180.7,42.5c-3.4,0-6.2-1.2-8.6-3.5c-2.3-2.3-3.5-5.1-3.5-8.4c0-3.5,1.1-6.3,3.4-8.4c2.3-2.1,5.1-3.2,8.4-3.2
			c2.6,0,4.8,0.6,6.6,1.9c1.9,1.3,2.8,2.7,2.8,4.3c0,0.6-0.2,1.1-0.6,1.5c-0.4,0.4-1,0.6-1.8,0.5c-0.8,0-1.4-0.4-2-1.1
			c-0.6-0.7-1.1-1.4-1.5-2.2c-0.4-0.8-0.9-1.5-1.7-2.2s-1.7-1-2.7-1c-1.6,0-2.9,0.7-3.9,2.1c-1,1.4-1.5,3.1-1.5,5.2
			c0,3.2,0.8,5.8,2.3,7.7c1.5,1.9,3.6,2.9,6.1,2.9c2.7,0,4.7-1.3,6.1-3.9c0.2-0.4,0.6-0.5,1-0.4s0.6,0.4,0.5,0.8
			c-0.3,2-1.2,3.7-2.8,5.2C185.6,41.8,183.5,42.5,180.7,42.5z"/>
		<path class="st1" d="M215.4,19.5c0.5,0,0.8,0.2,0.8,0.7v0.2c0,0.3-0.3,0.8-0.9,1.4c-0.6,0.6-1,1.2-1.4,1.9l-8.9,19.5
			c-0.6,1.3-1,2.3-1.4,3.1c-0.4,0.8-1,1.7-1.7,2.7c-0.7,1.1-1.6,1.9-2.5,2.4c-0.9,0.5-2,0.8-3.1,0.8c-1.8,0-3.4-0.5-4.6-1.4
			s-1.8-2-1.8-3.2c0-0.7,0.2-1.3,0.6-1.7c0.4-0.4,1-0.7,1.7-0.7c0.7,0,1.3,0.3,1.7,0.8c0.4,0.5,0.7,1.1,0.9,1.7
			c0.2,0.6,0.4,1.2,0.8,1.7c0.4,0.5,0.9,0.8,1.5,0.8c1.6,0,3.4-2.3,5.3-7l-9.2-19.5c-0.3-0.7-0.8-1.3-1.5-1.9
			c-0.6-0.6-0.9-1-0.9-1.4v-0.2c0-0.4,0.3-0.7,0.8-0.7h7.4c0.5,0,0.8,0.2,0.8,0.7v0.1c0,0.3-0.1,0.5-0.4,0.8
			c-0.3,0.3-0.5,0.6-0.6,0.9c-0.1,0.3,0,0.8,0.3,1.6l6.2,14.2l5.8-13.7c0.3-0.9,0.3-1.6,0-2c-0.3-0.4-0.7-0.7-1.2-1
			c-0.5-0.3-0.8-0.6-0.8-0.9v-0.1c0-0.5,0.3-0.7,0.8-0.7H215.4z"/>
		<path class="st1" d="M236.7,24.1c2.9,0.4,5.2,1.4,6.8,2.9c1.6,1.5,2.4,3.4,2.4,5.7c0,2.8-1.2,5.1-3.7,6.8
			c-2.5,1.7-5.8,2.6-9.8,2.6h-13.3c-0.7,0-1-0.2-1-0.7v-0.2c0-0.3,0.3-0.6,0.9-1.2c0.6-0.5,0.9-1.2,0.9-1.9V12.6
			c0-0.7-0.3-1.3-0.9-1.9c-0.6-0.5-0.9-1-0.9-1.2V9.3c0-0.4,0.3-0.7,1-0.7h11.4c3.9,0,6.9,0.8,9,2.3s3.2,3.6,3.2,6
			c0,1.8-0.5,3.3-1.6,4.5C240,22.8,238.6,23.6,236.7,24.1z M225.5,12.9v8.2c0,0.6,0.2,1.1,0.6,1.5s0.9,0.6,1.5,0.6h4.2
			c1.8,0,3.2-0.5,4.3-1.5c1.1-1,1.6-2.2,1.6-3.8c0-2.2-0.7-3.8-2-5.1c-1.3-1.2-3.1-1.8-5.4-1.8h-3.1
			C226.1,11.1,225.5,11.7,225.5,12.9z M231.9,39.6c5.5,0,8.2-2,8.2-6.1c0-2.2-0.9-4.1-2.7-5.7c-1.8-1.6-4.2-2.4-7.4-2.4h-4.6v11.3
			c0,0.8,0.2,1.5,0.7,2c0.5,0.5,1.1,0.8,1.8,0.8H231.9z"/>
		<path class="st1" d="M261.7,19c1.3,0,2.4,0.4,3.2,1.1c0.8,0.8,1.2,1.7,1.2,2.8c0,2-0.8,3-2.4,3c-0.7,0-1.2-0.2-1.6-0.6
			s-0.6-0.8-0.7-1.3c-0.1-0.5-0.3-0.9-0.7-1.3s-0.8-0.6-1.4-0.6c-1,0-1.8,0.6-2.4,1.7c-0.6,1.1-0.8,2.5-0.8,4.1v10.1
			c0,0.7,0.4,1.3,1.1,1.8c0.7,0.5,1.1,0.9,1.1,1.2v0.2c0,0.4-0.3,0.7-1,0.7h-7.3c-0.7,0-1-0.2-1-0.7v-0.2c0-0.3,0.3-0.7,0.9-1.2
			c0.6-0.5,0.9-1.1,0.9-1.8V25.5c0-0.7-0.3-1.3-1-1.9c-0.7-0.5-1-0.9-1-1.2v-0.1c0-0.3,0.3-0.7,0.8-1l4.6-2.1
			c0.9-0.4,1.4-0.2,1.4,0.8v3.7C256.5,20.6,258.6,19,261.7,19z"/>
		<path class="st1" d="M287.7,37.8c0.1,0.7,0.2,1.2,0.5,1.6c0.3,0.4,0.6,0.6,0.9,0.7c0.3,0.1,0.6,0.2,0.8,0.4
			c0.2,0.2,0.4,0.4,0.4,0.6c0,0.8-1.3,1.2-3.8,1.2c-1.3,0-2.2-0.2-2.7-0.6c-0.6-0.4-0.9-1.1-1-2.2c-1.3,2-3.4,3-6.5,3
			c-2.6,0-4.8-0.6-6.4-1.9c-1.6-1.2-2.4-3-2.4-5.2c0-2.2,0.8-4,2.4-5.2c1.6-1.2,3.7-1.9,6.2-1.9c2.3,0,4.1,0.5,5.5,1.6l-0.1-0.9
			c-0.3-2.9-0.8-5-1.5-6.3c-0.7-1.3-1.9-2-3.4-2c-1,0-1.8,0.3-2.4,0.9c-0.6,0.6-1.1,1.2-1.3,2c-0.2,0.7-0.6,1.4-1,2
			c-0.4,0.6-1,0.9-1.6,0.9c-0.7,0-1.2-0.2-1.7-0.6c-0.4-0.4-0.6-0.9-0.6-1.6c0-1.5,0.8-2.8,2.5-3.8c1.6-1,3.7-1.5,6.2-1.5
			c2.9,0,5.3,0.9,7.1,2.6c1.8,1.7,2.9,4.1,3.2,7.2L287.7,37.8z M277.7,40.7c1.3,0,2.3-0.5,3.1-1.4c0.8-0.9,1.2-2.1,1.1-3.3l-0.1-1.5
			c-0.1-1.3-0.5-2.4-1.4-3.2c-0.8-0.8-1.8-1.2-3.1-1.2c-1.3,0-2.4,0.4-3.2,1.2c-0.8,0.8-1.2,1.9-1.2,3.4c0,1.7,0.4,3.1,1.3,4.2
			C275.1,40.1,276.3,40.7,277.7,40.7z"/>
		<path class="st1" d="M315.3,38.1c0,0.7,0.3,1.3,0.9,1.9c0.5,0.5,0.8,1,0.8,1.2v0.2c0,0.5-0.3,0.7-1,0.7h-6.9c-0.7,0-1-0.2-1-0.7
			v-0.2c0-0.3,0.3-0.7,0.9-1.2c0.6-0.5,0.9-1.2,0.8-1.9l-0.5-9.1c-0.2-5.2-1.9-7.8-4.9-7.8c-1.5,0-2.7,0.5-3.6,1.6
			c-0.9,1.1-1.4,2.5-1.4,4.2v11c0,0.7,0.3,1.3,1,1.8c0.6,0.5,1,0.9,1,1.2v0.2c0,0.5-0.3,0.7-1,0.7H293c-0.7,0-1-0.2-1-0.7v-0.2
			c0-0.3,0.3-0.7,0.9-1.2c0.6-0.5,0.9-1.1,0.9-1.8V25.5c0-0.6-0.2-1.1-0.5-1.5c-0.4-0.4-0.7-0.7-1.1-0.9s-0.5-0.5-0.5-0.8v-0.1
			c0-0.3,0.3-0.6,0.8-0.8l4.6-2.2c0.5-0.2,0.9-0.2,1.1-0.1c0.2,0.2,0.4,0.5,0.4,0.9v3.1c0.7-1.3,1.6-2.3,2.9-3
			c1.3-0.7,2.7-1.1,4.3-1.1c2.4,0,4.4,0.8,6.1,2.5c1.7,1.7,2.6,4.2,2.8,7.7L315.3,38.1z"/>
		<path class="st1" d="M341.8,38.1c0,0.7,0.3,1.3,0.9,1.9c0.6,0.6,0.9,1,0.9,1.2v0.1c0,0.4-0.3,0.7-0.8,0.7h-4.9
			c-0.6,0-0.9-0.3-0.9-0.9l-0.1-1.6c-1.6,2-3.8,3-6.6,3c-3,0-5.6-1.1-7.7-3.2c-2.1-2.2-3.2-5-3.2-8.6c0-3.4,1.1-6.2,3.2-8.4
			c2.1-2.2,4.7-3.3,7.9-3.3c2.4,0,4.5,0.8,6.2,2.4v-8.8c0-0.6-0.2-1.1-0.5-1.5c-0.4-0.4-0.7-0.7-1.1-0.9c-0.4-0.2-0.5-0.5-0.5-0.8
			V9.3c0-0.4,0.3-0.7,0.8-0.9l5-1.6c1.1-0.4,1.6-0.1,1.6,0.8V38.1z M331.6,40.7c1.3,0,2.4-0.5,3.5-1.6c1-1.1,1.5-2.6,1.5-4.5v-7.5
			c0-1.6-0.6-3-1.8-4.3c-1.2-1.3-2.6-2-4.2-2c-1.8,0-3.2,0.7-4.2,2.1c-1.1,1.4-1.6,3.4-1.6,5.9c-0.1,3.3,0.5,6.1,1.8,8.4
			C327.8,39.5,329.5,40.7,331.6,40.7z"/>
		<path class="st1" d="M356.1,42.5c-2.9,0-5.3-0.6-7.1-1.7c-1.8-1.1-2.7-2.4-2.7-3.7c0-0.7,0.2-1.2,0.6-1.6c0.4-0.4,1-0.6,1.7-0.6
			c0.6,0,1.2,0.2,1.6,0.6c0.4,0.4,0.8,0.9,1,1.5c0.3,0.6,0.5,1.2,0.9,1.8c0.3,0.6,0.8,1.1,1.5,1.5c0.7,0.4,1.5,0.6,2.5,0.6
			c1.3,0,2.3-0.3,3.1-0.9c0.8-0.6,1.2-1.5,1.2-2.7c0-1.2-0.5-2.1-1.4-2.7c-0.9-0.6-2.1-1.1-3.4-1.4c-1.3-0.3-2.7-0.7-4-1.1
			c-1.3-0.4-2.5-1.1-3.4-2.2c-0.9-1-1.4-2.4-1.4-4.2c0-1.9,0.9-3.5,2.6-4.8c1.7-1.3,3.9-1.9,6.6-1.9c2.8,0,5.1,0.6,6.8,1.7
			c1.7,1.1,2.6,2.4,2.6,3.9c0,0.6-0.2,1.1-0.6,1.5c-0.4,0.4-0.9,0.6-1.6,0.6c-0.6,0-1.1-0.2-1.5-0.6c-0.4-0.4-0.7-0.9-1-1.5
			c-0.3-0.6-0.5-1.2-0.8-1.7c-0.3-0.6-0.8-1.1-1.4-1.5c-0.6-0.4-1.4-0.6-2.3-0.6c-1.1,0-2.1,0.3-2.8,1c-0.8,0.7-1.1,1.6-1.1,2.6
			c0,1.2,0.5,2.1,1.4,2.7c0.9,0.7,2.1,1.2,3.4,1.5c1.3,0.3,2.7,0.7,4,1.1c1.3,0.4,2.5,1.1,3.4,2.2c0.9,1,1.4,2.4,1.4,4.1
			c0,1.9-0.9,3.4-2.7,4.7C361.4,41.8,359.1,42.5,356.1,42.5z"/>
		<path class="st1" d="M409.5,8.7c0.7,0,1,0.2,1,0.7v0.1c0,0.3-0.3,0.7-1,1.2c-0.7,0.5-1,1.2-1,1.9v27.9c0,1.1-0.5,1.6-1.5,1.6h-1.7
			c-0.5,0-1.1-0.4-1.7-1.3l-19-25.8V38c0,0.7,0.3,1.3,1,1.9c0.7,0.6,1,1,1,1.3v0.1c0,0.4-0.3,0.7-1,0.7h-4.8c-0.7,0-1-0.2-1-0.7
			v-0.1c0-0.3,0.3-0.7,0.9-1.3c0.6-0.6,0.9-1.2,0.9-1.9V12.6c0-0.7-0.3-1.3-0.9-1.8c-0.6-0.5-0.9-0.9-0.9-1.2V9.4
			c0-0.5,0.3-0.7,1-0.7h4.7c0.8,0,1.4,0.4,2,1.1L405.5,35V12.6c0-0.7-0.3-1.3-1-1.9c-0.7-0.5-1-0.9-1-1.2V9.4c0-0.5,0.3-0.7,1-0.7
			H409.5z"/>
		<path class="st1" d="M442.9,8.7c0.7,0,1,0.2,1,0.7v0.1c0,0.3-0.3,0.8-1,1.3c-0.7,0.5-1.2,1.1-1.6,1.8l-9.5,15.9v9.6
			c0,0.7,0.3,1.3,0.9,1.9c0.6,0.5,0.9,1,0.9,1.2v0.1c0,0.4-0.3,0.7-1,0.7h-7.4c-0.7,0-1-0.2-1-0.7v-0.1c0-0.3,0.3-0.7,0.9-1.2
			c0.6-0.5,0.9-1.2,0.9-1.9v-9.2l-10.4-16.4c-0.4-0.6-0.9-1.2-1.7-1.8c-0.8-0.5-1.1-1-1.1-1.3V9.3c0-0.4,0.3-0.7,1-0.7h8.6
			c0.7,0,1,0.2,1,0.7v0.1c0,0.3-0.2,0.5-0.6,0.9c-0.4,0.3-0.8,0.6-1,0.9c-0.3,0.3-0.3,0.7,0,1.3l8.2,14l8.3-14
			c0.3-0.7,0.3-1.1,0-1.4c-0.3-0.3-0.6-0.6-1.1-0.9c-0.5-0.3-0.7-0.6-0.7-0.8V9.3c0-0.4,0.3-0.7,0.9-0.7H442.9z"/>
		<path class="st1" d="M459.5,42.5c-4.2,0-7.9-1.8-11.1-5.4c-3.2-3.6-4.8-7.6-4.8-12.1c0-4.9,1.5-8.9,4.4-12s6.7-4.7,11.2-4.7
			c3.5,0,6.6,0.9,9.2,2.8c2.6,1.9,3.9,3.9,3.9,5.9c0,0.8-0.2,1.4-0.7,1.9s-1.1,0.7-2,0.7c-0.8,0-1.5-0.3-2.1-0.9
			c-0.6-0.6-1.2-1.4-1.7-2.2c-0.5-0.9-1.1-1.8-1.7-2.7c-0.6-0.9-1.4-1.6-2.5-2.3c-1.1-0.6-2.3-0.9-3.7-0.9c-2.4,0-4.5,1-6.2,3.1
			c-1.7,2.1-2.6,4.7-2.6,8c0,4.5,1.2,8.3,3.6,11.3c2.4,3,5.1,4.5,8.2,4.5c2.3,0,4.3-0.7,6-2.1c1.7-1.4,2.9-3,3.8-4.8
			c0.2-0.3,0.5-0.5,0.8-0.6c0.3-0.1,0.6,0,0.9,0.2s0.3,0.6,0.3,1c-0.4,3.2-1.8,5.8-4.1,8C466.3,41.4,463.3,42.5,459.5,42.5z"/>
	</g>
</g>
</svg>
