<?xml version="1.0" encoding="utf-8"?>
<!-- Generator: Adobe Illustrator 26.1.0, SVG Export Plug-In . SVG Version: 6.00 Build 0)  -->
<svg version="1.1" xmlns="http://www.w3.org/2000/svg" xmlns:xlink="http://www.w3.org/1999/xlink" x="0px" y="0px"
	 viewBox="0 0 404.9 89.1" style="enable-background:new 0 0 404.9 89.1;" xml:space="preserve">
<style type="text/css">
	.st0{fill:#186E09;}
	.st1{fill:#094A6E;}
	.st2{display:none;}
	.st3{display:inline;fill:#186E09;}
	.st4{display:inline;fill:#094A6E;}
</style>
<g id="_x32_">
	<g>
		<circle class="st0" cx="392" cy="72.7" r="10.3"/>
		<g>
			<path class="st1" d="M29.8,66.8c-3.6,0-7-0.6-10.3-1.8c-3.3-1.2-6.4-3-9.2-5.5c-2.8-2.4-5.1-5.8-6.8-10s-2.6-9.1-2.6-14.7
				c0-10.6,3-18.7,9-24.5s13.9-8.6,23.6-8.6c3.7,0,7.6,0.4,11.5,1.2s7,1.5,9.1,2.4l1.7,18h-0.6c-3.1-5.3-6.6-9.8-10.5-13.5
				S37,4.3,33.1,4.3c-4.5,0-8.2,2.5-11.4,7.5S17,24.2,17,34.2c0,10.1,1.6,17.6,4.9,22.5S29.1,64,33.6,64c2.4,0,4.6-0.6,6.6-1.8
				c2-1.2,3-3.3,3-6.2V44.5c0-3.5-0.7-6.1-2.2-7.9S36.8,34,32.9,34v-1.2h28.8v0.7c-1.8,1.3-2.9,2.5-3.4,3.6
				c-0.5,1.1-0.7,3.3-0.7,6.7v20.6h-0.6c-2.5-1.8-5-2.6-7.5-2.6c-1.3,0-4,0.8-8,2.4s-7.9,2.4-11.6,2.4L29.8,66.8z"/>
			<path class="st1" d="M66.2,65c2.2-1.2,3.6-2.3,4.2-3.3c0.6-1.1,0.9-3.2,0.9-6.4V36.7c0-3.4-0.3-5.8-0.9-7.1
				c-0.6-1.3-2.1-2.6-4.2-3.9v-0.6c6.1-0.3,12.2-1.5,18.4-3.3l-0.2,8.8h0.2c0.8-2.2,2.2-4.2,4.2-6c2.1-1.8,4.7-2.7,7.8-2.7
				c1.5,0,2.8,0.3,4.1,1L99,37h-0.6c-3.7-4.8-6.8-7.2-9.3-7.2c-1.8,0-3.2,1.1-4.2,3.2v22.2c0,3.2,0.4,5.3,1.2,6.4
				c0.8,1.1,2.6,2.2,5.5,3.3v0.6H66.1L66.2,65z"/>
			<path class="st1" d="M137.7,66.6c-3.1,0-5.3-0.9-6.6-2.8c-1.2-1.9-1.8-4.1-1.7-6.5h-0.1c-1.3,2.4-3.3,4.6-6,6.4s-5.8,2.7-9.4,2.7
				c-3.6,0-6.4-0.9-8.6-2.8s-3.2-4.3-3.2-7.3c0-4.3,2.4-8,7-10.9c4.7-3,11.5-5.6,20.3-7.9l0.2-7c0-1.7-0.3-3.2-1.2-4.5
				c-0.8-1.3-2.1-1.9-3.9-1.9c-2.6,0-4.7,1.4-6.3,4.2c-1.5,2.8-2.6,6.2-3.1,10l-0.4,0.1l-9.3-5.6c1.6-3,4.1-5.5,7.6-7.7
				c3.5-2.1,7.9-3.2,13.1-3.2c3.3,0,6.1,0.5,8.4,1.4c2.3,0.9,3.9,2.1,5,3.7c1.1,1.6,1.8,3.2,2.2,4.8c0.4,1.6,0.6,3.3,0.5,5.2
				L141.9,58c0,1.9,0.7,2.9,2.1,2.8c1.6,0,2.9-1.2,3.9-3.5l0.7,0.3c-0.8,2.4-2.1,4.5-4,6.1c-1.9,1.7-4.2,2.5-7.1,2.5L137.7,66.6z
				 M121.5,59.1c2.8,0,5.4-1.5,7.7-4.4l0.3-15.3c-8.9,2.7-13.4,7.1-13.4,13c0,2.1,0.5,3.7,1.5,4.9C118.6,58.5,119.9,59.1,121.5,59.1
				L121.5,59.1z"/>
			<path class="st1" d="M222.2,55.3c0,3.2,0.3,5.3,0.9,6.4c0.6,1.1,2,2.2,4.2,3.3v0.6h-23.8V65c2.4-1.2,3.8-2.4,4.4-3.5
				c0.6-1.1,0.9-3.1,1-6.2c0-2.4,0.1-8.4,0.1-18.2c0-2.7-0.6-4.7-1.9-6.1s-2.7-2.1-4.5-2.1c-2.8,0-5.3,1.8-7.5,5.4v21
				c0,3.2,0.3,5.3,0.9,6.4c0.6,1.1,2,2.2,4.2,3.3v0.6h-23.8V65c2.2-1.2,3.7-2.3,4.3-3.3c0.6-1.1,1-3.2,1-6.4c0-1.6,0.1-5.9,0.1-12.9
				c0-5.3-0.4-8.9-1.3-10.7c-0.9-1.8-2.4-2.7-4.6-2.7c-3.2,0-5.8,1.8-8,5.5v20.9c0,3.2,0.3,5.3,0.9,6.4s2,2.2,4.1,3.3v0.6h-23.7V65
				c2.2-1.2,3.6-2.3,4.2-3.3c0.6-1.1,0.9-3.2,0.9-6.4V37.4c0-3.9-0.3-6.4-0.9-7.7c-0.6-1.3-2-2.6-4.2-3.9v-0.6
				c6-0.3,12.1-1.5,18.4-3.3v9.6c3.9-6.3,8.8-9.4,14.7-9.4c2.6,0,5.2,0.7,7.6,2.2c2.4,1.5,4,3.9,4.7,7.2c3.9-6.3,8.8-9.4,14.8-9.4
				c1.3,0,2.7,0.2,4.1,0.6s2.7,1.1,4.1,1.9s2.4,2.2,3.3,4c0.9,1.8,1.3,3.9,1.3,6.4V55.3L222.2,55.3z"/>
			<path class="st1" d="M269.5,50.3c-0.3,1.7-0.9,3.3-1.5,4.9s-1.7,3.3-3,5.1c-1.3,1.8-3.2,3.3-5.7,4.4c-2.4,1.1-5.3,1.7-8.5,1.7
				c-6.3,0-11.5-2-15.6-6s-6.2-9.4-6.2-16.1c0-6.6,2-12,6.1-16.1s9.3-6.2,15.7-6.2c3.3,0,6.3,0.6,8.9,1.8c2.6,1.2,4.5,2.7,5.8,4.5
				c1.3,1.8,2.3,3.6,2.9,5.3c0.6,1.7,0.9,3.3,0.9,4.9v1.1h-28.1v1.2c0,5.6,1.5,9.7,4.6,12.4c3,2.7,6.7,4.1,10.9,4.1
				c5.7,0,9.8-2.4,12.2-7.2L269.5,50.3z M249.3,24.2c-2.3,0-4.1,1.2-5.5,3.5s-2.2,5.5-2.5,9.7l15.7-0.2c0-1.3-0.2-2.6-0.4-3.9
				c-0.2-1.3-0.6-2.7-1.2-4.1s-1.4-2.7-2.4-3.6C252,24.7,250.7,24.2,249.3,24.2L249.3,24.2z"/>
			<path class="st1" d="M271.8,65c2.2-1.2,3.6-2.3,4.2-3.3c0.6-1.1,0.9-3.2,0.9-6.4V36.7c0-3.4-0.3-5.8-0.9-7.1
				c-0.6-1.3-2.1-2.6-4.2-3.9v-0.6c6.1-0.3,12.2-1.5,18.4-3.3l-0.2,8.8h0.2c0.8-2.2,2.2-4.2,4.2-6s4.7-2.7,7.8-2.7
				c1.5,0,2.8,0.3,4.1,1L304.6,37H304c-3.7-4.8-6.8-7.2-9.3-7.2c-1.8,0-3.2,1.1-4.2,3.2v22.2c0,3.2,0.4,5.3,1.2,6.4
				c0.8,1.1,2.6,2.2,5.5,3.3v0.6h-25.4L271.8,65z"/>
			<path class="st1" d="M329.2,66.5c-5.9,0-10.9-2-15-6c-4.1-4-6.2-9.5-6.2-16.5c0-6.9,2-12.3,6.1-16.2s8.9-5.9,14.6-5.9
				c4,0,7.4,0.9,10.3,2.7c2.9,1.8,5.2,4.1,6.8,6.7l-8.9,6.9l-0.5-0.3c-0.3-3.3-1.2-6.4-2.6-9.4c-1.4-2.9-3.3-4.4-5.7-4.4
				c-2.2,0-4.1,1.3-5.7,4s-2.3,6.2-2.3,10.6c0,5.6,1.3,10.1,3.9,13.5c2.6,3.4,6.1,5.1,10.4,5.1c5.4,0,9.4-2.7,12.2-8.2l0.7,0.3
				c-0.8,4.6-2.7,8.5-5.7,11.8C338.8,64.7,334.6,66.4,329.2,66.5L329.2,66.5z"/>
			<path class="st1" d="M395.1,23.1v0.6c-2.1,1.5-3.6,2.8-4.6,4.2s-2,3.3-3.1,5.8c-8.6,20-13.5,31.1-14.7,33.4
				c-2.2,4.5-4.4,7.9-6.6,10.3c-2.1,2.4-4.7,4.7-7.6,6.7l-6.4-8.4l0.3-0.6l0.7,0.1h1c7.9,0,13-2.4,15.3-7.2l1.2-2.4l-17.6-35.6
				c-1.2-2.4-3.1-4.6-5.9-6.3v-0.6h25.4v0.6c-3,1.6-4.5,3.3-4.5,5.1c0,0.8,0.3,1.8,1,3.3l8.6,18.3c3.6-8,6-13.9,7.3-17.6
				c0.3-0.9,0.5-1.7,0.5-2.4c0-2.2-1.7-4.4-5.2-6.6v-0.6L395.1,23.1z"/>
		</g>
	</g>
</g>
<g id="Layer_1" class="st2">
	<circle class="st3" cx="237.8" cy="61.7" r="11.2"/>
	<path class="st4" d="M50.1,14.5h-0.6c-1.3-4.1-3.7-7.9-6.8-10.9c-3.1-3-7.4-4.6-11.8-4.5H23v25.8h6.9c2.5,0,5-0.7,7.1-2.1
		c1.9-1.3,3.6-3,4.8-5h0.4v17.6h-0.4c-3-5.3-6.9-7.9-11.9-7.8L23,27.7v21.5c0,3.5,0.5,5.8,1.5,6.9s3.3,2.4,7.1,3.7v0.6H1v-0.6
		c3-1.3,4.9-2.5,5.7-3.6s1.1-3.4,1.1-7V7.5c0-3.5-0.4-5.9-1.1-7S4.1-1.7,1-3.1v-0.6h47.6L50.1,14.5z"/>
	<path class="st4" d="M73.1,61.3c-7,0-12.6-2-16.8-5.9s-6.2-9.3-6.2-16.2s2.1-12.6,6.3-16.9s9.9-6.4,17-6.4c7,0,12.5,2,16.6,6
		s6.2,9.5,6.2,16.3S94.1,50.8,89.9,55S80.1,61.3,73.1,61.3L73.1,61.3z M75.1,59.1c2,0,3.7-1.1,5-3.2c1.4-2.1,2-5.3,2-9.5
		c0-2.6-0.2-5.2-0.6-7.8c-0.4-3.1-1-6.1-1.8-9.1c-0.6-2.8-1.8-5.5-3.5-7.9c-1.5-2.1-3.3-3.2-5.3-3.2s-3.6,1-5,3.2s-2,5.3-2,9.4
		c0,2.6,0.2,5.3,0.6,7.9c0.4,3.1,1,6.1,1.8,9.1c0.7,2.8,1.9,5.5,3.6,7.8C71.4,57.9,73.2,59,75.1,59.1L75.1,59.1z"/>
	<path class="st4" d="M98.4,59.9c2.3-1.2,3.7-2.3,4.3-3.4s0.9-3.2,0.9-6.5V31c0-3.5-0.3-5.9-1-7.2s-2.1-2.7-4.3-3.9v-0.6
		c6.4-0.4,12.7-1.5,18.7-3.4l-0.2,9h0.2c0.9-2.4,2.4-4.5,4.3-6.1c2.2-1.9,5.1-2.9,8-2.8c1.5,0,2.9,0.3,4.2,1l-1.8,14.4h-0.6
		c-3.8-4.9-6.9-7.4-9.5-7.3c-1.8,0-3.3,1.1-4.3,3.3V50c0,3.2,0.4,5.4,1.2,6.5s2.7,2.2,5.7,3.4v0.6H98.4V59.9z"/>
	<path class="st4" d="M169,53.6c7.9,2.1,11.9,6,12,11.8c0,3.3-1.5,6.3-4.1,8.2c-2.7,2.2-5.9,3.7-9.4,4.5c-3.6,0.8-7.2,1.2-10.9,1.2
		c-4.9,0.1-9.8-0.7-14.4-2.4c-4.3-1.6-6.5-3.8-6.5-6.7c0-1.4,0.6-2.7,1.5-3.8c1.1-1.2,2.4-2.1,3.9-2.8c1.6-0.7,2.8-1.2,3.7-1.5
		s1.8-0.6,2.6-0.8c-6-1.4-9.1-4.1-9.1-7.9c0.1-2.3,1.2-4.4,3-5.7c2.3-1.8,5-3,7.8-3.6c-7.9-1.9-11.9-6.4-12-13.5
		c0-4.7,1.7-8.3,5.2-10.9s7.8-3.9,13-3.9h1.8c4.1,0,7.1-0.7,9.1-2.1c1.8-1.1,3-2.8,3.4-4.9l9.9,3.3v0.4c-2.8,3.5-7.1,5.2-13,5.2
		c-1.7,0-3.5-0.1-5.2-0.4v0.4c10,1.9,15,6.4,15,13.5c0.1,4-1.9,7.7-5.2,9.8c-3.5,2.5-8.2,3.7-14.3,3.7c-1.7,0-3.3-0.1-5-0.3
		c-2.4,0.5-3.7,1.5-3.7,2.8c0,1.1,0.6,1.8,2,2l3.8,0.8c2.5,0.5,5.3,1.1,8.4,1.8c3.1,0.7,5.4,1.1,6.8,1.5L169,53.6z M157.9,77
		c3,0.1,6-0.5,8.7-1.6c2.4-1.1,3.6-2.7,3.6-4.7c0-1.4-0.6-2.7-1.6-3.5c-1.2-1.1-2.8-1.9-4.4-2.2c-1.3-0.3-6.2-1.3-14.5-2.9
		c-3.1,2-4.6,4.4-4.6,7.2c0,2.5,1.4,4.7,3.6,5.7C151.5,76.4,154.7,77.1,157.9,77L157.9,77z M155.4,18.2c-1.6,0-3.1,0.8-4,2.2
		c-1.1,1.5-1.6,3.6-1.6,6.5c0,2.3,0.3,4.5,0.8,6.7c0.5,2.3,1.5,4.5,2.8,6.5c1.4,2,3,3,4.9,3c1.6,0,3.1-0.8,3.9-2.1
		c1-1.4,1.5-3.5,1.5-6.3c0-3.8-0.8-7.5-2.2-11C160.1,20.1,158.1,18.2,155.4,18.2L155.4,18.2z"/>
	<path class="st4" d="M222.7,44.9c-0.3,1.7-0.9,3.4-1.6,4.9c-0.9,1.8-1.9,3.6-3.1,5.2c-1.5,2-3.5,3.5-5.8,4.5
		c-2.7,1.2-5.7,1.8-8.7,1.7c-5.9,0.2-11.7-2-15.9-6.1s-6.4-9.5-6.4-16.4s2.1-12.2,6.2-16.4s9.5-6.3,16-6.3c3.1-0.1,6.2,0.6,9.1,1.8
		c2.4,1,4.4,2.6,6,4.6c1.3,1.6,2.3,3.5,3,5.4c0.6,1.6,0.9,3.3,0.9,5v1.1h-28.7v1.2c0,5.7,1.6,9.9,4.7,12.7c3,2.7,7,4.2,11.1,4.2
		c5.8,0,10-2.4,12.5-7.4L222.7,44.9z M202.1,18.2c-2.3,0-4.2,1.2-5.6,3.6s-2.2,5.7-2.5,9.9l16-0.2c0-1.3-0.2-2.6-0.4-3.9
		c-0.3-1.4-0.6-2.8-1.2-4.2c-0.5-1.4-1.4-2.7-2.5-3.6C204.8,18.8,203.4,18.3,202.1,18.2L202.1,18.2z"/>
</g>
</svg>
