<?xml version="1.0" encoding="UTF-8"?><svg xmlns="http://www.w3.org/2000/svg" xmlns:xlink="http://www.w3.org/1999/xlink" contentScriptType="text/ecmascript" width="187.5" zoomAndPan="magnify" contentStyleType="text/css" viewBox="0 0 187.5 187.499995" height="187.499995" preserveAspectRatio="xMidYMid meet" version="1.0"><defs><clipPath id="clip-0"><path d="M 17 2 L 164 2 L 164 187 L 17 187 Z M 17 2 " clip-rule="nonzero"/></clipPath><clipPath id="clip-1"><path d="M 7.96875 55 L 31 55 L 31 81 L 7.96875 81 Z M 7.96875 55 " clip-rule="nonzero"/></clipPath><clipPath id="clip-2"><path d="M 157 85 L 179.71875 85 L 179.71875 110 L 157 110 Z M 157 85 " clip-rule="nonzero"/></clipPath></defs><g clip-path="url(#clip-0)"><path fill="rgb(100%, 100%, 100%)" d="M 163.867188 8.28125 C 163.867188 6.667969 163.226562 5.117188 162.082031 3.972656 C 160.9375 2.832031 159.386719 2.191406 157.769531 2.191406 C 133.933594 2.191406 47.207031 2.191406 23.371094 2.191406 C 21.753906 2.191406 20.203125 2.832031 19.058594 3.972656 C 17.914062 5.117188 17.273438 6.667969 17.273438 8.28125 C 17.273438 36.382812 17.273438 153.304688 17.273438 181.40625 C 17.273438 183.019531 17.914062 184.570312 19.058594 185.714844 C 20.203125 186.855469 21.753906 187.496094 23.371094 187.496094 C 47.207031 187.496094 133.933594 187.496094 157.769531 187.496094 C 159.386719 187.496094 160.9375 186.855469 162.082031 185.714844 C 163.226562 184.570312 163.867188 183.019531 163.867188 181.40625 C 163.867188 153.304688 163.867188 36.382812 163.867188 8.28125 " fill-opacity="1" fill-rule="evenodd"/></g><path fill="rgb(98.81897%, 87.449646%, 50.588989%)" d="M 163.867188 23.230469 L 17.273438 23.230469 L 17.273438 169.664062 L 163.867188 169.664062 L 163.867188 23.230469 " fill-opacity="1" fill-rule="evenodd"/><path fill="rgb(45.098877%, 19.999695%, 58.039856%)" d="M 54.511719 169.664062 C 54.707031 168.785156 54.921875 167.964844 55.011719 167.40625 C 56.140625 160.386719 59.328125 153.988281 62.644531 147.769531 L 108.355469 149.515625 C 109.6875 152.863281 110.644531 156.351562 111.59375 159.820312 C 112.027344 161.40625 113.304688 165.9375 113.828125 169.664062 L 54.511719 169.664062 " fill-opacity="1" fill-rule="evenodd"/><path fill="rgb(99.21875%, 73.728943%, 66.668701%)" d="M 52.6875 160.949219 L 52.566406 160.878906 C 52.679688 160.601562 52.882812 160.339844 53.035156 160.085938 C 53.371094 159.527344 53.699219 158.96875 54.039062 158.417969 C 54.175781 158.195312 53.148438 157.578125 53.46875 157.5625 C 53.691406 157.550781 56.054688 158.695312 56.402344 159.082031 C 56.894531 159.632812 57.585938 159.902344 58.097656 160.425781 C 58.523438 160.863281 58.707031 161.503906 59.171875 161.898438 C 59.394531 162.089844 59.652344 162.273438 59.914062 162.414062 C 60.085938 162.507812 60.292969 162.574219 60.433594 162.71875 C 60.644531 162.941406 60.722656 163.261719 60.832031 163.539062 C 60.878906 163.660156 60.953125 163.8125 60.9375 163.949219 C 60.910156 164.175781 60.617188 164.402344 60.417969 164.464844 C 59.941406 164.621094 59.449219 164.132812 59.039062 163.941406 C 58.640625 163.757812 58.214844 163.625 57.777344 163.523438 C 57.652344 164.015625 57.566406 164.515625 57.3125 164.96875 C 57.015625 165.496094 56.582031 165.914062 56.191406 166.371094 C 55.804688 166.824219 55.460938 167.296875 55.167969 167.816406 C 54.824219 168.421875 54.71875 169.132812 54.558594 169.804688 C 54.523438 169.957031 54.496094 170.117188 54.4375 170.261719 C 54.414062 170.316406 54.378906 170.398438 54.304688 170.390625 C 54.121094 170.378906 54.101562 170.054688 54.078125 169.929688 C 53.992188 169.425781 54.074219 168.917969 54.054688 168.414062 C 54.046875 168.199219 53.96875 167.996094 53.933594 167.785156 C 53.921875 167.71875 53.914062 167.652344 53.902344 167.582031 C 53.523438 165.851562 53.109375 164.125 52.988281 162.359375 C 52.964844 162.011719 52.941406 161.652344 52.84375 161.320312 C 52.816406 161.222656 52.722656 161.078125 52.6875 160.949219 " fill-opacity="1" fill-rule="evenodd"/><path fill="rgb(94.898987%, 94.898987%, 94.898987%)" d="M 27.558594 6.355469 C 31.003906 6.355469 33.804688 9.152344 33.804688 12.59375 C 33.804688 16.039062 31.003906 18.835938 27.558594 18.835938 C 24.109375 18.835938 21.308594 16.039062 21.308594 12.59375 C 21.308594 9.152344 24.109375 6.355469 27.558594 6.355469 " fill-opacity="1" fill-rule="evenodd"/><path fill="rgb(94.898987%, 94.898987%, 94.898987%)" d="M 64.695312 11.390625 C 64.695312 11.160156 64.605469 10.941406 64.445312 10.78125 C 64.28125 10.621094 64.0625 10.53125 63.835938 10.53125 C 59.816406 10.53125 42.9375 10.53125 38.921875 10.53125 C 38.691406 10.53125 38.472656 10.621094 38.3125 10.78125 C 38.152344 10.941406 38.0625 11.160156 38.0625 11.390625 C 38.0625 11.925781 38.0625 12.613281 38.0625 13.152344 C 38.0625 13.378906 38.152344 13.597656 38.3125 13.757812 C 38.472656 13.921875 38.691406 14.011719 38.921875 14.011719 C 42.9375 14.011719 59.816406 14.011719 63.835938 14.011719 C 64.0625 14.011719 64.28125 13.921875 64.445312 13.757812 C 64.605469 13.597656 64.695312 13.378906 64.695312 13.152344 C 64.695312 12.613281 64.695312 11.925781 64.695312 11.390625 " fill-opacity="1" fill-rule="evenodd"/><path fill="rgb(94.898987%, 94.898987%, 94.898987%)" d="M 153.210938 12.023438 C 153.550781 12.023438 153.828125 12.300781 153.828125 12.640625 C 153.828125 12.980469 153.550781 13.257812 153.210938 13.257812 C 152.867188 13.257812 152.589844 12.980469 152.589844 12.640625 C 152.589844 12.300781 152.867188 12.023438 153.210938 12.023438 " fill-opacity="1" fill-rule="evenodd"/><path fill="rgb(94.898987%, 94.898987%, 94.898987%)" d="M 155.359375 12.023438 C 155.699219 12.023438 155.976562 12.300781 155.976562 12.640625 C 155.976562 12.980469 155.699219 13.257812 155.359375 13.257812 C 155.019531 13.257812 154.742188 12.980469 154.742188 12.640625 C 154.742188 12.300781 155.019531 12.023438 155.359375 12.023438 " fill-opacity="1" fill-rule="evenodd"/><path fill="rgb(94.898987%, 94.898987%, 94.898987%)" d="M 157.527344 12.023438 C 157.867188 12.023438 158.144531 12.300781 158.144531 12.640625 C 158.144531 12.980469 157.867188 13.257812 157.527344 13.257812 C 157.1875 13.257812 156.910156 12.980469 156.910156 12.640625 C 156.910156 12.300781 157.1875 12.023438 157.527344 12.023438 " fill-opacity="1" fill-rule="evenodd"/><path fill="rgb(94.898987%, 94.898987%, 94.898987%)" d="M 27.484375 176.28125 C 28.363281 174.714844 30.121094 174.714844 31 175.5 C 31.878906 176.28125 31.878906 177.847656 31 179.414062 C 30.382812 180.585938 28.800781 181.761719 27.484375 182.542969 C 26.164062 181.761719 24.582031 180.585938 23.964844 179.414062 C 23.085938 177.847656 23.085938 176.28125 23.964844 175.5 C 24.84375 174.714844 26.601562 174.714844 27.484375 176.28125 " fill-opacity="1" fill-rule="evenodd"/><path fill="rgb(94.898987%, 94.898987%, 94.898987%)" d="M 44.730469 182.136719 C 44.261719 182.34375 43.738281 182.457031 43.191406 182.457031 C 41.066406 182.457031 39.339844 180.734375 39.339844 178.609375 C 39.339844 176.488281 41.066406 174.765625 43.191406 174.765625 C 45.316406 174.765625 47.039062 176.488281 47.039062 178.609375 C 47.039062 179.464844 46.761719 180.25 46.292969 180.890625 L 47.222656 182.761719 L 44.730469 182.136719 " fill-opacity="1" fill-rule="evenodd"/><path fill="rgb(94.898987%, 94.898987%, 94.898987%)" d="M 56.703125 178.238281 L 53.304688 175.238281 L 62.402344 174.871094 L 57.703125 182.660156 L 56.703125 178.238281 " fill-opacity="1" fill-rule="evenodd"/><path fill="rgb(94.898987%, 94.898987%, 94.898987%)" d="M 149.875 174.289062 L 157.851562 174.289062 L 157.851562 183.578125 L 153.863281 179.667969 L 149.875 183.578125 L 149.875 174.289062 " fill-opacity="1" fill-rule="evenodd"/><path fill="rgb(14.898682%, 19.60907%, 21.958923%)" d="M 114.59375 24.121094 C 115.609375 23.824219 116.605469 23.441406 117.464844 22.808594 C 125.984375 16.519531 109.078125 0 105 12.265625 C 104.714844 13.121094 104.570312 13.984375 104.488281 14.859375 C 95.894531 10.800781 83.425781 10.015625 76.835938 17.050781 C 73.265625 20.863281 72.128906 26.78125 70.902344 31.699219 L 62.515625 53.601562 C 60.117188 59.9375 52.207031 64.511719 53.632812 71.960938 C 54.105469 74.429688 56.59375 76.125 57.929688 78.105469 C 62.136719 84.332031 66.316406 93.390625 73.886719 95.824219 C 82.445312 98.578125 92.152344 96.027344 100.960938 96.8125 C 109.0625 97.53125 118.640625 102.730469 126.402344 98.21875 C 132.761719 94.523438 135.367188 86.847656 137.671875 80.300781 C 138.683594 77.4375 139.710938 74.484375 140.089844 71.457031 C 141.648438 59 130.402344 55.929688 125.53125 46.527344 C 123.316406 42.253906 123.019531 37.488281 121.1875 33.125 C 119.796875 29.804688 117.367188 27.457031 115.109375 24.75 C 114.933594 24.542969 114.761719 24.332031 114.59375 24.121094 " fill-opacity="1" fill-rule="evenodd"/><path fill="rgb(99.21875%, 73.728943%, 66.668701%)" d="M 79.648438 63.707031 C 78.988281 66.261719 78.3125 68.800781 77.855469 71.402344 C 77.726562 72.125 77.171875 73.507812 77.539062 74.234375 C 78.25 75.644531 80.164062 76.035156 81.550781 76.339844 C 85.3125 77.167969 89.101562 76.855469 92.867188 76.191406 C 93.929688 76.003906 94.984375 75.785156 96.054688 75.617188 C 96.332031 75.570312 97.046875 75.609375 97.257812 75.386719 C 97.5 75.140625 100.015625 61.160156 100.648438 58.121094 L 79.648438 63.707031 " fill-opacity="1" fill-rule="evenodd"/><path fill="rgb(98.039246%, 59.609985%, 49.01886%)" d="M 90.78125 60.746094 C 90.929688 60.757812 91.082031 60.769531 91.234375 60.78125 C 92.757812 60.886719 94.28125 60.910156 95.808594 60.921875 C 96.191406 60.925781 97.074219 60.792969 97.410156 61.070312 C 97.6875 61.296875 96.875 62.386719 96.761719 62.574219 C 95.851562 64.101562 94.921875 65.410156 93.421875 66.421875 C 89.09375 69.335938 83.363281 70.425781 78.132812 69.953125 C 78.5625 67.851562 79.109375 65.785156 79.648438 63.707031 L 90.78125 60.746094 " fill-opacity="1" fill-rule="evenodd"/><path fill="rgb(99.21875%, 73.728943%, 66.668701%)" d="M 100.316406 54.664062 C 102.46875 52.703125 104.289062 50.535156 105.371094 47.675781 C 108.222656 40.125 107.453125 32.363281 103.296875 25.644531 C 101.808594 23.238281 100.0625 20.890625 97.863281 19.078125 C 96.714844 18.128906 95.332031 17.554688 93.972656 16.980469 C 92.253906 16.257812 90.59375 15.574219 88.710938 15.425781 C 81.542969 14.855469 75.433594 19.566406 72.589844 25.839844 C 71.722656 27.75 71.140625 29.914062 71.113281 32.019531 C 71.101562 33.171875 71.296875 34.3125 71.265625 35.460938 C 71.222656 37.011719 70.527344 38.1875 69.960938 39.578125 C 69.394531 40.972656 68.84375 42.59375 68.601562 44.1875 C 68.089844 46.535156 67.890625 48.9375 68.109375 51.367188 C 68.332031 53.8125 69.171875 55.769531 70.324219 57.914062 C 71.675781 60.433594 72.890625 63.191406 75.171875 65.039062 C 76.90625 66.445312 79.613281 66.558594 81.71875 66.675781 C 85.105469 66.859375 88.863281 67.035156 92.179688 66.101562 C 93.554688 65.714844 95.070312 65.160156 96.34375 64.503906 C 97.089844 64.121094 97.808594 63.460938 98.644531 63.28125 C 99.613281 63.070312 100.6875 63.640625 101.640625 63.804688 C 103.753906 64.167969 105.433594 64.097656 107.316406 62.90625 C 110.175781 61.101562 112.296875 58.792969 113.589844 55.679688 C 113.871094 54.996094 114.234375 54.117188 114.152344 53.359375 C 113.996094 51.867188 111.652344 50.734375 110.3125 50.628906 C 108.976562 50.527344 107.675781 51.320312 106.554688 51.941406 C 104.613281 53.011719 102.636719 54.023438 100.550781 54.789062 L 100.316406 54.664062 " fill-opacity="1" fill-rule="evenodd"/><path fill="rgb(0%, 0%, 0%)" d="M 94.652344 40.621094 C 93.257812 40.378906 91.898438 41.488281 91.621094 43.09375 C 91.347656 44.699219 92.253906 46.199219 93.648438 46.4375 C 95.042969 46.679688 96.398438 45.570312 96.675781 43.964844 C 96.953125 42.359375 96.042969 40.859375 94.652344 40.621094 " fill-opacity="1" fill-rule="evenodd"/><path fill="rgb(0%, 0%, 0%)" d="M 76.773438 37.019531 C 75.378906 36.777344 74.019531 37.886719 73.746094 39.492188 C 73.46875 41.097656 74.375 42.597656 75.769531 42.835938 C 77.164062 43.078125 78.519531 41.96875 78.796875 40.363281 C 79.074219 38.757812 78.164062 37.257812 76.773438 37.019531 " fill-opacity="1" fill-rule="evenodd"/><path fill="rgb(99.21875%, 71.369934%, 63.919067%)" d="M 82.125 43.488281 C 80.160156 42.179688 77.585938 42.734375 75.515625 43.347656 C 74.738281 43.574219 73.980469 43.984375 73.160156 44.023438 C 72.121094 44.070312 70.753906 43.253906 69.757812 43.625 C 68.765625 43.996094 68.664062 45.710938 68.511719 46.605469 C 68.429688 47.085938 68.265625 47.515625 68.714844 47.84375 C 69.410156 48.355469 70.640625 48.472656 71.46875 48.617188 C 72.707031 48.828125 74.054688 49.050781 75.304688 49.089844 C 76.605469 49.132812 77.886719 48.953125 79.1875 49.105469 C 81.523438 49.378906 83.578125 50.734375 85.78125 51.453125 C 88.617188 52.375 92.519531 52.902344 95.464844 53.144531 C 96.832031 53.253906 98.476562 53.128906 99.476562 52.058594 C 100.035156 51.460938 100.503906 50.164062 99.753906 49.523438 C 99.214844 49.058594 98.371094 49.085938 97.707031 48.941406 C 96.121094 48.597656 94.484375 48.273438 92.933594 47.796875 L 82.125 43.488281 " fill-opacity="1" fill-rule="evenodd"/><path fill="rgb(0%, 0%, 0%)" d="M 89.363281 42.066406 C 89.542969 41.859375 89.753906 41.675781 89.984375 41.507812 C 90.328125 41.261719 90.703125 41.0625 91.0625 40.886719 C 91.691406 40.589844 92.332031 40.257812 93.007812 40.078125 C 93.5 39.949219 94.003906 39.910156 94.527344 39.992188 C 95.125 40.09375 95.65625 40.3125 96.160156 40.585938 C 96.816406 40.945312 97.417969 41.40625 98.046875 41.820312 C 98.417969 42.070312 98.800781 42.308594 99.230469 42.46875 C 99.425781 42.574219 99.613281 42.652344 99.808594 42.71875 C 99.957031 42.765625 100.085938 42.824219 100.234375 42.859375 C 100.628906 42.960938 100.996094 43.019531 101.441406 43.0625 C 101.136719 43.199219 100.882812 43.316406 100.589844 43.414062 C 100.378906 43.480469 100.183594 43.523438 99.964844 43.554688 C 99.746094 43.589844 99.53125 43.597656 99.296875 43.578125 C 99.152344 43.566406 99.007812 43.523438 98.855469 43.484375 C 98.269531 43.273438 97.742188 42.96875 97.242188 42.613281 C 96.574219 42.136719 95.964844 41.574219 95.230469 41.191406 C 94.957031 41.046875 94.667969 40.921875 94.347656 40.839844 C 93.945312 40.734375 93.550781 40.730469 93.15625 40.789062 C 92.503906 40.886719 91.867188 41.125 91.242188 41.332031 C 90.882812 41.449219 90.503906 41.589844 90.15625 41.78125 C 89.925781 41.90625 89.707031 42.046875 89.515625 42.214844 C 89.472656 42.257812 89.40625 42.257812 89.363281 42.214844 C 89.320312 42.175781 89.320312 42.105469 89.363281 42.066406 " fill-opacity="1" fill-rule="evenodd"/><path fill="rgb(0%, 0%, 0%)" d="M 78.664062 39.402344 C 78.53125 38.785156 78.125 38.273438 77.605469 37.859375 C 76.851562 37.257812 75.839844 36.898438 75.007812 36.828125 C 74.636719 36.792969 74.28125 36.828125 73.929688 36.882812 C 73.480469 36.957031 73.046875 37.082031 72.605469 37.191406 C 72.128906 37.308594 71.644531 37.414062 71.148438 37.460938 C 70.882812 37.476562 70.632812 37.492188 70.390625 37.453125 C 70.21875 37.429688 70.058594 37.390625 69.898438 37.332031 C 69.601562 37.21875 69.339844 37.082031 69.074219 36.898438 C 68.824219 36.726562 68.617188 36.554688 68.375 36.335938 C 68.789062 36.398438 69.132812 36.414062 69.519531 36.421875 C 69.789062 36.433594 70.03125 36.394531 70.304688 36.386719 C 70.542969 36.378906 70.789062 36.386719 71.050781 36.351562 C 71.496094 36.316406 71.933594 36.226562 72.367188 36.136719 C 72.847656 36.039062 73.324219 35.945312 73.808594 35.90625 C 74.242188 35.867188 74.683594 35.875 75.132812 35.957031 C 75.921875 36.117188 76.832031 36.515625 77.554688 37.121094 C 78.277344 37.71875 78.816406 38.496094 78.875 39.371094 C 78.882812 39.429688 78.84375 39.484375 78.785156 39.496094 C 78.726562 39.503906 78.671875 39.460938 78.664062 39.402344 " fill-opacity="1" fill-rule="evenodd"/><path fill="rgb(14.898682%, 19.60907%, 21.958923%)" d="M 71.738281 32.839844 C 71.871094 32.703125 72.03125 32.59375 72.203125 32.488281 C 72.445312 32.335938 72.707031 32.210938 72.949219 32.085938 C 73.476562 31.828125 74.09375 31.648438 74.75 31.570312 C 75.367188 31.496094 76.015625 31.515625 76.636719 31.628906 C 76.933594 31.683594 77.226562 31.753906 77.5 31.871094 C 77.621094 31.921875 77.738281 31.972656 77.84375 32.046875 C 77.957031 32.132812 78.046875 32.214844 78.136719 32.324219 C 78.367188 32.59375 78.5 32.808594 78.652344 33.109375 C 78.289062 33.023438 78.007812 33.035156 77.617188 33.007812 C 77.558594 33.003906 77.511719 33.003906 77.453125 32.996094 C 77.378906 32.980469 77.300781 32.964844 77.226562 32.941406 C 76.984375 32.871094 76.738281 32.789062 76.488281 32.722656 C 76.109375 32.628906 75.722656 32.546875 75.335938 32.503906 C 74.882812 32.453125 74.441406 32.433594 74.011719 32.464844 C 73.707031 32.492188 73.414062 32.523438 73.136719 32.59375 C 72.886719 32.65625 72.613281 32.710938 72.347656 32.800781 C 72.179688 32.855469 72.015625 32.917969 71.871094 33.007812 C 71.824219 33.042969 71.757812 33.035156 71.71875 32.992188 C 71.683594 32.945312 71.691406 32.875 71.738281 32.839844 " fill-opacity="1" fill-rule="evenodd"/><path fill="rgb(14.898682%, 19.60907%, 21.958923%)" d="M 100.183594 37.816406 C 99.566406 36.921875 98.5 36.164062 97.328125 35.609375 C 96.777344 35.347656 96.210938 35.140625 95.648438 34.988281 C 95.058594 34.832031 94.476562 34.742188 93.949219 34.753906 C 93.75 34.753906 93.558594 34.773438 93.363281 34.792969 C 93.226562 34.804688 93.089844 34.820312 92.953125 34.824219 C 92.667969 34.832031 92.40625 34.808594 92.117188 34.800781 C 91.808594 34.789062 91.546875 34.765625 91.238281 34.742188 C 91.5 34.570312 91.707031 34.417969 91.964844 34.246094 C 92.121094 34.144531 92.257812 34.058594 92.421875 33.972656 C 92.527344 33.914062 92.628906 33.863281 92.746094 33.820312 C 92.894531 33.765625 93.050781 33.730469 93.207031 33.703125 C 93.453125 33.65625 93.699219 33.640625 93.949219 33.640625 C 94.578125 33.660156 95.265625 33.785156 95.949219 34.03125 C 96.554688 34.246094 97.15625 34.539062 97.722656 34.902344 C 98.886719 35.65625 99.867188 36.660156 100.371094 37.707031 C 100.398438 37.757812 100.382812 37.824219 100.332031 37.855469 C 100.277344 37.882812 100.214844 37.867188 100.183594 37.816406 " fill-opacity="1" fill-rule="evenodd"/><path fill="rgb(0%, 0%, 0%)" d="M 81.730469 42.277344 C 81.527344 42.703125 81.433594 43.171875 81.34375 43.636719 C 81.261719 44.050781 81.183594 44.460938 80.992188 44.839844 C 80.761719 45.296875 80.503906 45.792969 80.148438 46.167969 C 80.011719 46.308594 79.839844 46.425781 79.691406 46.554688 C 79.488281 46.730469 79.3125 46.925781 79.214844 47.1875 C 79.058594 47.617188 79.175781 48.121094 79.214844 48.5625 C 79.226562 48.746094 79.386719 48.882812 79.570312 48.867188 C 79.753906 48.851562 79.886719 48.691406 79.875 48.511719 C 79.855469 48.3125 79.816406 48.097656 79.800781 47.886719 C 79.785156 47.726562 79.785156 47.5625 79.839844 47.414062 C 79.894531 47.265625 80.003906 47.15625 80.121094 47.058594 C 80.289062 46.914062 80.472656 46.78125 80.625 46.625 C 81.027344 46.203125 81.324219 45.652344 81.582031 45.140625 C 81.804688 44.707031 81.902344 44.234375 81.992188 43.765625 C 82.074219 43.351562 82.148438 42.941406 82.328125 42.566406 C 82.40625 42.398438 82.339844 42.203125 82.175781 42.125 C 82.007812 42.042969 81.8125 42.113281 81.730469 42.277344 " fill-opacity="1" fill-rule="evenodd"/><path fill="rgb(14.898682%, 19.60907%, 21.958923%)" d="M 98.261719 22.035156 C 97.394531 21.558594 96.460938 21.167969 95.648438 20.671875 C 94.824219 20.167969 94.035156 19.398438 93.011719 19.351562 C 91.332031 19.273438 89.640625 20.273438 88.199219 21.003906 C 84.703125 22.773438 81.300781 24.800781 78.292969 27.316406 C 76.285156 28.996094 74.359375 30.820312 72.707031 32.855469 C 72.070312 33.640625 71.472656 34.460938 70.835938 35.246094 C 70.78125 35.316406 70.320312 35.972656 70.164062 35.789062 C 69.742188 35.285156 69.808594 32.519531 69.800781 31.832031 C 69.742188 27.375 71.054688 22.847656 73.914062 19.375 C 78 14.410156 85.492188 11.21875 91.882812 13.179688 C 95.113281 14.171875 98.070312 16.859375 100.09375 19.488281 L 100.097656 19.863281 L 102.429688 20.191406 C 106.957031 23.550781 111.558594 27.832031 111.621094 33.898438 C 111.664062 37.902344 109.894531 41.953125 108.703125 45.71875 C 108.410156 46.648438 108.042969 47.542969 107.441406 48.320312 C 107.300781 48.5 106.996094 48.960938 106.71875 48.941406 C 106.054688 48.894531 105.195312 47.210938 104.882812 46.761719 C 103.199219 44.339844 101.742188 41.808594 100.78125 39.007812 C 99.953125 36.585938 99.261719 34.105469 98.71875 31.605469 C 98.011719 28.335938 98.03125 25.25 98.261719 22.035156 " fill-opacity="1" fill-rule="evenodd"/><path fill="rgb(99.21875%, 73.728943%, 66.668701%)" d="M 132.511719 123.253906 C 132.40625 122.195312 132.300781 121.132812 132.191406 120.074219 C 131.582031 114.042969 130.863281 108.035156 130.152344 102.015625 C 129.632812 97.617188 129.238281 93.34375 128.050781 89.054688 C 127.503906 87.082031 126.9375 84.902344 125.511719 83.363281 C 124.355469 82.113281 122.679688 81.390625 121.007812 81.191406 C 113.253906 80.261719 108.890625 87.683594 107.632812 94.285156 C 106.011719 102.769531 107.734375 111.226562 110.085938 119.367188 C 111.964844 125.890625 113.984375 132.238281 116.59375 138.511719 C 117.988281 141.871094 119.371094 145.28125 120.972656 148.550781 C 121.644531 149.914062 122.246094 151.480469 123.195312 152.71875 C 123.359375 153.160156 123.566406 153.558594 123.847656 153.792969 C 124.449219 154.292969 126.632812 152.667969 127.089844 152.402344 C 129.128906 151.21875 132.433594 150.128906 133.957031 148.066406 L 134.691406 147.703125 C 134.761719 147.117188 134.785156 146.511719 134.773438 145.898438 C 135.117188 141.925781 134.414062 137.609375 133.976562 133.667969 C 133.59375 130.199219 133.101562 126.722656 132.511719 123.253906 " fill-opacity="1" fill-rule="evenodd"/><path fill="rgb(99.21875%, 73.728943%, 66.668701%)" d="M 9.066406 134.578125 C 9.472656 133.691406 10.042969 132.527344 10.21875 132.148438 C 11.488281 128.367188 13.855469 124.6875 15.828125 121.25 C 17.566406 118.222656 19.40625 115.230469 21.332031 112.28125 C 21.851562 111.351562 22.371094 110.425781 22.890625 109.496094 C 25.859375 104.207031 28.917969 98.980469 31.972656 93.746094 C 34.203125 89.917969 36.269531 86.15625 39.070312 82.699219 C 40.359375 81.109375 41.75 79.335938 43.671875 78.488281 C 45.230469 77.804688 47.058594 77.808594 48.671875 78.289062 C 56.152344 80.527344 57.191406 89.074219 55.710938 95.625 C 53.808594 104.050781 48.851562 111.125 43.449219 117.652344 C 39.121094 122.882812 34.734375 127.902344 29.839844 132.617188 C 29.074219 133.351562 28.308594 134.09375 27.535156 134.832031 C 28.808594 135.742188 30.003906 136.78125 31.230469 137.789062 C 34.132812 140.160156 37.035156 142.535156 39.894531 144.953125 C 45.800781 149.953125 50.695312 155.648438 57.167969 159.914062 C 60.484375 162.097656 57.40625 163.800781 54.117188 162.792969 C 47.910156 160.890625 17.164062 151.035156 11.789062 143.886719 C 10.355469 141.984375 8.167969 138.539062 8.535156 136.003906 C 8.609375 135.488281 8.796875 135.011719 9.066406 134.578125 " fill-opacity="1" fill-rule="evenodd"/><path fill="rgb(98.81897%, 65.879822%, 12.548828%)" d="M 75.703125 75.816406 L 77.074219 70.359375 C 82.339844 70.359375 87.621094 70.910156 92.871094 71.277344 C 94.378906 71.382812 95.886719 71.492188 97.375 71.757812 C 97.738281 71.824219 98.566406 71.816406 98.839844 72.109375 C 99.15625 72.445312 98.816406 73.53125 98.765625 73.910156 C 98.601562 75.128906 98.398438 76.339844 98.203125 77.550781 C 100.875 77.363281 106.113281 77.1875 108.75 77.1875 C 113 77.1875 117.492188 77.398438 121.328125 79.441406 C 124.316406 81.035156 126.992188 84.144531 128.136719 87.199219 C 130.378906 93.1875 130.570312 99.882812 132.164062 106.070312 C 132.789062 108.492188 133.339844 110.941406 133.828125 113.390625 C 133.960938 114.050781 134.515625 115.574219 134.050781 116.203125 C 133.417969 117.0625 127.386719 117.90625 126.230469 118.164062 C 122.101562 119.085938 117.957031 119.992188 113.804688 120.835938 C 113.222656 125.632812 112.523438 130.199219 112.082031 133.597656 C 111.203125 140.414062 110.351562 144.503906 109.277344 151.292969 C 108.953125 153.328125 60.882812 152.453125 60.394531 149.699219 C 59.964844 147.277344 59.515625 144.859375 59.09375 142.433594 C 58.40625 138.464844 57.816406 134.476562 57.261719 130.484375 C 56.554688 125.378906 55.890625 120.273438 55.097656 115.183594 C 54.730469 112.820312 54.183594 110.320312 53.96875 107.859375 C 53.492188 108.398438 53.019531 108.945312 52.554688 109.496094 C 51.511719 110.726562 49.253906 114.765625 47.46875 115.109375 C 46.847656 115.230469 45.4375 114.195312 44.910156 113.957031 C 42.507812 112.859375 40.050781 111.875 37.648438 110.761719 C 34.484375 109.296875 31.308594 107.847656 28.15625 106.355469 C 27.449219 106.019531 25.25 105.355469 24.996094 104.445312 C 24.828125 103.851562 29.046875 97.507812 29.460938 96.84375 C 33.722656 90.078125 37.707031 80.308594 45.410156 76.714844 C 53.324219 73.023438 65.65625 75.34375 71.863281 75.84375 C 73.328125 75.960938 75.523438 75.816406 75.703125 75.816406 " fill-opacity="1" fill-rule="evenodd"/><path fill="rgb(100%, 100%, 100%)" d="M 91.542969 152.402344 C 91.300781 152.101562 91.058594 151.800781 90.816406 151.5 C 90.488281 151.101562 90.15625 150.707031 89.832031 150.300781 C 89.371094 149.71875 88.921875 149.117188 88.5 148.484375 C 88.066406 147.832031 87.632812 147.171875 87.261719 146.457031 C 87.203125 146.347656 87.148438 146.238281 87.097656 146.128906 C 86.875 146.175781 86.609375 146.203125 86.523438 146.222656 C 86.15625 146.320312 85.792969 146.417969 85.429688 146.53125 C 85.066406 146.640625 84.707031 146.761719 84.347656 146.886719 C 83.578125 147.167969 82.8125 147.480469 82.050781 147.804688 C 81.535156 148.019531 81.023438 148.246094 80.5 148.429688 C 79.929688 148.625 79.34375 148.78125 78.742188 148.863281 C 78.308594 148.921875 77.46875 149 76.890625 148.675781 C 76.554688 148.488281 76.292969 148.179688 76.175781 147.707031 C 75.949219 146.816406 76.34375 146.160156 77.078125 145.738281 C 78.273438 145.046875 80.394531 144.972656 81.058594 144.953125 C 81.667969 144.976562 82.28125 145.003906 82.898438 145.050781 C 83.820312 145.121094 84.742188 145.214844 85.664062 145.308594 C 85.726562 145.316406 85.820312 145.339844 85.933594 145.371094 C 86.023438 145.335938 86.113281 145.300781 86.207031 145.265625 C 86.265625 145.242188 86.476562 145.179688 86.65625 145.125 C 86.476562 144.6875 86.304688 144.246094 86.117188 143.808594 C 86.023438 143.59375 85.917969 143.378906 85.816406 143.160156 C 85.234375 141.910156 84.667969 140.636719 84.171875 139.324219 C 83.964844 138.765625 83.761719 138.203125 83.578125 137.632812 C 83.488281 137.355469 83.402344 137.082031 83.320312 136.804688 C 83.183594 136.742188 83.066406 136.609375 83.003906 136.4375 C 82.835938 135.84375 82.679688 135.25 82.453125 134.671875 C 82.117188 133.816406 81.664062 133.015625 81.214844 132.226562 C 81.152344 132.117188 81.082031 132.007812 81.023438 131.890625 C 80.785156 131.410156 80.628906 130.898438 80.34375 130.457031 C 79.847656 129.683594 79.191406 129.085938 78.527344 128.507812 C 78.347656 128.332031 78.089844 128.140625 77.792969 127.933594 C 77.707031 127.964844 77.574219 127.960938 77.417969 127.785156 C 77.390625 127.757812 77.335938 127.683594 77.265625 127.5625 L 77.257812 127.550781 C 76.6875 127.140625 76.078125 126.683594 75.613281 126.195312 C 75.113281 125.675781 74.773438 125.117188 74.769531 124.519531 C 74.761719 124.390625 74.777344 124.261719 74.816406 124.152344 C 74.859375 124.03125 74.941406 123.9375 75.046875 123.882812 C 75.304688 123.742188 75.585938 123.84375 75.863281 124.058594 C 76.015625 124.171875 76.164062 124.332031 76.300781 124.507812 C 76.238281 124.246094 76.1875 123.988281 76.160156 123.761719 C 76.082031 123.078125 76.222656 122.597656 76.667969 122.546875 C 76.792969 122.53125 76.921875 122.5625 77.046875 122.628906 C 77.207031 122.714844 77.359375 122.859375 77.476562 123.019531 C 77.882812 123.523438 78.070312 124.117188 78.148438 124.730469 C 78.257812 125.585938 78.121094 126.476562 77.957031 127.214844 L 77.972656 127.257812 C 77.980469 127.289062 77.980469 127.289062 77.992188 127.320312 L 78 127.347656 C 78.335938 127.570312 78.625 127.78125 78.835938 127.976562 C 79.484375 128.65625 80.003906 129.46875 80.582031 130.21875 C 80.898438 130.628906 81.242188 130.972656 81.558594 131.386719 C 81.589844 131.429688 81.621094 131.46875 81.652344 131.511719 C 81.691406 131.578125 81.726562 131.648438 81.761719 131.714844 C 81.941406 132.046875 82.105469 132.382812 82.261719 132.722656 C 81.9375 131.265625 81.667969 129.816406 81.429688 128.394531 C 81.367188 128.003906 81.308594 127.617188 81.242188 127.230469 C 81.175781 126.84375 81.101562 126.457031 81.039062 126.070312 C 80.953125 125.597656 80.699219 124.875 80.398438 124.050781 C 80.335938 123.992188 80.28125 123.917969 80.242188 123.828125 C 80.191406 123.707031 80.171875 123.582031 80.1875 123.472656 C 80.039062 123.070312 79.886719 122.652344 79.746094 122.234375 C 79.542969 121.644531 79.359375 121.054688 79.230469 120.511719 C 79.085938 119.902344 79.015625 119.347656 79.027344 118.90625 C 79.042969 118.390625 79.175781 118.011719 79.429688 117.796875 C 79.605469 117.648438 79.785156 117.632812 79.953125 117.703125 C 80.128906 117.773438 80.320312 117.953125 80.480469 118.269531 C 80.632812 118.570312 80.773438 119.011719 80.894531 119.53125 C 80.972656 119.867188 81.039062 120.234375 81.097656 120.613281 C 81.257812 120.171875 81.445312 119.753906 81.652344 119.429688 C 82.085938 118.746094 82.613281 118.488281 83.164062 118.960938 C 83.816406 119.503906 83.816406 120.308594 83.441406 121.152344 C 82.988281 122.175781 81.957031 123.261719 81.304688 123.816406 C 81.28125 123.988281 81.246094 124.117188 81.207031 124.195312 C 81.15625 124.289062 81.09375 124.34375 81.027344 124.363281 L 81.023438 124.367188 C 81.214844 125.0625 81.367188 125.660156 81.410156 126.066406 C 81.453125 126.433594 81.492188 126.804688 81.546875 127.175781 C 81.601562 127.542969 81.667969 127.910156 81.738281 128.28125 C 82.164062 130.605469 82.746094 132.992188 83.453125 135.359375 C 83.578125 135.621094 83.699219 135.882812 83.8125 136.148438 C 83.867188 136.296875 83.867188 136.449219 83.828125 136.570312 C 83.875 136.722656 83.921875 136.871094 83.972656 137.023438 C 84.058594 137.292969 84.152344 137.558594 84.238281 137.828125 C 84.441406 138.457031 84.640625 139.082031 84.855469 139.703125 C 85.269531 140.902344 85.714844 142.078125 86.210938 143.21875 C 86.257812 143.324219 86.300781 143.429688 86.351562 143.53125 C 86.488281 143.804688 86.636719 144.074219 86.792969 144.332031 C 86.8125 143.496094 86.894531 142.589844 87.003906 141.664062 C 87.097656 140.875 87.1875 140.066406 87.335938 139.296875 C 87.546875 138.195312 87.789062 137.128906 88.167969 136.3125 C 88.277344 136.070312 88.410156 135.863281 88.539062 135.667969 C 88.703125 135.414062 89.339844 134.84375 89.972656 134.441406 C 90.21875 134.285156 90.453125 134.136719 90.679688 134.074219 C 91.179688 133.9375 91.613281 134.128906 91.84375 134.875 C 91.996094 135.375 91.90625 136.0625 91.671875 136.792969 C 91.519531 137.269531 91.3125 137.769531 91.078125 138.234375 C 90.667969 139.042969 90.195312 139.746094 89.960938 140.144531 C 89.4375 141.023438 88.914062 141.910156 88.453125 142.851562 C 88.144531 143.472656 87.863281 144.117188 87.628906 144.796875 L 87.625 144.800781 C 87.644531 145.015625 87.667969 145.222656 87.695312 145.421875 C 87.699219 145.484375 87.695312 145.542969 87.6875 145.601562 C 87.683594 145.644531 87.675781 145.683594 87.664062 145.726562 C 87.746094 145.855469 87.824219 145.980469 87.902344 146.109375 C 88.28125 146.746094 88.632812 147.398438 89.023438 148.015625 C 89.683594 149.054688 90.394531 150.035156 91.167969 150.9375 C 91.605469 151.445312 92.058594 151.929688 92.519531 152.40625 C 92.222656 152.40625 91.929688 152.402344 91.632812 152.402344 Z M 84.957031 145.773438 C 84.453125 145.777344 83.949219 145.785156 83.445312 145.796875 C 82.6875 145.8125 81.9375 145.832031 81.191406 145.875 C 80.648438 145.875 79.070312 145.890625 77.914062 146.289062 C 77.484375 146.4375 77.109375 146.628906 76.894531 146.917969 C 76.757812 147.101562 76.691406 147.328125 76.757812 147.613281 C 76.824219 147.902344 77.023438 148.042969 77.25 148.125 C 77.714844 148.296875 78.285156 148.242188 78.601562 148.210938 C 79.382812 148.136719 80.128906 147.9375 80.855469 147.671875 C 81.1875 147.550781 81.515625 147.421875 81.832031 147.273438 C 82.589844 146.925781 83.320312 146.511719 84.070312 146.171875 C 84.363281 146.03125 84.660156 145.902344 84.957031 145.773438 Z M 87.570312 143.78125 C 87.726562 143.359375 87.894531 142.945312 88.078125 142.539062 C 88.511719 141.5625 89.011719 140.632812 89.507812 139.710938 C 89.726562 139.3125 90.148438 138.570312 90.558594 137.773438 C 90.785156 137.339844 91.011719 136.890625 91.179688 136.453125 C 91.394531 135.890625 91.535156 135.371094 91.433594 134.96875 C 91.285156 134.410156 90.898438 134.441406 90.5 134.625 C 90.382812 134.679688 90.257812 134.738281 90.144531 134.824219 C 89.617188 135.230469 89.199219 135.914062 89.09375 136.171875 C 89.015625 136.359375 88.953125 136.5625 88.878906 136.769531 C 88.828125 136.902344 88.773438 137.03125 88.722656 137.164062 C 88.257812 138.390625 87.871094 139.9375 87.667969 141.5 C 87.652344 141.628906 87.632812 141.757812 87.625 141.886719 C 87.566406 142.527344 87.550781 143.171875 87.570312 143.78125 Z M 66.3125 133.59375 C 65.800781 133.59375 65.382812 134.011719 65.382812 134.523438 C 65.382812 135.035156 65.800781 135.453125 66.3125 135.453125 C 66.828125 135.453125 67.242188 135.035156 67.242188 134.523438 C 67.242188 134.011719 66.828125 133.59375 66.3125 133.59375 Z M 107.019531 132.664062 C 106.503906 132.664062 106.089844 133.082031 106.089844 133.59375 C 106.089844 134.105469 106.503906 134.523438 107.019531 134.523438 C 107.53125 134.523438 107.949219 134.105469 107.949219 133.59375 C 107.949219 133.082031 107.53125 132.664062 107.019531 132.664062 Z M 76.6875 126.515625 C 76.65625 126.453125 76.625 126.390625 76.59375 126.328125 C 76.546875 126.230469 76.5 126.121094 76.449219 126.011719 C 76.3125 125.695312 76.070312 125.09375 75.761719 124.683594 C 75.59375 124.457031 75.417969 124.265625 75.21875 124.324219 C 75.179688 124.335938 75.148438 124.359375 75.128906 124.398438 C 75.105469 124.445312 75.089844 124.507812 75.085938 124.570312 C 75.109375 125.046875 75.414062 125.460938 75.824219 125.84375 C 76.078125 126.082031 76.378906 126.304688 76.6875 126.515625 Z M 77.386719 125.890625 C 77.496094 125.507812 77.574219 125.09375 77.5625 124.675781 C 77.550781 124.21875 77.441406 123.765625 77.164062 123.355469 C 77.109375 123.285156 77.042969 123.214844 76.96875 123.167969 C 76.914062 123.132812 76.859375 123.113281 76.804688 123.125 C 76.679688 123.148438 76.652344 123.277344 76.648438 123.433594 C 76.644531 123.628906 76.691406 123.867188 76.753906 124.121094 C 76.90625 124.734375 77.1875 125.425781 77.386719 125.890625 Z M 79.875 118.589844 C 79.792969 118.699219 79.773438 118.875 79.769531 119.085938 C 79.765625 119.449219 79.847656 119.90625 79.953125 120.410156 C 80.066406 120.925781 80.207031 121.492188 80.363281 122.066406 C 80.425781 122.285156 80.488281 122.503906 80.550781 122.722656 C 80.578125 122.535156 80.617188 122.324219 80.667969 122.097656 C 80.628906 121.710938 80.570312 121.292969 80.503906 120.882812 C 80.386719 120.203125 80.242188 119.539062 80.070312 119.046875 C 80.015625 118.882812 79.953125 118.738281 79.894531 118.628906 Z M 81.304688 122.511719 C 81.753906 122.144531 82.265625 121.65625 82.640625 121.140625 C 82.859375 120.839844 83.035156 120.535156 83.113281 120.234375 C 83.1875 119.9375 83.164062 119.65625 82.921875 119.433594 C 82.707031 119.238281 82.5 119.292969 82.3125 119.46875 C 82.121094 119.640625 81.953125 119.925781 81.800781 120.257812 C 81.574219 120.753906 81.386719 121.355469 81.257812 121.90625 C 81.277344 122.113281 81.292969 122.316406 81.304688 122.511719 Z M 79.859375 118.5625 C 79.851562 118.546875 79.84375 118.53125 79.835938 118.523438 C 79.832031 118.519531 79.828125 118.515625 79.824219 118.523438 C 79.816406 118.542969 79.835938 118.558594 79.859375 118.5625 Z M 57.363281 74.664062 C 57.554688 74.664062 57.746094 74.667969 57.933594 74.671875 C 57.953125 74.683594 57.96875 74.695312 57.984375 74.710938 C 58.238281 74.925781 58.375 75.304688 58.386719 75.820312 C 58.402344 76.261719 58.332031 76.816406 58.1875 77.425781 C 58.058594 77.96875 57.871094 78.554688 57.667969 79.148438 C 57.527344 79.566406 57.378906 79.984375 57.230469 80.386719 C 57.242188 80.496094 57.226562 80.621094 57.175781 80.742188 C 57.136719 80.832031 57.082031 80.90625 57.019531 80.964844 C 56.71875 81.789062 56.464844 82.511719 56.378906 82.984375 C 56.3125 83.371094 56.238281 83.753906 56.171875 84.148438 C 56.105469 84.53125 56.050781 84.917969 55.984375 85.308594 C 55.746094 86.730469 55.476562 88.179688 55.152344 89.636719 C 55.3125 89.296875 55.476562 88.957031 55.652344 88.628906 C 55.691406 88.5625 55.722656 88.488281 55.765625 88.425781 C 55.792969 88.378906 55.824219 88.339844 55.855469 88.300781 C 56.171875 87.886719 56.519531 87.542969 56.835938 87.132812 C 57.410156 86.378906 57.933594 85.570312 58.582031 84.886719 C 58.789062 84.695312 59.082031 84.484375 59.417969 84.261719 L 59.425781 84.234375 C 59.433594 84.203125 59.433594 84.203125 59.445312 84.171875 L 59.457031 84.128906 C 59.296875 83.390625 59.160156 82.496094 59.269531 81.644531 C 59.347656 81.03125 59.53125 80.4375 59.9375 79.933594 C 60.054688 79.773438 60.207031 79.628906 60.367188 79.542969 C 60.492188 79.476562 60.621094 79.445312 60.75 79.460938 C 61.191406 79.511719 61.332031 79.992188 61.253906 80.675781 C 61.230469 80.902344 61.179688 81.160156 61.113281 81.421875 C 61.253906 81.246094 61.402344 81.085938 61.550781 80.972656 C 61.828125 80.757812 62.109375 80.65625 62.367188 80.796875 C 62.476562 80.851562 62.554688 80.945312 62.597656 81.066406 C 62.636719 81.175781 62.65625 81.304688 62.644531 81.433594 C 62.640625 82.027344 62.300781 82.589844 61.804688 83.109375 C 61.335938 83.597656 60.726562 84.054688 60.15625 84.464844 L 60.152344 84.476562 C 60.078125 84.597656 60.027344 84.671875 60 84.699219 C 59.84375 84.875 59.710938 84.878906 59.621094 84.847656 C 59.328125 85.054688 59.070312 85.246094 58.886719 85.421875 C 58.226562 86 57.566406 86.597656 57.070312 87.367188 C 56.785156 87.8125 56.628906 88.324219 56.390625 88.804688 C 56.332031 88.921875 56.265625 89.03125 56.199219 89.140625 C 55.753906 89.929688 55.296875 90.730469 54.960938 91.585938 C 54.734375 92.164062 54.578125 92.757812 54.410156 93.351562 C 54.347656 93.523438 54.230469 93.65625 54.097656 93.71875 C 54.011719 93.996094 53.925781 94.269531 53.839844 94.546875 C 53.65625 95.117188 53.453125 95.679688 53.242188 96.238281 C 52.746094 97.550781 52.179688 98.824219 51.597656 100.074219 C 51.496094 100.292969 51.394531 100.507812 51.300781 100.726562 C 51.109375 101.160156 50.9375 101.601562 50.757812 102.039062 C 50.9375 102.09375 51.152344 102.15625 51.210938 102.179688 C 51.300781 102.214844 51.390625 102.25 51.484375 102.285156 C 51.59375 102.253906 51.6875 102.230469 51.75 102.222656 C 52.671875 102.128906 53.59375 102.03125 54.515625 101.964844 C 55.132812 101.917969 55.746094 101.886719 56.359375 101.867188 C 57.019531 101.886719 59.140625 101.960938 60.339844 102.652344 C 61.070312 103.074219 61.46875 103.730469 61.242188 104.621094 C 61.121094 105.09375 60.863281 105.402344 60.523438 105.589844 C 59.945312 105.914062 59.109375 105.835938 58.675781 105.777344 C 58.070312 105.695312 57.488281 105.539062 56.917969 105.34375 C 56.390625 105.160156 55.882812 104.933594 55.367188 104.71875 C 54.601562 104.394531 53.835938 104.082031 53.066406 103.800781 C 52.710938 103.675781 52.351562 103.554688 51.984375 103.445312 C 51.625 103.332031 51.257812 103.234375 50.890625 103.136719 C 50.804688 103.117188 50.539062 103.085938 50.316406 103.042969 C 50.265625 103.152344 50.210938 103.261719 50.15625 103.371094 C 49.785156 104.082031 49.347656 104.742188 48.917969 105.398438 C 48.492188 106.03125 48.042969 106.628906 47.582031 107.214844 C 47.261719 107.621094 46.925781 108.011719 46.601562 108.414062 C 45.847656 109.34375 45.097656 110.277344 44.339844 111.207031 C 44.144531 111.429688 43.863281 111.445312 43.714844 111.238281 C 43.5625 111.035156 43.601562 110.6875 43.796875 110.464844 C 44.617188 109.59375 45.464844 108.765625 46.25 107.847656 C 47.023438 106.949219 47.730469 105.96875 48.390625 104.925781 C 48.78125 104.3125 49.132812 103.660156 49.515625 103.023438 C 49.59375 102.894531 49.671875 102.769531 49.75 102.640625 C 49.738281 102.601562 49.730469 102.554688 49.730469 102.515625 C 49.71875 102.457031 49.714844 102.398438 49.722656 102.335938 C 49.746094 102.136719 49.769531 101.929688 49.789062 101.714844 L 49.789062 101.710938 C 49.550781 101.03125 49.269531 100.386719 48.964844 99.765625 C 48.5 98.824219 47.976562 97.9375 47.453125 97.054688 C 47.222656 96.660156 46.746094 95.957031 46.339844 95.144531 C 46.105469 94.683594 45.898438 94.183594 45.742188 93.707031 C 45.507812 92.976562 45.417969 92.289062 45.574219 91.789062 C 45.804688 91.042969 46.234375 90.851562 46.738281 90.988281 C 46.964844 91.050781 47.195312 91.199219 47.441406 91.355469 C 48.074219 91.757812 48.714844 92.328125 48.878906 92.582031 C 49.007812 92.777344 49.136719 92.984375 49.25 93.222656 C 49.625 94.042969 49.871094 95.109375 50.078125 96.210938 C 50.226562 96.980469 50.320312 97.789062 50.414062 98.578125 C 50.519531 99.503906 50.605469 100.410156 50.625 101.246094 C 50.777344 100.988281 50.925781 100.71875 51.066406 100.445312 C 51.117188 100.34375 51.160156 100.238281 51.203125 100.132812 C 51.703125 98.992188 52.144531 97.816406 52.558594 96.617188 C 52.773438 95.996094 52.972656 95.371094 53.175781 94.742188 C 53.265625 94.472656 53.355469 94.207031 53.441406 93.9375 C 53.492188 93.785156 53.539062 93.636719 53.589844 93.484375 C 53.546875 93.363281 53.546875 93.210938 53.601562 93.0625 C 53.71875 92.796875 53.839844 92.535156 53.964844 92.273438 C 54.671875 89.90625 55.25 87.519531 55.679688 85.195312 C 55.746094 84.824219 55.8125 84.457031 55.867188 84.089844 C 55.921875 83.71875 55.960938 83.347656 56.003906 82.980469 C 56.050781 82.574219 56.199219 81.972656 56.394531 81.28125 L 56.386719 81.277344 C 56.324219 81.257812 56.257812 81.203125 56.207031 81.109375 C 56.167969 81.03125 56.132812 80.902344 56.113281 80.730469 C 55.457031 80.175781 54.425781 79.089844 53.972656 78.066406 C 53.597656 77.222656 53.597656 76.417969 54.253906 75.875 C 54.800781 75.402344 55.332031 75.660156 55.765625 76.34375 C 55.96875 76.667969 56.15625 77.085938 56.316406 77.527344 C 56.375 77.148438 56.445312 76.78125 56.523438 76.445312 C 56.640625 75.925781 56.785156 75.484375 56.933594 75.183594 C 57.066406 74.925781 57.21875 74.757812 57.363281 74.664062 Z M 108.574219 77.1875 C 108.636719 77.1875 108.695312 77.1875 108.75 77.1875 C 108.878906 77.1875 109.011719 77.1875 109.140625 77.1875 C 109.1875 77.300781 109.230469 77.410156 109.269531 77.527344 C 109.289062 77.414062 109.308594 77.300781 109.328125 77.1875 C 109.542969 77.191406 109.761719 77.191406 109.976562 77.195312 C 109.9375 77.390625 109.902344 77.59375 109.867188 77.796875 C 109.796875 78.207031 109.742188 78.625 109.699219 79.011719 C 109.75 79.238281 109.789062 79.449219 109.816406 79.636719 C 109.882812 79.417969 109.941406 79.199219 110.003906 78.976562 C 110.160156 78.40625 110.304688 77.839844 110.414062 77.324219 C 110.421875 77.28125 110.433594 77.242188 110.441406 77.203125 C 110.6875 77.207031 110.9375 77.214844 111.183594 77.222656 C 111.171875 77.289062 111.15625 77.355469 111.140625 77.425781 C 111.011719 77.96875 110.824219 78.554688 110.625 79.148438 C 110.480469 79.566406 110.332031 79.984375 110.183594 80.386719 C 110.195312 80.496094 110.179688 80.621094 110.128906 80.742188 C 110.089844 80.832031 110.035156 80.90625 109.972656 80.964844 C 109.671875 81.789062 109.417969 82.511719 109.332031 82.984375 C 109.265625 83.371094 109.191406 83.753906 109.125 84.148438 C 109.058594 84.53125 109.003906 84.917969 108.9375 85.308594 C 108.703125 86.730469 108.429688 88.179688 108.109375 89.636719 C 108.265625 89.296875 108.429688 88.957031 108.605469 88.628906 C 108.644531 88.5625 108.675781 88.488281 108.71875 88.425781 C 108.746094 88.378906 108.78125 88.339844 108.808594 88.300781 C 109.125 87.886719 109.472656 87.542969 109.789062 87.132812 C 110.367188 86.378906 110.886719 85.570312 111.535156 84.886719 C 111.742188 84.695312 112.035156 84.484375 112.371094 84.261719 L 112.378906 84.234375 C 112.386719 84.203125 112.386719 84.203125 112.398438 84.171875 L 112.410156 84.128906 C 112.25 83.390625 112.113281 82.496094 112.222656 81.644531 C 112.300781 81.03125 112.484375 80.4375 112.894531 79.933594 C 113.007812 79.773438 113.160156 79.628906 113.320312 79.542969 C 113.445312 79.476562 113.574219 79.445312 113.703125 79.460938 C 114.144531 79.511719 114.285156 79.992188 114.210938 80.675781 C 114.183594 80.902344 114.132812 81.160156 114.066406 81.421875 C 114.207031 81.246094 114.355469 81.085938 114.503906 80.972656 C 114.785156 80.757812 115.0625 80.65625 115.320312 80.796875 C 115.429688 80.851562 115.507812 80.945312 115.550781 81.066406 C 115.589844 81.175781 115.609375 81.304688 115.597656 81.433594 C 115.59375 82.027344 115.253906 82.589844 114.757812 83.109375 C 114.289062 83.597656 113.679688 84.054688 113.113281 84.464844 L 113.105469 84.476562 C 113.03125 84.597656 112.980469 84.671875 112.953125 84.699219 C 112.796875 84.875 112.664062 84.878906 112.574219 84.847656 C 112.28125 85.054688 112.023438 85.246094 111.839844 85.421875 C 111.179688 86 110.519531 86.597656 110.023438 87.367188 C 109.738281 87.8125 109.585938 88.324219 109.34375 88.804688 C 109.285156 88.921875 109.21875 89.03125 109.152344 89.140625 C 108.707031 89.929688 108.253906 90.730469 107.914062 91.585938 C 107.6875 92.164062 107.53125 92.757812 107.363281 93.351562 C 107.300781 93.523438 107.183594 93.65625 107.050781 93.71875 C 106.96875 93.996094 106.882812 94.269531 106.792969 94.546875 C 106.609375 95.117188 106.40625 95.679688 106.195312 96.238281 C 105.703125 97.550781 105.132812 98.824219 104.550781 100.074219 C 104.453125 100.292969 104.347656 100.507812 104.253906 100.726562 C 104.066406 101.160156 103.890625 101.601562 103.710938 102.039062 C 103.894531 102.09375 104.105469 102.15625 104.164062 102.179688 C 104.253906 102.214844 104.347656 102.25 104.4375 102.285156 C 104.546875 102.253906 104.640625 102.230469 104.703125 102.222656 C 105.625 102.128906 106.546875 102.03125 107.46875 101.964844 C 108.085938 101.917969 108.699219 101.886719 109.3125 101.867188 C 109.972656 101.886719 112.09375 101.960938 113.292969 102.652344 C 114.023438 103.074219 114.421875 103.730469 114.195312 104.621094 C 114.074219 105.09375 113.816406 105.402344 113.480469 105.589844 C 112.898438 105.914062 112.0625 105.835938 111.628906 105.777344 C 111.023438 105.695312 110.441406 105.539062 109.871094 105.34375 C 109.34375 105.160156 108.835938 104.933594 108.320312 104.71875 C 107.558594 104.394531 106.789062 104.082031 106.019531 103.800781 C 105.664062 103.675781 105.304688 103.554688 104.941406 103.445312 C 104.578125 103.332031 104.210938 103.234375 103.84375 103.136719 C 103.757812 103.117188 103.492188 103.085938 103.273438 103.042969 C 103.21875 103.152344 103.164062 103.261719 103.109375 103.371094 C 102.738281 104.082031 102.300781 104.742188 101.871094 105.398438 C 101.445312 106.03125 100.996094 106.628906 100.535156 107.214844 C 100.214844 107.621094 99.882812 108.011719 99.554688 108.414062 C 98.800781 109.34375 98.050781 110.277344 97.292969 111.207031 C 97.097656 111.429688 96.816406 111.445312 96.667969 111.238281 C 96.515625 111.035156 96.554688 110.6875 96.75 110.464844 C 97.570312 109.59375 98.417969 108.765625 99.203125 107.847656 C 99.976562 106.949219 100.683594 105.96875 101.34375 104.925781 C 101.734375 104.3125 102.085938 103.660156 102.46875 103.023438 C 102.546875 102.894531 102.625 102.769531 102.703125 102.640625 C 102.691406 102.601562 102.6875 102.554688 102.683594 102.515625 C 102.671875 102.457031 102.667969 102.398438 102.675781 102.335938 C 102.703125 102.136719 102.722656 101.929688 102.742188 101.714844 L 102.742188 101.710938 C 102.503906 101.03125 102.222656 100.386719 101.917969 99.765625 C 101.453125 98.824219 100.929688 97.9375 100.40625 97.054688 C 100.175781 96.660156 99.703125 95.957031 99.292969 95.144531 C 99.058594 94.683594 98.851562 94.183594 98.699219 93.707031 C 98.464844 92.976562 98.371094 92.289062 98.527344 91.789062 C 98.757812 91.042969 99.1875 90.851562 99.691406 90.988281 C 99.917969 91.050781 100.152344 91.199219 100.394531 91.355469 C 101.027344 91.757812 101.667969 92.328125 101.832031 92.582031 C 101.960938 92.777344 102.09375 92.984375 102.203125 93.222656 C 102.578125 94.042969 102.824219 95.109375 103.03125 96.210938 C 103.179688 96.980469 103.273438 97.789062 103.367188 98.578125 C 103.476562 99.503906 103.558594 100.410156 103.578125 101.246094 C 103.730469 100.988281 103.882812 100.71875 104.019531 100.445312 C 104.070312 100.34375 104.113281 100.238281 104.15625 100.132812 C 104.65625 98.992188 105.097656 97.816406 105.511719 96.617188 C 105.730469 95.996094 105.925781 95.371094 106.132812 94.742188 C 106.21875 94.472656 106.308594 94.207031 106.398438 93.9375 C 106.445312 93.785156 106.496094 93.636719 106.542969 93.484375 C 106.5 93.363281 106.503906 93.210938 106.554688 93.0625 C 106.671875 92.796875 106.792969 92.535156 106.917969 92.273438 C 107.625 89.90625 108.203125 87.519531 108.632812 85.195312 C 108.699219 84.824219 108.765625 84.457031 108.820312 84.089844 C 108.875 83.71875 108.917969 83.347656 108.960938 82.980469 C 109.003906 82.574219 109.152344 81.972656 109.347656 81.28125 L 109.339844 81.277344 C 109.277344 81.257812 109.210938 81.203125 109.164062 81.109375 C 109.121094 81.03125 109.085938 80.902344 109.066406 80.730469 C 108.410156 80.175781 107.378906 79.089844 106.925781 78.066406 C 106.796875 77.773438 106.710938 77.484375 106.683594 77.210938 C 106.882812 77.207031 107.078125 77.203125 107.269531 77.199219 C 107.351562 77.484375 107.523438 77.769531 107.730469 78.054688 C 108.105469 78.570312 108.613281 79.058594 109.0625 79.425781 C 109.074219 79.230469 109.09375 79.027344 109.109375 78.820312 C 108.980469 78.273438 108.800781 77.679688 108.574219 77.1875 Z M 105.414062 102.6875 C 105.917969 102.691406 106.421875 102.699219 106.925781 102.710938 C 107.679688 102.722656 108.433594 102.746094 109.179688 102.789062 C 109.71875 102.789062 111.296875 102.804688 112.457031 103.203125 C 112.886719 103.351562 113.261719 103.542969 113.472656 103.832031 C 113.613281 104.015625 113.675781 104.242188 113.613281 104.527344 C 113.546875 104.816406 113.34375 104.957031 113.117188 105.039062 C 112.65625 105.210938 112.082031 105.15625 111.765625 105.125 C 110.988281 105.050781 110.238281 104.851562 109.511719 104.582031 C 109.183594 104.464844 108.855469 104.332031 108.535156 104.1875 C 107.777344 103.839844 107.046875 103.425781 106.300781 103.085938 C 106.007812 102.945312 105.710938 102.8125 105.414062 102.6875 Z M 52.460938 102.6875 C 52.964844 102.691406 53.46875 102.699219 53.972656 102.710938 C 54.726562 102.722656 55.476562 102.746094 56.226562 102.789062 C 56.765625 102.789062 58.34375 102.804688 59.503906 103.203125 C 59.933594 103.351562 60.304688 103.542969 60.519531 103.832031 C 60.660156 104.015625 60.722656 104.242188 60.660156 104.527344 C 60.59375 104.816406 60.390625 104.957031 60.164062 105.039062 C 59.703125 105.210938 59.128906 105.15625 58.8125 105.125 C 58.03125 105.050781 57.285156 104.851562 56.558594 104.582031 C 56.230469 104.464844 55.902344 104.332031 55.582031 104.1875 C 54.824219 103.839844 54.09375 103.425781 53.347656 103.085938 C 53.054688 102.945312 52.757812 102.8125 52.460938 102.6875 Z M 102.800781 100.695312 C 102.644531 100.273438 102.472656 99.859375 102.292969 99.453125 C 101.855469 98.476562 101.359375 97.546875 100.859375 96.625 C 100.640625 96.222656 100.21875 95.484375 99.808594 94.6875 C 99.585938 94.253906 99.355469 93.804688 99.1875 93.367188 C 98.972656 92.804688 98.832031 92.285156 98.9375 91.882812 C 99.082031 91.324219 99.46875 91.355469 99.871094 91.539062 C 99.988281 91.589844 100.113281 91.652344 100.226562 91.738281 C 100.75 92.144531 101.167969 92.828125 101.273438 93.082031 C 101.351562 93.269531 101.414062 93.476562 101.492188 93.683594 C 101.539062 93.816406 101.59375 93.945312 101.644531 94.078125 C 102.113281 95.304688 102.5 96.851562 102.703125 98.414062 C 102.71875 98.542969 102.734375 98.671875 102.746094 98.800781 C 102.800781 99.441406 102.816406 100.085938 102.800781 100.695312 Z M 49.847656 100.695312 C 49.691406 100.273438 49.519531 99.859375 49.339844 99.453125 C 48.902344 98.476562 48.40625 97.546875 47.90625 96.625 C 47.6875 96.222656 47.265625 95.484375 46.855469 94.6875 C 46.632812 94.253906 46.402344 93.804688 46.234375 93.367188 C 46.019531 92.804688 45.878906 92.285156 45.984375 91.882812 C 46.128906 91.324219 46.515625 91.355469 46.917969 91.539062 C 47.035156 91.589844 47.160156 91.652344 47.273438 91.738281 C 47.796875 92.144531 48.214844 92.828125 48.320312 93.082031 C 48.398438 93.269531 48.460938 93.476562 48.539062 93.683594 C 48.585938 93.816406 48.640625 93.945312 48.691406 94.078125 C 49.160156 95.304688 49.542969 96.851562 49.746094 98.414062 C 49.765625 98.542969 49.78125 98.671875 49.792969 98.800781 C 49.847656 99.441406 49.863281 100.085938 49.847656 100.695312 Z M 82.589844 92.984375 C 82.078125 92.984375 81.660156 93.402344 81.660156 93.914062 C 81.660156 94.425781 82.078125 94.84375 82.589844 94.84375 C 83.105469 94.84375 83.523438 94.425781 83.523438 93.914062 C 83.523438 93.402344 83.105469 92.984375 82.589844 92.984375 Z M 124.792969 92.054688 C 124.28125 92.054688 123.863281 92.472656 123.863281 92.984375 C 123.863281 93.496094 124.28125 93.914062 124.792969 93.914062 C 125.304688 93.914062 125.722656 93.496094 125.722656 92.984375 C 125.722656 92.472656 125.304688 92.054688 124.792969 92.054688 Z M 42.453125 83.269531 C 41.941406 83.269531 41.523438 83.6875 41.523438 84.199219 C 41.523438 84.714844 41.941406 85.128906 42.453125 85.128906 C 42.96875 85.128906 43.382812 84.714844 43.382812 84.199219 C 43.382812 83.6875 42.96875 83.269531 42.453125 83.269531 Z M 60.730469 83.429688 C 60.757812 83.367188 60.789062 83.304688 60.824219 83.242188 C 60.871094 83.140625 60.917969 83.035156 60.96875 82.925781 C 61.105469 82.609375 61.347656 82.007812 61.65625 81.597656 C 61.824219 81.371094 62 81.179688 62.195312 81.238281 C 62.234375 81.25 62.265625 81.273438 62.285156 81.308594 C 62.3125 81.359375 62.328125 81.421875 62.328125 81.484375 C 62.304688 81.957031 62 82.375 61.59375 82.757812 C 61.335938 82.996094 61.039062 83.21875 60.730469 83.429688 Z M 113.683594 83.429688 C 113.714844 83.367188 113.746094 83.304688 113.777344 83.242188 C 113.824219 83.140625 113.871094 83.035156 113.921875 82.925781 C 114.058594 82.609375 114.300781 82.007812 114.609375 81.597656 C 114.777344 81.371094 114.953125 81.179688 115.148438 81.238281 C 115.1875 81.25 115.222656 81.273438 115.242188 81.308594 C 115.265625 81.359375 115.28125 81.421875 115.28125 81.484375 C 115.257812 81.957031 114.953125 82.375 114.546875 82.757812 C 114.289062 82.996094 113.992188 83.21875 113.683594 83.429688 Z M 112.980469 82.804688 C 112.871094 82.421875 112.796875 82.007812 112.808594 81.589844 C 112.816406 81.132812 112.929688 80.679688 113.207031 80.269531 C 113.261719 80.199219 113.328125 80.128906 113.398438 80.082031 C 113.453125 80.046875 113.511719 80.027344 113.566406 80.039062 C 113.6875 80.0625 113.71875 80.191406 113.722656 80.347656 C 113.726562 80.542969 113.679688 80.78125 113.617188 81.035156 C 113.460938 81.644531 113.183594 82.339844 112.980469 82.804688 Z M 60.027344 82.804688 C 59.917969 82.421875 59.84375 82.007812 59.855469 81.589844 C 59.867188 81.132812 59.976562 80.679688 60.253906 80.269531 C 60.308594 80.199219 60.375 80.128906 60.445312 80.082031 C 60.5 80.046875 60.558594 80.027344 60.613281 80.039062 C 60.734375 80.0625 60.765625 80.191406 60.765625 80.347656 C 60.769531 80.542969 60.726562 80.78125 60.660156 81.035156 C 60.507812 81.644531 60.230469 82.339844 60.027344 82.804688 Z M 119.402344 79.503906 C 118.890625 79.503906 118.472656 79.917969 118.472656 80.433594 C 118.472656 80.945312 118.890625 81.363281 119.402344 81.363281 C 119.917969 81.363281 120.335938 80.945312 120.335938 80.433594 C 120.335938 79.917969 119.917969 79.503906 119.402344 79.503906 Z M 57.539062 75.503906 C 57.625 75.613281 57.644531 75.789062 57.644531 76 C 57.652344 76.363281 57.570312 76.820312 57.460938 77.324219 C 57.351562 77.839844 57.207031 78.40625 57.050781 78.976562 C 56.988281 79.199219 56.925781 79.417969 56.863281 79.636719 C 56.835938 79.449219 56.796875 79.238281 56.746094 79.011719 C 56.789062 78.625 56.84375 78.207031 56.914062 77.796875 C 57.027344 77.117188 57.175781 76.453125 57.34375 75.960938 C 57.402344 75.796875 57.460938 75.652344 57.523438 75.542969 Z M 56.109375 79.425781 C 55.660156 79.058594 55.152344 78.570312 54.777344 78.054688 C 54.554688 77.753906 54.378906 77.449219 54.300781 77.148438 C 54.226562 76.851562 54.253906 76.570312 54.492188 76.347656 C 54.707031 76.152344 54.914062 76.207031 55.105469 76.382812 C 55.292969 76.554688 55.464844 76.839844 55.617188 77.171875 C 55.84375 77.667969 56.027344 78.269531 56.15625 78.820312 C 56.136719 79.027344 56.121094 79.230469 56.109375 79.425781 Z M 57.554688 75.476562 C 57.5625 75.460938 57.570312 75.445312 57.578125 75.4375 C 57.582031 75.433594 57.589844 75.429688 57.59375 75.4375 C 57.597656 75.457031 57.578125 75.472656 57.554688 75.476562 " fill-opacity="1" fill-rule="evenodd"/><path fill="rgb(99.21875%, 73.728943%, 66.668701%)" d="M 140.363281 90.769531 C 140.046875 91.949219 140.160156 93.375 140.132812 94.585938 C 140.0625 98.023438 140.394531 101.421875 140.621094 104.847656 C 141.050781 111.320312 140.980469 117.617188 140.605469 124.085938 C 140.109375 132.679688 140.175781 142.613281 135.40625 150.175781 C 134.132812 152.195312 131.691406 155.460938 129.1875 156.023438 C 127.355469 156.433594 125.460938 155.265625 124.273438 153.972656 C 121.753906 151.234375 120.941406 146.835938 120.769531 143.226562 C 120.621094 140.050781 121.785156 137.164062 122.777344 134.199219 C 123.964844 130.644531 125.152344 127.09375 126.398438 123.5625 C 128.96875 116.269531 131.851562 108.886719 133.535156 101.328125 C 134.398438 97.457031 134.753906 93.417969 135.050781 89.464844 L 140.363281 90.769531 " fill-opacity="1" fill-rule="evenodd"/><path fill="rgb(99.21875%, 73.728943%, 66.668701%)" d="M 135.820312 96.105469 C 135.515625 94.765625 133.15625 90.210938 132.851562 88.867188 C 132.722656 88.304688 132.519531 87.699219 132.5 87.117188 C 132.484375 86.496094 132.746094 85.929688 132.863281 85.332031 C 132.980469 84.726562 133.015625 83.992188 133.339844 83.453125 C 133.578125 83.0625 133.917969 82.746094 134.273438 82.457031 C 134.664062 82.144531 135.09375 81.738281 135.601562 81.625 C 136.289062 81.46875 138.019531 79.878906 138.609375 80.289062 C 138.9375 80.519531 138.25 82.46875 138.488281 82.789062 C 139.304688 83.277344 140.007812 83.996094 140.585938 84.703125 C 141.585938 85.921875 142.386719 87.515625 142.722656 89.121094 C 142.925781 89.675781 143.046875 90.261719 143.097656 90.824219 C 143.261719 91.355469 143.335938 91.886719 143.160156 92.453125 C 143.097656 92.652344 143.019531 92.847656 142.921875 93.035156 C 142.898438 93.097656 142.871094 93.15625 142.84375 93.214844 C 142.601562 93.695312 142.242188 94.050781 141.902344 94.441406 C 141.957031 94.71875 135.796875 96.429688 135.820312 96.105469 " fill-opacity="1" fill-rule="evenodd"/><path fill="rgb(38.819885%, 16.468811%, 58.039856%)" d="M 130.84375 75.648438 C 130.84375 75.648438 153.203125 94.175781 153.695312 95.027344 C 154.183594 95.875 153.605469 97.359375 153.273438 98.152344 C 153.046875 98.691406 152.773438 99.214844 152.46875 99.710938 C 151.71875 100.921875 151.265625 102.003906 149.800781 101.269531 C 149.457031 101.09375 149.117188 100.910156 148.785156 100.71875 C 148.253906 100.410156 129.136719 87.007812 124.386719 84.132812 L 130.84375 75.648438 " fill-opacity="1" fill-rule="evenodd"/><path fill="rgb(45.098877%, 19.999695%, 58.039856%)" d="M 116.210938 66.746094 C 114.644531 69.816406 112.214844 72.375 110.628906 75.453125 C 110.027344 76.609375 109.363281 77.835938 109.21875 79.148438 C 108.785156 83.0625 112.378906 86.039062 115.472656 87.691406 C 116.867188 88.433594 118.316406 89.140625 119.910156 88.589844 C 121.8125 87.933594 123.265625 86.328125 124.71875 85.007812 C 127.339844 82.632812 129.828125 80.09375 132.300781 77.566406 L 116.210938 66.746094 " fill-opacity="1" fill-rule="evenodd"/><path fill="rgb(98.429871%, 83.918762%, 20.388794%)" d="M 127.664062 41.019531 C 129.382812 33.808594 126.972656 21.765625 129.828125 19.402344 C 134.683594 15.386719 146.613281 19.316406 158.066406 29.875 C 169.519531 40.433594 175.46875 52.886719 171.335938 57.664062 C 170.785156 58.300781 170.085938 58.769531 169.253906 59.078125 C 165.492188 61.238281 155.625 63.015625 147.160156 67.015625 C 140.671875 70.082031 130.050781 79.914062 130.050781 79.914062 C 130.050781 79.914062 124.296875 77.558594 121.398438 75.097656 C 118.621094 72.734375 116.085938 67.148438 116.085938 67.148438 C 116.085938 67.148438 124.46875 54.40625 127.664062 41.019531 " fill-opacity="1" fill-rule="evenodd"/><path fill="rgb(98.81897%, 65.879822%, 12.548828%)" d="M 129.605469 19.304688 C 125.476562 24.085938 131.421875 36.535156 142.878906 47.097656 C 154.332031 57.652344 166.984375 62.347656 171.113281 57.566406 C 175.246094 52.789062 169.300781 40.335938 157.84375 29.777344 C 146.390625 19.21875 133.738281 14.527344 129.605469 19.304688 " fill-opacity="1" fill-rule="evenodd"/><path fill="rgb(38.819885%, 16.468811%, 58.039856%)" d="M 138.398438 42.570312 L 144.472656 35.652344 L 155.605469 46.105469 L 149.882812 52.746094 C 147.554688 51.121094 145.191406 49.226562 142.878906 47.09375 C 141.269531 45.613281 139.773438 44.097656 138.398438 42.570312 " fill-opacity="1" fill-rule="evenodd"/><path fill="rgb(45.098877%, 19.999695%, 58.039856%)" d="M 144.4375 35.703125 C 143.324219 36.992188 144.929688 40.355469 148.023438 43.207031 C 151.117188 46.058594 154.535156 47.328125 155.652344 46.035156 C 156.765625 44.746094 155.160156 41.382812 152.066406 38.53125 C 148.972656 35.679688 145.554688 34.410156 144.4375 35.703125 " fill-opacity="1" fill-rule="evenodd"/><path fill="rgb(99.21875%, 73.728943%, 66.668701%)" d="M 133.292969 90.066406 C 133.402344 89.507812 133.578125 88.953125 133.722656 88.40625 C 133.828125 88 133.933594 87.597656 134.046875 87.195312 C 134.109375 86.972656 134.15625 86.710938 134.328125 86.542969 C 134.378906 86.496094 134.433594 86.457031 134.492188 86.425781 C 134.777344 86.277344 135.03125 86.480469 135.1875 86.710938 C 135.507812 87.179688 135.589844 87.78125 135.601562 88.34375 C 135.605469 88.574219 135.5625 88.8125 135.53125 89.042969 C 135.484375 89.410156 135.425781 89.765625 135.335938 90.125 C 135.171875 90.800781 134.957031 91.441406 134.65625 92.070312 C 134.578125 92.226562 134.523438 92.410156 134.429688 92.554688 L 133.292969 90.066406 " fill-opacity="1" fill-rule="evenodd"/><path fill="rgb(91.369629%, 30.979919%, 26.269531%)" d="M 134.085938 87.535156 C 134.066406 87.316406 134.082031 87.085938 134.09375 86.867188 C 134.113281 86.480469 134.148438 86.082031 134.273438 85.714844 C 134.328125 85.550781 134.453125 85.203125 134.675781 85.214844 C 134.972656 85.230469 135.027344 85.554688 135.019531 85.785156 C 135.007812 86.171875 134.964844 86.554688 134.929688 86.941406 C 134.914062 87.136719 134.929688 87.367188 134.863281 87.558594 L 134.085938 87.535156 " fill-opacity="1" fill-rule="evenodd"/><path fill="rgb(99.21875%, 73.728943%, 66.668701%)" d="M 137.074219 80.957031 C 137.074219 80.9375 137.074219 80.917969 137.070312 80.898438 C 137.070312 80.871094 137.066406 80.832031 137.082031 80.808594 C 137.09375 80.785156 137.125 80.773438 137.148438 80.761719 C 137.191406 80.742188 137.234375 80.71875 137.273438 80.699219 C 137.320312 80.671875 137.371094 80.648438 137.417969 80.625 C 137.472656 80.589844 137.523438 80.550781 137.578125 80.515625 C 137.847656 80.335938 138.175781 80.101562 138.507812 80.0625 C 138.664062 80.042969 138.84375 80.082031 138.992188 80.132812 C 139.089844 80.167969 139.183594 80.210938 139.265625 80.273438 C 139.339844 80.324219 139.40625 80.386719 139.464844 80.453125 C 139.695312 80.722656 139.707031 81.046875 139.71875 81.378906 C 139.863281 81.246094 140.019531 81.128906 140.183594 81.023438 C 140.382812 80.890625 140.617188 80.765625 140.863281 80.757812 C 141.460938 80.742188 141.960938 81.273438 142.054688 81.839844 C 142.074219 81.980469 142.085938 82.121094 142.082031 82.265625 C 142.359375 82.183594 142.65625 82.1875 142.925781 82.328125 C 143.015625 82.371094 143.097656 82.433594 143.171875 82.507812 C 143.261719 82.59375 143.339844 82.695312 143.390625 82.808594 C 143.546875 83.160156 143.429688 83.613281 143.328125 83.960938 C 143.285156 84.105469 143.234375 84.25 143.179688 84.390625 C 143.164062 84.425781 143.152344 84.460938 143.132812 84.5 C 143.207031 84.464844 143.28125 84.4375 143.359375 84.421875 C 143.46875 84.402344 143.578125 84.429688 143.683594 84.457031 C 144.109375 84.574219 144.429688 84.945312 144.472656 85.394531 C 144.515625 85.867188 144.359375 86.429688 144.097656 86.820312 C 144.019531 86.9375 143.929688 87.042969 143.832031 87.144531 C 143.667969 87.34375 143.46875 87.523438 143.292969 87.6875 C 143.171875 87.800781 143.050781 87.910156 142.921875 88.015625 C 142.710938 88.183594 142.492188 88.335938 142.265625 88.480469 C 142.109375 88.578125 141.957031 88.671875 141.773438 88.707031 C 141.679688 88.726562 141.578125 88.730469 141.480469 88.71875 C 141.203125 88.691406 140.960938 88.46875 140.929688 88.183594 C 140.910156 88.003906 140.960938 87.796875 141.039062 87.625 C 141.035156 87.632812 141.027344 87.636719 141.023438 87.644531 C 140.621094 88.019531 139.828125 88.234375 139.503906 87.660156 C 139.339844 87.371094 139.378906 87.074219 139.5 86.792969 C 139.191406 86.921875 138.800781 86.960938 138.550781 86.765625 C 138.183594 86.472656 138.246094 85.882812 138.339844 85.472656 C 138.34375 85.457031 138.347656 85.441406 138.355469 85.425781 C 138.296875 85.476562 138.238281 85.527344 138.179688 85.578125 C 138.015625 85.703125 137.785156 85.800781 137.578125 85.78125 C 137.273438 85.75 136.992188 85.476562 136.890625 85.199219 C 136.777344 84.882812 136.871094 84.539062 136.949219 84.226562 C 137.03125 83.875 137.105469 83.523438 137.1875 83.171875 C 137.222656 83.011719 137.292969 82.851562 137.316406 82.6875 C 137.332031 82.609375 137.289062 82.519531 137.265625 82.445312 C 137.230469 82.332031 137.199219 82.21875 137.179688 82.097656 C 137.144531 81.910156 137.140625 81.726562 137.125 81.535156 C 137.105469 81.34375 137.082031 81.152344 137.074219 80.957031 " fill-opacity="1" fill-rule="evenodd"/><path fill="rgb(91.369629%, 30.979919%, 26.269531%)" d="M 141.691406 87.269531 C 141.613281 87.328125 141.519531 87.363281 141.441406 87.425781 C 141.296875 87.542969 141.171875 87.691406 141.042969 87.824219 C 140.910156 87.960938 140.796875 88.109375 140.695312 88.269531 C 140.605469 88.414062 140.511719 88.578125 140.527344 88.75 C 140.554688 89.03125 140.878906 89.148438 141.109375 89.042969 C 141.332031 88.941406 141.527344 88.753906 141.707031 88.589844 C 141.9375 88.386719 142.214844 88.164062 142.355469 87.886719 C 142.410156 87.777344 142.4375 87.675781 142.410156 87.554688 C 142.363281 87.34375 142.117188 87.183594 141.902344 87.199219 Z M 140.316406 86.449219 C 140.234375 86.519531 140.136719 86.570312 140.054688 86.644531 C 139.90625 86.78125 139.78125 86.949219 139.648438 87.105469 C 139.515625 87.265625 139.402344 87.433594 139.300781 87.617188 C 139.214844 87.777344 139.125 87.964844 139.15625 88.15625 C 139.207031 88.457031 139.566406 88.558594 139.808594 88.429688 C 140.046875 88.300781 140.246094 88.082031 140.433594 87.894531 C 140.667969 87.652344 140.953125 87.390625 141.085938 87.074219 C 141.136719 86.953125 141.160156 86.839844 141.121094 86.710938 C 141.054688 86.480469 140.773438 86.324219 140.539062 86.359375 Z M 139.027344 85.507812 C 138.945312 85.578125 138.847656 85.625 138.769531 85.699219 C 138.617188 85.839844 138.492188 86.003906 138.363281 86.160156 C 138.226562 86.320312 138.113281 86.488281 138.015625 86.675781 C 137.925781 86.835938 137.835938 87.023438 137.867188 87.210938 C 137.917969 87.511719 138.28125 87.617188 138.523438 87.484375 C 138.761719 87.359375 138.957031 87.140625 139.144531 86.949219 C 139.378906 86.707031 139.664062 86.445312 139.796875 86.128906 C 139.847656 86.007812 139.871094 85.898438 139.832031 85.769531 C 139.765625 85.535156 139.484375 85.382812 139.25 85.417969 Z M 137.425781 84.320312 C 137.371094 84.410156 137.292969 84.488281 137.242188 84.585938 C 137.144531 84.765625 137.082031 84.964844 137.011719 85.15625 C 136.933594 85.351562 136.882812 85.546875 136.847656 85.753906 C 136.816406 85.933594 136.792969 86.140625 136.886719 86.308594 C 137.03125 86.578125 137.40625 86.554688 137.59375 86.351562 C 137.777344 86.152344 137.894531 85.882812 138.007812 85.640625 C 138.152344 85.335938 138.335938 84.996094 138.359375 84.652344 C 138.367188 84.523438 138.351562 84.410156 138.273438 84.300781 C 138.136719 84.105469 137.816406 84.050781 137.609375 84.160156 L 137.425781 84.320312 " fill-opacity="1" fill-rule="evenodd"/><path fill="rgb(100%, 100%, 100%)" d="M 77.082031 52.484375 C 77.636719 52.535156 79.609375 52.964844 80.132812 53.105469 C 81.285156 53.417969 82.597656 53.097656 83.8125 53.195312 C 84.214844 53.226562 84.628906 53.226562 85.03125 53.253906 C 85.074219 53.257812 85.300781 53.246094 85.285156 53.378906 C 85.257812 53.554688 84.964844 53.804688 84.878906 53.890625 C 84.417969 54.359375 83.933594 54.785156 83.453125 55.167969 C 81.542969 56.683594 79.472656 56.660156 78.410156 56.214844 C 77.46875 55.816406 77.082031 52.484375 77.082031 52.484375 " fill-opacity="1" fill-rule="evenodd"/><path fill="rgb(92.939758%, 28.62854%, 33.729553%)" d="M 39.472656 53.140625 L 42.484375 46.941406 L 36.457031 46.941406 Z M 56.417969 30.566406 C 56.417969 29.546875 55.996094 28.566406 55.246094 27.847656 C 54.496094 27.125 53.476562 26.71875 52.417969 26.71875 C 45.894531 26.71875 33.050781 26.71875 26.527344 26.71875 C 25.464844 26.71875 24.449219 27.125 23.695312 27.847656 C 22.945312 28.566406 22.523438 29.546875 22.523438 30.566406 C 22.523438 34.160156 22.523438 39.496094 22.523438 43.089844 C 22.523438 44.113281 22.945312 45.089844 23.695312 45.8125 C 24.449219 46.535156 25.464844 46.941406 26.527344 46.941406 C 33.050781 46.941406 45.894531 46.941406 52.417969 46.941406 C 53.476562 46.941406 54.496094 46.535156 55.246094 45.8125 C 55.996094 45.089844 56.417969 44.113281 56.417969 43.089844 C 56.417969 39.496094 56.417969 34.160156 56.417969 30.566406 " fill-opacity="1" fill-rule="evenodd"/><path fill="rgb(92.939758%, 28.62854%, 33.729553%)" d="M 161.066406 148.808594 L 164.078125 142.605469 L 158.050781 142.605469 Z M 178.011719 126.234375 C 178.011719 125.214844 177.589844 124.234375 176.839844 123.511719 C 176.089844 122.792969 175.070312 122.386719 174.007812 122.386719 C 167.488281 122.386719 154.640625 122.386719 148.121094 122.386719 C 147.058594 122.386719 146.039062 122.792969 145.289062 123.511719 C 144.539062 124.234375 144.117188 125.214844 144.117188 126.234375 C 144.117188 129.828125 144.117188 135.164062 144.117188 138.757812 C 144.117188 139.78125 144.539062 140.757812 145.289062 141.480469 C 146.039062 142.203125 147.058594 142.605469 148.121094 142.605469 C 154.640625 142.605469 167.488281 142.605469 174.007812 142.605469 C 175.070312 142.605469 176.089844 142.203125 176.839844 141.480469 C 177.589844 140.757812 178.011719 139.78125 178.011719 138.757812 C 178.011719 135.164062 178.011719 129.828125 178.011719 126.234375 " fill-opacity="1" fill-rule="evenodd"/><path fill="rgb(100%, 100%, 100%)" d="M 31.171875 33.203125 C 32.429688 30.917969 34.945312 30.917969 36.203125 32.058594 C 37.460938 33.203125 37.460938 35.492188 36.203125 37.777344 C 35.320312 39.492188 33.058594 41.207031 31.171875 42.347656 C 29.285156 41.207031 27.019531 39.492188 26.140625 37.777344 C 24.882812 35.492188 24.882812 33.203125 26.140625 32.058594 C 27.398438 30.917969 29.914062 30.917969 31.171875 33.203125 " fill-opacity="1" fill-rule="evenodd"/><path fill="rgb(100%, 100%, 100%)" d="M 40.015625 39.453125 L 41.160156 39.347656 C 41.257812 39.882812 41.441406 40.273438 41.714844 40.515625 C 41.988281 40.757812 42.339844 40.878906 42.765625 40.878906 C 43.132812 40.878906 43.453125 40.796875 43.730469 40.628906 C 44.003906 40.460938 44.230469 40.238281 44.40625 39.957031 C 44.582031 39.679688 44.730469 39.300781 44.851562 38.824219 C 44.96875 38.347656 45.027344 37.863281 45.027344 37.371094 C 45.027344 37.320312 45.027344 37.238281 45.023438 37.132812 C 44.785156 37.511719 44.460938 37.820312 44.046875 38.054688 C 43.632812 38.289062 43.1875 38.410156 42.707031 38.410156 C 41.90625 38.410156 41.226562 38.117188 40.667969 37.535156 C 40.113281 36.957031 39.835938 36.1875 39.835938 35.238281 C 39.835938 34.253906 40.125 33.464844 40.707031 32.863281 C 41.285156 32.265625 42.011719 31.964844 42.886719 31.964844 C 43.515625 31.964844 44.09375 32.136719 44.617188 32.476562 C 45.136719 32.8125 45.535156 33.296875 45.804688 33.925781 C 46.078125 34.554688 46.214844 35.460938 46.214844 36.652344 C 46.214844 37.890625 46.078125 38.875 45.808594 39.609375 C 45.539062 40.339844 45.140625 40.898438 44.609375 41.285156 C 44.078125 41.667969 43.453125 41.859375 42.738281 41.859375 C 41.980469 41.859375 41.363281 41.648438 40.882812 41.226562 C 40.402344 40.804688 40.113281 40.214844 40.015625 39.453125 Z M 44.890625 35.175781 C 44.890625 34.496094 44.707031 33.953125 44.34375 33.550781 C 43.980469 33.152344 43.542969 32.949219 43.03125 32.949219 C 42.503906 32.949219 42.042969 33.167969 41.648438 33.597656 C 41.257812 34.03125 41.058594 34.589844 41.058594 35.277344 C 41.058594 35.894531 41.246094 36.394531 41.617188 36.78125 C 41.992188 37.164062 42.453125 37.359375 43 37.359375 C 43.550781 37.359375 44.003906 37.164062 44.359375 36.78125 C 44.710938 36.394531 44.890625 35.859375 44.890625 35.175781 " fill-opacity="1" fill-rule="nonzero"/><path fill="rgb(100%, 100%, 100%)" d="M 47.550781 39.453125 L 48.695312 39.347656 C 48.792969 39.882812 48.976562 40.273438 49.25 40.515625 C 49.523438 40.757812 49.875 40.878906 50.300781 40.878906 C 50.667969 40.878906 50.988281 40.796875 51.265625 40.628906 C 51.539062 40.460938 51.765625 40.238281 51.941406 39.957031 C 52.117188 39.679688 52.265625 39.300781 52.386719 38.824219 C 52.503906 38.347656 52.5625 37.863281 52.5625 37.371094 C 52.5625 37.320312 52.5625 37.238281 52.558594 37.132812 C 52.320312 37.511719 51.992188 37.820312 51.582031 38.054688 C 51.167969 38.289062 50.722656 38.410156 50.242188 38.410156 C 49.4375 38.410156 48.761719 38.117188 48.203125 37.535156 C 47.648438 36.957031 47.371094 36.1875 47.371094 35.238281 C 47.371094 34.253906 47.660156 33.464844 48.242188 32.863281 C 48.820312 32.265625 49.546875 31.964844 50.421875 31.964844 C 51.050781 31.964844 51.628906 32.136719 52.152344 32.476562 C 52.671875 32.8125 53.070312 33.296875 53.339844 33.925781 C 53.613281 34.554688 53.75 35.460938 53.75 36.652344 C 53.75 37.890625 53.613281 38.875 53.34375 39.609375 C 53.074219 40.339844 52.675781 40.898438 52.144531 41.285156 C 51.613281 41.667969 50.988281 41.859375 50.273438 41.859375 C 49.515625 41.859375 48.898438 41.648438 48.417969 41.226562 C 47.933594 40.804688 47.648438 40.214844 47.550781 39.453125 Z M 52.425781 35.175781 C 52.425781 34.496094 52.242188 33.953125 51.878906 33.550781 C 51.515625 33.152344 51.078125 32.949219 50.566406 32.949219 C 50.035156 32.949219 49.574219 33.167969 49.183594 33.597656 C 48.792969 34.03125 48.59375 34.589844 48.59375 35.277344 C 48.59375 35.894531 48.78125 36.394531 49.152344 36.78125 C 49.527344 37.164062 49.984375 37.359375 50.53125 37.359375 C 51.085938 37.359375 51.539062 37.164062 51.890625 36.78125 C 52.246094 36.394531 52.425781 35.859375 52.425781 35.175781 " fill-opacity="1" fill-rule="nonzero"/><path fill="rgb(100%, 100%, 100%)" d="M 167.6875 136.21875 L 167.6875 137.359375 L 161.277344 137.359375 C 161.269531 137.074219 161.3125 136.796875 161.414062 136.535156 C 161.578125 136.097656 161.839844 135.667969 162.199219 135.246094 C 162.558594 134.824219 163.078125 134.332031 163.757812 133.777344 C 164.8125 132.914062 165.523438 132.230469 165.894531 131.726562 C 166.265625 131.222656 166.449219 130.746094 166.449219 130.296875 C 166.449219 129.824219 166.28125 129.425781 165.941406 129.105469 C 165.605469 128.78125 165.167969 128.617188 164.625 128.617188 C 164.050781 128.617188 163.59375 128.789062 163.25 129.132812 C 162.902344 129.476562 162.730469 129.953125 162.726562 130.5625 L 161.5 130.433594 C 161.585938 129.523438 161.902344 128.828125 162.445312 128.351562 C 162.996094 127.871094 163.726562 127.632812 164.652344 127.632812 C 165.582031 127.632812 166.316406 127.890625 166.859375 128.40625 C 167.402344 128.921875 167.671875 129.558594 167.671875 130.324219 C 167.671875 130.710938 167.59375 131.089844 167.433594 131.464844 C 167.277344 131.839844 167.011719 132.234375 166.644531 132.648438 C 166.277344 133.0625 165.664062 133.632812 164.808594 134.355469 C 164.09375 134.953125 163.636719 135.359375 163.433594 135.574219 C 163.230469 135.785156 163.0625 136 162.929688 136.21875 L 167.6875 136.21875 " fill-opacity="1" fill-rule="nonzero"/><path fill="rgb(100%, 100%, 100%)" d="M 169.300781 137.359375 L 169.300781 127.671875 L 170.492188 127.671875 L 170.492188 133.199219 L 173.308594 130.34375 L 174.851562 130.34375 L 172.164062 132.945312 L 175.121094 137.359375 L 173.652344 137.359375 L 171.332031 133.773438 L 170.492188 134.578125 L 170.492188 137.359375 L 169.300781 137.359375 " fill-opacity="1" fill-rule="nonzero"/><g clip-path="url(#clip-1)"><path fill="rgb(100%, 100%, 100%)" d="M 22.082031 77.269531 C 21.128906 77.535156 20.128906 77.675781 19.09375 77.675781 C 12.96875 77.675781 7.996094 72.707031 7.996094 66.589844 C 7.996094 60.472656 12.96875 55.503906 19.09375 55.503906 C 25.21875 55.503906 30.191406 60.472656 30.191406 66.589844 C 30.191406 70.5625 28.09375 74.050781 24.945312 76.007812 L 25.566406 80.058594 L 22.082031 77.269531 " fill-opacity="1" fill-rule="evenodd"/></g><g clip-path="url(#clip-2)"><path fill="rgb(100%, 100%, 100%)" d="M 165.601562 106.980469 C 166.554688 107.242188 167.554688 107.386719 168.589844 107.386719 C 174.714844 107.386719 179.6875 102.417969 179.6875 96.300781 C 179.6875 90.179688 174.714844 85.214844 168.589844 85.214844 C 162.464844 85.214844 157.492188 90.179688 157.492188 96.300781 C 157.492188 100.273438 159.589844 103.761719 162.738281 105.71875 L 162.117188 109.765625 L 165.601562 106.980469 " fill-opacity="1" fill-rule="evenodd"/></g><path fill="rgb(92.939758%, 28.62854%, 33.729553%)" d="M 19.09375 63.738281 C 20.457031 61.382812 23.179688 61.382812 24.542969 62.558594 C 25.90625 63.738281 25.90625 66.089844 24.542969 68.445312 C 23.589844 70.207031 21.136719 71.972656 19.09375 73.152344 C 17.050781 71.972656 14.597656 70.207031 13.644531 68.445312 C 12.285156 66.089844 12.285156 63.738281 13.644531 62.558594 C 15.007812 61.382812 17.734375 61.382812 19.09375 63.738281 " fill-opacity="1" fill-rule="evenodd"/><path fill="rgb(90.19928%, 90.19928%, 90.19928%)" d="M 165.921875 94.332031 C 166.222656 94.144531 166.484375 93.890625 166.714844 93.605469 C 167.175781 93.039062 167.519531 92.34375 167.78125 91.738281 C 167.898438 91.464844 168.023438 91.195312 168.132812 90.917969 C 168.183594 90.789062 168.226562 90.65625 168.261719 90.523438 C 168.296875 90.40625 168.328125 90.292969 168.355469 90.175781 C 168.417969 89.914062 168.476562 89.515625 168.636719 89.238281 C 168.785156 88.988281 169 88.824219 169.328125 88.832031 C 169.574219 88.839844 169.808594 88.9375 170.015625 89.097656 C 170.300781 89.3125 170.523438 89.636719 170.632812 89.925781 C 170.988281 90.902344 170.820312 92.074219 170.546875 93.046875 C 170.460938 93.335938 170.363281 93.625 170.253906 93.90625 C 170.574219 93.863281 170.894531 93.835938 171.214844 93.820312 C 172.132812 93.773438 173.058594 93.71875 173.980469 93.734375 C 174.222656 93.734375 174.507812 93.734375 174.769531 93.789062 C 174.976562 93.832031 175.164062 93.914062 175.316406 94.042969 C 175.640625 94.324219 175.765625 94.761719 175.710938 95.175781 C 175.671875 95.476562 175.535156 95.761719 175.324219 95.96875 C 175.5 96.105469 175.65625 96.277344 175.746094 96.472656 C 176.039062 97.113281 175.613281 97.792969 175.050781 98.082031 C 175.210938 98.210938 175.351562 98.375 175.433594 98.554688 C 175.734375 99.210938 175.28125 99.90625 174.699219 100.183594 C 174.492188 100.28125 174.269531 100.335938 174.039062 100.363281 C 174.210938 100.527344 174.320312 100.761719 174.304688 101.121094 C 174.285156 101.582031 173.917969 101.882812 173.398438 102.042969 C 172.753906 102.238281 171.875 102.222656 171.449219 102.191406 C 170.566406 102.125 169.683594 102.109375 168.796875 102.074219 C 168.4375 102.058594 168.058594 102.09375 167.703125 102.035156 C 167.074219 101.933594 166.53125 101.75 165.976562 101.550781 L 165.976562 94.695312 C 165.976562 94.578125 165.964844 94.46875 165.941406 94.386719 C 165.9375 94.367188 165.929688 94.347656 165.921875 94.332031 Z M 165.152344 101.28125 C 165.152344 101.515625 165.058594 101.742188 164.890625 101.910156 C 164.722656 102.078125 164.496094 102.171875 164.261719 102.171875 C 163.671875 102.171875 162.816406 102.171875 162.226562 102.171875 C 161.992188 102.171875 161.765625 102.078125 161.597656 101.910156 C 161.429688 101.742188 161.335938 101.515625 161.335938 101.28125 C 161.335938 99.789062 161.335938 96.121094 161.335938 94.628906 C 161.335938 94.390625 161.429688 94.164062 161.597656 94 C 161.765625 93.832031 161.992188 93.738281 162.226562 93.738281 C 162.816406 93.738281 163.671875 93.738281 164.261719 93.738281 C 164.496094 93.738281 164.722656 93.832031 164.890625 94 C 165.058594 94.164062 165.152344 94.390625 165.152344 94.628906 L 165.152344 94.636719 C 165.152344 94.65625 165.152344 94.675781 165.152344 94.695312 L 165.152344 101.28125 " fill-opacity="1" fill-rule="evenodd"/><path fill="rgb(100%, 100%, 100%)" d="M 158.050781 138.054688 L 148.089844 138.054688 C 148.089844 135.308594 150.320312 133.078125 153.070312 133.078125 C 155.820312 133.078125 158.050781 135.308594 158.050781 138.054688 " fill-opacity="1" fill-rule="evenodd"/><path fill="rgb(100%, 100%, 100%)" d="M 153.070312 126.941406 C 154.515625 126.941406 155.6875 128.113281 155.6875 129.554688 C 155.6875 131 154.515625 132.167969 153.070312 132.167969 C 151.625 132.167969 150.453125 131 150.453125 129.554688 C 150.453125 128.113281 151.625 126.941406 153.070312 126.941406 " fill-opacity="1" fill-rule="evenodd"/></svg>